/* XPM */
static char * colorManager_xpm[] = {
"48 48 111 2",
"  	c None",
". 	c #0F880F",
"+ 	c #108310",
"@ 	c #0C970C",
"# 	c #0A9D0A",
"$ 	c #0D910D",
"% 	c #0E8C0E",
"& 	c #0F870F",
"* 	c #0B9A0B",
"= 	c #118011",
"- 	c #0C960C",
"; 	c #0F8B0F",
"> 	c #108510",
", 	c #0B990B",
"' 	c #0D940D",
") 	c #0E8E0E",
"! 	c #0F890F",
"~ 	c #0A9C0A",
"{ 	c #6F4011",
"] 	c #46800E",
"^ 	c #1C8046",
"/ 	c #2B406F",
"( 	c #8A0F0F",
"_ 	c #9D0A0A",
": 	c #7B510E",
"< 	c #318D0D",
"[ 	c #148D31",
"} 	c #2E517B",
"| 	c #3B0A9D",
"1 	c #350F8A",
"2 	c #980A0B",
"3 	c #6B650E",
"4 	c #1A970B",
"5 	c #0E971A",
"6 	c #28656B",
"7 	c #390A98",
"8 	c #90270D",
"9 	c #59750E",
"0 	c #0B9B0B",
"a 	c #227559",
"b 	c #362790",
"c 	c #85400D",
"d 	c #40850D",
"e 	c #198540",
"f 	c #324085",
"g 	c #9B0B0B",
"h 	c #77560E",
"i 	c #28900D",
"j 	c #129028",
"k 	c #2D5677",
"l 	c #3A0B9B",
"m 	c #98110C",
"n 	c #666A0E",
"o 	c #13980B",
"p 	c #0D9813",
"q 	c #276A66",
"r 	c #391198",
"s 	c #8F2B0D",
"t 	c #517A0E",
"u 	c #1F7A51",
"v 	c #362B8F",
"w 	c #80470E",
"x 	c #3A880D",
"y 	c #17883A",
"z 	c #304780",
"A 	c #735C0E",
"B 	c #23930C",
"C 	c #109323",
"D 	c #2B5C73",
"E 	c #941C0C",
"F 	c #636D0E",
"G 	c #0A9A0B",
"H 	c #0B9A0A",
"I 	c #256D63",
"J 	c #381C94",
"K 	c #8C320D",
"L 	c #4B7E0E",
"M 	c #1D7E4B",
"N 	c #35328C",
"O 	c #900E0E",
"P 	c #3B0A9C",
"Q 	c #890F0F",
"R 	c #9C0A0A",
"S 	c #340F89",
"T 	c #8E0E0E",
"U 	c #360E8E",
"V 	c #940D0D",
"W 	c #380D94",
"X 	c #851010",
"Y 	c #990B0B",
"Z 	c #3A0B99",
"` 	c #331085",
" .	c #8B0F0F",
"..	c #350F8B",
"+.	c #910D0D",
"@.	c #370D91",
"#.	c #801111",
"$.	c #960C0C",
"%.	c #390C96",
"&.	c #311180",
"*.	c #870F0F",
"=.	c #9A0B0B",
"-.	c #3A0B9A",
";.	c #340F87",
">.	c #8C0E0E",
",.	c #350E8C",
"'.	c #831010",
").	c #970C0C",
"!.	c #390C97",
"~.	c #321083",
"{.	c #761212",
"                                              . .                                               ",
"                                          + @ # # @ +                                           ",
"                                        $ # # # # # # $                                         ",
"                                    % # # # # # # # # # # %                                     ",
"                                & * # # # # # # # # # # # # * &                                 ",
"                            = - # # # # # # # # # # # # # # # # - =                             ",
"                          $ # # # # # # # # # # # # # # # # # # # # $                           ",
"                      ; # # # # # # # # # # # # # # # # # # # # # # # # ;                       ",
"                  > , # # # # # # # # # # # # # # # # # # # # # # # # # # , >                   ",
"                ' # # # # # # # # # # # # # # # # # # # # # # # # # # # # # # '                 ",
"            ) # # # # # # # # # # # # # # # # # # # # # # # # # # # # # # # # # # )             ",
"        ! ~ # # # # # # # # # # # # # # # # # # # # # # # # # # # # # # # # # # # # ~ !         ",
"      { ] # # # # # # # # # # # # # # # # # # # # # # # # # # # # # # # # # # # # # # ^ /       ",
"      ( _ : < # # # # # # # # # # # # # # # # # # # # # # # # # # # # # # # # # # [ } | 1       ",
"      ( _ _ 2 3 4 # # # # # # # # # # # # # # # # # # # # # # # # # # # # # # 5 6 7 | | 1       ",
"      ( _ _ _ _ 8 9 0 # # # # # # # # # # # # # # # # # # # # # # # # # # 0 a b | | | | 1       ",
"      ( _ _ _ _ _ _ c d # # # # # # # # # # # # # # # # # # # # # # # # e f | | | | | | 1       ",
"      ( _ _ _ _ _ _ _ g h i # # # # # # # # # # # # # # # # # # # # j k l | | | | | | | 1       ",
"      ( _ _ _ _ _ _ _ _ _ m n o # # # # # # # # # # # # # # # # p q r | | | | | | | | | 1       ",
"      ( _ _ _ _ _ _ _ _ _ _ _ s t # # # # # # # # # # # # # # u v | | | | | | | | | | | 1       ",
"      ( _ _ _ _ _ _ _ _ _ _ _ _ _ w x # # # # # # # # # # y z | | | | | | | | | | | | | 1       ",
"      ( _ _ _ _ _ _ _ _ _ _ _ _ _ _ g A B # # # # # # C D l | | | | | | | | | | | | | | 1       ",
"      ( _ _ _ _ _ _ _ _ _ _ _ _ _ _ _ _ E F G # # H I J | | | | | | | | | | | | | | | | 1       ",
"      ( _ _ _ _ _ _ _ _ _ _ _ _ _ _ _ _ _ _ K L M N | | | | | | | | | | | | | | | | | | 1       ",
"      ( _ _ _ _ _ _ _ _ _ _ _ _ _ _ _ _ _ _ _ O P | | | | | | | | | | | | | | | | | | | 1       ",
"      ( _ _ _ _ _ _ _ _ _ _ _ _ _ _ _ _ _ _ _ O P | | | | | | | | | | | | | | | | | | | 1       ",
"      ( _ _ _ _ _ _ _ _ _ _ _ _ _ _ _ _ _ _ _ O P | | | | | | | | | | | | | | | | | | | 1       ",
"      ( _ _ _ _ _ _ _ _ _ _ _ _ _ _ _ _ _ _ _ O P | | | | | | | | | | | | | | | | | | | 1       ",
"      ( _ _ _ _ _ _ _ _ _ _ _ _ _ _ _ _ _ _ _ O P | | | | | | | | | | | | | | | | | | | 1       ",
"      ( _ _ _ _ _ _ _ _ _ _ _ _ _ _ _ _ _ _ _ O P | | | | | | | | | | | | | | | | | | | 1       ",
"      ( _ _ _ _ _ _ _ _ _ _ _ _ _ _ _ _ _ _ _ O P | | | | | | | | | | | | | | | | | | | 1       ",
"      ( _ _ _ _ _ _ _ _ _ _ _ _ _ _ _ _ _ _ _ O P | | | | | | | | | | | | | | | | | | | 1       ",
"      ( _ _ _ _ _ _ _ _ _ _ _ _ _ _ _ _ _ _ _ O P | | | | | | | | | | | | | | | | | | | 1       ",
"      ( _ _ _ _ _ _ _ _ _ _ _ _ _ _ _ _ _ _ _ O P | | | | | | | | | | | | | | | | | | | 1       ",
"      ( _ _ _ _ _ _ _ _ _ _ _ _ _ _ _ _ _ _ _ O P | | | | | | | | | | | | | | | | | | | 1       ",
"      ( _ _ _ _ _ _ _ _ _ _ _ _ _ _ _ _ _ _ _ O P | | | | | | | | | | | | | | | | | | | 1       ",
"        Q R _ _ _ _ _ _ _ _ _ _ _ _ _ _ _ _ _ O P | | | | | | | | | | | | | | | | | P S         ",
"            T _ _ _ _ _ _ _ _ _ _ _ _ _ _ _ _ O P | | | | | | | | | | | | | | | | U             ",
"                V _ _ _ _ _ _ _ _ _ _ _ _ _ _ O P | | | | | | | | | | | | | | W                 ",
"                  X Y _ _ _ _ _ _ _ _ _ _ _ _ O P | | | | | | | | | | | | Z `                   ",
"                       ._ _ _ _ _ _ _ _ _ _ _ O P | | | | | | | | | | | ..                      ",
"                          +._ _ _ _ _ _ _ _ _ O P | | | | | | | | | @.                          ",
"                            #.$._ _ _ _ _ _ _ O P | | | | | | | %.&.                            ",
"                                *.=._ _ _ _ _ O P | | | | | -.;.                                ",
"                                    >._ _ _ _ O P | | | | ,.                                    ",
"                                        +._ _ O P | | @.                                        ",
"                                          '.).O P !.~.                                          ",
"                                              {.;.                                              "};
