/* XPM */
static char * fitModel_xpm[] = {
"48 48 323 2",
"  	c None",
". 	c #FF0000",
"+ 	c #B9B9FF",
"@ 	c #BDBDFF",
"# 	c #B8B8FF",
"$ 	c #B2B2FF",
"% 	c #C9C8FF",
"& 	c #C2C2FF",
"* 	c #BDBCFF",
"= 	c #B6B6FF",
"- 	c #B0B1FF",
"; 	c #ACABFF",
"> 	c #A5A5FF",
", 	c #D2D2FF",
"' 	c #CDCDFF",
") 	c #C7C7FF",
"! 	c #C1C2FF",
"~ 	c #B0B0FF",
"{ 	c #A9AAFF",
"] 	c #A4A4FF",
"^ 	c #9D9DFF",
"/ 	c #9797FF",
"( 	c #D7D7FF",
"_ 	c #D2D3FF",
": 	c #C1C1FF",
"< 	c #BABBFF",
"[ 	c #B4B5FF",
"} 	c #AEAEFF",
"| 	c #A8A8FF",
"1 	c #A1A2FF",
"2 	c #9C9CFF",
"3 	c #9595FF",
"4 	c #908FFF",
"5 	c #8C8BFF",
"6 	c #DEDEFF",
"7 	c #D8D8FF",
"8 	c #CCCBFF",
"9 	c #C6C6FF",
"0 	c #BFC0FF",
"a 	c #B3B3FF",
"b 	c #ADADFF",
"c 	c #A7A7FF",
"d 	c #A1A1FF",
"e 	c #9B9BFF",
"f 	c #8F8FFF",
"g 	c #8988FF",
"h 	c #8483FF",
"i 	c #EAE9FF",
"j 	c #E3E4FF",
"k 	c #DDDDFF",
"l 	c #D0D0FF",
"m 	c #CACAFF",
"n 	c #C4C4FF",
"o 	c #BEBEFF",
"p 	c #ACACFF",
"q 	c #A6A6FF",
"r 	c #A0A0FF",
"s 	c #9A9AFF",
"t 	c #9394FF",
"u 	c #8D8EFF",
"v 	c #8787FF",
"w 	c #8080FF",
"x 	c #7B7AFF",
"y 	c #7675FF",
"z 	c #F4F4FF",
"A 	c #EFEEFF",
"B 	c #E8E8FF",
"C 	c #E2E1FF",
"D 	c #DBDCFF",
"E 	c #D5D5FF",
"F 	c #CFCFFF",
"G 	c #C9C9FF",
"H 	c #C3C3FF",
"I 	c #B7B8FF",
"J 	c #B1B1FF",
"K 	c #ABABFF",
"L 	c #9F9EFF",
"M 	c #9898FF",
"N 	c #9292FF",
"O 	c #8686FF",
"P 	c #7979FF",
"Q 	c #7474FF",
"R 	c #6E6EFF",
"S 	c #FEFEFF",
"T 	c #F8F9FF",
"U 	c #F3F3FF",
"V 	c #EDEDFF",
"W 	c #E6E7FF",
"X 	c #E0E0FF",
"Y 	c #DADAFF",
"Z 	c #D4D4FF",
"` 	c #CECFFF",
" .	c #C8C8FF",
"..	c #BCBDFF",
"+.	c #A2A3FF",
"@.	c #9697FF",
"#.	c #9191FF",
"$.	c #8B8BFF",
"%.	c #8585FF",
"&.	c #7F7FFF",
"*.	c #7273FF",
"=.	c #6C6CFF",
"-.	c #6666FF",
";.	c #5F5FFF",
">.	c #FDFDFF",
",.	c #F8F8FF",
"'.	c #F1F1FF",
").	c #EBEBFF",
"!.	c #E5E5FF",
"~.	c #D9D9FF",
"{.	c #D3D3FF",
"].	c #C7C6FF",
"^.	c #BBBBFF",
"/.	c #B5B4FF",
"(.	c #A2A2FF",
"_.	c #9D9CFF",
":.	c #9696FF",
"<.	c #9090FF",
"[.	c #8A8AFF",
"}.	c #8484FF",
"|.	c #7D7DFF",
"1.	c #7777FF",
"2.	c #7171FF",
"3.	c #6A6AFF",
"4.	c #6465FF",
"5.	c #5959FF",
"6.	c #5353FF",
"7.	c #F5F5FF",
"8.	c #EBEAFF",
"9.	c #E4E4FF",
"0.	c #DEDFFF",
"a.	c #D2D1FF",
"b.	c #CCCCFF",
"c.	c #C5C6FF",
"d.	c #BFBFFF",
"e.	c #A7A8FF",
"f.	c #9594FF",
"g.	c #8E8EFF",
"h.	c #8989FF",
"i.	c #8282FF",
"j.	c #7C7CFF",
"k.	c #7576FF",
"l.	c #7070FF",
"m.	c #6B6AFF",
"n.	c #6464FF",
"o.	c #5E5EFF",
"p.	c #5758FF",
"q.	c #5152FF",
"r.	c #4B4BFF",
"s.	c #4545FF",
"t.	c #EEEEFF",
"u.	c #E9E9FF",
"v.	c #E3E3FF",
"w.	c #D6D7FF",
"x.	c #CACBFF",
"y.	c #BEBFFF",
"z.	c #B8B9FF",
"A.	c #B2B3FF",
"B.	c #9A99FF",
"C.	c #9393FF",
"D.	c #8D8DFF",
"E.	c #8181FF",
"F.	c #7B7BFF",
"G.	c #7575FF",
"H.	c #6F6FFF",
"I.	c #6969FF",
"J.	c #6363FF",
"K.	c #5C5DFF",
"L.	c #5656FF",
"M.	c #5050FF",
"N.	c #4A4AFF",
"O.	c #4444FF",
"P.	c #3F3FFF",
"Q.	c #E1E1FF",
"R.	c #DBDBFF",
"S.	c #D5D6FF",
"T.	c #BEBDFF",
"U.	c #B7B7FF",
"V.	c #9E9EFF",
"W.	c #9899FF",
"X.	c #8C8DFF",
"Y.	c #7A7AFF",
"Z.	c #7373FF",
"`.	c #6D6DFF",
" +	c #6767FF",
".+	c #6161FF",
"++	c #5B5BFF",
"@+	c #5554FF",
"#+	c #4F4FFF",
"$+	c #494AFF",
"%+	c #4343FF",
"&+	c #3D3DFF",
"*+	c #3737FF",
"=+	c #3132FF",
"-+	c #D4D5FF",
";+	c #CECEFF",
">+	c #BCBBFF",
",+	c #AFB0FF",
"'+	c #AAAAFF",
")+	c #A3A3FF",
"!+	c #9291FF",
"~+	c #7878FF",
"{+	c #7272FF",
"]+	c #6060FF",
"^+	c #5454FF",
"/+	c #4E4EFF",
"(+	c #4848FF",
"_+	c #4141FF",
":+	c #3B3BFF",
"<+	c #3535FF",
"[+	c #2F2FFF",
"}+	c #2929FF",
"|+	c #2424FF",
"1+	c #C1C0FF",
"2+	c #BBBAFF",
"3+	c #AEAFFF",
"4+	c #A9A9FF",
"5+	c #A3A2FF",
"6+	c #7E7DFF",
"7+	c #6B6BFF",
"8+	c #6565FF",
"9+	c #4D4DFF",
"0+	c #4646FF",
"a+	c #4040FF",
"b+	c #3A3AFF",
"c+	c #3434FF",
"d+	c #2E2EFF",
"e+	c #2828FF",
"f+	c #2223FF",
"g+	c #1C1CFF",
"h+	c #1616FF",
"i+	c #BABAFF",
"j+	c #B4B4FF",
"k+	c #AEADFF",
"l+	c #9A9BFF",
"m+	c #8383FF",
"n+	c #7676FF",
"o+	c #7071FF",
"p+	c #5E5DFF",
"q+	c #5857FF",
"r+	c #3939FF",
"s+	c #3333FF",
"t+	c #2D2DFF",
"u+	c #2727FF",
"v+	c #2121FF",
"w+	c #1A1BFF",
"x+	c #1414FF",
"y+	c #0E0DFF",
"z+	c #0908FF",
"A+	c #9FA0FF",
"B+	c #999AFF",
"C+	c #9494FF",
"D+	c #7B7CFF",
"E+	c #5C5CFF",
"F+	c #5151FF",
"G+	c #3F3EFF",
"H+	c #3838FF",
"I+	c #3231FF",
"J+	c #2B2CFF",
"K+	c #2525FF",
"L+	c #1F1FFF",
"M+	c #1819FF",
"N+	c #1313FF",
"O+	c #0708FF",
"P+	c #0202FF",
"Q+	c #6E6DFF",
"R+	c #6262FF",
"S+	c #5555FF",
"T+	c #4949FF",
"U+	c #3030FF",
"V+	c #2A2AFF",
"W+	c #1E1FFF",
"X+	c #1818FF",
"Y+	c #1212FF",
"Z+	c #0D0CFF",
"`+	c #0606FF",
" @	c #0101FF",
".@	c #8584FF",
"+@	c #6667FF",
"@@	c #6061FF",
"#@	c #5B5AFF",
"$@	c #4747FF",
"%@	c #3C3CFF",
"&@	c #2323FF",
"*@	c #1D1DFF",
"=@	c #1717FF",
"-@	c #1111FF",
";@	c #0B0BFF",
">@	c #0405FF",
",@	c #0000FF",
"'@	c #7E7FFF",
")@	c #4D4CFF",
"!@	c #2222FF",
"~@	c #1615FF",
"{@	c #1010FF",
"]@	c #090AFF",
"^@	c #7C7DFF",
"/@	c #7677FF",
"(@	c #5858FF",
"_@	c #5252FF",
":@	c #4C4CFF",
"<@	c #3F40FF",
"[@	c #3332FF",
"}@	c #2726FF",
"|@	c #2020FF",
"1@	c #1B1BFF",
"2@	c #5D5DFF",
"3@	c #5051FF",
"4@	c #4A4BFF",
"5@	c #3E3EFF",
"6@	c #2C2BFF",
"7@	c #2625FF",
"8@	c #5556FF",
"9@	c #4F50FF",
"0@	c #4342FF",
"a@	c #3131FF",
"b@	c #2B2BFF",
"c@	c #5A5AFF",
"d@	c #3D3CFF",
"e@	c #3636FF",
"f@	c #5453FF",
"g@	c #4D4EFF",
"h@	c #3A3BFF",
". . . . . . . . . . . . . . . . . . . . . . . . . . . . . . . . . . . . . . . . . . . . . . . . ",
".                                                                                             . ",
".                                                                                             . ",
".                                                                                             . ",
".                                                                                             . ",
".                                                                                             . ",
".                                                                                             . ",
".                                                                                             . ",
".                                                                                             . ",
".                                                                                             . ",
".                               +                                                             . ",
".                             @ # $                                                           . ",
".                         % & * = - ; >                                                       . ",
".                     , ' ) ! * = ~ { ] ^ /                                                   . ",
".                   ( _ ' ) : < [ } | 1 2 3 4 5                                               . ",
".                 6 7 , 8 9 0 + a b c d e 3 f g h                                             . ",
".             i j k ( l m n o # $ p q r s t u v w x y                                         . ",
".         z A B C D E F G H @ I J K > L M N 5 O w P Q R                                       . ",
".     S T U V W X Y Z `  .& ..= ~ { +.^ @.#.$.%.&.P *.=.-.;.                                  . ",
".     >.,.'.).!.X ~.{.' ].: ^./.} | (._.:.<.[.}.|.1.2.3.4.;.5.6.                              . ",
".       7.'.8.9.0.7 a.b.c.d.+ a } e.d e f.g.h.i.j.k.l.m.n.o.p.q.r.s.                          . ",
".         t.u.v.k w.l x.n y.z.A.p q r B.C.D.v E.F.G.H.I.J.K.L.M.N.O.P.                        . ",
".             Q.R.S.l m H T.U.- K ] V.W.N X.v w Y.Z.`. +.+++@+#+$+%+&+*+=+                    . ",
".                 -+;+ .& >+= ,+'+)+V.M !+$.%.&.~+{+=.-.]+++^+/+(+_+:+<+[+}+|+                . ",
".                     9 1+2+[ 3+4+5+2 :.<.[.h 6+1.2.7+8+;.5.6.9+0+a+b+c+d+e+f+g+h+            . ",
".                         i+j+k+c d l+3 g.g m+j.n+o+3.n.p+q+q.r.s.a+r+s+t+u+v+w+x+y+z+        . ",
".                             p q A+B+C+g.v i.D+G.H.I.J.E+L.F+N.O.G+H+I+J+K+L+M+N+y+O+P+      . ",
".                               > A+W.C.X.O w Y.Q Q+ +R+E+S+#+T+%+&+*+U+V+|+W+X+Y+Z+`+ @      . ",
".                                   M #.$..@&.~+Z.`.+@@@#@^+/+$@_+%@<+U+V+&@*@=@-@;@>@,@      . ",
".                                     f h.}.'@~+{+7+8+;.5.6.)@0+_+:+c+d+e+!@g+~@{@]@          . ",
".                                         m+^@/@l.3.n.o.(@_@:@0+<@r+[@t+}@|@1@x+              . ",
".                                             Q H.I.J.2@p.3@4@O.5@*+I+6@7@v+                  . ",
".                                                  +R+E+8@9@T+0@&+*+a@b@                      . ",
".                                                     c@^+/+(+0@d@e@                          . ",
".                                                       f@g@$@_+h@                            . ",
".                                                           0+                                . ",
".                                                                                             . ",
".                                                                                             . ",
".                                                                                             . ",
".                                                                                             . ",
".                                                                                             . ",
".                                                                                             . ",
".                                                                                             . ",
".                                                                                             . ",
".                                                                                             . ",
".                                                                                             . ",
".                                                                                             . ",
". . . . . . . . . . . . . . . . . . . . . . . . . . . . . . . . . . . . . . . . . . . . . . . . "};
