/* XPM */
static char * fitModel_xpm[] = {
"48 48 215 2",
"  	c None",
". 	c #000000",
"+ 	c #0D0DCA",
"@ 	c #0F0FBB",
"# 	c #0C0CCF",
"$ 	c #0202F7",
"% 	c #0808E2",
"& 	c #0000FF",
"* 	c #0B0BD6",
"= 	c #0D0DCC",
"- 	c #0606EA",
"; 	c #0202F8",
"> 	c #0D0DC9",
", 	c #0404F0",
"' 	c #0606E7",
") 	c #0909DC",
"! 	c #0F0FBC",
"~ 	c #1111B0",
"{ 	c #0A0ADC",
"] 	c #0101FF",
"^ 	c #1010DC",
"/ 	c #0808FF",
"( 	c #1818DC",
"_ 	c #139D13",
": 	c #0404FF",
"< 	c #1616FF",
"[ 	c #2222DC",
"} 	c #0CD10C",
"| 	c #09DD09",
"1 	c #05EC05",
"2 	c #00FE00",
"3 	c #10B810",
"4 	c #1010FF",
"5 	c #2323FF",
"6 	c #2D2DDC",
"7 	c #139913",
"8 	c #0BD30B",
"9 	c #01FB01",
"0 	c #00FF00",
"a 	c #0BD60B",
"b 	c #1414B0",
"c 	c #1D1DFF",
"d 	c #3030FF",
"e 	c #3838DC",
"f 	c #10B310",
"g 	c #05EE05",
"h 	c #04F004",
"i 	c #13A113",
"j 	c #1919B0",
"k 	c #2A2AFF",
"l 	c #3D3EFF",
"m 	c #4343DC",
"n 	c #08E108",
"o 	c #07E407",
"p 	c #01FC01",
"q 	c #0FBB0F",
"r 	c #1F1FB0",
"s 	c #3838FF",
"t 	c #4B4BFF",
"u 	c #4F4FDC",
"v 	c #02FA02",
"w 	c #05ED05",
"x 	c #10B710",
"y 	c #11B111",
"z 	c #2627B0",
"A 	c #4545FF",
"B 	c #5858FF",
"C 	c #5A5ADC",
"D 	c #16C816",
"E 	c #07F207",
"F 	c #02F602",
"G 	c #09DC09",
"H 	c #0EC60E",
"I 	c #2F2FB0",
"J 	c #5252FF",
"K 	c #6666FF",
"L 	c #6666DC",
"M 	c #22E922",
"N 	c #0FFF0F",
"O 	c #01FD01",
"P 	c #08E208",
"Q 	c #0DC80D",
"R 	c #3737B0",
"S 	c #6060FF",
"T 	c #7373FF",
"U 	c #7171DC",
"V 	c #3CDD3C",
"W 	c #31FE31",
"X 	c #1AFF1A",
"Y 	c #04FF04",
"Z 	c #06E806",
"` 	c #0CCD0C",
" .	c #4040B0",
"..	c #6D6DFF",
"+.	c #8081FF",
"@.	c #7D7DDC",
"#.	c #55D455",
"$.	c #51F951",
"%.	c #3DFF3D",
"&.	c #25FF25",
"*.	c #0EFF0E",
"=.	c #0AD70A",
"-.	c #0EC40E",
";.	c #4949B0",
">.	c #7B7BFF",
",.	c #8E8EFF",
"'.	c #8888DC",
").	c #67C467",
"!.	c #6EEF6E",
"~.	c #5FFF5F",
"{.	c #48FF48",
"].	c #30FF30",
"^.	c #1AF61A",
"/.	c #0CDE0C",
"(.	c #0EC50E",
"_.	c #5252B0",
":.	c #8888FF",
"<.	c #9A9AFE",
"[.	c #8CA1C6",
"}.	c #87E587",
"|.	c #82FF82",
"1.	c #6AFF6A",
"2.	c #53FF53",
"3.	c #3BFD3B",
"4.	c #22E323",
"5.	c #13CB13",
"6.	c #5B5BB0",
"7.	c #8C93E9",
"8.	c #9FD2B8",
"9.	c #A3FDA3",
"0.	c #8DFF8D",
"a.	c #76FF76",
"b.	c #5EFF5E",
"c.	c #42EB42",
"d.	c #2AD22A",
"e.	c #1CC01C",
"f.	c #5A5E97",
"g.	c #A9DAAA",
"h.	c #B0FFB0",
"i.	c #98FF98",
"j.	c #81FF81",
"k.	c #67F166",
"l.	c #B0BB7E",
"m.	c #78AC56",
"n.	c #8DC08D",
"o.	c #84D084",
"p.	c #80E880",
"q.	c #A7C375",
"r.	c #EE9791",
"s.	c #FF9C9C",
"t.	c #FD9B9B",
"u.	c #D98080",
"v.	c #679E57",
"w.	c #D96E6E",
"x.	c #F27A7A",
"y.	c #FF8080",
"z.	c #FF7F7F",
"A.	c #F47979",
"B.	c #CE6060",
"C.	c #C85151",
"D.	c #E05858",
"E.	c #FB6262",
"F.	c #FF6363",
"G.	c #FF6262",
"H.	c #EC5858",
"I.	c #CD3A3A",
"J.	c #E64141",
"K.	c #FF4646",
"L.	c #FF4545",
"M.	c #E33A3A",
"N.	c #BF2727",
"O.	c #D22525",
"P.	c #ED2929",
"Q.	c #FF2929",
"R.	c #FB2828",
"S.	c #D61F1F",
"T.	c #C51515",
"U.	c #DC1111",
"V.	c #F40F0F",
"W.	c #FF0D0D",
"X.	c #FF0C0C",
"Y.	c #F40C0C",
"Z.	c #CB0E0E",
"`.	c #C60E0E",
" +	c #E20808",
".+	c #FB0101",
"++	c #FF0000",
"@+	c #E90606",
"#+	c #CD0C0C",
"$+	c #E80606",
"%+	c #DE0909",
"&+	c #BF0F0F",
"*+	c #D60B0B",
"=+	c #F00404",
"-+	c #F90202",
";+	c #D20B0B",
">+	c #C50E0E",
",+	c #DD0909",
"'+	c #F70202",
")+	c #D50B0B",
"!+	c #E30808",
"~+	c #C80D0D",
"{+	c #E30707",
"]+	c #FE0000",
"^+	c #B31111",
"/+	c #C00F0F",
"(+	c #A41212",
"_+	c #C20E0E",
":+	c #DF0808",
"<+	c #E40707",
"[+	c #F30303",
"}+	c #BD0F0F",
"|+	c #D00C0C",
"1+	c #B71010",
"2+	c #AF1111",
". . . . . . . . . . . . . . . . . . . . . . . . . . . . . . . . . . . . . . . . . . . . . . . . ",
". .                                                                                         . . ",
".                                                                                             . ",
".                     + @                                                                     . ",
".                     # $                                                                     . ",
".                     % & *                                                                   . ",
".                   = - & ;                                                                   . ",
".                   > & & & *                                                                 . ",
".                   % & & ,                                                                   . ",
".                 > ' & & )                                                                   . ",
".                 ! # & & )                                                                   . ",
".                   ~ & & )                                                                   . ",
".                   ~ & & )                                                                   . ",
".                   ~ & & )                                                                   . ",
".                   ~ & & )                                                                   . ",
".                   ~ & & {                                                                   . ",
".                   ~ & ] ^                                                                   . ",
".                   ~ & / (                                           _                       . ",
".                   ~ : < [                                   } | 1 2 3                       . ",
".                   ~ 4 5 6                           7 8 9 0 0 0 0 a                         . ",
".                   b c d e                           f g 0 0 0 0 h i                         . ",
".                   j k l m                         n 0 0 0 0 o p q                           . ",
".                   r s t u                     a v 0 0 0 w 8 x y                             . ",
".                   z A B C                 D E 0 0 0 F G H                                   . ",
".                   I J K L               M N 0 0 O P Q                                       . ",
".                   R S T U           V W X Y 0 Z `                                           . ",
".                    ...+.@.      #.$.%.&.*.h =.-.                                            . ",
".                   ;.>.,.'.  ).!.~.{.].^./.(.                                                . ",
".                   _.:.<.[.}.|.1.2.3.4.5.                                                    . ",
".                   6.7.8.9.0.a.b.c.d.e.                                                      . ",
".                   f.g.h.i.j.k.l.m.                                                          . ",
".                     n.o.p.q.r.s.t.u.                                                        . ",
".                         v.w.x.y.z.z.A.B.                                                    . ",
".                             C.D.E.F.F.G.H.                                                  . ",
".                                 I.J.K.K.K.L.M.                                              . ",
".                                   N.O.P.Q.Q.Q.R.S.                                          . ",
".                                       T.U.V.W.X.X.Y.Z.                                      . ",
".                                           `. +.+++++++@+                                    . ",
".                                               #+$+++++++++%+                                . ",
".                                                 &+*+=+++++++-+;+                            . ",
".                                                     >+,+'+++++++=+)+!+                      . ",
".                                                         ~+{+]+++++++++%+                    . ",
".                                                           ^+ +++++++++++/+                  . ",
".                                                           (+_+:+{+<+.+++[+                  . ",
".                                                                   ;+}+|+!+1+                . ",
".                                                                           2+                . ",
". .                                                                                         . . ",
". . . . . . . . . . . . . . . . . . . . . . . . . . . . . . . . . . . . . . . . . . . . . . . . "};
