/* XPM */
static char * getDimensions_xpm[] = {
"48 48 223 2",
"  	c None",
". 	c #FFFFFF",
"+ 	c #B1B1FF",
"@ 	c #3838FF",
"# 	c #8282FF",
"$ 	c #ADADFF",
"% 	c #0000FF",
"& 	c #7979FF",
"* 	c #CDCDFF",
"= 	c #8A8AFF",
"- 	c #6060FF",
"; 	c #E0E0FF",
"> 	c #A0A0FF",
", 	c #B9B9FF",
"' 	c #7D7DFF",
") 	c #5656FF",
"! 	c #D5D5FF",
"~ 	c #BFBFFF",
"{ 	c #7373FF",
"] 	c #4F4FFF",
"^ 	c #B0B0FF",
"/ 	c #7777FF",
"( 	c #EDEDFF",
"_ 	c #E8E8FF",
": 	c #9C9CFF",
"< 	c #6D6DFF",
"[ 	c #E9E9FF",
"} 	c #F3F3F3",
"| 	c #DADADA",
"1 	c #CCCCCC",
"2 	c #BABABA",
"3 	c #C9C9C9",
"4 	c #D7D7D7",
"5 	c #EFEFEF",
"6 	c #FBFBFB",
"7 	c #D4D4D4",
"8 	c #9E9E9E",
"9 	c #7F7F7F",
"0 	c #818181",
"a 	c #828282",
"b 	c #808080",
"c 	c #7D7D7D",
"d 	c #919191",
"e 	c #F8F8F8",
"f 	c #E6E6E6",
"g 	c #979797",
"h 	c #868686",
"i 	c #898989",
"j 	c #8C8C8C",
"k 	c #8D8D8D",
"l 	c #8A8A8A",
"m 	c #878788",
"n 	c #848484",
"o 	c #DBDBDB",
"p 	c #D3D2D3",
"q 	c #878787",
"r 	c #909090",
"s 	c #949494",
"t 	c #969696",
"u 	c #989898",
"v 	c #959595",
"w 	c #929292",
"x 	c #8E8E8E",
"y 	c #838383",
"z 	c #7D7C7C",
"A 	c #BEBEBE",
"B 	c #FEFEFE",
"C 	c #D2D2D2",
"D 	c #969695",
"E 	c #9A9A9A",
"F 	c #A1A1A1",
"G 	c #A3A3A3",
"H 	c #A2A2A2",
"I 	c #9F9F9F",
"J 	c #9C9C9C",
"K 	c #858585",
"L 	c #7D7E7D",
"M 	c #BBBBBB",
"N 	c #D6D6FF",
"O 	c #C9C9FF",
"P 	c #8787FF",
"Q 	c #5F5FFF",
"R 	c #ECECFF",
"S 	c #E4E4E4",
"T 	c #999999",
"U 	c #A4A4A4",
"V 	c #A9A9A9",
"W 	c #ACACAC",
"X 	c #ADADAD",
"Y 	c #AEAEAE",
"Z 	c #AAAAAA",
"` 	c #A6A6A6",
" .	c #9B9B9B",
"..	c #7D7C7D",
"+.	c #D1D1D1",
"@.	c #F4F4FF",
"#.	c #8080FF",
"$.	c #4747FF",
"%.	c #F4F4FB",
"&.	c #9A9999",
"*.	c #A8A8A8",
"=.	c #B3B3B3",
"-.	c #B6B6B6",
";.	c #B8B8B8",
">.	c #B9B9B9",
",.	c #B7B7B7",
"'.	c #B4B4B4",
").	c #B0B0B0",
"!.	c #F2F2F3",
"~.	c #7474FF",
"{.	c #C7C7FF",
"].	c #8686FF",
"^.	c #5D5DFF",
"/.	c #DDDDFF",
"(.	c #D0D0D0",
"_.	c #8F8F8F",
":.	c #B0B0B1",
"<.	c #BDBDBD",
"[.	c #C1C1C1",
"}.	c #C3C3C3",
"|.	c #C3C3C4",
"1.	c #C2C2C2",
"2.	c #E6E6FF",
"3.	c #A7A7A7",
"4.	c #C0C0C0",
"5.	c #C6C6C6",
"6.	c #CBCBCB",
"7.	c #CECECE",
"8.	c #C8C8C8",
"9.	c #C3C2C3",
"0.	c #AAAAAB",
"a.	c #ECECEC",
"b.	c #BFBFBF",
"c.	c #CFCFCF",
"d.	c #D5D5D5",
"e.	c #D9D8D9",
"f.	c #D9D9D9",
"g.	c #D1D2D1",
"h.	c #C2C2C3",
"i.	c #A6A7A6",
"j.	c #888888",
"k.	c #7E7D7D",
"l.	c #D3D3D3",
"m.	c #929291",
"n.	c #B1B1B1",
"o.	c #C5C5C5",
"p.	c #CECFCE",
"q.	c #DEDEDE",
"r.	c #E3E3E3",
"s.	c #E1E1E1",
"t.	c #B5B5B5",
"u.	c #ABABAB",
"v.	c #A0A0A0",
"w.	c #959695",
"x.	c #8B8B8B",
"y.	c #9E9F9E",
"z.	c #D4D4D3",
"A.	c #DDDDDE",
"B.	c #E7E7E7",
"C.	c #EDEDED",
"D.	c #EAEAE9",
"E.	c #CDCDCD",
"F.	c #B6B5B5",
"G.	c #D6D6D6",
"H.	c #F5F6F5",
"I.	c #EFF0EF",
"J.	c #E5E5E5",
"K.	c #C4C5C4",
"L.	c #AFAFAF",
"M.	c #A4A3A4",
"N.	c #B5B6B5",
"O.	c #EBEBEB",
"P.	c #F5F5F5",
"Q.	c #F7F7F7",
"R.	c #C4C4C4",
"S.	c #F8F8FF",
"T.	c #A5A5FF",
"U.	c #F9F9FF",
"V.	c #949394",
"W.	c #DDDDDD",
"X.	c #EDEEED",
"Y.	c #E9E9E8",
"Z.	c #E0E0E0",
"`.	c #989897",
" +	c #B2B2B2",
".+	c #FBFBFF",
"++	c #8B8BFF",
"@+	c #E2E2E2",
"#+	c #E0DFDF",
"$+	c #8B8A8B",
"%+	c #AEAEFF",
"&+	c #7C7CFF",
"*+	c #5151FF",
"=+	c #C7C7C7",
"-+	c #D8D8D8",
";+	c #D6D5D5",
">+	c #CACACA",
",+	c #888787",
"'+	c #E9EAE9",
")+	c #A4A4FF",
"!+	c #9D9D9D",
"~+	c #8E8D8D",
"{+	c #848383",
"]+	c #B0B0AF",
"^+	c #BCBCBC",
"/+	c #9A9B9B",
"(+	c #919090",
"_+	c #999899",
":+	c #9B9B9C",
"<+	c #939394",
"[+	c #A5A5A5",
"}+	c #A8A7A8",
"|+	c #ADACAD",
"1+	c #939393",
"2+	c #F4F4F4",
"3+	c #EAEAEA",
"4+	c #858686",
"5+	c #969796",
"6+	c #919091",
"7+	c #F1F1F1",
"8+	c #FCFCFC",
"9+	c #B4B3B4",
"0+	c #FAFAFA",
". . . . . . . . . . . + @ # . . . . . . . . . . . . . . . . . . . . . . . . . . . . . . . . . . ",
". . . . . . . . . . . $ % & . . . . . . . . . . . . . . . . . . . . . . . . . . . . . . . . . . ",
". . . . . . . . . . . $ % & . . . . . . . . . . . . . . . . . . . . . . . . . . . . . . . . . . ",
". . . . . . . . . . . $ % & . . . . . . . . . . . . . . . . . . . . . . . . . . . . . . . . . . ",
". . . . . . . . . . . $ % & . . . . . . . . . . . . . . . . . . . . . . . . . . . . . . . . . . ",
". . . . . . . . . . . $ % & . . . . . . . . . . . . . . . . . . . . . . . . . . . . . . . . . . ",
". . . . . . . . . . . $ % & . . . . . . . . . . . . . . . . . . . . . . . . . . . . . . . . . . ",
"* * * * * * * * * * * = % - * * * * * * * * * * * * * * * * * * * * * * * * * * * * * * * * * ; ",
"% % % % % % % % % % % % % % % % % % % % % % % % % % % % % % % % % % % % % % % % % % % % % % % > ",
", , , , , , , , , , , ' % ) , , , , , , , , , , , , , , , , , , , , , , , , , , , , , , , , , ! ",
". . . . . . . . . . . $ % & . . . . . . . . . . . . . . . . . . . . . . . . . . . . . . . . . . ",
". . . . . . . . . . . $ % & . . . . . . . . . . . . . . . . . . . . . . . . . . . . . . . . . . ",
". . . . . . . . . . . $ % & . . . . . . . . . . . . . . . . . . . . . . . . . . . . . . . . . . ",
". . . . . . . . . . . $ % & . . . . . . . . . . . . . . . . . . . . . . . . . . . . . . . . . . ",
". . . . . . . . . . . $ % & . . . . . . . . . . . . . . . . . . . . . . . . . . . . . . . . . . ",
". . . . . . . . . . . $ % & . . . . . . . . . . . . . . . . . . . . . . . . . . . . . . . . . . ",
"~ $ $ $ $ $ $ $ $ $ $ { % ] $ $ $ $ $ $ $ $ $ $ $ $ $ $ $ $ $ $ $ $ $ $ $ $ $ $ $ $ $ $ $ $ $ ^ ",
"/ % % % % % % % % % % % % % % % % % % % % % % % % % % % % % % % % % % % % % % % % % % % % % % @ ",
"( _ _ _ _ _ _ _ _ _ _ : % < _ _ _ _ _ _ _ _ _ _ _ _ _ _ _ _ _ _ _ _ _ _ _ _ _ _ _ _ _ _ _ _ _ [ ",
". . . . . . . . . . . $ % & . . . . . . . . . . . . . . . . . . . . . . . . . . . . . . . . . . ",
". . . . . . . . . . . $ % & . . . . . . . . . . . . . . . } | 1 2 3 4 5 . . . . . . . . . . . . ",
". . . . . . . . . . . $ % & . . . . . . . . . . . . 6 7 8 9 0 a a 0 b c d 1 e . . . . . . . . . ",
". . . . . . . . . . . $ % & . . . . . . . . . . . f g a h i j k k j l m n 9 i o . . . . . . . . ",
". . . . . . . . . . . $ % & . . . . . . . . . . p 0 q j r s t u u g v w x i y z A B . . . . . . ",
". . . . . . . . . . . $ % & . . . . . . . . . C a i r D E 8 F G G H I J g w j K L M . . . . . . ",
"N O O O O O O O O O O P % Q O O O O O O O R S b l w T I U V W X Y X Z ` F  .s k K ..+.@.O O O N ",
"#.% % % % % % % % % % % % % % % % % % % $.%.t i d &.F *.Y =.-.;.>.,.'.).Z U J s j y a !.~.% % #.",
"! {.{.{.{.{.{.{.{.{.{.].% ^.{.{.{.{.{.{./.(.K _.u F V :.,.<.[.}.|.1.A >.=.W U  .w i 9 >.2.{.{.! ",
". . . . . . . . . . . $ % & . . . . . . . g l s 8 3.).;.4.5.6.7.7.1 8.9.M =.0.F u x n 9 e . . . ",
". . . . . . . . . . . $ % & . . . . . . a.n x T G X -.b.8.c.d.e.f.4 g.6.h.2 ).i.J w j.k.o . . . ",
". . . . . . . . . . . $ % & . . . . . . l.q m.J 3.n.M o.p.4 q.r.S s.| C 3 b.t.u.v.w.x.b b.. . . ",
". . . . . . . . . . . $ % & . . . . . . [.i s y.V '.b.3 z.A.B.C.5 D.s.4 E.}.;.X G u k a U . . . ",
". . . . . . . . . . . $ % & . . . . . . 1.l v v.u.F.4.6.G.s.a.H.e I.J.| c.K.2 L.M.T x y G . . . ",
". . . . . . . . . . . $ % & . . . . . . [.l v v.0.N.4.6.G.s.O.P.Q.5 J.| c.R.>.L.U T x y H . . . ",
"S.@.@.@.@.@.@.@.@.@.@.T.% { @.@.@.@.@.U.3 i V.8 V '.A 3 l.W.f a.X.Y.Z.4 E.1.;.X H `.k a  +.+@.@.",
"> % % % % % % % % % % % % % % % % % % ++Z.q d J ` n.M R.7.G.A.@+r.#+f.+.8.A '.Z v.v $+b 6.%+% % ",
", &+&+&+&+&+&+&+&+&+&+*+% @ &+&+&+&+&+P e K x u H W -.b.=+7.7 4 -+;++.>+1.>.).` J w ,+c '+)+&+&+",
". . . . . . . . . . . $ % & . . . . . . . -.l s !+` L.;.b.o.>+E.E.6.=+[.2  +Z F g ~+{+u . . . . ",
". . . . . . . . . . . $ % & . . . . . . . O.K x g v.*.]+-.^+4.1.1.[.<.;. +u.G /+m.j.9 -+. . . . ",
". . . . . . . . . . . $ % & . . . . . . . . <.j.(+_+v.3.X  +t.,.,.-.=.L.V G :+<+x.a [+. . . . . ",
". . . . . . . . . . . $ % & . . . . . . . . 6 I i d u 8 G }+u.W |+u.V [+v.E 1+j n j } . . . . . ",
". . . . . . . . . . . $ % & . . . . . . . . . 2+T j._.s T !+v.F H F 8  .t d x.n l 3+. . . . . . ",
". . . . . . . . . . . $ % & . . . . . . . . . . Q.Y 4+x._.1+v 5+g t s 6+k j.a  .7+. . . . . . . ",
". . . . . . . . . . . $ % & . . . . . . . . . . . . 4 s K j.l j j x.i h y l E.8+. . . . . . . . ",
". . . . . . . . . . . $ % & . . . . . . . . . . . . . B Z.2 8 9 0 c u 9+| 0+. . . . . . . . . . ",
". . . . . . . . . . . $ % & . . . . . . . . . . . . . . . . . . . . . . . . . . . . . . . . . . ",
". . . . . . . . . . . $ % & . . . . . . . . . . . . . . . . . . . . . . . . . . . . . . . . . . ",
". . . . . . . . . . . $ % & . . . . . . . . . . . . . . . . . . . . . . . . . . . . . . . . . . "};
