/* XPM */
static char * getDimensions_xpm[] = {
"48 48 97 2",
"  	c None",
". 	c #000000",
"+ 	c #006E00",
"@ 	c #00A900",
"# 	c #00A700",
"$ 	c #008F00",
"% 	c #004B00",
"& 	c #001600",
"* 	c #009200",
"= 	c #00C000",
"- 	c #00CA00",
"; 	c #00C100",
"> 	c #009400",
", 	c #001C00",
"' 	c #009800",
") 	c #007900",
"! 	c #009900",
"~ 	c #007E00",
"{ 	c #00A800",
"] 	c #00FF00",
"^ 	c #00FE00",
"/ 	c #00C500",
"( 	c #008100",
"_ 	c #00ED00",
": 	c #00F000",
"< 	c #008800",
"[ 	c #00E700",
"} 	c #00E600",
"| 	c #005D00",
"1 	c #00E500",
"2 	c #00F700",
"3 	c #00AD00",
"4 	c #007F00",
"5 	c #00FB00",
"6 	c #00DC00",
"7 	c #00DB00",
"8 	c #00FA00",
"9 	c #00FC00",
"0 	c #00C200",
"a 	c #002E00",
"b 	c #00D400",
"c 	c #00EC00",
"d 	c #00EF00",
"e 	c #005600",
"f 	c #00EA00",
"g 	c #002200",
"h 	c #00D200",
"i 	c #003800",
"j 	c #00D300",
"k 	c #008D00",
"l 	c #009100",
"m 	c #008200",
"n 	c #009500",
"o 	c #00FD00",
"p 	c #00AA00",
"q 	c #00E400",
"r 	c #00C800",
"s 	c #00BB00",
"t 	c #000D00",
"u 	c #00F500",
"v 	c #00C300",
"w 	c #00BD00",
"x 	c #00EB00",
"y 	c #00DE00",
"z 	c #00CE00",
"A 	c #00BF00",
"B 	c #00E800",
"C 	c #00CC00",
"D 	c #009A00",
"E 	c #00CD00",
"F 	c #00F600",
"G 	c #00E900",
"H 	c #00B800",
"I 	c #007600",
"J 	c #00BA00",
"K 	c #00E100",
"L 	c #00AF00",
"M 	c #005800",
"N 	c #007C00",
"O 	c #008B00",
"P 	c #008600",
"Q 	c #00F900",
"R 	c #004200",
"S 	c #00B600",
"T 	c #006600",
"U 	c #00EE00",
"V 	c #00F300",
"W 	c #00E300",
"X 	c #00E200",
"Y 	c #008400",
"Z 	c #00DF00",
"` 	c #006000",
" .	c #007000",
"..	c #009300",
"+.	c #00BC00",
"@.	c #009B00",
"#.	c #008A00",
". . . . . . . . . . . . . . . . . . . . . . . . . . . . . . . . . . . . . . . . . . . . . . . . ",
". . . . . . . . . . . . . . . . . . . . . . . . . . . . . . . . . . . . . . . . . . . . . . . . ",
". . . . . . . . . . . . . . . . . . . . . . . . . . . . . . . . . . . . . . . . . . . . . . . . ",
". . . . . . . . . . . . . . . . . . . . . . . . . . . . . . . . . . . . . . . . . . . . . . . . ",
". . . . . . . . . . . . . . . . . . . . . . . . . . . . . . . . . . . . . . . . . . . . . . . . ",
". . . . . . . . . . . . . . . . . . . . . . . . . . . . . . . . . . . . . . . . . . . . . . . . ",
". . . . . . . . . . . . . . . . . . . . . . . . . . . . . . . . . . . . . . . . . . . . . . . . ",
". . . . . . . . . . . . . . . . . . . . . . . . . . . . . . . . . . . . . . . . . . . . . . . . ",
". . . . . . . . . . . . . . . . . . . . . . . . . . . . . . . . . . . . . . . . . . . . . . . . ",
". . . . . . . . . . . . . . . . . . . . . . . . . . . . . . . . . . . . . . . . . . . . . . . . ",
". . . . . . . . . . . . . . . . . . . . . . . . . . . . . . . . . . . . . . . . . . . . . . . . ",
". . . . . . . . . . . . . . . . . . . . . . . . . . . . . . . . . . . . . . . . . . . . . . . . ",
". . . . . . . . . . . . . . . . . . . . . . . . . . . . . . . . . . . . . . . . . . . . . . . . ",
". . . . . . . . . . . . . . . . . . . . . . . . . . . . . . . . . . . . . . . . . . . . . . . . ",
". . . . . . . . . . . . . . . . . . . . . . . . . . . . . . . . . . . . . . . . . . . . . . . . ",
". . . . . . . . . . . . . . . . . . . . . . . . . . . . . . . . . . . . . . . . . . . . . . . . ",
". . + @ @ @ @ @ # $ % . . . . . . . & * = - - ; > , . . . . . ' @ @ @ ) . . . . . ! @ @ @ ~ . . ",
". . { ] ] ] ] ] ] ] ^ / & . . . . ( _ ] ] ] ] ] ] : < . . . . [ ] ] ] } . . . . | ^ ] ] ] = . . ",
". . { ] ] ^ 1 } 2 ] ] ] 3 . . . 4 5 ] ] 5 6 7 8 ] ] 9 < . . . [ ] ] ] ] ( . . . 0 ] ] ] ] = . . ",
". . { ] ] 5 . . a } ] ] b . . . c ] ] d | . . e f ] ] : g . . [ ] ] ] ] h . . i 2 ] ] ] ] = . . ",
". . { ] ] 5 . . . j ] ] j . . k ] ] ] l . . . . m ] ] ] n . . [ ] ] [ ] o e . p ] ] q ] ] = . . ",
". . { ] ] o { @ r o ] ] * . . s ] ] 9 t . . . . . u ] ] v . . [ ] ] @ 5 ] w . x ] y z ] ] = . . ",
". . { ] ] ] ] ] ] ] ] A . . . - ] ] B . . . . . . [ ] ] C . . [ ] ] D E ] F * ] ] > z ] ] = . . ",
". . { ] ] ^ G G c ] ] ] H . . - ] ] B . . . . . . [ ] ] C . . [ ] ] D I ] ] 2 ] d . z ] ] = . . ",
". . { ] ] 5 . . . # ] ] o % . J ] ] 9 & . . . . . F ] ] 0 . . [ ] ] D . K ] ] ] L . z ] ] = . . ",
". . { ] ] 5 . . . M ] ] ] N . O ] ] ] > . . . . P ] ] ] > . . [ ] ] D . ! ] ] Q R . z ] ] = . . ",
". . { ] ] 5 . . . S ] ] ] + . . x ] ] : T . . | _ ] ] U , . . [ ] ] D . t B V = . . z ] ] = . . ",
". . { ] ] ^ B B F ] ] ] G . . . N 8 ] ] 9 W X 5 ] ] 5 Y . . . [ ] ] D . . . . . . . z ] ] = . . ",
". . { ] ] ] ] ] ] ] ] Z ` . . . . N x ] ] ] ] ] ] _ m . . . . [ ] ] D . . . . . . . z ] ] = . . ",
". .  .3 3 3 3 3 p ..| . . . . . . . . O J - - +.$ . . . . . . @.3 3 T . . . . . . . #.3 3 ( . . ",
". . . . . . . . . . . . . . . . . . . . . . . . . . . . . . . . . . . . . . . . . . . . . . . . ",
". . . . . . . . . . . . . . . . . . . . . . . . . . . . . . . . . . . . . . . . . . . . . . . . ",
". . . . . . . . . . . . . . . . . . . . . . . . . . . . . . . . . . . . . . . . . . . . . . . . ",
". . . . . . . . . . . . . . . . . . . . . . . . . . . . . . . . . . . . . . . . . . . . . . . . ",
". . . . . . . . . . . . . . . . . . . . . . . . . . . . . . . . . . . . . . . . . . . . . . . . ",
". . . . . . . . . . . . . . . . . . . . . . . . . . . . . . . . . . . . . . . . . . . . . . . . ",
". . . . . . . . . . . . . . . . . . . . . . . . . . . . . . . . . . . . . . . . . . . . . . . . ",
". . . . . . . . . . . . . . . . . . . . . . . . . . . . . . . . . . . . . . . . . . . . . . . . ",
". . . . . . . . . . . . . . . . . . . . . . . . . . . . . . . . . . . . . . . . . . . . . . . . ",
". . . . . . . . . . . . . . . . . . . . . . . . . . . . . . . . . . . . . . . . . . . . . . . . ",
". . . . . . . . . . . . . . . . . . . . . . . . . . . . . . . . . . . . . . . . . . . . . . . . ",
". . . . . . . . . . . . . . . . . . . . . . . . . . . . . . . . . . . . . . . . . . . . . . . . ",
". . . . . . . . . . . . . . . . . . . . . . . . . . . . . . . . . . . . . . . . . . . . . . . . ",
". . . . . . . . . . . . . . . . . . . . . . . . . . . . . . . . . . . . . . . . . . . . . . . . ",
". . . . . . . . . . . . . . . . . . . . . . . . . . . . . . . . . . . . . . . . . . . . . . . . ",
". . . . . . . . . . . . . . . . . . . . . . . . . . . . . . . . . . . . . . . . . . . . . . . . ",
". . . . . . . . . . . . . . . . . . . . . . . . . . . . . . . . . . . . . . . . . . . . . . . . ",
". . . . . . . . . . . . . . . . . . . . . . . . . . . . . . . . . . . . . . . . . . . . . . . . "};
