/* XPM */
static char * magicManager_xpm[] = {
"48 48 313 2",
"  	c None",
". 	c #D40B0B",
"+ 	c #1D1DBC",
"@ 	c #6A17CF",
"# 	c #D90957",
"$ 	c #DA0A0A",
"% 	c #2020C1",
"& 	c #1D1DFF",
"* 	c #0F11F8",
"= 	c #8D0BB5",
"- 	c #E20735",
"; 	c #CD0C0C",
"> 	c #FF0000",
", 	c #2424C1",
"' 	c #2323FF",
") 	c #1515FF",
"! 	c #0707FF",
"~ 	c #1404EF",
"{ 	c #AB099B",
"] 	c #E70706",
"^ 	c #BF0F0F",
"/ 	c #2728C1",
"( 	c #2828FF",
"_ 	c #1B1BFF",
": 	c #0D0DFF",
"< 	c #0101FF",
"[ 	c #0000FF",
"} 	c #4507DF",
"| 	c #C50976",
"1 	c #E30707",
"2 	c #2B2BC1",
"3 	c #2E2EFF",
"4 	c #2020FF",
"5 	c #1313FF",
"6 	c #0505FF",
"7 	c #0000FE",
"8 	c #6908CC",
"9 	c #D90750",
"0 	c #D70A0A",
"a 	c #2F2FC1",
"b 	c #3333FF",
"c 	c #2626FF",
"d 	c #1818FF",
"e 	c #0B0BFF",
"f 	c #0402F7",
"g 	c #9009B2",
"h 	c #E3072E",
"i 	c #3333C1",
"j 	c #3939FF",
"k 	c #2B2BFF",
"l 	c #1E1EFF",
"m 	c #1010FF",
"n 	c #0303FF",
"o 	c #2704EE",
"p 	c #B10994",
"q 	c #E5070D",
"r 	c #BC0F0F",
"s 	c #3737C1",
"t 	c #3F3EFF",
"u 	c #3131FF",
"v 	c #1616FF",
"w 	c #0808FF",
"x 	c #4D07DD",
"y 	c #C70872",
"z 	c #E10808",
"A 	c #3B3BC1",
"B 	c #4444FF",
"C 	c #3636FF",
"D 	c #2929FF",
"E 	c #0E0EFF",
"F 	c #0202FF",
"G 	c #7308C8",
"H 	c #DA084A",
"I 	c #9F1313",
"J 	c #3F3FC1",
"K 	c #4A4AFF",
"L 	c #3C3CFF",
"M 	c #2121FF",
"N 	c #0208E0",
"O 	c #4343C1",
"P 	c #4F4FFF",
"Q 	c #4141FF",
"R 	c #3434FF",
"S 	c #1919FF",
"T 	c #0008E1",
"U 	c #DB0909",
"V 	c #4747C1",
"W 	c #5555FF",
"X 	c #4747FF",
"Y 	c #2C2CFF",
"Z 	c #1111FF",
"` 	c #4B4BC1",
" .	c #5A5AFF",
"..	c #4D4DFF",
"+.	c #3F3FFF",
"@.	c #2424FF",
"#.	c #4F4FC1",
"$.	c #6060FF",
"%.	c #5252FF",
"&.	c #4445FF",
"*.	c #3737FF",
"=.	c #1C1CFF",
"-.	c #5353C1",
";.	c #6565FF",
">.	c #5858FF",
",.	c #2F2FFF",
"'.	c #1414FF",
").	c #0606FF",
"!.	c #5757C1",
"~.	c #6B6BFF",
"{.	c #5D5DFF",
"].	c #5050FF",
"^.	c #4242FF",
"/.	c #2727FF",
"(.	c #0C0CFF",
"_.	c #5C5CC1",
":.	c #7070FF",
"<.	c #6363FF",
"[.	c #4847FF",
"}.	c #3A3AFF",
"|.	c #1F1FFF",
"1.	c #0404FF",
"2.	c #6060C1",
"3.	c #7676FF",
"4.	c #6868FF",
"5.	c #5B5BFF",
"6.	c #4040FF",
"7.	c #3232FF",
"8.	c #1717FF",
"9.	c #0909FF",
"0.	c #6464C1",
"a.	c #7C7CFF",
"b.	c #6E6EFF",
"c.	c #5353FF",
"d.	c #4545FF",
"e.	c #2A2AFF",
"f.	c #0F0FFF",
"g.	c #6868C1",
"h.	c #8181FF",
"i.	c #7473FF",
"j.	c #6666FF",
"k.	c #4B4BFF",
"l.	c #3D3DFF",
"m.	c #2222FF",
"n.	c #6C6CC1",
"o.	c #8787FF",
"p.	c #7979FF",
"q.	c #5E5EFF",
"r.	c #4243FF",
"s.	c #3535FF",
"t.	c #1A1AFF",
"u.	c #7070C1",
"v.	c #8C8CFF",
"w.	c #7F7FFF",
"x.	c #7171FF",
"y.	c #5656FF",
"z.	c #4848FF",
"A.	c #2D2DFF",
"B.	c #1212FF",
"C.	c #7575C1",
"D.	c #9292FF",
"E.	c #8484FF",
"F.	c #7777FF",
"G.	c #6969FF",
"H.	c #4E4EFF",
"I.	c #2525FF",
"J.	c #7979C1",
"K.	c #9797FF",
"L.	c #8A8AFF",
"M.	c #6161FF",
"N.	c #4546FF",
"O.	c #3838FF",
"P.	c #7D7DC1",
"Q.	c #9D9DFF",
"R.	c #8F8FFF",
"S.	c #8282FF",
"T.	c #7474FF",
"U.	c #5959FF",
"V.	c #3030FF",
"W.	c #8181C1",
"X.	c #A2A3FF",
"Y.	c #9595FF",
"Z.	c #7A7AFF",
"`.	c #6C6CFF",
" +	c #5151FF",
".+	c #4343FF",
"++	c #8585C1",
"@+	c #A8A8FF",
"#+	c #9A9AFF",
"$+	c #8D8DFF",
"%+	c #7271FF",
"&+	c #6464FF",
"*+	c #4949FF",
"=+	c #3B3BFF",
"-+	c #8A8AC1",
";+	c #AEAEFF",
">+	c #A0A0FF",
",+	c #8585FF",
"'+	c #5C5CFF",
")+	c #4041FF",
"!+	c #0A0AFF",
"~+	c #8E8EC1",
"{+	c #B3B3FF",
"]+	c #A6A6FF",
"^+	c #9898FF",
"/+	c #7D7DFF",
"(+	c #6F6FFF",
"_+	c #5454FF",
":+	c #4646FF",
"<+	c #9292C1",
"[+	c #B9B9FF",
"}+	c #ABABFF",
"|+	c #9D9EFF",
"1+	c #9090FF",
"2+	c #7575FF",
"3+	c #6767FF",
"4+	c #4C4CFF",
"5+	c #3E3EFF",
"6+	c #9696C1",
"7+	c #BEBEFF",
"8+	c #B1B1FF",
"9+	c #A3A3FF",
"0+	c #8888FF",
"a+	c #6D6CFF",
"b+	c #5F5FFF",
"c+	c #9B9AC1",
"d+	c #C4C4FF",
"e+	c #B6B6FF",
"f+	c #A9A9FF",
"g+	c #9B9BFF",
"h+	c #8080FF",
"i+	c #7272FF",
"j+	c #5757FF",
"k+	c #9F9FC1",
"l+	c #C9C9FF",
"m+	c #BCBCFF",
"n+	c #9393FF",
"o+	c #7778FF",
"p+	c #6A6AFF",
"q+	c #0B0AFF",
"r+	c #0109E1",
"s+	c #A3A3C1",
"t+	c #CFCFFF",
"u+	c #C1C1FF",
"v+	c #B4B4FF",
"w+	c #8B8BFF",
"x+	c #6262FF",
"y+	c #030BE1",
"z+	c #A7A7C1",
"A+	c #D5D5FF",
"B+	c #C7C7FF",
"C+	c #ACACFF",
"D+	c #9E9EFF",
"E+	c #8383FF",
"F+	c #3E3FFF",
"G+	c #080FE1",
"H+	c #ACABC1",
"I+	c #DADAFF",
"J+	c #CDCDFF",
"K+	c #BFBFFF",
"L+	c #A4A4FF",
"M+	c #9696FF",
"N+	c #7B7BFF",
"O+	c #6D6DFF",
"P+	c #3637FF",
"Q+	c #0C12E1",
"R+	c #B0B0C1",
"S+	c #E0E0FF",
"T+	c #D2D2FF",
"U+	c #B7B7FF",
"V+	c #8E8EFF",
"W+	c #7372FF",
"X+	c #4A49FF",
"Y+	c #1116E1",
"Z+	c #C8C7E0",
"`+	c #D7D7FF",
" @	c #CACAFF",
".@	c #AFAFFF",
"+@	c #A1A1FF",
"@@	c #8686FF",
"#@	c #7878FF",
"$@	c #161AE1",
"%@	c #9797B3",
"&@	c #BFBFEC",
"*@	c #C2C2FF",
"=@	c #A6A7FF",
"-@	c #9999FF",
";@	c #7E7DFF",
">@	c #1B1EE1",
",@	c #9B9BCA",
"'@	c #B1B1F4",
")@	c #9191FF",
"!@	c #2023E1",
"~@	c #9292D5",
"{@	c #A3A2FD",
"]@	c #8989FF",
"^@	c #2527E1",
"/@	c #8787DF",
"(@	c #7373FF",
"_@	c #2A2CE1",
":@	c #6767B8",
"<@	c #7C7CED",
"[@	c #2E30E1",
"}@	c #6262CC",
"|@	c #6B6BF4",
"1@	c #4748FF",
"2@	c #3335E1",
"3@	c #5656D6",
"4@	c #5959FC",
"5@	c #383AE1",
"6@	c #4848E3",
"7@	c #3D3FE1",
"8@	c #2A2C90",
"  .                                                                                             ",
"+ @ # $                                                                                         ",
"% & * = - ;                                                 > > > > >                           ",
", ' ) ! ~ { ] ^                                     > > > > > > > > > > > >                     ",
"/ ( _ : < [ } | 1                               > > > > > > > > > > > > > > > >                 ",
"2 3 4 5 6 [ [ 7 8 9 0                       > > > > > > > > > > > > > > > > > > >               ",
"a b c d e < [ [ [ f g h ;                   > > > > > > > > > > > > > > > > > > > >             ",
"i j k l m n [ [ [ [ [ o p q r               > > > > > >               > > > > > > > >           ",
"s t u ' v w [ [ [ [ [ [ [ x y z             > > >                         > > > > > >           ",
"A B C D _ E F [ [ [ [ [ [ [ 7 G H I         > >                             > > > > > >         ",
"J K L 3 M 5 6 [ [ [ [ [ [ [ [ [ N 0                                         > > > > > >         ",
"O P Q R c S e < [ [ [ [ [ [ [ [ T U                                         > > > > > >         ",
"V W X j Y l Z n [ [ [ [ [ [ [ [ T U                                         > > > > > >         ",
"`  ...+.u @.v w [ [ [ [ [ [ [ [ T U                                         > > > > > >         ",
"#.$.%.&.*.D =.E F [ [ [ [ [ [ [ T U                                         > > > > >           ",
"-.;.>.K L ,.M '.).[ [ [ [ [ [ [ T U                                       > > > > > >           ",
"!.~.{.].^.R /.S (.< [ [ [ [ [ [ T U                                     > > > > > >             ",
"_.:.<.W [.}.Y |.Z 1.[ [ [ [ [ [ T U                                   > > > > > > >             ",
"2.3.4.5...6.7.@.8.9.[ [ [ [ [ [ T U                                 > > > > > > >               ",
"0.a.b.$.c.d.*.e.=.f.F [ [ [ [ [ T U                               > > > > > > >                 ",
"g.h.i.j.>.k.l.,.m.'.).[ [ [ [ [ T U                             > > > > > > >                   ",
"n.o.p.~.q.].r.s./.t.(.< [ [ [ [ T U                           > > > > > > >                     ",
"u.v.w.x.<.y.z.}.A.|.B.1.[ [ [ [ T U                         > > > > > > >                       ",
"C.D.E.F.G.5.H.6.7.I.8.9.[ [ [ [ T U                         > > > > > >                         ",
"J.K.L.a.b.M.c.N.O.e.& f.F [ [ [ T U                       > > > > > >                           ",
"P.Q.R.S.T.j.U.k.l.V.m.) ! [ [ [ T U                       > > > > > >                           ",
"W.X.Y.o.Z.`.q. +.+s.( t.: < [ [ T U                       > > > > >                             ",
"++@+#+$+w.%+&+y.*+=+A.4 B.6 [ [ T U                       > > > > >                             ",
"-+;+>+D.,+F.G.'+H.)+b I.d !+[ [ T U                       > > > > >                             ",
"~+{+]+^+L./+(+M._+:+O.k & m n [ T U                       > > > > >                             ",
"<+[+}+|+1+S.2+3+U.4+5+V.' ) ! [ T U                       > > > > >                             ",
"6+7+8+9+Y.0+Z.a+b+ +.+C ( _ : < T U                       > > > > >                             ",
"c+d+e+f+g+$+h+i+&+j+*+=+3 4 5 6 T U                       > > > > >                             ",
"k+l+m+;+>+n+,+o+p+'+P Q b c d q+r+U                                                             ",
"s+t+u+v+]+^+w+/+(+x+_+X j k l m y+U                                                             ",
"z+A+B+[+C+D+1+E+2+3+ .4+F+u ' v G+U                                                             ",
"H+I+J+K+8+L+M+0+N+O+b+%.B P+D _ Q+U                                                             ",
"R+S+T+d+U+f+g+V+h+W+;.j+X+L 3 M Y+U                       > > > > >                             ",
"  Z+`+ @m+.@+@n+@@#@p+{.P Q R c $@U                       > > > > >                             ",
"    %@&@*@v+=@-@w+;@:.x+W X j Y >@U                       > > > > >                             ",
"        ,@'@C+D+)@E+2+4. ...+.u !@U                       > > > > >                             ",
"            ~@{@M+]@N+O+$.%.d.*.^@U                       > > > > >                             ",
"                /@V+h.(@;.>.K L _@U                       > > > > >                             ",
"                  :@<@p.~.{.].^.[@U                                                             ",
"                      }@|@<.W 1@2@U                                                             ",
"                          3@4@..5@U                                                             ",
"                              6@7@U                                                             ",
"                                8@                                                              "};
