/* XPM */
static char * magicMove_xpm[] = {
"48 48 128 2",
"  	c None",
". 	c #14148B",
"+ 	c #11119F",
"@ 	c #111180",
"# 	c #131398",
"$ 	c #0F0F9A",
"% 	c #0C0C95",
"& 	c #1111A3",
"* 	c #0E0E90",
"= 	c #0A0A9D",
"- 	c #11117C",
"; 	c #0C0C94",
"> 	c #0F0F9D",
", 	c #11117D",
"' 	c #1111A2",
") 	c #0E0E8F",
"! 	c #0B0B9A",
"~ 	c #121278",
"{ 	c #11119E",
"] 	c #0A0A9C",
"^ 	c #0F0F9F",
"/ 	c #111181",
"( 	c #151567",
"_ 	c #101082",
": 	c #0F0F88",
"< 	c #127612",
"[ 	c #108210",
"} 	c #0F8A0F",
"| 	c #107E10",
"1 	c #117E11",
"2 	c #108510",
"3 	c #0D920D",
"4 	c #0A9C0A",
"5 	c #0A9D0A",
"6 	c #0B980B",
"7 	c #144C14",
"8 	c #137413",
"9 	c #0C970C",
"0 	c #126B12",
"a 	c #127C12",
"b 	c #0C960C",
"c 	c #0E870E",
"d 	c #0D910D",
"e 	c #0D930D",
"f 	c #108310",
"g 	c #0D940D",
"h 	c #144D14",
"i 	c #0F890F",
"j 	c #0B990B",
"k 	c #127912",
"l 	c #146E14",
"m 	c #155B15",
"n 	c #118111",
"o 	c #0B9A0B",
"p 	c #117D11",
"q 	c #0C940C",
"r 	c #0E900E",
"s 	c #118011",
"t 	c #127712",
"u 	c #0E8D0E",
"v 	c #0F870F",
"w 	c #127812",
"x 	c #108610",
"y 	c #127B12",
"z 	c #117F11",
"A 	c #0C980C",
"B 	c #137313",
"C 	c #11127E",
"D 	c #0F407E",
"E 	c #0E8633",
"F 	c #0F880F",
"G 	c #11297B",
"H 	c #0F784A",
"I 	c #0B9B0B",
"J 	c #145845",
"K 	c #39840E",
"L 	c #813D0E",
"M 	c #7E2D10",
"N 	c #0F8610",
"O 	c #70530F",
"P 	c #9A0B0B",
"Q 	c #9D0A0A",
"R 	c #980B0B",
"S 	c #7F1111",
"T 	c #474915",
"U 	c #821010",
"V 	c #900E0E",
"W 	c #930D0D",
"X 	c #751212",
"Y 	c #7A1212",
"Z 	c #871010",
"` 	c #950C0C",
" .	c #8C0F0F",
"..	c #7C1212",
"+.	c #8A0F0F",
"@.	c #9B0B0B",
"#.	c #841010",
"$.	c #731313",
"%.	c #960C0C",
"&.	c #7D1111",
"*.	c #831010",
"=.	c #910D0D",
"-.	c #721313",
";.	c #880F0F",
">.	c #890F0F",
",.	c #9C0A0A",
"'.	c #771212",
").	c #7E1111",
"!.	c #8E0E0E",
"~.	c #7B1212",
"{.	c #940D0D",
"].	c #8F0E0E",
"^.	c #791212",
"/.	c #990B0B",
"(.	c #8B0F0F",
"_.	c #881414",
":.	c #A11111",
"<.	c #9E0F0F",
"[.	c #920F0F",
"}.	c #9F1212",
"|.	c #A11212",
"1.	c #9B1212",
"2.	c #A31010",
"3.	c #9A0F0F",
"4.	c #881010",
"5.	c #961313",
"6.	c #A31111",
"7.	c #7E1515",
"                    .                                                                           ",
"                    + @                                                                         ",
"                  # $ %                                                                         ",
"                  & * = -                                                                       ",
"                  + = = ;                                                                       ",
"                  > = = = ,                                                                     ",
"                ' ) = = ! ~                                                                     ",
"                { ] = = @                                                                       ",
"                ^ ! = = /                                                                       ",
"                ( _ = = /                                                                       ",
"                  : = = /                                                                       ",
"                  : = = /                                                                       ",
"                  : = = /                                                                       ",
"                  : = = /                                                                       ",
"                  : = = /                                                                       ",
"                  : = = /                                                                       ",
"                  : = = /                                                                       ",
"                  : = = /                                         < [ } |                       ",
"                  : = = /                                 1 2 3 4 5 5 6 7                       ",
"                  : = = /                               8 9 5 5 5 5 5 0                         ",
"                  : = = /                             a b 5 5 5 5 5 c                           ",
"                  : = = /                           d 5 5 5 5 e f g h                           ",
"                  : = = /                       i 4 5 5 5 j i k l m                             ",
"                  : = = /                   n o 5 5 5 4 } p                                     ",
"                  : = = /               k q 5 5 5 5 r s t                                       ",
"                  : = = /             u 5 5 5 5 q v w                                           ",
"                  : = = /         x 4 5 5 5 o i y                                               ",
"                  : = = /     z A 5 5 5 4 u p B                                                 ",
"                  : = = C < e 5 5 5 5 d [ t                                                     ",
"                  : = D E 5 5 5 5 9 F k                                                         ",
"                  G H 4 5 5 5 I i p                                                             ",
"                  J F j 5 5 K L M                                                               ",
"                      z N O P Q Q R S                                                           ",
"                        T U V Q Q Q Q W X                                                       ",
"                            Y Z ` Q Q Q Q  .                                                    ",
"                                ..+.P Q Q Q @.#.                                                ",
"                                  $.S  .Q Q Q Q %.&.                                            ",
"                                      Y *.=.Q Q Q Q =.-.                                        ",
"                                          Y ;.%.Q Q Q Q >.                                      ",
"                                              &.+.,.Q Q Q P *.                                  ",
"                                                '.).!.Q Q Q Q ` ~.                              ",
"                                                    ~.*.{.Q Q Q Q ].                            ",
"                                                        ^.;.R Q Q Q Q +./.).                    ",
"                                                            &.(.Q Q Q Q Q P                     ",
"                                                              -.V Q Q Q Q Q ].                  ",
"                                                              _.:.<.[.V Q Q Q ).                ",
"                                                                    }.|.1.2.3.4.                ",
"                                                                            5.6.7.              "};
