/* XPM */
static char * magicAngle_xpm[] = {
"48 48 557 2",
"  	c None",
". 	c #2EB62E",
"+ 	c #75D875",
"@ 	c #71DF71",
"# 	c #6CE36C",
"$ 	c #65E565",
"% 	c #60EA60",
"& 	c #58EB58",
"* 	c #57FA57",
"= 	c #4FFF4F",
"- 	c #45FF45",
"; 	c #3AF73A",
"> 	c #2CE92C",
", 	c #25F925",
"' 	c #1BCD1B",
") 	c #BAD6BA",
"! 	c #B6D9B6",
"~ 	c #B4E1B4",
"{ 	c #AFE3AF",
"] 	c #A9E6A9",
"^ 	c #A4E9A4",
"/ 	c #9FEE9F",
"( 	c #A1FCA1",
"_ 	c #99FF99",
": 	c #8FFF8F",
"< 	c #85FF85",
"[ 	c #7AFF7A",
"} 	c #70FF70",
"| 	c #66FF66",
"1 	c #5CFF5C",
"2 	c #51FF51",
"3 	c #47FF47",
"4 	c #3DFF3D",
"5 	c #33FF33",
"6 	c #29FB29",
"7 	c #1EEA1E",
"8 	c #13F313",
"9 	c #0EF20E",
"0 	c #DAEEDA",
"a 	c #E4FFE4",
"b 	c #D9FFD9",
"c 	c #CFFFCF",
"d 	c #C5FFC5",
"e 	c #BAFFBA",
"f 	c #B0FFB0",
"g 	c #A6FFA6",
"h 	c #9CFF9B",
"i 	c #91FF91",
"j 	c #87FF87",
"k 	c #7DFF7D",
"l 	c #72FF72",
"m 	c #68FF68",
"n 	c #5EFF5E",
"o 	c #54FF54",
"p 	c #4AFF49",
"q 	c #3FFF3F",
"r 	c #35FF35",
"s 	c #2BFF2B",
"t 	c #21FF21",
"u 	c #17FF17",
"v 	c #0FEC0F",
"w 	c #06EE06",
"x 	c #02F702",
"y 	c #05DB05",
"z 	c #C4E9C4",
"A 	c #D1FFD1",
"B 	c #C7FFC7",
"C 	c #BDFFBD",
"D 	c #B2FFB2",
"E 	c #A8FFA8",
"F 	c #9EFF9E",
"G 	c #93FF93",
"H 	c #89FF89",
"I 	c #7FFF7F",
"J 	c #75FF75",
"K 	c #6AFF6A",
"L 	c #60FF60",
"M 	c #56FF56",
"N 	c #4CFF4C",
"O 	c #42FF41",
"P 	c #37FF37",
"Q 	c #2DFF2D",
"R 	c #23FF23",
"S 	c #19FF19",
"T 	c #0FFF10",
"U 	c #07FF07",
"V 	c #04F204",
"W 	c #03EA03",
"X 	c #01FB01",
"Y 	c #04E304",
"Z 	c #B1E6B1",
"` 	c #BCFCBC",
" .	c #B5FFB5",
"..	c #AAFFAA",
"+.	c #A0FFA0",
"@.	c #96FF96",
"#.	c #8BFF8C",
"$.	c #81FF81",
"%.	c #77FF77",
"&.	c #6DFF6D",
"*.	c #63FF62",
"=.	c #58FF58",
"-.	c #4EFF4E",
";.	c #44FF44",
">.	c #3AFF3A",
",.	c #30FF30",
"'.	c #25FF25",
").	c #1BFF1C",
"!.	c #12FF12",
"~.	c #08FF08",
"{.	c #03FF03",
"].	c #00FF00",
"^.	c #01F601",
"/.	c #03EB03",
"(.	c #01F701",
"_.	c #03EC03",
":.	c #A8E4A8",
"<.	c #A9F8A9",
"[.	c #A2FFA2",
"}.	c #98FF98",
"|.	c #8EFF8E",
"1.	c #83FF84",
"2.	c #79FF79",
"3.	c #6FFF6F",
"4.	c #65FF65",
"5.	c #5AFF5B",
"6.	c #50FF50",
"7.	c #46FF46",
"8.	c #3CFF3C",
"9.	c #32FF32",
"0.	c #28FF28",
"a.	c #1EFF1E",
"b.	c #14FF14",
"c.	c #0AFF0A",
"d.	c #04FF04",
"e.	c #00FD00",
"f.	c #02F302",
"g.	c #02F202",
"h.	c #06D406",
"i.	c #9BF59B",
"j.	c #90FF90",
"k.	c #86FF86",
"l.	c #7CFF7B",
"m.	c #71FF71",
"n.	c #67FF67",
"o.	c #5DFF5D",
"p.	c #53FF53",
"q.	c #48FF48",
"r.	c #3EFF3E",
"s.	c #34FF34",
"t.	c #2AFF2A",
"u.	c #20FF20",
"v.	c #16FF16",
"w.	c #0CFF0C",
"x.	c #05FF05",
"y.	c #01FF01",
"z.	c #03ED03",
"A.	c #01F901",
"B.	c #03B803",
"C.	c #022C02",
"D.	c #90F08F",
"E.	c #7EFF7E",
"F.	c #73FF73",
"G.	c #69FF69",
"H.	c #5FFF5F",
"I.	c #55FF55",
"J.	c #4BFF4B",
"K.	c #40FF40",
"L.	c #36FF36",
"M.	c #2CFF2C",
"N.	c #22FF22",
"O.	c #18FF18",
"P.	c #0EFF0E",
"Q.	c #06FF06",
"R.	c #06F306",
"S.	c #06EA06",
"T.	c #06D106",
"U.	c #035A03",
"V.	c #000000",
"W.	c #030303",
"X.	c #87EC87",
"Y.	c #6FFC70",
"Z.	c #61FF61",
"`.	c #57FF57",
" +	c #4DFF4D",
".+	c #43FF43",
"++	c #38FF38",
"@+	c #2EFF2E",
"#+	c #24FF24",
"$+	c #1BFF1B",
"%+	c #11FF11",
"&+	c #07FF08",
"*+	c #02FF02",
"=+	c #18F717",
"-+	c #24ED24",
";+	c #20EC20",
">+	c #1CEB1C",
",+	c #17EB17",
"'+	c #18E118",
")+	c #06F606",
"!+	c #11E611",
"~+	c #207D20",
"{+	c #191919",
"]+	c #0E0D0E",
"^+	c #66F966",
"/+	c #3BFF3B",
"(+	c #31FF31",
"_+	c #27FF27",
":+	c #1DFF1D",
"<+	c #13FF13",
"[+	c #3EF93E",
"}+	c #53F453",
"|+	c #50F550",
"1+	c #50F350",
"2+	c #49F349",
"3+	c #46F146",
"4+	c #41F041",
"5+	c #3CEF3C",
"6+	c #38EE38",
"7+	c #32EE32",
"8+	c #2FEC2F",
"9+	c #1EF51E",
"0+	c #05FE05",
"a+	c #16F616",
"b+	c #1FEB1F",
"c+	c #38D455",
"d+	c #5DB896",
"e+	c #404340",
"f+	c #353535",
"g+	c #2B2B2B",
"h+	c #1F1F1F",
"i+	c #141414",
"j+	c #080808",
"k+	c #010101",
"l+	c #040404",
"m+	c #81E681",
"n+	c #62F561",
"o+	c #61F361",
"p+	c #59F559",
"q+	c #59F459",
"r+	c #53F553",
"s+	c #55F455",
"t+	c #52F452",
"u+	c #36FA36",
"v+	c #09FF09",
"w+	c #3FF93F",
"x+	c #53F354",
"y+	c #56E975",
"z+	c #5BDE8A",
"A+	c #5ED49D",
"B+	c #64C7AE",
"C+	c #69BDBB",
"D+	c #70AECA",
"E+	c #74A3D4",
"F+	c #7C92E2",
"G+	c #8184EB",
"H+	c #8787F6",
"I+	c #8C8CFE",
"J+	c #8E8EFF",
"K+	c #8F8FFF",
"L+	c #5B5B81",
"M+	c #454545",
"N+	c #3C3C3C",
"O+	c #313131",
"P+	c #252525",
"Q+	c #1A1A1A",
"R+	c #0E0E0E",
"S+	c #9CAD9C",
"T+	c #6BDE6B",
"U+	c #25FE25",
"V+	c #47F747",
"W+	c #54F359",
"X+	c #57E680",
"Y+	c #5DDD92",
"Z+	c #5FD2A5",
"`+	c #65C6B6",
" @	c #68BBC4",
".@	c #6FABD3",
"+@	c #719FDE",
"@@	c #788BEB",
"#@	c #7B7CF4",
"$@	c #7373FB",
"%@	c #6D6EFF",
"&@	c #6E6FFF",
"*@	c #7070FF",
"=@	c #7171FF",
"-@	c #7373FF",
";@	c #7474FF",
">@	c #7575FF",
",@	c #7777FF",
"'@	c #7878FF",
")@	c #7979FF",
"!@	c #7B7BFF",
"~@	c #7C7CFF",
"{@	c #7D7DFF",
"]@	c #7F7FFF",
"^@	c #7070CF",
"/@	c #595959",
"(@	c #4C4C4C",
"_@	c #424342",
":@	c #373737",
"<@	c #202020",
"[@	c #8787DE",
"}@	c #7676EE",
"|@	c #6D6DF3",
"1@	c #4E4EFF",
"2@	c #4F4FFF",
"3@	c #5151FF",
"4@	c #5252FF",
"5@	c #5353FF",
"6@	c #5555FF",
"7@	c #5656FF",
"8@	c #5757FF",
"9@	c #5959FF",
"0@	c #5A5AFF",
"a@	c #5B5BFF",
"b@	c #5D5DFF",
"c@	c #5E5EFF",
"d@	c #5F5FFF",
"e@	c #6161FF",
"f@	c #6262FF",
"g@	c #6464FF",
"h@	c #6565FF",
"i@	c #6666FF",
"j@	c #6768FF",
"k@	c #6969FF",
"l@	c #6A6AFF",
"m@	c #6C6CFF",
"n@	c #6D6DFF",
"o@	c #6E6EFF",
"p@	c #6D6DF6",
"q@	c #686968",
"r@	c #5C5C5C",
"s@	c #545454",
"t@	c #494949",
"u@	c #3D3D3D",
"v@	c #262626",
"w@	c #1C1C1C",
"x@	c #5F5FF5",
"y@	c #6263F4",
"z@	c #5555F9",
"A@	c #4040FF",
"B@	c #4242FF",
"C@	c #4343FF",
"D@	c #4444FF",
"E@	c #4645FF",
"F@	c #4747FF",
"G@	c #4848FF",
"H@	c #494AFF",
"I@	c #4B4BFF",
"J@	c #4C4CFF",
"K@	c #5050FF",
"L@	c #5454FF",
"M@	c #5858FF",
"N@	c #5C5CFF",
"O@	c #71719C",
"P@	c #6D6D6D",
"Q@	c #666666",
"R@	c #5A5A5A",
"S@	c #4F4F4F",
"T@	c #434343",
"U@	c #2C2C2C",
"V@	c #7171EC",
"W@	c #5656F6",
"X@	c #5C5CF4",
"Y@	c #4343FC",
"Z@	c #3233FF",
"`@	c #3434FF",
" #	c #3535FF",
".#	c #3636FF",
"+#	c #3838FF",
"@#	c #3939FF",
"##	c #3A3AFF",
"$#	c #3C3CFF",
"%#	c #3D3DFF",
"&#	c #3F3EFF",
"*#	c #4141FF",
"=#	c #4243FF",
"-#	c #4545FF",
";#	c #4949FF",
">#	c #4D4DFF",
",#	c #7474BB",
"'#	c #838383",
")#	c #737373",
"!#	c #6C6C6C",
"~#	c #606060",
"{#	c #555555",
"]#	c #41418A",
"^#	c #6363F1",
"/#	c #5050F6",
"(#	c #5757F4",
"_#	c #2626FF",
":#	c #2525FF",
"<#	c #2727FF",
"[#	c #2929FF",
"}#	c #2A2AFF",
"|#	c #2B2BFF",
"1#	c #2D2DFF",
"2#	c #2E2EFF",
"3#	c #2F30FF",
"4#	c #3131FF",
"5#	c #3232FF",
"6#	c #3333FF",
"7#	c #3E3EFF",
"8#	c #7979C7",
"9#	c #959595",
"0#	c #7E7E7E",
"a#	c #727272",
"b#	c #676767",
"c#	c #5B5B5B",
"d#	c #4949C9",
"e#	c #4A4AFC",
"f#	c #4242E1",
"g#	c #5556F4",
"h#	c #5454F4",
"i#	c #4A4AF7",
"j#	c #1616FF",
"k#	c #1717FF",
"l#	c #1818FF",
"m#	c #1A1AFF",
"n#	c #1B1BFF",
"o#	c #1C1CFF",
"p#	c #1E1EFF",
"q#	c #1F1FFF",
"r#	c #2020FF",
"s#	c #2222FF",
"t#	c #2323FF",
"u#	c #2424FF",
"v#	c #2928FF",
"w#	c #2C2CFF",
"x#	c #8888CC",
"y#	c #A7A7A7",
"z#	c #949494",
"A#	c #909090",
"B#	c #848484",
"C#	c #787878",
"D#	c #686875",
"E#	c #3A3AF7",
"F#	c #3B3BFF",
"G#	c #3A3AF5",
"H#	c #3434D7",
"I#	c #4C4CF6",
"J#	c #5354F4",
"K#	c #3939FA",
"L#	c #0808FF",
"M#	c #0909FF",
"N#	c #0A0BFF",
"O#	c #0C0CFF",
"P#	c #0D0DFF",
"Q#	c #0F0FFF",
"R#	c #1010FF",
"S#	c #1211FF",
"T#	c #1313FF",
"U#	c #1414FF",
"V#	c #1515FF",
"W#	c #1A19FF",
"X#	c #1D1DFF",
"Y#	c #ABABC8",
"Z#	c #B9B9B9",
"`#	c #A5A5A5",
" $	c #A2A2A2",
".$	c #969696",
"+$	c #85858F",
"@$	c #4747E1",
"#$	c #2828FF",
"$$	c #2A29FF",
"%$	c #2E2DFF",
"&$	c #2C2CF0",
"*$	c #6767ED",
"=$	c #4D4DF6",
"-$	c #2323FD",
";$	c #0000FF",
">$	c #0101FF",
",$	c #0202FF",
"'$	c #0303FF",
")$	c #0404FF",
"!$	c #0505FF",
"~$	c #0606FF",
"{$	c #0707FF",
"]$	c #0A0AFF",
"^$	c #6464F0",
"/$	c #D4D4D4",
"($	c #CACACA",
"_$	c #B8B8B8",
":$	c #B0B0B4",
"<$	c #7878CE",
"[$	c #2C2BF8",
"}$	c #1716FF",
"|$	c #1919FF",
"1$	c #1F1EFF",
"2$	c #2020E4",
"3$	c #5D5DF1",
"4$	c #4A4AF6",
"5$	c #5050F5",
"6$	c #4949FB",
"7$	c #B7B7EB",
"8$	c #EAEAEA",
"9$	c #E8E8E8",
"0$	c #D3D3D3",
"a$	c #ADADD7",
"b$	c #4949F5",
"c$	c #0B0BFF",
"d$	c #0E0EFF",
"e$	c #0F10FF",
"f$	c #1111FF",
"g$	c #1313FB",
"h$	c #1616DE",
"i$	c #5151F4",
"j$	c #5252F4",
"k$	c #4343F8",
"l$	c #AFAFE5",
"m$	c #F9F9F9",
"n$	c #FFFFFF",
"o$	c #E3E3F2",
"p$	c #6E6EED",
"q$	c #0B0BF6",
"r$	c #1717CE",
"s$	c #6F6FEA",
"t$	c #4B4BF6",
"u$	c #5353F4",
"v$	c #3434FB",
"w$	c #7373F7",
"x$	c #8686F3",
"y$	c #2828FC",
"z$	c #0303FE",
"A$	c #1B1BEB",
"B$	c #1313EE",
"C$	c #1B1BD6",
"D$	c #6362EF",
"E$	c #1414FE",
"F$	c #2626EF",
"G$	c #2020ED",
"H$	c #2323E9",
"I$	c #5656F3",
"J$	c #4E4EF5",
"K$	c #2929F6",
"L$	c #3131EE",
"M$	c #2B2BF0",
"N$	c #4F4FF5",
"O$	c #3F3FF9",
"P$	c #2929FA",
"Q$	c #4141F0",
"R$	c #3737F2",
"S$	c #4B4BE1",
"T$	c #6D6DEB",
"U$	c #3131FB",
"V$	c #5050F4",
"W$	c #4343F5",
"X$	c #5656EB",
"Y$	c #6161EF",
"Z$	c #5152F4",
"`$	c #4D4DF5",
" %	c #3838FA",
".%	c #2829FC",
"+%	c #6868ED",
"@%	c #6969EC",
"#%	c #5D5EF1",
"                                                                                                ",
"                                                                                                ",
"                                                                                                ",
"                                                                                                ",
"                                                                                                ",
"                                                                                                ",
"                                                                                                ",
"                                                                                                ",
"                                                                                    .           ",
"                                                              + @ # $ % & * = - ; > , '         ",
"                                      ) ! ~ { ] ^ / ( _ : < [ } | 1 2 3 4 5 6 7 8 9             ",
"                              0 a b c d e f g h i j k l m n o p q r s t u v w x y               ",
"                          z A B C D E F G H I J K L M N O P Q R S T U V W X Y                   ",
"                      Z `  ...+.@.#.$.%.&.*.=.-.;.>.,.'.).!.~.{.].^./.(._.                      ",
"                  :.<.[.}.|.1.2.3.4.5.6.7.8.9.0.a.b.c.d.].].].e.W f.g.h.                        ",
"                i.j.k.l.m.n.o.p.q.r.s.t.u.v.w.x.y.].].].].].z._.A.B.C.                          ",
"            D.E.F.G.H.I.J.K.L.M.N.O.P.Q.y.].].].].].].].R.S.X T.U.V.V.W.                        ",
"        X.Y.Z.`. +.+++@+#+$+%+&+*+].].].].].=+-+;+>+,+'+)+!+~+{+]+W.V.V.                        ",
"      ^+= - /+(+_+:+<+[+}+|+1+2+3+4+5+6+7+8+9+0+].a+b+c+d+e+f+g+h+i+j+k+l+                      ",
"  m+n+o+p+q+r+s+t+t+}+u+v+U w+x+y+z+A+B+C+D+E+F+G+H+I+J+K+L+M+N+O+P+Q+R+l+                      ",
"S+T+U+V+W+X+Y+Z+`+ @.@+@@@#@$@%@&@*@=@-@;@>@,@'@)@!@~@{@]@^@/@(@_@:@g+<@i+                      ",
"  [@}@|@1@2@3@4@5@6@7@8@9@0@a@b@c@d@e@f@g@h@i@j@k@l@m@n@o@p@q@r@s@t@u@O+v@w@                    ",
"      x@y@z@A@B@C@D@E@F@G@H@I@J@1@2@K@4@5@L@7@8@M@0@a@N@c@d@O@P@Q@R@S@T@:@U@                    ",
"        V@W@X@Y@Z@`@ #.#+#@###$#%#&#A@*#=#D@-#F@G@;#I@J@>#2@,#'#)#!#~#{#t@]#                    ",
"            ^#/#(#_#:#_#<#[#}#|#1#2#3#4#5#6# #.#+#@###$#%#7#8#9#'#0#a#b#c#d#e#f#                ",
"                g#h#i#j#k#l#m#n#o#p#q#r#s#t#u#_#<#v#}#|#w#2#x#y#z#A#B#C#D#E###F#G#H#            ",
"                    I#J#K#L#M#N#O#P#Q#R#S#T#U#V#k#l#W#n#o#X#Y#Z#`# $.$+$@$#$$$|#w#%$&$          ",
"                      *$=$h#-$;$;$>$>$,$,$'$)$!$~${$M#]$O#^$/$($_$:$<$[$}$l#|$m#o#X#1$r#2$      ",
"                          3$4$5$,$;$;$;$;$;$;$;$;$;$;$6$7$8$9$0$a$b$)$!$~${$L#]$c$P#d$e$f$g$h$  ",
"                              i$j$k$;$;$;$;$;$;$;$;$;$l$m$n$o$p$;$;$;$;$;$;$;$;$;$;$>$>$,$'$q$r$",
"                                s$t$u$v$;$;$;$;$;$;$;$;$w$x$y$;$;$;$;$;$;$;$;$;$;$;$;$;$z$A$B$C$",
"                                    D$=$u$E$;$;$;$;$;$;$;$;$;$;$;$;$;$;$;$;$;$;$;$;$;$F$G$H$    ",
"                                        I$J$J$;$;$;$;$;$;$;$;$;$;$;$;$;$;$;$;$;$;$K$L$M$        ",
"                                            N$j$O$;$;$;$;$;$;$;$;$;$;$;$;$;$;$P$Q$R$S$          ",
"                                              T$I#j$U$;$;$;$;$;$;$;$;$;$;$L#V$W$X$              ",
"                                                  Y$I#i$)$;$;$;$;$;$;$;$4$j$u$                  ",
"                                                      j$j$4$;$;$;$;$K#Z$`$                      ",
"                                                          `$i$ %.%j$I#+%                        ",
"                                                            @%I#3$#%                            ",
"                                                                                                ",
"                                                                                                ",
"                                                                                                ",
"                                                                                                ",
"                                                                                                ",
"                                                                                                ",
"                                                                                                ",
"                                                                                                ",
"                                                                                                "};
