/* XPM */
static char * magicDowels_xpm[] = {
"48 48 264 2",
"  	c None",
". 	c #821010",
"+ 	c #880F0F",
"@ 	c #8A0F0F",
"# 	c #851010",
"$ 	c #801111",
"% 	c #9A0B0B",
"& 	c #9D0A0A",
"* 	c #8D0E0E",
"= 	c #9C0A0A",
"- 	c #831010",
"; 	c #950C0C",
"> 	c #711010",
", 	c #730D0D",
"' 	c #900E0E",
") 	c #960C0C",
"! 	c #800F0F",
"~ 	c #4F0B0B",
"{ 	c #790A0A",
"] 	c #AB0A0A",
"^ 	c #B30E0E",
"/ 	c #B70E0E",
"( 	c #B80E0E",
"_ 	c #B40E0E",
": 	c #B10C0C",
"< 	c #810E0E",
"[ 	c #510A0A",
"} 	c #AD0A0A",
"| 	c #C90A0A",
"1 	c #D60A0A",
"2 	c #D90A0A",
"3 	c #CF0A0A",
"4 	c #BA0A0A",
"5 	c #020229",
"6 	c #0202A6",
"7 	c #000023",
"8 	c #000000",
"9 	c #0202F3",
"0 	c #0000EC",
"a 	c #000090",
"b 	c #0000FF",
"c 	c #0000DA",
"d 	c #00006E",
"e 	c #0000FE",
"f 	c #0000C3",
"g 	c #000040",
"h 	c #0000F6",
"i 	c #0000A9",
"j 	c #000021",
"k 	c #0000E7",
"l 	c #000087",
"m 	c #0000D5",
"n 	c #000067",
"o 	c #0000FA",
"p 	c #0000BE",
"q 	c #000041",
"r 	c #0202F8",
"s 	c #0A0AD7",
"t 	c #0404F2",
"u 	c #0606E7",
"v 	c #230E97",
"w 	c #0202EF",
"x 	c #1302EA",
"y 	c #020259",
"z 	c #0000FC",
"A 	c #0202B4",
"B 	c #00006D",
"C 	c #0000DB",
"D 	c #0000F3",
"E 	c #0000A4",
"F 	c #000003",
"G 	c #00007F",
"H 	c #000013",
"I 	c #0000B0",
"J 	c #0000F7",
"K 	c #0000D2",
"L 	c #00005E",
"M 	c #00004A",
"N 	c #0000CB",
"O 	c #0000FD",
"P 	c #400997",
"Q 	c #0B0BD2",
"R 	c #0000B9",
"S 	c #000038",
"T 	c #000073",
"U 	c #0000E1",
"V 	c #3F06AA",
"W 	c #000071",
"X 	c #0000F1",
"Y 	c #00009C",
"Z 	c #000004",
"` 	c #00009A",
" .	c #0000EE",
"..	c #0000FB",
"+.	c #0000C5",
"@.	c #000042",
"#.	c #0000E2",
"$.	c #00007B",
"%.	c #0000B5",
"&.	c #1402E7",
"*.	c #3F07A4",
"=.	c #0000AA",
"-.	c #000026",
";.	c #0000CC",
">.	c #000051",
",.	c #000054",
"'.	c #0000CE",
").	c #0903F0",
"!.	c #770C17",
"~.	c #380AB6",
"{.	c #0000E8",
"].	c #000088",
"^.	c #0303F3",
"/.	c #0000F9",
"(.	c #0000B3",
"_.	c #000031",
":.	c #00007D",
"<.	c #0000E3",
"[.	c #4407CF",
"}.	c #9F0D40",
"|.	c #B60B0D",
"1.	c #5C0E9D",
"2.	c #0101FC",
"3.	c #0000D7",
"4.	c #000069",
"5.	c #0E0EF3",
"6.	c #0000ED",
"7.	c #000098",
"8.	c #000002",
"9.	c #0000A3",
"0.	c #0000F2",
"a.	c #0302F8",
"b.	c #5608D2",
"c.	c #850AB3",
"d.	c #8D0AAD",
"e.	c #6909C8",
"f.	c #2405EA",
"g.	c #0000EB",
"h.	c #00008C",
"i.	c #1E1EF3",
"j.	c #0909FF",
"k.	c #0000DD",
"l.	c #00003B",
"m.	c #0000BC",
"n.	c #0000F8",
"o.	c #0000AC",
"p.	c #000015",
"q.	c #000083",
"r.	c #2F2FF3",
"s.	c #1B1BFF",
"t.	c #0303FF",
"u.	c #0000C6",
"v.	c #000047",
"w.	c #000060",
"x.	c #0000C8",
"y.	c #000045",
"z.	c #00005C",
"A.	c #0000C9",
"B.	c #4141F3",
"C.	c #2D2DFF",
"D.	c #1313FF",
"E.	c #0101FF",
"F.	c #0000AD",
"G.	c #000010",
"H.	c #000082",
"I.	c #0000E0",
"J.	c #00003A",
"K.	c #5252F3",
"L.	c #4040FF",
"M.	c #2525FF",
"N.	c #0B0BFF",
"O.	c #00008E",
"P.	c #000007",
"Q.	c #000096",
"R.	c #00009E",
"S.	c #6363F3",
"T.	c #5353FF",
"U.	c #3838FF",
"V.	c #1D1DFF",
"W.	c #0505FF",
"X.	c #0000C2",
"Y.	c #00002F",
"Z.	c #0000E4",
"`.	c #7575F3",
" +	c #6565FF",
".+	c #4A4AFF",
"++	c #3030FF",
"@+	c #1515FF",
"#+	c #00003F",
"$+	c #000052",
"%+	c #8686F3",
"&+	c #7878FF",
"*+	c #5D5DFF",
"=+	c #4242FF",
"-+	c #2728FF",
";+	c #0D0DFF",
">+	c #0000A7",
",+	c #9898F3",
"'+	c #8B8BFF",
")+	c #7070FF",
"!+	c #5555FF",
"~+	c #3A3AFF",
"{+	c #2020FF",
"]+	c #0606FF",
"^+	c #A9A9F3",
"/+	c #9D9DFF",
"(+	c #8283FF",
"_+	c #6868FF",
":+	c #4D4DFF",
"<+	c #3232FF",
"[+	c #1818FF",
"}+	c #0202FF",
"|+	c #BABAF3",
"1+	c #B0B0FF",
"2+	c #9595FF",
"3+	c #7A7AFF",
"4+	c #5F5FFF",
"5+	c #4444FF",
"6+	c #2A2AFF",
"7+	c #0F0FFF",
"8+	c #CCCCF3",
"9+	c #C3C3FF",
"0+	c #A8A8FF",
"a+	c #8D8DFF",
"b+	c #7272FF",
"c+	c #5757FF",
"d+	c #3C3CFF",
"e+	c #2222FF",
"f+	c #0808FF",
"g+	c #DDDDF3",
"h+	c #D6D6FF",
"i+	c #BBBBFF",
"j+	c #A0A0FF",
"k+	c #8585FF",
"l+	c #6A6AFF",
"m+	c #4F4FFF",
"n+	c #3434FF",
"o+	c #1A1AFF",
"p+	c #EAEAF3",
"q+	c #E8E8FF",
"r+	c #CDCDFF",
"s+	c #B2B2FF",
"t+	c #9797FF",
"u+	c #7C7CFF",
"v+	c #6262FF",
"w+	c #4747FF",
"x+	c #2C2CFF",
"y+	c #1212FF",
"z+	c #D7D7E5",
"A+	c #E1E1F0",
"B+	c #CACAF0",
"C+	c #B1B1F0",
"D+	c #9898F0",
"E+	c #8080F0",
"F+	c #6767F0",
"G+	c #4F4FF0",
"H+	c #3636F0",
"I+	c #1E1EF0",
"J+	c #0808F0",
"K+	c #0202F0",
"L+	c #0303A3",
"M+	c #0202A7",
"N+	c #0202C1",
"O+	c #02020D",
"                                                                                                ",
"                                                                                                ",
"                                                                                                ",
"                                            . + @ #                                             ",
"                                        $ % & & & & & *                                         ",
"                                        = & & & & & & & -                                       ",
"                                        ; & & & & & & & >                                       ",
"                                        , ' = & & & ) ! ~                                       ",
"                                        { ] ^ / ( _ : < [                                       ",
"                                        { } | 1 2 3 4 < [                                       ",
"5                                       { } | 1 2 3 4 < [                                       ",
"6 7 8                                   { } | 1 2 3 4 < [                                       ",
"9 0 a 8 8                               { } | 1 2 3 4 < [                                       ",
"9 b b c d 8                             { } | 1 2 3 4 < [                                       ",
"9 b b b e f g 8                         { } | 1 2 3 4 < [                                       ",
"9 b b b b b h i j 8                     { } | 1 2 3 4 < [                                       ",
"9 b b b b b b b k l 8 8                 { } | 1 2 3 4 < [                                       ",
"9 b b b b b b b b b m n 8               { } | 1 2 3 4 < [                                       ",
"9 b b b b b b b b b b o p q             { } | 1 2 3 4 < [                                       ",
"9 b b b b b b b b b b b b b r s         { } | 1 2 3 4 < [                                       ",
"9 b b b b b b b b b b b b b b b t       { } | 1 2 3 4 < [                                       ",
"9 b b b b b b b b b b b b b b b b b u v { } | 1 2 3 4 < [                                       ",
"w b b b b b b b b b b b b b b b b b b x { } | 1 2 3 4 < [                                       ",
"y f z b b b b b b b b b b b b b b b b x { } | 1 2 3 4 < [                                       ",
"A g B C b b b b b b b b b b b b b b b x { } | 1 2 3 4 < [                                       ",
"9 D E F a 0 b b b b b b b b b b b b b x { } | 1 2 3 4 < [                                       ",
"9 b b k G H I J b b b b b b b b b b b x { } | 1 2 3 4 < [                                       ",
"9 b b b b K L M N O b b b b b b b b b x { } | 1 2 3 4 < P Q                                     ",
"9 b b b b b o R S T U b b b b b b b b x { } | 1 2 3 4 < V b W 8                                 ",
"9 b b b b b b b X Y Z `  .b b b b b b x { } | 1 2 3 4 < V b ..+.@.8                             ",
"9 b b b b b b b b b #.$.S %.o b b b b &.{ } | 1 2 3 4 < *.b b b h =.-.8                         ",
"9 b b b b b b b b b b O ;.>.,.'.b b b ).!.} | 1 2 3 4 < ~.b b b b b {.].8 8                     ",
"^.b b b b b b b b b b b b /.(._.:.<.b b [.}.| 1 2 3 |.1.2.b b b b b b b 3.4.8                   ",
"5.b b b b b b b b b b b b b b 6.7.8.9.0.b a.b.c.d.e.f.b b b b b b b b b g.h.8 8                 ",
"i.j.b b b b b b b b b b b b b b b k.W l.m...b b b b b b b b b b b b n.o.p.q.=.8                 ",
"r.s.t.b b b b b b b b b b b b b b b O u.v.w.m b b b b b b b b b e x.y.z.m b A.8                 ",
"B.C.D.E.b b b b b b b b b b b b b b b b J F.G.H.{.b b b b b b I.d J.m...b b A.8                 ",
"K.L.M.N.b b b b b b b b b b b b b b b b b b g.O.P.i h b b 6.Q.F R.D b b b b A.8                 ",
"S.T.U.V.W.b b b b b b b b b b b b b b b b b b b 3.n @.X.(.Y.G Z.b b b b b b A.8                 ",
"`. +.+++@+E.b b b b b b b b b b b b b b b b b b b z X.#+$+'.O b b b b b b b A.8                 ",
"%+&+*+=+-+;+b b b b b b b b b b b b b b b b b b b b b >+=.b b b b b b b b b A.8                 ",
",+'+)+!+~+{+]+b b b b b b b b b b b b b b b b b b b b >+=.b b b b b b b b b A.8                 ",
"^+/+(+_+:+<+[+}+b b b b b b b b b b b b b b b b b b b >+=.b b b b b b b b b A.8                 ",
"|+1+2+3+4+5+6+7+b b b b b b b b b b b b b b b b b b b >+=.b b b b b b b b b A.8                 ",
"8+9+0+a+b+c+d+e+f+b b b b b b b b b b b b b b b b b b >+=.b b b b b b b b b A.8                 ",
"g+h+i+j+k+l+m+n+o+t.b b b b b b b b b b b b b b b b b >+=.b b b b b b b b b A.8                 ",
"p+q+r+s+t+u+v+w+x+y+b b b b b b b b b b b b b b b b b >+=.b b b b b b b b b A.8                 ",
"z+A+B+C+D+E+F+G+H+I+J+K+K+K+K+K+K+K+K+K+K+K+K+K+K+K+K+L+M+K+K+K+K+K+K+K+K+K+N+O+                "};
