/* XPM */
static char * makeTransparent_xpm[] = {
"48 48 2 1",
" 	c None",
".	c #0000FF",
"                                                ",
"                                                ",
"                                                ",
"                                                ",
"                                                ",
"                 .                              ",
"             .     .                            ",
"           .                                    ",
"         .            .                         ",
"                        .                       ",
"      .                   .                     ",
"    .                      .                    ",
"  .                          .                  ",
" .                             .                ",
"..                                              ",
". ..                              .             ",
".   ..                              .           ",
".     .                               .         ",
".      ..                                       ",
".        ..                              .      ",
".          ..                              .    ",
".            .                               .  ",
".             ..                              . ",
".               ..                            ..",
".                 ..                        .. .",
" .                  .                      .   .",
"   .                 ..                  .     .",
"    .                  ..              ..      .",
"      .                  .           ..        .",
"        .                 ..        .          .",
"         ..                 ..    ..           .",
"           .                  ....             .",
"             .                 .               .",
"               .               .               .",
"                .              .              . ",
"                  .            .             .  ",
"                    .          .           .    ",
"                      .        .         .      ",
"                       .       .       .        ",
"                         .     .      .         ",
"                           .   .    .           ",
"                             . .  .             ",
"                              ....              ",
"                                                ",
"                                                ",
"                                                ",
"                                                ",
"                                                "};
