/* XPM */
static char * panelSideLeftUP_xpm[] = {
"48 48 503 2",
"  	c None",
". 	c #D7D7D7",
"+ 	c #D5D5D5",
"@ 	c #DFDDDD",
"# 	c #ECEBEB",
"$ 	c #FFFFFF",
"% 	c #DCCECE",
"& 	c #EBE0E0",
"* 	c #FAF0F0",
"= 	c #FFF7F7",
"- 	c #FFFCFC",
"; 	c #D8BFBF",
"> 	c #EAD3D3",
", 	c #F6E0E0",
"' 	c #FFEBEB",
") 	c #FFEDED",
"! 	c #FFF0F0",
"~ 	c #FFF4F4",
"{ 	c #000000",
"] 	c #D9B4B4",
"^ 	c #E0BEBE",
"/ 	c #F2D0D0",
"( 	c #FFDEDE",
"_ 	c #FFE0E0",
": 	c #FFE3E3",
"< 	c #FFE5E5",
"[ 	c #FFE8E8",
"} 	c #FFECEC",
"| 	c #E0B2B2",
"1 	c #E9BCBC",
"2 	c #FFD1D1",
"3 	c #FFD3D3",
"4 	c #FFD6D6",
"5 	c #FFD8D8",
"6 	c #FFDBDB",
"7 	c #FFDDDD",
"8 	c #FFE4E4",
"9 	c #C29190",
"0 	c #EAB1B1",
"a 	c #FAC0C0",
"b 	c #FFC6C6",
"c 	c #FFC9C9",
"d 	c #FFCBCB",
"e 	c #FFCECE",
"f 	c #FFD0D0",
"g 	c #FFD5D5",
"h 	c #FFDCDC",
"i 	c #D19696",
"j 	c #FFB9B9",
"k 	c #FFBCBC",
"l 	c #FFBEBF",
"m 	c #FFC1C1",
"n 	c #FFC3C3",
"o 	c #FFC8C9",
"p 	c #FFD4D4",
"q 	c #D18F8F",
"r 	c #FFB2B2",
"s 	c #FFB4B4",
"t 	c #FFB6B7",
"u 	c #FFBEBE",
"v 	c #FFC8C8",
"w 	c #FFCCCC",
"x 	c #D18989",
"y 	c #FFAAAA",
"z 	c #FFACAC",
"A 	c #FFAFAF",
"B 	c #FFB1B1",
"C 	c #FFB6B6",
"D 	c #FFBBBB",
"E 	c #FFC0C0",
"F 	c #FFC4C4",
"G 	c #D18282",
"H 	c #FFA2A2",
"I 	c #FFA4A4",
"J 	c #FFA7A7",
"K 	c #FFA9A9",
"L 	c #FFAEAF",
"M 	c #FFB3B4",
"N 	c #D17C7C",
"O 	c #FF9A9A",
"P 	c #FF9C9C",
"Q 	c #FF9F9F",
"R 	c #FFA1A2",
"S 	c #FFAEAE",
"T 	c #D17575",
"U 	c #FF9292",
"V 	c #FF9595",
"W 	c #FF9797",
"X 	c #FFA1A1",
"Y 	c #FFA6A6",
"Z 	c #D16F6F",
"` 	c #FF8A8A",
" .	c #FF8D8D",
"..	c #FF8F8F",
"+.	c #FF9494",
"@.	c #FF9999",
"#.	c #FF9E9E",
"$.	c #FFA5A4",
"%.	c #D16969",
"&.	c #FF8282",
"*.	c #FF8585",
"=.	c #FF8787",
"-.	c #FF8C8C",
";.	c #FF9191",
">.	c #FF9696",
",.	c #FF9D9D",
"'.	c #D16262",
").	c #FF7A7A",
"!.	c #FF7D7D",
"~.	c #FF807F",
"{.	c #FF8484",
"].	c #FF8A89",
"^.	c #FF8F8E",
"/.	c #D15C5C",
"(.	c #FF7273",
"_.	c #FF7575",
":.	c #FF7877",
"<.	c #FF7F7F",
"[.	c #FF8989",
"}.	c #D15555",
"|.	c #FF6B6B",
"1.	c #FF6D6D",
"2.	c #FF7070",
"3.	c #FF7272",
"4.	c #FF7777",
"5.	c #FF7C7C",
"6.	c #FF8181",
"7.	c #D14F4F",
"8.	c #FF6363",
"9.	c #FF6565",
"0.	c #FF6868",
"a.	c #FF6A6A",
"b.	c #FF6F6F",
"c.	c #FF7475",
"d.	c #FF7A79",
"e.	c #D14949",
"f.	c #FF5B5B",
"g.	c #FF5D5D",
"h.	c #FF6060",
"i.	c #FF6262",
"j.	c #FF6767",
"k.	c #D14242",
"l.	c #FF5353",
"m.	c #FF5656",
"n.	c #FF5858",
"o.	c #FF5A5B",
"p.	c #D13C3C",
"q.	c #FF4B4B",
"r.	c #FF4E4E",
"s.	c #FF5050",
"t.	c #FF5555",
"u.	c #FF5A5A",
"v.	c #FF5F5F",
"w.	c #D13636",
"x.	c #FF4343",
"y.	c #FF4646",
"z.	c #FF4848",
"A.	c #FF4D4D",
"B.	c #FF5252",
"C.	c #FF5757",
"D.	c #D13030",
"E.	c #FF3B3B",
"F.	c #FF3E3E",
"G.	c #FF4040",
"H.	c #FF4546",
"I.	c #D12A2A",
"J.	c #FF3434",
"K.	c #FF3636",
"L.	c #FF3939",
"M.	c #FF4545",
"N.	c #FF4A4A",
"O.	c #D12424",
"P.	c #FF2C2C",
"Q.	c #FF2E2E",
"R.	c #FF3131",
"S.	c #FF3333",
"T.	c #FF3838",
"U.	c #FF3D3D",
"V.	c #FF4242",
"W.	c #D11F1E",
"X.	c #FF2424",
"Y.	c #FF2626",
"Z.	c #FF2929",
"`.	c #FF2B2B",
" +	c #FF3030",
".+	c #FF3535",
"++	c #F7393E",
"@+	c #B43CAC",
"#+	c #3E3ED4",
"$+	c #D11919",
"%+	c #FF1C1C",
"&+	c #FF1E1E",
"*+	c #FF2121",
"=+	c #FF2423",
"-+	c #FF2829",
";+	c #FC2D2D",
">+	c #C62F94",
",+	c #5538EB",
"'+	c #4444FF",
")+	c #4D4DFF",
"!+	c #5151F2",
"~+	c #D11515",
"{+	c #FF1414",
"]+	c #FF1717",
"^+	c #FF1919",
"/+	c #FF1B1C",
"(+	c #DC236C",
"_+	c #7229DA",
":+	c #3434FF",
"<+	c #3D3DFF",
"[+	c #4646FF",
"}+	c #4F4FFF",
"|+	c #5858FF",
"1+	c #6161FF",
"2+	c #6262ED",
"3+	c #D11111",
"4+	c #FF0C0C",
"5+	c #FF0F0F",
"6+	c #FF1111",
"7+	c #ED1742",
"8+	c #9A1BBF",
"9+	c #2224FB",
"0+	c #2D2DFF",
"a+	c #3636FF",
"b+	c #3F3FFF",
"c+	c #4848FF",
"d+	c #5151FF",
"e+	c #5A5AFF",
"f+	c #6363FF",
"g+	c #6C6CFF",
"h+	c #7474FE",
"i+	c #6E6EE1",
"j+	c #D10D0D",
"k+	c #FF0404",
"l+	c #FF0707",
"m+	c #F70B0D",
"n+	c #AF10AB",
"o+	c #2815F5",
"p+	c #1D1DFF",
"q+	c #2626FF",
"r+	c #2F2FFF",
"s+	c #3838FF",
"t+	c #4141FF",
"u+	c #4A4AFF",
"v+	c #5353FF",
"w+	c #5C5CFF",
"x+	c #6565FF",
"y+	c #6E6EFF",
"z+	c #7777FF",
"A+	c #8080FF",
"B+	c #8484F7",
"C+	c #7D7DDB",
"D+	c #D10C0C",
"E+	c #FF0000",
"F+	c #CC077F",
"G+	c #5207EA",
"H+	c #0D0DFF",
"I+	c #1616FF",
"J+	c #1F1FFF",
"K+	c #2828FF",
"L+	c #3131FF",
"M+	c #3A3AFF",
"N+	c #4343FF",
"O+	c #4C4CFF",
"P+	c #5555FF",
"Q+	c #5E5EFF",
"R+	c #6767FF",
"S+	c #7070FF",
"T+	c #7979FF",
"U+	c #8282FF",
"V+	c #8B8BFF",
"W+	c #9494FF",
"X+	c #9595F3",
"Y+	c #810E9F",
"Z+	c #7A08C6",
"`+	c #0000FF",
" @	c #0606FF",
".@	c #0F0FFF",
"+@	c #1818FF",
"@@	c #2121FF",
"#@	c #2A2AFF",
"$@	c #3333FF",
"%@	c #3C3CFF",
"&@	c #4545FF",
"*@	c #4E4EFF",
"=@	c #5757FF",
"-@	c #6060FF",
";@	c #6969FF",
">@	c #7272FF",
",@	c #7B7BFF",
"'@	c #8484FF",
")@	c #8D8DFF",
"!@	c #9696FF",
"~@	c #9F9FFF",
"{@	c #A8A8FF",
"]@	c #A1A1E8",
"^@	c #0909DC",
"/@	c #0606EA",
"(@	c #0909FA",
"_@	c #1111FF",
":@	c #1A1AFF",
"<@	c #2323FF",
"[@	c #2C2CFF",
"}@	c #3535FF",
"|@	c #3E3EFF",
"1@	c #4747FF",
"2@	c #5050FF",
"3@	c #5959FF",
"4@	c #6262FF",
"5@	c #6B6BFF",
"6@	c #7474FF",
"7@	c #7D7DFF",
"8@	c #8686FF",
"9@	c #8F8FFF",
"0@	c #9898FF",
"a@	c #A1A1FF",
"b@	c #AAAAFF",
"c@	c #B3B3FF",
"d@	c #B9B9FC",
"e@	c #AEAEE2",
"f@	c #0F0FE2",
"g@	c #1414ED",
"h@	c #1C1CFF",
"i@	c #2525FF",
"j@	c #2E2EFF",
"k@	c #3737FF",
"l@	c #4040FF",
"m@	c #4949FF",
"n@	c #5252FF",
"o@	c #5B5BFF",
"p@	c #6464FF",
"q@	c #6D6DFF",
"r@	c #7676FF",
"s@	c #7F7FFF",
"t@	c #8888FF",
"u@	c #9191FF",
"v@	c #9A9AFF",
"w@	c #A3A3FF",
"x@	c #ACACFF",
"y@	c #B5B5FF",
"z@	c #BEBEFF",
"A@	c #C7C7FF",
"B@	c #CBCBF9",
"C@	c #B7B7D8",
"D@	c #1617D8",
"E@	c #1D1DE1",
"F@	c #2626F3",
"G@	c #3030FF",
"H@	c #3939FF",
"I@	c #4242FF",
"J@	c #4B4BFF",
"K@	c #5454FF",
"L@	c #5D5DFF",
"M@	c #6666FF",
"N@	c #6F6FFF",
"O@	c #7878FF",
"P@	c #8181FF",
"Q@	c #8A8AFF",
"R@	c #9393FF",
"S@	c #9C9CFF",
"T@	c #A5A5FF",
"U@	c #AEAEFF",
"V@	c #B7B7FF",
"W@	c #C0C0FF",
"X@	c #C9C9FF",
"Y@	c #D2D2FF",
"Z@	c #DBDBFF",
"`@	c #D6D6EF",
" #	c #2525D8",
".#	c #2F2FEB",
"+#	c #3939F6",
"@#	c #5656FF",
"##	c #5F5FFF",
"$#	c #6868FF",
"%#	c #7171FF",
"&#	c #7A7AFF",
"*#	c #8383FF",
"=#	c #8C8CFF",
"-#	c #9595FF",
";#	c #9E9EFF",
">#	c #A7A7FF",
",#	c #B0B0FF",
"'#	c #B9B9FF",
")#	c #C2C2FF",
"!#	c #CBCBFF",
"~#	c #D4D4FF",
"{#	c #DDDDFF",
"]#	c #E6E6FF",
"^#	c #EFEFFF",
"/#	c #DFDFE6",
"(#	c #3636DE",
"_#	c #4141EB",
":#	c #4F4FFE",
"<#	c #6A6AFF",
"[#	c #7373FF",
"}#	c #7C7CFF",
"|#	c #8585FF",
"1#	c #8E8EFF",
"2#	c #9797FF",
"3#	c #A0A0FF",
"4#	c #A9A9FF",
"5#	c #B2B2FF",
"6#	c #BBBBFF",
"7#	c #C4C4FF",
"8#	c #CDCDFF",
"9#	c #D6D6FF",
"0#	c #DFDFFF",
"a#	c #E8E8FF",
"b#	c #F1F1FF",
"c#	c #FAFAFF",
"d#	c #FBFBFB",
"e#	c #DDDDDD",
"f#	c #4646DC",
"g#	c #5454EE",
"h#	c #7575FF",
"i#	c #7E7EFF",
"j#	c #8787FF",
"k#	c #9090FF",
"l#	c #9999FF",
"m#	c #A2A2FF",
"n#	c #ABABFF",
"o#	c #B4B4FF",
"p#	c #BDBDFF",
"q#	c #C6C6FF",
"r#	c #CFCFFF",
"s#	c #D8D8FF",
"t#	c #E1E1FF",
"u#	c #EAEAFF",
"v#	c #F3F3FF",
"w#	c #FCFCFF",
"x#	c #F4F4F4",
"y#	c #4F4FD9",
"z#	c #5B5BE6",
"A#	c #6868F2",
"B#	c #8989FF",
"C#	c #9292FF",
"D#	c #9B9BFF",
"E#	c #A4A4FF",
"F#	c #ADADFF",
"G#	c #B6B6FF",
"H#	c #BFBFFF",
"I#	c #C8C8FF",
"J#	c #D1D1FF",
"K#	c #DADAFF",
"L#	c #E3E3FF",
"M#	c #ECECFF",
"N#	c #F5F5FF",
"O#	c #FDFDFF",
"P#	c #F8F8F8",
"Q#	c #E5E5E5",
"R#	c #CDCDCD",
"S#	c #6060DB",
"T#	c #6E6FE9",
"U#	c #7F7FF9",
"V#	c #9D9DFF",
"W#	c #A6A6FF",
"X#	c #AFAFFF",
"Y#	c #B8B8FF",
"Z#	c #C1C1FF",
"`#	c #CACAFF",
" $	c #D3D3FF",
".$	c #DCDCFF",
"+$	c #E5E5FF",
"@$	c #EEEEFF",
"#$	c #F7F7FF",
"$$	c #FAFAFA",
"%$	c #EBEBEB",
"&$	c #7171DA",
"*$	c #8282EB",
"=$	c #9696FE",
"-$	c #B1B1FF",
";$	c #BABAFF",
">$	c #C3C3FF",
",$	c #CCCCFF",
"'$	c #D5D5FF",
")$	c #DEDEFF",
"!$	c #E7E7FF",
"~$	c #E5E5EB",
"{$	c #E0E0E1",
"]$	c #7979D7",
"^$	c #8686E1",
"/$	c #9697EE",
"($	c #BCBCFF",
"_$	c #C5C5FF",
":$	c #CECEFF",
"<$	c #D7D7FF",
"[$	c #E0E0FF",
"}$	c #DEDEF3",
"|$	c #D4D4E0",
"1$	c #D7D7DC",
"2$	c #8D8DDC",
"3$	c #9C9CE6",
"4$	c #AEAEF4",
"5$	c #D0D0FF",
"6$	c #D2D2F7",
"7$	c #CECEE9",
"8$	c #C2C2D3",
"9$	c #9B9BD8",
"0$	c #B1B1EB",
"a$	c #C2C2F6",
"b$	c #C1C1EA",
"c$	c #BFBFDF",
"d$	c #9F9FC8",
"                                                                                                ",
"                                  . +                                                           ",
"                                @ # $                                                           ",
"                            % & * = -                                                           ",
"                        ; > , ' ) ! ~                               { {                         ",
"                    ] ^ / ( _ : < [ }                             { { { {                       ",
"                  | 1 2 3 4 5 6 7 _ 8                           { { { { { {                     ",
"              9 0 a b c d e f 3 g 5 h                         { { { { { { { {                   ",
"              i j k l m n b o d e f p                       { { { { { { { { { {                 ",
"              q r s t j k u m n b v w                     { { { { { { { { { { { {               ",
"              x y z A B s C j D u E F                             { { { {                       ",
"              G H I J K z L B M C j k                             { { { {                       ",
"              N O P Q R I J K z S B s                             { { { {                       ",
"              T U V W O P Q X I Y K z                             { { { {                       ",
"              Z `  ...U +.W @.P #.X $.                            { { { {                       ",
"              %.&.*.=.` -...;.+.>.@.,.                            { { { {                       ",
"              '.).!.~.&.{.=.].-.^.;.V                             { { { {                       ",
"              /.(._.:.).!.<.&.{.=.[. .                            { { { {                       ",
"              }.|.1.2.3._.4.).5.<.6.*.                            { { { {                       ",
"              7.8.9.0.a.1.b.3.c.4.d.!.                            { { { {                       ",
"              e.f.g.h.i.9.j.a.1.b.3._.                            { { { {                       ",
"              k.l.m.n.o.g.h.i.9.j.a.1.                            { { { {                       ",
"              p.q.r.s.l.t.n.u.g.v.i.9.                            { { { {                       ",
"              w.x.y.z.q.A.s.B.t.C.u.g.                            { { { {                       ",
"              D.E.F.G.x.H.z.q.A.s.B.t.                                                          ",
"              I.J.K.L.E.F.G.x.M.z.N.A.                                                          ",
"              O.P.Q.R.S.K.T.E.U.G.V.M.                                                          ",
"              W.X.Y.Z.`.Q. +S..+T.++@+#+                                                        ",
"              $+%+&+*+=+Y.-+`.;+>+,+'+)+!+                                                      ",
"              ~+{+]+^+/+&+*+(+_+:+<+[+}+|+1+2+                                                  ",
"              3+4+5+6+{+7+8+9+0+a+b+c+d+e+f+g+h+i+                                              ",
"              j+k+l+m+n+o+p+q+r+s+t+u+v+w+x+y+z+A+B+C+                                          ",
"              D+E+F+G+H+I+J+K+L+M+N+O+P+Q+R+S+T+U+V+W+X+                                        ",
"              Y+Z+`+ @.@+@@@#@$@%@&@*@=@-@;@>@,@'@)@!@~@{@]@                                    ",
"                ^@/@(@_@:@<@[@}@|@1@2@3@4@5@6@7@8@9@0@a@b@c@d@e@                                ",
"                    f@g@h@i@j@k@l@m@n@o@p@q@r@s@t@u@v@w@x@y@z@A@B@C@                            ",
"                      D@E@F@G@H@I@J@K@L@M@N@O@P@Q@R@S@T@U@V@W@X@Y@Z@`@                          ",
"                           #.#+#'+)+@###$#%#&#*#=#-#;#>#,#'#)#!#~#{#]#^#/#                      ",
"                              (#_#:#|+1+<#[#}#|#1#2#3#4#5#6#7#8#9#0#a#b#c#d#e#                  ",
"                                  f#g#f+g+h#i#j#k#l#m#n#o#p#q#r#s#t#u#v#w#$ $ x#                ",
"                                    y#z#A#z+A+B#C#D#E#F#G#H#I#J#K#L#M#N#O#$ P#Q#R#              ",
"                                        S#T#U#V+W+V#W#X#Y#Z#`# $.$+$@$#$$$%$.                   ",
"                                            &$*$=$~@{@-$;$>$,$'$)$!$b#~${$                      ",
"                                              ]$^$/$b@c@($_$:$<$[$}$|$1$                        ",
"                                                  2$3$4$z@A@5$6$7$8$                            ",
"                                                      9$0$a$b$c$                                ",
"                                                          d$                                    ",
"                                                                                                "};
