/* XPM */
static char * panelSideLeftUP_xpm[] = {
"48 48 248 2",
"  	c None",
". 	c #D5D5D5",
"+ 	c #D3D3D3",
"@ 	c #A0A0A0",
"# 	c #FFFFFF",
"$ 	c #FFFEFE",
"% 	c #C1C0C1",
"& 	c #FFF9F9",
"* 	c #FFF8F8",
"= 	c #FFF7F8",
"- 	c #C1BCBC",
"; 	c #FFF2F2",
"> 	c #FFF1F1",
", 	c #FFF0F1",
"' 	c #C1B6B6",
") 	c #FFEBEB",
"! 	c #FFEAEA",
"~ 	c #C1B1B1",
"{ 	c #FFE4E4",
"] 	c #FFE3E3",
"^ 	c #C1ACAC",
"/ 	c #FFDDDD",
"( 	c #FFDCDC",
"_ 	c #C1A6A6",
": 	c #FFD6D6",
"< 	c #FFD5D5",
"[ 	c #C1A1A1",
"} 	c #FFCFCF",
"| 	c #FFCECE",
"1 	c #C19C9C",
"2 	c #FFC8C8",
"3 	c #FFC7C7",
"4 	c #C19696",
"5 	c #FFC1C1",
"6 	c #FFC0C0",
"7 	c #C19191",
"8 	c #FFBABA",
"9 	c #FFB9B9",
"0 	c #C18C8C",
"a 	c #FFB3B3",
"b 	c #FFB2B2",
"c 	c #C18787",
"d 	c #FFACAC",
"e 	c #FFABAB",
"f 	c #C18181",
"g 	c #FFA5A5",
"h 	c #FFA4A4",
"i 	c #C17C7C",
"j 	c #FF9E9E",
"k 	c #FF9D9D",
"l 	c #C17777",
"m 	c #FF9797",
"n 	c #FF9696",
"o 	c #C17172",
"p 	c #FF9090",
"q 	c #FF8F8F",
"r 	c #FF908F",
"s 	c #FF8F90",
"t 	c #C16C6C",
"u 	c #FF8989",
"v 	c #FF8888",
"w 	c #C16767",
"x 	c #FF8282",
"y 	c #FF8181",
"z 	c #C16262",
"A 	c #FF7B7B",
"B 	c #FF7A7A",
"C 	c #FF7B7A",
"D 	c #C15D5D",
"E 	c #FF7474",
"F 	c #FF7373",
"G 	c #C15757",
"H 	c #FF6D6D",
"I 	c #FF6C6C",
"J 	c #FF6C6D",
"K 	c #C15252",
"L 	c #FF6666",
"M 	c #FF6565",
"N 	c #C14D4D",
"O 	c #FF5F5F",
"P 	c #FF5E5E",
"Q 	c #C14848",
"R 	c #FF5858",
"S 	c #FF5757",
"T 	c #FF5857",
"U 	c #FF5758",
"V 	c #C14343",
"W 	c #FF5151",
"X 	c #FF5150",
"Y 	c #C13E3E",
"Z 	c #FF4A4A",
"` 	c #FF4A49",
" .	c #C13939",
"..	c #FF4343",
"+.	c #C13434",
"@.	c #FF3C3C",
"#.	c #C12F2F",
"$.	c #FF3535",
"%.	c #FF3435",
"&.	c #C12A2A",
"*.	c #FF2E2E",
"=.	c #C12625",
"-.	c #FF2727",
";.	c #C12121",
">.	c #FF2020",
",.	c #C11D1D",
"'.	c #FF1919",
").	c #C11919",
"!.	c #FF1212",
"~.	c #C11616",
"{.	c #FF0B0B",
"].	c #C11313",
"^.	c #FF0404",
"/.	c #C11010",
"(.	c #FF0000",
"_.	c #C10E0E",
":.	c #DF0900",
"<.	c #DD0900",
"[.	c #A11200",
"}.	c #0101FB",
"|.	c #0202F9",
"1.	c #0505F9",
"2.	c #0B0BF9",
"3.	c #1212F9",
"4.	c #1918F9",
"5.	c #1F1FF9",
"6.	c #2626F9",
"7.	c #2D2DF9",
"8.	c #3434F9",
"9.	c #3A3AF9",
"0.	c #4141F9",
"a.	c #4848F9",
"b.	c #4F4FF9",
"c.	c #5656F9",
"d.	c #5D5DF9",
"e.	c #6364F9",
"f.	c #6A6AF9",
"g.	c #7171F9",
"h.	c #7878F9",
"i.	c #7F7FF9",
"j.	c #8686F9",
"k.	c #8D8DF9",
"l.	c #9393F9",
"m.	c #9A9AF9",
"n.	c #A1A1F9",
"o.	c #A8A8F9",
"p.	c #AFAFF9",
"q.	c #B6B6F9",
"r.	c #BDBDF9",
"s.	c #C4C4F9",
"t.	c #CBCBF9",
"u.	c #D1D1F9",
"v.	c #D8D8F9",
"w.	c #DFDFF9",
"x.	c #E6E6F9",
"y.	c #EDEDF9",
"z.	c #F4F4F9",
"A.	c #F9F9F9",
"B.	c #C4C4C4",
"C.	c #0000FF",
"D.	c #0303FF",
"E.	c #0A0AFF",
"F.	c #1111FF",
"G.	c #1918FF",
"H.	c #2020FF",
"I.	c #2727FF",
"J.	c #2E2EFF",
"K.	c #3534FF",
"L.	c #3C3CFF",
"M.	c #4343FF",
"N.	c #4A4AFF",
"O.	c #5151FF",
"P.	c #5858FF",
"Q.	c #5F5FFF",
"R.	c #6666FF",
"S.	c #6D6DFF",
"T.	c #7474FF",
"U.	c #7B7BFF",
"V.	c #8282FF",
"W.	c #8989FF",
"X.	c #9090FF",
"Y.	c #9797FF",
"Z.	c #9E9EFF",
"`.	c #A5A5FF",
" +	c #ACACFF",
".+	c #B3B3FF",
"++	c #BABAFF",
"@+	c #C2C2FF",
"#+	c #C9C9FF",
"$+	c #D0D0FF",
"%+	c #D7D7FF",
"&+	c #DEDDFF",
"*+	c #E5E5FF",
"=+	c #ECECFF",
"-+	c #F3F3FF",
";+	c #FAFAFF",
">+	c #C9C9C9",
",+	c #1919FF",
"'+	c #1F20FF",
")+	c #3535FF",
"!+	c #C8C9FF",
"~+	c #DEDEFF",
"{+	c #1818FF",
"]+	c #201FFF",
"^+	c #2726FF",
"/+	c #C1C2FF",
"(+	c #1211FF",
"_+	c #1819FF",
":+	c #C1C1FF",
"<+	c #0D0DCB",
"[+	c #0D0DC9",
"}+	c #0F0FC9",
"|+	c #1212C9",
"1+	c #1515C9",
"2+	c #1919C9",
"3+	c #1D1DC9",
"4+	c #2222C9",
"5+	c #2626C9",
"6+	c #2B2CC9",
"7+	c #3131C9",
"8+	c #3636C9",
"9+	c #3B3BC9",
"0+	c #4040C9",
"a+	c #4646C9",
"b+	c #4B4BC9",
"c+	c #5151C9",
"d+	c #5656C9",
"e+	c #5C5BC9",
"f+	c #6161C9",
"g+	c #6666C9",
"h+	c #6C6CC9",
"i+	c #7171C9",
"j+	c #7777C9",
"k+	c #7D7DC9",
"l+	c #8282C9",
"m+	c #8888C9",
"n+	c #8D8DC9",
"o+	c #9393C9",
"p+	c #9998C9",
"q+	c #9E9EC9",
"r+	c #A4A4C9",
"s+	c #A9A9C9",
"t+	c #AFAFC9",
"u+	c #B5B4C9",
"v+	c #BABAC9",
"w+	c #C0C0C9",
"x+	c #C5C5C9",
"y+	c #9E9E9E",
"              . + + + + + @                                                                     ",
"              # $ $ $ $ $ %                                                                     ",
"              & * = * * * -                                                                     ",
"              ; > > , > > '                                                                     ",
"              ) ! ! ! ! ! ~                                                                     ",
"              { ] ] ] ] ] ^                                                                     ",
"              / ( ( ( ( ( _                                                                     ",
"              : < < < < < [                                                                     ",
"              } | | | | | 1                                                                     ",
"              2 3 3 3 3 3 4                                                                     ",
"              5 6 6 6 6 6 7                                                                     ",
"              8 9 9 9 9 9 0                                                                     ",
"              a b b b b b c                                                                     ",
"              d e e e e e f                                                                     ",
"              g h h h h h i                                                                     ",
"              j k k k k k l                                                                     ",
"              m n n n n n o                                                                     ",
"              p q q q r s t                                                                     ",
"              u v v v v v w                                                                     ",
"              x y y y y y z                                                                     ",
"              A B B C B B D                                                                     ",
"              E F F F E E G                                                                     ",
"              H I I I J J K                                                                     ",
"              L M M M M L N                                                                     ",
"              O P P P P O Q                                                                     ",
"              R S T S S U V                                                                     ",
"              W W W X X W Y                                                                     ",
"              Z ` ` Z Z Z  .                                                                    ",
"              ............+.                                                                    ",
"              @.@.@.@.@.@.#.                                                                    ",
"              $.$.%.$.$.$.&.                                                                    ",
"              *.*.*.*.*.*.=.                                                                    ",
"              -.-.-.-.-.-.;.                                                                    ",
"              >.>.>.>.>.>.,.                                                                    ",
"              '.'.'.'.'.'.).                                                                    ",
"              !.!.!.!.!.!.~.                                                                    ",
"              {.{.{.{.{.{.].                                                                    ",
"              ^.^.^.^.^.^./.                                                                    ",
"              (.(.(.(.(.(._.                                                                    ",
"              (.(.(.(.(.(._.                                                                    ",
"              :.<.<.<.<.<.[.                                                                    ",
"              }.|.1.2.3.4.5.6.7.8.9.0.a.b.c.d.e.f.g.h.i.j.k.l.m.n.o.p.q.r.s.t.u.v.w.x.y.z.A.A.B.",
"              C.C.D.E.F.G.H.I.J.K.L.M.N.O.P.Q.R.S.T.U.V.W.X.Y.Z.`. +.+++@+#+$+%+&+*+=+-+;+# # >+",
"              C.C.D.E.F.,+'+I.J.)+L.M.N.O.P.Q.R.S.T.U.V.W.X.Y.Z.`. +.+++@+!+$+%+~+*+=+-+;+# # >+",
"              C.C.D.E.F.{+]+^+J.)+L.M.N.O.P.Q.R.S.T.U.V.W.X.Y.Z.`. +.+++@+#+$+%+~+*+=+-+;+# # >+",
"              C.C.D.E.F.{+]+^+J.)+L.M.N.O.P.Q.R.S.T.U.V.W.X.Y.Z.`. +.+++/+#+$+%+~+*+=+-+;+# # >+",
"              C.C.D.E.(+_+H.I.J.)+L.M.N.O.P.Q.R.S.T.U.V.W.X.Y.Z.`. +.+++:+#+$+%+~+*+=+-+;+# # >+",
"              <+[+}+|+1+2+3+4+5+6+7+8+9+0+a+b+c+d+e+f+g+h+i+j+k+l+m+n+o+p+q+r+s+t+u+v+w+x+>+>+y+"};
