/* XPM */
static char * panelCoverXY_xpm[] = {
"48 48 648 2",
"  	c None",
". 	c #000000",
"+ 	c #D8A2A2",
"@ 	c #EAA9A9",
"# 	c #F0BABA",
"$ 	c #FFBFBF",
"% 	c #FFB7B6",
"& 	c #FFAFAE",
"* 	c #EC9A9A",
"= 	c #E5BEBE",
"- 	c #FFCDCD",
"; 	c #FFC5C5",
"> 	c #FFBDBD",
", 	c #FFB5B4",
"' 	c #FFACAC",
") 	c #FFA4A4",
"! 	c #FB9A9A",
"~ 	c #E28383",
"{ 	c #DFC6C6",
"] 	c #F9D6D6",
"^ 	c #FFD3D3",
"/ 	c #FFCBCB",
"( 	c #FFC3C3",
"_ 	c #FFBBBB",
": 	c #FFB3B3",
"< 	c #FFAAAA",
"[ 	c #FFA2A2",
"} 	c #FF9A9A",
"| 	c #FF9292",
"1 	c #F68585",
"2 	c #D86E6E",
"3 	c #F3DEDE",
"4 	c #FFE2E2",
"5 	c #FFDAD9",
"6 	c #FFD1D1",
"7 	c #FFC9C9",
"8 	c #FFC1C1",
"9 	c #FFB9B9",
"0 	c #FFB1B1",
"a 	c #FFA8A8",
"b 	c #FFA0A0",
"c 	c #FF9898",
"d 	c #FF9090",
"e 	c #FF8888",
"f 	c #FF807F",
"g 	c #EF7070",
"h 	c #EEE7E6",
"i 	c #FFF0F0",
"j 	c #FFE8E8",
"k 	c #FFE0E0",
"l 	c #FFD7D7",
"m 	c #FFCFCF",
"n 	c #FFC7C7",
"o 	c #FFB7B7",
"p 	c #FFA6A6",
"q 	c #FF9E9E",
"r 	c #FF9696",
"s 	c #FF8E8E",
"t 	c #FF8686",
"u 	c #FF7E7E",
"v 	c #FF7575",
"w 	c #FF6D6D",
"x 	c #E65B5B",
"y 	c #BDBDBD",
"z 	c #F7F5F5",
"A 	c #FFF6F6",
"B 	c #FFEEEE",
"C 	c #FFE6E6",
"D 	c #FFDEDE",
"E 	c #FFD5D5",
"F 	c #FFB5B5",
"G 	c #FFADAD",
"H 	c #FFA4A5",
"I 	c #FF9C9C",
"J 	c #FF9494",
"K 	c #FF8C8C",
"L 	c #FF8484",
"M 	c #FF7C7C",
"N 	c #FF7373",
"O 	c #FF6B6B",
"P 	c #FF6363",
"Q 	c #FA5959",
"R 	c #E04949",
"S 	c #6E6EDB",
"T 	c #C3C0D2",
"U 	c #ECE1E2",
"V 	c #FDEAEA",
"W 	c #FFE4E4",
"X 	c #FFDCDC",
"Y 	c #FFD4D4",
"Z 	c #FFABAB",
"` 	c #FF8A8A",
" .	c #FF8282",
"..	c #FF7979",
"+.	c #FF7171",
"@.	c #FF6969",
"#.	c #FF6161",
"$.	c #FF5959",
"%.	c #FF5151",
"&.	c #F64646",
"*.	c #D53737",
"=.	c #0505ED",
"-.	c #0707E7",
";.	c #827AE7",
">.	c #D5C3D1",
",.	c #EDD2D2",
"'.	c #FFDADA",
").	c #FFA9A9",
"!.	c #FF8080",
"~.	c #FF7877",
"{.	c #FF6F6F",
"].	c #FF6767",
"^.	c #FF5F5F",
"/.	c #FF5757",
"(.	c #FF4F4F",
"_.	c #FF4647",
":.	c #FF3E3E",
"<.	c #EF3333",
"[.	c #0707ED",
"}.	c #0D0CE8",
"|.	c #0F0FFF",
"1.	c #1213F7",
"2.	c #A28DDC",
"3.	c #DFBCC1",
"4.	c #F4C6C6",
"5.	c #FFAFAF",
"6.	c #FFA7A7",
"7.	c #FF7676",
"8.	c #FF6565",
"9.	c #FF5D5D",
"0.	c #FF5555",
"a.	c #FF4D4D",
"b.	c #FF4544",
"c.	c #FF3C3C",
"d.	c #FF3434",
"e.	c #FF2C2C",
"f.	c #E52222",
"g.	c #1010ED",
"h.	c #1515E8",
"i.	c #1A1AFF",
"j.	c #2121FF",
"k.	c #2929FF",
"l.	c #4A41F0",
"m.	c #B895CA",
"n.	c #E7B3B3",
"o.	c #F9B8B8",
"p.	c #FFA5A5",
"q.	c #FF9C9D",
"r.	c #FF7374",
"s.	c #FF5B5B",
"t.	c #FF5353",
"u.	c #FF4B4B",
"v.	c #FF4342",
"w.	c #FF3A3A",
"x.	c #FF3232",
"y.	c #FF2A2A",
"z.	c #FF2222",
"A.	c #F91A1A",
"B.	c #DE1414",
"C.	c #1919ED",
"D.	c #1E1EE8",
"E.	c #2626FF",
"F.	c #2D2DFF",
"G.	c #3434FF",
"H.	c #3B3BFF",
"I.	c #4243FF",
"J.	c #7561E8",
"K.	c #C894B1",
"L.	c #EBA5A5",
"M.	c #FEAAAA",
"N.	c #FFA3A3",
"O.	c #FF7A7A",
"P.	c #FF7271",
"Q.	c #FF4949",
"R.	c #FF4040",
"S.	c #FF3838",
"T.	c #FF3030",
"U.	c #FF2828",
"V.	c #FF2020",
"W.	c #FF1818",
"X.	c #FF1010",
"Y.	c #F30A0A",
"Z.	c #2323ED",
"`.	c #2828E8",
" +	c #3131FF",
".+	c #3938FF",
"++	c #4040FF",
"@+	c #4747FF",
"#+	c #4E4EFF",
"$+	c #5555FF",
"%+	c #5C5CFE",
"&+	c #9D78D6",
"*+	c #D99098",
"=+	c #EF9696",
"-+	c #FF7878",
";+	c #FF706F",
">+	c #FF4747",
",+	c #FF3F3E",
"'+	c #FF3636",
")+	c #FF2E2E",
"!+	c #FF2626",
"~+	c #FF1E1E",
"{+	c #FF1616",
"]+	c #FF0E0E",
"^+	c #FF0505",
"/+	c #FF0000",
"(+	c #EC0505",
"_+	c #2D2DED",
":+	c #3232E8",
"<+	c #3D3DFF",
"[+	c #4444FF",
"}+	c #4B4BFF",
"|+	c #5352FF",
"1+	c #5A5AFF",
"2+	c #6161FF",
"3+	c #6868FF",
"4+	c #6F6FFF",
"5+	c #7875F9",
"6+	c #B075BD",
"7+	c #E28585",
"8+	c #F38787",
"9+	c #FF6E6E",
"0+	c #FF4545",
"a+	c #FF3C3D",
"b+	c #FF2424",
"c+	c #FF1C1C",
"d+	c #FF1414",
"e+	c #FF0B0C",
"f+	c #FF0303",
"g+	c #F20404",
"h+	c #E10807",
"i+	c #AA0D75",
"j+	c #020202",
"k+	c #3838ED",
"l+	c #3C3CE8",
"m+	c #4849FF",
"n+	c #5050FF",
"o+	c #5757FF",
"p+	c #5E5EFF",
"q+	c #6565FF",
"r+	c #6C6DFF",
"s+	c #7474FF",
"t+	c #7B7BFF",
"u+	c #8282FF",
"v+	c #5353F2",
"w+	c #4827ED",
"x+	c #C069A7",
"y+	c #EC7A7A",
"z+	c #F87978",
"A+	c #FF7474",
"B+	c #FF6C6B",
"C+	c #FF4343",
"D+	c #FF3B3B",
"E+	c #FF1A1A",
"F+	c #FF1212",
"G+	c #F80B0B",
"H+	c #EA0708",
"I+	c #BF0888",
"J+	c #4B09D2",
"K+	c #0A0AD7",
"L+	c #4242ED",
"M+	c #4747E8",
"N+	c #5454FF",
"O+	c #5B5BFF",
"P+	c #6262FF",
"Q+	c #6A6AFF",
"R+	c #7171FF",
"S+	c #7878FF",
"T+	c #7F7FFF",
"U+	c #8686FF",
"V+	c #8E8EFF",
"W+	c #5B5BF2",
"X+	c #0D0DFF",
"Y+	c #1414FF",
"Z+	c #773EDA",
"`+	c #CD628C",
" @	c #EB6969",
".@	c #FE6969",
"+@	c #FF4141",
"@@	c #FF3839",
"#@	c #FD1818",
"$@	c #EB1212",
"%@	c #CE0D6C",
"&@	c #7406D6",
"*@	c #0000FF",
"=@	c #0606E9",
"-@	c #020203",
";@	c #4D4DED",
">@	c #5151E8",
",@	c #6060FF",
"'@	c #6767FF",
")@	c #6E6EFF",
"!@	c #7575FF",
"~@	c #7D7DFF",
"{@	c #8484FF",
"]@	c #8B8BFF",
"^@	c #9292FF",
"/@	c #9999FF",
"(@	c #6363F2",
"_@	c #1919FF",
":@	c #2020FF",
"<@	c #2828FF",
"[@	c #2E2EFA",
"}@	c #9C4BC5",
"|@	c #DA596E",
"1@	c #F15A5A",
"2@	c #FF3F3F",
"3@	c #FF3737",
"4@	c #EE1D1D",
"5@	c #DD1744",
"6@	c #9712C0",
"7@	c #0C0CFB",
"8@	c #0809FF",
"9@	c #0606FF",
"0@	c #0809E9",
"a@	c #0B0CD7",
"b@	c #030303",
"c@	c #5858ED",
"d@	c #5B5CE8",
"e@	c #6B6BFF",
"f@	c #7273FF",
"g@	c #7A7AFF",
"h@	c #8181FF",
"i@	c #8888FF",
"j@	c #8F8FFF",
"k@	c #9796FF",
"l@	c #9E9EFF",
"m@	c #A5A5FF",
"n@	c #6C6CF2",
"o@	c #2525FF",
"p@	c #5A49F0",
"q@	c #B450AE",
"r@	c #E64D4C",
"s@	c #F64A4A",
"t@	c #FF3D3D",
"u@	c #FF3435",
"v@	c #F22B2B",
"w@	c #E62222",
"x@	c #B31DA7",
"y@	c #321AF3",
"z@	c #1717FF",
"A@	c #1112FF",
"B@	c #0F0FE9",
"C@	c #1010D7",
"D@	c #6262ED",
"E@	c #6666E8",
"F@	c #7777FF",
"G@	c #7E7EFF",
"H@	c #8585FF",
"I@	c #8D8DFF",
"J@	c #9494FF",
"K@	c #9B9BFF",
"L@	c #A2A2FF",
"M@	c #A9A9FF",
"N@	c #B1B1FF",
"O@	c #7575F2",
"P@	c #3232FF",
"Q@	c #3939FF",
"R@	c #4848FF",
"S@	c #4F4FFF",
"T@	c #5656FF",
"U@	c #5D5DFF",
"V@	c #785EE6",
"W@	c #C74A81",
"X@	c #EB3E3E",
"Y@	c #F33838",
"Z@	c #EC2F2F",
"`@	c #C42883",
" #	c #5927E7",
".#	c #2323FF",
"+#	c #1D1DFF",
"@#	c #1817FF",
"##	c #1616E9",
"$#	c #1515D7",
"%#	c #6D6DED",
"&#	c #7170E8",
"*#	c #8283FF",
"=#	c #8A8AFF",
"-#	c #9191FF",
";#	c #9898FF",
">#	c #9F9FFF",
",#	c #A7A7FF",
"'#	c #AEAEFF",
")#	c #B5B5FF",
"!#	c #BCBCFF",
"~#	c #7E7EF2",
"{#	c #3E3EFF",
"]#	c #4545FF",
"^#	c #4D4DFF",
"/#	c #6362FF",
"(#	c #7979FF",
"_#	c #9B67CA",
":#	c #B7317B",
"<#	c #8133D2",
"[#	c #3435FF",
"}#	c #3231FF",
"|#	c #2F2FFF",
"1#	c #2C2CFF",
"2#	c #1D1DE9",
"3#	c #1B1BD7",
"4#	c #7878ED",
"5#	c #7B7BE8",
"6#	c #9595FF",
"7#	c #9D9DFF",
"8#	c #A4A4FF",
"9#	c #ABABFF",
"0#	c #B2B2FF",
"a#	c #B9B9FF",
"b#	c #C0C0FF",
"c#	c #C8C8FF",
"d#	c #8888F2",
"e#	c #4B4AFF",
"f#	c #5252FF",
"g#	c #5959FF",
"h#	c #7676FF",
"i#	c #7F80EE",
"j#	c #3D3DE5",
"k#	c #3838FF",
"l#	c #3535FF",
"m#	c #2525E9",
"n#	c #2121D7",
"o#	c #8383ED",
"p#	c #8586E8",
"q#	c #9A9AFF",
"r#	c #A1A1FF",
"s#	c #A8A8FF",
"t#	c #AFAFFF",
"u#	c #B6B7FF",
"v#	c #BEBEFF",
"w#	c #C5C5FF",
"x#	c #CCCCFF",
"y#	c #D3D3FF",
"z#	c #9292F2",
"A#	c #6D6DFF",
"B#	c #8383FF",
"C#	c #8B8BEE",
"D#	c #4445E5",
"E#	c #4949FF",
"F#	c #4646FF",
"G#	c #4343FF",
"H#	c #4141FF",
"I#	c #2C2CE9",
"J#	c #2828D7",
"K#	c #8D8DED",
"L#	c #9090E8",
"M#	c #ACACFF",
"N#	c #B4B4FF",
"O#	c #BBBBFF",
"P#	c #C2C2FF",
"Q#	c #C9C9FF",
"R#	c #D1D1FF",
"S#	c #D8D8FF",
"T#	c #DFDFFF",
"U#	c #9C9CF2",
"V#	c #6363FF",
"W#	c #7272FF",
"X#	c #8180FF",
"Y#	c #9696FF",
"Z#	c #9E9DFF",
"`#	c #9696EE",
" $	c #4C4CE5",
".$	c #4C4CFF",
"+$	c #4746FF",
"@$	c #3434E9",
"#$	c #2F2FD7",
"$$	c #9898ED",
"%$	c #9B9BE8",
"&$	c #B8B8FF",
"*$	c #BFBFFF",
"=$	c #C7C6FF",
"-$	c #CECEFF",
";$	c #D5D5FF",
">$	c #DCDCFF",
",$	c #E3E3FF",
"'$	c #EBEAFF",
")$	c #A6A6F2",
"!$	c #7070FF",
"~$	c #8685FF",
"{$	c #A3A3FF",
"]$	c #AAAAFF",
"^$	c #A2A2EE",
"/$	c #5454E5",
"($	c #5858FF",
"_$	c #4A4AFF",
":$	c #3C3CE9",
"<$	c #3636D7",
"[$	c #020204",
"}$	c #A3A3ED",
"|$	c #A5A5E8",
"1$	c #C4C4FF",
"2$	c #CBCBFF",
"3$	c #D2D2FF",
"4$	c #D9D9FF",
"5$	c #E1E1FF",
"6$	c #E8E8FF",
"7$	c #EFEFFF",
"8$	c #F6F6FF",
"9$	c #B1B1F2",
"0$	c #7C7CFF",
"a$	c #A0A1FF",
"b$	c #B6B6FF",
"c$	c #ADADEE",
"d$	c #5C5CE5",
"e$	c #6464FF",
"f$	c #5556FF",
"g$	c #5353FF",
"h$	c #4444E9",
"i$	c #3D3DD7",
"j$	c #010103",
"k$	c #AEAEED",
"l$	c #B0B0E8",
"m$	c #CFCFFF",
"n$	c #D7D6FF",
"o$	c #DEDEFF",
"p$	c #E5E5FF",
"q$	c #ECECFF",
"r$	c #F3F3FF",
"s$	c #FAFAFF",
"t$	c #F7F7F7",
"u$	c #A0A0D9",
"v$	c #8585F8",
"w$	c #9090FF",
"x$	c #9797FF",
"y$	c #A6A6FF",
"z$	c #ADADFF",
"A$	c #C3C3FF",
"B$	c #B9B9EE",
"C$	c #6464E5",
"D$	c #5C5CFF",
"E$	c #4C4CE9",
"F$	c #4444D7",
"G$	c #B9B9ED",
"H$	c #BABAE8",
"I$	c #D4D4FF",
"J$	c #DBDBFF",
"K$	c #E2E2FF",
"L$	c #E9E9FF",
"M$	c #F1F1FF",
"N$	c #F8F8FF",
"O$	c #FDFDFE",
"P$	c #E3E3E3",
"Q$	c #8A8AE4",
"R$	c #A3A3FE",
"S$	c #C1C1FF",
"T$	c #C4C4EE",
"U$	c #6C6CE5",
"V$	c #7373FF",
"W$	c #5F5FFF",
"X$	c #5454E9",
"Y$	c #4C4CD7",
"Z$	c #C3C3ED",
"`$	c #C5C5E8",
" %	c #E0DFFF",
".%	c #E7E7FF",
"+%	c #EEEEFF",
"@%	c #F5F5FF",
"#%	c #FCFCFF",
"$%	c #ECECEC",
"%%	c #AAAAEE",
"&%	c #BFBEFF",
"*%	c #C6C6FF",
"=%	c #CDCDFF",
"-%	c #DBDCFF",
";%	c #D0CFEE",
">%	c #7474E5",
",%	c #7F7EFF",
"'%	c #5C5CE9",
")%	c #5353D7",
"!%	c #CECEED",
"~%	c #CFCFE8",
"{%	c #EBEBFF",
"]%	c #F2F2FF",
"^%	c #F9F9FF",
"/%	c #F0F0F1",
"(%	c #C9C9F4",
"_%	c #DAD9FF",
":%	c #DBDBEE",
"<%	c #7C7CE5",
"[%	c #8787FF",
"}%	c #6564E9",
"|%	c #5B5BD7",
"1%	c #D9D9ED",
"2%	c #DADAE8",
"3%	c #F7F7FF",
"4%	c #F5F5F7",
"5%	c #DEDEDE",
"6%	c #C8C8E0",
"7%	c #E8E8FA",
"8%	c #F5F4FF",
"9%	c #E6E6EE",
"0%	c #8484E5",
"a%	c #6D6DE9",
"b%	c #6262D7",
"c%	c #E4E4ED",
"d%	c #E4E4E7",
"e%	c #E3E3E4",
"f%	c #E4E4E5",
"g%	c #EAEAEE",
"h%	c #8C8CE5",
"i%	c #9394FF",
"j%	c #7575E9",
"k%	c #6969D7",
"l%	c #9494E5",
"m%	c #9D9CFF",
"n%	c #7D7DE9",
"o%	c #7171D7",
"p%	c #9C9CE5",
"q%	c #A2A3FF",
"r%	c #A0A0FF",
"s%	c #8585E9",
"t%	c #7878D7",
"u%	c #A4A4E5",
"v%	c #A8A9FF",
"w%	c #8D8DE9",
"x%	c #8080D7",
"y%	c #ACACE5",
"z%	c #BDBDFF",
"A%	c #BABAFF",
"B%	c #B7B7FF",
"C%	c #B1B2FF",
"D%	c #9595E9",
"E%	c #8787D7",
"F%	c #B4B4E5",
"G%	c #B8B7FF",
"H%	c #9D9DE9",
"I%	c #8F8FD7",
"J%	c #BCBCE5",
"K%	c #A6A6E9",
"L%	c #9696D7",
"M%	c #C4C4E5",
"N%	c #ABABE5",
"O%	c #CCCCE5",
"P%	c #CBCCFE",
"Q%	c #B3B3E4",
"R%	c #D4D4E5",
"S%	c #E4E4FF",
"T%	c #C9C9ED",
"U%	c #DCDCE5",
"V%	c #EFF0FF",
"W%	c #ECEDFF",
"X%	c #EAEAFF",
"Y%	c #DDDDF4",
"Z%	c #FBFBFF",
"`%	c #F1F1FA",
" &	c #D1D1DE",
".&	c #E5E5E5",
"+&	c #FFFFFF",
"@&	c #CBCBCB",
"                                                                                                ",
"                                                                            . .                 ",
"                                                                          . . . .               ",
"                                                                        . . . . . .             ",
"                    + @                                               . . . . . . . .           ",
"                  # $ % & *                                         . . . . . . . . . .         ",
"              = - ; > , ' ) ! ~                                   . . . . . . . . . . . .       ",
"          { ] ^ / ( _ : < [ } | 1 2                             . . . . . . . . . . . . . .     ",
"        3 4 5 6 7 8 9 0 a b c d e f g                         . . . . . . . . . . . . . . . .   ",
"    h i j k l m n $ o & p q r s t u v w x                   . . . . . . . . . . . . . . . . . . ",
"y z A B C D E - ; > F G H I J K L M N O P Q R                           . . . . .               ",
"S T U V W X Y / ( _ : Z [ } | `  ...+.@.#.$.%.&.*.                      . . . . .               ",
"=.-.;.>.,.'.6 7 8 9 0 ).b c d e !.~.{.].^./.(._.:.<.                    . . . . .               ",
"[.}.|.1.2.3.4.n $ o 5.6.q r s t u 7.w 8.9.0.a.b.c.d.e.f.                . . . . .               ",
"g.h.i.j.k.l.m.n.o.F G p.q.J K L M r.O P s.t.u.v.w.x.y.z.A.B.            . . . . .               ",
"C.D.E.F.G.H.I.J.K.L.M.N.} | `  .O.P.@.#.$.%.Q.R.S.T.U.V.W.X.Y.          . . . . .               ",
"Z.`. +.+++@+#+$+%+&+*+=+c d e !.-+;+].^./.(.>+,+'+)+!+~+{+]+^+/+(+      . . . . .               ",
"_+:+<+[+}+|+1+2+3+4+5+6+7+8+t u 7.9+8.9.0.a.0+a+d.e.b+c+d+e+f+g+h+i+    j+. . . .               ",
"k+l+m+n+o+p+q+r+s+t+u+v+w+x+y+z+A+B+P s.t.u.C+D+x.y.z.E+F+G+H+I+J+K+    j+. . . .               ",
"L+M+N+O+P+Q+R+S+T+U+V+W+X+Y+Z+`+ @.@#.$.%.Q.+@@@T.U.V.#@$@%@&@*@=@K+    -@. . . .               ",
";@>@,@'@)@!@~@{@]@^@/@(@_@:@<@[@}@|@1@/.(.>+2@3@)+!+4@5@6@7@8@9@0@a@    b@. . . .               ",
"c@d@e@f@g@h@i@j@k@l@m@n@o@F.G.H.I.p@q@r@s@0+t@u@v@w@x@y@z@Y+A@|.B@C@    -@. . . .               ",
"D@E@F@G@H@I@J@K@L@M@N@O@P@Q@++R@S@T@U@V@W@X@Y@Z@`@ #E..#:@+#i.@###$#    -@. . . .               ",
"%#&#*#=#-#;#>#,#'#)#!#~#{#]#^#N+O+/#Q+R+(#_#:#<#[#}#|#1#k.E..#:@2#3#    -@. . . .               ",
"4#5#V+6#7#8#9#0#a#b#c#d#e#f#g#,@3+4+h#G@H@i#j#++<+H.k#l#P@|#1#k.m#n#    -@. . . .               ",
"o#p#q#r#s#t#u#v#w#x#y#z#o+p+q+A#s+t+B#=#-#C#D#E#F#G#H#{#H.k#l#P@I#J#    -@. . . .               ",
"K#L#m@M#N#O#P#Q#R#S#T#U#V#e@W#(#X#i@j@Y#Z#`# $f#S@.$E#+$[+H#{#H.@$#$    -@. . . .               ",
"$$%$N@&$*$=$-$;$>$,$'$)$!$F@G@~$I@J@K@{$]$^$/$O+($$+f#S@^#_$@+[+:$<$    [$. . . .               ",
"}$|$!#1$2$3$4$5$6$7$8$9$0$B#]@^@/@a$s#t#b$c$d$e$2+p+O+($f$g$n+^#h$i$    j$. . . .               ",
"k$l$c#m$n$o$p$q$r$s$t$u$v$w$x$l@y$z$N#!#A$B$C$A#Q+'@e$2+p+D$g#T@E$F$                            ",
"G$H$I$J$K$L$M$N$O$P$      Q$R$9#0#a#S$c#m$T$U$h#V$!$A#Q+'@q+P+W$X$Y$                            ",
"Z$`$ %.%+%@%#%$%              %%&%*%=%I$-%;%>%,%0$(#h#V$!$A#e@3+'%)%                            ",
"!%~%{%]%^%/%                      (%_%5$6$:%<%[%H@u+T+0$(#h#V$R+}%|%                            ",
"1%2%3%4%5%                          6%7%8%9%0%w$V+]@i@H@u+T+0$g@a%b%                            ",
"c%d%e%                                  f%g%h%/@Y#i%-#V+]@i@H@u+j%k%                            ",
"                                            l%L@>#m%q#x$J@-#V+]@n%o%                            ",
"                                            p%9#s#m@q%r%7#q#x$J@s%t%                            ",
"                                            u%N#N@'#9#v%y${$r%7#w%x%                            ",
"                                            y%z%A%B%N#C%t#M#M@y$D%E%                            ",
"                                            F%*%A$b#z%A%G%)#0#t#H%I%                            ",
"                                            J%m$x#Q#*%A$b#v#O#&$K%L%                            ",
"                                            M%S#;$3$m$x#Q#=$1$S$N%                              ",
"                                            O%5$o$J$S#;$3$m$P%Q%                                ",
"                                            R%L$.%S%5$o$J$T%                                    ",
"                                            U%]%V%W%X%Y%                                        ",
"                                            f%Z%N$`% &                                          ",
"                                            .&+&.&                                              ",
"                                            @&                                                  "};
