/* XPM */
static char * panelResize2_xpm[] = {
"48 48 386 2",
"  	c None",
". 	c #00FF00",
"+ 	c #DADADB",
"@ 	c #DEDEDE",
"# 	c #9E9ECF",
"$ 	c #CECEF2",
"% 	c #EAEAFF",
"& 	c #F7F7FF",
"* 	c #F5F5F6",
"= 	c #D3D3D3",
"- 	c #8C8CEA",
"; 	c #ABABFF",
"> 	c #BABAFF",
", 	c #CACAFF",
"' 	c #DADAFF",
") 	c #E9E9FF",
"! 	c #EDEDEE",
"~ 	c #4D4DE0",
"{ 	c #6B6BFF",
"] 	c #7B7BFF",
"^ 	c #8B8BFF",
"/ 	c #9B9BFF",
"( 	c #AAAAFF",
"_ 	c #D9DAFF",
": 	c #E8E8FD",
"< 	c #E1DFE2",
"[ 	c #CDCDCD",
"} 	c #1717D7",
"| 	c #2B2CF8",
"1 	c #3D3DFF",
"2 	c #4C4CFF",
"3 	c #5C5CFF",
"4 	c #9A9AFF",
"5 	c #B5B5E7",
"6 	c #D7DFDD",
"7 	c #F7FFF7",
"8 	c #F9FFF9",
"9 	c #EDF2ED",
"0 	c #0404EF",
"a 	c #0303FF",
"b 	c #0E0EFF",
"c 	c #1E1EFF",
"d 	c #2D2DFF",
"e 	c #3C3CFF",
"f 	c #5B5BFF",
"g 	c #7A7CF0",
"h 	c #B4C8D1",
"i 	c #DFFADF",
"j 	c #E6FFE6",
"k 	c #E8FFE8",
"l 	c #EAFFEA",
"m 	c #ECFFEC",
"n 	c #EEFFEE",
"o 	c #D8E8D8",
"p 	c #0707E4",
"q 	c #0000FF",
"r 	c #1D1DFF",
"s 	c #3B3BF9",
"t 	c #86A1D2",
"u 	c #C5F0C7",
"v 	c #D2FFD2",
"w 	c #D4FFD4",
"x 	c #D6FFD6",
"y 	c #D8FFD8",
"z 	c #DAFFDA",
"A 	c #DCFFDC",
"B 	c #DEFFDE",
"C 	c #E1FFE1",
"D 	c #DFFBDF",
"E 	c #C4DEC4",
"F 	c #0909DD",
"G 	c #0101FB",
"H 	c #5573DA",
"I 	c #A6E0B4",
"J 	c #BEFFBE",
"K 	c #C0FFC0",
"L 	c #C3FFC3",
"M 	c #C5FFC5",
"N 	c #C7FFC7",
"O 	c #C9FFC9",
"P 	c #CBFFCB",
"Q 	c #CDFFCD",
"R 	c #CFFFCF",
"S 	c #D1FFD1",
"T 	c #D3FFD3",
"U 	c #D5FFD5",
"V 	c #CEF5CE",
"W 	c #AFD2AF",
"X 	c #0B0BD3",
"Y 	c #0303F5",
"Z 	c #3047E9",
"` 	c #85C9AC",
" .	c #AAFEAA",
"..	c #ADFFAD",
"+.	c #AFFFAF",
"@.	c #B1FFB1",
"#.	c #B3FFB3",
"$.	c #B5FFB5",
"%.	c #B7FFB7",
"&.	c #B9FFB9",
"*.	c #BBFFBB",
"=.	c #BDFFBD",
"-.	c #BFFFBF",
";.	c #C1FFC1",
">.	c #C8FFC8",
",.	c #CAFFCA",
"'.	c #BDEEBD",
").	c #0F0FBC",
"!.	c #0202F9",
"~.	c #101CF4",
"{.	c #66ADB6",
"].	c #92F892",
"^.	c #99FF99",
"/.	c #9BFF9B",
"(.	c #9DFF9D",
"_.	c #9FFF9F",
":.	c #A1FFA1",
"<.	c #A3FFA3",
"[.	c #A5FFA5",
"}.	c #A7FFA7",
"|.	c #AAFFAA",
"1.	c #ACFFAC",
"2.	c #AEFFAE",
"3.	c #B0FFB0",
"4.	c #B2FFB2",
"5.	c #B4FFB4",
"6.	c #B6FFB6",
"7.	c #B8FFB8",
"8.	c #BAFFBA",
"9.	c #BCFFBC",
"0.	c #A8E3A8",
"a.	c #0909DB",
"b.	c #0707E6",
"c.	c #0101FC",
"d.	c #4889C8",
"e.	c #7AEA84",
"f.	c #85FF85",
"g.	c #88FF88",
"h.	c #8AFF8A",
"i.	c #8CFF8C",
"j.	c #8EFF8E",
"k.	c #90FF90",
"l.	c #92FF92",
"m.	c #94FF94",
"n.	c #96FF96",
"o.	c #98FF98",
"p.	c #9AFF9A",
"q.	c #9CFF9C",
"r.	c #9EFF9E",
"s.	c #A0FFA0",
"t.	c #A2FFA2",
"u.	c #A4FFA4",
"v.	c #A7FFA6",
"w.	c #A8FFA9",
"x.	c #ABFFAB",
"y.	c #ADF8AD",
"z.	c #97DA97",
"A.	c #0505EC",
"B.	c #0808DF",
"C.	c #2C60DC",
"D.	c #62D583",
"E.	c #72FF72",
"F.	c #74FF74",
"G.	c #76FF76",
"H.	c #78FF78",
"I.	c #7AFF7A",
"J.	c #7CFF7C",
"K.	c #7EFF7E",
"L.	c #80FF80",
"M.	c #82FF82",
"N.	c #84FF84",
"O.	c #86FF86",
"P.	c #8BFF8B",
"Q.	c #8DFF8D",
"R.	c #8FFF8F",
"S.	c #91FF91",
"T.	c #93FF93",
"U.	c #95FF95",
"V.	c #97FF97",
"W.	c #9DF19D",
"X.	c #0A0ADA",
"Y.	c #0505EB",
"Z.	c #348FA1",
"`.	c #5BF55B",
" +	c #60FF60",
".+	c #62FF62",
"++	c #64FF64",
"@+	c #66FF66",
"#+	c #68FF68",
"$+	c #6AFF6A",
"%+	c #6DFF6D",
"&+	c #6FFF6F",
"*+	c #71FF71",
"=+	c #73FF73",
"-+	c #75FF75",
";+	c #77FF77",
">+	c #79FF79",
",+	c #7BFF7B",
"'+	c #7DFF7D",
")+	c #7FFF7F",
"!+	c #81FF81",
"~+	c #83FF83",
"{+	c #87FF87",
"]+	c #89FF89",
"^+	c #8DEA8D",
"/+	c #3ABB70",
"(+	c #48EC48",
"_+	c #4AE94A",
":+	c #53FF53",
"<+	c #55FF55",
"[+	c #57FF57",
"}+	c #59FF59",
"|+	c #5BFF5B",
"1+	c #5DFF5D",
"2+	c #5FFF5F",
"3+	c #61FF61",
"4+	c #63FF63",
"5+	c #65FF65",
"6+	c #67FF67",
"7+	c #69FF69",
"8+	c #6BFF6C",
"9+	c #70FF70",
"0+	c #8DFD8D",
"a+	c #7BDF7B",
"b+	c #3EE93D",
"c+	c #3DE93D",
"d+	c #42EF42",
"e+	c #47FF47",
"f+	c #49FF49",
"g+	c #4BFF4C",
"h+	c #4EFF4E",
"i+	c #50FF50",
"j+	c #52FF52",
"k+	c #54FF54",
"l+	c #56FF56",
"m+	c #58FF58",
"n+	c #5AFF5A",
"o+	c #5CFF5C",
"p+	c #5EFF5E",
"q+	c #6CFF6C",
"r+	c #6EFF6E",
"s+	c #71FF70",
"t+	c #7DF57D",
"u+	c #6BD56B",
"v+	c #33EB33",
"w+	c #33E833",
"x+	c #39F638",
"y+	c #3CFF3C",
"z+	c #3EFF3E",
"A+	c #40FF40",
"B+	c #42FF42",
"C+	c #44FF44",
"D+	c #46FF46",
"E+	c #48FF48",
"F+	c #4AFF4A",
"G+	c #4CFF4C",
"H+	c #50FF51",
"I+	c #6BFF6B",
"J+	c #6FEF6F",
"K+	c #27DB27",
"L+	c #28EB28",
"M+	c #2AE82A",
"N+	c #2EFC2E",
"O+	c #31FF31",
"P+	c #33FF33",
"Q+	c #35FF35",
"R+	c #37FF37",
"S+	c #39FF39",
"T+	c #3BFF3B",
"U+	c #3DFF3D",
"V+	c #3FFF3F",
"W+	c #41FF41",
"X+	c #43FF43",
"Y+	c #45FF45",
"Z+	c #4BFF4B",
"`+	c #4DFF4D",
" @	c #51FF52",
".@	c #5FE55F",
"+@	c #1EE31E",
"@@	c #1EEB1D",
"#@	c #20EB20",
"$@	c #23FF23",
"%@	c #25FF25",
"&@	c #27FF27",
"*@	c #29FF29",
"=@	c #2BFF2B",
"-@	c #2EFF2D",
";@	c #30FF30",
">@	c #32FF32",
",@	c #34FF34",
"'@	c #36FF36",
")@	c #38FF38",
"!@	c #3AFF3A",
"~@	c #5DFA5D",
"{@	c #50DB4F",
"]@	c #14EA14",
"^@	c #14E814",
"/@	c #17F217",
"(@	c #18FF18",
"_@	c #1AFF1A",
":@	c #1CFF1C",
"<@	c #1EFF1E",
"[@	c #20FF20",
"}@	c #22FF22",
"|@	c #24FF24",
"1@	c #26FF26",
"2@	c #28FF28",
"3@	c #2AFF2A",
"4@	c #2CFF2C",
"5@	c #2EFF2E",
"6@	c #4FFF4F",
"7@	c #52FF51",
"8@	c #4EF14E",
"9@	c #10D410",
"0@	c #0AED0A",
"a@	c #0DE80D",
"b@	c #0CF80C",
"c@	c #0CFF0C",
"d@	c #0FFF0F",
"e@	c #11FF11",
"f@	c #13FF13",
"g@	c #15FF15",
"h@	c #17FF17",
"i@	c #19FF19",
"j@	c #1BFF1B",
"k@	c #1DFF1D",
"l@	c #1FFF1F",
"m@	c #21FF21",
"n@	c #2DFF2D",
"o@	c #2FFF2F",
"p@	c #3EEE3E",
"q@	c #3EEA3E",
"r@	c #3ACE3A",
"s@	c #08DF08",
"t@	c #05EC05",
"u@	c #07E807",
"v@	c #02FE02",
"w@	c #02FF02",
"x@	c #04FF04",
"y@	c #05FF05",
"z@	c #07FF07",
"A@	c #09FF09",
"B@	c #0BFF0B",
"C@	c #0EFF0E",
"D@	c #10FF10",
"E@	c #12FF12",
"F@	c #14FF14",
"G@	c #16FF16",
"H@	c #2DF42D",
"I@	c #2CE82C",
"J@	c #2FEA2F",
"K@	c #07E607",
"L@	c #06EA06",
"M@	c #05EE05",
"N@	c #01FF01",
"O@	c #03FF03",
"P@	c #06FF06",
"Q@	c #08FF08",
"R@	c #0AFF0A",
"S@	c #14FF15",
"T@	c #18FF19",
"U@	c #1BFA1B",
"V@	c #1CE81C",
"W@	c #1EEC1E",
"X@	c #21D921",
"Y@	c #05EB05",
"Z@	c #06E806",
"`@	c #03F403",
" #	c #0DEA0D",
".#	c #0DED0D",
"+#	c #12E112",
"@#	c #0AD90A",
"##	c #05ED05",
"$#	c #01FA01",
"%#	c #04F004",
"&#	c #08E208",
"*#	c #02F702",
"=#	c #06E906",
"-#	c #06EB06",
";#	c #0CD20C",
">#	c #01FD01",
",#	c #09DD09",
"'#	c #0BD30B",
")#	c #07E507",
"!#	c #0DC90D",
"~#	c #0AD70A",
"                                                                                                ",
"                                                                                                ",
"                                                                                                ",
"                                                                                                ",
"                                                                                                ",
"                                                                                                ",
"                                        . . . . . . . . . . . . . . . . . . . . . . .           ",
"                                        . . . . . . . . . . . . . . . . . . . . . . .           ",
"                                        . . . . . . . . . . . . . . . . . . . . . . .           ",
"                                                                                                ",
"                                                                                                ",
"                                                                                                ",
"                                                                                                ",
"                                                                                                ",
"                                                                                                ",
"                                                                                                ",
"                                                                                                ",
"                                                                                                ",
"                              + @                                                               ",
"                          # $ % & * =                                                           ",
"                        - ; > , ' ) & !                                                         ",
"                    ~ { ] ^ / ( > , _ : < [                                                     ",
"                } | 1 2 3 { ] ^ 4 ( 5 6 7 8 9                                                   ",
"              0 a b c d e 2 f { g h i j k l m n o                                               ",
"          p q q q q a b r d s t u v w x y z A B C D E                                           ",
"      F G q q q q q q q a H I J K L M N O P Q R S T U V W                                       ",
"  X Y q q q q q q q q Z `  ...+.@.#.$.%.&.*.=.-.;.L M >.,.'.                                    ",
").!.q q q q q q q ~.{.].^./.(._.:.<.[.}.|.1.2.3.4.5.6.7.8.9.J 0.                                ",
"a.b.p q q q q c.d.e.f.g.h.i.j.k.l.m.n.o.p.q.r.s.t.u.v.w.x...+.@.y.z.                            ",
"    A.B.A.q C.D.E.F.G.H.I.J.K.L.M.N.O.g.P.Q.R.S.T.U.V.^./.(._.:.<.[.W.                          ",
"      X.Y.Z.`. +.+++@+#+$+%+&+*+=+-+;+>+,+'+)+!+~+f.{+]+P.j.k.l.m.n.o.p.^+                      ",
"          /+(+_+:+<+[+}+|+1+2+3+4+5+6+7+8+%+9+E.F.G.H.I.J.K.L.M.N.O.g.h.i.0+a+                  ",
"              b+c+d+e+f+g+h+i+j+k+l+m+n+o+p+ +.+++@+#+$+q+r+s+=+-+;+>+,+'+)+!+t+u+              ",
"                  v+w+x+y+z+A+B+C+D+E+F+G+h+H+:+<+[+}+|+1+2+3+4+5+6+7+I+%+&+E.F.G.J+            ",
"                    K+L+M+N+O+P+Q+R+S+T+U+V+W+X+Y+e+f+Z+`+i+ @k+l+m+n+o+p+ +.+++@+#+$+.@        ",
"                        +@@@#@$@%@&@*@=@-@;@>@,@'@)@!@y+z+A+B+C+D+E+F+G+h+i+j+<+[+}+|+1+~@{@    ",
"                            ]@^@/@(@_@:@<@[@}@|@1@2@3@4@5@;@>@Q+R+S+T+U+V+W+X+Y+e+f+Z+`+6@7@8@  ",
"                              9@0@a@b@c@d@e@f@g@h@i@j@k@l@m@$@%@&@*@=@n@o@O+,@'@)@!@y+z+A+p@q@r@",
"                                  s@t@u@v@w@x@y@z@A@B@C@D@E@F@G@(@_@:@<@[@}@|@1@2@3@4@H@I@J@    ",
"                                      K@L@M@. . . . . N@w@O@x@P@Q@R@c@C@D@f@S@h@T@U@V@W@X@      ",
"                                          Y@Z@`@. . . . . . . . . . N@N@w@O@y@z@ #.#+#          ",
"                                            @###Z@$#. . . . . . . . . . . . %#Z@L@              ",
"                                                &###L@. . . . . . . . . *#=#-#;#                ",
"                                                    =#Z@%#. . . . . >#Z@t@,#                    ",
"                                                      '#t@Z@*#. . t@Y@K@                        ",
"                                                          ,#M@)#Z@##                            ",
"                                                              !#~#                              ",
"                                                                                                "};
