/* XPM */
static char * panelXZFace_xpm[] = {
"48 48 549 2",
"  	c None",
". 	c #FFFFFF",
"+ 	c #FFFBFB",
"@ 	c #FFFDFD",
"# 	c #FFF6F7",
"$ 	c #FFF3F2",
"% 	c #FFF9F9",
"& 	c #FFF5F5",
"* 	c #FFF1F1",
"= 	c #FFECED",
"- 	c #FFEEEE",
"; 	c #FFE8E8",
"> 	c #FFE4E4",
", 	c #FFF3F3",
"' 	c #FFEFEF",
") 	c #FFEBEB",
"! 	c #FFE6E6",
"~ 	c #FFE2E2",
"{ 	c #FFDDDE",
"] 	c #FFFDFC",
"^ 	c #FFF8F9",
"/ 	c #FFF0F1",
"( 	c #FFEDEC",
"_ 	c #FFE0E0",
": 	c #FFDAD9",
"< 	c #FFD5D5",
"[ 	c #FFF7F6",
"} 	c #FFF2F3",
"| 	c #FFEAEA",
"1 	c #FFDCDC",
"2 	c #FFD8D8",
"3 	c #FFD3D4",
"4 	c #FFCFCF",
"5 	c #FFEEEF",
"6 	c #FFDEDE",
"7 	c #FFD9DA",
"8 	c #FFD2D1",
"9 	c #FFCBCB",
"0 	c #FFC7C7",
"a 	c #FFECEC",
"b 	c #FFDFE0",
"c 	c #FFD6D6",
"d 	c #FFD1D1",
"e 	c #FFCDCD",
"f 	c #FFC9C9",
"g 	c #FFC5C5",
"h 	c #FFC0C0",
"i 	c #FFFAFB",
"j 	c #FFDCDB",
"k 	c #FFD7D8",
"l 	c #FFD3D3",
"m 	c #FFC7C8",
"n 	c #FFC3C3",
"o 	c #FFBDBC",
"p 	c #FFB8B9",
"q 	c #FFEFEE",
"r 	c #FFE1E2",
"s 	c #FFDADA",
"t 	c #FFBFBE",
"u 	c #FFBBBB",
"v 	c #FFB6B7",
"w 	c #FFB2B2",
"x 	c #FFF1F0",
"y 	c #FFDBDC",
"z 	c #FFCECD",
"A 	c #FFCAC9",
"B 	c #FFC1C0",
"C 	c #FFBDBD",
"D 	c #FFB9B9",
"E 	c #FFB4B4",
"F 	c #FFAEAE",
"G 	c #FFAAAA",
"H 	c #FFD8D7",
"I 	c #FFD4D4",
"J 	c #FFBCBD",
"K 	c #FFB8B8",
"L 	c #FFB5B4",
"M 	c #FFB0B0",
"N 	c #FFADAC",
"O 	c #FFA8A8",
"P 	c #FFA4A3",
"Q 	c #FFD5D6",
"R 	c #FFBFBF",
"S 	c #FFBBBA",
"T 	c #FFB3B3",
"U 	c #FFAEAF",
"V 	c #FFA6A6",
"W 	c #FFA0A0",
"X 	c #FF9B9B",
"Y 	c #FFD6D5",
"Z 	c #FFCECE",
"` 	c #FFC1C1",
" .	c #FFBCBC",
"..	c #FFB4B5",
"+.	c #FFA2A2",
"@.	c #FF9E9E",
"#.	c #FF9A9A",
"$.	c #FF9695",
"%.	c #FFD0CF",
"&.	c #FFC8C7",
"*.	c #FFACAC",
"=.	c #FFA4A4",
"-.	c #FF9C9C",
";.	c #FF9798",
">.	c #FF9191",
",.	c #FF8D8C",
"'.	c #A4A4FF",
").	c #9D9CFF",
"!.	c #FFB7B6",
"~.	c #FFA09F",
"{.	c #FF9797",
"].	c #FF9393",
"^.	c #FF8F8F",
"/.	c #FF8B8A",
"(.	c #FF8687",
"_.	c #B1B1FF",
":.	c #AAABFF",
"<.	c #A2A3FF",
"[.	c #9A9BFF",
"}.	c #9393FF",
"|.	c #FFB9B8",
"1.	c #FFA1A2",
"2.	c #FF9999",
"3.	c #FF9595",
"4.	c #FF8787",
"5.	c #FF8383",
"6.	c #FF7E7E",
"7.	c #BFBFFF",
"8.	c #B7B7FF",
"9.	c #AEAFFF",
"0.	c #A6A7FF",
"a.	c #A1A0FF",
"b.	c #9898FF",
"c.	c #9191FF",
"d.	c #8989FF",
"e.	c #8181FF",
"f.	c #FFACAD",
"g.	c #FF9FA0",
"h.	c #FF9C9B",
"i.	c #FF8D8D",
"j.	c #FF8989",
"k.	c #FF8484",
"l.	c #FF8081",
"m.	c #FF7C7D",
"n.	c #FF7878",
"o.	c #C5C4FF",
"p.	c #BDBDFF",
"q.	c #B4B5FF",
"r.	c #ACADFF",
"s.	c #A4A5FF",
"t.	c #9F9EFF",
"u.	c #9796FF",
"v.	c #8F8FFF",
"w.	c #8686FF",
"x.	c #7F7EFF",
"y.	c #7676FF",
"z.	c #7070FF",
"A.	c #FFB6B6",
"B.	c #FFAFAE",
"C.	c #FFA6A5",
"D.	c #FF8B8B",
"E.	c #FF7475",
"F.	c #FF7070",
"G.	c #D1D1FF",
"H.	c #C9C8FF",
"I.	c #C3C3FF",
"J.	c #BBBBFF",
"K.	c #B3B3FF",
"L.	c #ABABFF",
"M.	c #A2A2FF",
"N.	c #9B9BFF",
"O.	c #9595FF",
"P.	c #8D8CFF",
"Q.	c #8585FF",
"R.	c #7D7DFF",
"S.	c #7474FF",
"T.	c #6D6CFF",
"U.	c #6767FF",
"V.	c #FFB1B0",
"W.	c #FF9D9D",
"X.	c #FF9A99",
"Y.	c #FF8889",
"Z.	c #FF7E7F",
"`.	c #FF7A7B",
" +	c #FF7676",
".+	c #FF7272",
"++	c #FF6E6E",
"@+	c #FF6969",
"#+	c #DFDEFF",
"$+	c #D7D7FF",
"%+	c #CECFFF",
"&+	c #C7C7FF",
"*+	c #BEBFFF",
"=+	c #B8B9FF",
"-+	c #B0B1FF",
";+	c #A8A8FF",
">+	c #A0A1FF",
",+	c #9999FF",
"'+	c #9091FF",
")+	c #8A8AFF",
"!+	c #8282FF",
"~+	c #7A7AFF",
"{+	c #7272FF",
"]+	c #6B6AFF",
"^+	c #6263FF",
"/+	c #5D5CFF",
"(+	c #5454FF",
"_+	c #FF9897",
":+	c #FF8584",
"<+	c #FF8080",
"[+	c #FF7474",
"}+	c #FF6A6A",
"|+	c #FF6666",
"1+	c #FF6162",
"2+	c #E3E3FF",
"3+	c #DDDDFF",
"4+	c #D5D5FF",
"5+	c #CDCDFF",
"6+	c #C5C5FF",
"7+	c #BDBCFF",
"8+	c #AFAFFF",
"9+	c #A7A7FF",
"0+	c #9E9FFF",
"a+	c #8F8EFF",
"b+	c #8786FF",
"c+	c #7978FF",
"d+	c #6968FF",
"e+	c #6060FF",
"f+	c #5959FF",
"g+	c #5253FF",
"h+	c #4B4AFF",
"i+	c #4242FF",
"j+	c #FFA2A1",
"k+	c #FF8F90",
"l+	c #FF8283",
"m+	c #FF7F7E",
"n+	c #FF7A7A",
"o+	c #FF6C6C",
"p+	c #FF6867",
"q+	c #FF6363",
"r+	c #FF5F5F",
"s+	c #FF5B5B",
"t+	c #F1F1FF",
"u+	c #E9E9FF",
"v+	c #E0E1FF",
"w+	c #D9D8FF",
"x+	c #D3D2FF",
"y+	c #CACBFF",
"z+	c #B2B2FF",
"A+	c #A5A5FF",
"B+	c #9C9DFF",
"C+	c #9594FF",
"D+	c #8485FF",
"E+	c #7776FF",
"F+	c #6E6FFF",
"G+	c #6667FF",
"H+	c #5E5EFF",
"I+	c #5756FF",
"J+	c #5050FF",
"K+	c #4848FF",
"L+	c #4040FF",
"M+	c #3839FF",
"N+	c #3130FF",
"O+	c #FF999A",
"P+	c #FF9291",
"Q+	c #FF8282",
"R+	c #FF7B7A",
"S+	c #FF6D6D",
"T+	c #FF6261",
"U+	c #FF5757",
"V+	c #FF5253",
"W+	c #FDFDFF",
"X+	c #F7F7FF",
"Y+	c #EFEFFF",
"Z+	c #E7E7FF",
"`+	c #DFDFFF",
" @	c #D7D6FF",
".@	c #C1C1FF",
"+@	c #B9B9FF",
"@@	c #A9A8FF",
"#@	c #9A9AFF",
"$@	c #9292FF",
"%@	c #8A8BFF",
"&@	c #8283FF",
"*@	c #6C6CFF",
"=@	c #6464FF",
"-@	c #5554FF",
";@	c #4C4CFF",
">@	c #4646FF",
",@	c #3F3EFF",
"'@	c #3637FF",
")@	c #2E2EFF",
"!@	c #2626FF",
"~@	c #FF8485",
"{@	c #FF7C7C",
"]@	c #FF7979",
"^@	c #FF6566",
"/@	c #FF6262",
"(@	c #FF5E5E",
"_@	c #FF5959",
":@	c #FF5555",
"<@	c #FF5151",
"[@	c #FF4D4C",
"}@	c #FBFBFF",
"|@	c #F5F5FF",
"1@	c #EDEDFF",
"2@	c #E4E5FF",
"3@	c #DDDCFF",
"4@	c #D4D5FF",
"5@	c #B7B6FF",
"6@	c #9F9FFF",
"7@	c #9998FF",
"8@	c #8081FF",
"9@	c #7979FF",
"0@	c #6A6AFF",
"a@	c #6362FF",
"b@	c #5B5AFF",
"c@	c #5353FF",
"d@	c #4343FF",
"e@	c #3D3CFF",
"f@	c #3534FF",
"g@	c #2C2CFF",
"h@	c #2424FF",
"i@	c #1C1CFF",
"j@	c #FF6364",
"k@	c #FF6060",
"l@	c #FF5857",
"m@	c #FF5353",
"n@	c #FF4D4D",
"o@	c #FF4948",
"p@	c #FF4444",
"q@	c #F9F9FF",
"r@	c #EBEBFF",
"s@	c #DBDBFF",
"t@	c #D3D3FF",
"u@	c #CBCBFF",
"v@	c #BCBDFF",
"w@	c #ADADFF",
"x@	c #9D9DFF",
"y@	c #8687FF",
"z@	c #7F7FFF",
"A@	c #7777FF",
"B@	c #6E6EFF",
"C@	c #6666FF",
"D@	c #5858FF",
"E@	c #5150FF",
"F@	c #3838FF",
"G@	c #3332FF",
"H@	c #2A2AFF",
"I@	c #2222FF",
"J@	c #1A1AFF",
"K@	c #FF8382",
"L@	c #FF7777",
"M@	c #FF6161",
"N@	c #FF5758",
"O@	c #FF4F4F",
"P@	c #FF4B4A",
"Q@	c #FF4746",
"R@	c #FF4242",
"S@	c #FF3E3E",
"T@	c #E1E1FF",
"U@	c #D9D9FF",
"V@	c #C9C9FF",
"W@	c #B9B8FF",
"X@	c #A3A3FF",
"Y@	c #8484FF",
"Z@	c #5C5DFF",
"`@	c #5656FF",
" #	c #4F4EFF",
".#	c #4647FF",
"+#	c #3E3EFF",
"@#	c #3636FF",
"##	c #3030FF",
"$#	c #2828FF",
"%#	c #2020FF",
"&#	c #1818FF",
"*#	c #FF7879",
"=#	c #FF5D5D",
"-#	c #FF595A",
";#	c #FF4849",
">#	c #FF3A3A",
",#	c #FF3635",
"'#	c #BEBEFF",
")#	c #A9A9FF",
"!#	c #9899FF",
"~#	c #9090FF",
"{#	c #8889FF",
"]#	c #7A7BFF",
"^#	c #7373FF",
"/#	c #5A5AFF",
"(#	c #5455FF",
"_#	c #4544FF",
":#	c #3C3DFF",
"<#	c #3435FF",
"[#	c #2D2CFF",
"}#	c #1E1EFF",
"|#	c #1616FF",
"1#	c #FF6F70",
"2#	c #FF6868",
"3#	c #FF5F60",
"4#	c #FF4544",
"5#	c #FF4141",
"6#	c #FF3C3C",
"7#	c #FF3837",
"8#	c #FF3434",
"9#	c #FF3030",
"0#	c #C4C5FF",
"a#	c #B5B5FF",
"b#	c #9797FF",
"c#	c #6869FF",
"d#	c #5859FF",
"e#	c #4A4BFF",
"f#	c #3A3AFF",
"g#	c #3232FF",
"h#	c #2223FF",
"i#	c #1414FF",
"j#	c #FF6665",
"k#	c #FF5D5E",
"l#	c #FF4E4F",
"m#	c #FF4B4B",
"n#	c #FF4647",
"o#	c #FF4342",
"p#	c #FF3E3F",
"q#	c #FF2F30",
"r#	c #FF2C2C",
"s#	c #FF2728",
"t#	c #BABBFF",
"u#	c #8D8DFF",
"v#	c #7C7CFF",
"w#	c #7574FF",
"x#	c #6F6FFF",
"y#	c #5F5EFF",
"z#	c #5757FF",
"A#	c #4F4FFF",
"B#	c #1212FF",
"C#	c #FF6565",
"D#	c #FF5A59",
"E#	c #FF4C4D",
"F#	c #FF4445",
"G#	c #FF3636",
"H#	c #FF3232",
"I#	c #FF2E2E",
"J#	c #FF2A2A",
"K#	c #FF2525",
"L#	c #FF2121",
"M#	c #9392FF",
"N#	c #8382FF",
"O#	c #7372FF",
"P#	c #6465FF",
"Q#	c #5C5CFF",
"R#	c #5555FF",
"S#	c #4C4DFF",
"T#	c #4444FF",
"U#	c #3C3CFF",
"V#	c #3736FF",
"W#	c #2E2FFF",
"X#	c #1010FF",
"Y#	c #FF4949",
"Z#	c #FF4040",
"`#	c #FF3838",
" $	c #FF2C2B",
".$	c #FF2727",
"+$	c #FF1D1D",
"@$	c #FF1919",
"#$	c #9697FF",
"$$	c #6262FF",
"%$	c #5A5BFF",
"&$	c #5252FF",
"*$	c #4342FF",
"=$	c #3434FF",
"-$	c #0C0CFF",
";$	c #FF4747",
">$	c #FF4343",
",$	c #FF2B2B",
"'$	c #FF2828",
")$	c #FF2323",
"!$	c #FF1F20",
"~$	c #FF1B1B",
"{$	c #FF1717",
"]$	c #FF1213",
"^$	c #9494FF",
"/$	c #7E7FFF",
"($	c #7677FF",
"_$	c #6F6EFF",
":$	c #5051FF",
"<$	c #4849FF",
"[$	c #0A0AFF",
"}$	c #FF5150",
"|$	c #FF3F3E",
"1$	c #FF2E2D",
"2$	c #FF2526",
"3$	c #FF1313",
"4$	c #FF0F0F",
"5$	c #FF0B0B",
"6$	c #7D7CFF",
"7$	c #3E3FFF",
"8$	c #2021FF",
"9$	c #0808FF",
"0$	c #FF4041",
"a$	c #FF302F",
"b$	c #FF1918",
"c$	c #FF1515",
"d$	c #FF1110",
"e$	c #FF0C0C",
"f$	c #FF0908",
"g$	c #FF0504",
"h$	c #5352FF",
"i$	c #2D2DFF",
"j$	c #0E0EFF",
"k$	c #0606FF",
"l$	c #FF4243",
"m$	c #FF2B2C",
"n$	c #FF2827",
"o$	c #FF1F1F",
"p$	c #FF0E0F",
"q$	c #FF0808",
"r$	c #FF0404",
"s$	c #FF0000",
"t$	c #6161FF",
"u$	c #3A3BFF",
"v$	c #2322FF",
"w$	c #1B1AFF",
"x$	c #0404FF",
"y$	c #FF3132",
"z$	c #FF292A",
"A$	c #FF2626",
"B$	c #FF1312",
"C$	c #FF0A0B",
"D$	c #FF0607",
"E$	c #FF0202",
"F$	c #4E4EFF",
"G$	c #4747FF",
"H$	c #0202FF",
"I$	c #FF3433",
"J$	c #0000FF",
"K$	c #FF0A0A",
"L$	c #FF0505",
"M$	c #3333FF",
"N$	c #2524FF",
"O$	c #FF2122",
"P$	c #FF0B0A",
"Q$	c #2120FF",
"R$	c #FF1111",
"S$	c #FF0C0D",
"T$	c #FF1716",
"U$	c #FF0F0E",
"V$	c #FF0707",
"W$	c #FF0203",
"X$	c #FF0909",
"                                                                                                ",
"                                                                                            . . ",
"                                                                                          . . + ",
"                                                                                      . . @ # $ ",
"                                                                                  . . @ % & * = ",
"                                                                              . . . + # $ - ; > ",
"                                                                            . . @ % , ' ) ! ~ { ",
"                                                                        . . ] ^ & / ( ; > _ : < ",
"                                                                    . . . + [ } - | > _ 1 2 3 4 ",
"                                                                . . . @ % $ 5 | ! ~ 6 7 < 8 9 0 ",
"                                                              . . @ % & * a ; > b 7 c d e f g h ",
"                                                              . i # , 5 | > _ j k l 4 9 m n o p ",
"                                                              % $ q | ! r 6 s < d 9 0 n t u v w ",
"                                                              x a ; > _ y c d z A g B C D E F G ",
"                                                              ) > _ 1 H I 4 9 0 n J K L M N O P ",
"                                                              ~ 6 s Q d z 0 n R S v T U G V W X ",
"                                                              1 Y d Z f g `  .D ..F G V +.@.#.$.",
"                                                              I %.9 &.n C p E M *.O =.W -.;.>.,.",
"                              '.).                            Z 0 n R u !.w U G V ~.X {.].^./.(.",
"                          _.:.<.[.}.                          g ` C |.L F G V 1.@.2.3.>.,.4.5.6.",
"                      7.8.9.0.a.b.c.d.e.                      R p ..M f.O =.g.h.;.>.i.j.k.l.m.n.",
"                    o.p.q.r.s.t.u.v.w.x.y.z.                  A.T B.G C.g.h.{.].^.D.(.5.6.n.E.F.",
"                G.H.I.J.K.L.M.N.O.P.Q.R.S.T.U.                V.G V 1.W.X.$.>.i.Y.5.Z.`. +.+++@+",
"            #+$+%+&+*+=+-+;+>+,+'+)+!+~+{+]+^+/+(+            O =.W -._+>.i.j.:+<+m.n.[+F.}+|+1+",
"          2+3+4+5+6+7+q.8+9+0+u.a+b+e.c+z.d+e+f+g+h+i+        j+-.{.].k+D.4.l+m+n+[+F.o+p+q+r+s+",
"      t+u+v+w+x+y+I.J.z+:.A+B+C+P.D+x.E+F+G+H+I+J+K+L+M+N+    O+3.P+i.j.Q+6.R+ +.+S+}+|+T+s+U+V+",
"  W+X+Y+Z+`+ @G.H..@+@-+@@<.#@$@%@&@~+S.*@=@/+-@;@>@,@'@)@!@  >.i.j.~@l.{@]@[+F.o+^@/@(@_@:@<@[@",
". }@|@1@2@3@4@5+&+7.5@8+9+6@7@c.d.8@9@z.0@a@b@c@h+d@e@f@g@h@i@D.(.Q+6.R+[+F.o+p+j@k@s+l@m@n@o@p@",
". q@t+r@2+s@t@u@I.v@q.w@A+x@O.v.y@z@A@B@C@e+D@E@K+L+F@G@H@I@J@K@m+`.L@.+++}+|+M@s+N@m@O@P@Q@R@S@",
"    Y+Z+T@U@G.V@.@W@K.L.X@N.}.%@Y@R.S.*@=@Z@`@ #.#+#@###$#%#&#m.*#[+F.o+|+1+=#-#:@<@n@;#p@S@>#,#",
"        3+$+%+&+'#8.-+)#>+!#~#{#!+]#^#0@a@/#(#;@_#:#<#[#!@}#|#[+1#o+2#j@3#s+U+m@n@o@4#5#6#7#8#9#",
"            5+0#p.a#r.0.t.b#a+y@z@c+z.c#e+d#J+e#i+f#g#H@h#i@i#++@+j#T+k#U+m@l#m#n#o#p#>#,#q#r#s#",
"              I.t#K.:.<.).O.u#D+v#w#x#C@y#z#A#>@L+F@##$#%#&#B#C#/@(@D#:@<@E#;#F#S@>#G#H#I#J#K#L#",
"                  _.)#a.!#M#%@N#]#O#0@P#Q#R#S#T#U#V#W#!@}#|#X#r+s+U+m@l#Y#4#Z#6#`#8#9# $.$L#+$@$",
"                      0+#$v.d.e.9@z.c#$$%$&$e#*$f#=$g@h@i@i#-$U+m@O@P@;$>$p#>#G#9#,$'$)$!$~${$]$",
"                        ^$u#b+/$($_$C@H+d#:$<$L+F@##H@I@J@B#[$}$n@o@p@|$>#G#H#1$J#2$L#+$@$3$4$5$",
"                            !+6$w#*@=@Q#(+ #.#7$'@)@!@8$&#X#9$Y#p@0$6#`#8#a$ $.$L#+$b$c$d$e$f$g$",
"                                O#0@^+b@h$h+T#U#=$i$h@i@|#j$k$l$S@>#G#a$m$n$)$o$~${$]$p$q$r$s$s$",
"                                    t$d#:$K+L+u$G@H@v$w$i#-$x$>#G#y$I#z$A$L#+$@$B$p$C$D$E$s$s$  ",
"                                      `@F$G$+#F@N+$#%#&#X#[$H$I$9#,$.$L#+$@$c$d$e$q$g$s$s$      ",
"                                          T#e@=$)@!@}#|#j$k$J$r#s#)$o$~${$3$p$K$L$s$s$          ",
"                                              M$H@N$i@i#-$x$J$A$O$+$@$B$4$P$D$E$s$s$            ",
"                                                  Q$J@B#[$H$J$+$@$c$R$S$q$r$s$s$                ",
"                                                    &#X#9$J$J$T$3$p$K$r$s$s$                    ",
"                                                        k$J$J$U$C$V$W$s$s$                      ",
"                                                            J$X$r$s$s$                          ",
"                                                                s$                              ",
"                                                                                                "};
