/* XPM */
static char * panelCopyXZ_xpm[] = {
"48 48 388 2",
"  	c None",
". 	c #FFFFFF",
"+ 	c #FEFBFE",
"@ 	c #FCF8FE",
"# 	c #FBF4FE",
"$ 	c #FAF1FD",
"% 	c #F9EFFD",
"& 	c #F8ECFC",
"* 	c #F6E8FC",
"= 	c #F5E5FC",
"- 	c #FAEFFD",
"; 	c #F7E9FC",
"> 	c #F6E5FC",
", 	c #F4E1FB",
"' 	c #F3E0FB",
") 	c #F2DDFA",
"! 	c #F6E9FC",
"~ 	c #F5E5FB",
"{ 	c #F5E3FB",
"] 	c #F4E0FB",
"^ 	c #F2DCFB",
"/ 	c #F1D9FA",
"( 	c #F0D6F9",
"_ 	c #EED2F9",
": 	c #EDD0F9",
"< 	c #F4E4FC",
"[ 	c #F4DFFB",
"} 	c #F2DCFA",
"| 	c #EFD6FA",
"1 	c #EED0F9",
"2 	c #ECCDF8",
"3 	c #EBC9F8",
"4 	c #E9C6F7",
"5 	c #E8C2F7",
"6 	c #F1D8FA",
"7 	c #EFD5F9",
"8 	c #EED4F9",
"9 	c #ECCDF9",
"0 	c #E8C3F7",
"a 	c #E8C1F7",
"b 	c #E7BDF6",
"c 	c #E5B9F6",
"d 	c #E4B6F5",
"e 	c #EFD5FA",
"f 	c #EFD4F9",
"g 	c #EDCDF8",
"h 	c #EBCAF8",
"i 	c #EAC6F8",
"j 	c #E9C4F7",
"k 	c #E8C0F7",
"l 	c #E6BDF7",
"m 	c #E5BAF5",
"n 	c #E3B6F6",
"o 	c #E3B3F4",
"p 	c #E2B1F4",
"q 	c #E0ADF4",
"r 	c #EBC9F7",
"s 	c #EAC6F7",
"t 	c #E3B5F5",
"u 	c #E2B1F5",
"v 	c #E1AEF4",
"w 	c #DFAAF4",
"x 	c #DEA6F4",
"y 	c #DDA3F2",
"z 	c #DCA1F3",
"A 	c #EAC8F8",
"B 	c #E7C1F6",
"C 	c #E3B4F5",
"D 	c #E2B0F5",
"E 	c #DFAAF3",
"F 	c #DEA7F3",
"G 	c #DDA5F3",
"H 	c #DB9EF2",
"I 	c #DA9AF2",
"J 	c #D896F1",
"K 	c #D694F0",
"L 	c #E9C4F8",
"M 	c #E6BDF6",
"N 	c #E4B8F5",
"O 	c #E1ADF4",
"P 	c #DEA6F3",
"Q 	c #DEA4F3",
"R 	c #DCA1F2",
"S 	c #DB9DF2",
"T 	c #D99AF2",
"U 	c #D897F1",
"V 	c #D794F1",
"W 	c #D791F0",
"X 	c #D58FF0",
"Y 	c #D48BEF",
"Z 	c #E5B7F6",
"` 	c #DEA5F3",
" .	c #DCA2F3",
"..	c #DA9BF1",
"+.	c #D895F1",
"@.	c #D692F1",
"#.	c #D48EF0",
"$.	c #D48AEF",
"%.	c #D388EF",
"&.	c #D184EF",
"*.	c #D183EE",
"=.	c #D07EEE",
"-.	c #E1ADF5",
";.	c #DFA9F3",
">.	c #D897F2",
",.	c #D58EF0",
"'.	c #D38BEF",
").	c #D288EF",
"!.	c #D285EF",
"~.	c #D082EF",
"{.	c #CF7FEE",
"].	c #CE7BED",
"^.	c #CD78ED",
"/.	c #CB74ED",
"(.	c #CA73ED",
"_.	c #DEA8F3",
":.	c #DDA4F3",
"<.	c #D99BF2",
"[.	c #D998F1",
"}.	c #D795F1",
"|.	c #D792F0",
"1.	c #D38BF0",
"2.	c #D286EF",
"3.	c #D082EE",
"4.	c #CF7EEE",
"5.	c #CD77ED",
"6.	c #CC76ED",
"7.	c #CA73EC",
"8.	c #CA6FEC",
"9.	c #C86CEB",
"0.	c #C768EB",
"a.	c #C564EB",
"b.	c #E0ACF4",
"c.	c #DFA8F3",
"d.	c #D99BF1",
"e.	c #D999F1",
"f.	c #D691F1",
"g.	c #D389F0",
"h.	c #CF7FED",
"i.	c #CE7BEE",
"j.	c #CC78ED",
"k.	c #CA72ED",
"l.	c #C96FEC",
"m.	c #C96CEC",
"n.	c #C668EB",
"o.	c #C565EA",
"p.	c #C563EA",
"q.	c #C460EA",
"r.	c #C25CEA",
"s.	c #DDA2F3",
"t.	c #DA9CF1",
"u.	c #D792F1",
"v.	c #D185EF",
"w.	c #D182EE",
"x.	c #CC77ED",
"y.	c #CC76EC",
"z.	c #CA72EC",
"A.	c #CA6FEB",
"B.	c #C96BEB",
"C.	c #C667EB",
"D.	c #C35FE9",
"E.	c #C25BE9",
"F.	c #C158E9",
"G.	c #C055E8",
"H.	c #BF53E8",
"I.	c #BD50E8",
"J.	c #DB9CF2",
"K.	c #D692F0",
"L.	c #D48CF0",
"M.	c #D389EF",
"N.	c #D182EF",
"O.	c #D07FEE",
"P.	c #CD7BEE",
"Q.	c #CD7AED",
"R.	c #C666EB",
"S.	c #C463EA",
"T.	c #C45FEA",
"U.	c #C25CE9",
"V.	c #C159E9",
"W.	c #C157E8",
"X.	c #BF54E8",
"Y.	c #BD50E7",
"Z.	c #BC4CE7",
"`.	c #BB48E6",
" +	c #BA46E6",
".+	c #B943E6",
"++	c #D895F0",
"@+	c #D791F1",
"#+	c #D48DEF",
"$+	c #D185EE",
"%+	c #CD79ED",
"&+	c #CB72EC",
"*+	c #C86BEC",
"=+	c #C869EB",
"-+	c #C666EA",
";+	c #C059E9",
">+	c #C057E9",
",+	c #BE50E8",
"'+	c #BC4DE7",
")+	c #BB48E7",
"!+	c #B944E6",
"~+	c #B840E6",
"{+	c #B73DE5",
"]+	c #B53AE5",
"^+	c #B435E4",
"/+	c #D691F0",
"(+	c #D58DEF",
"_+	c #D083EE",
":+	c #CE7DED",
"<+	c #CE7AED",
"[+	c #CB76ED",
"}+	c #C76AEB",
"|+	c #C767EB",
"1+	c #C35CE9",
"2+	c #BE50E7",
"3+	c #BC4CE8",
"4+	c #BB49E7",
"5+	c #BA47E7",
"6+	c #BA44E6",
"7+	c #B840E5",
"8+	c #B63DE5",
"9+	c #B539E5",
"0+	c #B438E4",
"a+	c #B434E4",
"b+	c #B231E3",
"c+	c #B12DE3",
"d+	c #D48CEF",
"e+	c #CF7DEE",
"f+	c #CC75EC",
"g+	c #C96DEB",
"h+	c #C86AEB",
"i+	c #C25AE9",
"j+	c #BE4FE8",
"k+	c #BD4CE7",
"l+	c #BB4AE7",
"m+	c #BB47E7",
"n+	c #B63CE5",
"o+	c #B639E4",
"p+	c #B537E4",
"q+	c #B231E4",
"r+	c #B02AE3",
"s+	c #AF26E2",
"t+	c #AE25E1",
"u+	c #AC21E1",
"v+	c #D186EF",
"w+	c #D080EE",
"x+	c #C96DEC",
"y+	c #C35FEA",
"z+	c #C35DEA",
"A+	c #BC4BE7",
"B+	c #BB47E6",
"C+	c #B334E4",
"D+	c #B230E4",
"E+	c #AF2AE2",
"F+	c #AF27E2",
"G+	c #AC21E2",
"H+	c #AB1DE1",
"I+	c #AA1AE1",
"J+	c #A816E0",
"K+	c #A715E0",
"L+	c #CD7AEE",
"M+	c #CA71EC",
"N+	c #C96EEB",
"O+	c #C35EEA",
"P+	c #C15AE9",
"Q+	c #C057E8",
"R+	c #BD4CE8",
"S+	c #BA47E6",
"T+	c #B841E5",
"U+	c #B63BE4",
"V+	c #B538E4",
"W+	c #B230E3",
"X+	c #B12DE4",
"Y+	c #AF29E2",
"Z+	c #AF28E3",
"`+	c #AD25E1",
" @	c #A91AE0",
".@	c #A918E0",
"+@	c #A815E0",
"@@	c #A712E0",
"#@	c #A50EDE",
"$@	c #A40ADF",
"%@	c #A207DE",
"&@	c #CE79ED",
"*@	c #CB73ED",
"=@	c #C45FE9",
"-@	c #C35EE9",
";@	c #BF54E9",
">@	c #BE4FE7",
",@	c #BD4EE8",
"'@	c #BC4AE7",
")@	c #B741E6",
"!@	c #B73CE5",
"~@	c #B63BE5",
"{@	c #B537E5",
"]@	c #B02BE3",
"^@	c #AD25E2",
"/@	c #A815DF",
"(@	c #A611DF",
"_@	c #A50EDF",
":@	c #A40ADE",
"<@	c #A309DE",
"[@	c #A205DE",
"}@	c #A102DD",
"|@	c #A000DD",
"1@	c #C86DEC",
"2@	c #C461EA",
"3@	c #BE4EE8",
"4@	c #B73FE5",
"5@	c #B12EE3",
"6@	c #B12CE3",
"7@	c #AD24E2",
"8@	c #AB1EE1",
"9@	c #AB1CE1",
"0@	c #A711E0",
"a@	c #A308DE",
"b@	c #A002DD",
"c@	c #C86DEB",
"d@	c #C462EA",
"e@	c #C157E9",
"f@	c #BE52E8",
"g@	c #BB4BE7",
"h@	c #B83EE5",
"i@	c #B434E3",
"j@	c #B12FE4",
"k@	c #AF27E3",
"l@	c #AA1CE1",
"m@	c #A919E0",
"n@	c #A60EDF",
"o@	c #A50CDF",
"p@	c #A409DF",
"q@	c #A205DD",
"r@	c #A101DD",
"s@	c #BF51E8",
"t@	c #B942E6",
"u@	c #B73EE5",
"v@	c #B22FE3",
"w@	c #AE24E2",
"x@	c #AD21E2",
"y@	c #AC1FE1",
"z@	c #AA1BE0",
"A@	c #A814E0",
"B@	c #A612E0",
"C@	c #A40CDF",
"D@	c #BF52E8",
"E@	c #BD4EE7",
"F@	c #BC4BE6",
"G@	c #B83FE6",
"H@	c #B437E4",
"I@	c #B332E4",
"J@	c #AF28E2",
"K@	c #AE25E2",
"L@	c #A711DF",
"M@	c #A40CDE",
"N@	c #BA45E7",
"O@	c #B842E5",
"P@	c #B332E3",
"Q@	c #B22EE3",
"R@	c #A918E1",
"S@	c #A712DF",
"T@	c #A610DF",
"U@	c #A206DD",
"V@	c #B83EE6",
"W@	c #B22FE4",
"X@	c #AD22E2",
"Y@	c #AC20E1",
"Z@	c #AA18E1",
"`@	c #A612DF",
" #	c #A409DE",
".#	c #A206DE",
"+#	c #B232E4",
"@#	c #B12FE3",
"##	c #B12BE3",
"$#	c #AE24E1",
"%#	c #AD23E1",
"&#	c #A813DF",
"*#	c #A309DF",
"=#	c #A102DE",
"-#	c #AE26E2",
";#	c #AB1FE1",
">#	c #A713E0",
",#	c #A308DF",
"'#	c #A203DD",
")#	c #AA1CE0",
"!#	c #A817E0",
"~#	c #A50CDE",
"{#	c #A203DE",
"]#	c #A104DE",
"      . .                                                                                       ",
"      + @ # $                                                                                   ",
"      # $ % & * =                                                                               ",
"      - & ; > , ' )                                                                             ",
"      ! ~ { ] ^ / ( _ :                                                                         ",
"      < [ } / | _ 1 2 3 4 5                                                                     ",
"      ) 6 7 8 1 9 3 4 0 a b c d                                                                 ",
"      e f : g h i j k l m n o p q                                                               ",
"      : 2 r s j a b c d t u v w x y z                                                           ",
"      3 A j B b m d C D q E F G z H I J K                                                       ",
"      L a M m N C p O E P Q R S T U V W X Y                                                     ",
"      M c Z t u O E x `  .H ..J +.@.#.$.%.&.*.=.                                                ",
"      Z t u -.w ;.`  .H T >.J @.,.'.).!.~.{.].^./.(.                                            ",
"      u v w _.:.z H <.[.}.|.,.1.).2.3.4.].5.6.7.8.9.0.a.                                        ",
"      b.c.G z H d.e.+.f.,.Y g.2.3.h.i.j.6.k.l.m.n.o.p.q.r.                                      ",
"      G s.H t.[.}.u.X 1.g.v.w.h.].x.y.z.A.B.0.C.p.D.E.F.G.H.I.                                  ",
"      H J.[.+.K.,.L.M.!.N.O.P.Q.y.7.l.9.0.R.S.T.U.V.W.X.Y.Z.`. +.+                              ",
"      e.++@+,.#+M.$+*.4.i.%+6.&+8.*+=+-+p.T.U.;+>+H.,+'+`.)+!+~+{+]+^+                          ",
"      /+X (+M.v._+{.:+<+[+7.8.9.}+|+p.D.1+E.>+H.2+3+4+5+6+7+8+9+0+a+b+c+                        ",
"      d+M.!.3.O.e+<+f+&+l.g+h+R.p.q.U.i+>+X.j+k+l+m+6+7+n+o+p+a+q+c+r+s+t+u+                    ",
"      v+w.w+e+Q.6.(.l.x+}+R.S.y+z+i+>+X.,+Z.A+B+.+~+n+]+p+C+D+c+E+F+t+G+H+I+J+K+                ",
"      w+e+L+6.7.M+N+h+C.p.q.O+P+Q+H.j+R+A+S+.+T+{+U+V+C+W+X+Y+Z+`+G+H+ @.@+@@@#@$@%@            ",
"      &@6.*@M+g+h+R.p.=@-@i+Q+;@>@,@'@m+!+)@!@~@{@C+W+c+]@Z+^@G+H+I+.@/@(@_@:@<@[@}@|@          ",
"      &+M+1@h+C.p.2@-@P+>+H.,+3@'@S+!+~+4@~@p+C+q+5@6@Z+7@G+8@9@.@+@0@_@:@a@[@b@|@|@|@|@|@      ",
"      c@h+-+S.d@O+i+e@H.f@,@g@B+!+~+h@~@V+i@q+j@]@k@^@G+8@l@m@+@(@n@o@p@q@r@|@|@|@|@|@|@|@      ",
"          2@O+E.e@H.s@,@l+5+.+t@u@~@p+a+W+v@]@Z+w@x@y@z@.@A@B@_@C@a@q@r@|@|@|@|@|@|@|@|@|@      ",
"              G.D@E@F@m+!+t@G@~@H@a+I@v@]@J@K@u+y@l@.@+@L@_@M@a@[@r@|@|@|@|@|@|@|@|@|@|@|@      ",
"                l+S+N@O@u@~@{@a+P@Q@]@J@K@u+y@l@R@+@S@T@M@a@U@r@|@|@|@|@|@|@|@|@|@|@|@|@|@      ",
"                    V@~@p+C+I@W@]@J@K@X@Y@l@Z@/@`@T@M@ #.#b@|@|@|@|@|@|@|@|@|@|@|@|@|@|@|@      ",
"                        +#@###J@$#%#y@l@.@+@&#T@o@*#q@=#|@|@|@|@|@|@|@|@|@|@|@|@|@|@|@|@|@      ",
"                            -#%#;#9@.@K+>#T@C@,#[@'#|@|@|@|@|@|@|@|@|@|@|@|@|@|@|@|@|@|@|@      ",
"                              )#R@!#>#T@~#<@q@{#|@|@|@|@|@|@|@|@|@|@|@|@|@|@|@|@|@|@|@|@|@      ",
"                                  T@o@<@[@]#|@|@|@|@|@|@|@|@|@|@|@|@|@|@|@|@|@|@|@|@|@|@|@      ",
"                                      ]#|@|@|@|@|@|@|@|@|@|@|@|@|@|@|@|@|@|@|@|@|@|@|@|@|@      ",
"                                        |@|@|@|@|@|@|@|@|@|@|@|@|@|@|@|@|@|@|@|@|@|@|@|@|@      ",
"                                            |@|@|@|@|@|@|@|@|@|@|@|@|@|@|@|@|@|@|@|@|@|@|@      ",
"                                                |@|@|@|@|@|@|@|@|@|@|@|@|@|@|@|@|@|@|@|@|@      ",
"                                                    |@|@|@|@|@|@|@|@|@|@|@|@|@|@|@|@|@|@|@      ",
"                                                      |@|@|@|@|@|@|@|@|@|@|@|@|@|@|@|@|@|@      ",
"                                                          |@|@|@|@|@|@|@|@|@|@|@|@|@|@|@|@      ",
"                                                              |@|@|@|@|@|@|@|@|@|@|@|@|@|@      ",
"                                                                  |@|@|@|@|@|@|@|@|@|@|@|@      ",
"                                                                    |@|@|@|@|@|@|@|@|@|@|@      ",
"                                                                        |@|@|@|@|@|@|@|@|@      ",
"                                                                            |@|@|@|@|@|@|@      ",
"                                                                                |@|@|@|@|@      ",
"                                                                                  |@|@|@|@      ",
"                                                                                      |@|@      "};
