/* XPM */
static char * panelMoveZm_xpm[] = {
"48 48 225 2",
"  	c None",
". 	c #060606",
"+ 	c #070707",
"@ 	c #080808",
"# 	c #020202",
"$ 	c #030303",
"% 	c #050505",
"& 	c #050303",
"* 	c #030202",
"= 	c #060505",
"- 	c #040202",
"; 	c #020000",
"> 	c #100D0D",
", 	c #0B0505",
"' 	c #0A0303",
") 	c #080000",
"! 	c #110909",
"~ 	c #0D0101",
"{ 	c #0F0404",
"] 	c #0D0000",
"^ 	c #140909",
"/ 	c #130101",
"( 	c #130404",
"_ 	c #130000",
": 	c #180909",
"< 	c #180101",
"[ 	c #180404",
"} 	c #180000",
"| 	c #190000",
"1 	c #1C0909",
"2 	c #1D0101",
"3 	c #1D0404",
"4 	c #1E0000",
"5 	c #210909",
"6 	c #230101",
"7 	c #220404",
"8 	c #240000",
"9 	c #250909",
"0 	c #290101",
"a 	c #270404",
"b 	c #290000",
"c 	c #290909",
"d 	c #2E0101",
"e 	c #2C0404",
"f 	c #2F0000",
"g 	c #2E0909",
"h 	c #340101",
"i 	c #320404",
"j 	c #340000",
"k 	c #350000",
"l 	c #320909",
"m 	c #390101",
"n 	c #370404",
"o 	c #3A0000",
"p 	c #370909",
"q 	c #3F0101",
"r 	c #3C0404",
"s 	c #400000",
"t 	c #3C0909",
"u 	c #440101",
"v 	c #410404",
"w 	c #450000",
"x 	c #460000",
"y 	c #410909",
"z 	c #4A0101",
"A 	c #470404",
"B 	c #4B0000",
"C 	c #450909",
"D 	c #4F0101",
"E 	c #4C0404",
"F 	c #500000",
"G 	c #510000",
"H 	c #4A0909",
"I 	c #550101",
"J 	c #510404",
"K 	c #560000",
"L 	c #570000",
"M 	c #4F0909",
"N 	c #5B0101",
"O 	c #560404",
"P 	c #5C0000",
"Q 	c #540909",
"R 	c #600101",
"S 	c #5B0404",
"T 	c #610000",
"U 	c #620000",
"V 	c #590909",
"W 	c #660101",
"X 	c #610404",
"Y 	c #670000",
"Z 	c #5D0909",
"` 	c #6B0101",
" .	c #660404",
"..	c #6D0000",
"+.	c #620909",
"@.	c #710101",
"#.	c #6B0404",
"$.	c #720000",
"%.	c #730000",
"&.	c #670909",
"*.	c #760101",
"=.	c #710404",
"-.	c #780000",
";.	c #6C0909",
">.	c #7C0101",
",.	c #760404",
"'.	c #7D0000",
").	c #7E0000",
"!.	c #710909",
"~.	c #810101",
"{.	c #7B0404",
"].	c #830000",
"^.	c #750909",
"/.	c #870101",
"(.	c #810404",
"_.	c #890000",
":.	c #7A0909",
"<.	c #8D0101",
"[.	c #860404",
"}.	c #8E0000",
"|.	c #8F0000",
"1.	c #7F0909",
"2.	c #920101",
"3.	c #8B0404",
"4.	c #940000",
"5.	c #840909",
"6.	c #980101",
"7.	c #900404",
"8.	c #9A0000",
"9.	c #990000",
"0.	c #880808",
"a.	c #890909",
"b.	c #9D0101",
"c.	c #960404",
"d.	c #9F0000",
"e.	c #990303",
"f.	c #9C0202",
"g.	c #8C0808",
"h.	c #8E0909",
"i.	c #A30101",
"j.	c #9B0404",
"k.	c #A50000",
"l.	c #940707",
"m.	c #9A0505",
"n.	c #9E0303",
"o.	c #930909",
"p.	c #A80101",
"q.	c #A00404",
"r.	c #AA0000",
"s.	c #AB0000",
"t.	c #980707",
"u.	c #A00505",
"v.	c #A90101",
"w.	c #980909",
"x.	c #AE0101",
"y.	c #A60404",
"z.	c #B00000",
"A.	c #AF0101",
"B.	c #B10000",
"C.	c #A20606",
"D.	c #9C0909",
"E.	c #B40101",
"F.	c #AB0404",
"G.	c #B50000",
"H.	c #B60000",
"I.	c #A90707",
"J.	c #AD0505",
"K.	c #B00404",
"L.	c #BB0000",
"M.	c #BC0000",
"N.	c #B10404",
"O.	c #AD0707",
"P.	c #BD0101",
"Q.	c #B70303",
"R.	c #B40505",
"S.	c #BF0101",
"T.	c #C10000",
"U.	c #A80909",
"V.	c #AB0909",
"W.	c #BE0303",
"X.	c #C00202",
"Y.	c #B80505",
"Z.	c #C20202",
"`.	c #C60000",
" +	c #C70000",
".+	c #C10202",
"++	c #AE0909",
"@+	c #B90606",
"#+	c #C30303",
"$+	c #CC0000",
"%+	c #CD0000",
"&+	c #B90707",
"*+	c #BD0707",
"=+	c #CF0101",
"-+	c #D10000",
";+	c #D20000",
">+	c #D10101",
",+	c #C30606",
"'+	c #D60000",
")+	c #D70000",
"!+	c #D80000",
"~+	c #C70505",
"{+	c #CC0505",
"]+	c #DC0000",
"^+	c #DD0000",
"/+	c #C10A0A",
"(+	c #D60404",
"_+	c #E20000",
":+	c #E30000",
"<+	c #D80303",
"[+	c #CB0808",
"}+	c #DF0303",
"|+	c #E80000",
"1+	c #CD0808",
"2+	c #D50707",
"3+	c #E80202",
"4+	c #EE0000",
"5+	c #E90202",
"6+	c #DB0707",
"7+	c #F20101",
"8+	c #F30000",
"9+	c #DD0606",
"0+	c #E30606",
"a+	c #F80000",
"b+	c #C90D0D",
"                                                  . +                                           ",
"                                              @ # $ %                                           ",
"                                            & * = - ;                                           ",
"                                        > , , ' ) ) )                                           ",
"                                        ! ~ { ] ] ] ]                                           ",
"                                        ^ / ( _ _ _ _                                           ",
"                                        : < [ } } | |                                           ",
"                                        1 2 3 4 4 4 4                                           ",
"                                        5 6 7 8 8 8 8                                           ",
"                                        9 0 a b b b b                                           ",
"                                        c d e f f f f                                           ",
"                                        g h i j j k k                                           ",
"                                        l m n o o o o                                           ",
"                                        p q r s s s s                                           ",
"                                        t u v w w w x                                           ",
"                                        y z A B B B B                                           ",
"                                        C D E F G G G                                           ",
"                                        H I J K K K L                                           ",
"                                        M N O P P P P                                           ",
"                                        Q R S T T U U                                           ",
"                                        V W X Y Y Y Y                                           ",
"                                        Z `  .........                                          ",
"                                        +.@.#.$.$.$.%.                                          ",
"                                        &.*.=.-.-.-.-.                                          ",
"                                        ;.>.,.'.'.).).                                          ",
"                                        !.~.{.].].].].                                          ",
"                                        ^./.(._._._._.                                          ",
"                                        :.<.[.}.}.}.|.                                          ",
"                                        1.2.3.4.4.4.4.                                          ",
"                                        5.6.7.8.9.8.8.      0.                                  ",
"                                        a.b.c.d.d.d.d.    e.f.g.                                ",
"                                        h.i.j.k.k.k.k.l.k.m.n.l.                                ",
"                                        o.p.q.r.r.s.s.t.u.r.v.                                  ",
"                                        w.x.y.z.z.z.z.A.B.B.C.                                  ",
"                                        D.E.F.G.H.H.H.H.H.H.                                    ",
"                                        I.J.K.L.L.L.M.M.M.N.                                    ",
"                                    O.P.Q.R.S.T.T.T.T.T.T.U.                                    ",
"                                V.W.X.Y.Z.`.`.`. + + + +.+                                      ",
"                                ++@+#+$+$+$+$+$+$+$+$+%+&+                                      ",
"                                  *+=+-+-+-+-+;+;+;+;+>+                                        ",
"                                    ,+'+)+)+)+)+)+)+!+~+                                        ",
"                                      {+]+^+^+^+^+^+^+                                          ",
"                                      /+(+_+_+_+:+:+<+                                          ",
"                                        [+}+|+|+|+|+1+                                          ",
"                                          2+3+4+4+5+                                            ",
"                                            6+7+8+9+                                            ",
"                                              0+a+                                              ",
"                                                b+                                              "};
