/* XPM */
static char * panelYXBetween_xpm[] = {
"48 48 682 2",
"  	c None",
". 	c #9191D4",
"+ 	c #9695E8",
"@ 	c #C3A1CC",
"# 	c #F2BCBD",
"$ 	c #DEB4B4",
"% 	c #7F7FE4",
"& 	c #A98AD3",
"* 	c #E799A3",
"= 	c #FFB1B1",
"- 	c #FFBDBD",
"; 	c #FFC9C9",
"> 	c #F7CDCE",
", 	c #D3B7B7",
"' 	c #6868DD",
") 	c #8C76DF",
"! 	c #D67B9C",
"~ 	c #FF9191",
"{ 	c #FF9D9D",
"] 	c #FFA9A9",
"^ 	c #FFB5B5",
"/ 	c #FFC1C1",
"( 	c #FFCDCD",
"_ 	c #FFD8D9",
": 	c #EFD5D5",
"< 	c #5252D3",
"[ 	c #6F64E8",
"} 	c #C262A5",
"| 	c #F96E6E",
"1 	c #FF7D7D",
"2 	c #FF8989",
"3 	c #FF9595",
"4 	c #FFA1A1",
"5 	c #FFADAD",
"6 	c #FFB9B8",
"7 	c #FFC4C4",
"8 	c #FFD0D0",
"9 	c #FFDCDC",
"0 	c #FFE8E8",
"a 	c #E5D9D9",
"b 	c #5050E7",
"c 	c #A64FBA",
"d 	c #EE4E5B",
"e 	c #FF5D5D",
"f 	c #FF6969",
"g 	c #FF7575",
"h 	c #FF8181",
"i 	c #FF8C8C",
"j 	c #FF9898",
"k 	c #FFA4A4",
"l 	c #FFB0B0",
"m 	c #FFBCBC",
"n 	c #FFC8C8",
"o 	c #FFD4D4",
"p 	c #FFE0E0",
"q 	c #FFECEC",
"r 	c #FBF4F4",
"s 	c #DCDCDC",
"t 	c #3C3BE2",
"u 	c #8440D1",
"v 	c #E13362",
"w 	c #FF3D3D",
"x 	c #FF4949",
"y 	c #FF5555",
"z 	c #FF6060",
"A 	c #FF6C6C",
"B 	c #FF7878",
"C 	c #FF8484",
"D 	c #FF9090",
"E 	c #FF9C9C",
"F 	c #FFA8A8",
"G 	c #FFB4B4",
"H 	c #FFC0C0",
"I 	c #FFCCCC",
"J 	c #FFD8D8",
"K 	c #FFE4E4",
"L 	c #FFF0F0",
"M 	c #FFFBFB",
"N 	c #F4F4F4",
"O 	c #D0D0D0",
"P 	c #2828DB",
"Q 	c #5A31DF",
"R 	c #CC227F",
"S 	c #FC1D1D",
"T 	c #FF2929",
"U 	c #FF3435",
"V 	c #FF4040",
"W 	c #FF4C4C",
"X 	c #FF5858",
"Y 	c #FF6464",
"Z 	c #FF7070",
"` 	c #FF7C7C",
" .	c #FF8888",
"..	c #FF9494",
"+.	c #FFA0A0",
"@.	c #FFACAC",
"#.	c #FFB8B8",
"$.	c #FFC4C3",
"%.	c #FFCFD0",
"&.	c #FFDBDB",
"*.	c #FFE7E7",
"=.	c #FFF3F3",
"-.	c #FFFDFD",
";.	c #FFFFFF",
">.	c #EDEDED",
",.	c #1818CF",
"'.	c #3620E5",
").	c #B11CA3",
"!.	c #F80312",
"~.	c #FF0808",
"{.	c #FF1515",
"].	c #FF2020",
"^.	c #FF2C2C",
"/.	c #FF3838",
"(.	c #FF4444",
"_.	c #FF5050",
":.	c #FF5C5C",
"<.	c #FF6868",
"[.	c #FF7474",
"}.	c #FF8080",
"|.	c #FF9798",
"1.	c #FFA3A4",
"2.	c #FFAFAF",
"3.	c #FFBBBB",
"4.	c #FFC7C7",
"5.	c #FFD3D3",
"6.	c #FFDFDF",
"7.	c #FFEBEB",
"8.	c #FFF7F7",
"9.	c #FEFEFE",
"0.	c #E2E2E2",
"a.	c #0F10E7",
"b.	c #9013BF",
"c.	c #EC063D",
"d.	c #FF0000",
"e.	c #FF0202",
"f.	c #FF0C0C",
"g.	c #FF1818",
"h.	c #FF2424",
"i.	c #FF3030",
"j.	c #FF3C3C",
"k.	c #FF4848",
"l.	c #FF5454",
"m.	c #FF6B6C",
"n.	c #FF7777",
"o.	c #FF8383",
"p.	c #FF8F8F",
"q.	c #FF9B9B",
"r.	c #FFA7A7",
"s.	c #FFB3B3",
"t.	c #FFBFBF",
"u.	c #FFCBCB",
"v.	c #FFD7D7",
"w.	c #FFE3E3",
"x.	c #FFEFEF",
"y.	c #FFFAFA",
"z.	c #FAFAFA",
"A.	c #C7C7CB",
"B.	c #0808E1",
"C.	c #6908D5",
"D.	c #DC0762",
"E.	c #FF0404",
"F.	c #FF1010",
"G.	c #FF1C1C",
"H.	c #FF2828",
"I.	c #FF3434",
"J.	c #FF5757",
"K.	c #FF6363",
"L.	c #FF6F6F",
"M.	c #FF7B7B",
"N.	c #FF8787",
"O.	c #FF9393",
"P.	c #FF9F9F",
"Q.	c #FFABAB",
"R.	c #FFB7B7",
"S.	c #FFC3C3",
"T.	c #FFCFCF",
"U.	c #FFE6E6",
"V.	c #FFF2F2",
"W.	c #FBFBFB",
"X.	c #CACAE6",
"Y.	c #9F9FE9",
"Z.	c #8E8ECA",
"`.	c #0A0AD9",
" +	c #4306E2",
".+	c #C2078A",
"++	c #FD0100",
"@+	c #FF0708",
"#+	c #FF1414",
"$+	c #FF2B2B",
"%+	c #FF3737",
"&+	c #FF4343",
"*+	c #FF4F4F",
"=+	c #FF5B5B",
"-+	c #FF6767",
";+	c #FF7373",
">+	c #FF7F7F",
",+	c #FF8B8B",
"'+	c #FF9797",
")+	c #FFA3A3",
"!+	c #FFBABA",
"~+	c #FFC6C6",
"{+	c #FFD2D2",
"]+	c #FFDEDE",
"^+	c #FFEAEA",
"/+	c #FEF5F5",
"(+	c #D8D8E8",
"_+	c #9A9AE9",
":+	c #9191E6",
"<+	c #A4A4F0",
"[+	c #A7A7E7",
"}+	c #0D0DCB",
"|+	c #1006E7",
"1+	c #A607AC",
"2+	c #F60217",
"3+	c #FF0101",
"4+	c #FF0B0C",
"5+	c #FF1717",
"6+	c #FF2323",
"7+	c #FF2F2F",
"8+	c #FF3B3B",
"9+	c #FF4747",
"0+	c #FF5353",
"a+	c #FF5F5F",
"b+	c #FF6B6B",
"c+	c #FF7776",
"d+	c #FF8E8E",
"e+	c #FF9A9A",
"f+	c #FFA6A6",
"g+	c #FFB2B2",
"h+	c #FFBEBE",
"i+	c #FFCACA",
"j+	c #FFD6D6",
"k+	c #E8CED7",
"l+	c #A19AE3",
"m+	c #8080E8",
"n+	c #8C8CE8",
"o+	c #A6A6FF",
"p+	c #B2B2FF",
"q+	c #ABABE7",
"r+	c #0707E6",
"s+	c #8707C5",
"t+	c #E8044A",
"u+	c #FF0304",
"v+	c #FF0F0F",
"w+	c #FF1B1B",
"x+	c #FF2727",
"y+	c #FF3333",
"z+	c #FF3F3F",
"A+	c #FF4B4B",
"B+	c #FF6262",
"C+	c #FF6E6E",
"D+	c #FF7A7A",
"E+	c #FF8686",
"F+	c #FF9292",
"G+	c #FF9E9E",
"H+	c #FFAAAA",
"I+	c #FFB6B6",
"J+	c #F2B8BA",
"K+	c #B194D3",
"L+	c #6F6FE9",
"M+	c #7878E6",
"N+	c #9090FC",
"O+	c #9E9EFF",
"P+	c #AAAAFF",
"Q+	c #B6B6FF",
"R+	c #AFAFE7",
"S+	c #0909DE",
"T+	c #6006D9",
"U+	c #D4066D",
"V+	c #FF0707",
"W+	c #FF1313",
"X+	c #FF1F1F",
"Y+	c #FF3736",
"Z+	c #FF4242",
"`+	c #FF4E4E",
" @	c #FF5A5A",
".@	c #FF6666",
"+@	c #FF7272",
"@@	c #FF7E7E",
"#@	c #FF8A8A",
"$@	c #FF9696",
"%@	c #FCA0A0",
"&@	c #C48ABB",
"*@	c #6F65E9",
"=@	c #6666E7",
"-@	c #7978F4",
";@	c #8A8AFF",
">@	c #9696FF",
",@	c #A2A2FF",
"'@	c #AFAFFF",
")@	c #BBBBFF",
"!@	c #B3B3E7",
"~@	c #0B0BD6",
"{@	c #3B06E3",
"]@	c #BD0792",
"^@	c #FB0102",
"/@	c #FF0B0B",
"(@	c #FF1617",
"_@	c #FF2222",
":@	c #FF2E2E",
"<@	c #FF3A3A",
"[@	c #FF4646",
"}@	c #FF5252",
"|@	c #FF5E5E",
"1@	c #FF6A6A",
"2@	c #FF7676",
"3@	c #FF8282",
"4@	c #D87A9C",
"5@	c #7859DC",
"6@	c #5454E7",
"7@	c #6262ED",
"8@	c #7676FF",
"9@	c #8282FF",
"0@	c #8E8EFF",
"a@	c #9A9AFF",
"b@	c #A7A7FF",
"c@	c #B3B3FF",
"d@	c #BFBFFF",
"e@	c #B7B7E7",
"f@	c #0706E8",
"g@	c #9E07B4",
"h@	c #F3031B",
"i@	c #FF0303",
"j@	c #FF0E0E",
"k@	c #FF1A1A",
"l@	c #FF2626",
"m@	c #FF3232",
"n@	c #FF3E3E",
"o@	c #FF4A4A",
"p@	c #FF5656",
"q@	c #EA6575",
"r@	c #924FC9",
"s@	c #4343EA",
"t@	c #4E4EE8",
"u@	c #6161FE",
"v@	c #6E6EFF",
"w@	c #7A7AFF",
"x@	c #8686FF",
"y@	c #9393FF",
"z@	c #9F9FFF",
"A@	c #ABABFF",
"B@	c #B8B8FF",
"C@	c #C4C4FF",
"D@	c #BCBBE7",
"E@	c #0707E4",
"F@	c #7E07CA",
"G@	c #E5054A",
"H@	c #FF0606",
"I@	c #FF1212",
"J@	c #FF1E1E",
"K@	c #FF2A2A",
"L@	c #FF3636",
"M@	c #F74B4D",
"N@	c #AF42AE",
"O@	c #3231E9",
"P@	c #3B3BE6",
"Q@	c #4C4CF8",
"R@	c #5A5AFF",
"S@	c #6666FF",
"T@	c #7272FF",
"U@	c #7E7FFF",
"V@	c #8B8BFF",
"W@	c #9797FF",
"X@	c #A3A3FF",
"Y@	c #B0B0FF",
"Z@	c #BCBCFF",
"`@	c #C8C8FF",
" #	c #C0C0E7",
".#	c #0C0CCF",
"+#	c #B00C76",
"@#	c #FF0A0A",
"##	c #FF1616",
"$#	c #FF2121",
"%#	c #FC2D2D",
"&#	c #C82F87",
"*#	c #4A23E2",
"=#	c #2A2AE6",
"-#	c #3838F4",
";#	c #4646FF",
">#	c #5252FF",
",#	c #5E5EFF",
"'#	c #6A6AFF",
")#	c #7777FF",
"!#	c #8383FF",
"~#	c #8F8FFF",
"{#	c #9C9CFF",
"]#	c #A8A8FF",
"^#	c #B4B4FF",
"/#	c #C0C0FF",
"(#	c #CDCDFF",
"_#	c #C4C4E7",
":#	c #0808E3",
"<#	c #D40A28",
"[#	c #E60707",
"}#	c #F40303",
"|#	c #DE185E",
"1#	c #7116D4",
"2#	c #1919E7",
"3#	c #2424EC",
"4#	c #3232FF",
"5#	c #3E3EFF",
"6#	c #4A4AFF",
"7#	c #5656FF",
"8#	c #6363FF",
"9#	c #6F6FFF",
"0#	c #7B7BFF",
"a#	c #8888FF",
"b#	c #9494FF",
"c#	c #A0A0FF",
"d#	c #ACACFF",
"e#	c #B9B9FF",
"f#	c #C5C5FF",
"g#	c #D1D1FF",
"h#	c #C8C8E7",
"i#	c #0B08E0",
"j#	c #AB07A8",
"k#	c #E80608",
"l#	c #FB0101",
"m#	c #EE0434",
"n#	c #9408BB",
"o#	c #0A0AE9",
"p#	c #1313E7",
"q#	c #1E1EFF",
"r#	c #2A2AFF",
"s#	c #3636FF",
"t#	c #4242FF",
"u#	c #4F4FFF",
"v#	c #5B5BFF",
"w#	c #6767FF",
"x#	c #7373FF",
"y#	c #8080FF",
"z#	c #8C8CFF",
"A#	c #9898FF",
"B#	c #A5A5FF",
"C#	c #B1B1FF",
"D#	c #BDBDFF",
"E#	c #C9C9FF",
"F#	c #D6D6FF",
"G#	c #CCCCE7",
"H#	c #0606EA",
"I#	c #0000FF",
"J#	c #4304E9",
"K#	c #C40786",
"L#	c #E90606",
"M#	c #FE0000",
"N#	c #F90200",
"O#	c #B2079F",
"P#	c #2906E6",
"Q#	c #0707E7",
"R#	c #0B0BF9",
"S#	c #1616FF",
"T#	c #2222FF",
"U#	c #2E2EFF",
"V#	c #3A3AFF",
"W#	c #4747FF",
"X#	c #5353FF",
"Y#	c #5F5FFF",
"Z#	c #6C6CFF",
"`#	c #7878FF",
" $	c #8484FF",
".$	c #9090FF",
"+$	c #9D9DFF",
"@$	c #A9A9FF",
"#$	c #B5B5FF",
"$$	c #C2C2FF",
"%$	c #CECEFF",
"&$	c #DADAFF",
"*$	c #D0D0E7",
"=$	c #6C06D4",
"-$	c #D80662",
";$	c #E70707",
">$	c #F00404",
",$	c #CC067B",
"'$	c #5306DD",
")$	c #0404F2",
"!$	c #0202FF",
"~$	c #0E0EFF",
"{$	c #1A1AFF",
"]$	c #2626FF",
"^$	c #3333FF",
"/$	c #3F3FFF",
"($	c #4B4BFF",
"_$	c #5757FF",
":$	c #6464FF",
"<$	c #7070FF",
"[$	c #7C7CFF",
"}$	c #8989FF",
"|$	c #9595FF",
"1$	c #A1A1FF",
"2$	c #AEADFF",
"3$	c #BABAFF",
"4$	c #C6C6FF",
"5$	c #D2D2FF",
"6$	c #DFDFFF",
"7$	c #D4D4E7",
"8$	c #0101FB",
"9$	c #9307BC",
"0$	c #E40637",
"a$	c #E30553",
"b$	c #7B07CC",
"c$	c #0606E8",
"d$	c #0505EB",
"e$	c #0606FF",
"f$	c #1212FF",
"g$	c #1F1FFF",
"h$	c #2B2BFF",
"i$	c #3737FF",
"j$	c #4343FF",
"k$	c #5050FF",
"l$	c #5C5CFF",
"m$	c #6868FF",
"n$	c #7575FF",
"o$	c #8181FF",
"p$	c #8D8DFF",
"q$	c #9999FF",
"r$	c #BEBEFF",
"s$	c #CBCBFF",
"t$	c #D7D7FF",
"u$	c #E3E3FF",
"v$	c #D8D8E7",
"w$	c #2403F2",
"x$	c #B3079E",
"y$	c #EB0513",
"z$	c #FC0101",
"A$	c #F20328",
"B$	c #9F07B2",
"C$	c #0306E9",
"D$	c #0101FD",
"E$	c #0101FF",
"F$	c #0B0BFF",
"G$	c #1717FF",
"H$	c #2323FF",
"I$	c #2F2FFF",
"J$	c #3C3CFF",
"K$	c #4848FF",
"L$	c #5454FF",
"M$	c #6060FF",
"N$	c #6D6DFF",
"O$	c #7979FF",
"P$	c #8585FF",
"Q$	c #9292FF",
"R$	c #C3C3FF",
"S$	c #CFCFFF",
"T$	c #DBDBFF",
"U$	c #E8E8FF",
"V$	c #DCDCE7",
"W$	c #530FE2",
"X$	c #CB0D7D",
"Y$	c #E80606",
"Z$	c #EB0505",
"`$	c #BB0794",
" %	c #3406E4",
".%	c #0202F6",
"+%	c #0303FF",
"@%	c #0F0FFF",
"#%	c #1B1BFF",
"$%	c #2828FF",
"%%	c #3434FF",
"&%	c #4040FF",
"*%	c #4C4CFF",
"=%	c #5959FF",
"-%	c #6565FF",
";%	c #7171FF",
">%	c #7D7DFF",
",%	c #C7C7FF",
"'%	c #D4D3FF",
")%	c #E0E0FF",
"!%	c #ECECFF",
"~%	c #E0E0E7",
"{%	c #0505FF",
"]%	c #2020FE",
"^%	c #7D24CE",
"/%	c #DC125B",
"(%	c #D30670",
"_%	c #5B06DB",
":%	c #0404F0",
"<%	c #0707FF",
"[%	c #1414FF",
"}%	c #2020FF",
"|%	c #2C2CFF",
"1%	c #3838FF",
"2%	c #4545FF",
"3%	c #5151FF",
"4%	c #5D5DFF",
"5%	c #6969FF",
"6%	c #CCCCFF",
"7%	c #D8D8FF",
"8%	c #E4E4FF",
"9%	c #F0F1FF",
"0%	c #E4E4E7",
"a%	c #0909FF",
"b%	c #2424FF",
"c%	c #3131FF",
"d%	c #3C3DF8",
"e%	c #A235B6",
"f%	c #E60C29",
"g%	c #950D91",
"h%	c #0606E9",
"i%	c #0C0CFF",
"j%	c #1818FF",
"k%	c #3130FF",
"l%	c #3D3DFF",
"m%	c #4949FF",
"n%	c #5555FF",
"o%	c #6261FF",
"p%	c #B8B7FF",
"q%	c #D0D0FF",
"r%	c #DCDCFF",
"s%	c #E9E9FF",
"t%	c #F5F5FF",
"u%	c #E6E6E7",
"v%	c #3535FF",
"w%	c #4040F7",
"x%	c #4040D3",
"y%	c #4409D4",
"z%	c #0606E7",
"A%	c #0404FF",
"B%	c #1010FF",
"C%	c #1C1CFF",
"D%	c #2929FF",
"E%	c #4141FF",
"F%	c #4D4DFF",
"G%	c #7F7FFF",
"H%	c #D5D5FF",
"I%	c #E1E1FF",
"J%	c #EDEDFF",
"K%	c #DEDEE4",
"L%	c #2C2CFB",
"M%	c #3131DD",
"N%	c #0808DF",
"O%	c #0808FF",
"P%	c #1515FF",
"Q%	c #2121FF",
"R%	c #2D2DFF",
"S%	c #3939FF",
"T%	c #D9D9FF",
"U%	c #D6D6EF",
"V%	c #2020E7",
"W%	c #0D0DFF",
"X%	c #1919FF",
"Y%	c #2525FF",
"Z%	c #3132FF",
"`%	c #8788FF",
" &	c #CACAF6",
".&	c #B7B7D6",
"+&	c #0E0EF2",
"@&	c #1111FF",
"#&	c #1E1DFF",
"$&	c #BCBCFD",
"%&	c #AFAFDF",
"&&	c #0303F6",
"*&	c #0C0CD6",
"=&	c #A4A4E9",
"-&	c #0000FD",
";&	c #0808E0",
">&	c #9898F2",
",&	c #8787CB",
"'&	c #4443FF",
")&	c #7475FF",
"!&	c #8989F9",
"~&	c #8080D9",
"{&	c #0A0ADA",
"]&	c #0D0DCC",
"^&	c #0A0AFF",
"/&	c #7979FE",
"(&	c #7474E1",
"_&	c #6768EC",
":&	c #1314FF",
"<&	c #4445FF",
"[&	c #5858F3",
"}&	c #5353CF",
"|&	c #3030FF",
"1&	c #4848FB",
"2&	c #4747DB",
"3&	c #3939E2",
"4&	c #2A2AEE",
"5&	c #1818F7",
"6&	c #2020D3",
"7&	c #0606FB",
"8&	c #1212DD",
"9&	c #1010B6",
"                                                                                                ",
"                                                            .                                   ",
"                                                          + @ # $                               ",
"                                                      % & * = - ; > ,                           ",
"                                                  ' ) ! ~ { ] ^ / ( _ :                         ",
"                                              < [ } | 1 2 3 4 5 6 7 8 9 0 a                     ",
"                                            b c d e f g h i j k l m n o p q r s                 ",
"                                        t u v w x y z A B C D E F G H I J K L M N O             ",
"                                    P Q R S T U V W X Y Z `  ...+.@.#.$.%.&.*.=.-.;.>.          ",
"                                ,.'.).!.~.{.].^./.(._.:.<.[.}.i |.1.2.3.4.5.6.7.8.;.;.9.0.      ",
"                              a.b.c.d.d.e.f.g.h.i.j.k.l.z m.n.o.p.q.r.s.t.u.v.w.x.y.;.;.;.z.A.  ",
"                          B.C.D.d.d.d.d.d.E.F.G.H.I.V W J.K.L.M.N.O.P.Q.R.S.T.&.U.V.-.;.W.X.Y.Z.",
"                      `. +.+++d.d.d.d.d.d.d.@+#+].$+%+&+*+=+-+;+>+,+'+)+2.!+~+{+]+^+/+(+_+:+<+[+",
"                  }+|+1+2+d.d.d.d.d.d.d.d.d.3+4+5+6+7+8+9+0+a+b+c+o.d+e+f+g+h+i+j+k+l+m+n+o+p+q+",
"                r+s+t+d.d.d.d.d.d.d.d.d.d.d.d.u+v+w+x+y+z+A+J.B+C+D+E+F+G+H+I+J+K+L+M+N+O+P+Q+R+",
"            S+T+U+d.d.d.d.d.d.d.d.d.d.d.d.d.d.d.V+W+X+$+Y+Z+`+ @.@+@@@#@$@%@&@*@=@-@;@>@,@'@)@!@",
"        ~@{@]@^@d.d.d.d.d.d.d.d.d.d.d.d.d.d.d.d.3+/@(@_@:@<@[@}@|@1@2@3@4@5@6@7@8@9@0@a@b@c@d@e@",
"      f@g@h@d.d.d.d.d.d.d.d.d.d.d.d.d.d.d.d.d.d.d.i@j@k@l@m@n@o@p@B+q@r@s@t@u@v@w@x@y@z@A@B@C@D@",
"  E@F@G@d.d.d.d.d.d.d.d.d.d.d.d.d.d.d.d.d.d.d.d.d.d.H@I@J@K@L@Z+M@N@O@P@Q@R@S@T@U@V@W@X@Y@Z@`@ #",
".#+#d.d.d.d.d.d.d.d.d.d.d.d.d.d.d.d.d.d.d.d.d.d.d.d.3+@###$#%#&#*#=#-#;#>#,#'#)#!#~#{#]#^#/#(#_#",
":#<#[#}#d.d.d.d.d.d.d.d.d.d.d.d.d.d.d.d.d.d.d.d.d.d.d.e.j@|#1#2#3#4#5#6#7#8#9#0#a#b#c#d#e#f#g#h#",
":#i#j#k#[#l#d.d.d.d.d.d.d.d.d.d.d.d.d.d.d.d.d.d.d.d.d.m#n#o#p#q#r#s#t#u#v#w#x#y#z#A#B#C#D#E#F#G#",
":#H#I#J#K#L#L#M#d.d.d.d.d.d.d.d.d.d.d.d.d.d.d.d.d.N#O#P#Q#R#S#T#U#V#W#X#Y#Z#`# $.$+$@$#$$$%$&$*$",
":#H#I#I#I#=$-$;$>$d.d.d.d.d.d.d.d.d.d.d.d.d.d.d.,$'$r+)$!$~${$]$^$/$($_$:$<$[$}$|$1$2$3$4$5$6$7$",
":#H#I#I#I#I#8$9$0$[#}#d.d.d.d.d.d.d.d.d.d.d.a$b$c$d$I#I#e$f$g$h$i$j$k$l$m$n$o$p$q$o+p+r$s$t$u$v$",
":#H#I#I#I#I#I#I#w$x$y$[#z$d.d.d.d.d.d.d.A$B$C$r+D$I#I#E$F$G$H$I$J$K$L$M$N$O$P$Q$O+P+Q+R$S$T$U$V$",
":#H#I#I#I#I#I#I#I#!$W$X$Y$Z$d.d.d.d.^@`$ %r+.%I#I#I#I#+%@%#%$%%%&%*%=%-%;%>%;@>@,@'@)@,%'%)%!%~%",
":#H#I#I#I#I#I#I#I#{%f$]%^%/%[#>$d.(%_%r+:%I#I#I#I#I#I#<%[%}%|%1%2%3%4%5%8@9@0@a@b@c@d@6%7%8%9%0%",
":#H#I#I#I#I#I#I#I#a%G$b%c%d%e%f%g%E@h%I#I#I#I#I#I#I#E$i%j%b%k%l%m%n%o%v@w@x@y@z@A@p%C@q%r%s%t%u%",
":#H#I#I#I#I#I#I#!$~$#%$%v%w%x%  y%z%I#I#I#I#I#I#I#I#A%B%C%D%v%E%F%R@S@T@G%V@W@X@Y@Z@`@H%I%J%K%  ",
":#H#I#I#I#I#I#I#{%f$g$L%M%      N%z%I#I#I#I#I#I#I#I#O%P%Q%R%S%;#>#,#'#)#!#~#{#]#^#/#(#T%U%      ",
":#H#I#I#I#I#I#I#a%S#V%          N%z%I#I#I#I#I#I#I#!$W%X%Y%Z%5#6#7#8#9#0#`%b#c#d#e#f# &.&        ",
":#H#I#I#I#I#I#!$+&              N%z%I#I#I#I#I#I#I#{%@&#&r#s#t#u#v#w#x#y#z#A#B#C#$&%&            ",
":#H#I#I#I#I#&&*&                N%z%I#I#I#I#I#I#I#a%S#T#U#V#W#X#Y#Z#`# $.$+$@$=&                ",
":#H#I#I#-&;&                    N%z%I#I#I#I#I#I#!$~${$]$^$/$($_$:$<$[$}$|$>&,&                  ",
":#H#I#h%                        N%z%I#I#I#I#I#I#e$f$g$h$i$'&k$l$m$)&o$!&~&                      ",
"S+{&]&                          N%z%I#I#I#I#I#E$^&G$H$I$J$K$L$M$N$/&(&                          ",
"                                N%z%I#I#I#I#I#+%@%#%$%%%&%*%=%-%_&                              ",
"                                N%z%I#I#I#I#I#<%:&}%|%1%<&3%[&}&                                ",
"                                N%z%I#I#I#I#E$i%j%b%|&l%1&2&                                    ",
"                                N%z%I#I#I#I#A%B%C%D%v%3&                                        ",
"                                N%z%I#I#I#I#O%P%Q%4&                                            ",
"                                N%z%I#I#I#!$W%5&6&                                              ",
"                                N%z%I#I#I#7&8&                                                  ",
"                                N%z%I#I#Q#                                                      ",
"                                N%z%:%                                                          ",
"                                  9&                                                            ",
"                                                                                                "};
