/* XPM */
static char * panelYXFace_xpm[] = {
"48 48 388 2",
"  	c None",
". 	c #DFDEDE",
"+ 	c #D3D3D3",
"@ 	c #D9BCBC",
"# 	c #FAE5E5",
"$ 	c #FFF3F4",
"% 	c #FFFCFC",
"& 	c #EFEFEF",
"* 	c #F3BDBD",
"= 	c #FFD1D1",
"- 	c #FFDBDB",
"; 	c #FFE4E4",
"> 	c #FFEEEE",
", 	c #FFF8F8",
"' 	c #FFFEFE",
") 	c #E5E5E5",
"! 	c #E99595",
"~ 	c #FFAEAE",
"{ 	c #FFB8B8",
"] 	c #FFC2C2",
"^ 	c #FFCCCC",
"/ 	c #FFD5D5",
"( 	c #FFDFDF",
"_ 	c #FFE9E9",
": 	c #FFF3F3",
"< 	c #FAFAFA",
"[ 	c #DCDCDC",
"} 	c #DF6F6F",
"| 	c #FC8A8A",
"1 	c #FF9595",
"2 	c #FF9F9F",
"3 	c #FFA9A9",
"4 	c #FFB3B3",
"5 	c #FFBDBD",
"6 	c #FFC6C7",
"7 	c #FFD0D0",
"8 	c #FFDADA",
"9 	c #FFF7F7",
"0 	c #F3F3F3",
"a 	c #D0D0D0",
"b 	c #D64D4D",
"c 	c #F66565",
"d 	c #FF7373",
"e 	c #FF7C7C",
"f 	c #FF8686",
"g 	c #FF9090",
"h 	c #FF9A9A",
"i 	c #FFA4A4",
"j 	c #FFADAE",
"k 	c #FFB7B7",
"l 	c #FFC1C1",
"m 	c #FFCBCB",
"n 	c #FFE9E8",
"o 	c #FFF2F2",
"p 	c #FFFBFB",
"q 	c #FFFFFF",
"r 	c #EDEDED",
"s 	c #F04242",
"t 	c #FF5050",
"u 	c #FF5A5A",
"v 	c #FF6364",
"w 	c #FF6D6D",
"x 	c #FF7777",
"y 	c #FF8181",
"z 	c #FF8B8B",
"A 	c #FF9E9E",
"B 	c #FFA8A8",
"C 	c #FFB2B2",
"D 	c #FFBCBC",
"E 	c #FFC6C6",
"F 	c #FFDAD9",
"G 	c #FFE3E3",
"H 	c #FFEDED",
"I 	c #E2E2E2",
"J 	c #E72121",
"K 	c #FF2D2D",
"L 	c #FF3737",
"M 	c #FF4141",
"N 	c #FF4B4B",
"O 	c #FF5555",
"P 	c #FF5E5E",
"Q 	c #FF6868",
"R 	c #FF7272",
"S 	c #FF8F90",
"T 	c #FF9999",
"U 	c #FFA3A3",
"V 	c #FFADAD",
"W 	c #FFCACA",
"X 	c #FFD4D4",
"Y 	c #FFDEDE",
"Z 	c #FFE8E8",
"` 	c #F2EEEE",
" .	c #E4E3E3",
"..	c #DD0A0A",
"+.	c #FB0B0B",
"@.	c #FF1515",
"#.	c #FF1E1E",
"$.	c #FF2828",
"%.	c #FF3232",
"&.	c #FF3C3C",
"*.	c #FF4646",
"=.	c #FF4F4F",
"-.	c #FF5959",
";.	c #FF6363",
">.	c #FF8080",
",.	c #FF8A8A",
"'.	c #FF9494",
").	c #FFB1B2",
"!.	c #FFBBBB",
"~.	c #FFC5C5",
"{.	c #FFCFCF",
"].	c #F8D3D3",
"^.	c #E8CFCF",
"/.	c #DACBCB",
"(.	c #D30B0B",
"_.	c #F40303",
":.	c #FF0000",
"<.	c #FF0100",
"[.	c #FF0606",
"}.	c #FF1010",
"|.	c #FF1919",
"1.	c #FF2323",
"2.	c #FF3736",
"3.	c #FF4040",
"4.	c #FF4A4A",
"5.	c #FF5454",
"6.	c #FF7171",
"7.	c #FF7B7B",
"8.	c #FF8585",
"9.	c #FF8F8F",
"0.	c #FFA2A3",
"a.	c #FFACAC",
"b.	c #FEB6B6",
"c.	c #E9B0B0",
"d.	c #DBADAD",
"e.	c #EC0505",
"f.	c #FF0202",
"g.	c #FF0A0A",
"h.	c #FF1414",
"i.	c #FF3131",
"j.	c #FF3B3B",
"k.	c #FF4545",
"l.	c #FF6262",
"m.	c #FF6C6C",
"n.	c #FF7676",
"o.	c #FF9393",
"p.	c #EE9393",
"q.	c #DE9191",
"r.	c #D69797",
"s.	c #E20808",
"t.	c #FF0505",
"u.	c #FF0F0F",
"v.	c #FF2222",
"w.	c #FF2C2C",
"x.	c #FF3636",
"y.	c #FF5353",
"z.	c #FF5D5D",
"A.	c #FF6767",
"B.	c #F47676",
"C.	c #E57777",
"D.	c #D77979",
"E.	c #DB0909",
"F.	c #FA0202",
"G.	c #FF090A",
"H.	c #FF1413",
"I.	c #FF1D1D",
"J.	c #FF2727",
"K.	c #FF4444",
"L.	c #FF4E4E",
"M.	c #FA5656",
"N.	c #E85959",
"O.	c #DA5D5D",
"P.	c #E90606",
"Q.	c #FF0E0E",
"R.	c #FF1818",
"S.	c #FF2B2C",
"T.	c #FF3535",
"U.	c #E93B3B",
"V.	c #DE4040",
"W.	c #D60852",
"X.	c #FC0101",
"Y.	c #FF0909",
"Z.	c #FF1313",
"`.	c #EF1D1D",
" +	c #DF2323",
".+	c #D72C2C",
"++	c #0702F7",
"@+	c #A006B4",
"#+	c #DF0826",
"$+	c #F60303",
"%+	c #E60A0A",
"&+	c #D71313",
"*+	c #0000FF",
"=+	c #3F03ED",
"-+	c #B90794",
";+	c #E40707",
">+	c #F20404",
",+	c #FB0101",
"'+	c #DC0909",
")+	c #6405DC",
"!+	c #C90873",
"~+	c #E80606",
"{+	c #F80202",
"]+	c #EB0606",
"^+	c #E00808",
"/+	c #D10C0C",
"(+	c #0101FD",
"_+	c #8706C7",
":+	c #D8084C",
"<+	c #FD0000",
"[+	c #F10404",
"}+	c #E30707",
"|+	c #D80A0A",
"1+	c #1403F5",
"2+	c #A706AE",
"3+	c #E1081A",
"4+	c #ED0505",
"5+	c #F70202",
"6+	c #D70A0A",
"7+	c #4604E8",
"8+	c #BE078C",
"9+	c #C00E38",
"0+	c #0C0CCD",
"a+	c #0C0CCF",
"b+	c #0505FF",
"c+	c #1414FF",
"d+	c #2222FF",
"e+	c #1313FF",
"f+	c #0404FF",
"g+	c #3131FF",
"h+	c #2121FF",
"i+	c #1212FF",
"j+	c #3F3FFF",
"k+	c #3030FF",
"l+	c #2020FF",
"m+	c #1111FF",
"n+	c #0303FF",
"o+	c #4E4EFF",
"p+	c #3E3EFF",
"q+	c #2F2FFF",
"r+	c #1010FF",
"s+	c #5C5CFF",
"t+	c #4D4DFF",
"u+	c #2E2EFF",
"v+	c #1F1FFF",
"w+	c #0202FF",
"x+	c #6B6BFF",
"y+	c #5B5BFF",
"z+	c #4C4CFF",
"A+	c #3D3DFF",
"B+	c #2D2DFF",
"C+	c #1E1EFF",
"D+	c #0F0FFF",
"E+	c #7979FF",
"F+	c #6A6AFF",
"G+	c #4B4BFF",
"H+	c #3C3CFF",
"I+	c #2C2CFF",
"J+	c #1D1DFF",
"K+	c #0E0EFF",
"L+	c #0201FF",
"M+	c #8888FF",
"N+	c #6969FF",
"O+	c #5A5AFF",
"P+	c #4A4AFF",
"Q+	c #3B3BFF",
"R+	c #1C1CFF",
"S+	c #0D0DFF",
"T+	c #0101FF",
"U+	c #9797FF",
"V+	c #8787FF",
"W+	c #7878FF",
"X+	c #6868FF",
"Y+	c #5959FF",
"Z+	c #3A3AFF",
"`+	c #2B2BFF",
" @	c #1B1CFF",
".@	c #0C0CFF",
"+@	c #A5A5FF",
"@@	c #9696FF",
"#@	c #8686FF",
"$@	c #7777FF",
"%@	c #6867FF",
"&@	c #5858FF",
"*@	c #4949FF",
"=@	c #3939FF",
"-@	c #2A2AFF",
";@	c #1B1BFF",
">@	c #0B0BFF",
",@	c #0C0DCF",
"'@	c #B4B4FF",
")@	c #A4A4FF",
"!@	c #9595FF",
"~@	c #8585FF",
"{@	c #7676FF",
"]@	c #6767FF",
"^@	c #5757FF",
"/@	c #4848FF",
"(@	c #3838FF",
"_@	c #2929FF",
":@	c #1A1AFF",
"<@	c #1111CF",
"[@	c #C2C2FF",
"}@	c #B3B3FF",
"|@	c #9494FF",
"1@	c #7575FF",
"2@	c #6666FF",
"3@	c #5656FF",
"4@	c #4747FF",
"5@	c #2828FF",
"6@	c #1919CF",
"7@	c #D1D1FF",
"8@	c #B2B2FF",
"9@	c #A3A3FF",
"0@	c #9393FF",
"a@	c #8484FF",
"b@	c #7474FF",
"c@	c #6565FF",
"d@	c #4646FF",
"e@	c #3737FF",
"f@	c #2323CF",
"g@	c #E0E0FF",
"h@	c #D0D0FF",
"i@	c #C1C1FF",
"j@	c #B1B1FF",
"k@	c #A2A2FF",
"l@	c #9292FF",
"m@	c #8383FF",
"n@	c #6464FF",
"o@	c #5555FF",
"p@	c #4545FF",
"q@	c #2E2ECF",
"r@	c #EEEEFF",
"s@	c #DFDFFF",
"t@	c #CFCFFF",
"u@	c #C0C0FF",
"v@	c #B0B0FF",
"w@	c #A1A1FF",
"x@	c #9192FF",
"y@	c #8282FF",
"z@	c #7373FF",
"A@	c #6363FF",
"B@	c #5454FF",
"C@	c #3939CF",
"D@	c #DDDDE2",
"E@	c #EDEDFF",
"F@	c #DEDEFF",
"G@	c #CECEFF",
"H@	c #BFBFFF",
"I@	c #A0A0FF",
"J@	c #9191FF",
"K@	c #8181FF",
"L@	c #7272FF",
"M@	c #6262FF",
"N@	c #4444CF",
"O@	c #DAD9ED",
"P@	c #DDDDFF",
"Q@	c #BEBEFF",
"R@	c #AFAFFF",
"S@	c #9F9FFF",
"T@	c #9090FF",
"U@	c #8080FF",
"V@	c #7171FF",
"W@	c #5050CF",
"X@	c #BABAD0",
"Y@	c #D0D0F3",
"Z@	c #CDCDFF",
"`@	c #BDBDFF",
" #	c #AEAEFF",
".#	c #9E9EFF",
"+#	c #8F8FFF",
"@#	c #5B5BCF",
"##	c #B9B9DC",
"$#	c #C7C7FA",
"%#	c #BCBCFF",
"&#	c #ADADFF",
"*#	c #9E9DFF",
"=#	c #8E8EFF",
"-#	c #6767CF",
";#	c #B3B3E5",
">#	c #ACACFF",
",#	c #9D9DFF",
"'#	c #7373CF",
")#	c #ADADEF",
"!#	c #ABABFF",
"~#	c #7F7FCF",
"{#	c #9494D3",
"]#	c #7979B7",
"                                                          . +                                   ",
"                                                      @ # $ % &                                 ",
"                                                    * = - ; > , ' )                             ",
"                                                ! ~ { ] ^ / ( _ : % < [                         ",
"                                            } | 1 2 3 4 5 6 7 8 ; > 9 ' 0 a                     ",
"                                        b c d e f g h i j k l m / ( n o p q r                   ",
"                                      s t u v w x y z 1 A B C D E 7 F G H 9 ' q I               ",
"                                  J K L M N O P Q R e f S T U V k l W X Y Z o `  .              ",
"                              ..+.@.#.$.%.&.*.=.-.;.w x >.,.'.A B ).!.~.{.].^./.                ",
"                          (._.:.<.[.}.|.1.K 2.3.4.5.P Q 6.7.8.9.T 0.a.b.c.d.                    ",
"                        e.:.:.:.:.:.f.g.h.#.$.i.j.k.=.-.l.m.n.>.,.o.p.q.r.                      ",
"                    s.:.:.:.:.:.:.:.:.:.t.u.|.v.w.x.3.4.y.z.A.6.B.C.D.                          ",
"                E.F.:.:.:.:.:.:.:.:.:.:.:.f.G.H.I.J.i.j.K.L.M.N.O.                              ",
"              P.:.:.:.:.:.:.:.:.:.:.:.:.:.:.:.t.Q.R.v.S.T.U.V.                                  ",
"              W.P.X.:.:.:.:.:.:.:.:.:.:.:.:.:.:.f.Y.Z.`. +.+                                    ",
"              ++@+#+e.:.:.:.:.:.:.:.:.:.:.:.:.:.:.$+%+&+                                        ",
"              *+*+=+-+;+>+:.:.:.:.:.:.:.:.:.:.,+P.'+                                            ",
"              *+*+*+*+)+!+~+{+:.:.:.:.:.:.:.]+^+/+                                              ",
"              *+*+*+*+*+(+_+:+P.<+:.:.:.[+}+|+                                                  ",
"              *+*+*+*+*+*+*+1+2+3+4+5+~+6+                                                      ",
"              *+*+*+*+*+*+*+*+*+7+8+9+                                                          ",
"              *+*+*+*+*+*+*+*+*+*+*+0+                                                          ",
"              *+*+*+*+*+*+*+*+*+*+*+a+                                                          ",
"              *+*+*+*+*+*+*+*+*+*+*+a+                                                          ",
"              b+*+*+*+*+*+*+*+*+*+*+a+                                                          ",
"              c+b+*+*+*+*+*+*+*+*+*+a+                                                          ",
"              d+e+f+*+*+*+*+*+*+*+*+a+                                                          ",
"              g+h+i+f+*+*+*+*+*+*+*+a+                                                          ",
"              j+k+l+m+n+*+*+*+*+*+*+a+                                                          ",
"              o+p+q+l+r+n+*+*+*+*+*+a+                                                          ",
"              s+t+p+u+v+r+w+*+*+*+*+a+                                                          ",
"              x+y+z+A+B+C+D+w+*+*+*+a+                                                          ",
"              E+F+y+G+H+I+J+K+L+*+*+a+                                                          ",
"              M+E+N+O+P+Q+I+R+S+T+*+a+                                                          ",
"              U+V+W+X+Y+P+Z+`+ @.@T+a+                                                          ",
"              +@@@#@$@%@&@*@=@-@;@>@,@                                                          ",
"              '@)@!@~@{@]@^@/@(@_@:@<@                                                          ",
"              [@}@)@|@~@1@2@3@4@(@5@6@                                                          ",
"              7@[@8@9@0@a@b@c@3@d@e@f@                                                          ",
"              g@h@i@j@k@l@m@b@n@o@p@q@                                                          ",
"              r@s@t@u@v@w@x@y@z@A@B@C@                                                          ",
"              D@E@F@G@H@v@I@J@K@L@M@N@                                                          ",
"                  O@P@G@Q@R@S@T@U@V@W@                                                          ",
"                    X@Y@Z@`@ #.#+#U@@#                                                          ",
"                        ##$#%#&#*#=#-#                                                          ",
"                            ;#%#>#,#'#                                                          ",
"                                )#!#~#                                                          ",
"                                  {#]#                                                          "};
