/* XPM */
static char * panelZXFace_xpm[] = {
"48 48 529 2",
"  	c None",
". 	c #D8D7D7",
"+ 	c #D6D1D1",
"@ 	c #F2EBEB",
"# 	c #E5DCDC",
"$ 	c #D7CCCC",
"% 	c #D6CBCB",
"& 	c #FFF1F1",
"* 	c #FFEEEE",
"= 	c #EDDBDB",
"- 	c #E1CECE",
"; 	c #D4BFBF",
"> 	c #D6C5C5",
", 	c #FFEAEA",
"' 	c #FFE7E7",
") 	c #FFE5E5",
"! 	c #FDE0E1",
"~ 	c #E8CCCC",
"{ 	c #DFC1C1",
"] 	c #D6BFBF",
"^ 	c #FFE3E3",
"/ 	c #FFE0E0",
"( 	c #FFDEDE",
"_ 	c #FFDBDB",
": 	c #FFD9D9",
"< 	c #F7CFCF",
"[ 	c #E8C1C1",
"} 	c #DBB3B3",
"| 	c #D6B9B9",
"1 	c #FFDCDC",
"2 	c #FFD7D7",
"3 	c #FFD4D4",
"4 	c #FFD2D2",
"5 	c #FFCFCF",
"6 	c #FFCDCD",
"7 	c #F1BFBF",
"8 	c #E4B3B3",
"9 	c #D8A6A6",
"0 	c #D6B3B3",
"a 	c #FFD4D5",
"b 	c #FFD0D0",
"c 	c #FFCBCB",
"d 	c #FFC8C8",
"e 	c #FFC6C6",
"f 	c #FFC3C3",
"g 	c #FFC1C1",
"h 	c #EBAFAF",
"i 	c #DDA3A3",
"j 	c #C38D8D",
"k 	c #D6AEAE",
"l 	c #FFC8C9",
"m 	c #FFC4C4",
"n 	c #FFBFBF",
"o 	c #FFBCBC",
"p 	c #FFBABA",
"q 	c #FFB7B7",
"r 	c #FDB3B3",
"s 	c #CF9091",
"t 	c #D6A7A8",
"u 	c #FFC2C1",
"v 	c #FFBDBD",
"w 	c #FFB8B8",
"x 	c #FFB5B5",
"y 	c #FFB3B3",
"z 	c #FFB0B0",
"A 	c #FFAEAE",
"B 	c #D89191",
"C 	c #D6A2A2",
"D 	c #FFB5B6",
"E 	c #FFB1B1",
"F 	c #FFACAC",
"G 	c #FFA9A9",
"H 	c #FFA7A7",
"I 	c #D88B8B",
"J 	c #D69C9C",
"K 	c #FFB6B6",
"L 	c #FFAAAA",
"M 	c #FFA5A5",
"N 	c #FFA2A2",
"O 	c #FFA0A0",
"P 	c #D88585",
"Q 	c #D69696",
"R 	c #FFAFAF",
"S 	c #FF9E9E",
"T 	c #FF9B9B",
"U 	c #FF9999",
"V 	c #D87F7F",
"W 	c #D69090",
"X 	c #FFA7A8",
"Y 	c #FFA3A3",
"Z 	c #FF9697",
"` 	c #FF9494",
" .	c #FF9292",
"..	c #D87979",
"+.	c #D68A8A",
"@.	c #FF9C9C",
"#.	c #FF9797",
"$.	c #FF908F",
"%.	c #FF8D8D",
"&.	c #FF8B8A",
"*.	c #D87373",
"=.	c #D68484",
"-.	c #FF9495",
";.	c #FF9090",
">.	c #FF8B8B",
",.	c #FF8888",
"'.	c #FF8686",
").	c #FF8483",
"!.	c #D86D6D",
"~.	c #D67E7E",
"{.	c #FF9595",
"].	c #FF8989",
"^.	c #FF8484",
"/.	c #FF8181",
"(.	c #FF7F7F",
"_.	c #FF7C7C",
":.	c #D86767",
"<.	c #D67878",
"[.	c #FF8E8E",
"}.	c #FF8182",
"|.	c #FF7D7D",
"1.	c #FF7A7A",
"2.	c #FF7878",
"3.	c #FF7575",
"4.	c #D86161",
"5.	c #D67272",
"6.	c #FF8787",
"7.	c #FF8282",
"8.	c #FF7676",
"9.	c #FF7373",
"0.	c #FF7171",
"a.	c #FF6E6E",
"b.	c #D85B5B",
"c.	c #D66C6C",
"d.	c #FF807F",
"e.	c #FF7B7B",
"f.	c #FF6C6C",
"g.	c #FF6A6A",
"h.	c #FF6767",
"i.	c #D85555",
"j.	c #D66666",
"k.	c #FF7474",
"l.	c #FF6F6F",
"m.	c #FF6565",
"n.	c #FF6363",
"o.	c #FF6060",
"p.	c #D84F4F",
"q.	c #D66060",
"r.	c #FF6868",
"s.	c #FF5E5E",
"t.	c #FF5C5B",
"u.	c #FF5959",
"v.	c #D84949",
"w.	c #D65A5A",
"x.	c #FF5C5C",
"y.	c #FF5757",
"z.	c #FF5454",
"A.	c #FF5252",
"B.	c #D84444",
"C.	c #D65554",
"D.	c #FF6161",
"E.	c #FF5555",
"F.	c #FF5050",
"G.	c #FF4D4D",
"H.	c #FF4B4B",
"I.	c #D83E3E",
"J.	c #D64F4F",
"K.	c #FF5A5A",
"L.	c #FF4949",
"M.	c #FF4646",
"N.	c #FF4444",
"O.	c #D83838",
"P.	c #D64949",
"Q.	c #FF5353",
"R.	c #FF4E4E",
"S.	c #FF4142",
"T.	c #FF3F3F",
"U.	c #FF3D3D",
"V.	c #D83232",
"W.	c #D64343",
"X.	c #FF4747",
"Y.	c #FF4242",
"Z.	c #FF3A3A",
"`.	c #FF3838",
" +	c #FF3636",
".+	c #D82D2D",
"++	c #C23951",
"@+	c #FF403F",
"#+	c #FF3B3B",
"$+	c #FF3333",
"%+	c #FF3131",
"&+	c #FF2F2F",
"*+	c #D82727",
"=+	c #3636DE",
"-+	c #3434F9",
";+	c #8D31C7",
">+	c #EA3957",
",+	c #FF3839",
"'+	c #FF3434",
")+	c #FF2C2C",
"!+	c #FF2A2A",
"~+	c #FF2727",
"{+	c #D82222",
"]+	c #4343D5",
"^+	c #4545F7",
"/+	c #3F3FFF",
"(+	c #3636FF",
"_+	c #2E2EFF",
":+	c #3125F6",
"<+	c #AA28AF",
"[+	c #F73033",
"}+	c #FF2828",
"|+	c #FF2525",
"1+	c #FF2323",
"2+	c #FF2020",
"3+	c #D81C1C",
"4+	c #5353EE",
"5+	c #5151FF",
"6+	c #4848FF",
"7+	c #4040FF",
"8+	c #3737FF",
"9+	c #2626FF",
"0+	c #1D1DFF",
"a+	c #4917E9",
"b+	c #C6218C",
"c+	c #FD2525",
"d+	c #FF2021",
"e+	c #FF1E1E",
"f+	c #FF1C1C",
"g+	c #FF1919",
"h+	c #D81818",
"i+	c #605FE3",
"j+	c #6363FF",
"k+	c #5A5AFF",
"l+	c #5252FF",
"m+	c #4949FF",
"n+	c #3838FF",
"o+	c #2F2FFF",
"p+	c #1E1EFF",
"q+	c #1515FF",
"r+	c #0D0DFF",
"s+	c #6D0FD7",
"t+	c #DB1969",
"u+	c #FF1717",
"v+	c #FF1515",
"w+	c #FF1212",
"x+	c #D81313",
"y+	c #6C6CDD",
"z+	c #7373FB",
"A+	c #6C6DFF",
"B+	c #6464FF",
"C+	c #5B5BFF",
"D+	c #5353FF",
"E+	c #4A4AFF",
"F+	c #4141FF",
"G+	c #3939FF",
"H+	c #3030FF",
"I+	c #2727FF",
"J+	c #1F1FFF",
"K+	c #1616FF",
"L+	c #0505FF",
"M+	c #0101FB",
"N+	c #930DBF",
"O+	c #ED113C",
"P+	c #FF0E0E",
"Q+	c #FF0B0B",
"R+	c #D80F0F",
"S+	c #7575D1",
"T+	c #8181F4",
"U+	c #7F7FFF",
"V+	c #7676FF",
"W+	c #6D6DFF",
"X+	c #6565FF",
"Y+	c #5C5CFF",
"Z+	c #4B4BFF",
"`+	c #4242FF",
" @	c #3131FF",
".@	c #2828FF",
"+@	c #1717FF",
"@@	c #0E0EFF",
"#@	c #0000FF",
"$@	c #2503F4",
"%@	c #B40AA0",
"&@	c #F80607",
"*@	c #D80B0B",
"=@	c #8D8DEC",
"-@	c #9191FF",
";@	c #8888FF",
">@	c #7777FF",
",@	c #6E6EFF",
"'@	c #6566FF",
")@	c #5D5DFF",
"!@	c #5454FF",
"~@	c #4343FF",
"{@	c #3A3AFF",
"]@	c #3232FF",
"^@	c #2929FF",
"/@	c #2020FF",
"(@	c #1818FF",
"_@	c #0F0FFF",
":@	c #0606FF",
"<@	c #5307DA",
"[@	c #C60D3D",
"}@	c #9898E2",
"|@	c #A2A2FE",
"1@	c #9A9AFF",
"2@	c #9292FF",
"3@	c #8989FF",
"4@	c #8080FF",
"5@	c #7878FF",
"6@	c #6F6FFF",
"7@	c #6666FF",
"8@	c #5E5EFF",
"9@	c #5555FF",
"0@	c #4C4CFF",
"a@	c #4444FF",
"b@	c #3B3BFF",
"c@	c #2A2AFF",
"d@	c #2121FF",
"e@	c #1010FF",
"f@	c #0707FF",
"g@	c #0101FA",
"h@	c #0606E8",
"i@	c #0909DB",
"j@	c #A1A1DA",
"k@	c #B0B0F9",
"l@	c #ACACFF",
"m@	c #A4A4FF",
"n@	c #9B9BFF",
"o@	c #8A8AFF",
"p@	c #8181FF",
"q@	c #7070FF",
"r@	c #6767FF",
"s@	c #5656FF",
"t@	c #4D4DFF",
"u@	c #3C3CFF",
"v@	c #3333FF",
"w@	c #2222FF",
"x@	c #1919FF",
"y@	c #1111FF",
"z@	c #0808FF",
"A@	c #0101FF",
"B@	c #0606E9",
"C@	c #0909DE",
"D@	c #0C0CCE",
"E@	c #BEBEF3",
"F@	c #BFBEFF",
"G@	c #B6B6FF",
"H@	c #ADADFF",
"I@	c #A5A4FF",
"J@	c #9C9CFF",
"K@	c #9393FF",
"L@	c #8282FF",
"M@	c #7979FF",
"N@	c #7171FF",
"O@	c #6868FF",
"P@	c #5F5FFF",
"Q@	c #5757FF",
"R@	c #4E4EFF",
"S@	c #4545FF",
"T@	c #3D3DFF",
"U@	c #3434FF",
"V@	c #2B2BFF",
"W@	c #2323FF",
"X@	c #1A1AFF",
"Y@	c #0C0CEF",
"Z@	c #0808E3",
"`@	c #0A0AD8",
" #	c #C7C7EA",
".#	c #D1D1FF",
"+#	c #C8C8FF",
"@#	c #BFBFFF",
"##	c #B7B7FF",
"$#	c #AEAEFF",
"%#	c #A5A5FF",
"&#	c #9D9DFF",
"*#	c #9494FF",
"=#	c #8B8BFF",
"-#	c #8383FF",
";#	c #7A7AFF",
">#	c #6969FF",
",#	c #6060FF",
"'#	c #4F4FFF",
")#	c #4646FF",
"!#	c #3535FF",
"~#	c #2C2CFF",
"{#	c #2324FF",
"]#	c #1B1BF5",
"^#	c #1414E7",
"/#	c #0F0FDB",
"(#	c #CECEE0",
"_#	c #E0E0FC",
":#	c #DADAFF",
"<#	c #C9C9FF",
"[#	c #C0C0FF",
"}#	c #AFAFFF",
"|#	c #A6A6FF",
"1#	c #9595FF",
"2#	c #8C8CFF",
"3#	c #7B7BFF",
"4#	c #7272FF",
"5#	c #6A69FF",
"6#	c #6161FF",
"7#	c #5858FF",
"8#	c #504FFF",
"9#	c #4747FF",
"0#	c #3E3EFF",
"a#	c #3635FF",
"b#	c #2D2DFC",
"c#	c #2222E8",
"d#	c #1B1BDF",
"e#	c #D6D6D8",
"f#	c #ECEDF6",
"g#	c #ECECFF",
"h#	c #E4E3FF",
"i#	c #DBDBFF",
"j#	c #D2D2FF",
"k#	c #CACAFF",
"l#	c #C1C1FF",
"m#	c #B8B8FF",
"n#	c #B0B0FF",
"o#	c #A7A7FF",
"p#	c #9E9EFF",
"q#	c #9696FF",
"r#	c #8D8DFF",
"s#	c #8484FF",
"t#	c #7C7CFF",
"u#	c #7373FF",
"v#	c #6A6AFF",
"w#	c #6262FF",
"x#	c #5959FF",
"y#	c #5050FF",
"z#	c #3333EC",
"A#	c #2929DF",
"B#	c #2222D2",
"C#	c #CECECE",
"D#	c #FBFBFD",
"E#	c #F6F6FF",
"F#	c #EDEDFF",
"G#	c #E4E4FF",
"H#	c #DCDCFF",
"I#	c #D3D3FF",
"J#	c #C2C2FF",
"K#	c #B9B9FF",
"L#	c #A8A8FF",
"M#	c #9F9FFF",
"N#	c #8E8EFF",
"O#	c #8585FF",
"P#	c #7474FF",
"Q#	c #6B6BFF",
"R#	c #6263FF",
"S#	c #4545F1",
"T#	c #3939E3",
"U#	c #3030D6",
"V#	c #DCDCDD",
"W#	c #E2E2EB",
"X#	c #EEEEFF",
"Y#	c #E5E5FF",
"Z#	c #DDDCFF",
"`#	c #D4D4FF",
" $	c #CBCBFF",
".$	c #C2C3FF",
"+$	c #BABAFF",
"@$	c #B1B1FF",
"#$	c #A9A9FF",
"$$	c #A0A0FF",
"%$	c #9797FF",
"&$	c #8F8FFF",
"*$	c #8686FF",
"=$	c #7D7DFF",
"-$	c #7575FF",
";$	c #6C6CFF",
">$	c #5858F8",
",$	c #4B4BE8",
"'$	c #3F3FDA",
")$	c #D1D1D8",
"!$	c #D5D5E4",
"~$	c #D9D9F1",
"{$	c #DDDDFF",
"]$	c #D5D5FF",
"^$	c #CCCCFF",
"/$	c #C3C3FF",
"($	c #BBBBFF",
"_$	c #B2B2FF",
":$	c #A1A1FF",
"<$	c #9898FF",
"[$	c #8787FF",
"}$	c #7E7EFF",
"|$	c #6C6CFE",
"1$	c #5B5BE9",
"2$	c #5050DF",
"3$	c #C6C6DB",
"4$	c #CACAE8",
"5$	c #CECEF7",
"6$	c #CDCDFF",
"7$	c #C4C4FF",
"8$	c #B3B3FF",
"9$	c #AAAAFF",
"0$	c #A1A2FF",
"a$	c #9999FF",
"b$	c #9090FF",
"c$	c #8887FF",
"d$	c #6E6EED",
"e$	c #6060DE",
"f$	c #5555D6",
"g$	c #BBBBDF",
"h$	c #BBBBE8",
"i$	c #C3C3FD",
"j$	c #BCBCFF",
"k$	c #B4B4FF",
"l$	c #ABABFF",
"m$	c #A2A2FF",
"n$	c #8282F3",
"o$	c #7373E6",
"p$	c #6565D8",
"q$	c #ABABD4",
"r$	c #AEAEE1",
"s$	c #B0AFED",
"t$	c #A3A3FF",
"u$	c #9797F8",
"v$	c #8484E8",
"w$	c #7677DC",
"x$	c #9F9FD7",
"y$	c #A2A2E5",
"z$	c #A3A3F1",
"A$	c #9595E8",
"B$	c #8989E0",
"C$	c #8686C6",
"D$	c #8D8CD9",
"                                                            .                                   ",
"                                                          + @ # $                               ",
"                                                          % & * = - ;                           ",
"                                                          > , ' ) ! ~ {                         ",
"                                                          ] ^ / ( _ : < [ }                     ",
"                                                          | 1 : 2 3 4 5 6 7 8 9                 ",
"                                                          0 a 4 b 6 c d e f g h i j             ",
"                                                          k 6 c l e m g n o p q r s             ",
"                                                          t e m u n v p w x y z A B             ",
"                                                          C n v p w D y E A F G H I             ",
"                                                          J w K y E A F L H M N O P             ",
"                                                          Q E R F L H M N O S T U V             ",
"                                                          W L X M Y O S T U Z `  ...            ",
"                                                          +.Y O S @.U #.`  .$.%.&.*.            ",
"                                                          =.@.U #.-. .;.%.>.,.'.).!.            ",
"                                                          ~.{. .;.%.>.].'.^./.(._.:.            ",
"                                                          <.[.>.].'.^.}.(.|.1.2.3.4.            ",
"                                                          5.6.^.7.(.|.1.2.8.9.0.a.b.            ",
"                                                          c.d.|.e.2.8.9.0.a.f.g.h.i.            ",
"                                                          j.2.8.k.0.l.f.g.h.m.n.o.p.            ",
"                                                          q.0.l.f.g.r.m.n.o.s.t.u.v.            ",
"                                                          w.g.r.m.n.o.s.x.u.y.z.A.B.            ",
"                                                          C.n.D.s.x.u.y.E.A.F.G.H.I.            ",
"                                                          J.x.K.y.E.A.F.G.H.L.M.N.O.            ",
"                                                          P.E.Q.F.R.H.L.M.N.S.T.U.V.            ",
"                                                          W.R.H.L.X.N.Y.T.U.Z.`. +.+            ",
"                                                          ++X.N.Y.@+U.#+`. +$+%+&+*+            ",
"                                                        =+-+;+>+#+,+ +'+%+&+)+!+~+{+            ",
"                                                    ]+^+/+(+_+:+<+[+&+)+!+}+|+1+2+3+            ",
"                                                  4+5+6+7+8+_+9+0+a+b+c+1+d+e+f+g+h+            ",
"                                              i+j+k+l+m+7+n+o+9+p+q+r+s+t+g+u+v+w+x+            ",
"                                          y+z+A+B+C+D+E+F+G+H+I+J+K+r+L+M+N+O+P+Q+R+            ",
"                                      S+T+U+V+W+X+Y+D+Z+`+G+ @.@J++@@@L+#@#@$@%@&@*@            ",
"                                    =@-@;@U+>@,@'@)@!@Z+~@{@]@^@/@(@_@:@#@#@#@#@<@[@            ",
"                                }@|@1@2@3@4@5@6@7@8@9@0@a@b@]@c@d@(@e@f@#@#@g@h@i@              ",
"                            j@k@l@m@n@2@o@p@5@q@r@8@s@t@a@u@v@c@w@x@y@z@A@B@C@D@                ",
"                          E@F@G@H@I@J@K@o@L@M@N@O@P@Q@R@S@T@U@V@W@X@y@Y@Z@`@                    ",
"                       #.#+#@###$#%#&#*#=#-#;#N@>#,#Q@'#)#T@!#~#{#]#^#/#                        ",
"                  (#_#:#.#<#[###}#|#&#1#2#-#3#4#5#6#7#8#9#0#a#b#c#d#                            ",
"              e#f#g#h#i#j#k#l#m#n#o#p#q#r#s#t#u#v#w#x#y#6+/+z#A#B#                              ",
"            C#D#E#F#G#H#I#k#J#K#n#L#M#q#N#O#t#P#Q#R#k+5+S#T#U#                                  ",
"            C#V#W#X#Y#Z#`# $.$+$@$#$$$%$&$*$=$-$;$j+>$,$'$                                      ",
"                )$!$~${$]$^$/$($_$#$:$<$&$[$}$-$|$1$2$                                          ",
"                    3$4$5$6$7$($8$9$0$a$b$c$U+d$e$f$                                            ",
"                        g$h$i$j$k$l$m$1@-@n$o$p$                                                ",
"                          q$r$s$k$l@t$u$v$w$                                                    ",
"                              x$y$z$A$B$                                                        ",
"                                  C$D$                                                          "};
