/* XPM */
static char * panelSideLeft_xpm[] = {
"48 48 566 2",
"  	c None",
". 	c #D5D5D5",
"+ 	c #D8D2D2",
"@ 	c #E5E2E2",
"# 	c #F2F0F0",
"$ 	c #D4D3D3",
"% 	c #D1C2C1",
"& 	c #E1D4D4",
"* 	c #EADEDE",
"= 	c #FFF4F4",
"- 	c #FFF6F6",
"; 	c #D4CECE",
"> 	c #DBC4C4",
", 	c #E9D3D3",
"' 	c #FBE4E4",
") 	c #FFEBEB",
"! 	c #FFEDED",
"~ 	c #FFEFEF",
"{ 	c #D4C7C7",
"] 	c #D5B4B4",
"^ 	c #E9C8C8",
"/ 	c #F5D4D4",
"( 	c #FFDFDF",
"_ 	c #FFE1E1",
": 	c #FFE3E3",
"< 	c #FFE5E5",
"[ 	c #FFE7E7",
"} 	c #D4C1C1",
"| 	c #DAAEAE",
"1 	c #E2B8B8",
"2 	c #F0C5C5",
"3 	c #FFD3D3",
"4 	c #FFD5D5",
"5 	c #FFD7D7",
"6 	c #FFD9D9",
"7 	c #FFDBDB",
"8 	c #FFDDDD",
"9 	c #D4BBBB",
"0 	c #E0ACAC",
"a 	c #EAB5B5",
"b 	c #FFC8C8",
"c 	c #FFCACA",
"d 	c #FFCCCC",
"e 	c #FFCECE",
"f 	c #FFD0D0",
"g 	c #FFD2D2",
"h 	c #FFD4D4",
"i 	c #FFD6D6",
"j 	c #FFD8D8",
"k 	c #D4B4B4",
"l 	c #C28D8D",
"m 	c #F9B7B7",
"n 	c #FFBEBE",
"o 	c #FFC0C0",
"p 	c #FFC2C2",
"q 	c #FFC4C4",
"r 	c #FFC6C6",
"s 	c #D4AEAE",
"t 	c #CD8F8F",
"u 	c #FFB4B4",
"v 	c #FFB6B6",
"w 	c #FFB8B8",
"x 	c #FFBABA",
"y 	c #FFBCBC",
"z 	c #FFC3C3",
"A 	c #FFC4C5",
"B 	c #D4A8A7",
"C 	c #CD8989",
"D 	c #FFADAD",
"E 	c #FFAFAF",
"F 	c #FFB1B1",
"G 	c #FFB3B3",
"H 	c #FFB5B5",
"I 	c #FFB7B7",
"J 	c #FFB9B9",
"K 	c #FFBBBB",
"L 	c #FFBDBD",
"M 	c #FFBFBF",
"N 	c #FFC1C1",
"O 	c #D4A1A1",
"P 	c #CD8383",
"Q 	c #FFA5A5",
"R 	c #FFA7A7",
"S 	c #FFA9A9",
"T 	c #FFABAB",
"U 	c #D49B9B",
"V 	c #CD7D7D",
"W 	c #FF9D9E",
"X 	c #FF9F9F",
"Y 	c #FFA1A1",
"Z 	c #FFA3A3",
"` 	c #FFA9AA",
" .	c #FFACAB",
"..	c #FFB1B2",
"+.	c #D49594",
"@.	c #CD7776",
"#.	c #FF9696",
"$.	c #FF9898",
"%.	c #FF9A9A",
"&.	c #FF9C9C",
"*.	c #FF9E9E",
"=.	c #FFA0A0",
"-.	c #FFA2A2",
";.	c #FFA4A4",
">.	c #FFA6A6",
",.	c #FFA8A8",
"'.	c #FFAAAA",
").	c #D48E8E",
"!.	c #CD7070",
"~.	c #FF8E8E",
"{.	c #FF9090",
"].	c #FF9292",
"^.	c #FF9494",
"/.	c #D48888",
"(.	c #000000",
"_.	c #CD6A6A",
":.	c #FF8787",
"<.	c #FF8988",
"[.	c #FF8B8B",
"}.	c #FF8C8C",
"|.	c #FF8F8F",
"1.	c #FF9191",
"2.	c #FF9393",
"3.	c #FF9595",
"4.	c #FF9797",
"5.	c #FF9999",
"6.	c #FF9B9B",
"7.	c #D48181",
"8.	c #CD6464",
"9.	c #FF7F7F",
"0.	c #FF8181",
"a.	c #FF8383",
"b.	c #FF8585",
"c.	c #FF8989",
"d.	c #FF8D8D",
"e.	c #D47B7B",
"f.	c #CD5E5E",
"g.	c #FF7777",
"h.	c #FF7979",
"i.	c #FF7B7B",
"j.	c #FF7D7D",
"k.	c #D47475",
"l.	c #CD5858",
"m.	c #FF7070",
"n.	c #FF7272",
"o.	c #FF7474",
"p.	c #FF7676",
"q.	c #FF7878",
"r.	c #FF797A",
"s.	c #FF7C7C",
"t.	c #FF7E7E",
"u.	c #FF807F",
"v.	c #FF8282",
"w.	c #FF8484",
"x.	c #D46E6E",
"y.	c #CD5252",
"z.	c #FF6868",
"A.	c #FF6A6A",
"B.	c #FF6C6C",
"C.	c #FF6E6E",
"D.	c #FF7A7A",
"E.	c #D46868",
"F.	c #CD4C4C",
"G.	c #FF6060",
"H.	c #FF6262",
"I.	c #FF6464",
"J.	c #FF6666",
"K.	c #D46262",
"L.	c #CD4646",
"M.	c #FF5959",
"N.	c #FF5B5B",
"O.	c #FF5D5D",
"P.	c #FF5F5F",
"Q.	c #FF6161",
"R.	c #FF6363",
"S.	c #FF6565",
"T.	c #FF6767",
"U.	c #FF6969",
"V.	c #FF6B6B",
"W.	c #FF6D6D",
"X.	c #D45B5B",
"Y.	c #CD4040",
"Z.	c #FF5151",
"`.	c #FF5353",
" +	c #FF5555",
".+	c #FF5757",
"++	c #D45555",
"@+	c #CD3A3A",
"#+	c #FF4949",
"$+	c #FF4B4B",
"%+	c #FF4D4D",
"&+	c #FF4F4F",
"*+	c #FF5B5C",
"=+	c #D44F4F",
"-+	c #CD3434",
";+	c #FF4242",
">+	c #FF4444",
",+	c #FF4646",
"'+	c #FF4848",
")+	c #FF4A4A",
"!+	c #FF4C4C",
"~+	c #FF4E4E",
"{+	c #FF5050",
"]+	c #FF5252",
"^+	c #FF5454",
"/+	c #FF5656",
"(+	c #D44949",
"_+	c #CD2F2F",
":+	c #FF3A3A",
"<+	c #FF3C3C",
"[+	c #FF3E3E",
"}+	c #FF4040",
"|+	c #D44242",
"1+	c #CD2929",
"2+	c #FF3232",
"3+	c #FF3534",
"4+	c #FF3737",
"5+	c #FF3938",
"6+	c #FF3B3A",
"7+	c #FF3E3F",
"8+	c #FF4041",
"9+	c #FF4342",
"0+	c #FF4647",
"a+	c #D43C3C",
"b+	c #CD2323",
"c+	c #FF2B2B",
"d+	c #FF2D2D",
"e+	c #FF2F2F",
"f+	c #FF3131",
"g+	c #FF3333",
"h+	c #FF3535",
"i+	c #FF3939",
"j+	c #FF3B3B",
"k+	c #FF3D3D",
"l+	c #FF3F3F",
"m+	c #BD3344",
"n+	c #CD1E1E",
"o+	c #FF2323",
"p+	c #FF2525",
"q+	c #FF2727",
"r+	c #FF2929",
"s+	c #EC334F",
"t+	c #8C35CA",
"u+	c #3F3FFC",
"v+	c #4040E2",
"w+	c #CD1919",
"x+	c #FF1C1C",
"y+	c #FF1E1E",
"z+	c #FF2020",
"A+	c #FF2121",
"B+	c #FF2324",
"C+	c #FF2626",
"D+	c #FF2828",
"E+	c #F62925",
"F+	c #AA29B2",
"G+	c #3831F6",
"H+	c #3A3AFF",
"I+	c #4242FF",
"J+	c #4A4AFF",
"K+	c #4F50F7",
"L+	c #4D4DDB",
"M+	c #CD1515",
"N+	c #FF1414",
"O+	c #FF1616",
"P+	c #FF1818",
"Q+	c #FF1A1A",
"R+	c #FB1E1E",
"S+	c #C71F8C",
"T+	c #5223EA",
"U+	c #2C2CFF",
"V+	c #3434FF",
"W+	c #3C3CFF",
"X+	c #4444FF",
"Y+	c #4C4CFF",
"Z+	c #5454FF",
"`+	c #5C5CFF",
" @	c #5D5DEE",
".@	c #CD1111",
"+@	c #FF0C0C",
"@@	c #FF0E0E",
"#@	c #FF1010",
"$@	c #FF1212",
"%@	c #DD1564",
"&@	c #7117D9",
"*@	c #1D1DFF",
"=@	c #2525FF",
"-@	c #2D2DFF",
";@	c #3536FF",
">@	c #3E3EFF",
",@	c #4646FF",
"'@	c #4E4EFF",
")@	c #5656FF",
"!@	c #5E5EFF",
"~@	c #6666FF",
"{@	c #6E6EFF",
"]@	c #6C6CE9",
"^@	c #CD0E0E",
"/@	c #FF0505",
"(@	c #FF0707",
"_@	c #EE0B3F",
":@	c #930DC1",
"<@	c #0D0FFC",
"[@	c #1717FF",
"}@	c #1F1FFF",
"|@	c #2727FF",
"1@	c #2F2FFF",
"2@	c #3737FF",
"3@	c #4040FF",
"4@	c #4848FF",
"5@	c #5050FF",
"6@	c #5858FF",
"7@	c #6060FF",
"8@	c #6868FF",
"9@	c #7070FF",
"0@	c #7878FF",
"a@	c #7F7FFC",
"b@	c #7878E0",
"c@	c #CD0C0C",
"d@	c #FA0200",
"e@	c #AF06A8",
"f@	c #2404F3",
"g@	c #0909FF",
"h@	c #1111FF",
"i@	c #1919FF",
"j@	c #2121FF",
"k@	c #2929FF",
"l@	c #3131FF",
"m@	c #3939FF",
"n@	c #4141FF",
"o@	c #4A49FF",
"p@	c #5252FF",
"q@	c #5A5AFF",
"r@	c #6262FF",
"s@	c #6A6AFF",
"t@	c #7272FF",
"u@	c #7A7AFF",
"v@	c #8282FF",
"w@	c #8A8BFF",
"x@	c #8C8CF5",
"y@	c #8080D4",
"z@	c #B90E51",
"A@	c #5308D5",
"B@	c #0000FF",
"C@	c #0202FF",
"D@	c #0A0BFF",
"E@	c #1313FF",
"F@	c #1B1BFF",
"G@	c #2323FF",
"H@	c #2B2BFF",
"I@	c #3333FF",
"J@	c #3B3BFF",
"K@	c #4343FF",
"L@	c #4B4BFF",
"M@	c #6464FF",
"N@	c #6C6CFF",
"O@	c #7474FF",
"P@	c #7C7CFF",
"Q@	c #8484FF",
"R@	c #8C8CFF",
"S@	c #9595FF",
"T@	c #9D9DFF",
"U@	c #9999EE",
"V@	c #0808E0",
"W@	c #0606E9",
"X@	c #0606F7",
"Y@	c #0C0CFF",
"Z@	c #1515FF",
"`@	c #3535FF",
" #	c #3D3DFF",
".#	c #4545FF",
"+#	c #4D4DFF",
"@#	c #5556FF",
"##	c #7676FF",
"$#	c #7E7EFF",
"%#	c #8686FF",
"&#	c #8E8EFF",
"*#	c #9696FF",
"=#	c #9F9EFF",
"-#	c #A7A7FF",
";#	c #AFAFFF",
">#	c #A3A3E3",
",#	c #0C0CE3",
"'#	c #1111E9",
")#	c #1617FE",
"!#	c #1F1EFF",
"~#	c #3F3FFF",
"{#	c #4747FF",
"]#	c #4F4FFF",
"^#	c #5757FF",
"/#	c #5F5FFF",
"(#	c #8080FF",
"_#	c #8888FF",
":#	c #9090FF",
"<#	c #9898FF",
"[#	c #A0A0FF",
"}#	c #A9A8FF",
"|#	c #B1B1FF",
"1#	c #B9B9FF",
"2#	c #BDBDFA",
"3#	c #ADADDC",
"4#	c #1313DB",
"5#	c #1919E2",
"6#	c #2020F0",
"7#	c #2928FF",
"8#	c #4949FF",
"9#	c #5151FF",
"0#	c #5959FF",
"a#	c #6161FF",
"b#	c #6969FF",
"c#	c #8A8AFF",
"d#	c #9292FF",
"e#	c #9A9AFF",
"f#	c #A2A2FF",
"g#	c #ABAAFF",
"h#	c #B3B3FF",
"i#	c #BBBBFF",
"j#	c #C3C3FF",
"k#	c #CBCBFF",
"l#	c #C9C9F3",
"m#	c #B5B5D3",
"n#	c #2020D9",
"o#	c #2828E9",
"p#	c #3131F5",
"q#	c #5353FF",
"r#	c #5B5BFF",
"s#	c #6363FF",
"t#	c #6B6BFF",
"u#	c #7473FF",
"v#	c #9494FF",
"w#	c #9C9CFF",
"x#	c #A4A4FF",
"y#	c #ACACFF",
"z#	c #B4B4FF",
"A#	c #BDBDFF",
"B#	c #C5C5FF",
"C#	c #CDCDFF",
"D#	c #D5D5FF",
"E#	c #DDDDFF",
"F#	c #D1D1E9",
"G#	c #2F2EDC",
"H#	c #3838E9",
"I#	c #4343FA",
"J#	c #5555FF",
"K#	c #5D5DFF",
"L#	c #6565FF",
"M#	c #6D6DFF",
"N#	c #7575FF",
"O#	c #7E7DFF",
"P#	c #9E9EFF",
"Q#	c #A6A6FF",
"R#	c #AEAEFF",
"S#	c #B6B6FF",
"T#	c #BEBEFF",
"U#	c #C7C7FF",
"V#	c #CFCFFF",
"W#	c #D7D7FF",
"X#	c #DFDFFF",
"Y#	c #E7E7FF",
"Z#	c #EDEDFC",
"`#	c #DBDBE2",
" $	c #3435D1",
".$	c #3E3EDF",
"+$	c #4848E9",
"@$	c #6767FF",
"#$	c #6F6FFF",
"$$	c #7777FF",
"%$	c #7F7FFF",
"&$	c #A8A8FF",
"*$	c #B0B0FF",
"=$	c #B8B8FF",
"-$	c #C0C0FF",
";$	c #C8C9FF",
">$	c #D1D1FF",
",$	c #D9D9FF",
"'$	c #E1E1FF",
")$	c #E9E9FF",
"!$	c #F1F1FF",
"~$	c #F9F9FF",
"{$	c #F8F8F8",
"]$	c #DCDCDC",
"^$	c #4646DD",
"/$	c #4F4FE2",
"($	c #5B5BF1",
"_$	c #7171FF",
":$	c #7979FF",
"<$	c #8181FF",
"[$	c #8989FF",
"}$	c #AAAAFF",
"|$	c #B2B2FF",
"1$	c #BABAFF",
"2$	c #C2C2FF",
"3$	c #CACAFF",
"4$	c #D3D3FF",
"5$	c #DBDBFF",
"6$	c #E3E3FF",
"7$	c #EBEBFF",
"8$	c #F3F3FF",
"9$	c #FBFBFF",
"0$	c #FFFFFF",
"a$	c #F9F9F9",
"b$	c #CACACA",
"c$	c #5555DC",
"d$	c #6161E8",
"e$	c #7070F9",
"f$	c #7B7BFF",
"g$	c #8383FF",
"h$	c #8B8BFF",
"i$	c #9394FF",
"j$	c #BCBCFF",
"k$	c #C4C4FF",
"l$	c #CCCCFF",
"m$	c #D4D5FF",
"n$	c #DDDCFF",
"o$	c #E5E5FF",
"p$	c #EDEDFF",
"q$	c #F5F5FF",
"r$	c #FDFDFF",
"s$	c #EAEAEA",
"t$	c #E0E0E0",
"u$	c #6666DF",
"v$	c #7272E9",
"w$	c #8383FB",
"x$	c #8D8DFF",
"y$	c #C6C6FF",
"z$	c #CECEFF",
"A$	c #D6D6FF",
"B$	c #DEDFFF",
"C$	c #EFEFFF",
"D$	c #E8E8F0",
"E$	c #E1E1E2",
"F$	c #DADADA",
"G$	c #6A6AD5",
"H$	c #7878E2",
"I$	c #8484EC",
"J$	c #9797FF",
"K$	c #9F9FFF",
"L$	c #B0AFFF",
"M$	c #C8C8FF",
"N$	c #D0D0FF",
"O$	c #D8D8FF",
"P$	c #E0E0FF",
"Q$	c #DFDFF5",
"R$	c #DCDCE9",
"S$	c #CFCFD5",
"T$	c #7D7DDC",
"U$	c #8989E5",
"V$	c #9999F2",
"W$	c #A9A9FF",
"X$	c #D2D2FF",
"Y$	c #D6D6FB",
"Z$	c #CFCFE9",
"`$	c #C9C9DB",
" %	c #8C8CDB",
".%	c #9D9DEA",
"+%	c #ADADF7",
"@%	c #BCBBFF",
"#%	c #C2C2EA",
"$%	c #C2C2E1",
"%%	c #B9B9D1",
"&%	c #9E9EDE",
"*%	c #ADADE9",
"=%	c #B8B8EE",
"-%	c #B8B8E5",
";%	c #B7B6DB",
">%	c #A2A2D7",
",%	c #9C9CC8",
"                                  .                                                             ",
"                              + @ # $                                                           ",
"                          % & * = - ;                                                           ",
"                        > , ' ) ! ~ {                                                           ",
"                    ] ^ / ( _ : < [ }                                                           ",
"                | 1 2 3 4 5 6 7 8 ( 9                                                           ",
"              0 a b c d e f g h i j k                                                           ",
"            l m n o p q r b c d e f s                                                           ",
"            t u v w x y n o z A r b B                                                           ",
"            C D E F G H I J K L M N O                                                           ",
"            P Q R S T D E F G H I J U                                                           ",
"            V W X Y Z Q R `  .D E ..+.                                                          ",
"            @.#.$.%.&.*.=.-.;.>.,.'.).                                                          ",
"            !.~.{.].^.#.$.%.&.*.=.-./.                            (.                            ",
"            _.:.<.[.}.|.1.2.3.4.5.6.7.                    (.(.(.(.(.                            ",
"            8.9.0.a.b.:.c.[.d.|.1.2.e.              (.(.(.(.(.(.(.                              ",
"            f.g.h.i.j.9.0.a.b.:.c.[.k.              (.(.(.(.(.(.(.                              ",
"            l.m.n.o.p.q.r.s.t.u.v.w.x.              (.(.(.(.(.(.(.                              ",
"            y.z.A.B.C.m.n.o.p.q.D.s.E.              (.(.(.(.(.(.(.(.                            ",
"            F.G.H.I.J.z.A.B.C.m.n.o.K.              (.(.(.(.(.(.(.(.(.(.                        ",
"            L.M.N.O.P.Q.R.S.T.U.V.W.X.                (.(.(.(.(.(.(.(.(.(.(.                    ",
"            Y.Z.`. +.+M.N.O.P.Q.R.S.++                (.(.(.  (.(.(.(.(.(.(.(.                  ",
"            @+#+$+%+&+Z.`. +.+M.*+O.=+                (.(.        (.(.(.(.(.(.(.(.              ",
"            -+;+>+,+'+)+!+~+{+]+^+/+(+                (.(.            (.(.(.(.(.(.(.(.          ",
"            _+:+<+[+}+;+>+,+'+)+!+~+|+                                    (.(.(.(.(.(.(.(.      ",
"            1+2+3+4+5+6+<+7+8+9+>+0+a+                                      (.(.(.(.(.(.(.      ",
"            b+c+d+e+f+g+h+4+i+j+k+l+m+                                          (.(.(.(.        ",
"            n+o+p+q+r+c+d+e+f+g+s+t+u+v+                                            (.(.        ",
"            w+x+y+z+A+B+C+D+E+F+G+H+I+J+K+L+                                                    ",
"            M+N+O+P+Q+x+R+S+T+U+V+W+X+Y+Z+`+ @                                                  ",
"            .@+@@@#@$@%@&@*@=@-@;@>@,@'@)@!@~@{@]@                                              ",
"            ^@/@(@_@:@<@[@}@|@1@2@3@4@5@6@7@8@9@0@a@b@                                          ",
"            c@d@e@f@g@h@i@j@k@l@m@n@o@p@q@r@s@t@u@v@w@x@y@                                      ",
"            z@A@B@C@D@E@F@G@H@I@J@K@L@Z+`+M@N@O@P@Q@R@S@T@U@                                    ",
"              V@W@X@Y@Z@*@=@-@`@ #.#+#@#!@~@{@##$#%#&#*#=#-#;#>#                                ",
"                  ,#'#)#!#|@1@2@~#{#]#^#/#8@9@0@(#_#:#<#[#}#|#1#2#3#                            ",
"                    4#5#6#7#l@m@n@8#9#0#a#b#t@u@v@c#d#e#f#g#h#i#j#k#l#m#                        ",
"                        n#o#p#J@K@L@q#r#s#t#u#P@Q@R@v#w#x#y#z#A#B#C#D#E#F#                      ",
"                            G#H#I#+#J#K#L#M#N#O#%#&#*#P#Q#R#S#T#U#V#W#X#Y#Z#`#                  ",
"                               $.$+$^#/#@$#$$$%$_#:#<#[#&$*$=$-$;$>$,$'$)$!$~${$]$              ",
"                                  ^$/$($b#_$:$<$[$d#e#f#}$|$1$2$3$4$5$6$7$8$9$0$a$b$            ",
"                                      c$d$e$f$g$h$i$w#x#y#z#j$k$l$m$n$o$p$q$r$s$t$              ",
"                                          u$v$w$x$S@T@Q#R#S#T#y$z$A$B$Y#C$D$E$F$                ",
"                                            G$H$I$J$K$-#L$=$-$M$N$O$P$Q$R$S$                    ",
"                                                T$U$V$W$|#1$2$3$X$Y$Z$`$                        ",
"                                                     %.%+%@%k$l$#%$%%%                          ",
"                                                        &%*%=%-%;%                              ",
"                                                          >%,%                                  "};
