/* XPM */
static char * panelBackOut_xpm[] = {
"48 48 479 2",
"  	c None",
". 	c #000000",
"+ 	c #211BB8",
"@ 	c #C38C8C",
"# 	c #0B0BD6",
"$ 	c #0505EE",
"% 	c #D899A9",
"& 	c #E49393",
"* 	c #CF7575",
"= 	c #0C0CD0",
"- 	c #0606E9",
"; 	c #0000FF",
"> 	c #E1A0AE",
", 	c #FFA4A4",
"' 	c #F28989",
") 	c #DD6D6D",
"! 	c #CD5656",
"~ 	c #0C0CCD",
"{ 	c #0707E4",
"] 	c #0202F9",
"^ 	c #E1A0AF",
"/ 	c #FFA5A5",
"( 	c #FF9191",
"_ 	c #FF7D7D",
": 	c #EC6161",
"< 	c #D74949",
"[ 	c #0D0DCB",
"} 	c #0909DB",
"| 	c #0303F3",
"1 	c #E1A1AF",
"2 	c #FF9292",
"3 	c #FF7E7E",
"4 	c #FF6A6A",
"5 	c #FC5555",
"6 	c #E83D3D",
"7 	c #CF2828",
"8 	c #0C0CCF",
"9 	c #0505ED",
"0 	c #E1A1B0",
"a 	c #FFA6A6",
"b 	c #FF5756",
"c 	c #FF4343",
"d 	c #F72E2E",
"e 	c #E21B1B",
"f 	c #CC1111",
"g 	c #0606EB",
"h 	c #E1A2B0",
"i 	c #FF9393",
"j 	c #FF7F7F",
"k 	c #FF6B6B",
"l 	c #FF5757",
"m 	c #FF3030",
"n 	c #FF1C1C",
"o 	c #F10B0B",
"p 	c #D80A0A",
"q 	c #E1A2B1",
"r 	c #FFA7A7",
"s 	c #FF6B6C",
"t 	c #FF5858",
"u 	c #FF4444",
"v 	c #FF0808",
"w 	c #FF0000",
"x 	c #EA0606",
"y 	c #D00C0C",
"z 	c #E1A3B1",
"A 	c #FFA8A8",
"B 	c #FF9494",
"C 	c #FF8080",
"D 	c #FF6C6C",
"E 	c #FF3131",
"F 	c #FF1D1D",
"G 	c #FF0909",
"H 	c #FB0101",
"I 	c #E80606",
"J 	c #CD0C0C",
"K 	c #E1A4B2",
"L 	c #FF8181",
"M 	c #FF6D6D",
"N 	c #FF5959",
"O 	c #FF4545",
"P 	c #FF1E1E",
"Q 	c #F50303",
"R 	c #E10808",
"S 	c #C90D0D",
"T 	c #FFA9A9",
"U 	c #FF9595",
"V 	c #FF4646",
"W 	c #FF3232",
"X 	c #FF0A0A",
"Y 	c #F00404",
"Z 	c #D70A0A",
"` 	c #E1A4B3",
" .	c #FF9695",
"..	c #FF8282",
"+.	c #FF6E6E",
"@.	c #FF5A5A",
"#.	c #FF1F1F",
"$.	c #FF0B0B",
"%.	c #FB0100",
"&.	c #B80798",
"*.	c #860DA1",
"=.	c #E1A5B3",
"-.	c #FFAAAA",
";.	c #FF9696",
">.	c #FF5B5B",
",.	c #FF4747",
"'.	c #FF3333",
").	c #D1057B",
"!.	c #5C0AC8",
"~.	c #5E06DC",
"{.	c #0404FF",
"].	c #E1A6B3",
"^.	c #FFABAB",
"/.	c #FF9797",
"(.	c #FF8383",
"_.	c #FF6F6F",
":.	c #FF3434",
"<.	c #FF2020",
"[.	c #FF0C0C",
"}.	c #E40453",
"|.	c #830AB7",
"1.	c #0707E7",
"2.	c #0101FD",
"3.	c #0202FF",
"4.	c #1010FF",
"5.	c #E1A6B4",
"6.	c #FF7070",
"7.	c #FF5C5C",
"8.	c #FF4848",
"9.	c #FF0D0D",
"0.	c #F30329",
"a.	c #A808A2",
"b.	c #0708E3",
"c.	c #0202F7",
"d.	c #0101FF",
"e.	c #0D0DFF",
"f.	c #1D1DFF",
"g.	c #E1A7B4",
"h.	c #FFACAC",
"i.	c #FF9898",
"j.	c #FF8484",
"k.	c #FF4849",
"l.	c #FF3535",
"m.	c #FF2121",
"n.	c #FC0E0D",
"o.	c #BF078F",
"p.	c #3E09D6",
"q.	c #0404F1",
"r.	c #0A0AFF",
"s.	c #1A1AFF",
"t.	c #2B2AFF",
"u.	c #E1A8B5",
"v.	c #FF9899",
"w.	c #FF8585",
"x.	c #FF7171",
"y.	c #FF5D5D",
"z.	c #FF4949",
"A.	c #FF2222",
"B.	c #8C11A2",
"C.	c #0505EB",
"D.	c #0707FF",
"E.	c #1717FF",
"F.	c #2827FF",
"G.	c #3838FF",
"H.	c #FFADAD",
"I.	c #FF9999",
"J.	c #FF4A4A",
"K.	c #FF3636",
"L.	c #7C10B2",
"M.	c #1414FF",
"N.	c #2424FF",
"O.	c #3535FF",
"P.	c #4545FF",
"Q.	c #E2A9B6",
"R.	c #FF9A9A",
"S.	c #FF8686",
"T.	c #FF7272",
"U.	c #FF5E5E",
"V.	c #FF2323",
"W.	c #1111FF",
"X.	c #2121FF",
"Y.	c #3132FF",
"Z.	c #4242FF",
"`.	c #5252FF",
" +	c #E2AAB6",
".+	c #FFAEAE",
"++	c #FF5F5F",
"@+	c #FF4B4B",
"#+	c #FF3737",
"$+	c #0E0EFF",
"%+	c #1E1EFF",
"&+	c #2E2EFF",
"*+	c #3F3FFF",
"=+	c #4F4FFF",
"-+	c #6060FF",
";+	c #E2ABB7",
">+	c #FFAFAF",
",+	c #FF9B9B",
"'+	c #FF8787",
")+	c #FF7373",
"!+	c #FF3838",
"~+	c #FF2424",
"{+	c #0B0BFF",
"]+	c #1B1BFF",
"^+	c #2B2BFF",
"/+	c #3C3CFF",
"(+	c #4C4CFF",
"_+	c #5D5DFF",
":+	c #6D6DFF",
"<+	c #E3ACB7",
"[+	c #FF8788",
"}+	c #FF7474",
"|+	c #FF6060",
"1+	c #FF4C4C",
"2+	c #0807FF",
"3+	c #1818FF",
"4+	c #2828FF",
"5+	c #3939FF",
"6+	c #4949FF",
"7+	c #5959FF",
"8+	c #6A6AFF",
"9+	c #7A7AFF",
"0+	c #E3ADB8",
"a+	c #FFB0B0",
"b+	c #FF9C9C",
"c+	c #FF8888",
"d+	c #FF4D4D",
"e+	c #FF3939",
"f+	c #FF2525",
"g+	c #7C11B2",
"h+	c #0A0AEB",
"i+	c #1515FF",
"j+	c #2525FF",
"k+	c #4646FF",
"l+	c #5656FF",
"m+	c #6767FF",
"n+	c #7777FF",
"o+	c #8888FF",
"p+	c #E4AFB8",
"q+	c #FF9D9C",
"r+	c #FF8989",
"s+	c #FF7575",
"t+	c #FF6161",
"u+	c #1414EB",
"v+	c #2222FF",
"w+	c #3232FF",
"x+	c #4343FF",
"y+	c #5353FF",
"z+	c #6464FF",
"A+	c #7474FF",
"B+	c #8584FF",
"C+	c #7D7DED",
"D+	c #AF85C6",
"E+	c #FAADAD",
"F+	c #FF9D9D",
"G+	c #FF6162",
"H+	c #FF4E4E",
"I+	c #FF3A3A",
"J+	c #FF2626",
"K+	c #1F1FEB",
"L+	c #2F2FFF",
"M+	c #4040FF",
"N+	c #5050FF",
"O+	c #6061FF",
"P+	c #7171FF",
"Q+	c #7676F2",
"R+	c #5050E9",
"S+	c #0101FB",
"T+	c #5335E9",
"U+	c #D280AA",
"V+	c #FF8A8A",
"W+	c #FF7676",
"X+	c #FF6262",
"Y+	c #FF2727",
"Z+	c #5F0EDC",
"`+	c #2A2AEB",
" @	c #3D3DFF",
".@	c #4D4DFF",
"+@	c #6A6AF8",
"@@	c #5555E9",
"#@	c #1111F6",
"$@	c #0101FE",
"%@	c #7D40D5",
"&@	c #E46987",
"*@	c #FF6363",
"=@	c #FF4F4F",
"-@	c #FF3B3B",
";@	c #6118DC",
">@	c #3636EB",
",@	c #4A4AFF",
"'@	c #5A5AFE",
")@	c #5353E9",
"!@	c #1F1FF0",
"~@	c #0F0FFF",
"{@	c #2322F8",
"]@	c #A445BC",
"^@	c #F14B57",
"/@	c #FF3C3C",
"(@	c #FF2828",
"_@	c #6423DC",
":@	c #4242EB",
"<@	c #4B4BEF",
"[@	c #2929EA",
"}@	c #2323FF",
"|@	c #3737FF",
"1@	c #5C47F0",
"2@	c #C3429A",
"3@	c #FA2827",
"4@	c #7C12B2",
"5@	c #0808FF",
"6@	c #682FDC",
"7@	c #2D2DCB",
"8@	c #0F10FF",
"9@	c #5E5EFF",
"0@	c #8663E1",
"a@	c #5B27BE",
"b@	c #0606FF",
"c@	c #1616FF",
"d@	c #2626FF",
"e@	c #3636FF",
"f@	c #6E3BDC",
"g@	c #4443D5",
"h@	c #1515DB",
"i@	c #4A4BFF",
"j@	c #7272FF",
"k@	c #3B3BD1",
"l@	c #3434FF",
"m@	c #4444FF",
"n@	c #7447DC",
"o@	c #6767EB",
"p@	c #7878F6",
"q@	c #5C5CDE",
"r@	c #0707E1",
"s@	c #4B4BFF",
"t@	c #0303FF",
"u@	c #1212FF",
"v@	c #7B53DC",
"w@	c #7373EB",
"x@	c #8C8CFF",
"y@	c #9D9DFF",
"z@	c #9B9BF0",
"A@	c #5D5DD9",
"B@	c #0606E8",
"C@	c #3C3CD1",
"D@	c #2020FF",
"E@	c #3030FF",
"F@	c #835FDC",
"G@	c #7F7FEB",
"H@	c #9A9AFF",
"I@	c #AAAAFF",
"J@	c #BABBFF",
"K@	c #CBCBFF",
"L@	c #ACACE3",
"M@	c #0A0AD2",
"N@	c #5F5FFF",
"O@	c #3E3EFF",
"P@	c #4E4EFF",
"Q@	c #6E6EFF",
"R@	c #8B6BDC",
"S@	c #8B8BEB",
"T@	c #A7A7FF",
"U@	c #B7B7FF",
"V@	c #C6C6FD",
"W@	c #BCBCE2",
"X@	c #0D0DCA",
"Y@	c #0909DD",
"Z@	c #3C3BFF",
"`@	c #5C5CFF",
" #	c #6C6CFF",
".#	c #7C7CFF",
"+#	c #9477DC",
"@#	c #9898EB",
"##	c #B4B4FF",
"$#	c #B3B3EB",
"%#	c #0D0DCC",
"&#	c #0707E5",
"*#	c #0202FA",
"=#	c #7373FF",
"-#	c #3D3DD1",
";#	c #1919FF",
">#	c #2929FF",
",#	c #5A5AFF",
"'#	c #8A8AFF",
")#	c #9585DF",
"!#	c #9999DD",
"~#	c #9B9BD3",
"{#	c #0D0DCD",
"]#	c #1312EA",
"^#	c #3F3FD1",
"/#	c #2727FF",
"(#	c #4747FF",
"_#	c #5858FF",
":#	c #6868FF",
"<#	c #7878FF",
"[#	c #9998FF",
"}#	c #9797E8",
"|#	c #2222D4",
"1#	c #3535F0",
"2#	c #4242D1",
"3#	c #5555FF",
"4#	c #6666FF",
"5#	c #7676FF",
"6#	c #8686FF",
"7#	c #9696FF",
"8#	c #A6A7FF",
"9#	c #A4A4E8",
"0#	c #2F2FC9",
"a#	c #4343DE",
"b#	c #5C5CF5",
"c#	c #4646D1",
"d#	c #6363FF",
"e#	c #8484FF",
"f#	c #9494FF",
"g#	c #A4A4FF",
"h#	c #B5B5FF",
"i#	c #B1B1E8",
"j#	c #4E4ECE",
"k#	c #6868E5",
"l#	c #4747CC",
"m#	c #5151FF",
"n#	c #6161FF",
"o#	c #8282FF",
"p#	c #9292FF",
"q#	c #A2A2FF",
"r#	c #B2B2FF",
"s#	c #C3C3FF",
"t#	c #BEBEE8",
"u#	c #4848C8",
"v#	c #6F6FFF",
"w#	c #8080FF",
"x#	c #9090FF",
"y#	c #A0A0FF",
"z#	c #B0B0FF",
"A#	c #C0C0FF",
"B#	c #D1D1FF",
"C#	c #CBCAE8",
"D#	c #4949C4",
"E#	c #7D7DFF",
"F#	c #8D8DFF",
"G#	c #9E9EFF",
"H#	c #AEAEFF",
"I#	c #BEBEFF",
"J#	c #CECEFF",
"K#	c #DFDFFF",
"L#	c #D7D7E8",
"M#	c #5454C4",
"N#	c #7B7BFF",
"O#	c #8B8BFF",
"P#	c #9C9CFF",
"Q#	c #ACACFF",
"R#	c #BCBCFF",
"S#	c #CCCCFF",
"T#	c #DCDCFF",
"U#	c #EDEDFF",
"V#	c #D8D8DD",
"W#	c #5E5EC4",
"X#	c #8989FF",
"Y#	c #9999FF",
"Z#	c #A9AAFF",
"`#	c #BABAFF",
" $	c #CACAFF",
".$	c #DADAFF",
"+$	c #DEDEF3",
"@$	c #CBCBD4",
"#$	c #6969C4",
"$$	c #9797FF",
"%$	c #B8B8FF",
"&$	c #C8C8FF",
"*$	c #D3D3FA",
"=$	c #C6C6DE",
"-$	c #7474C4",
";$	c #A5A5FF",
">$	c #C5C5FF",
",$	c #BEBEE6",
"'$	c #7E7EC4",
")$	c #B3B3FF",
"!$	c #B5B6F0",
"~$	c #7A7AB0",
"{$	c #9C9CD5",
"                          . . . . .                     + @                                     ",
"                    . . .     . . .                   # $ % & *                                 ",
"                            . . . .               = - ; ; > , ' ) !                             ",
"                          . .   . .           ~ { ] ; ; ; ^ / ( _ : <                           ",
"                      . . .     .         [ } | ; ; ; ; ; 1 / 2 3 4 5 6 7                       ",
"                    . .         .       8 9 ; ; ; ; ; ; ; 0 a 2 3 4 b c d e f                   ",
"                . . .         . .       g ; ; ; ; ; ; ; ; h a i j k l c m n o p                 ",
"              . .             .         g ; ; ; ; ; ; ; ; q r i j s t u m n v w x y             ",
"          . . .               .         g ; ; ; ; ; ; ; ; z A B C D t u E F G w w H I J         ",
"        . .                             g ; ; ; ; ; ; ; ; K A B L M N O E P G w w w w Q R S     ",
"    . . .                               g ; ; ; ; ; ; ; ; K T U L M N V W P X w w w w w w Y Z   ",
"  . .                                   g ; ; ; ; ; ; ; ; ` T  ...+.@.V W #.$.w w w w w w %.&.*.",
". .                                     g ; ; ; ; ; ; ; ; =.-.;...+.>.,.'.#.$.w w w w w ).!.9 ~.",
"                                        g ; ; ; ; ; ; ; {.].^./.(._.>.,.:.<.[.w w w }.|.1.2.; ~.",
"                                        g ; ; ; ; ; ; 3.4.5.^./.(.6.7.8.:.<.9.w 0.a.b.c.; ; ; ~.",
"                                        g ; ; ; ; ; d.e.f.g.h.i.j.6.7.k.l.m.n.o.p.q.; ; ; ; ; ~.",
"                                        g ; ; ; ; ; r.s.t.u.h.v.w.x.y.z.l.A.B.C.; ; ; ; ; ; ; ~.",
"                                        g ; ; ; ; D.E.F.G.u.H.I.w.x.y.J.K.A.L.; ; ; ; ; ; ; ; ~.",
"                                        g ; ; ; {.M.N.O.P.Q.H.R.S.T.U.J.K.V.L.; ; ; ; ; ; ; ; ~.",
"                                        g ; ; 3.W.X.Y.Z.`. +.+R.S.T.++@+#+V.L.; ; ; ; ; ; ; ; ~.",
"                                        g ; d.$+%+&+*+=+-+;+>+,+'+)+++@+!+~+L.; ; ; ; ; ; ; ; ~.",
"                                        g ; {+]+^+/+(+_+:+<+>+,+[+}+|+1+!+~+L.; ; ; ; ; ; ; ; ~.",
"                                        g 2+3+4+5+6+7+8+9+0+a+b+c+}+|+d+e+f+g+; ; ; ; ; ; ; ; ~.",
"                                        h+i+j+O.k+l+m+n+o+p+a+q+r+s+t+d+e+f+g+; ; ; ; ; ; ; ; ~.",
"                                        u+v+w+x+y+z+A+B+C+D+E+F+r+s+G+H+I+J+g+; ; ; ; ; ; ; ; ~.",
"                                        K+L+M+N+O+P+Q+R+S+; T+U+V+W+X+H+I+Y+g+; ; ; ; ; ; ; 3.Z+",
"                                        `+ @.@_++@@@#@; ; ; ; $@%@&@*@=@-@Y+g+; ; ; ; ; ; d.e.;@",
"                                        >@,@'@)@!@; ; ; ; ; ; d.~@{@]@^@/@(@g+; ; ; ; ; ; r.]+_@",
"                                        :@<@[@; ; ; ; ; ; ; ; d.~@}@|@1@2@3@4@; ; ; ; ; 5@3+4+6@",
"                                        7@] ; ; ; ; ; ; ; ; ; d.8@}@|@,@9@0@a@; ; ; ; b@c@d@e@f@",
"                                        g@h@| ; ; ; ; ; ; ; ; d.4.}@|@i@9@j@k@; ; ; {.M.N.l@m@n@",
"                                        o@p@q@r@c.; ; ; ; ; ; d.4.}@|@s@9@j@k@; ; t@u@v+w+Z.`.v@",
"                                        w@x@y@z@A@B@2.; ; ; ; d.4.N.|@s@9@j@C@; 3.4.D@E@M+N+-+F@",
"                                        G@H@I@J@K@L@M@9 ; ; ; d.4.N.|@s@N@j@C@d.e.%+&+O@P@9@Q@R@",
"                                        S@T@U@V@W@    X@Y@| ; d.4.N.|@s@N@j@C@{+]+^+Z@(+`@ #.#+#",
"                                        @###$#            %#&#*#4.N.G.s@N@=#-#;#>#5+,@,#8+9+'#)#",
"                                        !#~#                  {#]#N.G.s@N@=#^#/#|@(#_#:#<#o+[#}#",
"                                                                  |#1#(+N@=#2#O.P.3#4#5#6#7#8#9#",
"                                                                    0#a#b#=#c#x+y+d#A+e#f#g#h#i#",
"                                                                        j#k#l#m#n#P+o#p#q#r#s#t#",
"                                                                            u#N@v#w#x#y#z#A#B#C#",
"                                                                            D#:+E#F#G#H#I#J#K#L#",
"                                                                            M#N#O#P#Q#R#S#T#U#V#",
"                                                                            W#X#Y#Z#`# $.$+$@$  ",
"                                                                            #$$$T@%$&$*$=$      ",
"                                                                            -$;$h#>$,$          ",
"                                                                            '$)$!$              ",
"                                                                            ~${$                "};
