/* XPM */
static char * panelMoveYp_xpm[] = {
"48 48 392 2",
"  	c None",
". 	c #CC0C0C",
"+ 	c #DB0909",
"@ 	c #C50E0E",
"# 	c #AF0B0B",
"$ 	c #BD0808",
"% 	c #C30808",
"& 	c #CB0606",
"* 	c #D40505",
"= 	c #E00303",
"- 	c #ED0000",
"; 	c #F20000",
"> 	c #F60000",
", 	c #FA0000",
"' 	c #D40B0B",
") 	c #930A0A",
"! 	c #9B0909",
"~ 	c #A30707",
"{ 	c #AB0606",
"] 	c #B10505",
"^ 	c #BC0303",
"/ 	c #C80000",
"( 	c #CD0000",
"_ 	c #D10000",
": 	c #D50000",
"< 	c #DA0000",
"[ 	c #DE0000",
"} 	c #E20000",
"| 	c #E60000",
"1 	c #EB0000",
"2 	c #EF0000",
"3 	c #F30000",
"4 	c #EE0303",
"5 	c #D40A0A",
"6 	c #840B0B",
"7 	c #960505",
"8 	c #A80000",
"9 	c #AC0000",
"0 	c #B00000",
"a 	c #B40000",
"b 	c #B90000",
"c 	c #BD0000",
"d 	c #C10000",
"e 	c #C60000",
"f 	c #CA0000",
"g 	c #CE0000",
"h 	c #D30000",
"i 	c #D70000",
"j 	c #DB0000",
"k 	c #E00000",
"l 	c #E40000",
"m 	c #E80000",
"n 	c #EC0000",
"o 	c #F10000",
"p 	c #E10606",
"q 	c #8C0707",
"r 	c #A00000",
"s 	c #980606",
"t 	c #A10303",
"u 	c #AE0000",
"v 	c #B20000",
"w 	c #B60000",
"x 	c #BA0000",
"y 	c #BF0000",
"z 	c #C30000",
"A 	c #C70000",
"B 	c #CC0000",
"C 	c #D00000",
"D 	c #D40000",
"E 	c #D90000",
"F 	c #DD0000",
"G 	c #E10000",
"H 	c #EA0000",
"I 	c #EE0000",
"J 	c #D30909",
"K 	c #8E0707",
"L 	c #A00101",
"M 	c #A20202",
"N 	c #9D0606",
"O 	c #AA0202",
"P 	c #B80000",
"Q 	c #BC0000",
"R 	c #C00000",
"S 	c #C50000",
"T 	c #C90000",
"U 	c #D20000",
"V 	c #D60000",
"W 	c #DF0000",
"X 	c #E30000",
"Y 	c #E70000",
"Z 	c #DD0404",
"` 	c #CD0A0A",
" .	c #960606",
"..	c #9E0404",
"+.	c #9F0606",
"@.	c #B10000",
"#.	c #B50000",
"$.	c #BE0000",
"%.	c #C20000",
"&.	c #CB0000",
"*.	c #CF0000",
"=.	c #D80000",
"-.	c #DC0000",
";.	c #E50000",
">.	c #D60606",
",.	c #8D0909",
"'.	c #A30101",
").	c #AA0000",
"!.	c #B30000",
"~.	c #B70000",
"{.	c #BB0000",
"].	c #C40000",
"^.	c #E00101",
"/.	c #C20A0A",
"(.	c #7E0B0B",
"_.	c #940303",
":.	c #9F0000",
"<.	c #A30000",
"[.	c #A70000",
"}.	c #CF0505",
"|.	c #C00A0A",
"1.	c #850505",
"2.	c #940000",
"3.	c #980000",
"4.	c #9C0000",
"5.	c #A50000",
"6.	c #A90000",
"7.	c #AD0000",
"8.	c #AF0606",
"9.	c #BF0202",
"0.	c #C70707",
"a.	c #760707",
"b.	c #880000",
"c.	c #8D0000",
"d.	c #910000",
"e.	c #950000",
"f.	c #9A0000",
"g.	c #9E0000",
"h.	c #A20000",
"i.	c #A60000",
"j.	c #AB0000",
"k.	c #AF0000",
"l.	c #AB0303",
"m.	c #A90606",
"n.	c #B50404",
"o.	c #B60505",
"p.	c #CE0202",
"q.	c #B90A0A",
"r.	c #690909",
"s.	c #7A0202",
"t.	c #810000",
"u.	c #860000",
"v.	c #8A0000",
"w.	c #8E0000",
"x.	c #930000",
"y.	c #970000",
"z.	c #9B0000",
"A.	c #A40000",
"B.	c #A30202",
"C.	c #9E0606",
"D.	c #AC0202",
"E.	c #B30101",
"F.	c #9D0A0A",
"G.	c #B50303",
"H.	c #B80505",
"I.	c #BF0404",
"J.	c #C20606",
"K.	c #B20B0B",
"L.	c #6C0303",
"M.	c #760000",
"N.	c #7A0000",
"O.	c #7F0000",
"P.	c #830000",
"Q.	c #870000",
"R.	c #8C0000",
"S.	c #900000",
"T.	c #990000",
"U.	c #9B0101",
"V.	c #950505",
"W.	c #9D0404",
"X.	c #A00606",
"Y.	c #A90808",
"Z.	c #C00101",
"`.	c #C40202",
" +	c #BC0606",
".+	c #B50909",
"++	c #5F0505",
"@+	c #6B0000",
"#+	c #6F0000",
"$+	c #740000",
"%+	c #780000",
"&+	c #7C0000",
"*+	c #800000",
"=+	c #850000",
"-+	c #890000",
";+	c #920000",
">+	c #8C0505",
",+	c #900505",
"'+	c #9B0303",
")+	c #B30707",
"!+	c #9A0F0F",
"~+	c #510707",
"{+	c #5E0101",
"]+	c #640000",
"^+	c #680000",
"/+	c #6D0000",
"(+	c #710000",
"_+	c #750000",
":+	c #790000",
"<+	c #7E0000",
"[+	c #820000",
"}+	c #850303",
"|+	c #840505",
"1+	c #910101",
"2+	c #940202",
"3+	c #870909",
"4+	c #450909",
"5+	c #520202",
"6+	c #590000",
"7+	c #5D0000",
"8+	c #610000",
"9+	c #660000",
"0+	c #6A0000",
"a+	c #6E0000",
"b+	c #730000",
"c+	c #770000",
"d+	c #7B0000",
"e+	c #7C0202",
"f+	c #790606",
"g+	c #840202",
"h+	c #8B0101",
"i+	c #820707",
"j+	c #450404",
"k+	c #4E0000",
"l+	c #520000",
"m+	c #560000",
"n+	c #5B0000",
"o+	c #5F0000",
"p+	c #630000",
"q+	c #670000",
"r+	c #6C0000",
"s+	c #700000",
"t+	c #6F0505",
"u+	c #760404",
"v+	c #7C0505",
"w+	c #390606",
"x+	c #420000",
"y+	c #470000",
"z+	c #4B0000",
"A+	c #4F0000",
"B+	c #540000",
"C+	c #580000",
"D+	c #5C0000",
"E+	c #600000",
"F+	c #650000",
"G+	c #690000",
"H+	c #660404",
"I+	c #690505",
"J+	c #750303",
"K+	c #6A0B0B",
"L+	c #2E0808",
"M+	c #360101",
"N+	c #3B0000",
"O+	c #400000",
"P+	c #440000",
"Q+	c #480000",
"R+	c #4D0000",
"S+	c #510000",
"T+	c #550000",
"U+	c #5A0000",
"V+	c #5E0000",
"W+	c #5E0303",
"X+	c #5E0606",
"Y+	c #690101",
"Z+	c #6C0202",
"`+	c #650808",
" @	c #230A0A",
".@	c #2A0303",
"+@	c #300000",
"@@	c #350000",
"#@	c #390000",
"$@	c #3D0000",
"%@	c #410000",
"&@	c #460000",
"*@	c #4A0000",
"=@	c #530000",
"-@	c #560101",
";@	c #540606",
">@	c #5C0303",
",@	c #5E0707",
"'@	c #200505",
")@	c #250000",
"!@	c #290000",
"~@	c #2E0000",
"{@	c #320000",
"]@	c #360000",
"^@	c #3A0000",
"/@	c #3F0000",
"(@	c #430000",
"_@	c #4C0000",
":@	c #4A0505",
"<@	c #4F0404",
"[@	c #570505",
"}@	c #160606",
"|@	c #1A0000",
"1@	c #1E0000",
"2@	c #220000",
"3@	c #270000",
"4@	c #2B0000",
"5@	c #2F0000",
"6@	c #340000",
"7@	c #380000",
"8@	c #3C0000",
"9@	c #410404",
"0@	c #430606",
"a@	c #4E0303",
"b@	c #4A0A0A",
"c@	c #0F0808",
"d@	c #0F0202",
"e@	c #130000",
"f@	c #170000",
"g@	c #1B0000",
"h@	c #200000",
"i@	c #240000",
"j@	c #280000",
"k@	c #2D0000",
"l@	c #310000",
"m@	c #380202",
"n@	c #390505",
"o@	c #400202",
"p@	c #450101",
"q@	c #430808",
"r@	c #0B0B0B",
"s@	c #060303",
"t@	c #080000",
"u@	c #0C0000",
"v@	c #100000",
"w@	c #150000",
"x@	c #190000",
"y@	c #1D0000",
"z@	c #210000",
"A@	c #260000",
"B@	c #2A0000",
"C@	c #2E0101",
"D@	c #2F0505",
"E@	c #350303",
"F@	c #3B0606",
"G@	c #0C0C0C",
"H@	c #010101",
"I@	c #010000",
"J@	c #050000",
"K@	c #090000",
"L@	c #0E0000",
"M@	c #120000",
"N@	c #160000",
"O@	c #1F0000",
"P@	c #230000",
"Q@	c #260505",
"R@	c #290505",
"S@	c #320404",
"T@	c #050505",
"U@	c #040404",
"V@	c #030000",
"W@	c #070000",
"X@	c #0B0000",
"Y@	c #0F0000",
"Z@	c #140000",
"`@	c #180000",
" #	c #1C0303",
".#	c #1F0505",
"+#	c #250101",
"@#	c #280202",
"##	c #290909",
"$#	c #030303",
"%#	c #060505",
"&#	c #070404",
"*#	c #0D0000",
"=#	c #120202",
"-#	c #160505",
";#	c #1A0202",
">#	c #1E0101",
",#	c #200707",
"'#	c #080808",
")#	c #030202",
"!#	c #0A0606",
"~#	c #0E0606",
"{#	c #100404",
"]#	c #170505",
"^#	c #060606",
"/#	c #0C0606",
"(#	c #0E0404",
"_#	c #100D0D",
"                                                                                                ",
"                                                                                                ",
"                                                                                                ",
"                                                                                                ",
"                                                                                                ",
"                                                                                                ",
"                                                                                                ",
"                                                                                                ",
"                                                                                                ",
"                                                                                          . + @ ",
"                                                                          # $ % & * = - ; > , ' ",
"                                                          ) ! ~ { ] ^ / ( _ : < [ } | 1 2 3 4 5 ",
"                                                    6 7 8 9 0 a b c d e f g h i j k l m n o p   ",
"                                                    q r s t u v w x y z A B C D E F G | H I J   ",
"                                                      K L M N O a P Q R S T ( U V < W X Y Z `   ",
"                                                           ...+.@.#.x $.%.A &.*.h =.-.k ;.>.    ",
"                                                          ,.'.).u !.~.{.y ]./ B _ : E [ ^./.    ",
"                                                      (._.:.<.[.9 0 a b c d e f g U i j }.|.    ",
"                                                    1.2.3.4.r 5.6.7.v w x 8.9.A B C D =.0.      ",
"                                                a.b.c.d.e.f.g.h.i.j.k.l.m.{ n.o./ ( _ p.q.      ",
"                                            r.s.t.u.v.w.x.y.z.:.A.B.C.D.E.F.G.d H.I.*.J.K.      ",
"                                          L.M.N.O.P.Q.R.S.2.T.U.V.W.).X.      Y.Z.`. +.+        ",
"                                      ++@+#+$+%+&+*+=+-+c.;+>+,+g.'+              )+T !+        ",
"                                  ~+{+]+^+/+(+_+:+<+[+u.}+|+1+2+3+                              ",
"                              4+5+6+7+8+9+0+a+b+c+d+e+f+g+h+i+                                  ",
"                            j+k+l+m+n+o+p+q+r+s+$+t+u+t.v+                                      ",
"                        w+x+y+z+A+B+C+D+E+F+G+H+I+M.J+K+                                        ",
"                    L+M+N+O+P+Q+R+S+T+U+V+W+X+Y+Z+`+                                            ",
"                 @.@+@@@#@$@%@&@*@k+=@-@;@>@p+,@                                                ",
"              '@)@!@~@{@]@^@/@(@y+_@:@<@6+[@                                                    ",
"          }@|@1@2@3@4@5@6@7@8@%@9@0@R+a@b@                                                      ",
"      c@d@e@f@g@h@i@j@k@l@@@m@n@o@p@q@                                                          ",
"  r@s@t@u@v@w@x@y@z@A@B@C@D@E@N+F@                                                              ",
"G@H@I@J@K@L@M@N@|@O@P@Q@R@+@S@                                                                  ",
"T@U@T@V@W@X@Y@Z@`@ #.#+#@###                                                                    ",
"r@$#H@%#&#t@*#=#-#;#>#,#                                                                        ",
"    '#H@)#!#~#{#e@]#                                                                            ",
"        ^#V@/#(#                                                                                ",
"            _#                                                                                  ",
"                                                                                                ",
"                                                                                                ",
"                                                                                                ",
"                                                                                                ",
"                                                                                                ",
"                                                                                                ",
"                                                                                                ",
"                                                                                                ",
"                                                                                                "};
