/* XPM */
static char * panelMoveYm_xpm[] = {
"48 48 390 2",
"  	c None",
". 	c #0F0D0D",
"+ 	c #0F0505",
"@ 	c #080000",
"# 	c #040000",
"$ 	c #0A0909",
"% 	c #190808",
"& 	c #140000",
"* 	c #0F0000",
"= 	c #0B0000",
"- 	c #060000",
"; 	c #020000",
"> 	c #020202",
", 	c #0B0B0B",
"' 	c #210B0B",
") 	c #1F0101",
"! 	c #1B0000",
"~ 	c #170000",
"{ 	c #120000",
"] 	c #0E0000",
"^ 	c #090000",
"/ 	c #050000",
"( 	c #010000",
"_ 	c #000000",
": 	c #050505",
"< 	c #121212",
"[ 	c #280E0E",
"} 	c #2A0303",
"| 	c #270000",
"1 	c #220000",
"2 	c #1E0000",
"3 	c #190000",
"4 	c #150000",
"5 	c #100000",
"6 	c #0C0000",
"7 	c #070000",
"8 	c #030000",
"9 	c #030303",
"0 	c #080808",
"a 	c #330606",
"b 	c #320000",
"c 	c #2E0000",
"d 	c #290000",
"e 	c #250000",
"f 	c #210000",
"g 	c #1C0000",
"h 	c #180000",
"i 	c #130000",
"j 	c #0A0101",
"k 	c #0C0808",
"l 	c #070606",
"m 	c #0C0C0C",
"n 	c #3B0909",
"o 	c #3E0000",
"p 	c #3A0000",
"q 	c #350000",
"r 	c #310000",
"s 	c #2C0000",
"t 	c #280000",
"u 	c #230000",
"v 	c #1F0000",
"w 	c #1A0000",
"x 	c #160000",
"y 	c #130707",
"z 	c #100808",
"A 	c #080505",
"B 	c #101010",
"C 	c #410C0C",
"D 	c #480202",
"E 	c #450000",
"F 	c #410000",
"G 	c #3C0000",
"H 	c #380000",
"I 	c #330000",
"J 	c #2F0000",
"K 	c #2A0000",
"L 	c #260000",
"M 	c #1C0404",
"N 	c #140202",
"O 	c #100202",
"P 	c #110C0C",
"Q 	c #450E0E",
"R 	c #500404",
"S 	c #510000",
"T 	c #4D0000",
"U 	c #480000",
"V 	c #440000",
"W 	c #3F0000",
"X 	c #3B0000",
"Y 	c #360000",
"Z 	c #2D0000",
"` 	c #280202",
" .	c #210808",
"..	c #1F0404",
"+.	c #1B0101",
"@.	c #170A0A",
"#.	c #580707",
"$.	c #5D0000",
"%.	c #580000",
"&.	c #540000",
"*.	c #4F0000",
"=.	c #4B0000",
"-.	c #460000",
";.	c #420000",
">.	c #3D0000",
",.	c #390000",
"'.	c #340000",
").	c #2B0808",
"!.	c #280606",
"~.	c #200707",
"{.	c #5C0A0A",
"].	c #680101",
"^.	c #640000",
"/.	c #5F0000",
"(.	c #5B0000",
"_.	c #560000",
":.	c #520000",
"<.	c #490000",
"[.	c #400000",
"}.	c #370606",
"|.	c #310808",
"1.	c #2C0404",
"2.	c #220F0F",
"3.	c #620C0C",
"4.	c #700202",
"5.	c #700000",
"6.	c #6B0000",
"7.	c #670000",
"8.	c #620000",
"9.	c #5E0000",
"0.	c #590000",
"a.	c #550000",
"b.	c #500000",
"c.	c #4C0000",
"d.	c #440404",
"e.	c #3C0202",
"f.	c #380202",
"g.	c #2D0B0B",
"h.	c #620F0F",
"i.	c #770505",
"j.	c #7B0000",
"k.	c #770000",
"l.	c #720000",
"m.	c #6E0000",
"n.	c #690000",
"o.	c #650000",
"p.	c #600000",
"q.	c #5C0000",
"r.	c #570000",
"s.	c #520101",
"t.	c #440909",
"u.	c #450404",
"v.	c #380909",
"w.	c #7C0707",
"x.	c #870000",
"y.	c #830000",
"z.	c #7E0000",
"A.	c #790000",
"B.	c #750000",
"C.	c #710000",
"D.	c #6C0000",
"E.	c #680000",
"F.	c #630000",
"G.	c #500707",
"H.	c #4D0707",
"I.	c #460606",
"J.	c #7F0A0A",
"K.	c #910101",
"L.	c #8E0000",
"M.	c #8A0000",
"N.	c #850000",
"O.	c #810000",
"P.	c #7C0000",
"Q.	c #780000",
"R.	c #730000",
"S.	c #6F0000",
"T.	c #6A0000",
"U.	c #5F0505",
"V.	c #550808",
"W.	c #5B0101",
"X.	c #540303",
"Y.	c #420E0E",
"Z.	c #800D0D",
"`.	c #980303",
" +	c #9A0000",
".+	c #950000",
"++	c #910000",
"@+	c #8C0000",
"#+	c #880000",
"$+	c #7F0000",
"%+	c #7A0000",
"&+	c #760000",
"*+	c #6D0303",
"=+	c #5F0808",
"-+	c #630303",
";+	c #620101",
">+	c #4F0B0B",
",+	c #B20B0B",
"'+	c #D20000",
")+	c #B00A0A",
"!+	c #9E0505",
"~+	c #A60000",
"{+	c #A10000",
"]+	c #9D0000",
"^+	c #980000",
"/+	c #940000",
"(+	c #8F0000",
"_+	c #8B0000",
":+	c #860000",
"<+	c #820000",
"[+	c #7C0101",
"}+	c #6A0808",
"|+	c #6B0606",
"1+	c #5E0808",
"2+	c #CC0404",
"3+	c #D50000",
"4+	c #D10000",
"5+	c #C70202",
"6+	c #A30C0C",
"7+	c #A00808",
"8+	c #B10000",
"9+	c #AD0000",
"0+	c #A80000",
"a+	c #A40000",
"b+	c #9F0000",
"c+	c #9B0000",
"d+	c #960000",
"e+	c #920000",
"f+	c #8D0000",
"g+	c #890000",
"h+	c #770707",
"i+	c #720707",
"j+	c #6E0505",
"k+	c #A31010",
"l+	c #DC0000",
"m+	c #D80000",
"n+	c #D40000",
"o+	c #CF0000",
"p+	c #CA0000",
"q+	c #B90505",
"r+	c #A10B0B",
"s+	c #BA0101",
"t+	c #B90000",
"u+	c #B40000",
"v+	c #B00000",
"w+	c #AB0000",
"x+	c #A70000",
"y+	c #A20000",
"z+	c #990000",
"A+	c #860505",
"B+	c #7A0808",
"C+	c #840202",
"D+	c #7E0303",
"E+	c #640D0D",
"F+	c #C30909",
"G+	c #DF0000",
"H+	c #DB0000",
"I+	c #D60000",
"J+	c #CD0000",
"K+	c #C90000",
"L+	c #C40000",
"M+	c #C00000",
"N+	c #BB0000",
"O+	c #B70000",
"P+	c #B20000",
"Q+	c #AE0000",
"R+	c #A90000",
"S+	c #A50000",
"T+	c #A00000",
"U+	c #970202",
"V+	c #840808",
"W+	c #8B0404",
"X+	c #8D0101",
"Y+	c #730B0B",
"Z+	c #E10202",
"`+	c #E20000",
" @	c #DD0000",
".@	c #D90000",
"+@	c #D00000",
"@@	c #CB0000",
"#@	c #C70000",
"$@	c #C20000",
"%@	c #BE0000",
"&@	c #B50000",
"*@	c #AC0000",
"=@	c #A60101",
"-@	c #900808",
";@	c #910606",
">@	c #860707",
",@	c #B90D0D",
"'@	c #E90000",
")@	c #E50000",
"!@	c #E00000",
"~@	c #D70000",
"{@	c #D30000",
"]@	c #CE0000",
"^@	c #C50000",
"/@	c #BC0000",
"(@	c #B30000",
"_@	c #A00606",
":@	c #980707",
"<@	c #A40101",
"[@	c #970505",
"}@	c #730F0F",
"|@	c #D40808",
"1@	c #EC0000",
"2@	c #E70000",
"3@	c #E30000",
"4@	c #DE0000",
"5@	c #DA0000",
"6@	c #CC0000",
"7@	c #C80000",
"8@	c #C30000",
"9@	c #BF0000",
"0@	c #BA0000",
"a@	c #B60000",
"b@	c #A30505",
"c@	c #970808",
"d@	c #860D0D",
"e@	c #F20000",
"f@	c #EE0000",
"g@	c #EA0000",
"h@	c #E10000",
"i@	c #C60000",
"j@	c #C10000",
"k@	c #BD0000",
"l@	c #B80000",
"m@	c #AF0000",
"n@	c #950909",
"o@	c #CD0B0B",
"p@	c #F60000",
"q@	c #F10000",
"r@	c #ED0000",
"s@	c #E80000",
"t@	c #E40000",
"u@	c #A50202",
"v@	c #890B0B",
"w@	c #EA0505",
"x@	c #F80000",
"y@	c #F40000",
"z@	c #EF0000",
"A@	c #EB0000",
"B@	c #E60000",
"C@	c #B90303",
"D@	c #AA0707",
"E@	c #A20808",
"F@	c #9D0909",
"G@	c #9C0808",
"H@	c #960808",
"I@	c #920909",
"J@	c #7B0F0F",
"K@	c #FF0000",
"L@	c #FB0000",
"M@	c #E00303",
"N@	c #CD0707",
"O@	c #C20909",
"P@	c #C20808",
"Q@	c #BD0808",
"R@	c #B60909",
"S@	c #B70808",
"T@	c #B00909",
"U@	c #B50606",
"V@	c #BF0101",
"W@	c #A90101",
"X@	c #8A0B0B",
"Y@	c #B81010",
"Z@	c #DF0808",
"`@	c #DD0909",
" #	c #DC0808",
".#	c #D70808",
"+#	c #D30808",
"@#	c #DA0505",
"##	c #E30101",
"$#	c #BF0404",
"%#	c #B20707",
"&#	c #A90909",
"*#	c #9F0B0B",
"=#	c #930D0D",
"-#	c #880F0F",
";#	c #E20808",
">#	c #FC0000",
",#	c #F70000",
"'#	c #E40404",
")#	c #C80A0A",
"!#	c #BC0C0C",
"~#	c #B50C0C",
"{#	c #9E1010",
"]#	c #BA1010",
"^#	c #C90D0D",
"/#	c #B51010",
"                                                                                                ",
"                                                                                                ",
"                                                                                                ",
"                                                                                                ",
"                                                                                                ",
"                                                                                                ",
"                                                                                                ",
"                                                                                                ",
"                                                                                                ",
"                                                                                  .             ",
"                                                                                + @ # $         ",
"                                                                            % & * = - ; > ,     ",
"                                                                        ' ) ! ~ { ] ^ / ( _ : < ",
"                                                                    [ } | 1 2 3 4 5 6 7 8 9 0 , ",
"                                                                  a b c d e f g h i ] j k l _ m ",
"                                                              n o p q r s t u v w x y z @ A B   ",
"                                                          C D E F G H I J K L f M % N O P       ",
"                                                      Q R S T U V W X Y b Z `  ...+.@.          ",
"                                                    #.$.%.&.*.=.-.;.>.,.'.).!.| ~.              ",
"                                                {.].^./.(._.:.T <.V [.}.|.b 1.2.                ",
"                                            3.4.5.6.7.8.9.0.a.b.c.d.n e.f.g.                    ",
"                                        h.i.j.k.l.m.n.o.p.q.r.s.t.u.E v.                        ",
"                                      w.x.y.z.A.B.C.D.E.F.9.G.H.S I.                            ",
"                                  J.K.L.M.N.O.P.Q.R.S.T.U.V.W.X.Y.                              ",
"                              Z.`. +.+++@+#+y.$+%+&+*+=+-+;+>+                                  ",
"        ,+'+)+              !+~+{+]+^+/+(+_+:+<+[+}+|+S.1+                                      ",
"        2+3+4+5+6+      7+8+9+0+a+b+c+d+e+f+g+h+i+j.j+                                          ",
"      k+l+m+n+o+p+q+r+s+t+u+v+w+x+y+]+z+/+A+B+C+D+E+                                            ",
"      F+G+H+I+'+J+K+L+M+N+O+P+Q+R+S+T+U+V+W+X+Y+                                                ",
"      Z+`+ @.@n++@@@#@$@%@t+&@v+*@=@-@;@ +>@                                                    ",
"    ,@'@)@!@l+~@{@]@K+^@M+/@O+(@_@:@<@[@}@                                                      ",
"    |@1@2@3@4@5@3+4+6@7@8@9@0@a@b@c@d@                                                          ",
"    e@f@g@)@h@l+m+{@o+p+i@j@k@l@u+m@n@                                                          ",
"  o@p@q@r@s@t@G+H+I+'+J+K+L+M+N+a@P+Q+u@v@                                                      ",
"  w@x@y@z@A@B@`+ @.@n++@@@#@C@D@E@F@G@H@I@J@                                                    ",
"  K@L@p@e@1@M@N@O@P@Q@R@S@T@U@V@/@O+(@Q+W@X@                                                    ",
"Y@Z@`@ #.#+#@###3@4@5@3++@$#%#&#*#=#-#                                                          ",
";#K@K@>#,#'#|@)#!#~#{#                                                                          ",
"]#^#/#                                                                                          ",
"                                                                                                ",
"                                                                                                ",
"                                                                                                ",
"                                                                                                ",
"                                                                                                ",
"                                                                                                ",
"                                                                                                ",
"                                                                                                ",
"                                                                                                "};
