/* XPM */
static char * panelMoveXp_xpm[] = {
"48 48 385 2",
"  	c None",
". 	c #110D0D",
"+ 	c #0B0909",
"@ 	c #060000",
"# 	c #0B0000",
"$ 	c #110505",
"% 	c #0B0B0B",
"& 	c #020202",
"* 	c #040000",
"= 	c #090000",
"- 	c #0D0000",
"; 	c #120000",
"> 	c #160000",
", 	c #1A0808",
"' 	c #121212",
") 	c #050505",
"! 	c #000000",
"~ 	c #020000",
"{ 	c #070000",
"] 	c #100000",
"^ 	c #140000",
"/ 	c #190000",
"( 	c #1D0000",
"_ 	c #220101",
": 	c #220B0B",
"< 	c #080808",
"[ 	c #040303",
"} 	c #050000",
"| 	c #0A0000",
"1 	c #0E0000",
"2 	c #130000",
"3 	c #170000",
"4 	c #1B0000",
"5 	c #200000",
"6 	c #240000",
"7 	c #290000",
"8 	c #2C0303",
"9 	c #290E0E",
"0 	c #0C0C0C",
"a 	c #090606",
"b 	c #0E0808",
"c 	c #0D0101",
"d 	c #110000",
"e 	c #150000",
"f 	c #1A0000",
"g 	c #1E0000",
"h 	c #230000",
"i 	c #270000",
"j 	c #2C0000",
"k 	c #300000",
"l 	c #340000",
"m 	c #340606",
"n 	c #101010",
"o 	c #0A0505",
"p 	c #120808",
"q 	c #150707",
"r 	c #180000",
"s 	c #1C0000",
"t 	c #210000",
"u 	c #250000",
"v 	c #2A0000",
"w 	c #2E0000",
"x 	c #330000",
"y 	c #370000",
"z 	c #3C0000",
"A 	c #400000",
"B 	c #3C0909",
"C 	c #120C0C",
"D 	c #120202",
"E 	c #160202",
"F 	c #1E0404",
"G 	c #280000",
"H 	c #310000",
"I 	c #350000",
"J 	c #3A0000",
"K 	c #3E0000",
"L 	c #430000",
"M 	c #470000",
"N 	c #4A0202",
"O 	c #420C0C",
"P 	c #190A0A",
"Q 	c #1D0101",
"R 	c #210404",
"S 	c #230808",
"T 	c #2A0202",
"U 	c #2F0000",
"V 	c #380000",
"W 	c #410000",
"X 	c #450000",
"Y 	c #4A0000",
"Z 	c #4E0000",
"` 	c #530000",
" .	c #520404",
"..	c #460E0E",
"+.	c #220707",
"@.	c #2A0606",
"#.	c #2D0808",
"$.	c #360000",
"%.	c #3B0000",
"&.	c #3F0000",
"*.	c #480000",
"=.	c #4C0000",
"-.	c #510000",
";.	c #550000",
">.	c #5A0000",
",.	c #5E0000",
"'.	c #590707",
").	c #240F0F",
"!.	c #2D0404",
"~.	c #330808",
"{.	c #390606",
"].	c #420000",
"^.	c #460000",
"/.	c #4B0000",
"(.	c #4F0000",
"_.	c #540000",
":.	c #580000",
"<.	c #5D0000",
"[.	c #610000",
"}.	c #650000",
"|.	c #690101",
"1.	c #5E0A0A",
"2.	c #2F0B0B",
"3.	c #3A0202",
"4.	c #3E0202",
"5.	c #450404",
"6.	c #4D0000",
"7.	c #520000",
"8.	c #560000",
"9.	c #5B0000",
"0.	c #5F0000",
"a.	c #640000",
"b.	c #680000",
"c.	c #6D0000",
"d.	c #710000",
"e.	c #710202",
"f.	c #630C0C",
"g.	c #3A0909",
"h.	c #470404",
"i.	c #460909",
"j.	c #530101",
"k.	c #590000",
"l.	c #620000",
"m.	c #660000",
"n.	c #6B0000",
"o.	c #6F0000",
"p.	c #740000",
"q.	c #780000",
"r.	c #7D0000",
"s.	c #780505",
"t.	c #630F0F",
"u.	c #470606",
"v.	c #4E0707",
"w.	c #520707",
"x.	c #600000",
"y.	c #690000",
"z.	c #720000",
"A.	c #760000",
"B.	c #7B0000",
"C.	c #7F0000",
"D.	c #840000",
"E.	c #880000",
"F.	c #7D0707",
"G.	c #430E0E",
"H.	c #550303",
"I.	c #5D0101",
"J.	c #570808",
"K.	c #600505",
"L.	c #6C0000",
"M.	c #700000",
"N.	c #750000",
"O.	c #790000",
"P.	c #820000",
"Q.	c #860000",
"R.	c #8B0000",
"S.	c #8F0000",
"T.	c #920101",
"U.	c #800A0A",
"V.	c #500B0B",
"W.	c #630101",
"X.	c #640303",
"Y.	c #600808",
"Z.	c #6E0303",
"`.	c #770000",
" +	c #7C0000",
".+	c #800000",
"++	c #890000",
"@+	c #8D0000",
"#+	c #920000",
"$+	c #960000",
"%+	c #9B0000",
"&+	c #990303",
"*+	c #810D0D",
"=+	c #5F0808",
"-+	c #6C0606",
";+	c #6B0808",
">+	c #7D0101",
",+	c #870000",
"'+	c #8C0000",
")+	c #900000",
"!+	c #940000",
"~+	c #990000",
"{+	c #9D0000",
"]+	c #A20000",
"^+	c #A60000",
"/+	c #9E0505",
"(+	c #B00A0A",
"_+	c #D20000",
":+	c #B20B0B",
"<+	c #6F0505",
"[+	c #730707",
"}+	c #780707",
"|+	c #8A0000",
"1+	c #8E0000",
"2+	c #930000",
"3+	c #970000",
"4+	c #9C0000",
"5+	c #A00000",
"6+	c #A50000",
"7+	c #A90000",
"8+	c #AE0000",
"9+	c #B10000",
"0+	c #A00808",
"a+	c #A30C0C",
"b+	c #C70202",
"c+	c #D10000",
"d+	c #D60000",
"e+	c #CC0404",
"f+	c #650D0D",
"g+	c #7F0303",
"h+	c #850202",
"i+	c #7B0808",
"j+	c #870505",
"k+	c #950000",
"l+	c #9A0000",
"m+	c #9E0000",
"n+	c #A30000",
"o+	c #A70000",
"p+	c #AB0000",
"q+	c #B00000",
"r+	c #B50000",
"s+	c #B90000",
"t+	c #BB0101",
"u+	c #A20B0B",
"v+	c #B90505",
"w+	c #CB0000",
"x+	c #CF0000",
"y+	c #D40000",
"z+	c #D80000",
"A+	c #DD0000",
"B+	c #A31010",
"C+	c #740B0B",
"D+	c #8E0101",
"E+	c #8B0404",
"F+	c #850808",
"G+	c #970202",
"H+	c #A10000",
"I+	c #AA0000",
"J+	c #B30000",
"K+	c #B70000",
"L+	c #BC0000",
"M+	c #C00000",
"N+	c #C50000",
"O+	c #C90000",
"P+	c #CE0000",
"Q+	c #DB0000",
"R+	c #DF0000",
"S+	c #C30909",
"T+	c #860707",
"U+	c #920606",
"V+	c #900808",
"W+	c #A60101",
"X+	c #AC0000",
"Y+	c #BA0000",
"Z+	c #BE0000",
"`+	c #C30000",
" @	c #C70000",
".@	c #CC0000",
"+@	c #D00000",
"@@	c #D50000",
"#@	c #D90000",
"$@	c #DE0000",
"%@	c #E20000",
"&@	c #E10202",
"*@	c #740F0F",
"=@	c #970505",
"-@	c #A50101",
";@	c #980707",
">@	c #A00606",
",@	c #B40000",
"'@	c #B80000",
")@	c #C10000",
"!@	c #CA0000",
"~@	c #D30000",
"{@	c #D70000",
"]@	c #DC0000",
"^@	c #E00000",
"/@	c #E50000",
"(@	c #E90000",
"_@	c #B90D0D",
":@	c #860D0D",
"<@	c #980808",
"[@	c #A40505",
"}@	c #B60000",
"|@	c #BB0000",
"1@	c #BF0000",
"2@	c #C40000",
"3@	c #C80000",
"4@	c #DA0000",
"5@	c #E30000",
"6@	c #E70000",
"7@	c #EC0000",
"8@	c #D40808",
"9@	c #950909",
"0@	c #BD0000",
"a@	c #C20000",
"b@	c #C60000",
"c@	c #E10000",
"d@	c #E60000",
"e@	c #EA0000",
"f@	c #EE0000",
"g@	c #F20000",
"h@	c #8A0B0B",
"i@	c #A60202",
"j@	c #CD0000",
"k@	c #E40000",
"l@	c #E80000",
"m@	c #ED0000",
"n@	c #F10000",
"o@	c #F60000",
"p@	c #CD0B0B",
"q@	c #7B0F0F",
"r@	c #920909",
"s@	c #970808",
"t@	c #9C0808",
"u@	c #9E0909",
"v@	c #A20808",
"w@	c #AA0707",
"x@	c #B90303",
"y@	c #EB0000",
"z@	c #EF0000",
"A@	c #F40000",
"B@	c #F80000",
"C@	c #EA0505",
"D@	c #8B0B0B",
"E@	c #A90101",
"F@	c #AF0000",
"G@	c #BF0101",
"H@	c #B60606",
"I@	c #B00909",
"J@	c #B70808",
"K@	c #B60909",
"L@	c #BD0808",
"M@	c #C20808",
"N@	c #C20909",
"O@	c #CD0707",
"P@	c #E00303",
"Q@	c #FB0000",
"R@	c #FE0000",
"S@	c #890F0F",
"T@	c #930D0D",
"U@	c #9F0B0B",
"V@	c #A90909",
"W@	c #B20707",
"X@	c #BF0404",
"Y@	c #E30101",
"Z@	c #DA0505",
"`@	c #D20808",
" #	c #D60808",
".#	c #DC0808",
"+#	c #DD0909",
"@#	c #DF0808",
"##	c #B81010",
"$#	c #9E1010",
"%#	c #B60C0C",
"&#	c #BC0C0C",
"*#	c #C80A0A",
"=#	c #E40404",
"-#	c #F70000",
";#	c #FC0000",
">#	c #FF0000",
",#	c #E20808",
"'#	c #B51010",
")#	c #C90D0D",
"!#	c #BA1010",
"                                                                                                ",
"                                                                                                ",
"                                                                                                ",
"                                                                                                ",
"                                                                                                ",
"                                                                                                ",
"                                                                                                ",
"                                                                                                ",
"                                                                                                ",
"            .                                                                                   ",
"        + @ # $                                                                                 ",
"    % & * = - ; > ,                                                                             ",
"' ) ! ~ { # ] ^ / ( _ :                                                                         ",
"% < [ } | 1 2 3 4 5 6 7 8 9                                                                     ",
"0 ! a b c d e f g h i j k l m                                                                   ",
"  n o | p q r s t u v w x y z A B                                                               ",
"      C D E , F h G j H I J K L M N O                                                           ",
"          P Q R S T U x V z W X Y Z `  ...                                                      ",
"              +.7 @.#.$.%.&.L *.=.-.;.>.,.'.                                                    ",
"                ).!.l ~.{.].^./.(._.:.<.[.}.|.1.                                                ",
"                    2.3.4.B 5.6.7.8.9.0.a.b.c.d.e.f.                                            ",
"                        g.M h.i.j.k.<.l.m.n.o.p.q.r.s.t.                                        ",
"                            u.` v.w.x.a.y.c.z.A.B.C.D.E.F.                                      ",
"                              G.H.I.J.K.L.M.N.O.r.P.Q.R.S.T.U.                                  ",
"                                  V.W.X.Y.Z.`. +.+D.++@+#+$+%+&+*+                              ",
"                                      =+d.-+;+>+P.,+'+)+!+~+{+]+^+/+              (+_+:+        ",
"                                          <+ +[+}+|+1+2+3+4+5+6+7+8+9+0+      a+b+c+d+e+        ",
"                                            f+g+h+i+j+k+l+m+n+o+p+q+r+s+t+u+v+w+x+y+z+A+B+      ",
"                                                C+D+E+F+G+H+6+I+8+J+K+L+M+N+O+P+_+d+Q+R+S+      ",
"                                                    T+l+U+V+W+X+9+r+Y+Z+`+ @.@+@@@#@$@%@&@      ",
"                                                      *@=@-@;@>@,@'@L+)@N+!@P+~@{@]@^@/@(@_@    ",
"                                                          :@<@[@}@|@1@2@3@.@c+d+4@$@5@6@7@8@    ",
"                                                          9@q+,@s+0@a@b@w+x+y+z+A+c@d@e@f@g@    ",
"                                                      h@i@8+J+K+L+M+2@O+j@_+d+Q+R+k@l@m@n@o@p@  ",
"                                                    q@r@s@t@u@v@w@x@ @w++@y+#@A+%@d@y@z@A@B@C@  ",
"                                                    D@E@F@J+'@L+G@H@I@J@K@L@M@N@O@P@7@g@o@Q@R@  ",
"                                                          S@T@U@V@W@X@+@@@4@$@5@Y@Z@`@ #.#+#@###",
"                                                                          $#%#&#*#8@=#-#;#>#>#,#",
"                                                                                          '#)#!#",
"                                                                                                ",
"                                                                                                ",
"                                                                                                ",
"                                                                                                ",
"                                                                                                ",
"                                                                                                ",
"                                                                                                ",
"                                                                                                ",
"                                                                                                "};
