/* XPM */
static char * panelResize1_xpm[] = {
"48 48 400 2",
"  	c None",
". 	c #00FF00",
"+ 	c #D3D3D5",
"@ 	c #E0E0E0",
"# 	c #CACAEF",
"$ 	c #E9E9FF",
"% 	c #F7F7FF",
"& 	c #F5F5F6",
"* 	c #D7D7D7",
"= 	c #8888E5",
"- 	c #AAAAFF",
"; 	c #BABAFF",
"> 	c #C9C9FF",
", 	c #D9D9FF",
"' 	c #EEEEEF",
") 	c #4B4BDD",
"! 	c #6A6AFB",
"~ 	c #7B7BFF",
"{ 	c #8B8BFF",
"] 	c #9A9AFF",
"^ 	c #B9B9FF",
"/ 	c #E8E8FF",
"( 	c #E5E5E9",
"_ 	c #CCCACA",
": 	c #1717D2",
"< 	c #2B2BF5",
"[ 	c #3D3DFF",
"} 	c #4C4CFF",
"| 	c #5B5BFF",
"1 	c #6B6BFF",
"2 	c #8A8AFF",
"3 	c #A9A9FF",
"4 	c #B3B4EE",
"5 	c #D0D5D8",
"6 	c #F6FEF6",
"7 	c #F9FFF9",
"8 	c #EFF3EF",
"9 	c #C9CFCA",
"0 	c #0505ED",
"a 	c #0303FF",
"b 	c #0E0EFF",
"c 	c #1D1DFF",
"d 	c #2D2DFF",
"e 	c #3C3CFF",
"f 	c #4B4BFF",
"g 	c #7775F4",
"h 	c #ABBCD7",
"i 	c #DBF5DB",
"j 	c #E6FFE6",
"k 	c #E8FFE8",
"l 	c #EAFFEA",
"m 	c #ECFFEC",
"n 	c #EEFFEE",
"o 	c #DCECDC",
"p 	c #0808E2",
"q 	c #0000FF",
"r 	c #2C2CFF",
"s 	c #3B3BFB",
"t 	c #7992DA",
"u 	c #BFE8C4",
"v 	c #D2FFD2",
"w 	c #D4FFD4",
"x 	c #D6FFD6",
"y 	c #D8FFD8",
"z 	c #DAFFDA",
"A 	c #DCFFDD",
"B 	c #DEFFDE",
"C 	c #E1FFE1",
"D 	c #E2FEE2",
"E 	c #C7E1C7",
"F 	c #0A0ADB",
"G 	c #0101FA",
"H 	c #0202FF",
"I 	c #4964E1",
"J 	c #9DD3B7",
"K 	c #BEFFBE",
"L 	c #C1FFC1",
"M 	c #C3FFC3",
"N 	c #C5FFC5",
"O 	c #C7FFC7",
"P 	c #C9FFC9",
"Q 	c #CBFFCB",
"R 	c #CDFFCD",
"S 	c #CFFFCF",
"T 	c #D1FFD1",
"U 	c #D3FFD3",
"V 	c #D5FFD5",
"W 	c #D1F9D1",
"X 	c #B5D9B5",
"Y 	c #0C0CD0",
"Z 	c #0303F3",
"` 	c #2831ED",
" .	c #7CBDB6",
"..	c #A9FBA8",
"+.	c #ADFFAD",
"@.	c #AFFFAF",
"#.	c #B1FFB1",
"$.	c #B3FFB3",
"%.	c #B5FFB5",
"&.	c #B7FFB7",
"*.	c #B9FFB9",
"=.	c #BBFFBB",
"-.	c #BDFFBD",
";.	c #BFFFC0",
">.	c #C4FFC3",
",.	c #C5FFC6",
"'.	c #C8FFC8",
").	c #CAFFCA",
"!.	c #C0F2C0",
"~.	c #0F0FBB",
"{.	c #0904F6",
"].	c #5E9FC0",
"^.	c #90F291",
"/.	c #99FF99",
"(.	c #9BFF9B",
"_.	c #9EFF9D",
":.	c #A0FFA0",
"<.	c #A2FFA2",
"[.	c #A4FFA4",
"}.	c #A6FFA6",
"|.	c #A8FFA8",
"1.	c #AAFFAA",
"2.	c #ACFFAC",
"3.	c #AEFFAE",
"4.	c #B0FFB0",
"5.	c #B2FFB2",
"6.	c #B4FFB4",
"7.	c #B6FFB6",
"8.	c #B8FFB8",
"9.	c #BAFFBA",
"0.	c #BCFFBC",
"a.	c #AEE9AE",
"b.	c #0A0ADA",
"c.	c #0707E5",
"d.	c #0707E3",
"e.	c #0101FD",
"f.	c #417BCE",
"g.	c #77E389",
"h.	c #86FF86",
"i.	c #88FF88",
"j.	c #8AFF8A",
"k.	c #8CFF8C",
"l.	c #8EFF8E",
"m.	c #90FF90",
"n.	c #92FF92",
"o.	c #94FF94",
"p.	c #96FF96",
"q.	c #98FF98",
"r.	c #9AFF9A",
"s.	c #9CFF9C",
"t.	c #9EFF9E",
"u.	c #A7FFA6",
"v.	c #ABFFAB",
"w.	c #B0FBB0",
"x.	c #9BDF9B",
"y.	c #0808E0",
"z.	c #0606EA",
"A.	c #2A4FE1",
"B.	c #5CCF8F",
"C.	c #73FE71",
"D.	c #74FF74",
"E.	c #76FF76",
"F.	c #78FF78",
"G.	c #7AFF7A",
"H.	c #7CFF7C",
"I.	c #7EFF7E",
"J.	c #80FF80",
"K.	c #82FF82",
"L.	c #84FF84",
"M.	c #87FF86",
"N.	c #89FF89",
"O.	c #8BFF8B",
"P.	c #8DFF8D",
"Q.	c #8FFF8F",
"R.	c #91FF91",
"S.	c #93FF93",
"T.	c #95FF95",
"U.	c #97FF97",
"V.	c #9DFF9D",
"W.	c #9FFF9F",
"X.	c #A1FFA1",
"Y.	c #A3FFA3",
"Z.	c #A5FFA5",
"`.	c #A1F6A1",
" +	c #8AD68A",
".+	c #0909DB",
"++	c #0505EE",
"@+	c #2E83AC",
"#+	c #5BF35A",
"$+	c #60FF60",
"%+	c #63FF62",
"&+	c #65FF64",
"*+	c #67FF67",
"=+	c #69FF69",
"-+	c #6BFF6B",
";+	c #6DFF6D",
">+	c #6FFF6F",
",+	c #71FF71",
"'+	c #73FF73",
")+	c #75FF75",
"!+	c #77FF77",
"~+	c #79FF79",
"{+	c #7BFF7B",
"]+	c #7DFF7D",
"^+	c #7FFF7F",
"/+	c #81FF81",
"(+	c #83FF83",
"_+	c #85FF85",
":+	c #87FF87",
"<+	c #8EFF8D",
"[+	c #90FF8F",
"}+	c #91F091",
"|+	c #37B17E",
"1+	c #49EC49",
"2+	c #4BE94B",
"3+	c #53FE53",
"4+	c #55FF55",
"5+	c #57FF57",
"6+	c #59FF59",
"7+	c #5BFF5B",
"8+	c #5DFF5D",
"9+	c #5FFF5F",
"0+	c #61FF61",
"a+	c #63FF63",
"b+	c #65FF65",
"c+	c #6AFF69",
"d+	c #70FF70",
"e+	c #72FF71",
"f+	c #7FE57F",
"g+	c #3EE93E",
"h+	c #3DEA3E",
"i+	c #42ED42",
"j+	c #48FF47",
"k+	c #4AFF4A",
"l+	c #4CFF4C",
"m+	c #4EFF4E",
"n+	c #50FF50",
"o+	c #52FF52",
"p+	c #54FF54",
"q+	c #56FF56",
"r+	c #58FF58",
"s+	c #5AFF5A",
"t+	c #5CFF5C",
"u+	c #5EFF5E",
"v+	c #62FF62",
"w+	c #64FF64",
"x+	c #66FF66",
"y+	c #68FF68",
"z+	c #6AFF6A",
"A+	c #6CFF6C",
"B+	c #6EFF6E",
"C+	c #72FF72",
"D+	c #80FA80",
"E+	c #71DF71",
"F+	c #33EB33",
"G+	c #33E833",
"H+	c #38F538",
"I+	c #3CFF3C",
"J+	c #3EFF3E",
"K+	c #40FF40",
"L+	c #42FF42",
"M+	c #44FF44",
"N+	c #46FF46",
"O+	c #48FF48",
"P+	c #4AFF4B",
"Q+	c #4DFF4C",
"R+	c #4FFF4E",
"S+	c #51FF51",
"T+	c #53FF53",
"U+	c #72F672",
"V+	c #61D360",
"W+	c #27D827",
"X+	c #28EB28",
"Y+	c #2AE82A",
"Z+	c #2EFB2E",
"`+	c #31FF31",
" @	c #33FF33",
".@	c #35FF35",
"+@	c #37FF37",
"@@	c #39FF39",
"#@	c #3BFF3B",
"$@	c #3DFF3D",
"%@	c #3FFF3F",
"&@	c #41FF41",
"*@	c #43FF43",
"=@	c #45FF45",
"-@	c #47FF47",
";@	c #49FF49",
">@	c #4BFF4B",
",@	c #4DFF4D",
"'@	c #4FFF4F",
")@	c #56FF55",
"!@	c #63ED63",
"~@	c #1EE11F",
"{@	c #1EEC1D",
"]@	c #20E820",
"^@	c #23FF23",
"/@	c #25FF25",
"(@	c #27FF27",
"_@	c #29FF29",
":@	c #2BFF2B",
"<@	c #2DFF2D",
"[@	c #2FFF2F",
"}@	c #33FF34",
"|@	c #36FF36",
"1@	c #38FF38",
"2@	c #3AFF3A",
"3@	c #5EFE5E",
"4@	c #54E454",
"5@	c #14ED14",
"6@	c #14E914",
"7@	c #17F017",
"8@	c #18FF18",
"9@	c #1AFF1A",
"0@	c #1CFF1C",
"a@	c #1EFF1E",
"b@	c #20FF20",
"c@	c #22FF22",
"d@	c #24FF24",
"e@	c #26FF26",
"f@	c #28FF28",
"g@	c #2AFF2A",
"h@	c #2CFF2C",
"i@	c #2EFF2E",
"j@	c #30FF30",
"k@	c #32FF32",
"l@	c #34FF34",
"m@	c #3AFF3B",
"n@	c #51FA51",
"o@	c #3DBD3D",
"p@	c #10CF10",
"q@	c #0AEC0A",
"r@	c #0DE80C",
"s@	c #0CF70C",
"t@	c #0CFF0C",
"u@	c #0FFF0F",
"v@	c #11FF11",
"w@	c #13FF13",
"x@	c #15FF15",
"y@	c #17FF17",
"z@	c #19FF19",
"A@	c #1BFF1B",
"B@	c #1DFF1D",
"C@	c #1FFF1F",
"D@	c #21FF21",
"E@	c #40F63F",
"F@	c #3EE83E",
"G@	c #3CD93C",
"H@	c #09DC09",
"I@	c #05EB05",
"J@	c #07E807",
"K@	c #02FD02",
"L@	c #02FF02",
"M@	c #03FF03",
"N@	c #05FF05",
"O@	c #07FF07",
"P@	c #09FF09",
"Q@	c #0BFF0B",
"R@	c #0DFF0D",
"S@	c #12FF11",
"T@	c #15FF16",
"U@	c #17FF18",
"V@	c #1BFF1C",
"W@	c #2DFA2D",
"X@	c #2DE82D",
"Y@	c #2FEC2F",
"Z@	c #30D931",
"`@	c #07E407",
" #	c #06EA06",
".#	c #01FF01",
"+#	c #04FF04",
"@#	c #06FF06",
"##	c #08FF08",
"$#	c #0AFF0A",
"%#	c #0EFF0E",
"&#	c #10FF10",
"*#	c #12FF12",
"=#	c #14FF14",
"-#	c #16FF16",
";#	c #1CEA1C",
">#	c #1DED1D",
",#	c #21E421",
"'#	c #06E806",
")#	c #04F204",
"!#	c #0CF20C",
"~#	c #0EE80E",
"{#	c #10EB10",
"]#	c #0CD10C",
"^#	c #05EC05",
"/#	c #02F802",
"(#	c #09DE09",
"_#	c #01FD01",
":#	c #01FC01",
"<#	c #07E507",
"[#	c #06EB06",
"}#	c #0AD70A",
"|#	c #05EE05",
"1#	c #05ED05",
"2#	c #0BD60B",
"3#	c #0EC30E",
"                                                                                                ",
"                                                                                                ",
"                                                                . . . .                         ",
"                                                                . . . .                         ",
"                                                                . . . .                         ",
"                                                                . . . .                         ",
"                                                                . . . .                         ",
"                                                                . . . .                         ",
"                                                                . . . .                         ",
"                                                  . . . . . . . . . . . . . . . . . .           ",
"                                                  . . . . . . . . . . . . . . . . . .           ",
"                                                  . . . . . . . . . . . . . . . . . .           ",
"                                                  . . . . . . . . . . . . . . . . . .           ",
"                                                                . . . .                         ",
"                                                                . . . .                         ",
"                                                                . . . .                         ",
"                                                                . . . .                         ",
"                                                                . . . .                         ",
"                              + @                               . . . .                         ",
"                            # $ % & *                           . . . .                         ",
"                        = - ; > , $ % '                                                         ",
"                    ) ! ~ { ] - ^ > , / ( _                                                     ",
"                : < [ } | 1 ~ 2 ] 3 4 5 6 7 8 9                                                 ",
"              0 a b c d e f | 1 g h i j k l m n o                                               ",
"          p q q q q a b c r s t u v w x y z A B C D E                                           ",
"      F G q q q q q q q H I J K L M N O P Q R S T U V W X                                       ",
"  Y Z q q q q q q q q `  ...+.@.#.$.%.&.*.=.-.;.L >.,.'.).!.                                    ",
"~.G q q q q q q q {.].^./.(._.:.<.[.}.|.1.2.3.4.5.6.7.8.9.0.K a.                                ",
"b.c.d.q q q q e.f.g.h.i.j.k.l.m.n.o.p.q.r.s.t.:.<.[.u.|.v.+.@.#.w.x.                            ",
"    0 y.z.q A.B.C.D.E.F.G.H.I.J.K.L.M.N.O.P.Q.R.S.T.U./.(.V.W.X.Y.Z.`. +                        ",
"      .+++@+#+$+%+&+*+=+-+;+>+,+'+)+!+~+{+]+^+/+(+_+:+N.O.<+[+n.o.p.q.r.}+                      ",
"          |+1+2+3+4+5+6+7+8+9+0+a+b+*+c+-+;+d+e+D.E.F.G.H.I.J.K.L.h.i.j.k.l.f+                  ",
"              g+h+i+j+k+l+m+n+o+p+q+r+s+t+u+$+v+w+x+y+z+A+B+d+C+D.!+~+{+]+^+/+D+E+              ",
"                  F+G+H+I+J+K+L+M+N+O+P+Q+R+S+T+4+5+6+7+8+9+0+a+b+*+=+-+;+>+,+'+)+U+V+          ",
"                    W+X+Y+Z+`+ @.@+@@@#@$@%@&@*@=@-@;@>@,@'@S+T+)@5+s+t+u+$+v+w+x+y+z+!@        ",
"                        ~@{@]@^@/@(@_@:@<@[@`+}@|@1@2@I+J+K+L+M+N+O+k+l+m+n+o+p+q+r+s+t+3@4@    ",
"                            5@6@7@8@9@0@a@b@c@d@e@f@g@h@i@j@k@l@|@1@m@$@%@&@*@=@-@;@>@,@'@S+n@o@",
"                              p@q@r@s@t@u@v@w@x@y@z@A@B@C@D@^@/@(@_@:@<@[@`+ @.@+@@@#@$@%@E@F@G@",
"                                  H@I@J@K@L@M@N@O@P@Q@R@u@S@w@T@U@z@V@a@C@c@d@e@f@g@h@W@X@Y@Z@  ",
"                                      `@ # #. . . . . .#L@M@+#@###$#t@%#&#*#=#-#8@9@;#>#,#      ",
"                                          I@'#)#. . . . . . . . . . . .#L@M@N@O@!#~#{#          ",
"                                            ]#^#'#/#. . . . . . . . . . . . /#'#I@]#            ",
"                                                (#^#'#_#. . . . . . . . :#'#I@H@                ",
"                                                    <# #^#. . . . . . ^#I@<#                    ",
"                                                         #'#)#. . )#'#[#                        ",
"                                                          }#|#<#'#1#2#                          ",
"                                                              3#(#                              ",
"                                                                                                "};
