/* XPM */
static char * panelXZCover_xpm[] = {
"48 48 599 2",
"  	c None",
". 	c #DFDFDF",
"+ 	c #DDDDDF",
"@ 	c #D6D6D6",
"# 	c #F7F7F8",
"$ 	c #FCFCFF",
"% 	c #F6F7FF",
"& 	c #E8E8F7",
"* 	c #C4C4D7",
"= 	c #EFEFEF",
"- 	c #FEFEFF",
"; 	c #FAFAFF",
"> 	c #F3F3FF",
", 	c #EDEDFF",
"' 	c #E7E7FF",
") 	c #E0E1FF",
"! 	c #CBCBED",
"~ 	c #E4E4E4",
"{ 	c #FFFFFF",
"] 	c #FDFDFF",
"^ 	c #F7F7FF",
"/ 	c #F1F0FF",
"( 	c #EAEAFF",
"_ 	c #E4E4FF",
": 	c #DEDEFF",
"< 	c #D7D7FF",
"[ 	c #D1D1FF",
"} 	c #CBCBFF",
"| 	c #ADADE3",
"1 	c #DEDEDE",
"2 	c #FAFAFA",
"3 	c #F4F4FF",
"4 	c #EEEDFF",
"5 	c #E1E1FF",
"6 	c #DBDBFF",
"7 	c #D4D4FF",
"8 	c #CECEFF",
"9 	c #C8C8FF",
"0 	c #C1C1FF",
"a 	c #BBBBFF",
"b 	c #B1B1FA",
"c 	c #9696DE",
"d 	c #D3D3D3",
"e 	c #F5F5F5",
"f 	c #F1F1FF",
"g 	c #EBEAFF",
"h 	c #D8D8FF",
"i 	c #C5C5FF",
"j 	c #BEBEFF",
"k 	c #B8B8FF",
"l 	c #B2B2FF",
"m 	c #ABABFF",
"n 	c #A5A5FF",
"o 	c #9898F5",
"p 	c #7C7CD2",
"q 	c #E8E8E8",
"r 	c #EEEEFF",
"s 	c #E8E8FF",
"t 	c #D4D5FF",
"u 	c #C2C2FF",
"v 	c #B5B5FF",
"w 	c #AFAFFF",
"x 	c #A8A8FF",
"y 	c #A2A2FF",
"z 	c #9C9CFF",
"A 	c #9696FF",
"B 	c #8F8FFF",
"C 	c #7F7EED",
"D 	c #EC8282",
"E 	c #DF8888",
"F 	c #E8D3D4",
"G 	c #F8F8FF",
"H 	c #EBEBFF",
"I 	c #E5E5FF",
"J 	c #D2D2FF",
"K 	c #BFBFFF",
"L 	c #ACACFF",
"M 	c #A6A5FF",
"N 	c #9F9FFF",
"O 	c #9999FF",
"P 	c #9393FF",
"Q 	c #8C8CFF",
"R 	c #8686FF",
"S 	c #8080FF",
"T 	c #7979FF",
"U 	c #6565E2",
"V 	c #FF9292",
"W 	c #F78585",
"X 	c #EB7676",
"Y 	c #DC8E94",
"Z 	c #DCD4E8",
"` 	c #E2E2FF",
" .	c #D5D5FF",
"..	c #CFCFFF",
"+.	c #BCBCFF",
"@.	c #B5B6FF",
"#.	c #A9A9FF",
"$.	c #A3A3FF",
"%.	c #8989FF",
"&.	c #8383FF",
"*.	c #7D7DFF",
"=.	c #7676FF",
"-.	c #7070FF",
";.	c #6A6AFF",
">.	c #6161FA",
",.	c #4E4ED9",
"'.	c #FF9696",
").	c #FF8D8D",
"!.	c #FF8484",
"~.	c #F17575",
"{.	c #E36767",
"].	c #D896AA",
"^.	c #CCC9F4",
"/.	c #CCCCFF",
"(.	c #B9B9FF",
"_.	c #A6A6FF",
":.	c #8D8DFF",
"<.	c #7A7AFF",
"[.	c #7373FF",
"}.	c #6D6DFF",
"|.	c #6767FF",
"1.	c #6060FF",
"2.	c #5A5AFF",
"3.	c #5454FF",
"4.	c #4949F2",
"5.	c #FF9B9B",
"6.	c #FF9191",
"7.	c #FF8988",
"8.	c #FF8080",
"9.	c #FF7777",
"0.	c #ED6767",
"a.	c #DB626A",
"b.	c #CB98C1",
"c.	c #B8B9FA",
"d.	c #B6B6FF",
"e.	c #B0AFFF",
"f.	c #9D9DFF",
"g.	c #9090FF",
"h.	c #8A8AFF",
"i.	c #7777FF",
"j.	c #6464FF",
"k.	c #5E5DFF",
"l.	c #5757FF",
"m.	c #5151FF",
"n.	c #4A4BFF",
"o.	c #4444FF",
"p.	c #3E3EFF",
"q.	c #3332E9",
"r.	c #FF9F9F",
"s.	c #FF7C7C",
"t.	c #FF7373",
"u.	c #FD6A6A",
"v.	c #EA5A5A",
"w.	c #D6637A",
"x.	c #B293D6",
"y.	c #A0A0FF",
"z.	c #9A9AFF",
"A.	c #8787FF",
"B.	c #7474FF",
"C.	c #6161FF",
"D.	c #4E4EFF",
"E.	c #4748FF",
"F.	c #4141FF",
"G.	c #3B3BFF",
"H.	c #3535FF",
"I.	c #2E2EFF",
"J.	c #2828FD",
"K.	c #1F1FDF",
"L.	c #FFA4A4",
"M.	c #FF9A9A",
"N.	c #FF8989",
"O.	c #FF7778",
"P.	c #FF6F6F",
"Q.	c #FF6666",
"R.	c #F75B5B",
"S.	c #E84D4E",
"T.	c #CE6290",
"U.	c #978CEB",
"V.	c #8484FF",
"W.	c #7171FF",
"X.	c #5E5EFF",
"Y.	c #4B4BFF",
"Z.	c #4445FF",
"`.	c #3838FF",
" +	c #3231FF",
".+	c #2B2BFF",
"++	c #2525FF",
"@+	c #1F1FFF",
"#+	c #1919FF",
"$+	c #1313F8",
"%+	c #1010D6",
"&+	c #FFA8A8",
"*+	c #FF9E9F",
"=+	c #FF8585",
"-+	c #FF6B6B",
";+	c #FF6262",
">+	c #FF5959",
",+	c #EF4C4C",
"'+	c #E2403F",
")+	c #C161AB",
"!+	c #7C7DF7",
"~+	c #7A7BFF",
"{+	c #6E6EFF",
"]+	c #5B5BFF",
"^+	c #4848FF",
"/+	c #4142FF",
"(+	c #2F2FFF",
"_+	c #2828FF",
":+	c #2222FF",
"<+	c #1C1CFF",
"[+	c #1515FF",
"}+	c #0F0FFF",
"|+	c #0909FF",
"1+	c #0303FF",
"2+	c #0404F0",
"3+	c #FFADAD",
"4+	c #FFA3A3",
"5+	c #FF7878",
"6+	c #FF5E5E",
"7+	c #FF5555",
"8+	c #FF4C4C",
"9+	c #E83E3E",
"0+	c #DA3C56",
"a+	c #A15BC5",
"b+	c #6A6AFC",
"c+	c #6564FF",
"d+	c #5858FF",
"e+	c #5251FF",
"f+	c #4545FF",
"g+	c #3F3FFF",
"h+	c #3232FF",
"i+	c #2C2CFF",
"j+	c #1313FF",
"k+	c #0C0CFF",
"l+	c #0606FF",
"m+	c #0101FF",
"n+	c #0000FF",
"o+	c #0404EF",
"p+	c #2222E1",
"q+	c #FFB1B1",
"r+	c #FFA7A7",
"s+	c #FF5A59",
"t+	c #FF5151",
"u+	c #FF4848",
"v+	c #F93E3E",
"w+	c #EA3333",
"x+	c #CC3877",
"y+	c #7E50DB",
"z+	c #5555FF",
"A+	c #4F4EFF",
"B+	c #4242FF",
"C+	c #3C3CFF",
"D+	c #2929FF",
"E+	c #1616FF",
"F+	c #1010FF",
"G+	c #0303F5",
"H+	c #0707E8",
"I+	c #8585E3",
"J+	c #EDEDF3",
"K+	c #FFB6B6",
"L+	c #FFACAC",
"M+	c #FF6767",
"N+	c #FF4D4D",
"O+	c #FF4444",
"P+	c #FF3B3B",
"Q+	c #F53131",
"R+	c #E82727",
"S+	c #BA3296",
"T+	c #5941ED",
"U+	c #3939FF",
"V+	c #2626FF",
"W+	c #0D0DFF",
"X+	c #0101FA",
"Y+	c #0606EA",
"Z+	c #6565E0",
"`+	c #D7D7EB",
" @	c #FFBABA",
".@	c #FFB0B0",
"+@	c #FF8E8E",
"@@	c #FF7474",
"#@	c #FF5A5A",
"$@	c #FF4040",
"%@	c #FF3737",
"&@	c #FF2F2E",
"*@	c #EF2525",
"=@	c #DC1D2F",
"-@	c #AB28AF",
";@	c #2F2FFA",
">@	c #2323FF",
",@	c #1D1CFF",
"'@	c #0606E9",
")@	c #3B3BE0",
"!@	c #BFBFE9",
"~@	c #FDFDFD",
"{@	c #FFBEBE",
"]@	c #FFB4B5",
"^@	c #FF9A9B",
"/@	c #FF8181",
"(@	c #FF3B3C",
"_@	c #FF3333",
":@	c #FF2A2A",
"<@	c #FF2122",
"[@	c #E91919",
"}@	c #D11653",
"|@	c #881CC9",
"1@	c #1A1AFF",
"2@	c #0202E1",
"3@	c #A2A2E9",
"4@	c #F4F4F8",
"5@	c #F2F2FF",
"6@	c #FFC3C3",
"7@	c #FFB9B9",
"8@	c #FF6362",
"9@	c #FF4949",
"0@	c #FF2F2F",
"a@	c #FF2626",
"b@	c #FF1D1D",
"c@	c #FA1515",
"d@	c #E90F0F",
"e@	c #C40E78",
"f@	c #5D0CE1",
"g@	c #0404FF",
"h@	c #0302F7",
"i@	c #7D7DE3",
"j@	c #E7E7F1",
"k@	c #FDFCFF",
"l@	c #E3E3FF",
"m@	c #FFC7C7",
"n@	c #FFBDBD",
"o@	c #FFB5B5",
"p@	c #FFA3A4",
"q@	c #FF8A89",
"r@	c #FF5656",
"s@	c #FF3C3C",
"t@	c #FF2222",
"u@	c #FF1919",
"v@	c #FF1111",
"w@	c #F30B0B",
"x@	c #E30806",
"y@	c #890CA4",
"z@	c #5F5FE2",
"A@	c #D2D2E9",
"B@	c #FFFEFF",
"C@	c #F2F3FF",
"D@	c #E8E7FF",
"E@	c #DCDCFF",
"F@	c #FFCCCC",
"G@	c #FFC2C2",
"H@	c #FFB1B0",
"I@	c #FF9797",
"J@	c #FF7D7D",
"K@	c #FF6363",
"L@	c #FF3738",
"M@	c #FF1515",
"N@	c #FF0C0C",
"O@	c #FF0303",
"P@	c #C16A72",
"Q@	c #F8F8F8",
"R@	c #DDDDFF",
"S@	c #CDCEFF",
"T@	c #FFD0D0",
"U@	c #FFC6C6",
"V@	c #FF8A8A",
"W@	c #FF7070",
"X@	c #FF2B2A",
"Y@	c #FF0808",
"Z@	c #C97B7C",
"`@	c #F9F9FF",
" #	c #E3E2FF",
".#	c #CDCDFF",
"+#	c #C7C7FF",
"@#	c #C3C3FF",
"##	c #FFD5D5",
"$#	c #FFCBCB",
"%#	c #FF5252",
"&#	c #FF3838",
"*#	c #FF1E1E",
"=#	c #C6767C",
"-#	c #C7C8FF",
";#	c #FFD9D9",
">#	c #FFCFCF",
",#	c #FF9293",
"'#	c #FF7979",
")#	c #FF5F5F",
"!#	c #FF4545",
"~#	c #FF2B2B",
"{#	c #C4707D",
"]#	c #D3D3FF",
"^#	c #BDBDFF",
"/#	c #B7B7FF",
"(#	c #ADADFF",
"_#	c #FFDDDD",
":#	c #FFD3D3",
"<#	c #FFA09F",
"[#	c #FF8686",
"}#	c #FF6C6C",
"|#	c #FF2726",
"1#	c #C16B7D",
"2#	c #D9D9FF",
"3#	c #CECDFF",
"4#	c #A7A7FF",
"5#	c #FFE2E2",
"6#	c #FFD8D8",
"7#	c #FFC6C7",
"8#	c #FF9392",
"9#	c #FF3434",
"0#	c #FF1A1A",
"a#	c #BF667D",
"b#	c #9898FF",
"c#	c #FFE6E6",
"d#	c #FFDCDC",
"e#	c #FFD4D3",
"f#	c #FFA0A0",
"g#	c #FF7574",
"h#	c #FF5A5B",
"i#	c #FF4141",
"j#	c #FF2727",
"k#	c #BC617D",
"l#	c #B3B3FF",
"m#	c #9797FF",
"n#	c #9292FF",
"o#	c #FFEBEB",
"p#	c #FFE1E1",
"q#	c #FF9B9C",
"r#	c #FF9393",
"s#	c #FF6868",
"t#	c #FF4E4E",
"u#	c #FF2322",
"v#	c #BA5C7D",
"w#	c #B9B8FF",
"x#	c #ADAEFF",
"y#	c #8282FF",
"z#	c #FFEFEF",
"A#	c #FFE5E5",
"B#	c #FFD4D4",
"C#	c #FF8F8F",
"D#	c #FF7575",
"E#	c #FF5B5B",
"F#	c #FF302F",
"G#	c #B8587E",
"H#	c #AEAEFF",
"I#	c #7C7CFF",
"J#	c #FFF4F4",
"K#	c #FFEAE9",
"L#	c #FFD0CF",
"M#	c #FF9C9C",
"N#	c #FF8282",
"O#	c #FF3D3D",
"P#	c #B6537E",
"Q#	c #9E9EFF",
"R#	c #8888FF",
"S#	c #7272FF",
"T#	c #FFF8F8",
"U#	c #FFEEEE",
"V#	c #FFDCDD",
"W#	c #FFA9A9",
"X#	c #FF6463",
"Y#	c #FF4A49",
"Z#	c #FF3030",
"`#	c #B44F7F",
" $	c #9899FF",
".$	c #6D6CFF",
"+$	c #6262FF",
"@$	c #FFFCFC",
"#$	c #FFF2F2",
"$$	c #FFEAEA",
"%$	c #FF8A8B",
"&$	c #FF7171",
"*$	c #FF5757",
"=$	c #B34B7F",
"-$	c #8E8EFF",
";$	c #7878FF",
">$	c #5C5CFF",
",$	c #FFF7F7",
"'$	c #FFB2B2",
")$	c #FF9898",
"!$	c #FF7E7E",
"~$	c #FF6464",
"{$	c #FF4A4A",
"]$	c #FF3939",
"^$	c #B14780",
"/$	c #7E7DFF",
"($	c #7372FF",
"_$	c #6768FF",
":$	c #5D5DFF",
"<$	c #5252FF",
"[$	c #4D4DFF",
"}$	c #F0ECEC",
"|$	c #FFD9D8",
"1$	c #FFBFBE",
"2$	c #FFA5A5",
"3$	c #FF8B8B",
"4$	c #FF6060",
"5$	c #FF4546",
"6$	c #B04480",
"7$	c #6868FF",
"8$	c #4C4CFF",
"9$	c #4747FF",
"0$	c #D6CDCD",
"a$	c #F8E7E7",
"b$	c #FF8687",
"c$	c #FF6D6C",
"d$	c #FF5353",
"e$	c #FF4242",
"f$	c #AE4181",
"g$	c #6363FF",
"h$	c #3737FF",
"i$	c #DFCBCB",
"j$	c #FDE0E0",
"k$	c #FFBFBF",
"l$	c #FF7A79",
"m$	c #FF4646",
"n$	c #AD3F81",
"o$	c #5352FF",
"p$	c #3C3DFF",
"q$	c #E9C8C9",
"r$	c #FFBBBA",
"s$	c #FFA1A1",
"t$	c #FF8787",
"u$	c #FF6D6D",
"v$	c #AC3D82",
"w$	c #5353FF",
"x$	c #4243FF",
"y$	c #3D3DFF",
"z$	c #2727FF",
"A$	c #2122FF",
"B$	c #F2C5C5",
"C$	c #FFC8C8",
"D$	c #FFAEAE",
"E$	c #FF9494",
"F$	c #FF7A7A",
"G$	c #FF4F4F",
"H$	c #AB3C83",
"I$	c #4343FF",
"J$	c #2D2DFF",
"K$	c #1717FF",
"L$	c #D9ACAC",
"M$	c #FABFBF",
"N$	c #FFBBBB",
"O$	c #FF7675",
"P$	c #FF5C5B",
"Q$	c #AA3B84",
"R$	c #3E3DFF",
"S$	c #3332FF",
"T$	c #1D1DFF",
"U$	c #1212FF",
"V$	c #E2A8A8",
"W$	c #FFB7B7",
"X$	c #FF9D9C",
"Y$	c #FF6969",
"Z$	c #FF5858",
"`$	c #AA3B85",
" %	c #3333FF",
".%	c #0707FF",
"+%	c #0202FF",
"@%	c #EDA5A5",
"#%	c #FFAAAA",
"$%	c #FF9090",
"%%	c #FF7676",
"&%	c #FF5C5C",
"*%	c #A93B86",
"=%	c #1818FF",
"-%	c #0505EE",
";%	c #D28D8D",
">%	c #F59E9E",
",%	c #FF9D9D",
"'%	c #FF8383",
")%	c #FF6161",
"!%	c #A93D87",
"~%	c #1E1EFF",
"{%	c #0807FF",
"]%	c #0203FF",
"^%	c #0B0BD3",
"/%	c #DE8A8A",
"(%	c #FA9595",
"_%	c #FF6565",
":%	c #A83E88",
"<%	c #0808FF",
"[%	c #0202FA",
"}%	c #0909DE",
"|%	c #E38282",
"1%	c #FF8C8B",
"2%	c #FF7272",
"3%	c #FF6A69",
"4%	c #A84089",
"5%	c #0E0EFF",
"6%	c #0707E4",
"7%	c #ED7D7D",
"8%	c #FF7F7E",
"9%	c #FF6E6E",
"0%	c #A8438A",
"a%	c #0505EF",
"b%	c #D76D6D",
"c%	c #F77676",
"d%	c #A8458B",
"e%	c #0202F8",
"f%	c #0B0BD6",
"g%	c #E16666",
"h%	c #994266",
"                                  . +                                                           ",
"                              @ # $ % & *                                                       ",
"                            = - ; > , ' ) !                                                     ",
"                        ~ { ] ^ / ( _ : < [ } |                                                 ",
"                    1 2 - ; 3 4 ' 5 6 7 8 9 0 a b c                                             ",
"                d e { ] ^ f g _ : h [ } i j k l m n o p                                         ",
"              q { - ; 3 r s 5 6 t 8 9 u a v w x y z A B C                                       ",
"            D E F G f H I : h J } i K k l L M N O P Q R S T U                                   ",
"            V W X Y Z ` 6  ...9 u +.@.w #.$.z A B %.&.*.=.-.;.>.,.                              ",
"            '.).!.~.{.].^./.i K (.l L _.N O P :.R S <.[.}.|.1.2.3.4.                            ",
"            5.6.7.8.9.0.a.b.c.d.e.#.$.f.A g.h.&.*.i.-.;.j.k.l.m.n.o.p.q.                        ",
"            r.'.).!.s.t.u.v.w.x._.y.z.P :.A.S <.B.}.|.C.2.3.D.E.F.G.H.I.J.K.                    ",
"            L.M.6.N.8.O.P.Q.R.S.T.U.g.h.V.*.i.W.;.j.X.l.m.Y.Z.p.`. +.+++@+#+$+%+                ",
"            &+*+'.).=+s.t.-+;+>+,+'+)+!+~+B.{+|.C.]+3.D.^+/+G.H.(+_+:+<+[+}+|+1+2+              ",
"            3+4+M.V N.8.5+P.Q.6+7+8+9+0+a+b+c+X.d+e+Y.f+g+`.h+i+++@+#+j+k+l+m+n+o+p+            ",
"            q+r+r.'.).=+s.t.-+;+s+t+u+v+w+x+y+z+A+^+B+C+H.(+D+:+<+E+F+|+1+n+G+H+I+J+            ",
"            K+L+4+M.V N.8.5+P.M+6+7+N+O+P+Q+R+S+T+g+U+h+i+V+@+#+j+W+l+m+X+Y+Z+`+{ {             ",
"             @.@r+r.'.+@=+s.@@-+;+#@t+u+$@%@&@*@=@-@;@D+>@,@E+F+|+1+n+'@)@!@~@{ $ G             ",
"            {@]@L+4+^@V N./@5+P.M+6+7+N+O+(@_@:@<@[@}@|@1@j+W+l+m+2+2@3@4@{ $ ^ 5@r             ",
"            6@7@.@&+r.'.+@=+s.@@-+8@#@t+9@$@%@0@a@b@c@d@e@f@g@h@'@i@j@{ k@G 5@, ' l@            ",
"            m@n@o@L+p@5.V q@/@5+P.M+6+r@N+O+s@_@:@t@u@v@w@x@y@z@A@B@] G C@, D@` E@h             ",
"            F@G@7@H@&+r.I@+@=+J@@@-+K@#@t+9@$@L@0@a@b@M@N@O@P@Q@] G > , s ` R@< J S@            ",
"            T@U@{@o@L+L.5.V V@/@5+W@M+6+r@N+O+s@_@X@t@u@v@Y@Z@`@> r s  #R@h J .#+#@#            ",
"            ##$#G@7@q+&+r.I@+@=+J@@@-+K@#@%#9@$@&#0@a@*#M@N@=#r s l@R@h J .#-#u +.k             ",
"            ;#>#U@{@o@L+L.5.,#V@/@'#W@M+)#r@N+!#s@_@~#t@u@v@{#l@: h ]#.#9 u ^#/#l (#            ",
"            _#:#$#G@7@q+&+<#I@+@[#J@@@}#K@#@%#9@$@&#0@|#*#M@1#2#]#3#9 @#^#k l (#4#y             ",
"            5#6#>#7#{@o@3+L.5.8#V@/@'#W@M+)#r@N+!#s@9#~#t@0#a#8 9 @#^#k l (#4#y z b#            ",
"            c#d#e#$#G@ @q+&+f#I@+@[#J@g#}#K@h#%#9@i#&#0@j#*#k#@#j k l#(#x y f.m#n#:.            ",
"            o#p#6#>#m@{@o@3+L.q#r#V@/@'#W@s#)#r@t#!#s@9#~#u#v#w#l#x#x y f.b#n#:.A.y#            ",
"            z#A#d#B#$#G@ @q+&+f#I@C#[#J@D#}#K@E#%#9@i#&#F#j#G#H#x $.f.b#n#:.A.y#I#i.            ",
"            J#K#p#6#L#m@{@K+3+L.M#r#V@N#'#W@s#)#r@t#!#O#9#~#P#$.Q#b#P :.R#y#*.i.S#}.            ",
"            T#U#A#V#B#$#6@ @q+W#f#I@C#[#J@D#}#X#E#%#Y#i#&#Z#`# $P :.R#y#*.i.S#.$|.+$            ",
"            @$#$$$p#6#T@m@{@K+3+L.M#r#%$N#'#&$s#)#*$t#!#O#9#=$-$R#&.*.;$S#}.|.+$>$l.            ",
"            { ,$U#A#_#B#$#6@ @'$W#f#)$C#[#!$D#}#~$E#%#{$i#]$^$&./$;$($}._$+$:$l.<$[$            ",
"              }$#$$$p#|$T@m@1$K+3+2$M#r#3$N#'#&$s#4$*$t#5$O#6$;$[.}.7$+$:$l.<$8$9$B+            ",
"                0$a$A#_#B#F@6@ @'$W#f#)$C#b$!$D#c$~$E#d${$e$f${+7$g$:$d+<$[$9$B+C+h$            ",
"                    i$j$;#T@m@k$K+3+2$M#r#3$N#l$&$s#4$*$t#m$n$g$X.d+o$[$^+B+p$h$h+i+            ",
"                        q$##F@6@r$'$W#s$)$C#t$!$D#u$~$E#d${$v$d+w$[$^+x$y$h$h+i+z$A$            ",
"                            B$C$k$K+D$2$M#E$3$N#F$&$s#4$*$G$H$D.^+I$y$`.h+J$z$:+<+K$            ",
"                              L$M$N$'$W#s$)$C#t$!$O$u$~$P$d$Q$I$R$`.S$J$_+:+T$K$U$k+            ",
"                                  V$W$D$2$X$E$3$N#F$&$Y$4$Z$`$`. %J$_+:+T$K$U$k+.%+%            ",
"                                      @%#%s$)$$%t$!$%%u$~$&%*%I._+>@T$=%U$W+.%+%-%              ",
"                                        ;%>%,%E$3$'%F$&$Y$)%!%>@~%=%j+W+{%]%G+^%                ",
"                                            /%(%$%t$!$%%u$_%:%=%j+W+<%1+[%}%                    ",
"                                                |%1%'%F$2%3%4%5%<%1+n+6%                        ",
"                                                    7%8%%%9%0%1+n+a%                            ",
"                                                      b%c%2%d%e%f%                              ",
"                                                          g%h%                                  "};
