/* XPM */
static char * panelXZBetween_xpm[] = {
"48 48 579 2",
"  	c None",
". 	c #9596D1",
"+ 	c #9595DF",
"@ 	c #ACACEB",
"# 	c #7E7DDD",
"$ 	c #9191E8",
"% 	c #ACACFA",
"& 	c #BFBFFF",
"* 	c #6464D8",
"= 	c #7878E7",
"- 	c #8E8EF3",
"; 	c #A5A5FF",
"> 	c #B5B5FF",
", 	c #C4C4FF",
"' 	c #4E4ED6",
") 	c #5E5EE1",
"! 	c #7272EE",
"~ 	c #8A8AFF",
"{ 	c #9A9AFF",
"] 	c #AAAAFF",
"^ 	c #BABAFF",
"/ 	c #CACAFF",
"( 	c #4545DC",
"_ 	c #5757E8",
": 	c #6F6FFE",
"< 	c #7F7FFF",
"[ 	c #8F8FFF",
"} 	c #9F9FFF",
"| 	c #AFAFFF",
"1 	c #CFCFFF",
"2 	c #2F30DC",
"3 	c #3F3FE8",
"4 	c #5353F9",
"5 	c #6464FF",
"6 	c #7474FF",
"7 	c #8484FF",
"8 	c #9494FF",
"9 	c #A4A4FF",
"0 	c #B4B4FF",
"a 	c #D4D4FF",
"b 	c #1B1BD9",
"c 	c #2727E4",
"d 	c #3838F3",
"e 	c #4A4AFF",
"f 	c #5A5AFF",
"g 	c #6A6AFF",
"h 	c #7979FF",
"i 	c #8989FF",
"j 	c #9999FF",
"k 	c #A9A9FF",
"l 	c #B9B9FF",
"m 	c #C9C9FF",
"n 	c #D9D9FF",
"o 	c #0D0DD4",
"p 	c #1313DE",
"q 	c #1F1FEC",
"r 	c #2F2FFF",
"s 	c #3F3FFF",
"t 	c #4F4FFF",
"u 	c #5F5FFF",
"v 	c #6F6FFF",
"w 	c #AEAEFF",
"x 	c #BEBEFF",
"y 	c #CECEFF",
"z 	c #DEDEFF",
"A 	c #0909DF",
"B 	c #0A0AE8",
"C 	c #1515FE",
"D 	c #2424FF",
"E 	c #3434FF",
"F 	c #4444FF",
"G 	c #5454FF",
"H 	c #A4A3FF",
"I 	c #B3B4FF",
"J 	c #C3C3FF",
"K 	c #D3D3FF",
"L 	c #E3E3FF",
"M 	c #0909DB",
"N 	c #0606E8",
"O 	c #0303F6",
"P 	c #0A0AFF",
"Q 	c #1A1AFF",
"R 	c #2A2AFF",
"S 	c #3939FF",
"T 	c #4949FF",
"U 	c #5959FF",
"V 	c #6969FF",
"W 	c #C8C8FF",
"X 	c #D8D8FF",
"Y 	c #E8E8FF",
"Z 	c #0A0AD8",
"` 	c #0707E4",
" .	c #0404F0",
"..	c #0000FF",
"+.	c #0101FF",
"@.	c #0F0FFF",
"#.	c #1F1FFF",
"$.	c #2F2EFF",
"%.	c #3E3EFF",
"&.	c #4E4EFF",
"*.	c #5E5EFF",
"=.	c #6E6EFF",
"-.	c #7E7EFF",
";.	c #8E8EFF",
">.	c #9E9EFF",
",.	c #EEEDFF",
"'.	c #0C0CD1",
").	c #0606EA",
"!.	c #0404FF",
"~.	c #1414FF",
"{.	c #6363FF",
"].	c #7373FF",
"^.	c #8383FF",
"/.	c #9393FF",
"(.	c #A3A3FF",
"_.	c #B3B3FF",
":.	c #F3F3FF",
"<.	c #0A0ADA",
"[.	c #0101FB",
"}.	c #0909FF",
"|.	c #1919FF",
"1.	c #2929FF",
"2.	c #7878FF",
"3.	c #8888FF",
"4.	c #9898FF",
"5.	c #A8A8FF",
"6.	c #B8B8FF",
"7.	c #F8F8FF",
"8.	c #472EB6",
"9.	c #CD7B86",
"0.	c #9D55C6",
"a.	c #0001FB",
"b.	c #0F0EFF",
"c.	c #1E1EFF",
"d.	c #2E2EFF",
"e.	c #8D8DFF",
"f.	c #9E9DFF",
"g.	c #ADADFF",
"h.	c #BDBDFF",
"i.	c #CDCDFF",
"j.	c #DDDDFF",
"k.	c #EDEDFF",
"l.	c #EAEAEE",
"m.	c #8D8DD8",
"n.	c #8686BE",
"o.	c #6C47C0",
"p.	c #FC9F9F",
"q.	c #E88383",
"r.	c #D26887",
"s.	c #7533D6",
"t.	c #2323FF",
"u.	c #3333FF",
"v.	c #4343FF",
"w.	c #5353FF",
"x.	c #A2A2FF",
"y.	c #B2B2FF",
"z.	c #C2C2FF",
"A.	c #D2D2FF",
"B.	c #DADAF6",
"C.	c #C6C6D4",
"D.	c #7272D2",
"E.	c #8585DD",
"F.	c #9D9DEA",
"G.	c #AAAAE7",
"H.	c #6C4BC1",
"I.	c #FFA9A9",
"J.	c #FF9898",
"K.	c #F48181",
"L.	c #E76A6A",
"M.	c #C34D94",
"N.	c #4B17E7",
"O.	c #0908FF",
"P.	c #2828FF",
"Q.	c #3838FF",
"R.	c #4848FF",
"S.	c #5858FF",
"T.	c #6868FF",
"U.	c #C5C5FC",
"V.	c #BABADF",
"W.	c #6C6BDC",
"X.	c #8181E8",
"Y.	c #9E9EFC",
"Z.	c #B1B1FF",
"`.	c #B0AFE7",
" +	c #6C4EC2",
".+	c #FFB1B1",
"++	c #FFA0A0",
"@+	c #FF8E8E",
"#+	c #FF7D7D",
"$+	c #ED6565",
"%+	c #E15050",
"&+	c #AE34AC",
"*+	c #301FF3",
"=+	c #3D3DFF",
"-+	c #4D4DFF",
";+	c #5D5DFF",
">+	c #6D6DFF",
",+	c #7D7DFF",
"'+	c #9D9DFF",
")+	c #A9A9E6",
"!+	c #5353DB",
"~+	c #6666E7",
"{+	c #7E7EF6",
"]+	c #A6A6FF",
"^+	c #B5B5E7",
"/+	c #6C52C3",
"(+	c #FFB9B9",
"_+	c #FFA8A8",
":+	c #FF9696",
"<+	c #FF8585",
"[+	c #FF7373",
"}+	c #FF6262",
"|+	c #E84A4A",
"1+	c #DC384F",
"2+	c #952FC1",
"3+	c #4242FD",
"4+	c #5252FF",
"5+	c #6262FF",
"6+	c #7272FF",
"7+	c #8282FF",
"8+	c #9292FF",
"9+	c #9696EF",
"0+	c #3B3BD9",
"a+	c #4A4AE1",
"b+	c #5F5FEE",
"c+	c #7777FF",
"d+	c #9B9BFF",
"e+	c #BBBBE7",
"f+	c #6C55C4",
"g+	c #FFC1C1",
"h+	c #FFB0B0",
"i+	c #FF9E9E",
"j+	c #FF8D8D",
"k+	c #FF7B7C",
"l+	c #FF6A6A",
"m+	c #FF5959",
"n+	c #F94646",
"o+	c #E83232",
"p+	c #CC2A6C",
"q+	c #814AD5",
"r+	c #6767FF",
"s+	c #8282F7",
"t+	c #7D7DD7",
"u+	c #3131DF",
"v+	c #4242E8",
"w+	c #6C6CFF",
"x+	c #A1A1FF",
"y+	c #C5C5FF",
"z+	c #C1C1E7",
"A+	c #6C59C6",
"B+	c #FFC9C9",
"C+	c #FFB8B8",
"D+	c #FFA6A6",
"E+	c #FF9595",
"F+	c #FF8483",
"G+	c #FF7272",
"H+	c #FF6161",
"I+	c #FF4F4F",
"J+	c #FF3E3E",
"K+	c #F32C2C",
"L+	c #E71B1B",
"M+	c #C43B8C",
"N+	c #7663D0",
"O+	c #1A1ADC",
"P+	c #2828E8",
"Q+	c #3C3CFA",
"R+	c #6060FF",
"S+	c #9696FF",
"T+	c #CCCCFF",
"U+	c #C7C7E7",
"V+	c #6C5CC7",
"W+	c #FFD1D1",
"X+	c #FFC0C0",
"Y+	c #FFAEAE",
"Z+	c #FF9D9D",
"`+	c #FF8B8B",
" @	c #FF7A7A",
".@	c #FF6969",
"+@	c #FF5757",
"@@	c #FF4646",
"#@	c #FF3434",
"$@	c #FF2323",
"%@	c #ED1414",
"&@	c #DE0A0A",
"*@	c #D70A0A",
"=@	c #0B0BD8",
"-@	c #1010E7",
";@	c #1F1FF3",
">@	c #3131FF",
",@	c #5555FF",
"'@	c #8B8AFF",
")@	c #9C9CFF",
"!@	c #C0C0FF",
"~@	c #CDCDE7",
"{@	c #6C60C8",
"]@	c #FFD9D9",
"^@	c #FFC8C8",
"/@	c #FFB6B6",
"(@	c #FFA5A5",
"_@	c #FF9493",
":@	c #FF8282",
"<@	c #FF7171",
"[@	c #FF5F5F",
"}@	c #FF4E4E",
"|@	c #FF3C3C",
"1@	c #FF2B2B",
"2@	c #FF1A1A",
"3@	c #FE0808",
"4@	c #E80606",
"5@	c #DC0909",
"6@	c #0808E0",
"7@	c #0808EE",
"8@	c #2626FF",
"9@	c #5B5BFF",
"0@	c #9191FF",
"a@	c #C7C7FF",
"b@	c #D3D3E7",
"c@	c #6C63CA",
"d@	c #FFE1E1",
"e@	c #FFD0D0",
"f@	c #FFBEBE",
"g@	c #FFADAD",
"h@	c #FF9B9B",
"i@	c #FF8A8A",
"j@	c #FF7979",
"k@	c #FF6767",
"l@	c #FF5656",
"m@	c #FF4444",
"n@	c #FF3333",
"o@	c #FF2222",
"p@	c #FF1110",
"q@	c #FF0202",
"r@	c #F90202",
"s@	c #DB0909",
"t@	c #0000FE",
"u@	c #0808FF",
"v@	c #2C2CFF",
"w@	c #5050FF",
"x@	c #8686FF",
"y@	c #BBBBFF",
"z@	c #DFDFFF",
"A@	c #D9D9E7",
"B@	c #6C67CB",
"C@	c #FFE9E9",
"D@	c #FFD8D8",
"E@	c #FFC6C6",
"F@	c #FFB5B5",
"G@	c #FFA4A4",
"H@	c #FF9292",
"I@	c #FF8181",
"J@	c #FF6F6F",
"K@	c #FF5E5E",
"L@	c #FF4C4C",
"M@	c #FF3B3B",
"N@	c #FF2A2A",
"O@	c #FF1818",
"P@	c #FF0707",
"Q@	c #FF0000",
"R@	c #F10404",
"S@	c #E40707",
"T@	c #D90A0A",
"U@	c #0202F9",
"V@	c #2121FF",
"W@	c #4545FF",
"X@	c #5657FF",
"Y@	c #7A7AFF",
"Z@	c #8C8CFF",
"`@	c #B0B0FF",
" #	c #E6E6FF",
".#	c #DFDFE7",
"+#	c #6C6BCD",
"@#	c #FFF1F1",
"##	c #FFE0E0",
"$#	c #FFCECE",
"%#	c #FFBDBD",
"&#	c #FFABAB",
"*#	c #FF9A9A",
"=#	c #FF8989",
"-#	c #FF7777",
";#	c #FF6666",
">#	c #FF5454",
",#	c #FF4343",
"'#	c #FF3232",
")#	c #FF2020",
"!#	c #FF0F0F",
"~#	c #FF0101",
"{#	c #EA0606",
"]#	c #E00808",
"^#	c #D30B0B",
"/#	c #0404F2",
"(#	c #1616FF",
"_#	c #2727FF",
":#	c #4B4BFF",
"<#	c #8181FF",
"[#	c #B6B6FF",
"}#	c #DADAFF",
"|#	c #ECECFF",
"1#	c #E4E4E7",
"2#	c #6C6CCD",
"3#	c #FFF9F9",
"4#	c #FFE8E8",
"5#	c #FFD6D6",
"6#	c #FFC5C5",
"7#	c #FFB3B3",
"8#	c #FFA2A2",
"9#	c #FF9191",
"0#	c #FF7F7F",
"a#	c #FF6E6E",
"b#	c #FF5C5C",
"c#	c #FF4B4B",
"d#	c #FF3A3A",
"e#	c #FF2828",
"f#	c #FF1717",
"g#	c #FF0606",
"h#	c #FC0101",
"i#	c #0B0BD4",
"j#	c #0808E1",
"k#	c #1C1CFF",
"l#	c #4040FF",
"m#	c #6463FF",
"n#	c #7575FF",
"o#	c #8787FF",
"p#	c #ABABFF",
"q#	c #E1E1FF",
"r#	c #E7E7E7",
"s#	c #7171C2",
"t#	c #FFFEFE",
"u#	c #FFF0F0",
"v#	c #FFDEDE",
"w#	c #FFCDCD",
"x#	c #FFBBBB",
"y#	c #FFAAAA",
"z#	c #FF9999",
"A#	c #FF8787",
"B#	c #FF7676",
"C#	c #FF6464",
"D#	c #FF5353",
"E#	c #FF4242",
"F#	c #FF3030",
"G#	c #FF1F1F",
"H#	c #FF0E0E",
"I#	c #F60202",
"J#	c #D30A3E",
"K#	c #230CCC",
"L#	c #0101FC",
"M#	c #0202FF",
"N#	c #1111FF",
"O#	c #4646FF",
"P#	c #7C7CFF",
"Q#	c #A0A0FF",
"R#	c #D5D5FF",
"S#	c #E7E7FF",
"T#	c #F9F9FF",
"U#	c #D2D2D2",
"V#	c #F5EDED",
"W#	c #FFE6E6",
"X#	c #FFD5D5",
"Y#	c #FFC3C4",
"Z#	c #FFB2B2",
"`#	c #FFA1A1",
" $	c #FF8F8F",
".$	c #FF7E7E",
"+$	c #FF6C6C",
"@$	c #FF5B5B",
"#$	c #FF4A4A",
"$$	c #FF3838",
"%$	c #FF2727",
"&$	c #FF1616",
"*$	c #FF0405",
"=$	c #CB067F",
"-$	c #0606E7",
";$	c #0505FF",
">$	c #1717FF",
",$	c #3B3BFF",
"'$	c #7171FF",
")$	c #DCDCFF",
"!$	c #EEEEFF",
"~$	c #E9E9EB",
"{$	c #DDCBCB",
"]$	c #FCD9DA",
"^$	c #FFCCCC",
"/$	c #FFBABA",
"($	c #FF9797",
"_$	c #FF8686",
":$	c #FF7474",
"<$	c #FF6363",
"[$	c #FF5252",
"}$	c #FF4040",
"|$	c #FF2F2F",
"1$	c #FF1D1E",
"2$	c #FF0C0C",
"3$	c #0C0CFF",
"4$	c #3030FF",
"5$	c #4141FF",
"6$	c #6565FF",
"7$	c #D1D1FF",
"8$	c #D7D7F4",
"9$	c #C5C5D1",
"0$	c #E6BCBC",
"a$	c #FFC2C2",
"b$	c #FF9F9F",
"c$	c #FF7C7C",
"d$	c #FF6B6B",
"e$	c #FF595A",
"f$	c #FF4848",
"g$	c #FF3737",
"h$	c #FF2525",
"i$	c #FF1414",
"j$	c #FF0404",
"k$	c #1313FF",
"l$	c #3636FF",
"m$	c #C2C2FB",
"n$	c #B7B7DC",
"o$	c #EFABAB",
"p$	c #FFA7A7",
"q$	c #FF8484",
"r$	c #FF6162",
"s$	c #FF5050",
"t$	c #FF3F3F",
"u$	c #FF2D2D",
"v$	c #FF1C1C",
"w$	c #FF0B0B",
"x$	c #0707FF",
"y$	c #2B2BFF",
"z$	c #3D3CFF",
"A$	c #A4A4E5",
"B$	c #D58F8F",
"C$	c #F59797",
"D$	c #FF8C8C",
"E$	c #FF7B7B",
"F$	c #FF5858",
"G$	c #FF4747",
"H$	c #FF3535",
"I$	c #FF2424",
"J$	c #FF1313",
"K$	c #FF0303",
"L$	c #0100FF",
"M$	c #0E0EFF",
"N$	c #9191EF",
"O$	c #DF7F7F",
"P$	c #FD8282",
"Q$	c #FF6060",
"R$	c #FF3D3D",
"S$	c #FF2C2C",
"T$	c #FF1B1B",
"U$	c #FF0909",
"V$	c #0303FF",
"W$	c #7979F5",
"X$	c #7575D4",
"Y$	c #E96D6D",
"Z$	c #FF6868",
"`$	c #FF4545",
" %	c #FF1111",
".%	c #0809FF",
"+%	c #1B1BFF",
"@%	c #6060FC",
"#%	c #6262DF",
"$%	c #F15858",
"%%	c #FF4D4D",
"&%	c #FF1919",
"*%	c #FF0808",
"=%	c #4D4DE9",
"-%	c #D74545",
";%	c #F94242",
">%	c #FF2121",
",%	c #FF1010",
"'%	c #3535EF",
")%	c #E23232",
"!%	c #FE2929",
"~%	c #FF0706",
"{%	c #1B1BF8",
"]%	c #2626D7",
"^%	c #EB1D1D",
"/%	c #0202FE",
"(%	c #1111E1",
"_%	c #CF1414",
":%	c #F20707",
"<%	c #C2087F",
"[%	c #0F0FBD",
"                                                                                                ",
"                                                                                                ",
"                                                                                                ",
"                                              .                                                 ",
"                                            + @                                                 ",
"                                        # $ % &                                                 ",
"                                    * = - ; > ,                                                 ",
"                                ' ) ! ~ { ] ^ /                                                 ",
"                              ( _ : < [ } | & 1                                                 ",
"                          2 3 4 5 6 7 8 9 0 , a                                                 ",
"                      b c d e f g h i j k l m n                                                 ",
"                  o p q r s t u v < [ } w x y z                                                 ",
"                A B C D E F G 5 6 7 8 H I J K L                                                 ",
"            M N O P Q R S T U V h i j k l W X Y                                                 ",
"        Z `  ...+.@.#.$.%.&.*.=.-.;.>.w x y z ,.                                                ",
"    '.A ).......!.~.D E F G {.].^./.(._.J K L :.                                                ",
"  <.N [.........}.|.1.S T U V 2.3.4.5.6.W X Y 7.                                                ",
"8.9.0.a.......+.b.c.d.%.&.*.=.-.e.f.g.h.i.j.k.l.                                            m.n.",
"o.p.q.r.s.....!.~.t.u.v.w.{.].^./.x.y.z.A.B.C.                                          D.E.F.G.",
"H.I.J.K.L.M.N.O.|.P.Q.R.S.T.2.3.4.5.6.U.V.                                            W.X.Y.Z.`.",
" +.+++@+#+$+%+&+*+d.=+-+;+>+,+e.'+g.)+                                            !+~+{+8 ]+6.^+",
"/+(+_+:+<+[+}+|+1+2+3+4+5+6+7+8+9+                                            0+a+b+c+i d+g.& e+",
"f+g+h+i+j+k+l+m+n+o+p+q+r+c+s+t+                                            u+v+f w+,+[ x+_.y+z+",
"A+B+C+D+E+F+G+H+I+J+K+L+M+N+                                            O+P+Q+&.R+6+7 S+5.^ T+U+",
"V+W+X+Y+Z+`+ @.@+@@@#@$@%@&@*@                                      =@-@;@>@v.,@r+h '@)@w !@A.~@",
"{@]@^@/@(@_@:@<@[@}@|@1@2@3@4@5@                                Z 6@7@~.8@Q.T 9@>+< 0@(.> a@n b@",
"c@d@e@f@g@h@i@j@k@l@m@n@o@p@q@r@4@s@                          M N t@u@Q v@%.w@5+6 x@4.k y@i.z@A@",
"B@C@D@E@F@G@H@I@J@K@L@M@N@O@P@Q@Q@R@S@T@                  <.N U@..+.@.V@u.W@X@T.Y@Z@>.`@z.a  #.#",
"+#@###$#%#&#*#=#-#;#>#,#'#)#!#~#Q@Q@Q@{#]#^#          M ` /#......!.(#_#S :#;+v <#/.; [#W }#|#1#",
"2#3#4#5#6#7#8#9#0#a#b#c#d#e#f#g#Q@Q@Q@Q@h#4@5@    i#j#)...........P k#d.l#4+m#n#o#j p#h.1 q#:.r#",
"s#t#u#v#w#x#y#z#A#B#C#D#E#F#G#H#~#Q@Q@Q@Q@Q@I#J#K#N L#..........M#N#t.E O#S.g P#;.Q#y., R#S#T#r#",
"  U#V#W#X#Y#Z#`# $.$+$@$#$$$%$&$*$Q@Q@Q@Q@Q@Q@=$-$..............;$>$1.,$-+u '$7+8 ]+6./ )$!$~$  ",
"      {$]$^$/$I.($_$:$<$[$}$|$1$2$Q@Q@Q@Q@Q@Q@=$N ..............3$c.4$5$w.6$c+i d+g.& 7$8$9$    ",
"          0$a$.+b$@+c$d$e$f$g$h$i$j$Q@Q@Q@Q@Q@=$N ............M#k$D l$R.f w+-.[ x+_.m$n$        ",
"              o$p$:+q$[+r$s$t$u$v$w$Q@Q@Q@Q@Q@=$N ............x$|.y$z$&.R+6+7 S+5.A$            ",
"                B$C$D$E$l+F$G$H$I$J$K$Q@Q@Q@Q@=$N ..........L$M$#.>@v.,@r+h '@N$                ",
"                    O$P$G+Q$I+R$S$T$U$Q@Q@Q@Q@=$N ..........V$~.8@Q.e 9@>+W$X$                  ",
"                        Y$Z$+@`$#@$@ %q@Q@Q@Q@=$N ...........%+%v@%.w@@%#%                      ",
"                            $%%%|@1@&%*%Q@Q@Q@=$N ........+.@.V@u.W@=%                          ",
"                              -%;%n@>%,%~#Q@Q@=$N ........!.(#P.'%                              ",
"                                  )%!%O@~%Q@Q@=$N ........P {%]%                                ",
"                                      ^%!#~#Q@=$N ....../%(%                                    ",
"                                        _%:%Q@=$N ....).                                        ",
"                                            s@<%N /#                                            ",
"                                                [%                                              ",
"                                                                                                ",
"                                                                                                ",
"                                                                                                "};
