/* XPM */
static char * panelCopyZX_xpm[] = {
"48 48 339 2",
"  	c None",
". 	c #FFFFFF",
"+ 	c #FEFDFE",
"@ 	c #FCF9FE",
"# 	c #FBF5FD",
"$ 	c #FAF0FD",
"% 	c #FDFAFE",
"& 	c #FCF7FD",
"* 	c #FBF3FD",
"= 	c #F9EFFD",
"- 	c #F6E8FB",
"; 	c #F5E4FC",
"> 	c #FBF5FE",
", 	c #F7EAFC",
"' 	c #F5E7FC",
") 	c #F4E2FB",
"! 	c #F2DEFB",
"~ 	c #F1D9FA",
"{ 	c #F0D5F9",
"] 	c #F8EDFD",
"^ 	c #F6E8FC",
"/ 	c #F5E4FB",
"( 	c #F3E0FB",
"_ 	c #F1DCFB",
": 	c #F1D8FA",
"< 	c #EED1F8",
"[ 	c #ECCEF8",
"} 	c #EBC9F8",
"| 	c #EAC5F8",
"1 	c #F5E6FC",
"2 	c #F5E2FB",
"3 	c #F2DEFA",
"4 	c #F0D8FA",
"5 	c #EFD3F9",
"6 	c #EDCFF9",
"7 	c #ECCBF8",
"8 	c #EBC7F7",
"9 	c #E9C2F7",
"0 	c #E7BCF6",
"a 	c #E5B8F5",
"b 	c #E3B4F5",
"c 	c #F1DAFA",
"d 	c #F0D5FA",
"e 	c #EED2F9",
"f 	c #EBC9F7",
"g 	c #E9C5F7",
"h 	c #E7BFF6",
"i 	c #E5BAF6",
"j 	c #E4B7F5",
"k 	c #E3B3F5",
"l 	c #E1AEF4",
"m 	c #E0AAF3",
"n 	c #F0D8F9",
"o 	c #EECFF8",
"p 	c #ECCBF9",
"q 	c #EBC7F8",
"r 	c #E8C1F7",
"s 	c #E6BDF6",
"t 	c #E4B9F6",
"u 	c #E1B0F4",
"v 	c #E0ACF4",
"w 	c #DEA5F3",
"x 	c #DCA2F2",
"y 	c #DB9EF2",
"z 	c #D99AF1",
"A 	c #EED1F9",
"B 	c #EDCDF8",
"C 	c #EAC7F8",
"D 	c #E9C3F7",
"E 	c #E6BAF6",
"F 	c #E4B6F5",
"G 	c #E3B2F5",
"H 	c #E1AEF5",
"I 	c #DEA8F4",
"J 	c #DDA4F3",
"K 	c #DCA0F2",
"L 	c #D99BF2",
"M 	c #D998F1",
"N 	c #D793F0",
"O 	c #D48DF0",
"P 	c #D389EF",
"Q 	c #EAC4F7",
"R 	c #E8C0F6",
"S 	c #E5B8F6",
"T 	c #E4B4F5",
"U 	c #E0AAF4",
"V 	c #DEA5F4",
"W 	c #DDA2F2",
"X 	c #DA9DF2",
"Y 	c #D999F2",
"Z 	c #D58FF0",
"` 	c #D48BF0",
" .	c #D287EF",
"..	c #D182EE",
"+.	c #CF7EEE",
"@.	c #E8C2F7",
"#.	c #E6BBF6",
"$.	c #E2B0F4",
"%.	c #DFA7F3",
"&.	c #DBA0F2",
"*.	c #DA9CF1",
"=.	c #D795F1",
"-.	c #D691F1",
";.	c #D389F0",
">.	c #D184EF",
",.	c #CF81EE",
"'.	c #CE7AED",
").	c #CC76ED",
"!.	c #E5B9F5",
"~.	c #DFAAF4",
"{.	c #DEA6F3",
"].	c #DCA1F3",
"^.	c #DA9EF2",
"/.	c #D897F2",
"(.	c #D68FF0",
"_.	c #D083EF",
":.	c #CE7DEE",
"<.	c #CD79ED",
"[.	c #CB74EC",
"}.	c #C970EC",
"|.	c #E1B0F5",
"1.	c #DA99F2",
"2.	c #D895F1",
"3.	c #D791F0",
"4.	c #D284EF",
"5.	c #CE7AEE",
"6.	c #CC77EC",
"7.	c #CA72EC",
"8.	c #C96DEB",
"9.	c #C76AEB",
"0.	c #DDA6F3",
"a.	c #DB9FF2",
"b.	c #DA9CF2",
"c.	c #D898F2",
"d.	c #D794F0",
"e.	c #D48AF0",
"f.	c #D284EE",
"g.	c #CE7CEE",
"h.	c #CC78ED",
"i.	c #CA70EC",
"j.	c #C769EB",
"k.	c #C566EA",
"l.	c #C562EA",
"m.	c #DFA8F3",
"n.	c #D99AF2",
"o.	c #D691F0",
"p.	c #D387EF",
"q.	c #D183EE",
"r.	c #CD7AEE",
"s.	c #CC77ED",
"t.	c #CA72ED",
"u.	c #C96CEC",
"v.	c #C767EB",
"w.	c #C563EB",
"x.	c #C45FE9",
"y.	c #C25BE9",
"z.	c #DBA0F3",
"A.	c #DA9BF2",
"B.	c #D897F1",
"C.	c #D793F1",
"D.	c #D285EF",
"E.	c #D080EE",
"F.	c #CF7CEE",
"G.	c #CC79EE",
"H.	c #CC74EC",
"I.	c #C86EEC",
"J.	c #C666EB",
"K.	c #C461EA",
"L.	c #C25EE9",
"M.	c #C159E9",
"N.	c #BF53E8",
"O.	c #D48BEF",
"P.	c #D182EF",
"Q.	c #CF7FEE",
"R.	c #CD7BED",
"S.	c #C96BEB",
"T.	c #C668EB",
"U.	c #C564EA",
"V.	c #C460EA",
"W.	c #C259E9",
"X.	c #C055E8",
"Y.	c #BE51E8",
"Z.	c #BC4DE8",
"`.	c #D58DEF",
" +	c #CB72EC",
".+	c #C96EEC",
"++	c #C869EB",
"@+	c #C666EA",
"#+	c #C25BEA",
"$+	c #C157E9",
"%+	c #BD4FE7",
"&+	c #BC4AE7",
"*+	c #BA46E6",
"=+	c #D286EF",
"-+	c #D082EE",
";+	c #CC75ED",
">+	c #C86BEB",
",+	c #C768EB",
"'+	c #C35DE9",
")+	c #C15AE9",
"!+	c #BD4DE7",
"~+	c #BB48E7",
"{+	c #B942E6",
"]+	c #B73FE5",
"^+	c #D185EF",
"/+	c #CD7AED",
"(+	c #CC76EC",
"_+	c #C86AEB",
":+	c #C057E8",
"<+	c #BE4FE8",
"[+	c #BA44E6",
"}+	c #B840E6",
"|+	c #B73CE5",
"1+	c #B538E4",
"2+	c #CF7DED",
"3+	c #CD78ED",
"4+	c #CB75ED",
"5+	c #C665EA",
"6+	c #C462EA",
"7+	c #C25DE9",
"8+	c #C159E8",
"9+	c #C055E9",
"0+	c #BB4AE7",
"a+	c #BA46E7",
"b+	c #B842E6",
"c+	c #B73EE5",
"d+	c #B63AE5",
"e+	c #B435E5",
"f+	c #B230E3",
"g+	c #C668EA",
"h+	c #C563EA",
"i+	c #C360EA",
"j+	c #C057E9",
"k+	c #BD4CE7",
"l+	c #B841E5",
"m+	c #B232E3",
"n+	c #B12EE3",
"o+	c #AF2AE2",
"p+	c #C565EA",
"q+	c #C35DEA",
"r+	c #BE4EE8",
"s+	c #BC4BE7",
"t+	c #BB47E6",
"u+	c #B943E5",
"v+	c #B73EE6",
"w+	c #B53AE5",
"x+	c #B334E4",
"y+	c #B02CE3",
"z+	c #AE27E2",
"A+	c #AD23E1",
"B+	c #C667EB",
"C+	c #C35FEA",
"D+	c #BC49E6",
"E+	c #B945E6",
"F+	c #B436E5",
"G+	c #B231E4",
"H+	c #AF29E2",
"I+	c #AE26E2",
"J+	c #AC21E2",
"K+	c #AA1BE0",
"L+	c #BE53E9",
"M+	c #B843E6",
"N+	c #B73DE5",
"O+	c #B434E4",
"P+	c #B230E4",
"Q+	c #AD21E1",
"R+	c #AB1DE1",
"S+	c #AA19E0",
"T+	c #A815E0",
"U+	c #BF51E8",
"V+	c #B944E6",
"W+	c #B436E4",
"X+	c #B331E3",
"Y+	c #AF2AE3",
"Z+	c #AD23E2",
"`+	c #AC1FE1",
" @	c #AA1BE1",
".@	c #A817E0",
"+@	c #A713DF",
"@@	c #A60EDF",
"#@	c #BE4FE7",
"$@	c #B840E5",
"%@	c #B63CE5",
"&@	c #B333E4",
"*@	c #B02CE2",
"=@	c #AE25E2",
"-@	c #AC22E2",
";@	c #A814E0",
">@	c #A610DF",
",@	c #A40ADE",
"'@	c #A207DE",
")@	c #BD4DE8",
"!@	c #AF27E2",
"~@	c #A917E0",
"{@	c #A712DF",
"]@	c #A50CDE",
"^@	c #A309DE",
"/@	c #A204DE",
"(@	c #A000DD",
"_@	c #B538E5",
":@	c #B12DE3",
"<@	c #B02AE2",
"[@	c #A919E1",
"}@	c #A712E0",
"|@	c #A30BDE",
"1@	c #A206DE",
"2@	c #A002DE",
"3@	c #B22FE3",
"4@	c #B12BE3",
"5@	c #AE28E2",
"6@	c #AE23E1",
"7@	c #A611DF",
"8@	c #A40CDF",
"9@	c #B332E4",
"0@	c #AF29E3",
"a@	c #AC21E1",
"b@	c #AA1DE1",
"c@	c #A50EDF",
"d@	c #A40ADF",
"e@	c #A102DD",
"f@	c #B02BE3",
"g@	c #AB1DE0",
"h@	c #A715E0",
"i@	c #A711E0",
"j@	c #A50DDF",
"k@	c #A308DE",
"l@	c #B029E2",
"m@	c #AE26E1",
"n@	c #AB1FE2",
"o@	c #A713E0",
"p@	c #A104DE",
"q@	c #AD21E2",
"r@	c #A40DDE",
"s@	c #A206DD",
"t@	c #A002DD",
"u@	c #A815DF",
"v@	c #A306DD",
"w@	c #A102DE",
"x@	c #A205DD",
"                                                                                                ",
"                              . . .                                                             ",
"                              . + @ # $                                                         ",
"                              % & * = - ;                                                       ",
"                              > $ , ' ) ! ~ {                                                   ",
"                              ] ^ / ( _ : < [ } |                                               ",
"                              1 2 3 4 5 6 7 8 9 0 a b                                           ",
"                              ( c d e [ f g h i j k l m                                         ",
"                              n 5 o p q r s t b u v w x y z                                     ",
"                              A B C D h E F G H I J K L M N O P                                 ",
"                              } Q R s S T l U V W X Y N Z `  ...+.                              ",
"                              @.h #.j $.v %.J &.*.=.-.O ;.>.,.'.).                              ",
"                              s !.G l ~.{.].^./.N (.`  ._.:.<.[.}.                              ",
"                              b |.v I J ^.1.2.3.O P 4.+.5.6.7.8.9.                              ",
"                              H U 0.a.b.c.d.(.e.f.,.g.h.[.i.j.k.l.                              ",
"                              m.x ^.n.2.o.O p.q.+.r.s.t.u.v.w.x.y.                              ",
"                              z.A.B.C.Z P D.E.F.G.H.I.9.J.K.L.M.N.                              ",
"                              z 2.Z O.p.P.Q.R.[.i.S.T.U.V.W.X.Y.Z.                              ",
"                              -.`.P D.E.g.s. +.+++@+l.#+$+N.%+&+*+                              ",
"                              ` =+-+Q.<.;+i.>+,+w.'+)+X.Y.!+~+{+]+                              ",
"                              ^+E./+(+7..+_+J.V.y.:+N.<+&+[+}+|+1+                              ",
"                              2+3+4+i.u.5+6+7+8+9+Y.0+a+b+c+d+e+f+                              ",
"                              ).7..+g+h+i+#+j+N.k+~+[+l+|+1+m+n+o+                              ",
"                              i.j.p+K.q+W.X.r+s+t+u+v+w+x+f+y+z+A+                              ",
"                              B+w.C+#+j+Y.Z.D+E+l+|+F+G+n+H+I+J+K+                              ",
"                              l.q+j+L+%+s+t+M+N+1+O+P+y+z+Q+R+S+T+                              ",
"                              M.9+U+!+~+V+v+d+W+X+n+Y+Z+`+ @.@+@@@                              ",
"                              N.#@s+a+$@%@1+&@f+*@=@-@R+S+;@>@,@'@                              ",
"                              )@a+{+v+w+W+X+n+!@Z+`+ @~@{@]@^@/@(@                              ",
"                              V+}+%@_@x+:@<@=@Q+R+[@}@@@|@1@2@(@(@                              ",
"                              c+w+W+3@4@5@6@`+ @T+7@8@^@/@(@(@(@(@                              ",
"                              _@9@n+0@=@a@b@~@{@c@d@'@e@(@(@(@(@(@                              ",
"                              f+f@!@Z+g@[@h@i@j@k@e@(@(@(@(@(@(@(@                              ",
"                              l@m@n@ @~@o@@@,@p@(@(@(@(@(@(@(@(@(@                              ",
"                              q@R+S+T+7@r@s@t@(@(@(@(@(@(@(@(@(@(@                              ",
"                               @.@}@c@k@/@(@(@(@(@(@(@(@(@(@(@(@(@                              ",
"                              u@c@,@v@w@(@(@(@(@(@(@(@(@(@(@(@(@(@                              ",
"                              8@^@x@(@(@(@(@(@(@(@(@(@(@(@(@(@(@(@                              ",
"                                e@(@(@(@(@(@(@(@(@(@(@(@(@(@(@(@(@                              ",
"                                    (@(@(@(@(@(@(@(@(@(@(@(@(@(@(@                              ",
"                                        (@(@(@(@(@(@(@(@(@(@(@(@(@                              ",
"                                          (@(@(@(@(@(@(@(@(@(@(@(@                              ",
"                                              (@(@(@(@(@(@(@(@(@(@                              ",
"                                                  (@(@(@(@(@(@(@(@                              ",
"                                                      (@(@(@(@(@(@                              ",
"                                                        (@(@(@(@(@                              ",
"                                                            (@(@(@                              ",
"                                                                                                "};
