/* XPM */
static char * panelXZFace_xpm[] = {
"48 48 747 2",
"  	c None",
". 	c #D4D4D4",
"+ 	c #ECEBEB",
"@ 	c #E7E3E3",
"# 	c #E4DCDC",
"$ 	c #FFFBFB",
"% 	c #FEF6F6",
"& 	c #E7DCDC",
"* 	c #EADCDB",
"= 	c #DCCACA",
"- 	c #FFF6F6",
"; 	c #FFF3F3",
"> 	c #FFEFEF",
", 	c #F8E4E4",
"' 	c #E6D0D0",
") 	c #E8CFCF",
"! 	c #D1B6B7",
"~ 	c #FFF2F2",
"{ 	c #FFEEEE",
"] 	c #FFEBEB",
"^ 	c #FFE7E7",
"/ 	c #FFE3E3",
"( 	c #F1D3D3",
"_ 	c #E6C6C6",
": 	c #EAC6C6",
"< 	c #FFEAEA",
"[ 	c #FFDFDF",
"} 	c #FFDBDB",
"| 	c #FFD8D8",
"1 	c #E9C1C1",
"2 	c #E8BDBD",
"3 	c #E3B5B5",
"4 	c #FFE6E6",
"5 	c #FFE2E2",
"6 	c #FFD7D7",
"7 	c #FFD3D3",
"8 	c #FFD0D0",
"9 	c #FDCACA",
"0 	c #E6B4B4",
"a 	c #ECB5B5",
"b 	c #D9A3A3",
"c 	c #FFDEDE",
"d 	c #FFCFCF",
"e 	c #FFCBCB",
"f 	c #FFC8C8",
"g 	c #FFC4C4",
"h 	c #F5B8B9",
"i 	c #E6AAAA",
"j 	c #E9A9A8",
"k 	c #CC9090",
"l 	c #FFDADA",
"m 	c #FFD6D6",
"n 	c #FFC7C7",
"o 	c #FFC3C3",
"p 	c #FFC0C0",
"q 	c #FFBCBC",
"r 	c #FFB8B8",
"s 	c #F0AAAA",
"t 	c #E6A0A0",
"u 	c #E69B9B",
"v 	c #FFD2D2",
"w 	c #FFCECF",
"x 	c #FFBFBF",
"y 	c #FFB4B4",
"z 	c #FFB0B0",
"A 	c #FFACAC",
"B 	c #EA9A9A",
"C 	c #E99797",
"D 	c #DF8C8C",
"E 	c #FFD9D9",
"F 	c #FFCECE",
"G 	c #FFCACA",
"H 	c #FFBBBB",
"I 	c #FFB7B8",
"J 	c #FFA8A8",
"K 	c #FFA5A5",
"L 	c #FB9E9E",
"M 	c #E68D8D",
"N 	c #E98C8C",
"O 	c #D77D7D",
"P 	c #FFD5D5",
"Q 	c #FFD2D1",
"R 	c #FFC6C6",
"S 	c #FFC2C2",
"T 	c #FFB7B7",
"U 	c #FFB3B3",
"V 	c #FFB0AF",
"W 	c #FFA4A4",
"X 	c #FFA0A0",
"Y 	c #FF9D9D",
"Z 	c #FF9999",
"` 	c #F48F8F",
" .	c #E68383",
"..	c #EA8282",
"+.	c #C86B6B",
"@.	c #FFD1D1",
"#.	c #FFCDCD",
"$.	c #FFBEBE",
"%.	c #FFBABA",
"&.	c #FFAFAF",
"*.	c #FFABAB",
"=.	c #FF9C9C",
"-.	c #FF9899",
";.	c #FF9595",
">.	c #FF9191",
",.	c #FF8D8D",
"'.	c #ED7F7F",
").	c #E77979",
"!.	c #E47474",
"~.	c #FFC9C9",
"{.	c #FFC5C5",
"].	c #FFB6B6",
"^.	c #FFA7A7",
"/.	c #FFA3A3",
"(.	c #FF9898",
"_.	c #FF9494",
":.	c #FF8989",
"<.	c #FF8585",
"[.	c #FE8181",
"}.	c #E77272",
"|.	c #ED7171",
"1.	c #DD6666",
"2.	c #FFC1C1",
"3.	c #FFB2B2",
"4.	c #FFAEAE",
"5.	c #FF9F9F",
"6.	c #FF9090",
"7.	c #FF8C8C",
"8.	c #FF8181",
"9.	c #FF7D7D",
"0.	c #FF797A",
"a.	c #F87272",
"b.	c #E66767",
"c.	c #E96565",
"d.	c #D35757",
"e.	c #FFBDBD",
"f.	c #FFB9B9",
"g.	c #FFAAAA",
"h.	c #FFA7A6",
"i.	c #FF9B9B",
"j.	c #FF9797",
"k.	c #FF8888",
"l.	c #FF8584",
"m.	c #FF7979",
"n.	c #FF7575",
"o.	c #FF7272",
"p.	c #FF6E6E",
"q.	c #F46565",
"r.	c #E65C5C",
"s.	c #E95A5A",
"t.	c #FFC1C0",
"u.	c #FFB5B5",
"v.	c #FFB1B1",
"w.	c #FFA6A6",
"x.	c #FFA2A2",
"y.	c #FF9393",
"z.	c #FF8F90",
"A.	c #FF8484",
"B.	c #FF8080",
"C.	c #FF7171",
"D.	c #FF6E6D",
"E.	c #FF6A6A",
"F.	c #FF6666",
"G.	c #FF6262",
"H.	c #EC5757",
"I.	c #E75252",
"J.	c #E44D4D",
"K.	c #A89191",
"L.	c #F8B8B8",
"M.	c #FFADAD",
"N.	c #FF9E9E",
"O.	c #FF9B9A",
"P.	c #FF8F8F",
"Q.	c #FF8B8B",
"R.	c #FF7C7C",
"S.	c #FF7879",
"T.	c #FF6D6D",
"U.	c #FF6969",
"V.	c #FF5E5E",
"W.	c #FF5A5A",
"X.	c #FE5656",
"Y.	c #E64A4B",
"Z.	c #E94948",
"`.	c #DB4040",
" +	c #DBDBDC",
".+	c #F9F9FC",
"++	c #E7E1E8",
"@+	c #E4B3B7",
"#+	c #FEB0B0",
"$+	c #FFA9A9",
"%+	c #FF9A9A",
"&+	c #FF9696",
"*+	c #FF9293",
"=+	c #FF8787",
"-+	c #FF8383",
";+	c #FF7878",
">+	c #FF7474",
",+	c #FF6565",
"'+	c #FF6161",
")+	c #FF5656",
"!+	c #FF5252",
"~+	c #FF4F4F",
"{+	c #F74948",
"]+	c #E23F3F",
"^+	c #C93636",
"/+	c #D2D2D2",
"(+	c #F3F3F5",
"_+	c #FAFAFF",
":+	c #F6F5FF",
"<+	c #F1F1FF",
"[+	c #ECECFE",
"}+	c #D7C7D9",
"|+	c #EBA4A9",
"1+	c #FFA1A1",
"2+	c #FF9D9E",
"3+	c #FF9292",
"4+	c #FF8E8E",
"5+	c #FF7F7F",
"6+	c #FF7070",
"7+	c #FF6C6C",
"8+	c #FF5D5D",
"9+	c #FF4E4E",
"0+	c #FF4A4A",
"a+	c #FF4747",
"b+	c #E93E3E",
"c+	c #E43939",
"d+	c #ECECED",
"e+	c #FCFCFF",
"f+	c #F8F7FF",
"g+	c #F3F3FF",
"h+	c #EEEFFF",
"i+	c #EAEAFF",
"j+	c #E5E5FF",
"k+	c #E1E1FF",
"l+	c #D6D6F8",
"m+	c #D2B0C9",
"n+	c #F19799",
"o+	c #FF8A8A",
"p+	c #FF7B7B",
"q+	c #FF7777",
"r+	c #FF6868",
"s+	c #FF6465",
"t+	c #FF5959",
"u+	c #FF5555",
"v+	c #FF4646",
"w+	c #FF4243",
"x+	c #E93A3A",
"y+	c #E43636",
"z+	c #E1E1E1",
"A+	c #FDFDFF",
"B+	c #F5F5FF",
"C+	c #ECECFF",
"D+	c #E8E8FF",
"E+	c #E3E3FF",
"F+	c #DEDEFF",
"G+	c #DADAFF",
"H+	c #D5D5FF",
"I+	c #D1D1FF",
"J+	c #C6C1F1",
"K+	c #D49AB3",
"L+	c #FA8F8E",
"M+	c #FF8686",
"N+	c #FF8282",
"O+	c #FF7F7E",
"P+	c #FF7373",
"Q+	c #FF706F",
"R+	c #FF6464",
"S+	c #FF6060",
"T+	c #FF5151",
"U+	c #FF4D4E",
"V+	c #FF4242",
"W+	c #FF3E3E",
"X+	c #E93636",
"Y+	c #E43232",
"Z+	c #D9D9D9",
"`+	c #FAFAFB",
" @	c #F7F7FF",
".@	c #EEEEFF",
"+@	c #E0E1FF",
"@@	c #DCDCFF",
"#@	c #D7D7FF",
"$@	c #D3D3FF",
"%@	c #CECEFF",
"&@	c #CACAFF",
"*@	c #C5C5FF",
"=@	c #C1C1FF",
"-@	c #B7A9E2",
";@	c #DE879C",
">@	c #FF7E7E",
",@	c #FF7A7A",
"'@	c #FF6F6F",
")@	c #FF6B6B",
"!@	c #FF6768",
"~@	c #FF5C5C",
"{@	c #FF5858",
"]@	c #FF4D4D",
"^@	c #FF4949",
"/@	c #FF3A3A",
"(@	c #E93333",
"_@	c #E42F2F",
":@	c #CCCCCC",
"<@	c #F2F2F3",
"[@	c #F9F9FF",
"}@	c #F0F0FF",
"|@	c #E7E7FF",
"1@	c #D9D9FF",
"2@	c #D0D0FF",
"3@	c #CCCCFF",
"4@	c #C7C7FF",
"5@	c #C3C3FF",
"6@	c #BEBEFF",
"7@	c #BABAFF",
"8@	c #B5B5FF",
"9@	c #AFAFFC",
"0@	c #B491CE",
"a@	c #E97984",
"b@	c #FF7676",
"c@	c #FF7372",
"d@	c #FF6767",
"e@	c #FF6363",
"f@	c #FF5454",
"g@	c #FF5150",
"h@	c #FF4545",
"i@	c #FF4141",
"j@	c #FF3636",
"k@	c #E92F2F",
"l@	c #E42B2B",
"m@	c #ECECEC",
"n@	c #FEFEFF",
"o@	c #FBFBFF",
"p@	c #F2F2FF",
"q@	c #E9E9FF",
"r@	c #E0E0FF",
"s@	c #DBDCFF",
"t@	c #D3D2FF",
"u@	c #C9C9FF",
"v@	c #C0C0FF",
"w@	c #BCBCFF",
"x@	c #B7B7FF",
"y@	c #B3B3FF",
"z@	c #AEAEFF",
"A@	c #AAAAFF",
"B@	c #A5A5FF",
"C@	c #9E9BF7",
"D@	c #BE7DB8",
"E@	c #F56E70",
"F@	c #FF5F5F",
"G@	c #FF5B5B",
"H@	c #FF5050",
"I@	c #FF4C4C",
"J@	c #FF3D3D",
"K@	c #FF3939",
"L@	c #FF3232",
"M@	c #E92B2B",
"N@	c #E42727",
"O@	c #E0E0E0",
"P@	c #FEFEFE",
"Q@	c #F4F4FF",
"R@	c #EBEBFF",
"S@	c #E2E2FF",
"T@	c #D5D4FF",
"U@	c #C2C2FF",
"V@	c #B9B9FF",
"W@	c #B0B0FF",
"X@	c #ACACFF",
"Y@	c #A7A7FF",
"Z@	c #A3A3FF",
"`@	c #9E9EFF",
" #	c #9999FF",
".#	c #9595FF",
"+#	c #8F87EC",
"@#	c #CC6A9C",
"##	c #FC6565",
"$#	c #FF5757",
"%#	c #FF4848",
"&#	c #FF4444",
"*#	c #FF3535",
"=#	c #FF2E2E",
"-#	c #E92828",
";#	c #E42424",
">#	c #BBBBBB",
",#	c #F8F8F8",
"'#	c #F6F6FF",
")#	c #EDEDFF",
"!#	c #E4E4FF",
"~#	c #DBDBFF",
"{#	c #D2D2FF",
"]#	c #CECDFF",
"^#	c #C5C4FF",
"/#	c #BBBBFF",
"(#	c #B2B2FF",
"_#	c #A9A9FF",
":#	c #A0A0FF",
"<#	c #9C9CFF",
"[#	c #9797FF",
"}#	c #9293FF",
"|#	c #8E8EFF",
"1#	c #8989FF",
"2#	c #8585FF",
"3#	c #8F71DB",
"4#	c #DC5C80",
"5#	c #FF5353",
"6#	c #FF4040",
"7#	c #FF3131",
"8#	c #FF2D2D",
"9#	c #FF2A2A",
"0#	c #E92424",
"a#	c #E42121",
"b#	c #D5D5D5",
"c#	c #E4E4E6",
"d#	c #F1F1F7",
"e#	c #EFEFFF",
"f#	c #E6E6FF",
"g#	c #DDDDFF",
"h#	c #D4D4FF",
"i#	c #CBCBFF",
"j#	c #C6C7FF",
"k#	c #BDBDFF",
"l#	c #B4B4FF",
"m#	c #ABABFF",
"n#	c #A2A2FF",
"o#	c #9594FF",
"p#	c #9090FF",
"q#	c #8C8CFF",
"r#	c #8787FF",
"s#	c #8282FF",
"t#	c #7E7EFF",
"u#	c #7979FF",
"v#	c #7373FB",
"w#	c #9D5EC6",
"x#	c #EB4F5F",
"y#	c #FF4B4B",
"z#	c #FF3C3C",
"A#	c #FF3938",
"B#	c #FF2929",
"C#	c #FF2625",
"D#	c #E92121",
"E#	c #E41D1D",
"F#	c #D4D4DB",
"G#	c #DDDDE9",
"H#	c #D6D6E6",
"I#	c #E8E8FE",
"J#	c #DFDFFF",
"K#	c #D6D6FF",
"L#	c #CDCDFF",
"M#	c #C4C4FF",
"N#	c #B7B6FF",
"O#	c #ADADFF",
"P#	c #A4A4FF",
"Q#	c #9B9BFF",
"R#	c #9292FF",
"S#	c #8080FF",
"T#	c #7B7BFF",
"U#	c #7777FF",
"V#	c #7272FF",
"W#	c #6E6EFF",
"X#	c #6969FF",
"Y#	c #6761F4",
"Z#	c #B44DAC",
"`#	c #F74546",
" $	c #FF4343",
".$	c #FF3838",
"+$	c #FF3434",
"@$	c #FF3130",
"#$	c #FF2525",
"$$	c #FF2121",
"%$	c #E91D1D",
"&$	c #E41A1A",
"*$	c #CECEE4",
"=$	c #CCCCE7",
"-$	c #CCCCEC",
";$	c #D8D8FF",
">$	c #CFCFFF",
",$	c #C6C6FF",
"'$	c #B8B9FF",
")$	c #AFAFFF",
"!$	c #A6A6FF",
"~$	c #9D9DFF",
"{$	c #9494FF",
"]$	c #8B8BFF",
"^$	c #8686FF",
"/$	c #7D7DFF",
"($	c #7474FF",
"_$	c #7070FF",
":$	c #6B6BFF",
"<$	c #6767FF",
"[$	c #6262FF",
"}$	c #5E5EFF",
"|$	c #5959FF",
"1$	c #664EE7",
"2$	c #CA3E8A",
"3$	c #FE3B3B",
"4$	c #FF3030",
"5$	c #FF2C2C",
"6$	c #FF1D1D",
"7$	c #E91A1A",
"8$	c #E41717",
"9$	c #C4C4E9",
"0$	c #BCBCE6",
"a$	c #C4C4F4",
"b$	c #C8C8FF",
"c$	c #BFBFFF",
"d$	c #B6B6FF",
"e$	c #A8A8FF",
"f$	c #9F9FFF",
"g$	c #9696FF",
"h$	c #8D8DFF",
"i$	c #8484FF",
"j$	c #7676FF",
"k$	c #6D6DFF",
"l$	c #6464FF",
"m$	c #6060FF",
"n$	c #5B5BFF",
"o$	c #5757FF",
"p$	c #5252FF",
"q$	c #4E4EFF",
"r$	c #4949FF",
"s$	c #7D3CD2",
"t$	c #DE3164",
"u$	c #FF2828",
"v$	c #FF2425",
"w$	c #FF1919",
"x$	c #E91616",
"y$	c #E41414",
"z$	c #A8A8D3",
"A$	c #B4B4E9",
"B$	c #AEAEE6",
"C$	c #B7B7F8",
"D$	c #B8B8FF",
"E$	c #A1A1FF",
"F$	c #9898FF",
"G$	c #8F8FFF",
"H$	c #7878FF",
"I$	c #6F6FFF",
"J$	c #6666FF",
"K$	c #5D5DFF",
"L$	c #5454FF",
"M$	c #5050FF",
"N$	c #4B4BFF",
"O$	c #4747FF",
"P$	c #4242FF",
"Q$	c #3E3EFF",
"R$	c #3838FB",
"S$	c #992DBB",
"T$	c #EF273E",
"U$	c #FF2424",
"V$	c #FF2020",
"W$	c #FF1515",
"X$	c #E91313",
"Y$	c #E41111",
"Z$	c #A2A2DD",
"`$	c #A8A8ED",
" %	c #A1A1E7",
".%	c #ACACFE",
"+%	c #A4A3FF",
"@%	c #9A9AFF",
"#%	c #9191FF",
"$%	c #8888FF",
"%%	c #7F7FFF",
"&%	c #6868FF",
"*%	c #5F5FFF",
"=%	c #5656FF",
"-%	c #4D4DFF",
";%	c #4444FF",
">%	c #4040FF",
",%	c #3B3BFF",
"'%	c #3737FF",
")%	c #3232FF",
"!%	c #2D2EFF",
"~%	c #3627F2",
"{%	c #B420A0",
"]%	c #F91C1B",
"^%	c #FF1818",
"/%	c #FF1111",
"(%	c #E91010",
"_%	c #E40E0E",
":%	c #9999E4",
"<%	c #9696E7",
"[%	c #9696ED",
"}%	c #9393FF",
"|%	c #8A8AFF",
"1%	c #8181FF",
"2%	c #6261FF",
"3%	c #5858FF",
"4%	c #4F4FFF",
"5%	c #4646FF",
"6%	c #3D3DFF",
"7%	c #3939FF",
"8%	c #3434FF",
"9%	c #3030FF",
"0%	c #2B2BFF",
"a%	c #2626FF",
"b%	c #2222FF",
"c%	c #1D1DFF",
"d%	c #5619E2",
"e%	c #CE1578",
"f%	c #FF1110",
"g%	c #FF0D0D",
"h%	c #E90D0D",
"i%	c #E40B0B",
"j%	c #7D7DC8",
"k%	c #8D8DEA",
"l%	c #8787E6",
"m%	c #8B8BF4",
"n%	c #8383FF",
"o%	c #7A7AFF",
"p%	c #7171FF",
"q%	c #6364FF",
"r%	c #5A5AFF",
"s%	c #5151FF",
"t%	c #4848FF",
"u%	c #3F3FFF",
"v%	c #3636FF",
"w%	c #2D2DFF",
"x%	c #2829FF",
"y%	c #2424FF",
"z%	c #1F20FF",
"A%	c #1B1BFF",
"B%	c #1616FF",
"C%	c #1212FF",
"D%	c #0D0DFE",
"E%	c #7B0ECB",
"F%	c #E30C50",
"G%	c #E90A0A",
"H%	c #E40808",
"I%	c #7979D7",
"J%	c #7E7EE9",
"K%	c #7878E6",
"L%	c #7F7FFB",
"M%	c #7C7CFF",
"N%	c #7373FF",
"O%	c #6A6AFF",
"P%	c #6161FF",
"Q%	c #5D5CFF",
"R%	c #5353FF",
"S%	c #4A4AFF",
"T%	c #4141FF",
"U%	c #3838FF",
"V%	c #2F2FFF",
"W%	c #1819FF",
"X%	c #1414FF",
"Y%	c #0F10FF",
"Z%	c #0B0BFF",
"`%	c #0606FF",
" &	c #0202FF",
".&	c #0002F9",
"+&	c #880E9B",
"@&	c #E40707",
"#&	c #6F6FDF",
"$&	c #6F6FE9",
"%&	c #6B6CEA",
"&&	c #6C6CFF",
"*&	c #6363FF",
"=&	c #5655FF",
"-&	c #4C4CFF",
";&	c #4343FF",
">&	c #3A3AFF",
",&	c #3131FF",
"'&	c #2828FF",
")&	c #1F1FFF",
"!&	c #1A1AFF",
"~&	c #1111FF",
"{&	c #0D0DFF",
"]&	c #0808FF",
"^&	c #0404FF",
"/&	c #0101FF",
"(&	c #0202F9",
"_&	c #0707E6",
":&	c #0909DB",
"<&	c #C70E0E",
"[&	c #6464E7",
"}&	c #5F5FE6",
"|&	c #5F5FF0",
"1&	c #5C5CFF",
"2&	c #4E4FFF",
"3&	c #4545FF",
"4&	c #3C3CFF",
"5&	c #3333FF",
"6&	c #2A2AFF",
"7&	c #2121FF",
"8&	c #1818FF",
"9&	c #1313FF",
"0&	c #0F0FFF",
"a&	c #0A0AFF",
"b&	c #0000FF",
"c&	c #0606E8",
"d&	c #0606E9",
"e&	c #0909DE",
"f&	c #5050CC",
"g&	c #5656E9",
"h&	c #5151E6",
"i&	c #5252F5",
"j&	c #4847FF",
"k&	c #3535FF",
"l&	c #2C2CFF",
"m&	c #2323FF",
"n&	c #0303FF",
"o&	c #0404EF",
"p&	c #4848D9",
"q&	c #4848EC",
"r&	c #4343E6",
"s&	c #4444FD",
"t&	c #4041FF",
"u&	c #2E2EFF",
"v&	c #2525FF",
"w&	c #1C1CFF",
"x&	c #0505FF",
"y&	c #0102FF",
"z&	c #0303F6",
"A&	c #0606EA",
"B&	c #0D0DC9",
"C&	c #3C3CE3",
"D&	c #3839E8",
"E&	c #3535E9",
"F&	c #2727FF",
"G&	c #1E1EFF",
"H&	c #1515FF",
"I&	c #0C0CFF",
"J&	c #0101FB",
"K&	c #0A0AD9",
"L&	c #2F2FEA",
"M&	c #2A2AE6",
"N&	c #2828F1",
"O&	c #2020FF",
"P&	c #1717FF",
"Q&	c #0E0EFF",
"R&	c #0808E1",
"S&	c #2323D1",
"T&	c #2121E8",
"U&	c #1D1DE6",
"V&	c #1919F8",
"W&	c #1010FF",
"X&	c #0707FF",
"Y&	c #0505EF",
"Z&	c #0606E7",
"`&	c #1818DC",
" *	c #1413E9",
".*	c #1111E7",
"+*	c #0909FE",
"@*	c #0303F7",
"#*	c #0505EC",
"$*	c #0C0CCF",
"%*	c #0D0DE4",
"&*	c #0808E7",
"**	c #0808E2",
"=*	c #0A0ADA",
"-*	c #0E0EC3",
"                                                                                                ",
"                                .                                                               ",
"                                + @ #                                                           ",
"                                $ % & * =                                                       ",
"                                - ; > , ' ) !                                                   ",
"                                ~ { ] ^ / ( _ :                                                 ",
"                                { < ^ / [ } | 1 2 3                                             ",
"                                < 4 5 [ } 6 7 8 9 0 a b                                         ",
"                                4 5 c } 6 7 d e f g h i j k                                     ",
"                                5 c l m 7 d e n o p q r s t u                                   ",
"                                c l m v w e n o x q r y z A B C D                               ",
"                                E m v F G n o x H I y z A J K L M N O                           ",
"                                P Q F G R S x H T U V A J W X Y Z `  ...+.                      ",
"                                @.#.G R S $.%.T U &.*.J W X =.-.;.>.,.'.).!.                    ",
"                                #.~.{.S $.%.].U &.*.^./.X =.(._.>.,.:.<.[.}.|.1.                ",
"                                ~.{.2.$.%.].3.4.*.^./.5.=.(._.6.7.:.<.8.9.0.a.b.c.d.            ",
"                                {.2.e.f.].3.4.g.h./.5.i.j._.6.7.k.l.8.9.m.n.o.p.q.r.s.          ",
"                                t.e.f.u.v.4.g.w.x.5.i.j.y.z.7.k.A.B.9.m.n.C.D.E.F.G.H.I.J.      ",
"                              K.L.f.u.v.M.g.w.x.N.O.j.y.P.Q.k.A.B.R.S.n.C.T.U.F.G.V.W.X.Y.Z.`.  ",
"                             +.+++@+#+M.$+K x.N.%+&+*+P.Q.=+-+B.R.;+>+C.T.U.,+'+V.W.)+!+~+{+]+^+",
"                        /+(+_+:+<+[+}+|+K 1+2+%+&+3+4+Q.=+-+5+R.;+>+6+7+U.,+'+8+W.)+!+9+0+a+b+c+",
"                      d+e+f+g+h+i+j+k+l+m+n+Z &+3+4+o+=+-+5+p+q+>+6+7+r+s+'+8+t+u+!+9+0+v+w+x+y+",
"                  z+A+_+B+<+C+D+E+F+G+H+I+J+K+L+4+o+M+N+O+p+q+P+Q+7+r+R+S+8+t+u+T+U+0+v+V+W+X+Y+",
"              Z+`+e+ @g+.@i+j++@@@#@$@%@&@*@=@-@;@M+N+>@,@q+P+'@)@!@R+S+~@{@u+T+]@^@v+V+W+/@(@_@",
"          :@<@A+[@B+}@C+|@E+F+1@H+2@3@4@5@6@7@8@9@0@a@,@b@c@'@)@d@e@S+~@{@f@g@]@^@h@i@W+/@j@k@l@",
"        m@n@o@ @p@.@q@j+r@s@#@t@%@u@*@v@w@x@y@z@A@B@C@D@E@p.)@d@e@F@G@{@f@H@I@^@h@i@J@K@j@L@M@N@",
"    O@P@A+[@Q@}@R@|@S@F+1@T@2@3@4@U@6@V@8@W@X@Y@Z@`@ #.#+#@###e@F@G@$#f@H@I@%#&#i@J@K@*#L@=#-#;#",
">#,#n@o@'#p@)#q@!#r@~##@{#]#u@^#v@/#x@(#z@_#B@:#<#[#}#|#1#2#3#4#G@$#5#~+I@%#&#6#J@K@*#7#8#9#0#a#",
"b#c#d#Q@e#R@f#S@g#1@h#2@i#j#U@k#V@l#W@m#Y@n#`@ #o#p#q#r#s#t#u#v#w#x#~+y#%#&#6#z#A#*#7#8#B#C#D#E#",
"  F#G#H#I#!#J#~#K#{#L#u@M#v@/#N#(#O#_#P#:#Q#[#R#|#1#2#S#T#U#V#W#X#Y#Z#`# $6#z#.$+$@$8#B##$$$%$&$",
"      *$=$-$;$h#>$i#,$U@k#'$l#)$m#!$n#~$ #{$p#]$^$s#/$u#($_$:$<$[$}$|$1$2$3$.$+$4$5$B##$$$6$7$8$",
"          9$0$a$b$M#c$/#d$(#O#e$P#f$Q#g$R#h$1#i$S#T#j$V#k$X#l$m$n$o$p$q$r$s$t$4$5$u$v$$$6$w$x$y$",
"            z$A$B$C$D$l#)$A@!$E$~$F${$G$]$^$s#/$H$($I$:$J$[$K$|$L$M$N$O$P$Q$R$S$T$U$V$6$w$W$X$Y$",
"                Z$`$ %.%e$+%f$@%g$#%h$$%i$%%T#j$V#k$&%l$*%n$=%p$-%r$;%>%,%'%)%!%~%{%]%^%W$/%(%_%",
"                    :%<%[%<#F$}%G$|%^$1%/$H$($I$:$J$2%K$3%L$4%N$5%P$6%7%8%9%0%a%b%c%d%e%f%g%h%i%",
"                      j%k%l%m%q#$%n%%%o%j$p%k$&%q%*%r%=%s%-%t%;%u%,%v%)%w%x%y%z%A%B%C%D%E%F%G%H%",
"                          I%J%K%L%M%H$N%I$O%J$P%Q%3%R%4%S%5%T%6%U%8%V%0%a%b%c%W%X%Y%Z%`% &.&+&@&",
"                              #&$&%&p%&&&%*&*%r%=&s%-&t%;&u%>&v%,&w%'&y%)&!&B%~&{&]&^&/&(&_&:&<&",
"                                  [&}&|&P%1&3%R%2&S%3&T%4&U%5&V%6&a%7&c%8&9&0&a&`% &b&c&d&e&    ",
"                                    f&g&h&i&s%-&j&;&Q$>&k&,&l&'&m&)&!&B%~&{&]&n&b&o&_&_&        ",
"                                        p&q&r&s&t&4&'%5&u&6&v&7&w&8&9&0&a&x&y&z&_&A&B&          ",
"                                            C&D&E&k&9%l&F&m&G&!&H&~&I&]&n&J&_&d&K&              ",
"                                                L&M&N&v&O&w&P&9&Q&a&x&/&A&A&R&                  ",
"                                                  S&T&U&V&H&W&I&X&n&Y&_&Z&                      ",
"                                                      `& *.*+*x&@*_&#*$*                        ",
"                                                          %*&***d&=*                            ",
"                                                              -*                                ",
"                                                                                                "};
