/* XPM */
static char * panelZX_xpm[] = {
"48 48 287 2",
"  	c None",
". 	c #0101FF",
"+ 	c #0000FF",
"@ 	c #0707FF",
"# 	c #0404FF",
"$ 	c #0E0EFF",
"% 	c #0B0BFF",
"& 	c #0303FF",
"* 	c #1515FF",
"= 	c #1212FF",
"- 	c #0A0AFF",
"; 	c #0606FF",
"> 	c #0202FF",
", 	c #1C1CFF",
"' 	c #1919FF",
") 	c #1111FF",
"! 	c #0D0DFF",
"~ 	c #0909FF",
"{ 	c #0405FF",
"] 	c #2323FF",
"^ 	c #2020FF",
"/ 	c #1818FF",
"( 	c #1414FF",
"_ 	c #1010FF",
": 	c #0C0CFF",
"< 	c #0304FF",
"[ 	c #2A2AFF",
"} 	c #2727FF",
"| 	c #1F1FFF",
"1 	c #1B1BFF",
"2 	c #1717FF",
"3 	c #1313FF",
"4 	c #0F0FFF",
"5 	c #3131FF",
"6 	c #2E2EFF",
"7 	c #2626FF",
"8 	c #2222FF",
"9 	c #1E1EFF",
"0 	c #1A1AFF",
"a 	c #1616FF",
"b 	c #0605FF",
"c 	c #3838FF",
"d 	c #3535FF",
"e 	c #2D2DFF",
"f 	c #2929FF",
"g 	c #2525FF",
"h 	c #2121FF",
"i 	c #1D1DFF",
"j 	c #0809FF",
"k 	c #3F3FFF",
"l 	c #3C3CFF",
"m 	c #3434FF",
"n 	c #3030FF",
"o 	c #2C2CFF",
"p 	c #2828FF",
"q 	c #2424FF",
"r 	c #100FFF",
"s 	c #0708FF",
"t 	c #0403FF",
"u 	c #4646FF",
"v 	c #4343FF",
"w 	c #3B3BFF",
"x 	c #3737FF",
"y 	c #3333FF",
"z 	c #2F2FFF",
"A 	c #2B2BFF",
"B 	c #4D4DFF",
"C 	c #4A4AFF",
"D 	c #4242FF",
"E 	c #3E3EFF",
"F 	c #3A3AFF",
"G 	c #3636FF",
"H 	c #3232FF",
"I 	c #5454FF",
"J 	c #5151FF",
"K 	c #4949FF",
"L 	c #4545FF",
"M 	c #4141FF",
"N 	c #3D3DFF",
"O 	c #3939FF",
"P 	c #1415FF",
"Q 	c #5B5BFF",
"R 	c #5858FF",
"S 	c #5050FF",
"T 	c #4C4CFF",
"U 	c #4848FF",
"V 	c #4444FF",
"W 	c #4040FF",
"X 	c #6262FF",
"Y 	c #5F5FFF",
"Z 	c #5757FF",
"` 	c #5353FF",
" .	c #4F4FFF",
"..	c #4B4BFF",
"+.	c #4747FF",
"@.	c #6969FF",
"#.	c #6666FF",
"$.	c #5E5EFF",
"%.	c #5A5AFF",
"&.	c #5656FF",
"*.	c #5252FF",
"=.	c #4E4EFF",
"-.	c #7070FF",
";.	c #6D6DFF",
">.	c #6565FF",
",.	c #6161FF",
"'.	c #5D5DFF",
").	c #5959FF",
"!.	c #5555FF",
"~.	c #7777FF",
"{.	c #7474FF",
"].	c #6C6CFF",
"^.	c #6868FF",
"/.	c #6464FF",
"(.	c #6060FF",
"_.	c #5C5CFF",
":.	c #7F7EFF",
"<.	c #7B7BFF",
"[.	c #7373FF",
"}.	c #6F6FFF",
"|.	c #6B6BFF",
"1.	c #6767FF",
"2.	c #6363FF",
"3.	c #8585FF",
"4.	c #8282FF",
"5.	c #7E7EFF",
"6.	c #7A7AFF",
"7.	c #7676FF",
"8.	c #7272FF",
"9.	c #6E6EFF",
"0.	c #6A6AFF",
"a.	c #8D8DFF",
"b.	c #8989FF",
"c.	c #8181FF",
"d.	c #7D7DFF",
"e.	c #7979FF",
"f.	c #7575FF",
"g.	c #7171FF",
"h.	c #9494FF",
"i.	c #9090FF",
"j.	c #8C8CFF",
"k.	c #8888FF",
"l.	c #8484FF",
"m.	c #8080FF",
"n.	c #7C7CFF",
"o.	c #7878FF",
"p.	c #9B9BFF",
"q.	c #9797FF",
"r.	c #9393FF",
"s.	c #8F8FFF",
"t.	c #8B8BFF",
"u.	c #8787FF",
"v.	c #8383FF",
"w.	c #7F7FFF",
"x.	c #A2A2FF",
"y.	c #9E9EFF",
"z.	c #9A9AFF",
"A.	c #9696FF",
"B.	c #9292FF",
"C.	c #8E8EFF",
"D.	c #8A8AFF",
"E.	c #8686FF",
"F.	c #A9A9FF",
"G.	c #A5A5FF",
"H.	c #A1A1FF",
"I.	c #9D9DFF",
"J.	c #9999FF",
"K.	c #9595FF",
"L.	c #9191FF",
"M.	c #B0B0FF",
"N.	c #ADACFF",
"O.	c #A9A8FF",
"P.	c #A4A4FF",
"Q.	c #A0A0FF",
"R.	c #9C9CFF",
"S.	c #9898FF",
"T.	c #B7B7FF",
"U.	c #B4B4FF",
"V.	c #AFAFFF",
"W.	c #ABACFF",
"X.	c #A7A7FF",
"Y.	c #A3A3FF",
"Z.	c #9F9FFF",
"`.	c #BEBEFF",
" +	c #BABBFF",
".+	c #B6B6FF",
"++	c #B2B3FF",
"@+	c #AEAEFF",
"#+	c #ABABFF",
"$+	c #A6A6FF",
"%+	c #C5C5FF",
"&+	c #C2C2FF",
"*+	c #BAB9FF",
"=+	c #B5B5FF",
"-+	c #B2B2FF",
";+	c #ADADFF",
">+	c #AAA9FF",
",+	c #CCCCFF",
"'+	c #C9C9FF",
")+	c #C1C1FF",
"!+	c #BCBCFF",
"~+	c #B9B8FF",
"{+	c #B5B4FF",
"]+	c #B1B0FF",
"^+	c #ACACFF",
"/+	c #A8A8FF",
"(+	c #D3D3FF",
"_+	c #D0D0FF",
":+	c #C8C8FF",
"<+	c #C4C3FF",
"[+	c #C0C0FF",
"}+	c #B7B8FF",
"|+	c #B3B3FF",
"1+	c #DADAFF",
"2+	c #D7D7FF",
"3+	c #CFCFFF",
"4+	c #CBCBFF",
"5+	c #C7C7FF",
"6+	c #C3C3FF",
"7+	c #BFBEFF",
"8+	c #BABAFF",
"9+	c #AAAAFF",
"0+	c #E1E1FF",
"a+	c #DEDEFF",
"b+	c #D6D6FF",
"c+	c #D2D2FF",
"d+	c #CECEFF",
"e+	c #CACAFF",
"f+	c #C6C6FF",
"g+	c #C1C2FF",
"h+	c #BDBDFF",
"i+	c #B9B9FF",
"j+	c #B1B1FF",
"k+	c #E8E8FF",
"l+	c #E5E5FF",
"m+	c #DDDDFF",
"n+	c #D9D9FF",
"o+	c #D5D5FF",
"p+	c #D1D1FF",
"q+	c #CCCDFF",
"r+	c #C9C8FF",
"s+	c #C5C4FF",
"t+	c #BDBCFF",
"u+	c #EFEFFF",
"v+	c #ECECFF",
"w+	c #E4E4FF",
"x+	c #E0E0FF",
"y+	c #DCDCFF",
"z+	c #D8D8FF",
"A+	c #D4D4FF",
"B+	c #C3C4FF",
"C+	c #BBBBFF",
"D+	c #F6F6FF",
"E+	c #F3F3FF",
"F+	c #EBEBFF",
"G+	c #E7E7FF",
"H+	c #E3E3FF",
"I+	c #DFDFFF",
"J+	c #DBDBFF",
"K+	c #C7C6FF",
"L+	c #FDFDFF",
"M+	c #FAFAFF",
"N+	c #F2F2FF",
"O+	c #EEEEFF",
"P+	c #EAEAFF",
"Q+	c #E6E6FF",
"R+	c #E2E2FF",
"S+	c #D2D1FF",
"T+	c #C5C6FF",
"U+	c #FFFFFF",
"V+	c #F9F9FF",
"W+	c #F5F5FF",
"X+	c #F1F1FF",
"Y+	c #EDEDFF",
"Z+	c #E9E9FF",
"`+	c #D4D5FF",
" @	c #CDCCFF",
".@	c #C4C4FF",
"+@	c #FEFEFF",
"@@	c #FCFCFF",
"#@	c #F8F8FF",
"$@	c #F4F4FF",
"%@	c #F0F0FF",
"&@	c #FBFBFF",
"*@	c #F7F7FF",
"=@	c #D9DAFF",
"-@	c #FDFCFF",
"                                                                                                ",
"                              . + +                                                             ",
"                              @ # . + +                                                         ",
"                              $ % @ & + +                                                       ",
"                              * = $ - ; > + +                                                   ",
"                              , ' * ) ! ~ { . + +                                               ",
"                              ] ^ , / ( _ : @ < . + +                                           ",
"                              [ } ] | 1 2 3 4 % ; & + +                                         ",
"                              5 6 [ 7 8 9 0 a = $ - b > + +                                     ",
"                              c d 5 e f g h i ' * ) ! j # . + +                                 ",
"                              k l c m n o p q ^ , / ( r : s t . +                               ",
"                              u v k w x y z A } ] | 1 2 3 4 % ; &                               ",
"                              B C u D E F G H 6 [ 7 8 9 0 a = $ -                               ",
"                              I J B K L M N O d 5 e f g h i ' P )                               ",
"                              Q R I S T U V W l c m n o p q ^ , /                               ",
"                              X Y Q Z `  ...+.v k w x y z A } ] |                               ",
"                              @.#.X $.%.&.*.=.C u D E F G H 6 [ 7                               ",
"                              -.;.@.>.,.'.).!.J B K L M N O d 5 e                               ",
"                              ~.{.-.].^./.(._.R I S T U V W l c d                               ",
"                              :.<.~.[.}.|.1.2.Y Q Z `  ...+.v k l                               ",
"                              3.4.5.6.7.8.9.0.#.X $.%.&.*.=.C u D                               ",
"                              a.b.3.c.d.e.f.g.;.@.>.,.'.).!.J B C                               ",
"                              h.i.j.k.l.m.n.o.{.-.].^./.(._.R I J                               ",
"                              p.q.r.s.t.u.v.w.<.~.[.}.|.1.2.Y Q R                               ",
"                              x.y.z.A.B.C.D.E.4.5.6.7.8.9.0.#.X Y                               ",
"                              F.G.H.I.J.K.L.a.b.3.c.d.e.f.g.;.@.#.                              ",
"                              M.N.O.P.Q.R.S.h.i.j.k.l.m.n.o.{.-.;.                              ",
"                              T.U.V.W.X.Y.Z.p.q.r.s.t.u.v.w.<.~.{.                              ",
"                              `. +.+++@+#+$+x.y.z.A.B.C.D.E.4.5.<.                              ",
"                              %+&+`.*+=+-+;+>+G.H.I.J.K.L.a.b.3.4.                              ",
"                              ,+'+%+)+!+~+{+]+^+/+P.Q.R.S.h.i.j.b.                              ",
"                              (+_+,+:+<+[+!+}+|+V.#+X.Y.Z.p.q.r.i.                              ",
"                              1+2+(+3+4+5+6+7+8+.+-+@+9+$+x.y.z.q.                              ",
"                              0+a+1+b+c+d+e+f+g+h+i+=+j+;+F.G.H.y.                              ",
"                              k+l+0+m+n+o+p+q+r+s+[+t+~+U.M.^+/+G.                              ",
"                              u+v+k+w+x+y+z+A+_+4+5+B+[+C+T.|+V.^+                              ",
"                              D+E+u+F+G+H+I+J+2+(+3+4+K+&+`.8+.+|+                              ",
"                              L+M+D+N+O+P+Q+R+a+1+b+S+d+'+T+)+h+8+                              ",
"                                U+L+V+W+X+Y+Z+l+0+m+n+`+p+ @:+.@)+                              ",
"                                    +@@@#@$@%@v+k+w+x+J+2+A+_+4+:+                              ",
"                                        +@&@*@E+u+F+G+H+I+J+2+(+3+                              ",
"                                          U+L+M+D+N+O+P+Q+R+a+=@b+                              ",
"                                              U+-@V+W+X+Y+Z+l+0+m+                              ",
"                                                  +@@@#@$@%@v+k+w+                              ",
"                                                      +@&@*@E+u+F+                              ",
"                                                        U+L+M+D+N+                              ",
"                                                            U+@@V+                              ",
"                                                                                                "};
