/* XPM */
static char * panelYX_xpm[] = {
"48 48 388 2",
"  	c None",
". 	c #D4D4D8",
"+ 	c #FAFAFA",
"@ 	c #F5F5F5",
"# 	c #D7D7D7",
"$ 	c #E3E3F2",
"% 	c #F4F4FF",
"& 	c #F9F9FF",
"* 	c #FDFDFF",
"= 	c #FFFFFF",
"- 	c #EEEEEE",
"; 	c #CACAE7",
"> 	c #E5E4FF",
", 	c #E9E9FF",
"' 	c #EDEDFF",
") 	c #F2F2FF",
"! 	c #F6F6FF",
"~ 	c #FAFAFF",
"{ 	c #FEFEFF",
"] 	c #E4E4E4",
"^ 	c #B5B5DF",
"/ 	c #D1D1FB",
"( 	c #D9D9FF",
"_ 	c #DDDDFF",
": 	c #E1E2FF",
"< 	c #E6E6FF",
"[ 	c #EAEAFF",
"} 	c #EFEFFF",
"| 	c #F3F3FF",
"1 	c #F8F8FF",
"2 	c #FCFCFF",
"3 	c #FBFBFB",
"4 	c #DCDCDC",
"5 	c #9F9FD5",
"6 	c #BDBDF6",
"7 	c #C8C9FF",
"8 	c #CDCDFF",
"9 	c #D1D1FF",
"0 	c #D6D6FF",
"a 	c #DADAFF",
"b 	c #DFDFFF",
"c 	c #E3E3FF",
"d 	c #E7E7FF",
"e 	c #ECECFF",
"f 	c #F0F0FF",
"g 	c #F5F5FF",
"h 	c #F3F3F3",
"i 	c #D4D4D4",
"j 	c #A9A9F0",
"k 	c #B8B8FF",
"l 	c #BDBDFF",
"m 	c #C1C1FF",
"n 	c #C6C6FF",
"o 	c #CACAFF",
"p 	c #CFCFFF",
"q 	c #D3D3FF",
"r 	c #D7D7FF",
"s 	c #DCDCFF",
"t 	c #E0E0FF",
"u 	c #E5E5FF",
"v 	c #FBFAFF",
"w 	c #EBEBEB",
"x 	c #9292E5",
"y 	c #A8A8FF",
"z 	c #ADADFF",
"A 	c #B1B1FF",
"B 	c #B6B5FF",
"C 	c #BABAFF",
"D 	c #BEBEFF",
"E 	c #C3C3FF",
"F 	c #C7C7FF",
"G 	c #CCCCFF",
"H 	c #D0D0FF",
"I 	c #D4D5FF",
"J 	c #E2E2FF",
"K 	c #EAEBFF",
"L 	c #E1E1E1",
"M 	c #7F7FDD",
"N 	c #9494F8",
"O 	c #9D9DFF",
"P 	c #A1A1FF",
"Q 	c #A5A6FF",
"R 	c #AAAAFF",
"S 	c #AEAEFF",
"T 	c #B3B3FF",
"U 	c #B7B7FF",
"V 	c #BCBCFF",
"W 	c #C0C0FF",
"X 	c #C4C4FF",
"Y 	c #C9C9FF",
"Z 	c #D2D2FF",
"` 	c #E8E8FF",
" .	c #F0F1FF",
"..	c #F8F8F8",
"+.	c #DBDBDB",
"@.	c #8383F6",
"#.	c #8D8DFF",
"$.	c #9191FF",
"%.	c #9595FF",
"&.	c #9A9AFF",
"*.	c #9E9EFF",
"=.	c #A3A3FF",
"-.	c #A7A7FF",
";.	c #ABABFF",
">.	c #B0B0FF",
",.	c #B4B4FF",
"'.	c #B9B9FF",
").	c #C2C1FF",
"!.	c #D8D8FF",
"~.	c #EEEEFF",
"{.	c #F7F6FF",
"].	c #FBFBFF",
"^.	c #F2F2F2",
"/.	c #6F6FED",
"(.	c #7C7CFF",
"_.	c #8181FF",
":.	c #8585FF",
"<.	c #8A8AFF",
"[.	c #8E8EFF",
"}.	c #9393FF",
"|.	c #9797FF",
"1.	c #9B9BFF",
"2.	c #A0A0FF",
"3.	c #A4A4FF",
"4.	c #A9A9FF",
"5.	c #B6B6FF",
"6.	c #BFBFFF",
"7.	c #D5D5FF",
"8.	c #DEDEFF",
"9.	c #EBEBFF",
"0.	c #FAFAFD",
"a.	c #E9E9EA",
"b.	c #D8D8D8",
"c.	c #5B5BE2",
"d.	c #6C6CFE",
"e.	c #7171FF",
"f.	c #7575FF",
"g.	c #797AFF",
"h.	c #7E7EFF",
"i.	c #8282FF",
"j.	c #8787FF",
"k.	c #8B8BFF",
"l.	c #9090FF",
"m.	c #9494FF",
"n.	c #9999FF",
"o.	c #A6A6FF",
"p.	c #AFAEFF",
"q.	c #C5C5FF",
"r.	c #DBDBFF",
"s.	c #E3E4FF",
"t.	c #E1E1EF",
"u.	c #E3E3EC",
"v.	c #E3E3E8",
"w.	c #4A4ADA",
"x.	c #5A5AFA",
"y.	c #6161FF",
"z.	c #6565FF",
"A.	c #6969FF",
"B.	c #6E6EFF",
"C.	c #7272FF",
"D.	c #7777FF",
"E.	c #7B7BFF",
"F.	c #7F80FF",
"G.	c #8484FF",
"H.	c #8888FF",
"I.	c #9696FF",
"J.	c #ACACFF",
"K.	c #B4B5FF",
"L.	c #C2C2FF",
"M.	c #CBCBFF",
"N.	c #D8D8F6",
"O.	c #D1D1E9",
"P.	c #D7D7EB",
"Q.	c #4949F4",
"R.	c #5150FF",
"S.	c #5555FF",
"T.	c #5959FF",
"U.	c #5E5EFF",
"V.	c #6262FF",
"W.	c #6767FF",
"X.	c #6B6BFF",
"Y.	c #6F6FFF",
"Z.	c #7474FF",
"`.	c #7878FF",
" +	c #7D7DFF",
".+	c #8586FF",
"++	c #9C9CFF",
"@+	c #B2B2FF",
"#+	c #C8C8FF",
"$+	c #CBCBF8",
"%+	c #C2C2E9",
"&+	c #C7C7EA",
"*+	c #BCBCD7",
"=+	c #3737EB",
"-+	c #4040FF",
";+	c #4545FF",
">+	c #4949FF",
",+	c #4E4EFF",
"'+	c #5252FF",
")+	c #5656FF",
"!+	c #5B5BFF",
"~+	c #5F5FFF",
"{+	c #6464FF",
"]+	c #6868FF",
"^+	c #6D6DFF",
"/+	c #7A7AFF",
"(+	c #8383FF",
"_+	c #8C8BFF",
":+	c #A2A2FF",
"<+	c #AFAFFF",
"[+	c #B7B8FF",
"}+	c #B4B4E9",
"|+	c #BCBCEE",
"1+	c #B7B7E2",
"2+	c #2727E2",
"3+	c #3030FC",
"4+	c #3535FF",
"5+	c #3939FF",
"6+	c #3E3EFF",
"7+	c #4242FF",
"8+	c #4646FF",
"9+	c #4B4BFF",
"0+	c #4F4FFF",
"a+	c #5454FF",
"b+	c #5858FF",
"c+	c #5C5CFF",
"d+	c #6A6AFF",
"e+	c #7373FF",
"f+	c #8080FF",
"g+	c #8989FF",
"h+	c #9F9FFF",
"i+	c #AAAAF0",
"j+	c #A9A9E9",
"k+	c #AFAFEB",
"l+	c #1A1AD7",
"m+	c #201FF6",
"n+	c #2525FF",
"o+	c #2929FF",
"p+	c #2E2DFF",
"q+	c #3232FF",
"r+	c #3636FF",
"s+	c #3B3BFF",
"t+	c #3F3FFF",
"u+	c #4443FF",
"v+	c #4848FF",
"w+	c #4C4CFF",
"x+	c #5151FF",
"y+	c #5A5AFF",
"z+	c #7070FF",
"A+	c #7879FF",
"B+	c #8686FF",
"C+	c #8F8EFF",
"D+	c #9E9DF4",
"E+	c #9B9AE9",
"F+	c #A2A2EE",
"G+	c #1111F0",
"H+	c #1515FF",
"I+	c #1919FF",
"J+	c #1D1DFF",
"K+	c #2222FF",
"L+	c #2626FF",
"M+	c #2B2BFF",
"N+	c #2F2FFF",
"O+	c #3333FF",
"P+	c #3838FF",
"Q+	c #3C3CFF",
"R+	c #4141FF",
"S+	c #4A49FF",
"T+	c #5757FF",
"U+	c #6060FF",
"V+	c #7676FF",
"W+	c #8C8CFF",
"X+	c #9191F9",
"Y+	c #8C8CEA",
"Z+	c #9494F0",
"`+	c #8B8BDA",
" @	c #0707E7",
".@	c #0404FF",
"+@	c #0909FF",
"@@	c #0D0DFF",
"#@	c #1212FF",
"$@	c #1616FF",
"%@	c #1B1BFF",
"&@	c #1F1FFF",
"*@	c #2323FF",
"=@	c #2828FF",
"-@	c #2C2CFF",
";@	c #3131FF",
">@	c #4747FF",
",@	c #5D5DFF",
"'@	c #6666FF",
")@	c #7E7EEA",
"!@	c #8585F0",
"~@	c #8282E2",
"{@	c #0B0BD3",
"]@	c #0505ED",
"^@	c #0000FF",
"/@	c #0202FF",
"(@	c #0606FF",
"_@	c #0A0AFF",
":@	c #0F0FFF",
"<@	c #1313FF",
"[@	c #1818FF",
"}@	c #1C1CFF",
"|@	c #2021FF",
"1@	c #2E2EFF",
"2@	c #3637FF",
"3@	c #4444FF",
"4@	c #4D4DFF",
"5@	c #6363FF",
"6@	c #7272F1",
"7@	c #7373EA",
"8@	c #7878EC",
"9@	c #0505EE",
"0@	c #0606E9",
"a@	c #0303F4",
"b@	c #0303FF",
"c@	c #0708FF",
"d@	c #0C0CFF",
"e@	c #1011FF",
"f@	c #1E1EFF",
"g@	c #3434FF",
"h@	c #3D3CFF",
"i@	c #4A4AFF",
"j@	c #5353FF",
"k@	c #6666F8",
"l@	c #6464E9",
"m@	c #6969ED",
"n@	c #0909DB",
"o@	c #0101FB",
"p@	c #0101FF",
"q@	c #0505FF",
"r@	c #0E0EFF",
"s@	c #2424FF",
"t@	c #3A3AFF",
"u@	c #5050FF",
"v@	c #5858FC",
"w@	c #5555E9",
"x@	c #5959E9",
"y@	c #5959DD",
"z@	c #0808E1",
"A@	c #0505EB",
"B@	c #0B0BFF",
"C@	c #1413FF",
"D@	c #2121FF",
"E@	c #2A2AFF",
"F@	c #3737FF",
"G@	c #4849FF",
"H@	c #4747EB",
"I@	c #4B4BEC",
"J@	c #4E4EE5",
"K@	c #0606E8",
"L@	c #0404F1",
"M@	c #0808FF",
"N@	c #1111FF",
"O@	c #1A19FF",
"P@	c #2727FF",
"Q@	c #3030FF",
"R@	c #3A3AF1",
"S@	c #3C3CE9",
"T@	c #4141EE",
"U@	c #0B0BD4",
"V@	c #0606EB",
"W@	c #0303F6",
"X@	c #1717FF",
"Y@	c #2C2CF6",
"Z@	c #2E2EE9",
"`@	c #3232EE",
" #	c #3233D5",
".#	c #0909DC",
"+#	c #0101FC",
"@#	c #1414FF",
"##	c #1D1CFC",
"$#	c #2020E9",
"%#	c #2424EE",
"&#	c #2727DF",
"*#	c #0707E4",
"=#	c #0C0DFF",
"-#	c #1313EE",
";#	c #1616EC",
">#	c #1A1AE7",
",#	c #0404F2",
"'#	c #0504F4",
")#	c #0A0AEA",
"!#	c #0D0DEC",
"~#	c #0A0AD7",
"{#	c #0707E3",
"]#	c #0A0AD8",
"                                                                                                ",
"                                                                                                ",
"                                                                                                ",
"                                                                                                ",
"                                                                                                ",
"                                                                                                ",
"                                                                                                ",
"                                                                                                ",
"                                                                                                ",
"                                                                                                ",
"                                                            . + @ #                             ",
"                                                          $ % & * = -                           ",
"                                                      ; > , ' ) ! ~ { = ]                       ",
"                                                  ^ / ( _ : < [ } | 1 2 = 3 4                   ",
"                                              5 6 7 8 9 0 a b c d e f g & * = h i               ",
"                                            j k l m n o p q r s t u , ' ) ! v { = w             ",
"                                        x y z A B C D E F G H I ( _ J < K } | 1 2 = = L         ",
"                                    M N O P Q R S T U V W X Y 8 Z 0 a b c ` e  .g & * = ..+.    ",
"                                  @.#.$.%.&.*.=.-.;.>.,.'.l ).n o p q !.s t u , ~.) {.].{ = ^.  ",
"                              /.(._.:.<.[.}.|.1.2.3.4.z A 5.C 6.E F G H 7.( 8.J < 9.} % 1 0.a.b.",
"                          c.d.e.f.g.h.i.j.k.l.m.n.O P o.R p.T U V W q.Y 8 Z 0 r.b s.` e t.u.v.  ",
"                      w.x.y.z.A.B.C.D.E.F.G.H.#.$.I.&.*.=.-.J.>.K.'.l L.n M.p q !.s N.O.P.      ",
"                    Q.R.S.T.U.V.W.X.Y.Z.`. +_..+<.[.}.|.++2.3.4.z @+5.C 6.E #+G $+%+&+*+        ",
"                =+-+;+>+,+'+)+!+~+{+]+^+e.f./+h.(+j._+l.m.n.O :+o.R <+T [+V W }+|+1+            ",
"            2+3+4+5+6+7+8+9+0+a+b+c+y.z.d+B.e+D.E.f+G.g+#.$.I.&.h+=.y J.>.i+j+k+                ",
"        l+m+n+o+p+q+r+s+t+u+v+w+x+S.y+U.V.W.X.z+Z.A+ +_.B+<.C+}.|.++2.D+E+F+                    ",
"      G+H+I+J+K+L+M+N+O+P+Q+R+;+S+,+'+T+!+U+{+]+^+e.V+/+h.(+j.W+l.X+Y+Z+`+                      ",
"   @.@+@@@#@$@%@&@*@=@-@;@4+5+6+7+>@9+0+a+b+,@y.'@d+B.e+D.(.f+G.)@!@~@                          ",
"{@]@^@/@(@_@:@<@[@}@|@n+o+1@q+2@s+t+3@v+4@x+S.y+U.5@W.X.z+Z.6@7@8@                              ",
"  9@0@a@^@b@c@d@e@H+I+f@K+L+M+N+g@P+h@R+;+i@,+j@T+!+U+{+k@l@m@                                  ",
"    n@9@0@o@p@q@+@r@#@$@%@&@s@=@-@;@4+t@6+7+>@9+u@a+v@w@x@y@                                    ",
"        z@]@A@^@/@(@B@:@C@[@}@D@n+E@1@q+F@s+-+3@G@H@I@J@                                        ",
"            0@K@L@p@b@M@d@N@H+O@f@K+P@M+Q@g@P+R@S@T@                                            ",
"              U@V@0@W@p@q@+@r@#@X@%@&@s@=@Y@Z@`@ #                                              ",
"                  .#9@0@+#/@(@B@:@@#[@##$#%#&#                                                  ",
"                      *#]@]@p@.@M@=#-#;#>#                                                      ",
"                          0@0@,#'#)#!#                                                          ",
"                            ~#{#0@]#                                                            ",
"                                                                                                ",
"                                                                                                ",
"                                                                                                ",
"                                                                                                ",
"                                                                                                ",
"                                                                                                ",
"                                                                                                ",
"                                                                                                ",
"                                                                                                ",
"                                                                                                "};
