/* XPM */
static char * panelYZBetween_xpm[] = {
"48 48 524 2",
"  	c None",
". 	c #D2D2D2",
"+ 	c #DD0909",
"@ 	c #DE3030",
"# 	c #D5C9C9",
"$ 	c #E7E7EA",
"% 	c #D31313",
"& 	c #EB0D0D",
"* 	c #E80A0A",
"= 	c #F90303",
"- 	c #E7CBCB",
"; 	c #E9E9EC",
"> 	c #DDDDE8",
", 	c #D3D3E6",
"' 	c #EB1A1A",
") 	c #E71616",
"! 	c #F21212",
"~ 	c #FF0C0C",
"{ 	c #FF0707",
"] 	c #FBFBFF",
"^ 	c #F2F1FE",
"/ 	c #D4D4E8",
"( 	c #CCCBE7",
"_ 	c #BBBBDD",
": 	c #E32727",
"< 	c #E72323",
"[ 	c #EC2020",
"} 	c #FF1C1D",
"| 	c #FF1818",
"1 	c #FF1414",
"2 	c #FF0F0F",
"3 	c #F2F2FF",
"4 	c #E9E9FF",
"5 	c #DCDCFA",
"6 	c #C3C3E7",
"7 	c #BFBFEC",
"8 	c #A2A2D1",
"9 	c #DB3434",
"0 	c #EC3232",
"a 	c #E72E2E",
"b 	c #FF2D2D",
"c 	c #FF2929",
"d 	c #FF2424",
"e 	c #FF2020",
"f 	c #FF1B1B",
"g 	c #FF1717",
"h 	c #FAFBFF",
"i 	c #E0E0FF",
"j 	c #D7D7FF",
"k 	c #C3C3F1",
"l 	c #B3B3E8",
"m 	c #ADAEEA",
"n 	c #CE3E3E",
"o 	c #EB4141",
"p 	c #E83C3C",
"q 	c #F63C3C",
"r 	c #FF3939",
"s 	c #FF3535",
"t 	c #FF3030",
"u 	c #FF2C2C",
"v 	c #FF2828",
"w 	c #FF2323",
"x 	c #FF1F1E",
"y 	c #FAFAFF",
"z 	c #F1F1FF",
"A 	c #E9E8FF",
"B 	c #CECEFF",
"C 	c #C5C5FF",
"D 	c #AEAEEC",
"E 	c #A3A3E8",
"F 	c #9797E1",
"G 	c #E54F4F",
"H 	c #E84B4B",
"I 	c #F14A4A",
"J 	c #FF4A4A",
"K 	c #FF4545",
"L 	c #FF4141",
"M 	c #FF3D3D",
"N 	c #FF3838",
"O 	c #FF3434",
"P 	c #FF2F2F",
"Q 	c #FF2B2A",
"R 	c #FF2626",
"S 	c #E7CCCC",
"T 	c #E8E8FF",
"U 	c #DFDFFF",
"V 	c #D6D7FF",
"W 	c #BCBCFF",
"X 	c #B3B3FE",
"Y 	c #9A9AE8",
"Z 	c #9595EB",
"` 	c #8383DB",
" .	c #E15C5C",
"..	c #EB5B5B",
"+.	c #EC5858",
"@.	c #FF5A5A",
"#.	c #FF5656",
"$.	c #FF5252",
"%.	c #FF4D4D",
"&.	c #FF4949",
"*.	c #FF4444",
"=.	c #FF4040",
"-.	c #FF3B3B",
";.	c #FF3737",
">.	c #FF3232",
",.	c #FF2E2E",
"'.	c #D6D6FF",
").	c #CDCDFF",
"!.	c #B3B3FF",
"~.	c #AAAAFF",
"{.	c #9C9CF6",
"].	c #8A8AE8",
"^.	c #8484EB",
"/.	c #6E6DCE",
"(.	c #C46969",
"_.	c #EC6B6B",
":.	c #E76565",
"<.	c #FB6969",
"[.	c #FF6767",
"}.	c #FF6262",
"|.	c #FF5E5E",
"1.	c #FF5959",
"2.	c #FF5555",
"3.	c #FF5050",
"4.	c #FF4C4C",
"5.	c #FF4747",
"6.	c #FF4343",
"7.	c #FF3E3E",
"8.	c #FF3A3A",
"9.	c #FF3636",
"0.	c #C4C4FF",
"a.	c #A1A1FF",
"b.	c #9898FF",
"c.	c #8787F0",
"d.	c #7A7AE7",
"e.	c #7272E7",
"f.	c #CCCCCC",
"g.	c #E7E4E9",
"h.	c #D9A3A9",
"i.	c #F97474",
"j.	c #FF7373",
"k.	c #FF6E6E",
"l.	c #FF6A6A",
"m.	c #FF6565",
"n.	c #FF6161",
"o.	c #FF5C5C",
"p.	c #FF5858",
"q.	c #FF5353",
"r.	c #FF4F4F",
"s.	c #FF4B4B",
"t.	c #FF4646",
"u.	c #FF4242",
"v.	c #F9F9FF",
"w.	c #BBBBFF",
"x.	c #B2B2FF",
"y.	c #8F8FFF",
"z.	c #8686FF",
"A.	c #7373EB",
"B.	c #6A6AE8",
"C.	c #5F5FE1",
"D.	c #E7E7E7",
"E.	c #EAEAEF",
"F.	c #DADAE7",
"G.	c #DACCDF",
"H.	c #E58D98",
"I.	c #FF7676",
"J.	c #FF7171",
"K.	c #FF6D6D",
"L.	c #FF6968",
"M.	c #FF6464",
"N.	c #FF6060",
"O.	c #FF5B5B",
"P.	c #FF5757",
"Q.	c #FF4E4E",
"R.	c #E7CDCD",
"S.	c #F0F0FF",
"T.	c #E7E8FF",
"U.	c #DFDEFF",
"V.	c #A9A9FF",
"W.	c #7D7DFF",
"X.	c #7373FC",
"Y.	c #6161E7",
"Z.	c #5B5BEC",
"`.	c #4D4DD8",
" +	c #F0F1FF",
".+	c #D5D4EA",
"++	c #CACAE7",
"@+	c #CDB3D1",
"#+	c #ED797E",
"$+	c #FF7575",
"%+	c #FF7070",
"&+	c #FF6C6C",
"*+	c #FF6363",
"=+	c #FF5151",
"-+	c #E7E7FF",
";+	c #DEDEFF",
">+	c #A0A0FF",
",+	c #9797FF",
"'+	c #8F8EFF",
")+	c #7474FF",
"!+	c #6B6BFF",
"~+	c #5E5EF4",
"{+	c #5151E8",
"]+	c #4A4AEB",
"^+	c #DDDDFD",
"/+	c #C2C2E7",
"(+	c #BEBFED",
"_+	c #CF97B9",
":+	c #F37476",
"<+	c #FF6F6F",
"[+	c #FF6B6B",
"}+	c #FF6666",
"|+	c #FF5D5D",
"1+	c #FF5454",
"2+	c #E7CDCE",
"3+	c #D5D5FF",
"4+	c #CDCCFF",
"5+	c #8E8EFF",
"6+	c #8585FF",
"7+	c #7C7DFF",
"8+	c #6262FF",
"9+	c #5959FF",
"0+	c #4B4BEF",
"a+	c #4141E7",
"b+	c #3939E4",
"c+	c #E8E7FF",
"d+	c #C4C4F3",
"e+	c #B4ABE6",
"f+	c #D483A4",
"g+	c #FD7676",
"h+	c #FF7272",
"i+	c #FF6969",
"j+	c #E7CECE",
"k+	c #CCCCFF",
"l+	c #C3C3FF",
"m+	c #BBBAFF",
"n+	c #7C7CFF",
"o+	c #7473FF",
"p+	c #5050FF",
"q+	c #4747FF",
"r+	c #3939E9",
"s+	c #3232ED",
"t+	c #2929DE",
"u+	c #B1B1EF",
"v+	c #AA95DA",
"w+	c #DF768D",
"x+	c #FF7675",
"y+	c #FF6868",
"z+	c #E7CECF",
"A+	c #F8F8FF",
"B+	c #EFF0FF",
"C+	c #BABAFF",
"D+	c #B1B1FF",
"E+	c #A8A9FF",
"F+	c #7373FF",
"G+	c #6A6AFF",
"H+	c #3E3EFF",
"I+	c #3434F8",
"J+	c #2929E8",
"K+	c #2222EC",
"L+	c #1B1BD5",
"M+	c #F9F8FF",
"N+	c #B4B4FF",
"O+	c #9D9DEA",
"P+	c #9696EC",
"Q+	c #B083CA",
"R+	c #EB727C",
"S+	c #FF7474",
"T+	c #E7CFCF",
"U+	c #EFEFFF",
"V+	c #E6E6FF",
"W+	c #A8A8FF",
"X+	c #9F9FFF",
"Y+	c #9796FF",
"Z+	c #6161FF",
"`+	c #5859FF",
" @	c #3535FF",
".@	c #2C2CFF",
"+@	c #2323F4",
"@@	c #1A1AE7",
"#@	c #1414E6",
"$@	c #DEDFFF",
"%@	c #ABABFF",
"&@	c #9E9EF8",
"*@	c #8B8BE8",
"=@	c #8886EB",
"-@	c #BD75B7",
";@	c #F87372",
">@	c #E7CFD0",
",@	c #DDDDFF",
"'@	c #D4D4FF",
")@	c #9696FF",
"!@	c #8D8DFF",
"~@	c #5858FF",
"{@	c #4F4FFF",
"]@	c #2323FF",
"^@	c #1A1AFF",
"/@	c #1313EF",
"(@	c #0D0DE9",
"_@	c #0808E5",
":@	c #A2A2FF",
"<@	c #999AFF",
"[@	c #8A8AF3",
"}@	c #7B7CE7",
"|@	c #8575E2",
"1@	c #CE6E9F",
"2@	c #E5D0D0",
"3@	c #CBCBFF",
"4@	c #C2C2FF",
"5@	c #8484FF",
"6@	c #7B7BFF",
"7@	c #4646FF",
"8@	c #3D3DFF",
"9@	c #1111FF",
"0@	c #0808FE",
"a@	c #0808E3",
"b@	c #0D0DCC",
"c@	c #C4C5FF",
"d@	c #9A99FF",
"e@	c #9191FF",
"f@	c #8888FF",
"g@	c #7777EE",
"h@	c #6C6CE7",
"i@	c #8B8CE9",
"j@	c #D8D8EC",
"k@	c #B9B9FF",
"l@	c #B0B1FF",
"m@	c #7272FF",
"n@	c #3434FF",
"o@	c #2B2CFF",
"p@	c #0808FF",
"q@	c #0303F6",
"r@	c #0A0AD8",
"s@	c #D6D5FF",
"t@	c #ABAAFF",
"u@	c #9999FF",
"v@	c #7F7FFF",
"w@	c #7777FF",
"x@	c #6464E7",
"y@	c #5E5EEC",
"z@	c #D5D6F2",
"A@	c #B0B0FF",
"B@	c #A7A7FF",
"C@	c #9E9FFF",
"D@	c #6969FF",
"E@	c #6060FF",
"F@	c #2B2BFF",
"G@	c #2223FF",
"H@	c #1919FF",
"I@	c #BBBCFF",
"J@	c #6E6EFF",
"K@	c #6362F7",
"L@	c #5454E8",
"M@	c #5959EC",
"N@	c #9E9EE8",
"O@	c #D0D0FB",
"P@	c #9E9EFF",
"Q@	c #9596FF",
"R@	c #5757FF",
"S@	c #4F4EFF",
"T@	c #2222FF",
"U@	c #1110FF",
"V@	c #BCBBFF",
"W@	c #9090FF",
"X@	c #6665FF",
"Y@	c #5D5DFF",
"Z@	c #5050F2",
"`@	c #4545E8",
" #	c #5656E7",
".#	c #A3A3E7",
"+#	c #9595FF",
"@#	c #8C8CFF",
"##	c #8483FF",
"$#	c #4E4EFF",
"%#	c #4545FF",
"&#	c #1010FF",
"*#	c #0707FF",
"=#	c #E7E6FF",
"-#	c #7776FF",
";#	c #6565FF",
">#	c #5454FF",
",#	c #4B4CFF",
"'#	c #3F3EED",
")#	c #3636EC",
"!#	c #6363E8",
"~#	c #A4A3EC",
"{#	c #8383FF",
"]#	c #7A7AFF",
"^#	c #3C3CFF",
"/#	c #3433FF",
"(#	c #F7F8FF",
"_#	c #8788FF",
":#	c #4C4BFF",
"<#	c #4343FF",
"[#	c #3A3AFB",
"}#	c #2E2EE7",
"|#	c #2727EC",
"1#	c #7070E8",
"2#	c #9D9DF6",
"3#	c #7171FF",
"4#	c #6868FF",
"5#	c #3333FF",
"6#	c #2A2AFF",
"7#	c #2121FF",
"8#	c #F8F7FF",
"9#	c #7676FF",
"0#	c #5C5CFF",
"a#	c #4B4BFF",
"b#	c #3A3AFF",
"c#	c #3231FF",
"d#	c #2828F6",
"e#	c #1F1FE7",
"f#	c #7171E8",
"g#	c #9292FB",
"h#	c #5F5FFF",
"i#	c #5656FF",
"j#	c #1818FF",
"k#	c #0706FF",
"l#	c #E6E6E7",
"m#	c #F7F7FF",
"n#	c #DEDDFF",
"o#	c #8787FF",
"p#	c #3131FF",
"q#	c #2929FF",
"r#	c #2020FF",
"s#	c #1818F1",
"t#	c #1111E7",
"u#	c #3636EB",
"v#	c #7272E9",
"w#	c #8282FF",
"x#	c #4D4DFF",
"y#	c #0F0FFF",
"z#	c #0606FF",
"A#	c #C4C3FF",
"B#	c #9998FF",
"C#	c #6D6DFF",
"D#	c #1717FF",
"E#	c #0B0BE8",
"F#	c #0707E6",
"G#	c #4545C7",
"H#	c #7171EF",
"I#	c #4444FF",
"J#	c #3B3BFF",
"K#	c #DDDDE5",
"L#	c #5453FF",
"M#	c #4242FF",
"N#	c #0707E8",
"O#	c #0808E1",
"P#	c #5D5DD5",
"Q#	c #6464F8",
"R#	c #3232FF",
"S#	c #D6D6EE",
"T#	c #D4D5FF",
"U#	c #AAA9FF",
"V#	c #7E7EFF",
"W#	c #5353FF",
"X#	c #2828FF",
"Y#	c #0707E7",
"Z#	c #5252DE",
"`#	c #5555FD",
" $	c #B8B8D5",
".$	c #CECEF8",
"+$	c #393AFF",
"@$	c #4545E6",
"#$	c #0605FF",
"$$	c #B0B0DE",
"%$	c #C1C1FD",
"&$	c #6464FF",
"*$	c #3939FF",
"=$	c #0E0EFF",
"-$	c #3838F3",
";$	c #0505FF",
">$	c #A7A7E6",
",$	c #A0A1FF",
"'$	c #4A4AFF",
")$	c #1F20FF",
"!$	c #0506FF",
"~$	c #0607E7",
"{$	c #2A2AD7",
"]$	c #2828F8",
"^$	c #A0A0F2",
"/$	c #7575FF",
"($	c #3031FF",
"_$	c #1F1FFF",
":$	c #0706E7",
"<$	c #1E1EE1",
"[$	c #1717FC",
"}$	c #8787D8",
"|$	c #9393F8",
"1$	c #5B5BFF",
"2$	c #3130FF",
"3$	c #0606E7",
"4$	c #1010EC",
"5$	c #7D7DE1",
"6$	c #8585FD",
"7$	c #6C6DFF",
"8$	c #4141FF",
"9$	c #3030FF",
"0$	c #0E0ECE",
"a$	c #0606E9",
"b$	c #0C0CD0",
"c$	c #6C6CFF",
"d$	c #1616FF",
"e$	c #5E5ED0",
"f$	c #6767F4",
"g$	c #2727FF",
"h$	c #5554DB",
"i$	c #5959F9",
"j$	c #5352FF",
"k$	c #4849E1",
"l$	c #3838FF",
"m$	c #3D3DEF",
"n$	c #0D0EFF",
"o$	c #2F2ED1",
"p$	c #2E2EF5",
"q$	c #1F1EFF",
"r$	c #0D0DFF",
"s$	c #0504FF",
"t$	c #2323DD",
"u$	c #1E1EFA",
"v$	c #0404FF",
"w$	c #1616E7",
"x$	c #0808EF",
"y$	c #1010B5",
"                                                                                                ",
"                                  .                                                             ",
"                              + @ # $                                                           ",
"                          % & * = - ; > ,                                                       ",
"                        ' ) ! ~ { - ] ^ / ( _                                                   ",
"                    : < [ } | 1 2 - ] 3 4 5 6 7 8                                               ",
"                9 0 a b c d e f g - h 3 4 i j k l m                                             ",
"            n o p q r s t u v w x - y z A i j B C D E F                                         ",
"          G H I J K L M N O P Q R S y z T U V B C W X Y Z `                                     ",
"       ...+.@.#.$.%.&.*.=.-.;.>.,.S y z T U '.).C W !.~.{.].^./.                                ",
"  (._.:.<.[.}.|.1.2.3.4.5.6.7.8.9.S y z T U '.).0.W !.~.a.b.c.d.e.                              ",
"f.g.h.i.j.k.l.m.n.o.p.q.r.s.t.u.M S v.z T U '.).0.w.x.~.a.b.y.z.A.B.C.                          ",
"D.E.F.G.H.I.J.K.L.M.N.O.P.$.Q.&.K R.v.S.T.U.'.).0.w.x.V.a.b.y.z.W.X.Y.Z.`.                      ",
"D.v. +.+++@+#+$+%+&+[.*+|.@.2.=+%.R.v.S.-+;+'.).0.w.x.V.>+,+'+z.W.)+!+~+{+]+                    ",
"D.v.S.T ^+/+(+_+:+j.<+[+}+}.|+1.1+2+v.S.-+;+3+4+0.w.x.V.>+,+5+6+7+)+!+8+9+0+a+b+                ",
"D.v.S.c+U '.d+l e+f+g+h+k.i+m.N.o.j+v.S.-+;+3+k+l+m+x.V.>+,+5+6+n+o+!+8+9+p+q+r+s+t+            ",
"D.v.S.-+U '.B C u+E v+w+x+J.&+y+M.z+A+B+-+;+3+k+l+C+D+E+>+,+5+6+n+F+G+8+9+p+q+H+I+J+K+L+        ",
"D.M+S.-+U '.).C W N+O+P+Q+R+S+%+[+T+A+U+V+;+3+k+l+C+D+W+X+Y+5+6+n+F+G+Z+`+p+q+H+ @.@+@@@#@      ",
"D.A+S.-+$@'.).C W !.%@&@*@=@-@;@j.>@A+U+V+,@'@k+l+C+D+W+X+)@!@6+n+F+G+Z+~@{@q+H+ @.@]@^@/@(@_@  ",
"D.A+S.-+;+'.).C W !.%@:@<@[@}@|@1@2@A+U+V+,@'@3@4@C+D+W+X+)@!@5@6@F+G+Z+~@{@7@8@ @.@]@^@9@0@a@b@",
"D.A+B+-+;+'.).c@W !.%@:@d@e@f@g@h@i@j@U+V+,@'@3@4@k@l@W+X+)@!@5@6@m@G+Z+~@{@7@8@n@o@]@^@9@p@q@r@",
"D.A+U+-+;+s@).0.W !.t@:@u@e@f@v@w@x@y@Y z@,@'@3@4@k@A@B@C@)@!@5@6@m@D@E@~@{@7@8@n@F@G@H@9@p@q@r@",
"D.A+U+-+;+3+).0.I@!.~.:@u@e@f@v@w@J@K@L@M@N@O@3@4@k@A@B@P@Q@!@5@6@m@D@E@R@S@7@8@n@F@T@H@U@p@q@r@",
"D.A+U+-+;+3+).0.V@!.~.:@u@W@f@v@w@J@X@Y@Z@`@ #.#4@k@A@B@P@+#@###6@m@D@E@R@$#%#8@n@F@T@H@&#*#q@r@",
"D.A+U+=#;+3+).0.w.!.~.:@u@W@f@v@-#J@;#Y@>#,#'#)#!#~#A@B@P@+#@#{#]#m@D@E@R@$#%#^#/#F@T@H@&#*#q@r@",
"D.(#U+V+;+3+).0.w.!.~.a.u@W@_#v@-#J@;#Y@>#:#<#[#}#|#1#2#P@+#@#{#]#3#4#E@R@$#%#^#5#6#7#H@&#*#q@r@",
"D.8#U+V+;+3+k+0.w.!.~.a.u@W@f@v@9#J@;#0#>#a#<#b#c#d#e#J+f#g#@#{#]#3#4#h#i#$#%#^#5#6#7#j#&#k#q@r@",
"l#m#U+V+n#3+k+0.w.x.~.a.u@W@o#v@9#J@;#0#>#a#<#b#p#q#r#s#t#u#v#w#]#3#4#h#i#x#%#^#5#6#7#j#y#z#q@r@",
"l#m#U+V+,@3+k+A#w.x.~.a.B#W@o#v@9#C#;#0#>#a#<#b#p#q#r#D#y#E#F#G#H#3#4#h#i#x#I#J#5#6#7#j#y#z#q@r@",
"  K#U+V+,@3+k+l+w.x.~.a.b.W@o#v@9#C#;#0#L#a#M#b#p#q#r#D#y#z#N#O#  P#Q#h#i#x#I#J#R#6#7#j#y#z#q@r@",
"      S#,@T#k+l+w.x.U#a.b.W@o#V#9#C#;#0#W#a#M#b#p#X#r#D#y#z#Y#O#      Z#`#x#I#J#R#q#7#j#y#z#q@r@",
"         $.$k+l+w.x.V.a.b.W@o#V#9#C#;#0#W#a#M#+$p#X#r#D#y#z#Y#O#          @$I#J#R#q#r#D#y##$q@r@",
"            $$%$C+x.V.a.b.y.o#V#9#C#&$0#W#a#M#*$p#X#r#D#=$z#Y#O#              -$R#q#r#D#=$;$q@r@",
"                >$x.V.,$b.y.o#V#9#C#&$0#W#'$M#*$p#X#)$D#=$!$~$O#                {$]$r#D#=$;$q@r@",
"                    ^$>+b.y.o#V#/$C#&$0#W#'$M#*$($X#_$D#=$;$:$O#                    <$[$=$;$q@r@",
"                      }$|$y.o#V#/$C#&$1$W#'$M#*$2$X#_$D#=$;$3$O#                        4$;$q@r@",
"                          5$6$V#/$7$&$1$W#'$8$*$9$X#_$D#=$;$3$O#                          0$a$b$",
"                              A./$c$&$1$W#'$8$*$9$X#_$d$=$;$3$O#                                ",
"                                e$f$&$1$W#'$8$*$9$g$_$d$=$;$3$O#                                ",
"                                    h$i$j$'$8$*$9$g$_$d$=$;$3$O#                                ",
"                                        k$'$8$l$9$g$_$d$=$;$3$O#                                ",
"                                            m$l$9$g$_$d$n$;$3$O#                                ",
"                                              o$p$g$q$d$r$s$3$O#                                ",
"                                                  t$u$d$r$v$3$O#                                ",
"                                                      w$r$v$3$O#                                ",
"                                                          x$3$O#                                ",
"                                                            y$                                  ",
"                                                                                                "};
