/* XPM */
static char * panelSideRight_xpm[] = {
"48 48 647 2",
"  	c None",
". 	c #000000",
"+ 	c #C1C1C1",
"@ 	c #DEDEDE",
"# 	c #DFDFDF",
"$ 	c #D8D8D8",
"% 	c #D2CFCF",
"& 	c #E7E6E6",
"* 	c #E2E2E2",
"= 	c #FDFDFD",
"- 	c #F1F1F1",
"; 	c #C5BBBB",
"> 	c #E5DCDC",
", 	c #E3DCDC",
"' 	c #F4EFEF",
") 	c #FFFBFB",
"! 	c #FFFDFD",
"~ 	c #F1F0F0",
"{ 	c #E4D3D3",
"] 	c #E1D2D2",
"^ 	c #EFE0E0",
"/ 	c #FFF2F2",
"( 	c #FFF3F3",
"_ 	c #FFF5F5",
": 	c #FFF7F7",
"< 	c #F1EBEB",
"[ 	c #DCC3C3",
"} 	c #E7CFCF",
"| 	c #E4CDCE",
"1 	c #FFE8E8",
"2 	c #FFEAEA",
"3 	c #FFECEC",
"4 	c #FFEEEE",
"5 	c #FFEFEF",
"6 	c #FFF1F1",
"7 	c #F1E6E6",
"8 	c #CFAFAF",
"9 	c #E6C5C5",
"0 	c #E1C3C2",
"a 	c #FBDBDB",
"b 	c #FFE0E0",
"c 	c #FFE2E2",
"d 	c #FFE4E4",
"e 	c #FFE6E6",
"f 	c #FFEBEB",
"g 	c #F1E0E0",
"h 	c #BF9A9A",
"i 	c #E3BABA",
"j 	c #E3BCBC",
"k 	c #F3CBCB",
"l 	c #FFD7D7",
"m 	c #FFD9D9",
"n 	c #FFDBDA",
"o 	c #FFDCDC",
"p 	c #FFDEDE",
"q 	c #FFE6E5",
"r 	c #F1DADB",
"s 	c #DFAEAE",
"t 	c #E3B3B4",
"u 	c #ECBCBC",
"v 	c #FFCDCD",
"w 	c #FFCFCF",
"x 	c #FFD1D1",
"y 	c #FFD3D3",
"z 	c #FFD5D5",
"A 	c #FFD6D6",
"B 	c #FFD8D8",
"C 	c #FFDADA",
"D 	c #F1D5D5",
"E 	c #926C6C",
"F 	c #DEA8A8",
"G 	c #E4ADAD",
"H 	c #FEC3C3",
"I 	c #FFC6C6",
"J 	c #FFC7C7",
"K 	c #FFC9C9",
"L 	c #FFCBCB",
"M 	c #FFD0D1",
"N 	c #FFD2D2",
"O 	c #FFD4D4",
"P 	c #F1CFCF",
"Q 	c #CC9494",
"R 	c #DCA0A0",
"S 	c #FFBCBC",
"T 	c #FFBEBE",
"U 	c #FFC0C0",
"V 	c #FFC1C2",
"W 	c #FFC3C3",
"X 	c #FFC5C5",
"Y 	c #FFCCCD",
"Z 	c #FFCECE",
"` 	c #FFD0D0",
" .	c #F1CACA",
"..	c #CC8F8F",
"+.	c #DC9B9B",
"@.	c #FFB6B6",
"#.	c #FFB8B8",
"$.	c #FFBABA",
"%.	c #FFBDBD",
"&.	c #FFBFBF",
"*.	c #FFC1C1",
"=.	c #FFC6C7",
"-.	c #FFC8C8",
";.	c #FFCACA",
">.	c #FFCCCC",
",.	c #F1C4C4",
"'.	c #CC8A8A",
").	c #DC9696",
"!.	c #FFB0B0",
"~.	c #FFB2B2",
"{.	c #FFB4B4",
"].	c #FFB8B7",
"^.	c #FFB9B9",
"/.	c #FFBBBB",
"(.	c #FFC2C3",
"_.	c #FFC4C4",
":.	c #F1BFBF",
"<.	c #CC8686",
"[.	c #DC9191",
"}.	c #FFAAAA",
"|.	c #FFACAC",
"1.	c #FFAEAE",
"2.	c #FFB2B1",
"3.	c #FFB3B3",
"4.	c #FFB5B5",
"5.	c #FFB7B7",
"6.	c #FFC2C2",
"7.	c #F1B9B9",
"8.	c #CC8181",
"9.	c #DC8C8C",
"0.	c #FFA4A4",
"a.	c #FFA6A6",
"b.	c #FFA8A8",
"c.	c #FFAFAF",
"d.	c #FFB1B1",
"e.	c #F1B3B3",
"f.	c #CC7C7C",
"g.	c #DC8787",
"h.	c #FF9E9E",
"i.	c #FFA0A0",
"j.	c #FFA2A2",
"k.	c #FFA9A9",
"l.	c #FFABAB",
"m.	c #FFADAD",
"n.	c #F1AEAE",
"o.	c #CC7877",
"p.	c #DC8282",
"q.	c #FF9998",
"r.	c #FF9A9A",
"s.	c #FF9C9C",
"t.	c #FFA5A5",
"u.	c #FFA7A7",
"v.	c #F1A8A8",
"w.	c #CFCFCF",
"x.	c #C1C1C2",
"y.	c #CC7373",
"z.	c #DC7D7D",
"A.	c #FF9393",
"B.	c #FF9594",
"C.	c #FF9696",
"D.	c #FF9898",
"E.	c #FFA1A1",
"F.	c #FFA3A3",
"G.	c #FFABAA",
"H.	c #F1A3A3",
"I.	c #ECECEC",
"J.	c #FCFCFF",
"K.	c #F8F8FF",
"L.	c #DBDBE6",
"M.	c #CC6E6E",
"N.	c #DC7778",
"O.	c #FF8D8D",
"P.	c #FF8F8F",
"Q.	c #FF9090",
"R.	c #FF9292",
"S.	c #FF9494",
"T.	c #FF9B9B",
"U.	c #FF9D9D",
"V.	c #FF9F9F",
"W.	c #FFA4A5",
"X.	c #F19D9D",
"Y.	c #FEFFFF",
"Z.	c #FAFAFF",
"`.	c #F6F6FF",
" +	c #F1F1FF",
".+	c #ECECFF",
"++	c #E6E6FD",
"@+	c #C3C3DC",
"#+	c #CC6969",
"$+	c #DC7272",
"%+	c #FF8787",
"&+	c #FF8989",
"*+	c #FF8B8A",
"=+	c #FF8C8C",
"-+	c #FF8E8E",
";+	c #FF9797",
">+	c #FF9999",
",+	c #F19898",
"'+	c #D6D6D6",
")+	c #FBFBFC",
"!+	c #F3F3FF",
"~+	c #EFEFFF",
"{+	c #EAEAFF",
"]+	c #E5E5FF",
"^+	c #E1E1FF",
"/+	c #DCDCFF",
"(+	c #D0D0F7",
"_+	c #A8A8CD",
":+	c #CC6565",
"<+	c #DC6D6D",
"[+	c #FF8181",
"}+	c #FF8383",
"|+	c #FF8585",
"1+	c #FF8686",
"2+	c #FF8888",
"3+	c #FF8A8A",
"4+	c #FF9191",
"5+	c #FF9595",
"6+	c #F19292",
"7+	c #CDCDCD",
"8+	c #F3F3F3",
"9+	c #FEFEFF",
"0+	c #F6F5FF",
"a+	c #E8E8FF",
"b+	c #E3E3FF",
"c+	c #DEDEFF",
"d+	c #DADAFF",
"e+	c #D5D5FF",
"f+	c #D0D0FF",
"g+	c #CCCCFF",
"h+	c #B9B9ED",
"i+	c #9191C0",
"j+	c #CC6060",
"k+	c #DC6868",
"l+	c #FF7B7B",
"m+	c #FF7D7D",
"n+	c #FF7F7F",
"o+	c #FF8081",
"p+	c #FF8282",
"q+	c #FF8484",
"r+	c #FF8B8C",
"s+	c #F18C8C",
"t+	c #EBEBEB",
"u+	c #FFFFFF",
"v+	c #EFEEFF",
"w+	c #D7D7FF",
"x+	c #D3D3FF",
"y+	c #CECEFF",
"z+	c #C9C9FF",
"A+	c #C5C5FF",
"B+	c #C0C0FF",
"C+	c #BBBBFF",
"D+	c #A2A2E3",
"E+	c #CC5B5B",
"F+	c #DC6363",
"G+	c #FF7575",
"H+	c #FF7777",
"I+	c #FF7979",
"J+	c #FF7C7C",
"K+	c #FF7E7E",
"L+	c #FF8080",
"M+	c #FF8B8B",
"N+	c #F18787",
"O+	c #DCDCDC",
"P+	c #F5F5FF",
"Q+	c #E8E7FF",
"R+	c #C7C7FF",
"S+	c #C2C2FF",
"T+	c #BEBEFF",
"U+	c #B9B9FF",
"V+	c #B4B4FF",
"W+	c #B0B0FF",
"X+	c #A9A9FB",
"Y+	c #8D8CD9",
"Z+	c #CC5657",
"`+	c #DC5E5E",
" @	c #FF6F6F",
".@	c #FF7171",
"+@	c #FF7373",
"@@	c #FF7878",
"#@	c #FF7A7A",
"$@	c #F18181",
"%@	c #D3D3D3",
"&@	c #FAFAFA",
"*@	c #EEEEFF",
"=@	c #E0E0FF",
"-@	c #B7B7FF",
";@	c #B2B2FF",
">@	c #ADAEFF",
",@	c #A9A9FF",
"'@	c #A4A4FF",
")@	c #A0A0FF",
"!@	c #9494F4",
"~@	c #7676CB",
"{@	c #CC5252",
"]@	c #DC5959",
"^@	c #FF6969",
"/@	c #FF6B6B",
"(@	c #FF6D6D",
"_@	c #FF7272",
":@	c #FF7474",
"<@	c #FF7676",
"[@	c #F17C7C",
"}@	c #C4C4C4",
"|@	c #F0F0F0",
"1@	c #E7E7FF",
"2@	c #D9D9FF",
"3@	c #ABABFF",
"4@	c #A6A6FF",
"5@	c #A2A2FF",
"6@	c #9D9DFF",
"7@	c #9999FF",
"8@	c #9494FF",
"9@	c #8F8FFF",
"0@	c #8080ED",
"a@	c #C94C4C",
"b@	c #DC5454",
"c@	c #FF6363",
"d@	c #FF6565",
"e@	c #FF6767",
"f@	c #FF6E6E",
"g@	c #FF7070",
"h@	c #FF7A79",
"i@	c #F17676",
"j@	c #B9B9B9",
"k@	c #F7F7FF",
"l@	c #E9EAFF",
"m@	c #D2D2FF",
"n@	c #C4C4FF",
"o@	c #ADADFF",
"p@	c #9F9FFF",
"q@	c #9B9BFF",
"r@	c #9696FF",
"s@	c #9291FF",
"t@	c #8D8DFF",
"u@	c #8888FF",
"v@	c #8484FF",
"w@	c #7F7FFF",
"x@	c #AF5BA3",
"y@	c #DC4F4F",
"z@	c #FF5E5E",
"A@	c #FF5F5F",
"B@	c #FF6161",
"C@	c #FF6A6A",
"D@	c #FF6C6C",
"E@	c #FF7374",
"F@	c #F17171",
"G@	c #E6E6E7",
"H@	c #DDDDE2",
"I@	c #E8E8F2",
"J@	c #F0F1FF",
"K@	c #CBCBFF",
"L@	c #BDBEFF",
"M@	c #AFB0FF",
"N@	c #9899FF",
"O@	c #8B8BFF",
"P@	c #8686FF",
"Q@	c #8181FF",
"R@	c #7D7DFF",
"S@	c #7878FF",
"T@	c #B05CB1",
"U@	c #DC4A4A",
"V@	c #FF5858",
"W@	c #FF5959",
"X@	c #FF5B5B",
"Y@	c #FF5D5D",
"Z@	c #FF6564",
"`@	c #FF6666",
" #	c #FF6868",
".#	c #F16B6B",
"+#	c #C8C8D2",
"@#	c #D9D9E8",
"##	c #CECEE1",
"$#	c #E2E2FC",
"%#	c #DBDCFF",
"&#	c #B6B6FF",
"*#	c #9191FF",
"=#	c #8483FF",
"-#	c #7A7AFF",
";#	c #7676FF",
">#	c #7171FF",
",#	c #AE56B0",
"'#	c #DC4545",
")#	c #FF5252",
"!#	c #FF5454",
"~#	c #FF5555",
"{#	c #FF5757",
"]#	c #FF6060",
"^#	c #FF6262",
"/#	c #FF6464",
"(#	c #FF696A",
"_#	c #F16565",
":#	c #C3C3DB",
"<#	c #C7C7E6",
"[#	c #C4C4E6",
"}#	c #D4D4FF",
"|#	c #BDBDFF",
"1#	c #AFAFFF",
"2#	c #A1A2FF",
"3#	c #9898FF",
"4#	c #8A8AFF",
"5#	c #7D7CFF",
"6#	c #7373FF",
"7#	c #6F6FFF",
"8#	c #6A6AFF",
"9#	c #AD50AF",
"0#	c #DC4040",
"a#	c #FF4C4C",
"b#	c #FF4E4E",
"c#	c #FF5050",
"d#	c #FF5151",
"e#	c #FF5353",
"f#	c #FF5A5B",
"g#	c #FF5C5C",
"h#	c #F16060",
"i#	c #B9BAE1",
"j#	c #B4B4E0",
"k#	c #BCBCEE",
"l#	c #A8A8FF",
"m#	c #9A9BFF",
"n#	c #8383FF",
"o#	c #7575FF",
"p#	c #6C6CFF",
"q#	c #6868FF",
"r#	c #6363FF",
"s#	c #AB4AAE",
"t#	c #DC3B3B",
"u#	c #FF4646",
"v#	c #FF4848",
"w#	c #FF4A4A",
"x#	c #FF4B4C",
"y#	c #FF4D4D",
"z#	c #FF4F4F",
"A#	c #FF5656",
"B#	c #FF5A5A",
"C#	c #F15A5A",
"D#	c #9C9CC7",
"E#	c #AEAEE5",
"F#	c #A7A7E1",
"G#	c #B2B2F6",
"H#	c #A1A1FF",
"I#	c #9493FF",
"J#	c #7C7CFF",
"K#	c #6E6EFF",
"L#	c #6565FF",
"M#	c #6161FF",
"N#	c #5C5CFF",
"O#	c #AA45AE",
"P#	c #DC3636",
"Q#	c #FF4040",
"R#	c #FF4242",
"S#	c #FF4444",
"T#	c #FF4545",
"U#	c #FF4747",
"V#	c #FF4949",
"W#	c #FF4B4B",
"X#	c #F15555",
"Y#	c #9797D3",
"Z#	c #A0A0E7",
"`#	c #9999E1",
" $	c #A6A6FC",
".$	c #9A9AFF",
"+$	c #8C8CFF",
"@$	c #7F7EFF",
"#$	c #6767FF",
"$$	c #5E5EFF",
"%$	c #5A5AFF",
"&$	c #5555FF",
"*$	c #A93FAD",
"=$	c #DC3132",
"-$	c #FF3A3A",
";$	c #FF3C3C",
">$	c #FF3E3E",
",$	c #FF4141",
"'$	c #FF4343",
")$	c #F14F4F",
"!$	c #9292E0",
"~$	c #9090E5",
"{$	c #8E8FE8",
"]$	c #9393FF",
"^$	c #8585FF",
"/$	c #7778FF",
"($	c #6060FF",
"_$	c #5757FF",
":$	c #5252FF",
"<$	c #4E4EFF",
"[$	c #A839AD",
"}$	c #DC2D2D",
"|$	c #FF3434",
"1$	c #FF3636",
"2$	c #FF3838",
"3$	c #FF3D3D",
"4$	c #FF3F3F",
"5$	c #F1494A",
"6$	c #8686E4",
"7$	c #7F7FE0",
"8$	c #8484F0",
"9$	c #7E7EFF",
"0$	c #5959FF",
"a$	c #5050FF",
"b$	c #4B4CFF",
"c$	c #4747FF",
"d$	c #A734AC",
"e$	c #DC2828",
"f$	c #FF2E2E",
"g$	c #FF3030",
"h$	c #FF3232",
"i$	c #FF3837",
"j$	c #FF3939",
"k$	c #FF3B3B",
"l$	c #F14444",
"m$	c #6E6EC9",
"n$	c #7878E6",
"o$	c #7272E2",
"p$	c #7979F9",
"q$	c #7777FF",
"r$	c #4949FF",
"s$	c #4444FF",
"t$	c #4040FF",
"u$	c #A62EAC",
"v$	c #DC2323",
"w$	c #FF2828",
"x$	c #FF2A2A",
"y$	c #FF2C2C",
"z$	c #FF3333",
"A$	c #FF3535",
"B$	c #FF3737",
"C$	c #FF3F3E",
"D$	c #F13F3F",
"E$	c #6666D5",
"F$	c #6868E4",
"G$	c #6464E2",
"H$	c #6262FF",
"I$	c #5554FF",
"J$	c #4B4BFF",
"K$	c #4242FF",
"L$	c #3D3DFF",
"M$	c #3939FF",
"N$	c #A529AC",
"O$	c #DC1F1F",
"P$	c #FF2323",
"Q$	c #FF2424",
"R$	c #FF2626",
"S$	c #FF2F2F",
"T$	c #FF3131",
"U$	c #EF3839",
"V$	c #5E5EE1",
"W$	c #5959E2",
"X$	c #5757E7",
"Y$	c #5C5BFF",
"Z$	c #3B3BFF",
"`$	c #3636FF",
" %	c #3232FF",
".%	c #A423AB",
"+%	c #DC1A1A",
"@%	c #FF1D1D",
"#%	c #FF1E1E",
"$%	c #FF2020",
"%%	c #FF2222",
"&%	c #FF2B2B",
"*%	c #FF2D2D",
"=%	c #FE3333",
"-%	c #DA2F2F",
";%	c #5151E7",
">%	c #4B4BE2",
",%	c #4C4CF1",
"'%	c #3434FF",
")%	c #2F2FFF",
"!%	c #2B2BFF",
"~%	c #A41EAB",
"{%	c #DC1616",
"]%	c #FF1717",
"^%	c #FF1919",
"/%	c #FF1A1A",
"(%	c #FF1C1C",
"_%	c #FF2625",
":%	c #FF2727",
"<%	c #FF2929",
"[%	c #E82829",
"}%	c #4040CF",
"|%	c #4242E8",
"1%	c #3C3CE0",
"2%	c #3E3EF9",
"3%	c #2D2DFF",
"4%	c #2828FF",
"5%	c #2424FF",
"6%	c #A319AB",
"7%	c #DC1212",
"8%	c #FF1111",
"9%	c #FF1313",
"0%	c #FF1515",
"a%	c #FF1616",
"b%	c #FF1818",
"c%	c #FF201F",
"d%	c #F12121",
"e%	c #C12020",
"f%	c #3636DB",
"g%	c #3333E6",
"h%	c #2F30E4",
"i%	c #2626FF",
"j%	c #2121FF",
"k%	c #1D1DFF",
"l%	c #A314AB",
"m%	c #DC0F0F",
"n%	c #FF0B0B",
"o%	c #FF0D0D",
"p%	c #FF0F0F",
"q%	c #FF1212",
"r%	c #FF1414",
"s%	c #F71818",
"t%	c #D51A1A",
"u%	c #2929E0",
"v%	c #2525E2",
"w%	c #2222EB",
"x%	c #1F1FFF",
"y%	c #1A1AFF",
"z%	c #1616FF",
"A%	c #A310AB",
"B%	c #DC0C0B",
"C%	c #FF0505",
"D%	c #FF0707",
"E%	c #FF0909",
"F%	c #FF0C0C",
"G%	c #FF0E0E",
"H%	c #DD1314",
"I%	c #1E1EC4",
"J%	c #1C1CE5",
"K%	c #1818E2",
"L%	c #1414F3",
"M%	c #0F0FFF",
"N%	c #A20CAB",
"O%	c #DC0909",
"P%	c #FF0000",
"Q%	c #FF0101",
"R%	c #FF0303",
"S%	c #EB0B0B",
"T%	c #1515D2",
"U%	c #0F0FE8",
"V%	c #0E0EE0",
"W%	c #A20BA2",
"X%	c #F30303",
"Y%	c #C80E0E",
"Z%	c #0B0BDC",
"`%	c #A20A9E",
" &	c #FA0101",
".&	c #D70A0A",
"+&	c #B61010",
"      . . . . . . .                                                                             ",
"      . . . . . . . . .                           .                                           + ",
"      . . . . . . . . . . .                     . .                                       @ # $ ",
"        . . . . . . . . . . . . .               . .                                   % & * = - ",
"            . . . . . . . . . . . . .         . . . .                             ; > , ' ) ! ~ ",
"                . . . . . . . . . . . . .     . . . .                           { ] ^ / ( _ : < ",
"                    . . . . . . . . . . . . . . . . .                       [ } | 1 2 3 4 5 6 7 ",
"                        . . . . . . . . . . . . . . . .                 8 9 0 a b c d e 1 2 f g ",
"                            . . . . . . . . . . . . . .             h i j k l m n o p b c d q r ",
"                                  . . . . . . . . . . . .         s t u v w x y z A B C o p b D ",
"                                      . . . . . . . . . .     E F G H I J K L v w M N O A B C P ",
"                                        . . . . . . . . .     Q R S T U V W X J K L Y Z ` N O  .",
"                                        . . . . . . . . . .   ..+.@.#.$.S %.&.*.W X =.-.;.>.Z ,.",
"                                      . . . . . . . . .       '.).!.~.{.@.].^./.%.&.*.(._.I -.:.",
"                                      . . . . . .             <.[.}.|.1.!.2.3.4.5.^./.%.T U 6.7.",
"                                    . . . . .                 8.9.0.a.b.}.|.1.c.d.3.4.5.^.$.S e.",
"                                    . .                       f.g.h.i.j.0.a.b.k.l.m.c.d.3.{.@.n.",
"                                                              o.p.q.r.s.h.i.j.0.t.u.k.l.m.c.!.v.",
"                              w.x.                            y.z.A.B.C.D.r.s.h.i.E.F.t.u.k.G.H.",
"                            I.J.K.L.                          M.N.O.P.Q.R.S.C.D.r.T.U.V.E.F.W.X.",
"                        @ Y.Z.`. +.+++@+                      #+$+%+&+*+=+-+Q.R.S.C.;+>+T.U.V.,+",
"                    '+)+J.K.!+~+{+]+^+/+(+_+                  :+<+[+}+|+1+2+3+=+-+Q.4+A.5+;+>+6+",
"                7+8+9+Z.0+ +.+a+b+c+d+e+f+g+h+i+              j+k+l+m+n+o+p+q+1+2+3+r+O.P.4+A.s+",
"              t+u+J.K.!+v+{+]+^+/+w+x+y+z+A+B+C+D+            E+F+G+H+I+l+J+K+L+p+q+1+%+&+M+O.N+",
"          O+u+9+Z.P+ +.+Q+b+c+d+e+f+g+R+S+T+U+V+W+X+Y+        Z+`+ @.@+@G+H+@@#@J+K+L+p+}+|+%+$@",
"      %@&@u+J.K.!+*@{+]+=@/+w+x+y+z+A+B+C+-@;@>@,@'@)@!@~@    {@]@^@/@(@ @.@_@:@<@@@#@J+K+n+[+[@",
"  }@|@u+9+Z.P+ +.+1@b+c+2@e+f+g+R+S+T+U+V+W+3@4@5@6@7@8@9@0@  a@b@c@d@e@^@/@(@f@g@_@:@<@@@h@l+i@",
"j@t+u+J.k@!+*@l@]+=@/+w+m@y+z+n@B+C+-@;@o@,@'@p@q@r@s@t@u@v@w@x@y@z@A@B@c@d@e@^@C@D@f@g@_@E@G+F@",
"  G@H@I@J@.+1@b+c+2@e+f+K@R+S+L@U+V+M@3@4@5@6@N@8@9@O@P@Q@R@S@T@U@V@W@X@Y@A@B@c@Z@`@ #C@D@f@ @.#",
"    +#@###$#=@%#w+m@y+z+n@B+C+&#;@o@,@'@p@q@r@*#t@u@=#w@-#;#>#,#'#)#!#~#{#W@X@Y@A@]#^#/#`@ #(#_#",
"        :#<#[#}#f+K@R+S+|#U+V+1#3@4@2#6@3#8@9@4#P@Q@5#S@6#7#8#9#0#a#b#c#d#e#~#{#W@f#g#z@]#^#/#h#",
"            i#j#k#n@B+C+&#;@o@l#'@p@m#r@*#t@u@n#w@-#o#>#p#q#r#s#t#u#v#w#x#y#z#d#e#~#A#V@B#g#z@C#",
"              D#E#F#G#V+1#3@4@H#6@3#I#9@4#P@Q@J#S@6#K#8#L#M#N#O#P#Q#R#S#T#U#V#W#y#z#d#)#!#A#V@X#",
"                  Y#Z#`# $'@p@.$r@*#+$u@n#@$-#o#>#p##$r#$$%$&$*$=$-$;$>$Q#,$'$T#U#V#W#a#b#c#)#)$",
"                      !$~${$3#]$9@4#^$Q@J#/$6#K#8#L#($N#_$:$<$[$}$|$1$2$-$;$3$4$,$'$T#U#v#w#a#5$",
"                          6$7$8$u@n#9$-#o#>#p##$r#$$0$&$a$b$c$d$e$f$g$h$|$1$i$j$k$3$4$,$R#S#u#l$",
"                            m$n$o$p$q$6#K#8#L#($N#_$:$<$r$s$t$u$v$w$x$y$f$g$h$z$A$B$j$k$3$C$Q#D$",
"                                E$F$G$p##$H$$$0$I$a$J$c$K$L$M$N$O$P$Q$R$w$x$y$f$S$T$z$A$B$j$-$U$",
"                                    V$W$X$Y$_$:$<$r$s$t$Z$`$ %.%+%@%#%$%%%Q$R$w$x$&%*%S$T$=%-%  ",
"                                        ;%>%,%J$c$K$L$M$'%)%!%~%{%]%^%/%(%#%$%%%Q$_%:%<%[%      ",
"                                          }%|%1%2%Z$`$ %3%4%5%6%7%8%9%0%a%b%/%(%#%c%d%e%        ",
"                                              f%g%h%)%!%i%j%k%l%m%n%o%p%8%q%r%a%s%t%            ",
"                                                  u%v%w%x%y%z%A%B%C%D%E%n%F%G%H%                ",
"                                                    I%J%K%L%M%N%O%P%Q%R%C%S%                    ",
"                                                        T%U%V%W%O%P%P%X%Y%                      ",
"                                                            Z%`%O% &.&                          ",
"                                                                +&                              ",
"                                                                                                "};
