/* XPM */
static char * panel2frame_xpm[] = {
"48 48 337 2",
"  	c None",
". 	c #422BAB",
"+ 	c #3723C9",
"@ 	c #2618CE",
"# 	c #2E1DDA",
"$ 	c #0000FF",
"% 	c #0000FD",
"& 	c #0A0ADB",
"* 	c #0202F8",
"= 	c #0C0CD1",
"- 	c #2B1EBF",
"; 	c #0404F2",
"> 	c #0404F0",
", 	c #0E0EC2",
"' 	c #3324DA",
") 	c #0707EF",
"! 	c #0808E0",
"~ 	c #0202F9",
"{ 	c #0707E6",
"] 	c #382CDA",
"^ 	c #0D0DFF",
"/ 	c #0707E5",
"( 	c #0000FE",
"_ 	c #0909DB",
": 	c #3F34DA",
"< 	c #1B1BFF",
"[ 	c #0202FF",
"} 	c #0101FC",
"| 	c #0808E1",
"1 	c #0505EC",
"2 	c #0202F6",
"3 	c #0C0CD0",
"4 	c #483EDA",
"5 	c #2828FF",
"6 	c #0B0BFF",
"7 	c #0303F6",
"8 	c #0505EE",
"9 	c #0F0FC0",
"0 	c #5149DA",
"a 	c #3636FF",
"b 	c #1919FF",
"c 	c #0101FA",
"d 	c #0808E2",
"e 	c #5A54DA",
"f 	c #4444FF",
"g 	c #2727FF",
"h 	c #0A0AFF",
"i 	c #0707E4",
"j 	c #0A0AD7",
"k 	c #655FDA",
"l 	c #5252FF",
"m 	c #3435FF",
"n 	c #1818FF",
"o 	c #0101FF",
"p 	c #0303F4",
"q 	c #3E3EB4",
"r 	c #6F6ADA",
"s 	c #6060FF",
"t 	c #4242FF",
"u 	c #2525FF",
"v 	c #0809FF",
"w 	c #0303F3",
"x 	c #0101F7",
"y 	c #989EDD",
"z 	c #EFF2EF",
"A 	c #7A76DA",
"B 	c #6E6EFF",
"C 	c #5050FF",
"D 	c #3333FF",
"E 	c #1616FF",
"F 	c #0101FD",
"G 	c #0100FD",
"H 	c #697FD8",
"I 	c #C5E3CD",
"J 	c #E2FFE2",
"K 	c #E4FFE4",
"L 	c #D3ECD3",
"M 	c #8581DA",
"N 	c #7C7CFF",
"O 	c #5E5EFF",
"P 	c #4141FF",
"Q 	c #2424FF",
"R 	c #0707FF",
"S 	c #0808E3",
"T 	c #3B57E0",
"U 	c #97CEB5",
"V 	c #C1FEC1",
"W 	c #C4FFC4",
"X 	c #C6FFC6",
"Y 	c #C8FFC8",
"Z 	c #CAFFCA",
"` 	c #A0CDA0",
" .	c #918DDA",
"..	c #8A8AFF",
"+.	c #6C6CFF",
"@.	c #4F4FFF",
"#.	c #3231FF",
"$.	c #1515FF",
"%.	c #0909DE",
"&.	c #67ADAE",
"*.	c #9DF99D",
"=.	c #A3FFA3",
"-.	c #A5FFA5",
";.	c #A7FFA7",
">.	c #A9FFA9",
",.	c #ABFFAB",
"'.	c #ADFFAD",
").	c #A8F6A8",
"!.	c #9C99DA",
"~.	c #9898FF",
"{.	c #7A7AFF",
"].	c #5D5DFF",
"^.	c #3F3FFF",
"/.	c #2222FF",
"(.	c #0606FF",
"_.	c #55A4B5",
":.	c #85FF85",
"<.	c #87FF87",
"[.	c #89FF89",
"}.	c #8BFF8B",
"|.	c #8DFF8D",
"1.	c #8FFF8F",
"2.	c #91FF91",
"3.	c #93FF93",
"4.	c #7CD97C",
"5.	c #A8A5DA",
"6.	c #A6A6FF",
"7.	c #8888FF",
"8.	c #6B6BFF",
"9.	c #4D4DFF",
"0.	c #3030FF",
"a.	c #1313FF",
"b.	c #0C22F3",
"c.	c #5FE570",
"d.	c #6AFF6A",
"e.	c #6CFF6C",
"f.	c #6EFF6E",
"g.	c #70FF71",
"h.	c #73FF72",
"i.	c #74FF75",
"j.	c #76FF77",
"k.	c #77FC77",
"l.	c #B3B1DA",
"m.	c #B4B4FF",
"n.	c #9696FF",
"o.	c #7979FF",
"p.	c #5B5BFF",
"q.	c #3E3EFF",
"r.	c #2121FF",
"s.	c #0505FF",
"t.	c #2882C4",
"u.	c #4EFF4E",
"v.	c #50FF50",
"w.	c #52FF52",
"x.	c #54FF54",
"y.	c #56FF56",
"z.	c #58FF58",
"A.	c #5AFF5A",
"B.	c #5CFF5C",
"C.	c #52E452",
"D.	c #BFBCDA",
"E.	c #C2C2FF",
"F.	c #A4A4FF",
"G.	c #8787FF",
"H.	c #6969FF",
"I.	c #4C4CFF",
"J.	c #2E2EFF",
"K.	c #1212FF",
"L.	c #2BD06D",
"M.	c #34FF34",
"N.	c #36FF36",
"O.	c #38FF38",
"P.	c #3AFF3A",
"Q.	c #3CFF3C",
"R.	c #3EFF3E",
"S.	c #40FF40",
"T.	c #42FF42",
"U.	c #30BF30",
"V.	c #CBC8DA",
"W.	c #D0D0FF",
"X.	c #B2B2FF",
"Y.	c #9595FF",
"Z.	c #7777FF",
"`.	c #5A5AFF",
" +	c #3C3CFF",
".+	c #1F1FFF",
"++	c #0404FF",
"@+	c #0B60D8",
"#+	c #18FA18",
"$+	c #1AFF1A",
"%+	c #1CFF1C",
"&+	c #1EFF1E",
"*+	c #20FF20",
"=+	c #22FF22",
"-+	c #24FF24",
";+	c #26FF26",
">+	c #25EF25",
",+	c #D6D4DA",
"'+	c #DEDEFF",
")+	c #C0C0FF",
"!+	c #A3A3FF",
"~+	c #8585FF",
"{+	c #6868FF",
"]+	c #4A4AFF",
"^+	c #2D2DFF",
"/+	c #1010FF",
"(+	c #09B88E",
"_+	c #02FF02",
":+	c #03FF03",
"<+	c #04FF04",
"[+	c #05FF05",
"}+	c #06FF06",
"|+	c #08FF08",
"1+	c #0AFF0A",
"2+	c #0CFF0C",
"3+	c #11CF11",
"4+	c #DCDADA",
"5+	c #ECECFF",
"6+	c #CECEFF",
"7+	c #B1B1FF",
"8+	c #9393FF",
"9+	c #7676FF",
"0+	c #5858FF",
"a+	c #3B3BFF",
"b+	c #1E1EFF",
"c+	c #0303FF",
"d+	c #052BEB",
"e+	c #04F11E",
"f+	c #00FF00",
"g+	c #02F802",
"h+	c #DDDBDA",
"i+	c #F8F8FF",
"j+	c #DCDCFF",
"k+	c #BFBFFF",
"l+	c #A1A1FF",
"m+	c #8484FF",
"n+	c #6666FF",
"o+	c #4949FF",
"p+	c #2B2BFF",
"q+	c #0F0FFF",
"r+	c #0897B3",
"s+	c #09DB09",
"t+	c #E2E2E3",
"u+	c #EBEBFF",
"v+	c #CDCDFF",
"w+	c #AFAFFF",
"x+	c #9292FF",
"y+	c #7474FF",
"z+	c #5757FF",
"A+	c #3939FF",
"B+	c #1C1CFF",
"C+	c #0305F6",
"D+	c #06E04F",
"E+	c #00FE00",
"F+	c #B3B3BF",
"G+	c #CBCBEF",
"H+	c #BDBDFF",
"I+	c #A0A0FF",
"J+	c #8282FF",
"K+	c #6565FF",
"L+	c #4747FF",
"M+	c #2A2AFF",
"N+	c #0874CA",
"O+	c #06E706",
"P+	c #A0A0D0",
"Q+	c #A7A7F7",
"R+	c #9090FF",
"S+	c #7373FF",
"T+	c #5555FF",
"U+	c #3838FF",
"V+	c #07CA75",
"W+	c #0EC70E",
"X+	c #8383DA",
"Y+	c #7F7FFD",
"Z+	c #6363FF",
"`+	c #4646FF",
" @	c #0C0CFF",
".@	c #0649E1",
"+@	c #02F709",
"@@	c #03F303",
"#@	c #6262E5",
"$@	c #5454FF",
"%@	c #08B099",
"&@	c #0BD40B",
"*@	c #4444C3",
"=@	c #3E3EF0",
"-@	c #0420EF",
";@	c #04EB35",
">@	c #01FA01",
",@	c #2727D0",
"'@	c #1717F7",
")@	c #088EB8",
"!@	c #08E108",
"~@	c #0C0CDB",
"{@	c #0102FA",
"]@	c #07D958",
"^@	c #0606EA",
"/@	c #0868D0",
"(@	c #01FC00",
"_@	c #05EC05",
":@	c #0E0EC6",
"<@	c #08BF84",
"[@	c #0CCD0C",
"}@	c #0B0BD3",
"|@	c #0101FB",
"1@	c #0546E5",
"2@	c #03F405",
"3@	c #03F503",
"4@	c #08A5A4",
"5@	c #0AD90A",
"6@	c #0300F5",
"7@	c #05E53F",
"8@	c #01FC01",
"9@	c #0D0DC9",
"0@	c #0882C1",
"a@	c #07E407",
"b@	c #0B0BD6",
"c@	c #08D065",
"d@	c #0FC00F",
"e@	c #075AD9",
"f@	c #01FA00",
"g@	c #04EF04",
"h@	c #1010B9",
"i@	c #0505EB",
"j@	c #08B88D",
"k@	c #0CCF0C",
"l@	c #0D0DCB",
"m@	c #04F11D",
"n@	c #0BD50B",
"o@	c #06EB06",
"p@	c #0306F6",
"q@	c #06E04E",
"r@	c #03F403",
"s@	c #0DCA0D",
"t@	c #0E77AD",
"u@	c #02F902",
"v@	c #0AD70A",
". + + + + + + + @                                                                               ",
"# $ $ $ $ $ $ $ $ % &                                                                           ",
"# $ $ $ $ $ $ $ $ $ $ * =                                                                       ",
"- ; $ $ $ $ $ $ $ $ $ $ $ > ,                                                                   ",
"' ) ! ~ $ $ $ $ $ $ $ $ $ $ $ {                                                                 ",
"] ^ $ { / ( $ $ $ $ $ $ $ $ $ $ % _                                                             ",
": < [ $ } | 1 $ $ $ $ $ $ $ $ $ $ $ 2 3                                                         ",
"4 5 6 $ $ $ 7 | ; $ $ $ $ $ $ $ $ $ $ $ 8 9                                                     ",
"0 a b [ $ $ $ $ 8 ! c $ $ $ $ $ $ $ $ $ $ $ d                                                   ",
"e f g h $ $ $ $ $ $ / i ( $ $ $ $ $ $ $ $ $ $ } j                                               ",
"k l m n o $ $ $ $ $ $ } | 1 $ $ $ $ $ $ $ $ $ $ $ p q                                           ",
"r s t u v $ $ $ $ $ $ $ $ p ! w $ $ $ $ $ $ $ $ x y z                                           ",
"A B C D E o $ $ $ $ $ $ $ $ $ 8 ! F $ $ $ $ G H I J K L                                         ",
"M N O P Q R $ $ $ $ $ $ $ $ $ $ $ S { $ $ T U V W X Y Z `                                       ",
" ...+.@.#.$.o $ $ $ $ $ $ $ $ $ $ $ c %.&.*.=.-.;.>.,.'.).                                      ",
"!.~.{.].^./.(.$ $ $ $ $ $ $ $ $ $ $ $ $ _.:.<.[.}.|.1.2.3.4.                                    ",
"5.6.7.8.9.0.a.$ $ $ $ $ $ $ $ $ $ $ $ $ b.c.d.e.f.g.h.i.j.k.                                    ",
"l.m.n.o.p.q.r.s.$ $ $ $ $ $ $ $ $ $ $ $ $ t.u.v.w.x.y.z.A.B.C.                                  ",
"D.E.F.G.H.I.J.K.$ $ $ $ $ $ $ $ $ $ $ $ $ } L.M.N.O.P.Q.R.S.T.U.                                ",
"V.W.X.Y.Z.`. +.+++$ $ $ $ $ $ $ $ $ $ $ $ $ @+#+$+%+&+*+=+-+;+>+                                ",
",+'+)+!+~+{+]+^+/+$ $ $ $ $ $ $ $ $ $ $ $ $ $ (+_+:+<+[+}+|+1+2+3+                              ",
"4+5+6+7+8+9+0+a+b+c+$ $ $ $ $ $ $ $ $ $ $ $ $ d+e+f+f+f+f+f+f+f+g+                              ",
"h+i+j+k+l+m+n+o+p+q+$ $ $ $ $ $ $ $ $ $ $ $ $ $ r+f+f+f+f+f+f+f+f+s+                            ",
"  t+u+v+w+x+y+z+A+B+c+$ $ $ $ $ $ $ $ $ $ $ $ $ C+D+f+f+f+f+f+f+f+E+                            ",
"    F+G+H+I+J+K+L+M+^ $ $ $ $ $ $ $ $ $ $ $ $ $ $ N+E+f+f+f+f+f+f+f+O+                          ",
"        P+Q+R+S+T+U+< [ $ $ $ $ $ $ $ $ $ $ $ $ $ } V+f+f+f+f+f+f+f+f+W+                        ",
"            X+Y+Z+`+5  @$ $ $ $ $ $ $ $ $ $ $ $ $ $ .@+@f+f+f+f+f+f+f+@@                        ",
"                #@$@a b [ $ $ $ $ $ $ $ $ $ $ $ $ $ $ %@f+f+f+f+f+f+f+f+&@                      ",
"                  *@=@g h $ $ $ $ $ $ $ $ $ $ $ $ $ $ -@;@f+f+f+f+f+f+f+>@                      ",
"                      ,@'@o $ $ $ $ $ $ $ $ $ $ $ $ $ $ )@f+f+f+f+f+f+f+f+!@                    ",
"                          ~@( $ $ $ $ $ $ $ $ $ $ $ $ $ {@]@f+f+f+f+f+f+f+f+                    ",
"                              ^@$ $ $ $ $ $ $ $ $ $ $ $ $ /@(@f+f+f+f+f+f+f+_@                  ",
"                                :@; $ $ $ $ $ $ $ $ $ $ $ $ <@f+f+f+f+f+f+f+f+[@                ",
"                                    }@|@$ $ $ $ $ $ $ $ $ $ 1@2@f+f+f+f+f+f+f+3@                ",
"                                        %.$ $ $ $ $ $ $ $ $ $ 4@f+f+f+f+f+f+f+f+5@              ",
"                                            ^@$ $ $ $ $ $ $ $ 6@7@f+f+f+f+f+f+f+8@              ",
"                                              9@w $ $ $ $ $ $ $ 0@f+f+f+f+f+f+f+f+a@            ",
"                                                  b@c $ $ $ $ $ } c@f+f+f+f+f+f+f+f+d@          ",
"                                                      ! $ $ $ $ $ e@f@f+f+f+f+f+f+f+g@          ",
"                                                        h@i@$ $ $ $ j@f+f+f+f+f+f+f+f+k@        ",
"                                                            l@7 $ $ d+m@f+f+f+f+f+f+f+n@        ",
"                                                                j } $ r+f+f+f+f+f+o@            ",
"                                                                    i p@q@f+f+r@s@              ",
"                                                                      9 t@u@v@                  ",
"                                                                                                ",
"                                                                                                ",
"                                                                                                ",
"                                                                                                "};
