/* XPM */
static char * panelXZ_xpm[] = {
"48 48 191 2",
"  	c None",
". 	c #FFFFFF",
"+ 	c #F9F9FF",
"@ 	c #F8F8FF",
"# 	c #F0F1FF",
"$ 	c #EAEAFF",
"% 	c #F7F6FF",
"& 	c #F0F0FF",
"* 	c #E4E4FF",
"= 	c #DDDDFF",
"- 	c #F7F7FF",
"; 	c #E4E3FF",
"> 	c #D7D7FF",
", 	c #FEFDFF",
"' 	c #EBEAFF",
") 	c #E3E4FF",
"! 	c #DEDDFF",
"~ 	c #D1D1FF",
"{ 	c #CACAFF",
"] 	c #FEFEFF",
"^ 	c #F1F0FF",
"/ 	c #DDDEFF",
"( 	c #D1D0FF",
"_ 	c #CBCBFF",
": 	c #C3C4FF",
"< 	c #BEBDFF",
"[ 	c #C4C3FF",
"} 	c #BDBDFF",
"| 	c #B7B7FF",
"1 	c #B0B1FF",
"2 	c #F1F1FF",
"3 	c #EAEBFF",
"4 	c #C4C4FF",
"5 	c #B0B0FF",
"6 	c #AAAAFF",
"7 	c #FDFDFF",
"8 	c #A3A4FF",
"9 	c #9D9DFF",
"0 	c #FDFEFF",
"a 	c #D7D6FF",
"b 	c #D0D1FF",
"c 	c #BEBEFF",
"d 	c #9697FF",
"e 	c #9190FF",
"f 	c #DEDEFF",
"g 	c #CBCAFF",
"h 	c #B6B7FF",
"i 	c #B1B0FF",
"j 	c #A4A3FF",
"k 	c #9797FF",
"l 	c #9091FF",
"m 	c #8A8AFF",
"n 	c #E3E3FF",
"o 	c #A4A4FF",
"p 	c #9E9DFF",
"q 	c #8483FF",
"r 	c #7D7DFF",
"s 	c #BDBEFF",
"t 	c #B1B1FF",
"u 	c #A3A3FF",
"v 	c #8383FF",
"w 	c #7575FF",
"x 	c #6E6EFF",
"y 	c #7C7BFF",
"z 	c #6E6FFF",
"A 	c #6868FF",
"B 	c #6162FF",
"C 	c #D0D0FF",
"D 	c #7C7CFF",
"E 	c #7576FF",
"F 	c #6F6FFF",
"G 	c #6262FF",
"H 	c #5C5BFF",
"I 	c #C3C3FF",
"J 	c #9090FF",
"K 	c #8282FF",
"L 	c #7675FF",
"M 	c #5B5BFF",
"N 	c #5555FF",
"O 	c #4E4FFF",
"P 	c #8989FF",
"Q 	c #6F6EFF",
"R 	c #6968FF",
"S 	c #6261FF",
"T 	c #5C5CFF",
"U 	c #4F4FFF",
"V 	c #4948FF",
"W 	c #4242FF",
"X 	c #9796FF",
"Y 	c #8888FF",
"Z 	c #5B5CFF",
"` 	c #4848FF",
" .	c #4241FF",
"..	c #3B3CFF",
"+.	c #3535FF",
"@.	c #8F8FFF",
"#.	c #8988FF",
"$.	c #4849FF",
"%.	c #3B3BFF",
"&.	c #2F2EFF",
"*.	c #9595FF",
"=.	c #4F4EFF",
"-.	c #4142FF",
";.	c #2828FF",
">.	c #2222FF",
",.	c #2829FF",
"'.	c #1B1CFF",
").	c #1515FF",
"!.	c #9B9CFF",
"~.	c #8E8FFF",
"{.	c #7B7CFF",
"].	c #3C3BFF",
"^.	c #1C1BFF",
"/.	c #0F0EFF",
"(.	c #0808FF",
"_.	c #D6D7FF",
":.	c #A2A2FF",
"<.	c #8F8EFF",
"[.	c #6969FF",
"}.	c #2F2FFF",
"|.	c #1B1BFF",
"1.	c #1415FF",
"2.	c #0F0FFF",
"3.	c #0201FF",
"4.	c #8182FF",
"5.	c #2E2FFF",
"6.	c #2221FF",
"7.	c #0102FF",
"8.	c #0000FF",
"9.	c #A8A9FF",
"0.	c #9C9BFF",
"a.	c #1C1CFF",
"b.	c #0E0EFF",
"c.	c #AFAFFF",
"d.	c #A9A8FF",
"e.	c #6869FF",
"f.	c #2E2EFF",
"g.	c #2122FF",
"h.	c #0E0FFF",
"i.	c #B5B5FF",
"j.	c #A9A9FF",
"k.	c #9C9CFF",
"l.	c #4E4EFF",
"m.	c #3C3CFF",
"n.	c #0706FF",
"o.	c #B5B6FF",
"p.	c #0D0DFF",
"q.	c #BCBCFF",
"r.	c #9B9BFF",
"s.	c #9695FF",
"t.	c #1313FF",
"u.	c #0C0DFF",
"v.	c #C2C2FF",
"w.	c #9596FF",
"x.	c #8889FF",
"y.	c #2929FF",
"z.	c #1414FF",
"A.	c #0607FF",
"B.	c #AFAEFF",
"C.	c #8E8EFF",
"D.	c #8281FF",
"E.	c #7B7BFF",
"F.	c #3534FF",
"G.	c #1A1AFF",
"H.	c #A8A8FF",
"I.	c #2020FF",
"J.	c #0606FF",
"K.	c #1A19FF",
"L.	c #2726FF",
"M.	c #0D0CFF",
"N.	c #2D2DFF",
"O.	c #2727FF",
"P.	c #191AFF",
"Q.	c #1919FF",
"R.	c #1314FF",
"S.	c #3334FF",
"T.	c #3A3AFF",
"U.	c #3333FF",
"V.	c #0707FF",
"W.	c #3433FF",
"X.	c #4040FF",
"Y.	c #3434FF",
"Z.	c #2626FF",
"`.	c #1413FF",
" +	c #4646FF",
".+	c #4140FF",
"++	c #3939FF",
"@+	c #0C0CFF",
"#+	c #2C2DFF",
"$+	c #2120FF",
"%+	c #2627FF",
"      . +                                                                                       ",
"      . @ # $                                                                                   ",
"      . % & $ * =                                                                               ",
"      . - # $ ; = >                                                                             ",
"      , - & ' ) ! > ~ {                                                                         ",
"      ] - ^ $ ) / > ( _ : <                                                                     ",
"      , - & ' ; / > ( { [ } | 1                                                                 ",
"      ] - 2 3 * = > ( { 4 } | 5 6                                                               ",
"      7 - & $ ) / > ~ { 4 } | 5 6 8 9                                                           ",
"      0 - # $ * = a b { : c | 5 6 8 9 d e                                                       ",
"      , - & $ ) f > b g : } h i 6 j 9 k l m                                                     ",
"      0 - ^ ' n = > b { 4 < | 5 6 o p k l m q r                                                 ",
"      7 - # $ * f > ~ { [ s | t 6 u 9 k e m v r w x                                             ",
"      0 - # $ * = > ~ { 4 < | 1 6 8 9 k l m q y w z A B                                         ",
"      7 - & $ * ! > C { : } | i 6 j 9 k e m v D E F A G H                                       ",
"      , - 2 ' ) ! > ( { I } | 1 6 8 9 d J m K y L x A G M N O                                   ",
"      7 - ^ ' ) / > C { 4 s | 5 6 u p d J P K D w Q R S T N U V W                               ",
"      7 - 2 $ ; = > ~ g : } | 1 6 u 9 X l Y K D w F R G Z N O `  ...+.                          ",
"      7 - 2 $ * / > C { 4 < h 1 6 8 9 X @.#.K D w x R G M N U $.W %.+.&.                        ",
"      0 - ^ 3 * = > ~ { [ < | 5 6 u 9 *.@.Y K D E Q A G Z N =.$.-.%.+.&.;.>.                    ",
"      ] % 2 3 * ! > ( { [ } h i 6 j 9 *.@.P K y w x A G Z N U ` W %.+.&.,.>.'.).                ",
"      ] % 2 $ ) ! > b { 4 } h 5 6 8 !.*.~.Y K {.E F A G M N U ` W ].+.&.;.>.^.)./.(.            ",
"      7 - 2 3 ; / _.~ { [ } | t 6 :.!.*.<.#.K D w z [.G Z N O ` -.].+.}.;.>.|.1.2.(.3.          ",
"      , - 2 $ ; = > ( { : s | t 6 :.!.*.@.Y 4.{.w F R G T N O ` W ].+.5.;.6.'.)./.(.7.8.8.      ",
"      0 - 2 $ n = > ~ { [ } h 5 9.:.0.*.@.Y K D w z A S H N =.` W ..+.&.;.>.a.).b.(.8.8.8.      ",
"          2 3 ; = > ( { : c | c.d.:.!.*.@.#.K D w Q e.B H N U V -.].+.f.;.g.'.).h.(.8.8.8.      ",
"              * / _.( { I } i.c.j.:.k.*.@.Y K {.w Q e.G H N l.` -.m.+.5.;.>.|.)./.n.8.8.8.      ",
"                / > ( { 4 } o.c.9.:.!.*.~.#.K D L F A G H N U $.-.%.+.}.;.>.a.1.p.n.8.8.8.      ",
"                    ( { [ q.i.c.d.:.r.s.~.P K D w Q A G Z N l.` W ..+.5.;.>.|.t.u.n.8.8.8.      ",
"                        v.q.i.c.9.:.!.w.~.x.K y w z R S H N =.` W %.+.f.y.>.|.z.p.A.8.8.8.      ",
"                            o.B.9.:.0.*.C.P D.E.w Q e.G T N =.` W ].F.&.;.6.G.t.p.n.8.8.8.      ",
"                              c.H.:.r.*.@.x.K y w F A S M N U ` W %.+.5.;.I.G.t.p.J.8.8.8.      ",
"                                  :.r.*.@.Y K y E Q A B Z N =.` W ].+.5.;.I.K.t.p.J.8.8.8.      ",
"                                      *.@.x.K y L x R G H N O ` W %.+.5.L.I.G.t.M.J.8.8.8.      ",
"                                        @.x.K y w Q A G Z N l.V -.%.+.N.O.I.P.t.p.A.8.8.8.      ",
"                                            K E.w F A B M N l.$. ...+.N.O.I.Q.R.p.J.8.8.8.      ",
"                                                w F A G H N O `  .m.S.N.L.I.K.t.p.J.8.8.8.      ",
"                                                    A G H N U ` W T.U.N.O.I.G.t.u.V.8.8.8.      ",
"                                                      G Z N O ` W T.W.N.O.I.P.z.u.n.8.8.8.      ",
"                                                          N U $.X.T.Y.N.Z.I.P.`.u.n.8.8.8.      ",
"                                                               +.+++U.N.L.I.K.z.@+V.8.8.8.      ",
"                                                                  T.U.#+O.$+G.R.u.n.8.8.8.      ",
"                                                                    U.N.%+I.G.`.M.J.8.8.8.      ",
"                                                                        O.I.K.t.p.V.8.8.8.      ",
"                                                                            K.`.p.J.8.8.8.      ",
"                                                                                M.n.8.8.8.      ",
"                                                                                  A.8.8.8.      ",
"                                                                                      8.8.      "};
