/* XPM */
static char * panelYZCover_xpm[] = {
"48 48 582 2",
"  	c None",
". 	c #EEEEEE",
"+ 	c #FFFFFF",
"@ 	c #F4F4F8",
"# 	c #D0D0DB",
"$ 	c #E5E5E5",
"% 	c #FCFCFF",
"& 	c #F6F7FF",
"* 	c #F0F0FF",
"= 	c #E9E9FF",
"- 	c #D4D5F0",
"; 	c #DDDDDD",
"> 	c #F9F9F9",
", 	c #FDFDFF",
"' 	c #F8F8FF",
") 	c #F2F2FF",
"! 	c #EBEBFF",
"~ 	c #E4E4FF",
"{ 	c #DDDEFF",
"] 	c #D7D7FF",
"^ 	c #D0D0FF",
"/ 	c #BABAEC",
"( 	c #F1F1F1",
"_ 	c #FEFEFF",
": 	c #FAFAFF",
"< 	c #F3F3FF",
"[ 	c #EDEDFF",
"} 	c #E6E6FF",
"| 	c #DFDFFF",
"1 	c #D8D9FF",
"2 	c #D2D2FF",
"3 	c #CBCBFF",
"4 	c #C4C4FF",
"5 	c #BEBEFF",
"6 	c #B6B6FE",
"7 	c #9C9CE4",
"8 	c #ECECEC",
"9 	c #FBFBFF",
"0 	c #F5F5FF",
"a 	c #EFEEFF",
"b 	c #E8E8FF",
"c 	c #E1E1FF",
"d 	c #DADAFF",
"e 	c #D4D4FF",
"f 	c #CDCDFF",
"g 	c #C6C6FF",
"h 	c #C0C0FF",
"i 	c #B9B9FF",
"j 	c #B2B2FF",
"k 	c #ACABFF",
"l 	c #A5A5FF",
"m 	c #9999F7",
"n 	c #7F7FDA",
"o 	c #FBFBFB",
"p 	c #F7F7FF",
"q 	c #E9EAFF",
"r 	c #E3E3FF",
"s 	c #DCDCFF",
"t 	c #D5D5FF",
"u 	c #CFCFFF",
"v 	c #C8C8FF",
"w 	c #C1C1FF",
"x 	c #BBBBFF",
"y 	c #B4B4FF",
"z 	c #ADADFF",
"A 	c #A6A7FF",
"B 	c #A0A0FF",
"C 	c #9999FF",
"D 	c #9292FF",
"E 	c #8C8CFF",
"F 	c #7D7DF2",
"G 	c #DEDEE2",
"H 	c #F0F0F5",
"I 	c #E4E5FF",
"J 	c #DEDEFF",
"K 	c #CACAFF",
"L 	c #C3C3FF",
"M 	c #BCBCFF",
"N 	c #B6B6FF",
"O 	c #AFAFFF",
"P 	c #A8A8FF",
"Q 	c #A2A2FF",
"R 	c #9B9BFF",
"S 	c #9494FF",
"T 	c #8D8DFF",
"U 	c #8787FF",
"V 	c #8080FF",
"W 	c #7979FF",
"X 	c #7373FF",
"Y 	c #6060E6",
"Z 	c #8B8BF2",
"` 	c #B5B5E1",
" .	c #D3D2E9",
"..	c #DADAF9",
"+.	c #D9D9FF",
"@.	c #C5C5FF",
"#.	c #B7B7FF",
"$.	c #B1B1FF",
"%.	c #AAAAFF",
"&.	c #A3A3FF",
"*.	c #9D9DFF",
"=.	c #9696FF",
"-.	c #8F8FFF",
";.	c #8888FF",
">.	c #8282FF",
",.	c #7B7BFF",
"'.	c #7474FF",
").	c #6E6EFF",
"!.	c #6767FF",
"~.	c #6060FF",
"{.	c #5858FB",
"].	c #4747E0",
"^.	c #9191FF",
"/.	c #8686FF",
"(.	c #8888F0",
"_.	c #A8A8DB",
":.	c #BEBEEC",
"<.	c #C4C4FC",
"[.	c #ACACFF",
"}.	c #9F9EFF",
"|.	c #9898FF",
"1.	c #8A8AFF",
"2.	c #8483FF",
"3.	c #7D7DFF",
"4.	c #7676FF",
"5.	c #6F6FFF",
"6.	c #6969FF",
"7.	c #6262FF",
"8.	c #5B5BFF",
"9.	c #5555FF",
"0.	c #4E4EFF",
"a.	c #4747FF",
"b.	c #3F3FF8",
"c.	c #2F2FD4",
"d.	c #8B8BFF",
"e.	c #8181EA",
"f.	c #9F9FE2",
"g.	c #AAAAF0",
"h.	c #AEAEFF",
"i.	c #A7A7FF",
"j.	c #999AFF",
"k.	c #9393FF",
"l.	c #8585FF",
"m.	c #7F7FFF",
"n.	c #7878FF",
"o.	c #7171FF",
"p.	c #6B6AFF",
"q.	c #6464FF",
"r.	c #5D5DFF",
"s.	c #5656FF",
"t.	c #5050FF",
"u.	c #4949FF",
"v.	c #4242FF",
"w.	c #3C3CFF",
"x.	c #3535FF",
"y.	c #2E2EFF",
"z.	c #2525EF",
"A.	c #7070FF",
"B.	c #6363F9",
"C.	c #7A7AE8",
"D.	c #8F8FE4",
"E.	c #9494F2",
"F.	c #8E8EFF",
"G.	c #7A7AFF",
"H.	c #6C6CFF",
"I.	c #6566FF",
"J.	c #5F5FFF",
"K.	c #5858FF",
"L.	c #5151FF",
"M.	c #4B4BFF",
"N.	c #4444FF",
"O.	c #3D3DFF",
"P.	c #3737FF",
"Q.	c #3030FF",
"R.	c #2929FF",
"S.	c #2323FF",
"T.	c #1C1CFF",
"U.	c #1515FF",
"V.	c #1010E5",
"W.	c #A1A1FF",
"X.	c #6B6BFF",
"Y.	c #5858F4",
"Z.	c #7071E5",
"`.	c #7D7CE8",
" +	c #8080FA",
".+	c #7575FF",
"++	c #6161FF",
"@+	c #5A5AFF",
"#+	c #5353FF",
"$+	c #4D4DFF",
"%+	c #4646FF",
"&+	c #3F3FFF",
"*+	c #3838FF",
"=+	c #3232FF",
"-+	c #2B2BFF",
";+	c #2424FF",
">+	c #1E1EFF",
",+	c #1717FF",
"'+	c #1010FF",
")+	c #0909FF",
"!+	c #0303FF",
"~+	c #0303F4",
"{+	c #9B0D8B",
"]+	c #A6A6FF",
"^+	c #6565FF",
"/+	c #4F4FEF",
"(+	c #6161E0",
"_+	c #6868EC",
":+	c #5C5CFF",
"<+	c #4848FF",
"[+	c #4141FF",
"}+	c #3A3AFF",
"|+	c #3434FF",
"1+	c #2D2DFF",
"2+	c #2626FF",
"3+	c #1F1FFF",
"4+	c #1919FF",
"5+	c #1212FF",
"6+	c #0B0BFF",
"7+	c #0505FF",
"8+	c #0101FF",
"9+	c #6E05DA",
"0+	c #CE086C",
"a+	c #ED0808",
"b+	c #4B4AFF",
"c+	c #3F3FFC",
"d+	c #4646EC",
"e+	c #4F4FDB",
"f+	c #5252EE",
"g+	c #4343FF",
"h+	c #2F2FFF",
"i+	c #2828FF",
"j+	c #2121FF",
"k+	c #1B1BFF",
"l+	c #1414FF",
"m+	c #0D0DFF",
"n+	c #0606FF",
"o+	c #4104EC",
"p+	c #B90890",
"q+	c #E70809",
"r+	c #F70909",
"s+	c #FF0E0E",
"t+	c #9C9CFF",
"u+	c #6665FF",
"v+	c #4545FF",
"w+	c #3030F9",
"x+	c #3A39E9",
"y+	c #3E3EE8",
"z+	c #3C3CF5",
"A+	c #2A2AFF",
"B+	c #1616FF",
"C+	c #0F0FFF",
"D+	c #0808FF",
"E+	c #0202FF",
"F+	c #0402F9",
"G+	c #A206B1",
"H+	c #E40728",
"I+	c #F60707",
"J+	c #FF0B0B",
"K+	c #FF1212",
"L+	c #FF1919",
"M+	c #B6B7FF",
"N+	c #4040FF",
"O+	c #2222F1",
"P+	c #2828DF",
"Q+	c #2929EB",
"R+	c #2424FA",
"S+	c #1111FF",
"T+	c #0A0AFF",
"U+	c #0000FF",
"V+	c #7F06CE",
"W+	c #D4094F",
"X+	c #EF0707",
"Y+	c #FF0909",
"Z+	c #FF1010",
"`+	c #FF1616",
" @	c #FF1D1D",
".@	c #FF2323",
"+@	c #6666FF",
"@@	c #2525FF",
"#@	c #1A1AFF",
"$@	c #1616EB",
"%@	c #1818E0",
"&@	c #1414ED",
"*@	c #0C0CFF",
"=@	c #5F03E6",
"-@	c #BF097D",
";@	c #EC0707",
">@	c #FD0707",
",@	c #FF0D0D",
"'@	c #FF1414",
")@	c #FF1A1A",
"!@	c #FF2121",
"~@	c #FF2827",
"{@	c #FF2E2E",
"]@	c #C2C1FF",
"^@	c #8180FF",
"/@	c #0A0BFC",
"(@	c #0909EC",
"_@	c #0909E2",
":@	c #3D06E5",
"<@	c #B2079E",
"[@	c #E40800",
"}@	c #F80606",
"|@	c #FF1818",
"1@	c #FF1F1E",
"2@	c #FF2525",
"3@	c #FF2C2B",
"4@	c #FF3232",
"5@	c #FF3939",
"6@	c #C7C7FF",
"7@	c #3B3AFF",
"8@	c #0404FF",
"9@	c #0303F5",
"0@	c #9F09A5",
"a@	c #E60909",
"b@	c #FF0808",
"c@	c #FF0F0F",
"d@	c #FF1C1C",
"e@	c #FF2929",
"f@	c #FF3030",
"g@	c #FF3636",
"h@	c #FF3D3D",
"i@	c #FF4344",
"j@	c #CCCCFF",
"k@	c #8C8BFF",
"l@	c #8181FF",
"m@	c #5556FF",
"n@	c #2020FF",
"o@	c #AB08B4",
"p@	c #EF0F0F",
"q@	c #FF1313",
"r@	c #FF2020",
"s@	c #FF2727",
"t@	c #FF2D2D",
"u@	c #FF3434",
"v@	c #FF3B3B",
"w@	c #FF4141",
"x@	c #FF4848",
"y@	c #FF4E4E",
"z@	c #7170FF",
"A@	c #3B3BFF",
"B@	c #AB0DB4",
"C@	c #EF1818",
"D@	c #FF1E1E",
"E@	c #FF2524",
"F@	c #FF2B2B",
"G@	c #FF3838",
"H@	c #FF3F3F",
"I@	c #FF4545",
"J@	c #FF4C4C",
"K@	c #FF5252",
"L@	c #FF5959",
"M@	c #C1C2FF",
"N@	c #AB14B5",
"O@	c #EF2121",
"P@	c #FF2F2F",
"Q@	c #FF3C3C",
"R@	c #FF4343",
"S@	c #FF4949",
"T@	c #FF5050",
"U@	c #FF5757",
"V@	c #FF5D5D",
"W@	c #FF6464",
"X@	c #DCDDFF",
"Y@	c #A7A6FF",
"Z@	c #0F10FF",
"`@	c #AC1BB5",
" #	c #EF2B2B",
".#	c #FF3334",
"+#	c #FF3A3A",
"@#	c #FF4140",
"##	c #FF4747",
"$#	c #FF5454",
"%#	c #FF5B5B",
"&#	c #FF6161",
"*#	c #FF6868",
"=#	c #FF6E6E",
"-#	c #E2E2FF",
";#	c #C2C2FF",
">#	c #AC23B6",
",#	c #EF3535",
"'#	c #FF3E3E",
")#	c #FF4B4B",
"!#	c #FF5858",
"~#	c #FF5F5F",
"{#	c #FF6665",
"]#	c #FF6C6C",
"^#	c #FF7373",
"/#	c #FF7979",
"(#	c #E7E7FF",
"_#	c #DDDDFF",
":#	c #AC2AB7",
"<#	c #EF3F3F",
"[#	c #FF4F4F",
"}#	c #FF5656",
"|#	c #FF5C5C",
"1#	c #FF6363",
"2#	c #FF6A6A",
"3#	c #FF7070",
"4#	c #FF7777",
"5#	c #FF7D7D",
"6#	c #FF8484",
"7#	c #8B8CFF",
"8#	c #AC32B9",
"9#	c #EF4949",
"0#	c #FF5A5A",
"a#	c #FF6767",
"b#	c #FF7474",
"c#	c #FF7B7B",
"d#	c #FF8181",
"e#	c #FF8888",
"f#	c #FF8F8F",
"g#	c #4645FF",
"h#	c #3A3BFF",
"i#	c #AC3ABA",
"j#	c #EF5353",
"k#	c #FF5E5E",
"l#	c #FF6565",
"m#	c #FF6B6C",
"n#	c #FF7272",
"o#	c #FF7F7F",
"p#	c #FF8686",
"q#	c #FF8C8C",
"r#	c #FF9393",
"s#	c #FF9999",
"t#	c #9796FF",
"u#	c #AD42BC",
"v#	c #EF5D5D",
"w#	c #FF6969",
"x#	c #FF7676",
"y#	c #FF8383",
"z#	c #FF8A8A",
"A#	c #FF9090",
"B#	c #FF9797",
"C#	c #FF9E9E",
"D#	c #FFA4A4",
"E#	c #7B7CFF",
"F#	c #AD4ABE",
"G#	c #EF6767",
"H#	c #FF7B7A",
"I#	c #FF8787",
"J#	c #FF8E8E",
"K#	c #FF9595",
"L#	c #FF9B9B",
"M#	c #FFA2A2",
"N#	c #FFA8A8",
"O#	c #FFAFAF",
"P#	c #CDCCFF",
"Q#	c #9697FF",
"R#	c #6061FF",
"S#	c #AE52C0",
"T#	c #EF7171",
"U#	c #FF8585",
"V#	c #FF9292",
"W#	c #FF9F9F",
"X#	c #FFA6A6",
"Y#	c #FFADAD",
"Z#	c #FFB3B3",
"`#	c #FFBABA",
" $	c #DCDCDC",
".$	c #F4F4F7",
"+$	c #E7E8FF",
"@$	c #7C7BFF",
"#$	c #AE5AC2",
"$$	c #EF7B7B",
"%$	c #FF8989",
"&$	c #FF9796",
"*$	c #FF9D9D",
"=$	c #FFAAAA",
"-$	c #FFB1B1",
";$	c #FFB7B7",
">$	c #FFBEBE",
",$	c #FFC4C4",
"'$	c #DDDDE5",
")$	c #EAEAFC",
"!$	c #AF62C5",
"~$	c #EF8585",
"{$	c #FF9494",
"]$	c #FFA1A1",
"^$	c #FFAEAE",
"/$	c #FFB5B5",
"($	c #FFBBBB",
"_$	c #FFC2C2",
":$	c #FFC9C9",
"<$	c #FFCFCF",
"[$	c #D5D5EC",
"}$	c #7C7CFF",
"|$	c #AF6AC8",
"1$	c #EF8F8F",
"2$	c #FFA5A5",
"3$	c #FFACAC",
"4$	c #FFB2B2",
"5$	c #FFB9B9",
"6$	c #FFC0C0",
"7$	c #FFC6C6",
"8$	c #FFCDCD",
"9$	c #FFD3D3",
"0$	c #FFDADA",
"a$	c #CCCCF2",
"b$	c #9797FF",
"c$	c #B072CB",
"d$	c #EF9999",
"e$	c #FFB0B0",
"f$	c #FFBDBD",
"g$	c #FFCACB",
"h$	c #FFD1D1",
"i$	c #FFD7D8",
"j$	c #FFDEDE",
"k$	c #FFE5E5",
"l$	c #B5B5DF",
"m$	c #C3C3FA",
"n$	c #B17ACE",
"o$	c #EFA3A3",
"p$	c #FFB4B4",
"q$	c #FFC1C1",
"r$	c #FFC8C8",
"s$	c #FFD5D5",
"t$	c #FFDCDC",
"u$	c #FFE2E2",
"v$	c #FFE9E9",
"w$	c #FFEFEF",
"x$	c #ADADE5",
"y$	c #A2A1FF",
"z$	c #6160FF",
"A$	c #B282D2",
"B$	c #EFADAD",
"C$	c #FFBFBF",
"D$	c #FFCCCC",
"E$	c #FFD9D9",
"F$	c #FFE0E0",
"G$	c #FFE6E7",
"H$	c #FFEDED",
"I$	c #FFF4F4",
"J$	c #FFFAFA",
"K$	c #A9A9F3",
"L$	c #B38AD5",
"M$	c #EFB7B7",
"N$	c #FFCACA",
"O$	c #FFD0D0",
"P$	c #FFD7D7",
"Q$	c #FFDDDE",
"R$	c #FFE4E4",
"S$	c #FFEBEB",
"T$	c #FFF1F1",
"U$	c #FFF8F8",
"V$	c #F8F7F7",
"W$	c #8F8FD7",
"X$	c #9C9DF8",
"Y$	c #B492D9",
"Z$	c #EFC1C1",
"`$	c #FFD5D4",
" %	c #FFDBDB",
".%	c #FFE8E8",
"+%	c #FFF5F5",
"@%	c #FFFCFC",
"#%	c #E2E2E2",
"$%	c #8989E3",
"%%	c #8E8EFA",
"&%	c #B59ADD",
"*%	c #EFCBCC",
"=%	c #FFDFDF",
"-%	c #FFE6E6",
";%	c #FFECEC",
">%	c #FFF3F3",
",%	c #FFF9FA",
"'%	c #EDEBEB",
")%	c #7D7DE7",
"!%	c #B6A2E1",
"~%	c #EFD5D6",
"{%	c #FFEAEA",
"]%	c #FFF7F7",
"^%	c #F1EFEF",
"/%	c #7474F1",
"(%	c #B7AAE6",
"_%	c #EFE0E0",
":%	c #FAF6F6",
"<%	c #DEDDDD",
"[%	c #6363DB",
"}%	c #B7B0E1",
"|%	c #EFE9EA",
"1%	c #E5E4E4",
"                                                                                                ",
"                                                                                                ",
"                                                                                                ",
"                                  . + @ #                                                       ",
"                              $ + % & * = -                                                     ",
"                          ; > , ' ) ! ~ { ] ^ /                                                 ",
"                        ( _ : < [ } | 1 2 3 4 5 6 7                                             ",
"                    8 + 9 0 a b c d e f g h i j k l m n                                         ",
"                $ o , p * q r s t u v w x y z A B C D E F                                       ",
"                G H ) ! I J ] ^ K L M N O P Q R S T U V W X Y                                   ",
"                Z `  ...+.2 3 @.5 #.$.%.&.*.=.-.;.>.,.'.).!.~.{.].                              ",
"                ^./.(._.:.<.h i j [.l }.|.^.1.2.3.4.5.6.7.8.9.0.a.b.c.                          ",
"                =.d.V 4.e.f.g.h.i.B j.k.E l.m.n.o.p.q.r.s.t.u.v.w.x.y.z.                        ",
"                R ^./.,.A.B.C.D.E.S F.U V G.X H.I.J.K.L.M.N.O.P.Q.R.S.T.U.V.                    ",
"                W.=.d.V 4.X.~.Y.Z.`. +,..+).!.++@+#+$+%+&+*+=+-+;+>+,+'+)+!+~+{+                ",
"                ]+R ^./.,.A.^+8.t./+(+_+6.7.:+9.0.<+[+}+|+1+2+3+4+5+6+7+8+9+0+a+                ",
"                [.W.=.d.V 4.X.~.9.b+c+d+e+f+t.u.g+w.x.h+i+j+k+l+m+n+8+o+p+q+r+s+                ",
"                $.]+t+^./.,.A.u+8.t.v+}+w+x+y+z+P.Q.A+S.T.B+C+D+E+F+G+H+I+J+K+L+                ",
"                M+[.W.=.d.V 4.X.~.9.M.N+x.A+O+P+Q+R+>+,+S+T+!+U+V+W+X+Y+Z+`+ @.@                ",
"                M $.]+t+^./.,.A.+@8.t.v+}+Q.@@#@$@%@&@*@7+8+=@-@;@>@,@'@)@!@~@{@                ",
"                ]@#.[.W.=.d.^@4.X.~.9.M.N+x.A+3+U./@(@_@:@<@[@}@J+K+|@1@2@3@4@5@                ",
"                6@M $.A t+^./.,.A.+@8.t.v+7@Q.@@#@C+8@9@0@a@b@c@`+d@.@e@f@g@h@i@                ",
"                j@w #.[.W.=.k@l@4.X.~.m@M.N+x.A+n@U.T+8+o@p@q@)@r@s@t@u@v@w@x@y@                ",
"                2 6@M $.]+t+^./.,.z@+@8.t.v+A@Q.@@#@'+7+B@C@D@E@F@4@G@H@I@J@K@L@                ",
"                ] j@M@#.[.W.=.d.l@4.X.~.m@M.N+x.A+n@U.T+N@O@e@P@g@Q@R@S@T@U@V@W@                ",
"                X@2 6@M $.Y@t+^./.,.A.+@8.t.v+A@Q.@@#@Z@`@ #.#+#@###y@$#%#&#*#=#                ",
"                -#] j@;##.[.W.=.k@l@4.X.~.9.M.N+x.A+n@U.>#,#'#I@)#K@!#~#{#]#^#/#                ",
"                (#_#2 6@M $.i.t+^./.,.o.+@8.t.v+A@Q.@@#@:#<#S@[#}#|#1#2#3#4#5#6#                ",
"                [ -#] j@M@#.[.W.=.7#l@4.X.~.s.M.N+x.A+n@8#9#$#0#&#a#=#b#c#d#e#f#                ",
"                ) (#_#2 6@M $.i.t+^./.,.o.+@8.t.g#h#Q.@@i#j#k#l#m#n#/#o#p#q#r#s#                ",
"                ' [ -#] j@;##.[.W.t#E l@4.X.~.s.M.N+x.A+u#v#w#3#x#5#y#z#A#B#C#D#                ",
"                % ) (#_#2 6@M $.i.t+^./.E#o.+@8.t.v+A@Q.F#G#b#H#d#I#J#K#L#M#N#O#                ",
"                + ' [ -#] P#;##.[.W.Q#E l@4.X.R#s.M.N+x.S#T#o#U#q#V#s#W#X#Y#Z#`#                ",
"                 $.$) +$_#2 6@M $.i.t+^./.@$o.+@8.t.%+A@#$$$%$A#&$*$D#=$-$;$>$,$                ",
"                    '$)$-#] f ;##.[.W.t#E l@4.X.++s.M.N+!$~${$L#]$N#^$/$($_$:$<$                ",
"                        [$_#2 6@M $.i.t+^./.}$o.+@8.t.%+|$1$W#2$3$4$5$6$7$8$9$0$                ",
"                            a$f ;##.[.W.b$E l@4.X.++s.M.c$d$=$e$;$f$,$g$h$i$j$k$                ",
"                              l$m$M j i.t+^./.}$o.+@8.t.n$o$p$($q$r$<$s$t$u$v$w$                ",
"                                  x$#.[.y$b$E l@4.X.z$s.A$B$C$7$D$9$E$F$G$H$I$J$                ",
"                                      K$i.t+^.U @$o.+@8.L$M$N$O$P$Q$R$S$T$U$V$;                 ",
"                                        W$X$b$E l@4.X.++Y$Z$`$ %u$.%w$+%@%#%                    ",
"                                            $%%%/.}$o.+@&%*%=%-%;%>%,%'%                        ",
"                                                )%l@4.H.!%~%{%T$]%^%                            ",
"                                                    /%o.(%_%+%:%<%                              ",
"                                                      [%}%|%1%                                  ",
"                                                                                                ",
"                                                                                                ",
"                                                                                                "};
