/* XPM */
static char * panelSideLeft_xpm[] = {
"48 48 286 2",
"  	c None",
". 	c #DBDBDB",
"+ 	c #F2F2F1",
"@ 	c #F2F2F2",
"# 	c #F2F1F2",
"$ 	c #D9D9D9",
"% 	c #E7E2E2",
"& 	c #FFFAFA",
"* 	c #FFF9FA",
"= 	c #E5E0E0",
"- 	c #E7DCDC",
"; 	c #FFF3F3",
"> 	c #E5DADA",
", 	c #E7D6D6",
"' 	c #FFECEC",
") 	c #E5D4D4",
"! 	c #E7D0D0",
"~ 	c #FFE6E6",
"{ 	c #E5CECE",
"] 	c #E7CACA",
"^ 	c #FFDFDF",
"/ 	c #E5C8C8",
"( 	c #E7C4C4",
"_ 	c #FFD8D8",
": 	c #E5C2C2",
"< 	c #E7BEBE",
"[ 	c #FFD2D2",
"} 	c #E5BCBC",
"| 	c #E7B8B8",
"1 	c #FFCBCB",
"2 	c #E5B6B6",
"3 	c #E7B2B2",
"4 	c #FFC4C4",
"5 	c #E5B0B0",
"6 	c #E7ACAC",
"7 	c #FFBEBE",
"8 	c #E5AAAA",
"9 	c #E7A6A6",
"0 	c #FFB7B7",
"a 	c #E5A4A4",
"b 	c #E7A0A0",
"c 	c #FFB0B0",
"d 	c #FFB0B1",
"e 	c #E59E9E",
"f 	c #E79A9A",
"g 	c #FFAAAA",
"h 	c #E59898",
"i 	c #E79494",
"j 	c #FFA3A3",
"k 	c #E59292",
"l 	c #E78E8E",
"m 	c #FF9D9C",
"n 	c #FF9C9D",
"o 	c #FF9D9D",
"p 	c #E58C8C",
"q 	c #E78888",
"r 	c #FF9696",
"s 	c #E58686",
"t 	c #E78282",
"u 	c #FF8F8F",
"v 	c #E58080",
"w 	c #E77C7C",
"x 	c #FF8989",
"y 	c #FF8889",
"z 	c #FF8888",
"A 	c #E57B7A",
"B 	c #E77676",
"C 	c #FF8282",
"D 	c #E57574",
"E 	c #E77070",
"F 	c #FF7B7B",
"G 	c #E56F6E",
"H 	c #E76A6A",
"I 	c #FF7575",
"J 	c #FF7574",
"K 	c #FF7474",
"L 	c #E56969",
"M 	c #E76464",
"N 	c #FF6E6E",
"O 	c #E56363",
"P 	c #E75E5E",
"Q 	c #FF6767",
"R 	c #E55D5D",
"S 	c #E75858",
"T 	c #FF6161",
"U 	c #FF6160",
"V 	c #E55757",
"W 	c #E75252",
"X 	c #FF5A5A",
"Y 	c #E55151",
"Z 	c #E74C4C",
"` 	c #FF5353",
" .	c #E54B4B",
"..	c #E74646",
"+.	c #FF4D4D",
"@.	c #E54545",
"#.	c #E74040",
"$.	c #FF4646",
"%.	c #E53F3F",
"&.	c #E73A3A",
"*.	c #FF3F3F",
"=.	c #FF4040",
"-.	c #E53939",
";.	c #E73434",
">.	c #FF3939",
",.	c #FF3839",
"'.	c #E53334",
").	c #E72E2E",
"!.	c #FF3232",
"~.	c #E52E2E",
"{.	c #E72828",
"].	c #FF2B2C",
"^.	c #FF2B2B",
"/.	c #E52828",
"(.	c #E72323",
"_.	c #FF2525",
":.	c #E52223",
"<.	c #E71D1D",
"[.	c #FF1E1E",
"}.	c #E71D03",
"|.	c #0707E6",
"1.	c #0909E5",
"2.	c #0E0EE5",
"3.	c #1212E5",
"4.	c #1616E5",
"5.	c #1B1BE5",
"6.	c #2020E5",
"7.	c #2626E5",
"8.	c #2B2BE5",
"9.	c #3030E5",
"0.	c #3636E5",
"a.	c #3B3BE5",
"b.	c #4141E5",
"c.	c #4646E5",
"d.	c #4C4CE5",
"e.	c #5151E5",
"f.	c #5757E5",
"g.	c #5D5DE5",
"h.	c #6262E5",
"i.	c #6868E5",
"j.	c #6E6EE5",
"k.	c #7373E5",
"l.	c #7979E5",
"m.	c #7E7FE5",
"n.	c #8484E5",
"o.	c #8A8AE5",
"p.	c #8F8FE5",
"q.	c #9595E5",
"r.	c #9B9BE5",
"s.	c #A0A0E5",
"t.	c #A6A6E5",
"u.	c #ACACE5",
"v.	c #B1B1E5",
"w.	c #B7B7E5",
"x.	c #BDBDE5",
"y.	c #C2C2E5",
"z.	c #C8C8E5",
"A.	c #CECEE5",
"B.	c #D3D3E5",
"C.	c #D9D9E5",
"D.	c #C9C9D0",
"E.	c #E71818",
"F.	c #FF1718",
"G.	c #FF1717",
"H.	c #E71800",
"I.	c #0000FF",
"J.	c #0303FF",
"K.	c #0909FF",
"L.	c #0F0FFF",
"M.	c #1516FF",
"N.	c #1C1CFF",
"O.	c #2222FF",
"P.	c #2928FF",
"Q.	c #2F2FFF",
"R.	c #3535FF",
"S.	c #3B3BFF",
"T.	c #4242FF",
"U.	c #4848FF",
"V.	c #4E4EFF",
"W.	c #5555FF",
"X.	c #5B5BFF",
"Y.	c #6161FF",
"Z.	c #6767FF",
"`.	c #6E6EFF",
" +	c #7474FF",
".+	c #7A7AFF",
"++	c #8080FF",
"@+	c #8787FF",
"#+	c #8D8DFF",
"$+	c #9393FF",
"%+	c #9A9AFF",
"&+	c #A0A0FF",
"*+	c #A6A6FF",
"=+	c #ADADFF",
"-+	c #B3B3FF",
";+	c #B9B9FF",
">+	c #BFBFFF",
",+	c #C6C6FF",
"'+	c #CCCCFF",
")+	c #D2D2FF",
"!+	c #D8D8FF",
"~+	c #DFDFFF",
"{+	c #E5E5FF",
"]+	c #EBEBFF",
"^+	c #F2F2FF",
"/+	c #E0E0E7",
"(+	c #E71313",
"_+	c #FF1111",
":+	c #E71300",
"<+	c #1616FF",
"[+	c #2929FF",
"}+	c #8181FF",
"|+	c #D9D9FF",
"1+	c #E70E0E",
"2+	c #FF0A0A",
"3+	c #E70E00",
"4+	c #0F10FF",
"5+	c #3C3BFF",
"6+	c #9394FF",
"7+	c #A7A6FF",
"8+	c #C0C0FF",
"9+	c #ECECFF",
"0+	c #E70909",
"a+	c #FF0303",
"b+	c #FF0404",
"c+	c #FF0304",
"d+	c #E70A00",
"e+	c #1010FF",
"f+	c #2223FF",
"g+	c #3C3CFF",
"h+	c #6868FF",
"i+	c #7B7AFF",
"j+	c #9494FF",
"k+	c #D3D3FF",
"l+	c #E6E5FF",
"m+	c #E70606",
"n+	c #FF0000",
"o+	c #E70700",
"p+	c #2322FF",
"q+	c #3635FF",
"r+	c #4F4FFF",
"s+	c #A7A7FF",
"t+	c #E1E1E7",
"u+	c #D10C0C",
"v+	c #D10C00",
"w+	c #0606E9",
"x+	c #0909E7",
"y+	c #0E0EE7",
"z+	c #1212E7",
"A+	c #1717E7",
"B+	c #1C1CE7",
"C+	c #2121E7",
"D+	c #2626E7",
"E+	c #2C2CE7",
"F+	c #3131E7",
"G+	c #3737E7",
"H+	c #3C3CE7",
"I+	c #4242E7",
"J+	c #4747E7",
"K+	c #4D4DE7",
"L+	c #5353E7",
"M+	c #5858E7",
"N+	c #5E5EE7",
"O+	c #6464E7",
"P+	c #6969E7",
"Q+	c #6F6FE7",
"R+	c #7575E7",
"S+	c #7A7BE7",
"T+	c #8080E7",
"U+	c #8686E7",
"V+	c #8C8BE7",
"W+	c #9191E7",
"X+	c #9797E7",
"Y+	c #9D9DE7",
"Z+	c #A2A2E7",
"`+	c #A8A8E7",
" @	c #AEAEE7",
".@	c #B3B3E7",
"+@	c #B9B9E7",
"@@	c #BFBFE7",
"#@	c #C5C5E7",
"$@	c #CACAE7",
"%@	c #D0D0E7",
"&@	c #D6D6E7",
"*@	c #DBDBE7",
"=@	c #CBCCD1",
"                                                                                                ",
"                                                                                                ",
"                                                                                                ",
"                                                                                                ",
"                                                                                                ",
"                                                                                                ",
"                                                                                                ",
". + + @ # @ $                                                                                   ",
"% & & * & & =                                                                                   ",
"- ; ; ; ; ; >                                                                                   ",
", ' ' ' ' ' )                                                                                   ",
"! ~ ~ ~ ~ ~ {                                                                                   ",
"] ^ ^ ^ ^ ^ /                                                                                   ",
"( _ _ _ _ _ :                                                                                   ",
"< [ [ [ [ [ }                                                                                   ",
"| 1 1 1 1 1 2                                                                                   ",
"3 4 4 4 4 4 5                                                                                   ",
"6 7 7 7 7 7 8                                                                                   ",
"9 0 0 0 0 0 a                                                                                   ",
"b c c d c d e                                                                                   ",
"f g g g g g h                                                                                   ",
"i j j j j j k                                                                                   ",
"l m n n m o p                                                                                   ",
"q r r r r r s                                                                                   ",
"t u u u u u v                                                                                   ",
"w x x x y z A                                                                                   ",
"B C C C C C D                                                                                   ",
"E F F F F F G                                                                                   ",
"H I I J K J L                                                                                   ",
"M N N N N N O                                                                                   ",
"P Q Q Q Q Q R                                                                                   ",
"S T U T T T V                                                                                   ",
"W X X X X X Y                                                                                   ",
"Z ` ` ` ` `  .                                                                                  ",
"..+.+.+.+.+.@.                                                                                  ",
"#.$.$.$.$.$.%.                                                                                  ",
"&.*.*.=.*.*.-.                                                                                  ",
";.>.>.>.>.,.'.                                                                                  ",
").!.!.!.!.!.~.                                                                                  ",
"{.].].^.^.^./.                                                                                  ",
"(._._._._._.:.                                                                                  ",
"<.[.[.[.[.[.}.|.1.2.3.4.5.6.7.8.9.0.a.b.c.d.e.f.g.h.i.j.k.l.m.n.o.p.q.r.s.t.u.v.w.x.y.z.A.B.C.D.",
"E.F.G.G.G.G.H.I.J.K.L.M.N.O.P.Q.R.S.T.U.V.W.X.Y.Z.`. +.+++@+#+$+%+&+*+=+-+;+>+,+'+)+!+~+{+]+^+/+",
"(+_+_+_+_+_+:+I.J.K.L.<+N.O.[+Q.R.S.T.U.V.W.X.Y.Z.`. +.+}+@+#+$+%+&+*+=+-+;+>+,+'+)+|+~+{+]+^+/+",
"1+2+2+2+2+2+3+I.J.K.4+<+N.O.[+Q.R.5+T.U.V.W.X.Y.Z.`. +.+}+@+#+6+%+&+7+=+-+;+8+,+'+)+|+~+{+9+^+/+",
"0+a+b+b+c+a+d+I.J.K.e+<+N.f+[+Q.R.g+T.U.V.W.X.Y.h+`. +i+}+@+#+j+%+&+7+=+-+;+8+,+'+k+|+~+l+9+^+/+",
"m+n+n+n+n+n+o+I.J.K.e+<+N.p+[+Q.q+g+T.U.r+W.X.Y.h+`. +i+}+@+#+j+%+&+s+=+-+;+8+,+'+k+|+~+{+9+^+t+",
"u+m+m+m+m+m+v+w+x+y+z+A+B+C+D+E+F+G+H+I+J+K+L+M+N+O+P+Q+R+S+T+U+V+W+X+Y+Z+`+ @.@+@@@#@$@%@&@*@=@"};
