/* XPM */
static char * panelMoveZp_xpm[] = {
"48 48 221 2",
"  	c None",
". 	c #C80D0D",
"+ 	c #FF0000",
"@ 	c #D60B0B",
"# 	c #DE0808",
"$ 	c #F00404",
"% 	c #EF0404",
"& 	c #EA0505",
"* 	c #F40101",
"= 	c #DB0707",
"- 	c #F60000",
"; 	c #DC0707",
"> 	c #CC0A0A",
", 	c #ED0101",
"' 	c #DB0606",
") 	c #F10000",
"! 	c #F00000",
"~ 	c #C90A0A",
"{ 	c #E10303",
"] 	c #D20707",
"^ 	c #EB0000",
"/ 	c #EA0000",
"( 	c #B70D0D",
"_ 	c #B80C0C",
": 	c #E50000",
"< 	c #CC0707",
"[ 	c #E00101",
"} 	c #CC0606",
"| 	c #CD0606",
"1 	c #DB0101",
"2 	c #DF0000",
"3 	c #DE0000",
"4 	c #D40303",
"5 	c #DA0000",
"6 	c #C20707",
"7 	c #D90000",
"8 	c #D80000",
"9 	c #C90505",
"0 	c #B80909",
"a 	c #CB0303",
"b 	c #C80404",
"c 	c #D40000",
"d 	c #D30000",
"e 	c #B90808",
"f 	c #CB0101",
"g 	c #B70707",
"h 	c #CE0000",
"i 	c #CD0000",
"j 	c #BF0505",
"k 	c #A80B0B",
"l 	c #C60101",
"m 	c #B50707",
"n 	c #C80000",
"o 	c #C70000",
"p 	c #C00303",
"q 	c #A40C0C",
"r 	c #B90303",
"s 	c #AF0707",
"t 	c #C10000",
"u 	c #C20000",
"v 	c #AA0808",
"w 	c #940D0D",
"x 	c #BD0000",
"y 	c #A80707",
"z 	c #BC0000",
"A 	c #A40707",
"B 	c #A90505",
"C 	c #B20202",
"D 	c #B70000",
"E 	c #B60000",
"F 	c #B10000",
"G 	c #9E0707",
"H 	c #AC0202",
"I 	c #AD0101",
"J 	c #B00000",
"K 	c #940909",
"L 	c #A60202",
"M 	c #9F0505",
"N 	c #AB0000",
"O 	c #930909",
"P 	c #9B0606",
"Q 	c #AA0000",
"R 	c #9F0303",
"S 	c #940707",
"T 	c #970606",
"U 	c #810D0D",
"V 	c #A30101",
"W 	c #960606",
"X 	c #A50000",
"Y 	c #A40000",
"Z 	c #691A1A",
"` 	c #7C0D0D",
" .	c #9D0101",
"..	c #910606",
"+.	c #9F0000",
"@.	c #9E0000",
"#.	c #780D0D",
"$.	c #970101",
"%.	c #8B0606",
"&.	c #990000",
"*.	c #730D0D",
"=.	c #910101",
"-.	c #860606",
";.	c #930000",
">.	c #6F0D0D",
",.	c #8B0101",
"'.	c #810606",
").	c #8D0000",
"!.	c #6A0D0D",
"~.	c #860101",
"{.	c #7B0606",
"].	c #870000",
"^.	c #660D0D",
"/.	c #800101",
"(.	c #760606",
"_.	c #820000",
":.	c #810000",
"<.	c #610D0D",
"[.	c #7A0101",
"}.	c #710606",
"|.	c #7C0000",
"1.	c #7B0000",
"2.	c #5D0D0D",
"3.	c #740101",
"4.	c #6C0606",
"5.	c #760000",
"6.	c #750000",
"7.	c #580D0D",
"8.	c #6F0101",
"9.	c #660606",
"0.	c #700000",
"a.	c #530D0D",
"b.	c #690101",
"c.	c #610606",
"d.	c #6A0000",
"e.	c #4F0D0D",
"f.	c #630101",
"g.	c #5C0606",
"h.	c #640000",
"i.	c #4A0D0D",
"j.	c #5D0101",
"k.	c #560606",
"l.	c #5F0000",
"m.	c #5E0000",
"n.	c #460D0D",
"o.	c #580101",
"p.	c #510606",
"q.	c #590000",
"r.	c #580000",
"s.	c #420D0D",
"t.	c #520101",
"u.	c #4C0606",
"v.	c #530000",
"w.	c #520000",
"x.	c #3D0D0D",
"y.	c #4C0101",
"z.	c #460606",
"A.	c #4D0000",
"B.	c #4C0000",
"C.	c #390D0D",
"D.	c #460101",
"E.	c #410606",
"F.	c #470000",
"G.	c #340D0D",
"H.	c #410101",
"I.	c #3C0606",
"J.	c #410000",
"K.	c #300D0D",
"L.	c #3B0101",
"M.	c #370606",
"N.	c #3B0000",
"O.	c #2C0D0D",
"P.	c #350101",
"Q.	c #310606",
"R.	c #350000",
"S.	c #280D0D",
"T.	c #2F0101",
"U.	c #2C0606",
"V.	c #300000",
"W.	c #2F0000",
"X.	c #240D0D",
"Y.	c #2A0101",
"Z.	c #270606",
"`.	c #2A0000",
" +	c #290000",
".+	c #200D0D",
"++	c #240101",
"@+	c #220606",
"#+	c #240000",
"$+	c #1C0D0D",
"%+	c #1E0101",
"&+	c #1D0606",
"*+	c #1E0000",
"=+	c #190D0D",
"-+	c #190101",
";+	c #190606",
">+	c #180000",
",+	c #160D0D",
"'+	c #130101",
")+	c #140606",
"!+	c #120000",
"~+	c #130D0D",
"{+	c #0D0101",
"]+	c #100606",
"^+	c #0D0000",
"/+	c #0C0000",
"(+	c #100D0D",
"_+	c #080101",
":+	c #0B0606",
"<+	c #070000",
"[+	c #060000",
"}+	c #0E0D0D",
"|+	c #020101",
"1+	c #070606",
"2+	c #010000",
"3+	c #0D0D0D",
"4+	c #010101",
"5+	c #060606",
"6+	c #030303",
"7+	c #0B0B0B",
"8+	c #101010",
"                                              .                                                 ",
"                                              + @                                               ",
"                                            # $ % &                                             ",
"                                            * = - - ;                                           ",
"                                          > , ' ) ) ! ~                                         ",
"                                          { ] ^ ^ ^ / / (                                       ",
"                                        _ : < : : : : : [                                       ",
"                                        } | 1 2 2 2 2 2 3 4                                     ",
"                                        5 6 5 7 7 7 7 7 7 8 9                                   ",
"                                      0 a b c c d d d d d d d e                                 ",
"                                      f g h h h h i i i i i j                                   ",
"                                    k l m n n n n o o o p q                                     ",
"                                    r s t u u u u u u v                                         ",
"                                  w x y x z z z z z z                                           ",
"                                  A B C D E E E E E E                                           ",
"                                  F G F F H I J J J J                                           ",
"                                K L M N O P P Q Q Q Q                                           ",
"                                R S T   U V W X X Y Y                                           ",
"                                  Z     `  ...+.+.+.@.                                          ",
"                                        #.$.%.&.&.&.&.                                          ",
"                                        *.=.-.;.;.;.;.                                          ",
"                                        >.,.'.).).).).                                          ",
"                                        !.~.{.].].].].                                          ",
"                                        ^./.(._._.:.:.                                          ",
"                                        <.[.}.|.|.1.1.                                          ",
"                                        2.3.4.5.5.5.6.                                          ",
"                                        7.8.9.0.0.0.0.                                          ",
"                                        a.b.c.d.d.d.d.                                          ",
"                                        e.f.g.h.h.h.h.                                          ",
"                                        i.j.k.l.m.m.m.                                          ",
"                                        n.o.p.q.r.r.r.                                          ",
"                                        s.t.u.v.v.w.w.                                          ",
"                                        x.y.z.A.A.A.B.                                          ",
"                                        C.D.E.F.F.F.F.                                          ",
"                                        G.H.I.J.J.J.J.                                          ",
"                                        K.L.M.N.N.N.N.                                          ",
"                                        O.P.Q.R.R.R.R.                                          ",
"                                        S.T.U.V.V.W.W.                                          ",
"                                        X.Y.Z.`.`. + +                                          ",
"                                        .+++@+#+#+#+#+                                          ",
"                                        $+%+&+*+*+*+*+                                          ",
"                                        =+-+;+>+>+>+>+                                          ",
"                                        ,+'+)+!+!+!+!+                                          ",
"                                        ~+{+]+^+/+/+/+                                          ",
"                                        (+_+:+<+[+[+<+                                          ",
"                                        }+|+1+2+2+1+                                            ",
"                                        3+4+5+6+3+                                              ",
"                                          7+8+                                                  "};
