/* XPM */
static char * panelResize4_xpm[] = {
"48 48 353 2",
"  	c None",
". 	c #00FF00",
"+ 	c #E2EAE2",
"@ 	c #F6FFF6",
"# 	c #D9E6D9",
"$ 	c #C9DEC9",
"% 	c #E5FCE5",
"& 	c #E5FFE5",
"* 	c #E2FFE2",
"= 	c #DFFFDF",
"- 	c #DBFEDB",
"; 	c #BFE4BF",
"> 	c #B1D2B1",
", 	c #D2F6D2",
"' 	c #D7FFD7",
") 	c #D4FFD4",
"! 	c #D1FFD1",
"~ 	c #CEFFCE",
"{ 	c #CBFFCB",
"] 	c #C7FFC7",
"^ 	c #C5FFC5",
"/ 	c #C1FFC1",
"( 	c #A8E5A8",
"_ 	c #BBEDBB",
": 	c #C9FFC9",
"< 	c #C6FFC6",
"[ 	c #C3FFC3",
"} 	c #C0FFC0",
"| 	c #BDFFBD",
"1 	c #BAFFBA",
"2 	c #B7FFB7",
"3 	c #B4FFB4",
"4 	c #B1FFB0",
"5 	c #ADFFAD",
"6 	c #AAFFAA",
"7 	c #A7FFA7",
"8 	c #90E490",
"9 	c #A4E1A4",
"0 	c #BAFEBA",
"a 	c #B8FFB8",
"b 	c #B5FFB5",
"c 	c #B2FFB2",
"d 	c #AFFFAF",
"e 	c #ACFFAC",
"f 	c #A9FFA9",
"g 	c #A6FFA6",
"h 	c #A3FFA2",
"i 	c #9FFFA0",
"j 	c #9CFF9C",
"k 	c #99FF99",
"l 	c #96FF96",
"m 	c #93FF93",
"n 	c #90FF90",
"o 	c #8DFF8D",
"p 	c #78E378",
"q 	c #8FD68F",
"r 	c #A7F7A7",
"s 	c #A4FFA4",
"t 	c #A1FFA1",
"u 	c #9EFF9E",
"v 	c #9BFF9B",
"w 	c #98FF98",
"x 	c #95FF95",
"y 	c #91FF92",
"z 	c #8EFF8E",
"A 	c #8BFF8B",
"B 	c #88FF88",
"C 	c #85FF85",
"D 	c #82FF82",
"E 	c #7FFF7F",
"F 	c #7CFF7C",
"G 	c #79FF79",
"H 	c #76FF76",
"I 	c #73FF73",
"J 	c #61E361",
"K 	c #94F094",
"L 	c #8AFF8A",
"M 	c #87FF87",
"N 	c #83FF84",
"O 	c #80FF81",
"P 	c #7DFF7D",
"Q 	c #7BFF7A",
"R 	c #77FF77",
"S 	c #74FF74",
"T 	c #71FF71",
"U 	c #6EFF6E",
"V 	c #6BFF6B",
"W 	c #68FF68",
"X 	c #65FF65",
"Y 	c #62FF62",
"Z 	c #5FFF5F",
"` 	c #5CFF5C",
" .	c #59FE59",
"..	c #4AE34A",
"+.	c #EDEDEF",
"@.	c #F3F3FB",
"#.	c #C1DAD0",
"$.	c #8CE793",
"%.	c #72FF73",
"&.	c #70FF70",
"*.	c #6DFF6D",
"=.	c #69FF69",
"-.	c #66FF67",
";.	c #63FF63",
">.	c #60FF60",
",.	c #5DFF5D",
"'.	c #5AFF5A",
").	c #57FF57",
"!.	c #54FF54",
"~.	c #51FF51",
"{.	c #4EFF4E",
"].	c #4BFF4B",
"^.	c #48FF48",
"/.	c #45FF45",
"(.	c #42FF42",
"_.	c #3FFE3F",
":.	c #33E233",
"<.	c #E3E3E3",
"[.	c #FBFBFE",
"}.	c #F2F2FF",
"|.	c #E7E7FF",
"1.	c #DDDDFF",
"2.	c #D0D0FC",
"3.	c #A5C2D1",
"4.	c #74E186",
"5.	c #58FF59",
"6.	c #56FF55",
"7.	c #52FF52",
"8.	c #4FFF4F",
"9.	c #4CFF4C",
"0.	c #49FF49",
"a.	c #46FF46",
"b.	c #43FF43",
"c.	c #40FF40",
"d.	c #3DFF3D",
"e.	c #3AFF3A",
"f.	c #37FF37",
"g.	c #34FF34",
"h.	c #31FF31",
"i.	c #2EFF2E",
"j.	c #2BFF2B",
"k.	c #28FF28",
"l.	c #25FE25",
"m.	c #1DE31D",
"n.	c #D8D8D8",
"o.	c #F7F7F8",
"p.	c #F7F7FF",
"q.	c #EDEDFF",
"r.	c #E2E2FF",
"s.	c #D8D8FF",
"t.	c #CDCDFF",
"u.	c #C3C3FF",
"v.	c #B8B8FF",
"w.	c #ACADFD",
"x.	c #83B2C9",
"y.	c #58E370",
"z.	c #47FF47",
"A.	c #44FF44",
"B.	c #41FF41",
"C.	c #3EFF3E",
"D.	c #3BFF3B",
"E.	c #38FF38",
"F.	c #35FF35",
"G.	c #32FF32",
"H.	c #2FFF2F",
"I.	c #2CFF2C",
"J.	c #29FF29",
"K.	c #26FF26",
"L.	c #23FF23",
"M.	c #20FF20",
"N.	c #1DFF1D",
"O.	c #1AFF1A",
"P.	c #17FF17",
"Q.	c #14FF14",
"R.	c #11FF11",
"S.	c #0EFF0E",
"T.	c #0BFE0B",
"U.	c #0BE30B",
"V.	c #C5C6C6",
"W.	c #F1F1F5",
"X.	c #D2D2FF",
"Y.	c #C8C8FF",
"Z.	c #BDBDFF",
"`.	c #B3B3FF",
" +	c #A8A8FF",
".+	c #9E9EFF",
"++	c #9494FF",
"@+	c #8787FB",
"#+	c #659DCA",
"$+	c #40DE6A",
"%+	c #36FF37",
"&+	c #34FF33",
"*+	c #2AFF2A",
"=+	c #27FF27",
"-+	c #24FF24",
";+	c #21FF21",
">+	c #1EFF1E",
",+	c #1BFF1B",
"'+	c #18FF18",
")+	c #15FF15",
"!+	c #12FF12",
"~+	c #0FFF0F",
"{+	c #0CFF0C",
"]+	c #09FF09",
"^+	c #06FF06",
"/+	c #04FF04",
"(+	c #02FF02",
"_+	c #01FF01",
":+	c #01FD01",
"<+	c #08E208",
"[+	c #C9C9CF",
"}+	c #DFDFF1",
"|+	c #CDCDE7",
"1+	c #CECEF3",
"2+	c #AEAEFF",
"3+	c #A3A3FF",
"4+	c #9999FF",
"5+	c #8E8EFF",
"6+	c #8484FF",
"7+	c #7979FF",
"8+	c #6F6FFF",
"9+	c #6363FC",
"0+	c #478DCB",
"a+	c #28DE61",
"b+	c #0AFF0A",
"c+	c #07FF07",
"d+	c #05FF05",
"e+	c #03FF03",
"f+	c #00FE00",
"g+	c #07E407",
"h+	c #BBBBE1",
"i+	c #B7B7EA",
"j+	c #AAAAE5",
"k+	c #ACACF6",
"l+	c #9393FF",
"m+	c #8989FF",
"n+	c #7E7EFF",
"o+	c #7474FF",
"p+	c #6969FF",
"q+	c #5F5FFF",
"r+	c #5555FF",
"s+	c #4A4AFF",
"t+	c #3F3FFB",
"u+	c #288BC5",
"v+	c #10DF58",
"w+	c #01FC01",
"x+	c #08E108",
"y+	c #9B9BE2",
"z+	c #9999F0",
"A+	c #8A8AE7",
"B+	c #8989F5",
"C+	c #6464FF",
"D+	c #5A5AFF",
"E+	c #4F4FFF",
"F+	c #4545FF",
"G+	c #3A3AFF",
"H+	c #3030FF",
"I+	c #2626FF",
"J+	c #1B1BFB",
"K+	c #0E84C8",
"L+	c #06E056",
"M+	c #00FD00",
"N+	c #08E308",
"O+	c #7B7BE2",
"P+	c #7676F0",
"Q+	c #6868E5",
"R+	c #6666F5",
"S+	c #5454FF",
"T+	c #4040FF",
"U+	c #3535FF",
"V+	c #2B2BFF",
"W+	c #2020FF",
"X+	c #1616FF",
"Y+	c #0B0BFF",
"Z+	c #0202FF",
"`+	c #0101FB",
" @	c #0685C7",
".@	c #05E056",
"+@	c #02F902",
"@@	c #0FBC0F",
"#@	c #5A5AE1",
"$@	c #5252EC",
"%@	c #4848E7",
"&@	c #4343F6",
"*@	c #2525FF",
"=@	c #1B1BFF",
"-@	c #1111FF",
";@	c #0606FF",
">@	c #0101FF",
",@	c #0000FF",
"'@	c #0102FA",
")@	c #0688C5",
"!@	c #05E251",
"~@	c #06EA06",
"{@	c #05ED05",
"]@	c #09DF09",
"^@	c #3A3AE3",
"/@	c #3232F0",
"(@	c #2828E7",
"_@	c #2020F6",
":@	c #0101FA",
"<@	c #068AC4",
"[@	c #04F204",
"}@	c #06E706",
"|@	c #03F303",
"1@	c #0BD30B",
"2@	c #1C1CE2",
"3@	c #1212EE",
"4@	c #0C0CE5",
"5@	c #0303F5",
"6@	c #0687C5",
"7@	c #05E352",
"8@	c #02F702",
"9@	c #08DF08",
"0@	c #0808E0",
"a@	c #0505EF",
"b@	c #0606E7",
"c@	c #0202F7",
"d@	c #0200F9",
"e@	c #068FC0",
"f@	c #05E44B",
"g@	c #06E806",
"h@	c #04F004",
"i@	c #06EB06",
"j@	c #0808E3",
"k@	c #0505EE",
"l@	c #0200FA",
"m@	c #068CC2",
"n@	c #05E055",
"o@	c #05EF05",
"p@	c #03F403",
"q@	c #0CCF0C",
"r@	c #0808E1",
"s@	c #0505ED",
"t@	c #0100FB",
"u@	c #05E747",
"v@	c #03F603",
"w@	c #09DC09",
"x@	c #0202F8",
"y@	c #0200F7",
"z@	c #0D9990",
"A@	c #04F104",
"B@	c #0808E2",
"C@	c #0606EB",
"D@	c #0606E9",
"E@	c #0705E7",
"F@	c #0EC30E",
"G@	c #0909DB",
"H@	c #0202F9",
"I@	c #0404F2",
"J@	c #0808DF",
"K@	c #0505EC",
"L@	c #0C0CD0",
"                                                                                                ",
"                                                                                                ",
"                                                                                                ",
"                                                                                                ",
"                                                                                                ",
"                                                                                                ",
"                                                                                                ",
"                                                                                                ",
"                                      . . . . . . . . . . . . . . . . . . . . . . . . .         ",
"                                      . . . . . . . . . . . . . . . . . . . . . . . . .         ",
"                                        . . . . . . . . . . . . . . . . . . . . . . .           ",
"                                                                                                ",
"                                                                                                ",
"                                                                                                ",
"                                                                                                ",
"                                                                                                ",
"                                                                                                ",
"                                                                                                ",
"                                                                                                ",
"                                                                                                ",
"                                                                                                ",
"                                  + @ #                                                         ",
"                              $ % & * = - ;                                                     ",
"                          > , ' ) ! ~ { ] ^ / (                                                 ",
"                        _ : < [ } | 1 2 3 4 5 6 7 8                                             ",
"                    9 0 a b c d e f g h i j k l m n o p                                         ",
"                q r 6 7 s t u v w x y z A B C D E F G H I J                                     ",
"              K j k l m n o L M N O P Q R S T U V W X Y Z `  ...                                ",
"          +.@.#.$.C D E F G H %.&.*.=.-.;.>.,.'.).!.~.{.].^./.(._.:.                            ",
"      <.[.}.|.1.2.3.4.V W X Y Z ` 5.6.7.8.9.0.a.b.c.d.e.f.g.h.i.j.k.l.m.                        ",
"  n.o.p.q.r.s.t.u.v.w.x.y.~.{.].z.A.B.C.D.E.F.G.H.I.J.K.L.M.N.O.P.Q.R.S.T.U.                    ",
"V.W.}.|.1.X.Y.Z.`. +.+++@+#+$+%+&+h.i.*+=+-+;+>+,+'+)+!+~+{+]+^+/+(+_+. . . :+<+                ",
"[+}+|+1+t.u.v.2+3+4+5+6+7+8+9+0+a+N.O.P.Q.R.S.b+c+d+e+_+_+. . . . . . . . . . . f+g+            ",
"    h+i+j+k+ +.+l+m+n+o+p+q+r+s+t+u+v+/+(+_+. . . . . . . . . . . . . . . . . . . . w+x+        ",
"        y+z+A+B+6+7+8+C+D+E+F+G+H+I+J+K+L+. . . . . . . . . . . . . . . . . . . . . . . M+N+    ",
"            O+P+Q+R+q+S+s+T+U+V+W+X+Y+Z+`+ @.@. . . . . . . . . . . . . . . . . . . . . . . +@@@",
"                #@$@%@&@G+H+*@=@-@;@>@,@,@,@'@)@!@. . . . . . . . . . . . . . . . . . . . ~@{@]@",
"                    ^@/@(@_@X+Y+Z+,@,@,@,@,@,@,@:@<@!@. . . . . . . . . . . . . . . . [@}@|@1@  ",
"                        2@3@4@5@,@,@,@,@,@,@,@,@,@,@:@6@7@. . . . . . . . . . . . 8@}@|@9@      ",
"                            0@a@b@c@,@,@,@,@,@,@,@,@,@,@d@e@f@. . . . . . . . . g@h@i@          ",
"                                j@k@b@c@,@,@,@,@,@,@,@,@,@,@l@m@n@. . . . . o@}@p@q@            ",
"                                    r@s@0@5@,@,@,@,@,@,@,@,@,@,@t@6@u@. v@}@v@w@                ",
"                                        j@s@b@x@,@,@,@,@,@,@,@,@,@,@y@z@A@}@                    ",
"                                            B@k@b@x@,@,@,@,@,@,@,@C@D@E@F@                      ",
"                                                B@D@G@H@,@,@,@I@b@:@J@                          ",
"                                                    j@s@b@I@b@5@K@                              ",
"                                                        j@0@5@L@                                ",
"                                                                                                "};
