/* XPM */
static char * panelZY_xpm[] = {
"48 48 446 2",
"  	c None",
". 	c #0707E5",
"+ 	c #0808E1",
"@ 	c #0605EB",
"# 	c #0808E8",
"$ 	c #0B0BE1",
"% 	c #0A0AD9",
"& 	c #0505ED",
"* 	c #0707E8",
"= 	c #0505FA",
"- 	c #0808FF",
"; 	c #1010E0",
"> 	c #0404EF",
", 	c #0606E9",
"' 	c #0606F2",
") 	c #0707FF",
"! 	c #0B0BFF",
"~ 	c #0F0FFF",
"{ 	c #1414E0",
"] 	c #0606E7",
"^ 	c #0505EE",
"/ 	c #0707EB",
"( 	c #0505FF",
"_ 	c #0A0AFF",
": 	c #0E0EFF",
"< 	c #1212FF",
"[ 	c #1616FF",
"} 	c #1919E0",
"| 	c #0909DE",
"1 	c #0707E9",
"2 	c #0506FB",
"3 	c #0C0DFF",
"4 	c #1111FF",
"5 	c #1515FF",
"6 	c #1919FF",
"7 	c #1D1DFF",
"8 	c #1E1FE0",
"9 	c #0B0BD4",
"0 	c #0505EC",
"a 	c #0606F6",
"b 	c #0C0CFF",
"c 	c #1010FF",
"d 	c #1414FF",
"e 	c #1818FF",
"f 	c #1C1CFF",
"g 	c #2020FF",
"h 	c #2424FF",
"i 	c #2424E0",
"j 	c #0606E8",
"k 	c #0606F1",
"l 	c #0606FF",
"m 	c #0E0FFF",
"n 	c #1312FF",
"o 	c #1717FF",
"p 	c #1B1BFF",
"q 	c #1F1FFF",
"r 	c #2323FF",
"s 	c #2727FF",
"t 	c #2B2BFF",
"u 	c #2A2AE0",
"v 	c #0808E2",
"w 	c #0707EC",
"x 	c #0909FF",
"y 	c #0D0DFF",
"z 	c #1A19FF",
"A 	c #1E1EFF",
"B 	c #2222FF",
"C 	c #2626FF",
"D 	c #2A2AFF",
"E 	c #2E2EFF",
"F 	c #3232FF",
"G 	c #3030E0",
"H 	c #1212AA",
"I 	c #0505EB",
"J 	c #0505FC",
"K 	c #2021FF",
"L 	c #2525FF",
"M 	c #2829FF",
"N 	c #2D2DFF",
"O 	c #3131FF",
"P 	c #3535FF",
"Q 	c #3939FF",
"R 	c #3636E0",
"S 	c #0909E0",
"T 	c #0909E7",
"U 	c #1313FF",
"V 	c #2827FF",
"W 	c #2C2BFF",
"X 	c #3030FF",
"Y 	c #3434FF",
"Z 	c #3838FF",
"` 	c #3C3CFF",
" .	c #4040FF",
"..	c #3C3CE0",
"+.	c #0D0DE0",
"@.	c #0E0EE8",
"#.	c #1A1AFF",
"$.	c #2F2FFF",
"%.	c #3332FF",
"&.	c #3737FF",
"*.	c #3B3BFF",
"=.	c #3F3FFF",
"-.	c #4343FF",
";.	c #4747FF",
">.	c #4241E0",
",.	c #1111E0",
"'.	c #1313E8",
").	c #2121FF",
"!.	c #2929FF",
"~.	c #3635FF",
"{.	c #3A3AFF",
"].	c #3E3EFF",
"^.	c #4242FF",
"/.	c #4646FF",
"(.	c #4A4AFF",
"_.	c #4E4EFF",
":.	c #4747E0",
"<.	c #1616E0",
"[.	c #1818E8",
"}.	c #2828FF",
"|.	c #2C2CFF",
"1.	c #3938FF",
"2.	c #3D3DFF",
"3.	c #4141FF",
"4.	c #4545FF",
"5.	c #4949FF",
"6.	c #4D4DFF",
"7.	c #5151FF",
"8.	c #5555FF",
"9.	c #4E4EE0",
"0.	c #1B1BE0",
"a.	c #1E1EE8",
"b.	c #3333FF",
"c.	c #4848FF",
"d.	c #4C4CFF",
"e.	c #5050FF",
"f.	c #5454FF",
"g.	c #5858FF",
"h.	c #5C5CFF",
"i.	c #5454E0",
"j.	c #2020E0",
"k.	c #2424E8",
"l.	c #3636FF",
"m.	c #4746FF",
"n.	c #4B4BFF",
"o.	c #4E4FFF",
"p.	c #5353FF",
"q.	c #5757FF",
"r.	c #5B5BFF",
"s.	c #5F5FFF",
"t.	c #6363FF",
"u.	c #5A5AE0",
"v.	c #2626E0",
"w.	c #2A2AE8",
"x.	c #5252FF",
"y.	c #5656FF",
"z.	c #5A5AFF",
"A.	c #5E5EFF",
"B.	c #6262FF",
"C.	c #6666FF",
"D.	c #6A6AFF",
"E.	c #6060E0",
"F.	c #2C2CE0",
"G.	c #3030E8",
"H.	c #4444FF",
"I.	c #5455FF",
"J.	c #5958FF",
"K.	c #5D5DFF",
"L.	c #6161FF",
"M.	c #6565FF",
"N.	c #6969FF",
"O.	c #6D6DFF",
"P.	c #7171FF",
"Q.	c #6666E0",
"R.	c #3232E0",
"S.	c #3636E8",
"T.	c #4F4FFF",
"U.	c #6060FF",
"V.	c #6464FF",
"W.	c #6868FF",
"X.	c #6C6CFF",
"Y.	c #7070FF",
"Z.	c #7474FF",
"`.	c #7878FF",
" +	c #6C6CE0",
".+	c #3838E0",
"++	c #3D3DE8",
"@+	c #5E5FFF",
"#+	c #6362FF",
"$+	c #6767FF",
"%+	c #6B6BFF",
"&+	c #6F6FFF",
"*+	c #7373FF",
"=+	c #7777FF",
"-+	c #7B7BFF",
";+	c #7F7FFF",
">+	c #7272E0",
",+	c #3E3EE0",
"'+	c #4343E8",
")+	c #5959FF",
"!+	c #6566FF",
"~+	c #6A69FF",
"{+	c #6E6EFF",
"]+	c #7272FF",
"^+	c #7676FF",
"/+	c #7A7AFF",
"(+	c #7E7EFF",
"_+	c #8282FF",
":+	c #8686FF",
"<+	c #7978E0",
"[+	c #4444E0",
"}+	c #4949E8",
"|+	c #6C6DFF",
"1+	c #7170FF",
"2+	c #7575FF",
"3+	c #7979FF",
"4+	c #7D7DFF",
"5+	c #8181FF",
"6+	c #8585FF",
"7+	c #8989FF",
"8+	c #8D8DFF",
"9+	c #7F7FE0",
"0+	c #4A4AE0",
"a+	c #5050E8",
"b+	c #7C7CFF",
"c+	c #8080FF",
"d+	c #8484FF",
"e+	c #8888FF",
"f+	c #8C8CFF",
"g+	c #9090FF",
"h+	c #9494FF",
"i+	c #8585E0",
"j+	c #5050E0",
"k+	c #5656E8",
"l+	c #7776FF",
"m+	c #7A7BFF",
"n+	c #7F7EFF",
"o+	c #8383FF",
"p+	c #8787FF",
"q+	c #8B8BFF",
"r+	c #8F8FFF",
"s+	c #9393FF",
"t+	c #9797FF",
"u+	c #9B9BFF",
"v+	c #8B8BE0",
"w+	c #5656E0",
"x+	c #5C5CE8",
"y+	c #8685FF",
"z+	c #8A8AFF",
"A+	c #8E8EFF",
"B+	c #9292FF",
"C+	c #9696FF",
"D+	c #9A9AFF",
"E+	c #9E9EFF",
"F+	c #A2A2FF",
"G+	c #9191E0",
"H+	c #5C5CE0",
"I+	c #6363E8",
"J+	c #9191FF",
"K+	c #9595FF",
"L+	c #9999FF",
"M+	c #9D9DFF",
"N+	c #A1A1FF",
"O+	c #A5A5FF",
"P+	c #A9A9FF",
"Q+	c #9797E0",
"R+	c #6262E0",
"S+	c #6969E8",
"T+	c #8B8CFF",
"U+	c #9898FF",
"V+	c #9C9CFF",
"W+	c #A0A0FF",
"X+	c #A4A4FF",
"Y+	c #A8A8FF",
"Z+	c #ACACFF",
"`+	c #B0B0FF",
" @	c #9E9EE0",
".@	c #6868E0",
"+@	c #6F6FE8",
"@@	c #9796FF",
"#@	c #9F9FFF",
"$@	c #A3A3FF",
"%@	c #A7A7FF",
"&@	c #ABABFF",
"*@	c #AFAFFF",
"=@	c #B3B3FF",
"-@	c #B7B7FF",
";@	c #A4A4E0",
">@	c #6E6EE0",
",@	c #7676E8",
"'@	c #9695FF",
")@	c #9E9DFF",
"!@	c #A6A6FF",
"~@	c #AAAAFF",
"{@	c #AEAEFF",
"]@	c #B2B2FF",
"^@	c #B6B6FF",
"/@	c #BABAFF",
"(@	c #BEBEFF",
"_@	c #AAAAE0",
":@	c #7575E0",
"<@	c #7C7CE8",
"[@	c #A0A1FF",
"}@	c #ADADFF",
"|@	c #B1B1FF",
"1@	c #B5B5FF",
"2@	c #B9B9FF",
"3@	c #BDBDFF",
"4@	c #C1C1FF",
"5@	c #C5C5FF",
"6@	c #B0B0E0",
"7@	c #7B7BE0",
"8@	c #8383E8",
"9@	c #B4B4FF",
"0@	c #B8B8FF",
"a@	c #BCBCFF",
"b@	c #C0C0FF",
"c@	c #C4C4FF",
"d@	c #C8C8FF",
"e@	c #CCCCFF",
"f@	c #B6B6E0",
"g@	c #8181E0",
"h@	c #8989E8",
"i@	c #AEAFFF",
"j@	c #BBBBFF",
"k@	c #BFBFFF",
"l@	c #C3C3FF",
"m@	c #C7C7FF",
"n@	c #CBCBFF",
"o@	c #CFCFFF",
"p@	c #D3D3FF",
"q@	c #BCBCE0",
"r@	c #8787E0",
"s@	c #8F8FE8",
"t@	c #C2C2FF",
"u@	c #C6C6FF",
"v@	c #CACAFF",
"w@	c #CECEFF",
"x@	c #D2D2FF",
"y@	c #D6D6FF",
"z@	c #DADAFF",
"A@	c #C3C3E0",
"B@	c #8D8DE0",
"C@	c #9696E8",
"D@	c #B4B5FF",
"E@	c #B8B9FF",
"F@	c #BCBDFF",
"G@	c #C9C9FF",
"H@	c #CDCDFF",
"I@	c #D1D1FF",
"J@	c #D5D5FF",
"K@	c #D9D9FF",
"L@	c #DDDDFF",
"M@	c #E1E1FF",
"N@	c #C9C9E0",
"O@	c #9394E0",
"P@	c #9C9CE8",
"Q@	c #D0D0FF",
"R@	c #D4D4FF",
"S@	c #D8D8FF",
"T@	c #DCDCFF",
"U@	c #E0E0FF",
"V@	c #E4E4FF",
"W@	c #E8E8FF",
"X@	c #CFCFE0",
"Y@	c #9A99E0",
"Z@	c #A3A3E8",
"`@	c #C2C3FF",
" #	c #D7D7FF",
".#	c #DBDBFF",
"+#	c #DFDFFF",
"@#	c #E3E3FF",
"##	c #E7E7FF",
"$#	c #EBEBFF",
"%#	c #EFEFFF",
"&#	c #D5D5E0",
"*#	c #A0A0E0",
"=#	c #A9A9E8",
"-#	c #CECDFF",
";#	c #DEDEFF",
">#	c #E2E2FF",
",#	c #E6E6FF",
"'#	c #EAEAFF",
")#	c #EEEEFF",
"!#	c #F2F2FF",
"~#	c #F6F6FF",
"{#	c #DBDBE0",
"]#	c #A6A6E0",
"^#	c #AFAFE8",
"/#	c #D1D0FF",
"(#	c #D4D5FF",
"_#	c #E5E5FF",
":#	c #E9E9FF",
"<#	c #EDEDFF",
"[#	c #F1F1FF",
"}#	c #F5F5FF",
"|#	c #F9F9FF",
"1#	c #FDFDFF",
"2#	c #E0E0E0",
"3#	c #ACACE0",
"4#	c #B6B6E8",
"5#	c #DBDCFF",
"6#	c #ECECFF",
"7#	c #F0F0FF",
"8#	c #F4F4FF",
"9#	c #F8F8FF",
"0#	c #FCFCFF",
"a#	c #FFFFFF",
"b#	c #FBFBFB",
"c#	c #CACACA",
"d#	c #B2B2E0",
"e#	c #BCBCE8",
"f#	c #D6D7FF",
"g#	c #E2E3FF",
"h#	c #F3F3FF",
"i#	c #F7F7FF",
"j#	c #FBFBFF",
"k#	c #FEFEFF",
"l#	c #E2E2E2",
"m#	c #B9B8E0",
"n#	c #C3C3E8",
"o#	c #FAFAFF",
"p#	c #ECECEC",
"q#	c #BEBFE0",
"r#	c #C9C9E8",
"s#	c #FCFDFF",
"t#	c #F4F4F4",
"u#	c #D4D4D4",
"v#	c #C5C5E0",
"w#	c #CFCFE8",
"x#	c #DEDEDE",
"y#	c #CBCBE0",
"z#	c #D6D6E8",
"A#	c #F6F7FF",
"B#	c #E7E7E7",
"C#	c #D1D1E0",
"D#	c #DCDCE8",
"E#	c #F1F1F1",
"F#	c #D7D8E0",
"G#	c #E3E3E8",
"H#	c #F7F7F7",
"I#	c #D9D9D9",
"J#	c #DEDDE0",
"K#	c #E8E8E8",
"L#	c #E1E1E1",
"M#	c #CDCDCD",
"                                                              .                                 ",
"                                                          + @ # $                               ",
"                                                      % & * = - ;                               ",
"                                                    > , ' ) ! ~ {                               ",
"                                                ] ^ / ( _ : < [ }                               ",
"                                            | ^ 1 2 - 3 4 5 6 7 8                               ",
"                                        9 0 * a ) b c d e f g h i                               ",
"                                      , j k l _ m n o p q r s t u                               ",
"                                  v 0 w ( x y 4 5 z A B C D E F G                               ",
"                              H I * J - b c d e f K L M N O P Q R                               ",
"                              S T ) ! ~ U o p q h V W X Y Z `  ...                              ",
"                              +.@.: < [ #.A B C t $.%.&.*.=.-.;.>.                              ",
"                              ,.'.5 6 7 ).L !.N O ~.{.].^./.(._.:.                              ",
"                              <.[.f g h }.|.X Y 1.2.3.4.5.6.7.8.9.                              ",
"                              0.a.r s t $.b.&.*.=.-.c.d.e.f.g.h.i.                              ",
"                              j.k.D E F l.{.].^.m.n.o.p.q.r.s.t.u.                              ",
"                              v.w.O P Q 2.3.4.(.6.x.y.z.A.B.C.D.E.                              ",
"                              F.G.Z `  .H.c.d.e.I.J.K.L.M.N.O.P.Q.                              ",
"                              R.S.=.-.;.n.T.p.q.h.U.V.W.X.Y.Z.`. +                              ",
"                              .+++/.(._.x.y.z.@+#+$+%+&+*+=+-+;+>+                              ",
"                              ,+'+6.7.8.)+K.L.!+~+{+]+^+/+(+_+:+<+                              ",
"                              [+}+f.g.h.U.V.W.|+1+2+3+4+5+6+7+8+9+                              ",
"                              0+a+r.s.t.$+%+&+*+`.b+c+d+e+f+g+h+i+                              ",
"                              j+k+B.C.D.{+]+l+m+n+o+p+q+r+s+t+u+v+                              ",
"                              w+x+N.O.P.2+3+4+_+y+z+A+B+C+D+E+F+G+                              ",
"                              H+I+Y.Z.`.b+c+d+7+8+J+K+L+M+N+O+P+Q+                              ",
"                              R+S+=+-+;+o+p+T+r+h+U+V+W+X+Y+Z+`+ @                              ",
"                              .@+@(+_+:+z+A+s+@@u+#@$@%@&@*@=@-@;@                              ",
"                              >@,@6+7+8+J+'@D+)@F+!@~@{@]@^@/@(@_@                              ",
"                              :@<@f+g+h+U+M+[@O+P+}@|@1@2@3@4@5@6@                              ",
"                              7@8@s+t+u+#@$@Y+Z+`+9@0@a@b@c@d@e@f@                              ",
"                              g@h@D+E+F+!@&@i@=@-@j@k@l@m@n@o@p@q@                              ",
"                              r@s@N+O+P+}@|@^@/@(@t@u@v@w@x@y@z@A@                              ",
"                              B@C@Y+Z+`+D@E@F@4@5@G@H@I@J@K@L@M@N@                              ",
"                              O@P@*@=@-@j@b@c@d@e@Q@R@S@T@U@V@W@X@                              ",
"                              Y@Z@^@/@(@`@m@n@o@p@ #.#+#@###$#%#&#                              ",
"                              *#=#3@4@5@v@-#x@y@z@;#>#,#'#)#!#~#{#                              ",
"                              ]#^#c@d@e@/#(#K@L@M@_#:#<#[#}#|#1#2#                              ",
"                              3#4#n@o@p@S@5#U@V@W@6#7#8#9#0#a#b#c#                              ",
"                              d#e#x@f#.#+#g###$#%#h#i#j#k#a#l#                                  ",
"                              m#n#K@L@>#,#'#)#!#~#o#1#a#p#                                      ",
"                              q#r#U@V@:#<#[#}#|#s#a#t#u#                                        ",
"                              v#w###$#7#8#9#0#k#b#x#                                            ",
"                              y#z#)#!#A#j#k#a#B#                                                ",
"                              C#D#}#|#1#a#E#                                                    ",
"                              F#G#0#a#H#I#                                                      ",
"                              J#K#b#L#                                                          ",
"                                M#                                                              "};
