/* XPM */
static char * panelSideRightUP_xpm[] = {
"48 48 246 2",
"  	c None",
". 	c #C3C2C2",
"+ 	c #E7E7E7",
"@ 	c #D7D3D3",
"# 	c #FFFAFA",
"$ 	c #FFFAF9",
"% 	c #D7CDCD",
"& 	c #FFF4F4",
"* 	c #FFF3F3",
"= 	c #D7C8C8",
"- 	c #FFEDED",
"; 	c #D7C2C2",
"> 	c #FFE7E7",
", 	c #FFE6E7",
"' 	c #FFE6E6",
") 	c #D7BDBD",
"! 	c #FFE0E0",
"~ 	c #D7B7B7",
"{ 	c #FFD9DA",
"] 	c #FFDADA",
"^ 	c #FFD9D9",
"/ 	c #D7B2B2",
"( 	c #FFD3D3",
"_ 	c #D7ACAC",
": 	c #FFCDCD",
"< 	c #FFCCCC",
"[ 	c #D7A7A7",
"} 	c #FFC6C6",
"| 	c #D7A1A1",
"1 	c #FFC0C0",
"2 	c #FFC0BF",
"3 	c #FFBFBF",
"4 	c #D79C9C",
"5 	c #FFB9B9",
"6 	c #D79696",
"7 	c #FFB3B3",
"8 	c #FFB3B2",
"9 	c #FFB2B2",
"0 	c #D79191",
"a 	c #FFACAC",
"b 	c #D78B8C",
"c 	c #FFA6A6",
"d 	c #FFA5A5",
"e 	c #D78686",
"f 	c #FF9F9F",
"g 	c #D78181",
"h 	c #FF9999",
"i 	c #FF9998",
"j 	c #FF9899",
"k 	c #D77B7B",
"l 	c #FF9292",
"m 	c #D77676",
"n 	c #FF8C8C",
"o 	c #FF8B8B",
"p 	c #D77070",
"q 	c #FF8585",
"r 	c #D76B6B",
"s 	c #FF7F7F",
"t 	c #FF7E7F",
"u 	c #D76566",
"v 	c #FF7878",
"w 	c #D76060",
"x 	c #FF7272",
"y 	c #FF7171",
"z 	c #D75B5A",
"A 	c #FF6B6C",
"B 	c #FF6C6C",
"C 	c #FF6B6B",
"D 	c #D75555",
"E 	c #FF6565",
"F 	c #D75050",
"G 	c #FF5F5F",
"H 	c #FF5E5E",
"I 	c #D74A4A",
"J 	c #FF5858",
"K 	c #D74545",
"L 	c #FF5252",
"M 	c #FF5251",
"N 	c #FF5151",
"O 	c #D74040",
"P 	c #FF4B4B",
"Q 	c #D73A3A",
"R 	c #FF4545",
"S 	c #FF4444",
"T 	c #D73535",
"U 	c #FF3E3E",
"V 	c #D73030",
"W 	c #FF3838",
"X 	c #FF3737",
"Y 	c #D72B2B",
"Z 	c #FF3131",
"` 	c #D72626",
" .	c #FF2B2B",
"..	c #FF2A2A",
"+.	c #D72121",
"@.	c #FF2424",
"#.	c #D71C1D",
"$.	c #FF1E1E",
"%.	c #FF1D1D",
"&.	c #D71818",
"*.	c #FF1717",
"=.	c #D71414",
"-.	c #FF1111",
";.	c #D71010",
">.	c #FF0A0A",
",.	c #D70D0D",
"'.	c #FF0404",
").	c #C90D0D",
"!.	c #F20404",
"~.	c #CCCCCC",
"{.	c #ECECED",
"].	c #E6E5ED",
"^.	c #DFDFED",
"/.	c #D9D9ED",
"(.	c #D3D3ED",
"_.	c #CDCDED",
":.	c #C7C7ED",
"<.	c #C0C0ED",
"[.	c #BABAED",
"}.	c #B4B4ED",
"|.	c #AEAEED",
"1.	c #A8A8ED",
"2.	c #A2A2ED",
"3.	c #9B9BED",
"4.	c #9595ED",
"5.	c #8F8FED",
"6.	c #8989ED",
"7.	c #8383ED",
"8.	c #7D7DED",
"9.	c #7676ED",
"0.	c #7070ED",
"a.	c #6A6AED",
"b.	c #6464ED",
"c.	c #5E5EED",
"d.	c #5858ED",
"e.	c #5252ED",
"f.	c #4C4CED",
"g.	c #4645ED",
"h.	c #3F3FED",
"i.	c #3939ED",
"j.	c #3333ED",
"k.	c #2D2DED",
"l.	c #2727ED",
"m.	c #2121ED",
"n.	c #1C1CED",
"o.	c #1616ED",
"p.	c #1111ED",
"q.	c #0C0CED",
"r.	c #0606ED",
"s.	c #0505ED",
"t.	c #DBDBDB",
"u.	c #FDFDFF",
"v.	c #F7F7FF",
"w.	c #F0F0FF",
"x.	c #EAEAFF",
"y.	c #E3E3FF",
"z.	c #DCDCFF",
"A.	c #D6D6FF",
"B.	c #CFCFFF",
"C.	c #C8C8FF",
"D.	c #C2C2FF",
"E.	c #BBBBFF",
"F.	c #B5B5FF",
"G.	c #AEAEFF",
"H.	c #A7A7FF",
"I.	c #A1A1FF",
"J.	c #9A9AFF",
"K.	c #9393FF",
"L.	c #8D8DFF",
"M.	c #8686FF",
"N.	c #8080FF",
"O.	c #7979FF",
"P.	c #7272FF",
"Q.	c #6C6CFF",
"R.	c #6565FF",
"S.	c #5E5FFF",
"T.	c #5858FF",
"U.	c #5151FF",
"V.	c #4B4BFF",
"W.	c #4444FF",
"X.	c #3D3DFF",
"Y.	c #3737FF",
"Z.	c #3030FF",
"`.	c #2929FF",
" +	c #2323FF",
".+	c #1C1CFF",
"++	c #1516FF",
"@+	c #0F0FFF",
"#+	c #0808FF",
"$+	c #0202FF",
"%+	c #0000FF",
"&+	c #B5B4FF",
"*+	c #5E5EFF",
"=+	c #1615FF",
"-+	c #C8C9FF",
";+	c #B4B4FF",
">+	c #7273FF",
",+	c #4A4BFF",
"'+	c #1515FF",
")+	c #7F7FFF",
"!+	c #292AFF",
"~+	c #C9C9FF",
"{+	c #7372FF",
"]+	c #5F5EFF",
"^+	c #1616FF",
"/+	c #C7C7C7",
"(+	c #E6E6E7",
"_+	c #E0E0E7",
":+	c #DADAE7",
"<+	c #D4D4E7",
"[+	c #CECEE7",
"}+	c #C8C8E7",
"|+	c #C2C2E7",
"1+	c #BCBCE7",
"2+	c #B6B6E7",
"3+	c #B0B0E7",
"4+	c #AAAAE7",
"5+	c #A3A4E7",
"6+	c #9D9DE7",
"7+	c #9797E7",
"8+	c #9191E7",
"9+	c #8B8BE7",
"0+	c #8585E7",
"a+	c #7F7FE7",
"b+	c #7979E7",
"c+	c #7474E7",
"d+	c #6E6EE7",
"e+	c #6868E7",
"f+	c #6261E7",
"g+	c #5C5CE7",
"h+	c #5656E7",
"i+	c #5050E7",
"j+	c #4A4AE7",
"k+	c #4444E7",
"l+	c #3E3EE7",
"m+	c #3838E7",
"n+	c #3232E7",
"o+	c #2C2CE7",
"p+	c #2727E7",
"q+	c #2121E7",
"r+	c #1C1BE7",
"s+	c #1616E7",
"t+	c #1111E7",
"u+	c #0D0DE7",
"v+	c #0808E7",
"w+	c #0606E7",
"                                                                    . + + + + + +               ",
"                                                                    @ # # # # $ #               ",
"                                                                    % & * * * * *               ",
"                                                                    = - - - - - -               ",
"                                                                    ; > , ' ' ' '               ",
"                                                                    ) ! ! ! ! ! !               ",
"                                                                    ~ { ] ^ ^ ^ ^               ",
"                                                                    / ( ( ( ( ( (               ",
"                                                                    _ : : < < < <               ",
"                                                                    [ } } } } } }               ",
"                                                                    | 1 1 2 3 3 3               ",
"                                                                    4 5 5 5 5 5 5               ",
"                                                                    6 7 7 8 7 9 9               ",
"                                                                    0 a a a a a a               ",
"                                                                    b c c c c d d               ",
"                                                                    e f f f f f f               ",
"                                                                    g h h h i i j               ",
"                                                                    k l l l l l l               ",
"                                                                    m n n n n n o               ",
"                                                                    p q q q q q q               ",
"                                                                    r s s s s s t               ",
"                                                                    u v v v v v v               ",
"                                                                    w x x x x x y               ",
"                                                                    z A B C C C C               ",
"                                                                    D E E E E E E               ",
"                                                                    F G G H H H H               ",
"                                                                    I J J J J J J               ",
"                                                                    K L L M N M N               ",
"                                                                    O P P P P P P               ",
"                                                                    Q R R R S S S               ",
"                                                                    T U U U U U U               ",
"                                                                    V W W W X X X               ",
"                                                                    Y Z Z Z Z Z Z               ",
"                                                                    `  . . . . ...              ",
"                                                                    +.@.@.@.@.@.@.              ",
"                                                                    #.$.$.$.$.$.%.              ",
"                                                                    &.*.*.*.*.*.*.              ",
"                                                                    =.-.-.-.-.-.-.              ",
"                                                                    ;.>.>.>.>.>.>.              ",
"                                                                    ,.'.'.'.'.'.'.              ",
"                                                                    ).!.!.!.!.!.!.              ",
"~.{.].^./.(._.:.<.[.}.|.1.2.3.4.5.6.7.8.9.0.a.b.c.d.e.f.g.h.i.j.k.l.m.n.o.p.q.r.s.              ",
"t.u.v.w.x.y.z.A.B.C.D.E.F.G.H.I.J.K.L.M.N.O.P.Q.R.S.T.U.V.W.X.Y.Z.`. +.+++@+#+$+%+              ",
"t.u.v.w.x.y.z.A.B.C.D.E.&+G.H.I.J.K.L.M.N.O.P.Q.R.*+T.U.V.W.X.Y.Z.`. +.+=+@+#+$+%+              ",
"t.u.v.w.x.y.z.A.B.-+D.E.;+G.H.I.J.K.L.M.N.O.>+Q.R.*+T.U.,+W.X.Y.Z.`. +.+'+@+#+$+%+              ",
"t.u.v.w.x.y.z.A.B.C.D.E.F.G.H.I.J.K.L.M.)+O.P.Q.R.*+T.U.V.W.X.Y.Z.!+ +.+'+@+#+$+%+              ",
"t.u.v.w.x.y.z.A.B.~+D.E.F.G.H.I.J.K.L.M.N.O.{+Q.R.]+T.U.V.W.X.Y.Z.`. +.+^+@+#+$+%+              ",
"/+(+_+:+<+[+}+|+1+2+3+4+5+6+7+8+9+0+a+b+c+d+e+f+g+h+i+j+k+l+m+n+o+p+q+r+s+t+u+v+w+              "};
