/* XPM */
static char * panelYZFace_xpm[] = {
"48 48 528 2",
"  	c None",
". 	c #D2D1D1",
"+ 	c #EAEAEA",
"@ 	c #CBCBCB",
"# 	c #E7E0E0",
"$ 	c #E6E5E5",
"% 	c #F1F1F1",
"& 	c #E7E7E7",
"* 	c #E4CDCD",
"= 	c #EAD9D9",
"- 	c #EAE2E2",
"; 	c #FFFEFE",
"> 	c #FFFFFF",
", 	c #DAB5B5",
"' 	c #E9C9C9",
") 	c #E6CECE",
"! 	c #FBEAEA",
"~ 	c #FFF5F5",
"{ 	c #FFFDFD",
"] 	c #CC9C9C",
"^ 	c #EABABA",
"/ 	c #E6BEBE",
"( 	c #F7D5D5",
"_ 	c #FFE4E4",
": 	c #FFECEC",
"< 	c #E6A8A7",
"[ 	c #E6AFAF",
"} 	c #EFBEBE",
"| 	c #FFD2D2",
"1 	c #FFDBDB",
"2 	c #FFE3E3",
"3 	c #FFF4F4",
"4 	c #FFFCFC",
"5 	c #E09393",
"6 	c #E9A1A1",
"7 	c #EAA9A9",
"8 	c #FFC1C1",
"9 	c #FFCAC9",
"0 	c #FFDADA",
"a 	c #FFEBEB",
"b 	c #D77F7F",
"c 	c #EA9191",
"d 	c #E69797",
"e 	c #FBADAD",
"f 	c #FFB8B8",
"g 	c #FFC1C0",
"h 	c #FFC9C9",
"i 	c #FFD1D1",
"j 	c #FFE2E2",
"k 	c #FFF3F3",
"l 	c #FFFBFB",
"m 	c #AFAFE7",
"n 	c #C6A1C7",
"o 	c #E57F7F",
"p 	c #E68787",
"q 	c #F49898",
"r 	c #FFA7A7",
"s 	c #FFAFAF",
"t 	c #FFC0C0",
"u 	c #FFC9C8",
"v 	c #FFD9D9",
"w 	c #FFEAEA",
"x 	c #A09FE3",
"y 	c #B8A0D8",
"z 	c #E38090",
"A 	c #E67878",
"B 	c #ED8383",
"C 	c #FF9595",
"D 	c #FF9E9E",
"E 	c #FFA6A6",
"F 	c #FFB7B7",
"G 	c #FFC8C8",
"H 	c #FFD0D0",
"I 	c #FFE1E1",
"J 	c #FFF2F2",
"K 	c #FFFAFB",
"L 	c #8E8EDA",
"M 	c #A499E2",
"N 	c #D3799B",
"O 	c #E96969",
"P 	c #E66F6F",
"Q 	c #FF8484",
"R 	c #FF8C8C",
"S 	c #FF9D9D",
"T 	c #FFAEAE",
"U 	c #FFB6B7",
"V 	c #FFBFBF",
"W 	c #FFC7C7",
"X 	c #FFD8D8",
"Y 	c #FFE9E9",
"Z 	c #FFF1F2",
"` 	c #FFFAFA",
" .	c #7B7BCF",
"..	c #9190E8",
"+.	c #C378B0",
"@.	c #EA5C5F",
"#.	c #E66060",
"$.	c #FA7070",
"%.	c #FF7B7B",
"&.	c #FF8384",
"*.	c #FF9494",
"=.	c #FFA5A5",
"-.	c #FFB6B6",
";.	c #FFBEBE",
">.	c #FFCFCF",
",.	c #FFE0E0",
"'.	c #FFF1F1",
").	c #FFF9F9",
"!.	c #8282E6",
"~.	c #AC77C6",
"{.	c #E45060",
"].	c #E65050",
"^.	c #F25D5D",
"/.	c #FF6A6A",
"(.	c #FF7272",
"_.	c #FF7A7A",
":.	c #FF8383",
"<.	c #FF8B8B",
"[.	c #FF9C9C",
"}.	c #FFADAD",
"|.	c #FFB5B6",
"1.	c #FFC6C6",
"2.	c #FFD7D7",
"3.	c #FFE8E8",
"4.	c #FFF1F0",
"5.	c #7272E0",
"6.	c #9676DB",
"7.	c #DB4D75",
"8.	c #E74141",
"9.	c #ED4A4A",
"0.	c #FF5858",
"a.	c #FF6161",
"b.	c #FF6969",
"c.	c #FF8282",
"d.	c #FF9393",
"e.	c #FFA4A4",
"f.	c #FFB5B5",
"g.	c #FFBEBD",
"h.	c #FFCECE",
"i.	c #FFDFDF",
"j.	c #FFF0F0",
"k.	c #FFF8F8",
"l.	c #6262D6",
"m.	c #7A6EE6",
"n.	c #C74E94",
"o.	c #E93232",
"p.	c #E63939",
"q.	c #FE4747",
"r.	c #FF4F4F",
"s.	c #FF6060",
"t.	c #FF7171",
"u.	c #FF7979",
"v.	c #FF8A8A",
"w.	c #FF9B9B",
"x.	c #FFA4A3",
"y.	c #FFACAC",
"z.	c #FFB4B4",
"A.	c #FFBDBD",
"B.	c #FFC5C5",
"C.	c #FFD6D6",
"D.	c #FFE7E7",
"E.	c #FFEFEF",
"F.	c #FFFFFE",
"G.	c #6464E9",
"H.	c #B24FAF",
"I.	c #E82738",
"J.	c #E62A2A",
"K.	c #F83434",
"L.	c #FF3E3E",
"M.	c #FF4646",
"N.	c #FF5757",
"O.	c #FF6868",
"P.	c #FF8181",
"Q.	c #FF9292",
"R.	c #FFA3A3",
"S.	c #FFABAB",
"T.	c #FFBCBC",
"U.	c #FFCDCD",
"V.	c #FFDEDE",
"W.	c #FFE6E6",
"X.	c #FFF7F7",
"Y.	c #5656E7",
"Z.	c #914FCA",
"`.	c #E12656",
" +	c #E61B1B",
".+	c #F02323",
"++	c #FF2D2D",
"@+	c #FF3535",
"#+	c #FF3D3D",
"$+	c #FF4E4E",
"%+	c #FF5F5F",
"&+	c #FF7070",
"*+	c #FF7878",
"=+	c #FF8989",
"-+	c #FF9A9A",
";+	c #FFA3A2",
">+	c #FFB3B3",
",+	c #FFC4C4",
"'+	c #FFD5D5",
")+	c #FFDEDD",
"!+	c #FFEEEE",
"~+	c #4747DE",
"{+	c #5250E9",
"]+	c #CD2873",
"^+	c #EA0E0E",
"/+	c #EA1414",
"(+	c #FF1B1B",
"_+	c #FF2424",
":+	c #FF2C2C",
"<+	c #FF4545",
"[+	c #FF5656",
"}+	c #FF6767",
"|+	c #FF6F6F",
"1+	c #FF8080",
"2+	c #FF9191",
"3+	c #FFA2A2",
"4+	c #FFAAAA",
"5+	c #FFBBBB",
"6+	c #FFCCCC",
"7+	c #FFDDDD",
"8+	c #FFE5E5",
"9+	c #FFF6F6",
"0+	c #3939D4",
"a+	c #4747F6",
"b+	c #5050FF",
"c+	c #8344CF",
"d+	c #DA0B0B",
"e+	c #FC0B0B",
"f+	c #FF1212",
"g+	c #FF2323",
"h+	c #FF2C2B",
"i+	c #FF3434",
"j+	c #FF3C3C",
"k+	c #FF4D4D",
"l+	c #FF5E5E",
"m+	c #FF6766",
"n+	c #FF7777",
"o+	c #FF8888",
"p+	c #FF9999",
"q+	c #FFA1A2",
"r+	c #FFB2B2",
"s+	c #FFC3C3",
"t+	c #FFD4D4",
"u+	c #FFDCDC",
"v+	c #FFEDED",
"w+	c #F7F5F5",
"x+	c #3838ED",
"y+	c #4242FF",
"z+	c #4848FF",
"A+	c #4F4FFF",
"B+	c #E70707",
"C+	c #FF0909",
"D+	c #FF1A1A",
"E+	c #FF2B2B",
"F+	c #FF3333",
"G+	c #FF4444",
"H+	c #FF5555",
"I+	c #FF5D5E",
"J+	c #FF6666",
"K+	c #FF6E6E",
"L+	c #FF7F7F",
"M+	c #FF9090",
"N+	c #FF9898",
"O+	c #FFA1A1",
"P+	c #FFA9A9",
"Q+	c #FFBABA",
"R+	c #FFCBCB",
"S+	c #FFD3D3",
"T+	c #FEECEC",
"U+	c #DED5D5",
"V+	c #2A2AE6",
"W+	c #3434FF",
"X+	c #3A3BFF",
"Y+	c #4141FF",
"Z+	c #4747FF",
"`+	c #4E4EFF",
" @	c #8243CF",
".@	c #FF1111",
"+@	c #FF2222",
"@@	c #FF3B3B",
"#@	c #FF4C4C",
"$@	c #FF5D5D",
"%@	c #FF6565",
"&@	c #FF7676",
"*@	c #FF8787",
"=@	c #FFA0A0",
"-@	c #FFB1B1",
";@	c #FFC2C2",
">@	c #E6CDCD",
",@	c #1E1EDB",
"'@	c #2626FB",
")@	c #2D2DFF",
"!@	c #3333FF",
"~@	c #393AFF",
"{@	c #4040FF",
"]@	c #4646FF",
"^@	c #4D4DFF",
"/@	c #8242CF",
"(@	c #FF0808",
"_@	c #FF1919",
":@	c #FF2122",
"<@	c #FF2A2A",
"[@	c #FF3232",
"}@	c #FF4343",
"|@	c #FF5454",
"1@	c #FF5C5D",
"2@	c #FF6D6D",
"3@	c #FF7E7E",
"4@	c #FF8F8F",
"5@	c #FF9797",
"6@	c #FFA8A8",
"7@	c #FFB9B9",
"8@	c #FFC1C2",
"9@	c #FFCACA",
"0@	c #F2C7C7",
"a@	c #CAADAD",
"b@	c #1515D1",
"c@	c #1918F5",
"d@	c #1F1FFF",
"e@	c #2525FF",
"f@	c #2C2CFF",
"g@	c #3232FF",
"h@	c #3838FF",
"i@	c #3F3FFF",
"j@	c #4545FF",
"k@	c #4C4CFF",
"l@	c #8241CF",
"m@	c #FF1010",
"n@	c #FF2121",
"o@	c #FF2929",
"p@	c #FF3A3A",
"q@	c #FF4B4B",
"r@	c #FF5C5C",
"s@	c #FF6464",
"t@	c #FF7575",
"u@	c #FF8686",
"v@	c #FF8F8E",
"w@	c #FF9F9F",
"x@	c #FFB0B0",
"y@	c #F9BCBC",
"z@	c #D7A9A9",
"A@	c #0E0EED",
"B@	c #1111FF",
"C@	c #1717FF",
"D@	c #1E1EFF",
"E@	c #2424FF",
"F@	c #2B2AFF",
"G@	c #3131FF",
"H@	c #3737FF",
"I@	c #3E3EFF",
"J@	c #4444FF",
"K@	c #4B4BFF",
"L@	c #8140CF",
"M@	c #FF0707",
"N@	c #FF1818",
"O@	c #FF2120",
"P@	c #FF3131",
"Q@	c #FF4242",
"R@	c #FF4A4B",
"S@	c #FF5353",
"T@	c #FF5B5B",
"U@	c #FF6C6C",
"V@	c #FF7D7D",
"W@	c #FF8685",
"X@	c #FF8E8E",
"Y@	c #FF9696",
"Z@	c #FEAFAF",
"`@	c #E0A1A1",
" #	c #0808E2",
".#	c #0303FF",
"+#	c #0909FF",
"@#	c #1010FF",
"##	c #1616FF",
"$#	c #1D1DFF",
"%#	c #2323FF",
"&#	c #2929FF",
"*#	c #3030FF",
"=#	c #3636FF",
"-#	c #3D3DFF",
";#	c #4343FF",
">#	c #4949FF",
",#	c #813FCF",
"'#	c #FF0F0F",
")#	c #FF1717",
"!#	c #FF2020",
"~#	c #FF2828",
"{#	c #FF3939",
"]#	c #FF4A4A",
"^#	c #FF5253",
"/#	c #FF6363",
"(#	c #FF7474",
"_#	c #FF8585",
":#	c #FF8D8D",
"<#	c #EC999A",
"[#	c #1010B9",
"}#	c #0202F9",
"|#	c #0000FF",
"1#	c #0202FF",
"2#	c #0808FF",
"3#	c #0F0FFF",
"4#	c #1515FF",
"5#	c #1C1CFF",
"6#	c #2222FF",
"7#	c #2828FF",
"8#	c #2F2FFF",
"9#	c #3535FF",
"0#	c #3C3CFF",
"a#	c #4948FF",
"b#	c #803ECF",
"c#	c #FF0606",
"d#	c #FF201F",
"e#	c #FF3030",
"f#	c #FF4141",
"g#	c #FF5252",
"h#	c #FF5A5A",
"i#	c #FF6B6B",
"j#	c #FF7C7C",
"k#	c #F48F8F",
"l#	c #CD7E7E",
"m#	c #0A0AD8",
"n#	c #0707E6",
"o#	c #0202F7",
"p#	c #0101FF",
"q#	c #0707FF",
"r#	c #0E0EFF",
"s#	c #1414FF",
"t#	c #1A1AFF",
"u#	c #2121FF",
"v#	c #2727FF",
"w#	c #2E2EFF",
"x#	c #3B3BFF",
"y#	c #FF0E0E",
"z#	c #FF1616",
"A#	c #FF1F1F",
"B#	c #FF2727",
"C#	c #FF3838",
"D#	c #FF4949",
"E#	c #FF5151",
"F#	c #FF6262",
"G#	c #FF7373",
"H#	c #FB8182",
"I#	c #DA7777",
"J#	c #0A0AD9",
"K#	c #0606E9",
"L#	c #0707FC",
"M#	c #0D0DFF",
"N#	c #1313FF",
"O#	c #1919FF",
"P#	c #2020FF",
"Q#	c #2626FF",
"R#	c #3939FF",
"S#	c #803DCF",
"T#	c #E70606",
"U#	c #FF0505",
"V#	c #FF1E1E",
"W#	c #FF2F2F",
"X#	c #FF4040",
"Y#	c #FF4848",
"Z#	c #FF5959",
"`#	c #FE7272",
" $	c #E36D6D",
".$	c #0A0AE9",
"+$	c #0F0FEB",
"@$	c #1212FF",
"#$	c #1818FF",
"$$	c #7F3CCF",
"%$	c #FF0504",
"&$	c #FF0D0D",
"*$	c #FF1516",
"=$	c #FF2626",
"-$	c #FF3737",
";$	c #FF3F3F",
">$	c #FF5050",
",$	c #EE6262",
"'$	c #0F0FE7",
")$	c #1313E6",
"!$	c #1818F1",
"~$	c #2A2BFF",
"{$	c #7F3BCF",
"]$	c #FF0404",
"^$	c #FF0C0C",
"/$	c #FF1515",
"($	c #FF1D1D",
"_$	c #FF2E2E",
":$	c #FF4747",
"<$	c #F55555",
"[$	c #D24F4F",
"}$	c #1414D1",
"|$	c #1717EB",
"1$	c #1C1CE6",
"2$	c #2323F7",
"3$	c #7F3ACF",
"4$	c #FF0303",
"5$	c #FF1414",
"6$	c #FF2525",
"7$	c #FF3636",
"8$	c #FC4646",
"9$	c #DD4444",
"0$	c #1B1BDB",
"a$	c #2120EA",
"b$	c #2626E6",
"c$	c #2F2FFE",
"d$	c #7E39CF",
"e$	c #FF0B0B",
"f$	c #FF1C1C",
"g$	c #FF3635",
"h$	c #E73838",
"i$	c #2525E5",
"j$	c #2A2AE7",
"k$	c #3131EC",
"l$	c #FF1313",
"m$	c #F02A2A",
"n$	c #2F2FE8",
"o$	c #3435E6",
"p$	c #3D3EF4",
"q$	c #7E38CF",
"r$	c #FF0202",
"s$	c #FF0A0A",
"t$	c #F71B1B",
"u$	c #D62020",
"v$	c #3131D3",
"w$	c #3A3AE9",
"x$	c #7C32BA",
"y$	c #FD0A0A",
"z$	c #E01414",
"A$	c #7C2CA2",
"B$	c #E50707",
"C$	c #EB0707",
"                                                                                                ",
"                                                                                                ",
"                                                                                                ",
"                                                                                                ",
"                                                                                                ",
"                                                                                                ",
"                                                                                          . + @ ",
"                                                                                        # $ % & ",
"                                                                                    * = - ; > & ",
"                                                                                , ' ) ! ~ { > & ",
"                                                                            ] ^ / ( _ : ~ { > & ",
"                                                                          < [ } | 1 2 : 3 4 > & ",
"                                                                      5 6 7 8 9 | 0 2 a 3 4 > & ",
"                                                                  b c d e f g h i 0 j a k l > & ",
"                                                            m n o p q r s f t u i v j w k l > & ",
"                                                        x y z A B C D E s F t G H v I w J K > & ",
"                                                    L M N O P Q R C S E T U V W H X I Y Z ` > & ",
"                                                 ...+.@.#.$.%.&.R *.S =.T -.;.W >.X ,.Y '.).> & ",
"                                              !.~.{.].^./.(._.:.<.*.[.=.}.|.;.1.>.2.,.3.4.).> & ",
"                                          5.6.7.8.9.0.a.b.(._.c.<.d.[.e.}.f.g.1.h.2.i.3.j.k.> & ",
"                                      l.m.n.o.p.q.r.0.s.b.t.u.c.v.d.w.x.y.z.A.B.h.C.i.D.E.k.F.& ",
"                                    G.H.I.J.K.L.M.r.N.s.O.t.u.P.v.Q.w.R.S.z.T.B.U.C.V.W.E.X.; & ",
"                                Y.Z.`. +.+++@+#+M.$+N.%+O.&+*+P.=+Q.-+;+S.>+T.,+U.'+)+W.!+X.; & ",
"                            ~+{+]+^+/+(+_+:+@+#+<+$+[+%+}+|+*+1+=+2+-+3+4+>+5+,+6+'+7+8+!+9+; & ",
"                        0+a+b+c+d+e+f+(+g+h+i+j+<+k+[+l+m+|+n+1+o+2+p+q+4+r+5+s+6+t+u+8+v+9+w+@ ",
"                      x+y+z+A+c+B+C+f+D+g+E+F+j+G+k+H+I+J+K+n+L+o+M+N+O+P+r+Q+s+R+S+u+_ T+U+    ",
"                  V+W+X+Y+Z+`+ @B+C+.@D++@E+F+@@G+#@H+$@%@K+&@L+*@M+N+=@P+-@Q+;@R+S+1 >@        ",
"              ,@'@)@!@~@{@]@^@/@B+(@.@_@:@<@[@@@}@#@|@1@%@2@&@3@*@4@5@=@6@-@7@8@9@0@a@          ",
"          b@c@d@e@f@g@h@i@j@k@l@B+(@m@_@n@o@[@p@}@q@|@r@s@2@t@3@u@v@5@w@6@x@7@y@z@              ",
"        A@B@C@D@E@F@G@H@I@J@K@L@B+M@m@N@O@o@P@p@Q@R@S@T@s@U@t@V@W@X@Y@w@r Z@`@                  ",
"     #.#+#@###$#%#&#*#=#-#;#>#,#B+M@'#)#!#~#P@{#Q@]#^#T@/#U@(#V@_#:#Y@D <#                      ",
"[#}#|#1#2#3#4#5#6#7#8#9#0#y+a#b#B+c#'#)#d#~#e#{#f#]#g#h#/#i#(#j#_#:#k#l#                        ",
"m#n#o#p#q#r#s#t#u#v#w#W+x#Y+Z+b#B+c#y#z#A#B#e#C#f#D#E#h#F#i#G#j#H#I#                            ",
"  J#K#n#L#M#N#O#P#Q#)@!@R#{@]@S#T#U#y#z#V#B#W#C#X#Y#E#Z#F#/.`# $                                ",
"       #.$+$@$#$d@e@f@g@h@i@j@$$T#%$&$*$V#=$W#-$;$Y#>$Z#a.,$                                    ",
"          '$)$!$D@E@~$G@H@I@J@{$T#]$^$/$($=$_$-$;$:$>$<$[$                                      ",
"            }$|$1$2$&#*#=#-#;#3$T#4$^$5$($6$_$7$L.8$9$                                          ",
"                0$a$b$c$9#0#y+d$T#4$e$5$f$6$++g$h$                                              ",
"                    i$j$k$x#Y+d$T#4$e$l$f$_+m$                                                  ",
"                        n$o$p$q$T#r$s$l$t$u$                                                    ",
"                          v$w$x$T#r$y$z$                                                        ",
"                              A$B$C$                                                            ",
"                                                                                                ",
"                                                                                                ",
"                                                                                                ",
"                                                                                                ",
"                                                                                                ",
"                                                                                                "};
