/* XPM */
static char * panelYZBetween_xpm[] = {
"48 48 486 2",
"  	c None",
". 	c #0C0CD1",
"+ 	c #D60B0B",
"@ 	c #E10808",
"# 	c #6C0BBB",
"$ 	c #0909DF",
"% 	c #CF0C0C",
"& 	c #DD0909",
"* 	c #EB0505",
"= 	c #FF0000",
"- 	c #7F06CB",
"; 	c #0101FA",
"> 	c #0606E8",
", 	c #0909DD",
"' 	c #DE0909",
") 	c #E80606",
"! 	c #FB0101",
"~ 	c #0000FF",
"{ 	c #0303F3",
"] 	c #0707E7",
"^ 	c #0A0AD8",
"/ 	c #DA0A0A",
"( 	c #E60707",
"_ 	c #F30303",
": 	c #0505EE",
"< 	c #0808E1",
"[ 	c #0B0BD6",
"} 	c #D70A0A",
"| 	c #EE0505",
"1 	c #0000FE",
"2 	c #0909DC",
"3 	c #0202F9",
"4 	c #DC0909",
"5 	c #F90202",
"6 	c #0707E4",
"7 	c #0A0AD9",
"8 	c #D90A0A",
"9 	c #0606EC",
"0 	c #0C0CDE",
"a 	c #1212D4",
"b 	c #D50B0B",
"c 	c #EC0505",
"d 	c #0101FF",
"e 	c #0404FF",
"f 	c #0A0AFF",
"g 	c #1110FE",
"h 	c #1717E8",
"i 	c #1C1BDF",
"j 	c #DD1111",
"k 	c #E80C0D",
"l 	c #FE0303",
"m 	c #FF0101",
"n 	c #1010FF",
"o 	c #1515FF",
"p 	c #1B1BFF",
"q 	c #2121FF",
"r 	c #2626F6",
"s 	c #2A2AE8",
"t 	c #2E2EDB",
"u 	c #DC2323",
"v 	c #E81E1E",
"w 	c #F71B1B",
"x 	c #FF1515",
"y 	c #FF1010",
"z 	c #FF0B0B",
"A 	c #FF0606",
"B 	c #FF0202",
"C 	c #0303FF",
"D 	c #0909FF",
"E 	c #0F0FFF",
"F 	c #2626FF",
"G 	c #2C2CFF",
"H 	c #3232FF",
"I 	c #3838FF",
"J 	c #3B3BF0",
"K 	c #3D3DE4",
"L 	c #4141D8",
"M 	c #D93636",
"N 	c #E43232",
"O 	c #F03030",
"P 	c #FF2D2D",
"Q 	c #FF2828",
"R 	c #FF2323",
"S 	c #FF1E1E",
"T 	c #FF1919",
"U 	c #FF1414",
"V 	c #FF0F0F",
"W 	c #FF0A0A",
"X 	c #FF0505",
"Y 	c #0808FF",
"Z 	c #0E0EFF",
"` 	c #1414FF",
" .	c #1A1AFF",
"..	c #2020FF",
"+.	c #3737FF",
"@.	c #3D3DFF",
"#.	c #4343FF",
"$.	c #4949FF",
"%.	c #4F4FFF",
"&.	c #4E4EEA",
"*.	c #4F4FDF",
"=.	c #5151D1",
"-.	c #D24848",
";.	c #E04545",
">.	c #EA4444",
",.	c #FF4545",
"'.	c #FF4040",
").	c #FF3B3B",
"!.	c #FF3636",
"~.	c #FF3131",
"{.	c #FF2C2C",
"].	c #FF2727",
"^.	c #FF2222",
"/.	c #FF1D1D",
"(.	c #FF1818",
"_.	c #FF1313",
":.	c #FF0E0E",
"<.	c #FF0808",
"[.	c #FF0404",
"}.	c #0302FF",
"|.	c #1A19FF",
"1.	c #1F1FFF",
"2.	c #2525FF",
"3.	c #2B2BFF",
"4.	c #3131FF",
"5.	c #4243FF",
"6.	c #4848FF",
"7.	c #4E4EFF",
"8.	c #5454FF",
"9.	c #5A5AFF",
"0.	c #6060FF",
"a.	c #6464FB",
"b.	c #6262E8",
"c.	c #6261DA",
"d.	c #5252BE",
"e.	c #9152B9",
"f.	c #ED5664",
"g.	c #FF5757",
"h.	c #FF5252",
"i.	c #FF4D4D",
"j.	c #FF4848",
"k.	c #FF4343",
"l.	c #FF3E3E",
"m.	c #FF3939",
"n.	c #FF3434",
"o.	c #FF2F2F",
"p.	c #FF2A2A",
"q.	c #FF2525",
"r.	c #FF2020",
"s.	c #FF1B1B",
"t.	c #FF1616",
"u.	c #FF1111",
"v.	c #FF0C0C",
"w.	c #FF0707",
"x.	c #FF0303",
"y.	c #7409C4",
"z.	c #0202FF",
"A.	c #0707FF",
"B.	c #0D0DFF",
"C.	c #1313FF",
"D.	c #1919FF",
"E.	c #2B2AFF",
"F.	c #3030FF",
"G.	c #3636FF",
"H.	c #3C3CFF",
"I.	c #4242FF",
"J.	c #5959FF",
"K.	c #5F5FFF",
"L.	c #6565FF",
"M.	c #6B6BFF",
"N.	c #7171FF",
"O.	c #7777FF",
"P.	c #7878F6",
"Q.	c #6262C1",
"R.	c #6C6DE7",
"S.	c #6161EA",
"T.	c #594EDB",
"U.	c #BA51AA",
"V.	c #FA5E5D",
"W.	c #FF5B5B",
"X.	c #FF5656",
"Y.	c #FF5151",
"Z.	c #FF4C4C",
"`.	c #FF4747",
" +	c #FF4242",
".+	c #FF3D3D",
"++	c #FF3838",
"@+	c #FF3333",
"#+	c #FF2E2E",
"$+	c #FF2929",
"%+	c #FF2424",
"&+	c #FF1F1F",
"*+	c #FF1A1A",
"=+	c #ED0909",
"-+	c #1011D4",
";+	c #1313F6",
">+	c #1818FF",
",+	c #1E1EFF",
"'+	c #2424FF",
")+	c #2A2AFF",
"!+	c #3B3BFF",
"~+	c #4141FF",
"{+	c #4747FF",
"]+	c #4D4DFF",
"^+	c #5353FF",
"/+	c #6465FF",
"(+	c #6A6AFF",
"_+	c #7070FF",
":+	c #7676FF",
"<+	c #7C7CFF",
"[+	c #8282FF",
"}+	c #8888FF",
"|+	c #7272CD",
"1+	c #7575E7",
"2+	c #7373FF",
"3+	c #6262FC",
"4+	c #4B4BE8",
"5+	c #6640D4",
"6+	c #D0558F",
"7+	c #FF6363",
"8+	c #FF5F5E",
"9+	c #FF5A59",
"0+	c #FF5455",
"a+	c #FF5050",
"b+	c #FF4B4A",
"c+	c #FF4646",
"d+	c #FF3C3B",
"e+	c #FF3232",
"f+	c #FF2D2C",
"g+	c #FF2728",
"h+	c #FF2223",
"i+	c #F61D1D",
"j+	c #D31717",
"k+	c #2020DF",
"l+	c #2929FC",
"m+	c #2F2FFF",
"n+	c #3535FF",
"o+	c #4C4CFF",
"p+	c #5252FF",
"q+	c #5858FF",
"r+	c #5E5EFF",
"s+	c #6464FF",
"t+	c #7675FF",
"u+	c #7B7BFF",
"v+	c #8181FF",
"w+	c #8787FF",
"x+	c #8D8DFF",
"y+	c #9393FF",
"z+	c #7B7BCD",
"A+	c #7E7EE7",
"B+	c #7D7DFF",
"C+	c #6D6CFF",
"D+	c #5C5CFF",
"E+	c #4A4AF6",
"F+	c #3736E7",
"G+	c #7D3CCC",
"H+	c #E66078",
"I+	c #FF6767",
"J+	c #FF6262",
"K+	c #FF5D5D",
"L+	c #FF5858",
"M+	c #FF5353",
"N+	c #FF4E4E",
"O+	c #FF4949",
"P+	c #FF4444",
"Q+	c #FF3F3F",
"R+	c #FF3A3A",
"S+	c #FC3434",
"T+	c #DC2929",
"U+	c #3434E6",
"V+	c #4040FF",
"W+	c #4646FF",
"X+	c #5D5DFF",
"Y+	c #6363FF",
"Z+	c #6969FF",
"`+	c #6F6FFF",
" @	c #7575FF",
".@	c #8786FF",
"+@	c #8C8CFF",
"@@	c #9292FF",
"#@	c #9898FF",
"$@	c #9E9EFF",
"%@	c #8384CD",
"&@	c #8787E7",
"*@	c #6666FF",
"=@	c #5656FF",
"-@	c #4545FF",
";@	c #3333EE",
">@	c #2222E1",
",@	c #A348BC",
"'@	c #F2696F",
")@	c #FF6B6B",
"!@	c #FF6666",
"~@	c #FF6161",
"{@	c #FF5C5C",
"]@	c #E64040",
"^@	c #4C4BEF",
"/@	c #5757FF",
"(@	c #6968FF",
"_@	c #6E6EFF",
":@	c #7474FF",
"<@	c #7A7AFF",
"[@	c #8080FF",
"}@	c #8686FF",
"|@	c #9D9DFF",
"1@	c #A3A3FF",
"2@	c #A9A9FF",
"3@	c #8C8DCD",
"4@	c #9090E7",
"5@	c #9191FF",
"6@	c #3F3FFF",
"7@	c #1E1EE8",
"8@	c #3E1FDC",
"9@	c #BE56A7",
"0@	c #FB7171",
"a@	c #FF6E6E",
"b@	c #FF6969",
"c@	c #FF6464",
"d@	c #EF5858",
"e@	c #5151D7",
"f@	c #6565F7",
"g@	c #7F7FFF",
"h@	c #8585FF",
"i@	c #8B8BFF",
"j@	c #9797FF",
"k@	c #A9A8FF",
"l@	c #AEAEFF",
"m@	c #B4B4FF",
"n@	c #9595CD",
"o@	c #9999E7",
"p@	c #9B9BFF",
"q@	c #8A8AFF",
"r@	c #3939FF",
"s@	c #2828FF",
"t@	c #1819FA",
"u@	c #0C0CE8",
"v@	c #642ED2",
"w@	c #D36492",
"x@	c #F67373",
"y@	c #D75D5D",
"z@	c #6969E0",
"A@	c #7E7EFE",
"B@	c #9090FF",
"C@	c #9696FF",
"D@	c #9C9CFF",
"E@	c #A2A2FF",
"F@	c #A8A8FF",
"G@	c #B9BAFF",
"H@	c #BFC0FF",
"I@	c #9F9ECD",
"J@	c #A2A2E7",
"K@	c #A4A5FF",
"L@	c #9494FF",
"M@	c #8484FF",
"N@	c #2222FF",
"O@	c #1212FF",
"P@	c #0606F3",
"Q@	c #0606E7",
"R@	c #1A10CF",
"S@	c #8383E9",
"T@	c #A1A1FF",
"U@	c #A7A7FF",
"V@	c #ADADFF",
"W@	c #B3B3FF",
"X@	c #B9B9FF",
"Y@	c #BFBFFF",
"Z@	c #C5C5FF",
"`@	c #CBCBFF",
" #	c #A7A7CD",
".#	c #ABABE7",
"+#	c #8E8EFF",
"@#	c #6D6DFF",
"##	c #1C1CFF",
"$#	c #0B0BFF",
"%#	c #0808E0",
"&#	c #9E9EF2",
"*#	c #B3B2FF",
"=#	c #B8B8FF",
"-#	c #BEBEFF",
";#	c #C4C4FF",
">#	c #CACAFF",
",#	c #D0D0FF",
"'#	c #D6D6FF",
")#	c #B0B0CD",
"!#	c #B4B4E7",
"~#	c #6767FF",
"{#	c #0505FF",
"]#	c #0909DB",
"^#	c #9B9BDA",
"/#	c #B9B9F9",
"(#	c #C3C3FF",
"_#	c #C9C9FF",
":#	c #CFCFFF",
"<#	c #D5D5FF",
"[#	c #DBDBFF",
"}#	c #E1E1FF",
"|#	c #BAB9CD",
"1#	c #BDBDE7",
"2#	c #C2C2FF",
"3#	c #B2B2FF",
"4#	c #5050FF",
"5#	c #0A0ADA",
"6#	c #B6B6E3",
"7#	c #D4D4FF",
"8#	c #DADAFF",
"9#	c #E0E0FF",
"0#	c #E6E6FF",
"a#	c #ECECFF",
"b#	c #C3C2CD",
"c#	c #C6C6E7",
"d#	c #CCCCFF",
"e#	c #BCBCFF",
"f#	c #ABABFF",
"g#	c #494AFF",
"h#	c #2929FF",
"i#	c #0404F2",
"j#	c #D4D4EC",
"k#	c #EBEBFF",
"l#	c #F1F1FF",
"m#	c #F7F7FF",
"n#	c #CBCBCD",
"o#	c #CFD0E7",
"p#	c #C6C6FF",
"q#	c #B5B5FF",
"r#	c #A5A5FF",
"s#	c #9595FF",
"t#	c #3333FF",
"u#	c #2323FF",
"v#	c #0606EA",
"w#	c #0B0BD4",
"x#	c #C9C8D2",
"y#	c #F0F0F3",
"z#	c #FFFFFF",
"A#	c #CDCDCD",
"B#	c #D9D8E7",
"C#	c #AFAFFF",
"D#	c #9F9FFF",
"E#	c #7E7EFF",
"F#	c #0C0CFF",
"G#	c #0001FF",
"H#	c #0101FC",
"I#	c #0B0BD3",
"J#	c #DCDCDC",
"K#	c #BEBEBE",
"L#	c #D6D6EB",
"M#	c #7878FF",
"N#	c #1616FF",
"O#	c #B6B6D1",
"P#	c #C9C9F4",
"Q#	c #6161FF",
"R#	c #ADADDC",
"S#	c #B9B9FB",
"T#	c #ACACFF",
"U#	c #4A4AFF",
"V#	c #3A3AFF",
"W#	c #A1A1E5",
"X#	c #4444FF",
"Y#	c #9393EF",
"Z#	c #8F8FFF",
"`#	c #7E7FFF",
" $	c #4E4DFF",
".$	c #2D2DFF",
"+$	c #1D1DFF",
"@$	c #7B7BD4",
"#$	c #8282F5",
"$$	c #6868FF",
"%$	c #2726FF",
"&$	c #0606FF",
"*$	c #6E6EDF",
"=$	c #7070FC",
"-$	c #5151FF",
";$	c #5F5FE9",
">$	c #5B5BFF",
",$	c #4B4AFF",
"'$	c #4E4EF0",
")$	c #3434FF",
"!$	c #3E3ED7",
"~$	c #3C3BF8",
"{$	c #2F2FE1",
"]$	c #2727FE",
"^$	c #1717FF",
"/$	c #1D1DEA",
"($	c #1111FF",
"_$	c #0B0BF2",
":$	c #0707E8",
"<$	c #1010BD",
"                                                                                                ",
"                                                                                                ",
"                                                                                                ",
"                                                .                                               ",
"                                            + @ # $                                             ",
"                                        % & * = - ; > ,                                         ",
"                                      ' ) ! = = - ~ ~ { ] ^                                     ",
"                                  / ( _ = = = = - ~ ~ ~ ~ : < [                                 ",
"                              } @ | = = = = = = - ~ ~ ~ ~ ~ 1 > 2                               ",
"                            ' ) = = = = = = = = - ~ ~ ~ ~ ~ ~ ~ 3 > 2                           ",
"                        4 ) 5 = = = = = = = = = - ~ ~ ~ ~ ~ ~ ~ ~ ~ { 6 7                       ",
"                    8 ( _ = = = = = = = = = = = - ~ ~ ~ ~ ~ ~ ~ ~ ~ ~ ~ 9 0 a                   ",
"                b ' c = = = = = = = = = = = = = - ~ ~ ~ ~ ~ ~ ~ ~ ~ d e f g h i                 ",
"              j k l m = = = = = = = = = = = = = - ~ ~ ~ ~ ~ ~ ~ d e f n o p q r s t             ",
"          u v w x y z A B = = = = = = = = = = = - ~ ~ ~ ~ ~ ~ C D E o p q F G H I J K L         ",
"      M N O P Q R S T U V W X B = = = = = = = = - ~ ~ ~ ~ C Y Z `  ...F G H +.@.#.$.%.&.*.=.    ",
"  -.;.>.,.'.).!.~.{.].^./.(._.:.<.[.m = = = = = - ~ ~ }.Y Z ` |.1.2.3.4.+.@.5.6.7.8.9.0.a.b.c.  ",
"d.e.f.g.h.i.j.k.l.m.n.o.p.q.r.s.t.u.v.w.x.m = = y.z.A.B.C.D.1.2.E.F.G.H.I.6.7.8.J.K.L.M.N.O.P.Q.",
"R.S.T.U.V.W.X.Y.Z.`. +.+++@+#+$+%+&+*+x y z =+    -+;+>+,+'+)+F.G.!+~+{+]+^+J.K./+(+_+:+<+[+}+|+",
"1+2+3+4+5+6+7+8+9+0+a+b+c+'.d+!.e+f+g+h+i+j+          k+l+m+n+!+~+{+o+p+q+r+s+(+_+t+u+v+w+x+y+z+",
"A+B+C+D+E+F+G+H+I+J+K+L+M+N+O+P+Q+R+S+T+                  U+V+W+o+p+q+X+Y+Z+`+ @u+v+.@+@@@#@$@%@",
"&@w+:+*@=@-@;@>@,@'@)@!@~@{@g.h.i.]@                          ^@/@X+Y+(@_@:@<@[@}@+@@@#@|@1@2@3@",
"4@5@[@_+0.%.6@m+7@8@9@0@a@b@c@d@                                e@f@_@:@<@g@h@i@5@j@|@1@k@l@m@n@",
"o@p@q@<@(+J.$.r@s@t@u@v@w@x@y@                                      z@A@h@i@B@C@D@E@F@l@m@G@H@I@",
"J@K@L@M@2+Y+^+5.H N@O@P@Q@R@                                            S@C@D@T@U@V@W@X@Y@Z@`@ #",
".#l@$@+#B+@#X+o+H.G ##$#~ : %#^                                             &#V@*#=#-#;#>#,#'#)#",
"!#=#F@#@w+O.~#=@W+G.2.o {#~ 1 > ]#                                            ^#/#(#_#:#<#[#}#|#",
"1#2#3#E@5@v+N.0.4#V+m+1.E d ~ ~ 3 > 5#                                            6#7#8#9#0#a#b#",
"c#d#e#f#p@i@<@(+9.g#r@h#D.Y ~ ~ ~ ~ i#6 ]#                                            j#k#l#m#n#",
"o#'#p#q#r#s#M@:@s+^+#.t#u#O@C ~ ~ ~ ~ ~ v#< w#                                          x#y#z#A#",
"B#9#,#Y@C#D#+#E#_@X+]+@.G ##F#G#~ ~ ~ ~ ~ H#> I#                                            J#K#",
"  L#8#_#X@2@#@}+M#~#/@{+G.F N#{#~ ~ ~ ~ ~ ~ ~ Q@                                                ",
"    O#P#(#3#E@@@v+N.Q#4#V+F...E z.~ ~ ~ ~ ~ ~ >                                                 ",
"        R#S#T#D@i@u+M.9.U#V#h#D.D ~ ~ ~ ~ ~ ~ >                                                 ",
"            W#r#s#h@ @s+8.X#t#u#C.C ~ ~ ~ ~ ~ >                                                 ",
"                Y#Z#`#_@r+ $@..$+$F#d ~ ~ ~ ~ >                                                 ",
"                  @$#$M#$$/@{++.%$N#&$~ ~ ~ ~ >                                                 ",
"                      *$=$Q#-$~+F...n z.~ ~ ~ >                                                 ",
"                          ;$>$,$V#)+ .D ~ ~ ~ >                                                 ",
"                              '$X#)$'+C.e ~ ~ >                                                 ",
"                                !$~$.$+$B.d ~ >                                                 ",
"                                    {$]$^$&$~ >                                                 ",
"                                        /$($z.>                                                 ",
"                                            _$:$                                                ",
"                                              <$                                                ",
"                                                                                                ",
"                                                                                                ",
"                                                                                                "};
