/* XPM */
static char * panelCopyZY_xpm[] = {
"48 48 298 2",
"  	c None",
". 	c #E5B9F6",
"+ 	c #E9C4F7",
"@ 	c #E6BBF6",
"# 	c #E2B1F4",
"$ 	c #DFA8F3",
"% 	c #ECCDF8",
"& 	c #E6BCF6",
"* 	c #E3B4F5",
"= 	c #E0ABF4",
"- 	c #DCA3F2",
"; 	c #EDCFF9",
"> 	c #EAC6F8",
", 	c #E7BEF7",
"' 	c #E3B3F5",
") 	c #DDA3F3",
"! 	c #DA9AF2",
"~ 	c #F0D7FA",
"{ 	c #EAC7F7",
"] 	c #E7BFF6",
"^ 	c #E4B7F6",
"/ 	c #E1AEF4",
"( 	c #DEA5F3",
"_ 	c #DA9DF2",
": 	c #D794F1",
"< 	c #F4E3FC",
"[ 	c #F1DAFA",
"} 	c #EED2F9",
"| 	c #EBC9F8",
"1 	c #E8C1F7",
"2 	c #E4B6F5",
"3 	c #DDA5F3",
"4 	c #DB9DF2",
"5 	c #D794F0",
"6 	c #D48CF0",
"7 	c #F8ECFD",
"8 	c #F4E3FB",
"9 	c #F1DBFA",
"0 	c #ECCAF8",
"a 	c #E8C1F6",
"b 	c #E2B0F5",
"c 	c #DEA8F3",
"d 	c #DBA0F3",
"e 	c #D997F1",
"f 	c #D184EE",
"g 	c #F8EEFC",
"h 	c #F6E6FB",
"i 	c #F2DEFB",
"j 	c #EFD5F9",
"k 	c #E9C5F7",
"l 	c #E1B0F5",
"m 	c #DCA0F2",
"n 	c #D897F2",
"o 	c #D58FF0",
"p 	c #D286EF",
"q 	c #CF7EEE",
"r 	c #FDFAFE",
"s 	c #F8EEFD",
"t 	c #F6E6FC",
"u 	c #F3DDFB",
"v 	c #F0D5F9",
"w 	c #E6BCF7",
"x 	c #DFAAF4",
"y 	c #DCA2F3",
"z 	c #DA9AF1",
"A 	c #D386EF",
"B 	c #CF7EED",
"C 	c #CC76ED",
"D 	c #FFFFFF",
"E 	c #FAF1FE",
"F 	c #F6E8FC",
"G 	c #F3E0FB",
"H 	c #F0D8FA",
"I 	c #EDD0F9",
"J 	c #EAC7F8",
"K 	c #DCA2F2",
"L 	c #D99AF1",
"M 	c #D792F0",
"N 	c #D389EF",
"O 	c #D081EE",
"P 	c #CD79ED",
"Q 	c #CA70EC",
"R 	c #FEFCFE",
"S 	c #FAF1FD",
"T 	c #F7E8FC",
"U 	c #F4E0FB",
"V 	c #EECFF8",
"W 	c #EBC7F8",
"X 	c #E7BFF7",
"Y 	c #E3B6F6",
"Z 	c #E1ADF5",
"` 	c #D792F1",
" .	c #CC79ED",
"..	c #C667EB",
"+.	c #FBF4FE",
"@.	c #F7ECFC",
"#.	c #F5E3FB",
"$.	c #F2DAFA",
"%.	c #EBCAF8",
"&.	c #D795F1",
"*.	c #D48CEF",
"=.	c #CE7BED",
"-.	c #CB73EC",
";.	c #C86AEB",
">.	c #C45FE9",
",.	c #F2DAFB",
"'.	c #EFD3F9",
").	c #DC9FF2",
"!.	c #D894F1",
"~.	c #CE7CEE",
"{.	c #C86BEB",
"].	c #C562EA",
"^.	c #C159E9",
"/.	c #F5E6FC",
"(.	c #F2DDFA",
"_.	c #EBCAF7",
":.	c #E5B9F5",
"<.	c #E2B1F5",
"[.	c #DFA8F4",
"}.	c #D998F1",
"|.	c #C462EA",
"1.	c #C15AE9",
"2.	c #BE51E8",
"3.	c #F3DEFA",
"4.	c #EDCDF8",
"5.	c #DDA2F3",
"6.	c #CC76EC",
"7.	c #C86EEB",
"8.	c #C565EA",
"9.	c #C25CEA",
"0.	c #C054E9",
"a.	c #BD4CE7",
"b.	c #F1D7FA",
"c.	c #DFABF4",
"d.	c #D692F1",
"e.	c #D48AF0",
"f.	c #C96EEB",
"g.	c #C665EA",
"h.	c #C054E8",
"i.	c #BC4CE7",
"j.	c #BA43E6",
"k.	c #E3B6F5",
"l.	c #E0AEF4",
"m.	c #D38AEF",
"n.	c #CD78ED",
"o.	c #C768EB",
"p.	c #C35FEA",
"q.	c #C157E9",
"r.	c #BD4EE7",
"s.	c #BA46E6",
"t.	c #B63BE5",
"u.	c #E4B6F6",
"v.	c #D183EE",
"w.	c #CE7CED",
"x.	c #C970EC",
"y.	c #C35FE9",
"z.	c #C057E8",
"A.	c #BD4EE8",
"B.	c #BB46E6",
"C.	c #B73DE5",
"D.	c #B435E4",
"E.	c #E8C2F7",
"F.	c #E5B8F6",
"G.	c #E2B0F4",
"H.	c #D184EF",
"I.	c #CD7CED",
"J.	c #B73EE5",
"K.	c #B436E4",
"L.	c #B02DE3",
"M.	c #E1B1F4",
"N.	c #DBA0F2",
"O.	c #D897F1",
"P.	c #D287EF",
"Q.	c #CA73ED",
"R.	c #BC48E7",
"S.	c #B841E6",
"T.	c #B438E5",
"U.	c #B230E3",
"V.	c #AF28E2",
"W.	c #DEA8F4",
"X.	c #D997F2",
"Y.	c #CC75EC",
"Z.	c #C86DEC",
"`.	c #C564EA",
" +	c #C25DE9",
".+	c #BF54E8",
"++	c #BB49E7",
"@+	c #B840E6",
"#+	c #B230E4",
"$+	c #AF28E3",
"%+	c #AC1FE1",
"&+	c #D99AF2",
"*+	c #D691F0",
"=+	c #D081EF",
"-+	c #CC75ED",
";+	c #C96DEB",
">+	c #C565EB",
",+	c #C25CE9",
"'+	c #B943E6",
")+	c #B333E3",
"!+	c #B02AE3",
"~+	c #AD21E2",
"{+	c #A816E0",
"]+	c #C668EB",
"^+	c #C45FEA",
"/+	c #C057E9",
"(+	c #BC4BE7",
"_+	c #B944E6",
":+	c #B63AE5",
"<+	c #B332E3",
"[+	c #AC21E2",
"}+	c #A919E0",
"|+	c #A611DF",
"1+	c #DB9CF2",
"2+	c #D284EE",
"3+	c #CD78EE",
"4+	c #C767EB",
"5+	c #BB47E7",
"6+	c #B73EE6",
"7+	c #B12DE3",
"8+	c #AE24E2",
"9+	c #AA19E0",
"0+	c #A611E0",
"a+	c #A309DE",
"b+	c #CE7BEE",
"c+	c #C25AE9",
"d+	c #BD4FE7",
"e+	c #AB1CE1",
"f+	c #A713DF",
"g+	c #A50BDE",
"h+	c #A103DD",
"i+	c #BF51E8",
"j+	c #BB49E6",
"k+	c #B840E5",
"l+	c #B538E5",
"m+	c #AA1CE1",
"n+	c #A40BDF",
"o+	c #A103DE",
"p+	c #A000DD",
"q+	c #BE52E8",
"r+	c #B841E5",
"s+	c #B438E4",
"t+	c #B130E4",
"u+	c #AE27E2",
"v+	c #AB1FE1",
"w+	c #A916E0",
"x+	c #A50EDF",
"y+	c #A206DE",
"z+	c #CB75EC",
"A+	c #B332E4",
"B+	c #AF27E2",
"C+	c #AC1EE1",
"D+	c #A306DE",
"E+	c #CC78ED",
"F+	c #C360EA",
"G+	c #BF55E8",
"H+	c #B02AE2",
"I+	c #A919E1",
"J+	c #A308DE",
"K+	c #C460EA",
"L+	c #BA46E7",
"M+	c #AD22E2",
"N+	c #A309DF",
"O+	c #C86AEC",
"P+	c #BE4EE7",
"Q+	c #AD25E2",
"R+	c #AA1CE0",
"S+	c #A713E0",
"T+	c #A50BDF",
"U+	c #BF52E8",
"V+	c #BC49E7",
"W+	c #A714E0",
"X+	c #A40BDE",
"Y+	c #BE52E7",
"Z+	c #BB48E6",
"`+	c #B12FE4",
" @	c #AE28E2",
".@	c #A206DD",
"+@	c #B232E4",
"@@	c #AC21E1",
"#@	c #A91AE0",
"$@	c #A711E0",
"%@	c #A205DE",
"&@	c #B333E4",
"*@	c #AF2AE3",
"=@	c #A711DF",
"-@	c #A409DE",
";@	c #B335E4",
">@	c #AE25E2",
",@	c #A714DF",
"'@	c #B130E3",
")@	c #AC1FE2",
"!@	c #A40CDE",
"~@	c #A50EDE",
"{@	c #AA1AE0",
"]@	c #A710DF",
"^@	c #A408DF",
"/@	c #A102DD",
"                                                              .                                 ",
"                                                          + @ # $                               ",
"                                                      % + & * = -                               ",
"                                                    ; > , ' = ) !                               ",
"                                                ~ ; { ] ^ / ( _ :                               ",
"                                            < [ } | 1 2 / 3 4 5 6                               ",
"                                        7 8 9 } 0 a . b c d e 6 f                               ",
"                                      g h i j % k . l $ m n o p q                               ",
"                                  r s t u v % + w ' x y z o A B C                               ",
"                              D r E F G H I J w ' = K L M N O P Q                               ",
"                              R S T U ~ V W X Y Z ( _ ` N O  .Q ..                              ",
"                              +.@.#.$.} %., 2 / ( _ &.*.f =.-.;.>.                              ",
"                              @.#.,.'.| 1 . # c ).!.6 f ~.-.{.].^.                              ",
"                              /.(.v _.1 :.<.[.d }.o p q C ;.|.1.2.                              ",
"                              3.v 4.+ & * = 5.}.o p q 6.7.8.9.0.a.                              ",
"                              b.% + @ * c.) ! d.e.O P f.g.9.h.i.j.                              ",
"                              I J ] k.l.( z M m.O n.Q o.p.q.r.s.t.                              ",
"                              { , u./ 3 _ : 6 v.w.x...y.z.A.B.C.D.                              ",
"                              E.F.G.( 4 : 6 H.I.-.;.|.^.2.s.J.K.L.                              ",
"                              . M.$ N.O.o P.B Q.;.|.1.2.R.S.T.U.V.                              ",
"                              * W.).X.o P.q Y.Z.`. +.+++@+T.#+$+%+                              ",
"                              = 5.&+*+m.=+-+;+>+,+.+i.'+t.)+!+~+{+                              ",
"                              - L ` N O P x.]+^+/+(+_+:+<+!+[+}+|+                              ",
"                              1+&.6 2+3+Q 4+^+z.r.5+6+D.7+8+9+0+a+                              ",
"                              !.6 f b+-.{.].c+d+s.C.K.7+8+e+f+g+h+                              ",
"                              o f =.-.{.].1.i+j+k+l+#+8+m+f+n+o+p+                              ",
"                              p q C ;+g. +q+j+r+s+t+u+v+w+x+y+p+p+                              ",
"                              q z+;+>+ +.+(+'+:+A+B+C+{+x+D+p+p+p+                              ",
"                              E+x.o.F+G+i._+:+A+H+[+I+0+J+p+p+p+p+                              ",
"                              Q ..K+/+d+L+J.D.H+M+}+0+N+p+p+p+p+p+                              ",
"                              O+]./+P+B.J.D.7+Q+R+S+T+p+p+p+p+p+p+                              ",
"                              |.^.U+V+@+l+L.8+e+W+X+h+p+p+p+p+p+p+                              ",
"                              ^.Y+Z+S.l+`+ @v+{+x+o+p+p+p+p+p+p+p+                              ",
"                              .+(+'+t.U.B+%+{+x+.@p+p+p+p+p+p+p+p+                              ",
"                              i._+t.+@H+@@#@$@%@p+p+p+p+p+p+p+p+p+                              ",
"                              s.J.&@*@[+}+=@-@p+p+p+p+p+p+p+p+p+p+                              ",
"                              J.D.7+8+e+W+-@p+p+p+p+p+p+p+p+p+p+p+                              ",
"                              ;@L.>@e+,@T+h+p+p+p+p+p+p+p+p+p+p+p+                              ",
"                              '@B+)@{+!@h+p+p+p+p+p+p+p+p+p+p+p+p+                              ",
"                              B+v+{+x+y+p+p+p+p+p+p+p+p+p+p+p+                                  ",
"                              @@I+~@%@p+p+p+p+p+p+p+p+p+p+                                      ",
"                              {@]@a+p+p+p+p+p+p+p+p+p+p+                                        ",
"                              =@^@p+p+p+p+p+p+p+p+p+                                            ",
"                              X+/@p+p+p+p+p+p+p+                                                ",
"                              h+p+p+p+p+p+p+                                                    ",
"                              p+p+p+p+p+p+                                                      ",
"                              p+p+p+p+                                                          ",
"                                p+                                                              "};
