/* XPM */
static char * panelSideRightUP_xpm[] = {
"48 48 763 2",
"  	c None",
". 	c #C1C1C1",
"+ 	c #DEDEDE",
"@ 	c #E2E2E2",
"# 	c #DCDCDC",
"$ 	c #D1CBCB",
"% 	c #E5E1E1",
"& 	c #E1DEDE",
"* 	c #FBFAFA",
"= 	c #F7F6F6",
"- 	c #BDB0B1",
"; 	c #E8DBDB",
"> 	c #DFD5D5",
", 	c #F3EAEA",
"' 	c #FFF7F7",
") 	c #FFF9F9",
"! 	c #F7F2F2",
"~ 	c #000000",
"{ 	c #E3CECF",
"] 	c #E0CFCF",
"^ 	c #E9D8D8",
"/ 	c #FFEEEE",
"( 	c #FFF0F0",
"_ 	c #FFF1F1",
": 	c #FFF3F3",
"< 	c #F7EDED",
"[ 	c #D6BBBB",
"} 	c #E7CCCC",
"| 	c #E3C9C9",
"1 	c #FFE5E5",
"2 	c #FFE6E7",
"3 	c #FFE8E8",
"4 	c #FFEAEA",
"5 	c #FFECEC",
"6 	c #FFEEED",
"7 	c #F7E7E7",
"8 	c #CAA8A9",
"9 	c #E7C4C4",
"0 	c #E2C1C1",
"a 	c #F6D4D4",
"b 	c #FFDEDE",
"c 	c #FFDFDF",
"d 	c #FFE1E1",
"e 	c #FFE3E3",
"f 	c #FFE4E4",
"g 	c #FFE6E6",
"h 	c #F7E2E2",
"i 	c #E3B8B8",
"j 	c #E1B8B8",
"k 	c #F0C6C6",
"l 	c #FFD4D4",
"m 	c #FFD6D6",
"n 	c #FFD8D8",
"o 	c #FFDADA",
"p 	c #FFDBDB",
"q 	c #FFDDDD",
"r 	c #FFE2E2",
"s 	c #F7DDDD",
"t 	c #DDABAB",
"u 	c #E5B4B4",
"v 	c #E7B6B6",
"w 	c #FFCBCB",
"x 	c #FFCDCD",
"y 	c #FFCFCF",
"z 	c #FFD1D1",
"A 	c #FFD2D2",
"B 	c #FFD7D8",
"C 	c #FFD9D9",
"D 	c #F7D7D7",
"E 	c #976F70",
"F 	c #E5ABAB",
"G 	c #E3ABAB",
"H 	c #FCC0C0",
"I 	c #FFC4C4",
"J 	c #FFC6C6",
"K 	c #FFC8C7",
"L 	c #FFC9C9",
"M 	c #FFCECE",
"N 	c #FFD0D0",
"O 	c #FFD5D5",
"P 	c #FFD7D7",
"Q 	c #F7D2D2",
"R 	c #D99C9C",
"S 	c #DB9F9F",
"T 	c #FFBBBB",
"U 	c #FFBDBD",
"V 	c #FFBEBE",
"W 	c #FFC0C0",
"X 	c #FFC2C2",
"Y 	c #FFC5C5",
"Z 	c #FFC7C7",
"` 	c #FFCCCC",
" .	c #F7CCCC",
"..	c #D99797",
"+.	c #DE9C9C",
"@.	c #FFB5B5",
"#.	c #FFB7B7",
"$.	c #FFB9B9",
"%.	c #FFBCBC",
"&.	c #FFC2C1",
"*.	c #FFC3C3",
"=.	c #FFC9C8",
"-.	c #FFCACA",
";.	c #F7C7C7",
">.	c #D99393",
",.	c #DE9898",
"'.	c #FFB0B0",
").	c #FFB1B1",
"!.	c #FFB3B3",
"~.	c #FFB8B8",
"{.	c #FFBABA",
"].	c #FFBFBF",
"^.	c #FFC1C1",
"/.	c #F7C2C2",
"(.	c #D98E8E",
"_.	c #DE9393",
":.	c #FFAAAA",
"<.	c #FFACAC",
"[.	c #FFADAE",
"}.	c #FFAFAF",
"|.	c #FFB6B6",
"1.	c #FFBBBC",
"2.	c #F7BCBC",
"3.	c #D98989",
"4.	c #DE8E8E",
"5.	c #FFA4A5",
"6.	c #FFA6A6",
"7.	c #FFA8A8",
"8.	c #FFABAB",
"9.	c #FFADAD",
"0.	c #FFB2B2",
"a.	c #FFB4B4",
"b.	c #F7B7B7",
"c.	c #D98484",
"d.	c #DE8989",
"e.	c #FF9F9F",
"f.	c #FFA1A1",
"g.	c #FFA2A2",
"h.	c #FFA4A4",
"i.	c #FFA7A8",
"j.	c #FFA9A9",
"k.	c #F7B1B1",
"l.	c #D98080",
"m.	c #DE8484",
"n.	c #FF9999",
"o.	c #FF9B9B",
"p.	c #FF9D9D",
"q.	c #FF9E9F",
"r.	c #FFA0A0",
"s.	c #FFA5A6",
"t.	c #FFA7A7",
"u.	c #FFADAC",
"v.	c #FFAEAE",
"w.	c #F7ACAC",
"x.	c #D97B7B",
"y.	c #DE7F7F",
"z.	c #FF9494",
"A.	c #FF9695",
"B.	c #FF9797",
"C.	c #FF9C9C",
"D.	c #FF9E9E",
"E.	c #FFA3A3",
"F.	c #FFA5A5",
"G.	c #F7A6A6",
"H.	c #D97676",
"I.	c #DE7A7A",
"J.	c #FF8E8E",
"K.	c #FF9090",
"L.	c #FF9292",
"M.	c #FF9393",
"N.	c #FF9595",
"O.	c #FF9898",
"P.	c #FF9A9A",
"Q.	c #F7A1A1",
"R.	c #D97171",
"S.	c #DE7575",
"T.	c #FF8888",
"U.	c #FF8A8A",
"V.	c #FF8C8C",
"W.	c #FF8F90",
"X.	c #FF9191",
"Y.	c #FF9796",
"Z.	c #F79C9C",
"`.	c #C7C7C7",
" +	c #020202",
".+	c #D96D6D",
"++	c #DE7170",
"@+	c #FF8383",
"#+	c #FF8585",
"$+	c #FF8686",
"%+	c #FF8B8C",
"&+	c #FF8D8D",
"*+	c #FF8F8F",
"=+	c #FF9293",
"-+	c #FF9696",
";+	c #FF9A99",
">+	c #F79696",
",+	c #CFCFCF",
"'+	c #F7F7F7",
")+	c #EDEDEF",
"!+	c #4B4B55",
"~+	c #D96868",
"{+	c #DE6C6C",
"]+	c #FF7D7D",
"^+	c #FF7F7F",
"/+	c #FF8181",
"(+	c #FF8484",
"_+	c #FF898A",
":+	c #FF8B8B",
"<+	c #FF9091",
"[+	c #F79191",
"}+	c #BCBCBC",
"|+	c #EDEDED",
"1+	c #FEFEFF",
"2+	c #FAFAFF",
"3+	c #E7E7F0",
"4+	c #020203",
"5+	c #B1B1CD",
"6+	c #BBBBDC",
"7+	c #D96363",
"8+	c #DE6767",
"9+	c #FF7878",
"0+	c #FF797A",
"a+	c #FF7B7B",
"b+	c #FF8080",
"c+	c #FF8282",
"d+	c #FF8787",
"e+	c #FF8989",
"f+	c #F78B8B",
"g+	c #E4E4E4",
"h+	c #FFFFFF",
"i+	c #FCFCFF",
"j+	c #F8F8FF",
"k+	c #F4F4FF",
"l+	c #E1E1EF",
"m+	c #030303",
"n+	c #ADADCE",
"o+	c #D3D3FF",
"p+	c #CACAF9",
"q+	c #A5A5D2",
"r+	c #D95E5E",
"s+	c #DE6262",
"t+	c #FF7272",
"u+	c #FF7474",
"v+	c #FF7676",
"w+	c #FF7777",
"x+	c #FF7979",
"y+	c #FF7E7E",
"z+	c #FF8384",
"A+	c #F78686",
"B+	c #D8D8D8",
"C+	c #FDFDFE",
"D+	c #FDFDFF",
"E+	c #F6F5FF",
"F+	c #F1F1FF",
"G+	c #EDEDFF",
"H+	c #DBDBEF",
"I+	c #A7A7CE",
"J+	c #CCCCFF",
"K+	c #C8C8FF",
"L+	c #C4C4FF",
"M+	c #B2B2EE",
"N+	c #8D8DC2",
"O+	c #D95A5A",
"P+	c #DE5D5D",
"Q+	c #FF6C6C",
"R+	c #FF6E6E",
"S+	c #FF7070",
"T+	c #FF7473",
"U+	c #FF7575",
"V+	c #FF7A7A",
"W+	c #FF7C7C",
"X+	c #F78080",
"Y+	c #D0D0D0",
"Z+	c #F5F5F5",
"`+	c #FBFBFF",
" @	c #F7F7FF",
".@	c #F3F3FF",
"+@	c #EFEFFF",
"@@	c #EBEBFF",
"#@	c #E7E7FF",
"$@	c #D5D5F0",
"%@	c #A1A2CE",
"&@	c #C5C5FF",
"*@	c #C1C1FF",
"=@	c #BDBDFF",
"-@	c #B9B9FF",
";@	c #B5B5FF",
">@	c #9D9DE3",
",@	c #D95555",
"'@	c #DE5858",
")@	c #FF6767",
"!@	c #FF6969",
"~@	c #FF6A6A",
"{@	c #FF7171",
"]@	c #FF7373",
"^@	c #FF7D7E",
"/@	c #F77B7B",
"(@	c #ECECEC",
"_@	c #F9F9FF",
":@	c #F5F5FF",
"<@	c #EDECFF",
"[@	c #E8E8FF",
"}@	c #E4E4FF",
"|@	c #E0E0FF",
"1@	c #CFCFF0",
"2@	c #9C9CCE",
"3@	c #BFBFFF",
"4@	c #BBBBFF",
"5@	c #B7B7FF",
"6@	c #B2B3FF",
"7@	c #AEAEFF",
"8@	c #AAAAFF",
"9@	c #A5A5FD",
"0@	c #8887D7",
"a@	c #D95050",
"b@	c #DE5353",
"c@	c #FF6161",
"d@	c #FF6363",
"e@	c #FF6565",
"f@	c #FF6666",
"g@	c #FF6868",
"h@	c #FF6F6F",
"i@	c #F77676",
"j@	c #E1E1E1",
"k@	c #F6F6FF",
"l@	c #F2F2FF",
"m@	c #EEEEFF",
"n@	c #EAEAFF",
"o@	c #E6E6FF",
"p@	c #E2E2FF",
"q@	c #DEDEFF",
"r@	c #D9D9FF",
"s@	c #C8C8EF",
"t@	c #9797CE",
"u@	c #B8B8FF",
"v@	c #B4B4FF",
"w@	c #B0B0FF",
"x@	c #ACACFF",
"y@	c #A8A8FF",
"z@	c #A4A4FF",
"A@	c #9F9FFF",
"B@	c #9B9BFF",
"C@	c #9292F6",
"D@	c #7576CE",
"E@	c #D64A49",
"F@	c #DE4F4F",
"G@	c #FF5C5C",
"H@	c #FF5D5D",
"I@	c #FF5F5F",
"J@	c #FF6464",
"K@	c #FF6B6B",
"L@	c #FF6D6D",
"M@	c #F77070",
"N@	c #999999",
"O@	c #EFEFEF",
"P@	c #F0F0FF",
"Q@	c #ECECFF",
"R@	c #E3E3FF",
"S@	c #DFDFFF",
"T@	c #DBDBFF",
"U@	c #D7D7FF",
"V@	c #C2C2F0",
"W@	c #9191CE",
"X@	c #B2B2FF",
"Y@	c #ADADFF",
"Z@	c #A9A9FF",
"`@	c #A5A5FF",
" #	c #A1A1FF",
".#	c #9D9DFF",
"+#	c #9999FF",
"@#	c #9595FF",
"##	c #9191FF",
"$#	c #8C8CFF",
"%#	c #D25272",
"&#	c #DE4A4A",
"*#	c #FF5656",
"=#	c #FF5858",
"-#	c #FF5A5A",
";#	c #FF5B5B",
">#	c #FF6262",
",#	c #FF6867",
"'#	c #F76B6B",
")#	c #B9B9B9",
"!#	c #E5E5E6",
"~#	c #DEDEE2",
"{#	c #F3F3FC",
"]#	c #E9E9FF",
"^#	c #E5E5FF",
"/#	c #E1E1FF",
"(#	c #DDDDFF",
"_#	c #D5D5FF",
":#	c #D0D0FF",
"<#	c #BCBCF0",
"[#	c #8C8CCE",
"}#	c #ABABFF",
"|#	c #A7A7FF",
"1#	c #A3A3FF",
"2#	c #9A9BFF",
"3#	c #9696FF",
"4#	c #9292FF",
"5#	c #8E8EFF",
"6#	c #8A8AFF",
"7#	c #8686FF",
"8#	c #D24D6F",
"9#	c #DE4545",
"0#	c #FF5151",
"a#	c #FF5252",
"b#	c #FF5454",
"c#	c #FF5757",
"d#	c #FF5959",
"e#	c #FF5E5E",
"f#	c #FF6060",
"g#	c #F76565",
"h#	c #D2D1DB",
"i#	c #D7D7E6",
"j#	c #D5D5E6",
"k#	c #DEDFFF",
"l#	c #DADAFF",
"m#	c #D6D6FF",
"n#	c #D2D2FF",
"o#	c #CECEFF",
"p#	c #CACAFF",
"q#	c #C6C6FF",
"r#	c #B6B6F0",
"s#	c #020204",
"t#	c #8787CE",
"u#	c #A0A0FF",
"v#	c #9C9CFF",
"w#	c #9898FF",
"x#	c #9494FF",
"y#	c #9090FF",
"z#	c #8788FF",
"A#	c #8383FF",
"B#	c #7F7FFF",
"C#	c #D1486D",
"D#	c #DE4040",
"E#	c #FF4B4B",
"F#	c #FF4D4D",
"G#	c #FF4F4E",
"H#	c #FF5050",
"I#	c #FF5555",
"J#	c #FF6162",
"K#	c #F76060",
"L#	c #CCCCE3",
"M#	c #C6C6E1",
"N#	c #D8D8FF",
"O#	c #D4D4FF",
"P#	c #C7C7FF",
"Q#	c #C3C3FF",
"R#	c #B0B0F0",
"S#	c #010103",
"T#	c #8181CD",
"U#	c #9E9EFF",
"V#	c #9A9AFF",
"W#	c #9192FF",
"X#	c #8D8DFF",
"Y#	c #8989FF",
"Z#	c #8585FF",
"`#	c #8181FF",
" $	c #7D7DFF",
".$	c #7978FF",
"+$	c #D1436B",
"@$	c #DE3B3B",
"#$	c #FF4545",
"$$	c #FF4747",
"%$	c #FF4949",
"&$	c #FF4B4A",
"*$	c #FF4C4C",
"=$	c #FF4E4E",
"-$	c #FF5251",
";$	c #FF5353",
">$	c #FF5958",
",$	c #F75B5B",
"'$	c #ADADCA",
")$	c #C2C2E8",
"!$	c #BABAE2",
"~$	c #C6C6F6",
"{$	c #C9C9FF",
"]$	c #AAAAF1",
"^$	c #202034",
"/$	c #1F1F34",
"($	c #1F1F35",
"_$	c #1E1E36",
":$	c #1C1C34",
"<$	c #7D7DCF",
"[$	c #9797FF",
"}$	c #9393FF",
"|$	c #8F8FFF",
"1$	c #8B8BFF",
"2$	c #8787FF",
"3$	c #7E7EFF",
"4$	c #7A7AFF",
"5$	c #7676FF",
"6$	c #7272FF",
"7$	c #D13E69",
"8$	c #DE3737",
"9$	c #FF4040",
"0$	c #FF4141",
"a$	c #FF4343",
"b$	c #FF4948",
"c$	c #FF4A4A",
"d$	c #FF4F4F",
"e$	c #F75555",
"f$	c #AAAAD6",
"g$	c #B3B3E7",
"h$	c #ADADE3",
"i$	c #BABAFF",
"j$	c #B6B6FF",
"k$	c #ADAEFF",
"l$	c #A7A7FC",
"m$	c #A3A3FC",
"n$	c #9F9FFC",
"o$	c #9B9BFC",
"p$	c #9797FC",
"q$	c #9494FE",
"r$	c #8888FF",
"s$	c #8484FF",
"t$	c #8080FF",
"u$	c #7C7CFF",
"v$	c #7878FF",
"w$	c #7474FF",
"x$	c #7070FF",
"y$	c #6B6BFF",
"z$	c #D03A68",
"A$	c #DE3232",
"B$	c #FF3A3A",
"C$	c #FF3C3C",
"D$	c #FF3E3D",
"E$	c #FF3F3F",
"F$	c #FF4544",
"G$	c #FF4646",
"H$	c #FF4848",
"I$	c #F75050",
"J$	c #A7A7E2",
"K$	c #A2A2E1",
"L$	c #A4A4E9",
"M$	c #AFB0FF",
"N$	c #9293FF",
"O$	c #8282FF",
"P$	c #7575FF",
"Q$	c #7171FF",
"R$	c #6D6DFF",
"S$	c #6969FF",
"T$	c #6565FF",
"U$	c #D03566",
"V$	c #DE2D2E",
"W$	c #FF3434",
"X$	c #FF3636",
"Y$	c #FF3838",
"Z$	c #FF3B3C",
"`$	c #FF3D3D",
" %	c #FF4242",
".%	c #FF4444",
"+%	c #F74A4A",
"@%	c #8484BD",
"#%	c #9D9DE7",
"$%	c #9393DF",
"%%	c #9D9CF2",
"&%	c #8483FF",
"*%	c #7B7BFF",
"=%	c #7777FF",
"-%	c #7373FF",
";%	c #6F6FFF",
">%	c #6766FF",
",%	c #6262FF",
"'%	c #5E5EFF",
")%	c #D03065",
"!%	c #DE2929",
"~%	c #FF2F2F",
"{%	c #FF3131",
"]%	c #FF3232",
"^%	c #FF3939",
"/%	c #FF3B3B",
"(%	c #F74545",
"_%	c #8585D0",
":%	c #8E8EE6",
"<%	c #8787E0",
"[%	c #9393FA",
"}%	c #7979FF",
"|%	c #6C6CFF",
"1%	c #6868FF",
"2%	c #6464FF",
"3%	c #6060FF",
"4%	c #5C5CFF",
"5%	c #5858FF",
"6%	c #CF2C64",
"7%	c #DE2424",
"8%	c #FF2929",
"9%	c #FF2B2B",
"0%	c #FF2D2D",
"a%	c #FF2F2E",
"b%	c #FF3030",
"c%	c #FF3536",
"d%	c #FF3737",
"e%	c #FF3E3E",
"f%	c #F74040",
"g%	c #8080DC",
"h%	c #7E7EE2",
"i%	c #7D7DE4",
"j%	c #7A7BFF",
"k%	c #6E6EFF",
"l%	c #6A6AFF",
"m%	c #6666FF",
"n%	c #5959FF",
"o%	c #5555FF",
"p%	c #5151FF",
"q%	c #CF2763",
"r%	c #DE2020",
"s%	c #FF2424",
"t%	c #FF2625",
"u%	c #FF2727",
"v%	c #FF2C2D",
"w%	c #FF2E2E",
"x%	c #FF3433",
"y%	c #FF3535",
"z%	c #FF3839",
"A%	c #E63741",
"B%	c #7575E1",
"C%	c #7171E2",
"D%	c #7273EB",
"E%	c #6768FF",
"F%	c #6363FF",
"G%	c #5F5FFF",
"H%	c #5B5BFF",
"I%	c #5757FF",
"J%	c #5353FF",
"K%	c #4F4FFF",
"L%	c #4B4AFF",
"M%	c #CF2362",
"N%	c #DE1C1C",
"O%	c #FF1E1E",
"P%	c #FF2020",
"Q%	c #FF2222",
"R%	c #FF2323",
"S%	c #FF2525",
"T%	c #FF2A2A",
"U%	c #FF2C2C",
"V%	c #F7322E",
"W%	c #AA24A2",
"X%	c #000AE2",
"Y%	c #5F5FC4",
"Z%	c #6B6AE7",
"`%	c #6464E1",
" &	c #6868F3",
".&	c #6161FF",
"+&	c #5D5DFF",
"@&	c #5454FF",
"#&	c #5050FF",
"$&	c #4C4CFF",
"%&	c #4848FF",
"&&	c #4444FF",
"*&	c #CF1F61",
"=&	c #DE1718",
"-&	c #FF1818",
";&	c #FF1A1A",
">&	c #FF1C1C",
",&	c #FF1F20",
"'&	c #FF2121",
")&	c #FF2626",
"!&	c #FF2828",
"~&	c #FE2A2A",
"{&	c #C42382",
"]&	c #4F10DD",
"^&	c #0D0DD6",
"/&	c #5858D0",
"(&	c #5D5DE8",
"_&	c #5757E1",
":&	c #5D5DFC",
"<&	c #5A5AFF",
"[&	c #5656FF",
"}&	c #5252FF",
"|&	c #4E4EFF",
"1&	c #4A4AFF",
"2&	c #4646FF",
"3&	c #4141FF",
"4&	c #3D3DFF",
"5&	c #CF1B60",
"6&	c #DE1414",
"7&	c #FF1313",
"8&	c #FF1515",
"9&	c #FF1616",
"0&	c #FF1D1D",
"a&	c #FF1F1F",
"b&	c #DF2051",
"c&	c #6E13CE",
"d&	c #0B0BE2",
"e&	c #5151E0",
"f&	c #4E4EE3",
"g&	c #4C4BE4",
"h&	c #4B4BFF",
"i&	c #4747FF",
"j&	c #4343FF",
"k&	c #3F3FFF",
"l&	c #3B3BFF",
"m&	c #3737FF",
"n&	c #CE1760",
"o&	c #DE1010",
"p&	c #FF0D0D",
"q&	c #FF0F0F",
"r&	c #FF1111",
"s&	c #FF1414",
"t&	c #EF1930",
"u&	c #9214B6",
"v&	c #040BE6",
"w&	c #1010BE",
"x&	c #4646E5",
"y&	c #4040E0",
"z&	c #4141EF",
"A&	c #3838FF",
"B&	c #3434FF",
"C&	c #3030FF",
"D&	c #CE135F",
"E&	c #DE0D0D",
"F&	c #FF0808",
"G&	c #FF0909",
"H&	c #FF0B0B",
"I&	c #F91107",
"J&	c #B31297",
"K&	c #300CE4",
"L&	c #0F0FCD",
"M&	c #3737CA",
"N&	c #3838E4",
"O&	c #3434E1",
"P&	c #3435F7",
"Q&	c #3232FF",
"R&	c #2E2EFF",
"S&	c #2A2AFF",
"T&	c #CE105F",
"U&	c #DE0909",
"V&	c #FF0202",
"W&	c #FF0404",
"X&	c #FF0606",
"Y&	c #FE0808",
"Z&	c #D20E6C",
"`&	c #500DDB",
" *	c #0E0ED8",
".*	c #2D2DD6",
"+*	c #2B2BE5",
"@*	c #2828E2",
"#*	c #2727FD",
"$*	c #2323FF",
"%*	c #CE0E5F",
"&*	c #FF0000",
"**	c #E40744",
"=*	c #750DC9",
"-*	c #0D0DDF",
";*	c #2323E2",
">*	c #1E1FE1",
",*	c #1C1CE8",
"'*	c #CE0C60",
")*	c #F1041D",
"!*	c #A20CA8",
"~*	c #010DE6",
"{*	c #1111C3",
"]*	c #1A1ABE",
"^*	c #1717E6",
"/*	c #8910B5",
"(*	c #971086",
"_*	c #390DE4",
":*	c #1010CF",
"<*	c #1212CE",
"[*	c #1313B6",
"                                                                                              . ",
"                                                                                          + @ # ",
"                                                                                      $ % & * = ",
"                                                                                  - ; > , ' ) ! ",
"                                  ~ ~                                           { ] ^ / ( _ : < ",
"                                ~ ~ ~ ~                                     [ } | 1 2 3 4 5 6 7 ",
"                              ~ ~ ~ ~ ~ ~                               8 9 0 a b c d e f g 3 h ",
"                            ~ ~ ~ ~ ~ ~ ~ ~                           i j k l m n o p q c d r s ",
"                          ~ ~ ~ ~ ~ ~ ~ ~ ~ ~                     t u v w x y z A l m B C p q D ",
"                        ~ ~ ~ ~ ~ ~ ~ ~ ~ ~ ~ ~               E F G H I J K L w x M N A l O P Q ",
"                      ~ ~ ~ ~ ~ ~ ~ ~ ~ ~ ~ ~ ~ ~             R S T U V W X I Y Z L w ` M N A  .",
"                    ~ ~ ~ ~ ~ ~ ~ ~ ~ ~ ~ ~ ~ ~ ~ ~           ..+.@.#.$.T %.V W &.*.Y Z =.-.` ;.",
"                  ~ ~ ~ ~ ~ ~ ~ ~ ~ ~ ~ ~ ~ ~ ~ ~ ~ ~         >.,.'.).!.@.#.~.{.%.V ].^.*.Y J /.",
"                              ~ ~ ~ ~ ~                       (._.:.<.[.}.).!.@.|.~.{.1.U ].^.2.",
"                              ~ ~ ~ ~ ~                       3.4.5.6.7.:.8.9.}.).0.a.|.~.$.T b.",
"                              ~ ~ ~ ~ ~                       c.d.e.f.g.h.6.i.j.8.9.}.'.0.a.|.k.",
"                              ~ ~ ~ ~ ~                       l.m.n.o.p.q.r.g.h.s.t.j.8.u.v.'.w.",
"                              ~ ~ ~ ~ ~                       x.y.z.A.B.n.o.C.D.r.g.E.F.t.j.:.G.",
"                              ~ ~ ~ ~ ~                       H.I.J.K.L.M.N.B.O.P.C.D.e.f.E.F.Q.",
"                              ~ ~ ~ ~ ~                       R.S.T.U.V.J.W.X.M.N.Y.O.P.C.p.e.Z.",
"                            `. +~ ~ ~ ~                       .+++@+#+$+T.U.%+&+*+X.=+z.-+O.;+>+",
"                        ,+'+)+ +~ ~ ~ ~ !+                    ~+{+]+^+/+@+(+$+T._+:+&+*+<+L.z.[+",
"                    }+|+1+2+3+4+~ ~ ~ ~ 5+6+                  7+8+9+0+a+]+^+b+c+(+$+d+e+:+&+J.f+",
"                  g+h+i+j+k+l+m+~ ~ ~ ~ n+o+p+q+              r+s+t+u+v+w+x+a+]+y+b+c+z+#+d+e+A+",
"              B+C+D+2+E+F+G+H+4+~ ~ ~ ~ I+J+K+L+M+N+          O+P+Q+R+S+t+T+U+w+x+V+W+y+b+/+@+X+",
"          Y+Z+1+`+ @.@+@@@#@$@4+~ ~ ~ ~ %@&@*@=@-@;@>@        ,@'@)@!@~@Q+R+S+{@]@U+w+9+V+W+^@/@",
"        (@h+D+_@:@F+<@[@}@|@1@4+~ ~ ~ ~ 2@3@4@5@6@7@8@9@0@    a@b@c@d@e@f@g@~@Q+R+h@{@]@u+v+9+i@",
"    j@h+1+`+k@l@m@n@o@p@q@r@s@4+~ ~ ~ ~ t@u@v@w@x@y@z@A@B@C@D@E@F@G@H@I@c@d@J@f@g@~@K@L@h@{@t+M@",
"N@O@h+i+j+k+P@Q@[@R@S@T@U@o+V@4+~ ~ ~ ~ W@X@Y@Z@`@ #.#+#@###$#%#&#*#=#-#;#H@I@c@>#J@f@,#!@K@L@'#",
")#!#~#{#l@G+]#^#/#(#r@_#:#J+<#4+~ ~ ~ ~ [#}#|#1#A@2#3#4#5#6#7#8#9#0#a#b#*#c#d#;#H@e#f#>#J@e@)@g#",
"    h#i#j##@R@k#l#m#n#o#p#q#r#s#~ ~ ~ ~ t#z@u#v#w#x#y#$#z#A#B#C#D#E#F#G#H#a#b#I#c#d#;#G@e#f#J#K#",
"        L#M#1@N#O#:#J+P#Q#3@R#S#~ ~ ~ ~ T#U#V#3#W#X#Y#Z#`# $.$+$@$#$$$%$&$*$=$H#-$;$I#c#>$-#G@,$",
"          '$)$!$~${$&@*@=@u@]$^$/$($_$:$<$[$}$|$1$2$A#3$4$5$6$7$8$9$0$a$#$$$b$c$*$=$d$0#;$I#*#e$",
"              f$g$h$3@i$j$X@k$l$m$n$o$p$q$##X#r$s$t$u$v$w$x$y$z$A$B$C$D$E$0$a$F$G$H$c$*$F#d$0#I$",
"                  J$K$L$M$}#|#1#A@B@[$N$5#6#7#O$3$4$P$Q$R$S$T$U$V$W$X$Y$B$Z$`$E$0$ %.%G$H$%$E#+%",
"                    @%#%$%%% #v#w#x#y#$#r$&%B#*%=%-%;%y$>%,%'%)%!%~%{%]%W$X$Y$^%/%`$E$9$ %.%G$(%",
"                        _%:%<%[%4#5#Y#Z#`# $}%P$Q$|%1%2%3%4%5%6%7%8%9%0%a%b%]%W$c%d%^%/%C$e%9$f%",
"                            g%h%i%2$A#B#j%5$6$k%l%m%,%'%n%o%p%q%r%s%t%u%8%9%v%w%b%]%x%y%d%z%B$A%",
"                                B%C%D%v$w$x$|%E%F%G%H%I%J%K%L%M%N%O%P%Q%R%S%u%8%T%U%w%b%{%V%W%X%",
"                                  Y%Z%`% &S$T$.&+&n%@&#&$&%&&&*&=&-&;&>&O%,&'&R%S%)&!&~&{&]&^&  ",
"                                      /&(&_&:&<&[&}&|&1&2&3&4&5&6&7&8&9&-&;&>&0&a&'&b&c&d&      ",
"                                          e&f&g&#&h&i&j&k&l&m&n&o&p&q&r&7&s&9&-&t&u&v&w&        ",
"                                              x&y&z&3&4&A&B&C&D&E&F&G&H&p&q&I&J&K&L&            ",
"                                                M&N&O&P&Q&R&S&T&U&V&W&X&Y&Z&`& *                ",
"                                                    .*+*@*#*$*%*U&&*&***=*-*                    ",
"                                                        ;*>*,*'*U&)*!*~*{*                      ",
"                                                          ]*^*/*(*_*:*                          ",
"                                                              <*[*                              "};
