/* XPM */
static char * panelYZ_xpm[] = {
"48 48 151 2",
"  	c None",
". 	c #0808FF",
"+ 	c #0202FF",
"@ 	c #1415FF",
"# 	c #0E0EFF",
"$ 	c #0708FF",
"% 	c #0101FF",
"& 	c #2121FF",
"* 	c #1B1BFF",
"= 	c #1514FF",
"- 	c #2727FF",
"; 	c #1A1BFF",
"> 	c #1414FF",
", 	c #3333FF",
"' 	c #2D2DFF",
") 	c #2120FF",
"! 	c #0807FF",
"~ 	c #0102FF",
"{ 	c #4041FF",
"] 	c #3A3AFF",
"^ 	c #4D4DFF",
"/ 	c #4646FF",
"( 	c #4140FF",
"_ 	c #3434FF",
": 	c #2D2EFF",
"< 	c #0E0FFF",
"[ 	c #5353FF",
"} 	c #4647FF",
"| 	c #4040FF",
"1 	c #6060FF",
"2 	c #5959FF",
"3 	c #4C4CFF",
"4 	c #4746FF",
"5 	c #2E2DFF",
"6 	c #2828FF",
"7 	c #1A1AFF",
"8 	c #6C6CFF",
"9 	c #6665FF",
"0 	c #5F5FFF",
"a 	c #595AFF",
"b 	c #5352FF",
"c 	c #3334FF",
"d 	c #7272FF",
"e 	c #6666FF",
"f 	c #605FFF",
"g 	c #1B1AFF",
"h 	c #0201FF",
"i 	c #7F7FFF",
"j 	c #7979FF",
"k 	c #5F60FF",
"l 	c #4C4DFF",
"m 	c #4747FF",
"n 	c #2827FF",
"o 	c #8B8BFF",
"p 	c #8585FF",
"q 	c #7E7EFF",
"r 	c #7372FF",
"s 	c #6C6BFF",
"t 	c #9798FF",
"u 	c #9191FF",
"v 	c #7878FF",
"w 	c #4D4CFF",
"x 	c #3A39FF",
"y 	c #2728FF",
"z 	c #9E9EFF",
"A 	c #9898FF",
"B 	c #9292FF",
"C 	c #7978FF",
"D 	c #3433FF",
"E 	c #ABAAFF",
"F 	c #A5A4FF",
"G 	c #9291FF",
"H 	c #7879FF",
"I 	c #B7B7FF",
"J 	c #B1B1FF",
"K 	c #AAAAFF",
"L 	c #A4A4FF",
"M 	c #9192FF",
"N 	c #8B8CFF",
"O 	c #6566FF",
"P 	c #4141FF",
"Q 	c #2021FF",
"R 	c #C3C4FF",
"S 	c #BDBDFF",
"T 	c #B1B0FF",
"U 	c #9897FF",
"V 	c #7273FF",
"W 	c #6565FF",
"X 	c #CAC9FF",
"Y 	c #BDBEFF",
"Z 	c #AAABFF",
"` 	c #5253FF",
" .	c #1515FF",
"..	c #D6D7FF",
"+.	c #D0D0FF",
"@.	c #C9CAFF",
"#.	c #C4C3FF",
"$.	c #BEBDFF",
"%.	c #B0B1FF",
"&.	c #8C8BFF",
"*.	c #E3E3FF",
"=.	c #DDDCFF",
"-.	c #C4C4FF",
";.	c #7F7EFF",
">.	c #2E2EFF",
",.	c #F0F1FF",
"'.	c #E9E9FF",
").	c #DDDDFF",
"!.	c #5A59FF",
"~.	c #0F0EFF",
"{.	c #0707FF",
"].	c #F7F7FF",
"^.	c #F0EFFF",
"/.	c #D7D7FF",
"(.	c #393AFF",
"_.	c #FFFFFF",
":.	c #FEFEFF",
"<.	c #F6F6FF",
"[.	c #EFEFFF",
"}.	c #D7D6FF",
"|.	c #BEBEFF",
"1.	c #7E7FFF",
"2.	c #FCFCFF",
"3.	c #E3E2FF",
"4.	c #DCDCFF",
"5.	c #D6D6FF",
"6.	c #ABABFF",
"7.	c #8C8CFF",
"8.	c #F6F5FF",
"9.	c #CACAFF",
"0.	c #DCDDFF",
"a.	c #6B6CFF",
"b.	c #D0D1FF",
"c.	c #A5A5FF",
"d.	c #9797FF",
"e.	c #8485FF",
"f.	c #E2E2FF",
"g.	c #E2E3FF",
"h.	c #D1D0FF",
"i.	c #C3C3FF",
"j.	c #F0F0FF",
"k.	c #A4A5FF",
"l.	c #7373FF",
"m.	c #F5F5FF",
"n.	c #E9EAFF",
"o.	c #B0B0FF",
"p.	c #F5F6FF",
"q.	c #EAE9FF",
"r.	c #B7B8FF",
"s.	c #EFF0FF",
"t.	c #FBFCFF",
"                                                                                      . +       ",
"                                                                                  @ # $ %       ",
"                                                                              & * = # . %       ",
"                                                                            - & ; > # . +       ",
"                                                                        , ' - ) * = # ! ~       ",
"                                                                    { ] , ' - & * = # . +       ",
"                                                                ^ / ( ] _ : - ) ; = < . ~       ",
"                                                              [ ^ } | ] _ ' - & ; @ # . +       ",
"                                                          1 2 [ 3 4 ( ] _ 5 6 ) 7 > # . +       ",
"                                                      8 9 0 a b ^ / | ] c 5 - & * > # . +       ",
"                                                    d 8 e f a [ ^ / ( ] _ ' - & g @ # $ h       ",
"                                                i j d 8 e k 2 [ l m | ] , ' n & g = # $ +       ",
"                                            o p q j r s e 0 2 [ 3 m | ] , ' - & ; > # . +       ",
"                                        t u o p i v d 8 e f 2 [ w } { x _ : y ) ; > # ! +       ",
"                                      z A B o p i C d s e 0 2 [ ^ m { ] D 5 - & g @ # . +       ",
"                                  E F z A G o p q H d 8 9 1 2 [ ^ } | ] , 5 y & * @ # ! %       ",
"                              I J K L z A M N p i v d 8 O 0 2 [ ^ } P ] D ' - Q g > # . +       ",
"                          R S I T K L z U M o p i j V 8 W k 2 [ ^ } | ] , : - Q ; = # ! h       ",
"                        X R Y I J Z L z A B o p i C d 8 e k 2 ` 3 m ( ] _ 5 - & 7  .# $ +       ",
"                    ..+.@.#.$.I %.K L z t u &.p q v d 8 e 0 2 [ ^ 4 | x , : - & ; > # . h       ",
"                *.=...+.X -.S I %.K L z A G o p ;.C d s W f a [ ^ / | ] c >.- Q 7 > # . +       ",
"            ,.'.*.)...+.@.#.$.I T Z L z U G N p q j d 8 O k !.[ w / | ] D : - & g @ ~.{.~       ",
"          ].^.'.*.=./.+.X R S I J Z L z U B o p i v d 8 O k 2 [ w / | (._ ' - & ;  .# . h       ",
"      _.:.<.[.'.*.=.}.+.@.#.|.I %.E L z U M N p 1.v V 8 9 f 2 [ l m { ] D ' - & ; > # {.h       ",
"      _.2.<.^.'.3.4.5.+.X #.S I %.6.L z t B 7.p i C r 8 9 f 2 [ l / | (._ 5 - & * = # . +       ",
"      _.2.8.[.'.3.).5.+.9.R S I J Z L z U u N p ;.v r 8 e 0 2 [ w / | ] c ' - & * = #           ",
"      _.2.<.[.'.*.0...+.9.R Y I J K L z t B N p i v d a.O 0 2 [ ^ 4 | ] D : y ) * @             ",
"      _.2.8.^.'.*.=.}.b.9.#.S I T 6.c.z d.G o e.i v r 8 e f 2 [ 3 } { ] _ ' - &                 ",
"      _.2.<.[.'.f.0.5.+.9.-.$.I %.K c.z A u o p i C r 8 9 0 !.[ ^ } { x c '                     ",
"      _.2.<.[.'.g.=./.h.9.i.S I J E c.z d.G N p i C d 8 e f 2 [ w m { ]                         ",
"      _.2.<.j.'.*.).5.+.@.-.S I J E k.z U u &.p 1.j l.8 e 0 !.[ ^ / {                           ",
"      _.2.m.^.n.*.0.5.+.9.i.Y I J E L z A u o p 1.C d 8 O k 2 [ l                               ",
"      _.2.8.j.'.*.4.5.+.9.-.S I J Z L z A u o p i v d 8 O f 2                                   ",
"      _.2.<.^.'.*.).5.+.X i.|.I o.K k.z A M N p i C d 8 9                                       ",
"      _.2.p.^.'.g.0...+.X -.Y I J K L z A B o p i H d 8                                         ",
"      _.2.p.[.q.f.).}.+.9.-.S r.%.6.k.z A G o p 1.H                                             ",
"      _.2.8.s.'.*.).5.+.9.i.S I T Z F z A B o p                                                 ",
"      _.2.<.[.'.*.=./.h.9.#.S I J Z L z t u                                                     ",
"      _.2.m.[.'.*.=.}.+.9.#.Y I %.6.k.z t                                                       ",
"      _.2.m.s.'.3.).5.+.9.i.|.I J 6.F                                                           ",
"      _.2.m.[.q.*.0.}.+.9.-.Y I J                                                               ",
"      _.2.<.s.q.*.=.5.+.9.i.$.I                                                                 ",
"      _.2.<.[.q.*.)...+.@.R                                                                     ",
"      _.t.8.[.'.*.0...+.                                                                        ",
"      _.2.<.[.'.3.0.                                                                            ",
"      _.2.m.^.'.g.                                                                              ",
"      _.2.<.j.                                                                                  ",
"      _.2.                                                                                      "};
