/* XPM */
static char * panelXYBetween_xpm[] = {
"48 48 608 2",
"  	c None",
". 	c #4C38DA",
"+ 	c #BF8AB3",
"@ 	c #0709DC",
"# 	c #A580D1",
"$ 	c #F5B8B9",
"% 	c #FFB8B8",
"& 	c #FEAFAF",
"* 	c #E49696",
"= 	c #0C0CDB",
"- 	c #816ADA",
"; 	c #E5B8C6",
"> 	c #FFC6C6",
", 	c #FFBEBE",
"' 	c #FFB6B6",
") 	c #FFAEAE",
"! 	c #FFA6A6",
"~ 	c #F99A9A",
"{ 	c #DA8081",
"] 	c #5F53DD",
"^ 	c #D0B3D2",
"/ 	c #FFD4D4",
"( 	c #FFCCCC",
"_ 	c #FFC4C4",
": 	c #FFBCBC",
"< 	c #FFB4B4",
"[ 	c #FFACAC",
"} 	c #FFA4A4",
"| 	c #FF9C9C",
"1 	c #FF9494",
"2 	c #F28686",
"3 	c #413DDA",
"4 	c #BAAAE0",
"5 	c #FADEDE",
"6 	c #FFDBDB",
"7 	c #FFD3D3",
"8 	c #FFCBCB",
"9 	c #FFC3C3",
"0 	c #FFBBBB",
"a 	c #FFB3B3",
"b 	c #FFABAB",
"c 	c #FFA3A3",
"d 	c #FF9B9B",
"e 	c #FF9393",
"f 	c #FF8B8B",
"g 	c #FF8383",
"h 	c #E97071",
"i 	c #0707DA",
"j 	c #A19CE6",
"k 	c #F1E3E7",
"l 	c #FFE9E9",
"m 	c #FFE1E1",
"n 	c #FFD9D9",
"o 	c #FFD1D1",
"p 	c #FFC9C9",
"q 	c #FFC1C1",
"r 	c #FFB9B9",
"s 	c #FFB1B1",
"t 	c #FFA9A9",
"u 	c #FFA1A1",
"v 	c #FF9999",
"w 	c #FF9191",
"x 	c #FF8989",
"y 	c #FF8181",
"z 	c #FF7979",
"A 	c #FB6F6F",
"B 	c #E25D5D",
"C 	c #1111C2",
"D 	c #D1D0DD",
"E 	c #FFF7F7",
"F 	c #FFEFEF",
"G 	c #FFE7E7",
"H 	c #FFDFDF",
"I 	c #FFD7D7",
"J 	c #FFCFCF",
"K 	c #FFC7C7",
"L 	c #FFBFBF",
"M 	c #FFB7B7",
"N 	c #FFAFAF",
"O 	c #FFA7A7",
"P 	c #FF9F9F",
"Q 	c #FF9797",
"R 	c #FF8F8F",
"S 	c #FF8787",
"T 	c #FF7F7F",
"U 	c #FF7777",
"V 	c #FF6F6F",
"W 	c #FF6767",
"X 	c #F85D5D",
"Y 	c #D64A4A",
"Z 	c #1616C0",
"` 	c #ADACE7",
" .	c #E6DEDF",
"..	c #F3E2E2",
"+.	c #FFE6E6",
"@.	c #FFDEDE",
"#.	c #FFD6D6",
"$.	c #FFCECE",
"%.	c #FF9E9E",
"&.	c #FF9696",
"*.	c #FF8E8E",
"=.	c #FF8686",
"-.	c #FF7E7E",
";.	c #FF7676",
">.	c #FF6E6E",
",.	c #FF6666",
"'.	c #FF5E5E",
").	c #FF5656",
"!.	c #EF4949",
"~.	c #1B1BC0",
"{.	c #2121FF",
"].	c #5854EE",
"^.	c #C5B7D9",
"/.	c #EBD2D2",
"(.	c #F7D5D5",
"_.	c #FF8C8C",
":.	c #FF8484",
"<.	c #FF7C7C",
"[.	c #FF7474",
"}.	c #FF6C6C",
"|.	c #FF6464",
"1.	c #FF5C5C",
"2.	c #FF5454",
"3.	c #FF4C4C",
"4.	c #FF4444",
"5.	c #E53737",
"6.	c #2121C0",
"7.	c #2C2BFF",
"8.	c #3131FF",
"9.	c #3737FF",
"0.	c #8476E5",
"a.	c #D6B7C6",
"b.	c #EAC1C1",
"c.	c #FDC9C9",
"d.	c #FFC2C2",
"e.	c #FFBABA",
"f.	c #FFB2B2",
"g.	c #FFAAAA",
"h.	c #FFA2A2",
"i.	c #FF9A9A",
"j.	c #FF9292",
"k.	c #FF8A8A",
"l.	c #FF8282",
"m.	c #FF7A7A",
"n.	c #FF7272",
"o.	c #FF6A6A",
"p.	c #FF6262",
"q.	c #FF5A5A",
"r.	c #FF5252",
"s.	c #FF4A4A",
"t.	c #FF4242",
"u.	c #FF3A3A",
"v.	c #FA3232",
"w.	c #E02727",
"x.	c #2727C0",
"y.	c #3636FF",
"z.	c #3C3BFF",
"A.	c #4141FF",
"B.	c #4747FF",
"C.	c #4B4BFA",
"D.	c #A98DDA",
"E.	c #DDAEB4",
"F.	c #EEB4B4",
"G.	c #FF7171",
"H.	c #FF6969",
"I.	c #FF6161",
"J.	c #FF5959",
"K.	c #FF5151",
"L.	c #FF4949",
"M.	c #FF4141",
"N.	c #FF3939",
"O.	c #FF3131",
"P.	c #FF2929",
"Q.	c #F52020",
"R.	c #D51919",
"S.	c #2E2EC0",
"T.	c #4040FF",
"U.	c #4646FF",
"V.	c #4B4CFF",
"W.	c #5151FF",
"X.	c #5757FF",
"Y.	c #5D5DFF",
"Z.	c #6A65F3",
"`.	c #BE93C9",
" +	c #E7A6A6",
".+	c #F3A7A7",
"++	c #FF5F5F",
"@+	c #FF5757",
"#+	c #FF4F4F",
"$+	c #FF4747",
"%+	c #FF3F3F",
"&+	c #FF3737",
"*+	c #FF2F2F",
"=+	c #FF2727",
"-+	c #FF1F1F",
";+	c #FF1717",
">+	c #EF1111",
",+	c #3535C0",
"'+	c #4B4BFF",
")+	c #5050FF",
"!+	c #5656FF",
"~+	c #5C5CFF",
"{+	c #6161FF",
"]+	c #6767FF",
"^+	c #6D6DFF",
"/+	c #7272FF",
"(+	c #887AE9",
"_+	c #CD91B0",
":+	c #EC9999",
"<+	c #FA9A9A",
"[+	c #FF9596",
"}+	c #FF8D8D",
"|+	c #FF8585",
"1+	c #FF7D7D",
"2+	c #FF7576",
"3+	c #FF6D6D",
"4+	c #FF6565",
"5+	c #FF5D5D",
"6+	c #FF5555",
"7+	c #FF4D4D",
"8+	c #FF4545",
"9+	c #FF3D3D",
"0+	c #FF3536",
"a+	c #FF2D2E",
"b+	c #FF2525",
"c+	c #FF1D1D",
"d+	c #FF1615",
"e+	c #FF0D0D",
"f+	c #FF0505",
"g+	c #C80C4A",
"h+	c #3D3DC0",
"i+	c #5555FF",
"j+	c #5A5AFF",
"k+	c #6060FF",
"l+	c #6666FF",
"m+	c #6B6CFF",
"n+	c #7171FF",
"o+	c #7777FF",
"p+	c #7D7DFF",
"q+	c #8282FF",
"r+	c #8888FF",
"s+	c #A17FC6",
"t+	c #DE8787",
"u+	c #ED8989",
"v+	c #FF3C3C",
"w+	c #FF3434",
"x+	c #FF2C2C",
"y+	c #FF2424",
"z+	c #FF1C1C",
"A+	c #FF1414",
"B+	c #F90D16",
"C+	c #B108A7",
"D+	c #2B08E0",
"E+	c #0D0DD1",
"F+	c #4444C0",
"G+	c #5F5FFF",
"H+	c #6565FF",
"I+	c #6A6AFF",
"J+	c #7070FF",
"K+	c #7676FF",
"L+	c #7B7CFF",
"M+	c #8181FF",
"N+	c #8787FF",
"O+	c #8D8DFF",
"P+	c #9292FF",
"Q+	c #8787E4",
"R+	c #D37878",
"S+	c #DF7978",
"T+	c #F27B7B",
"U+	c #FF3232",
"V+	c #FF2A2A",
"W+	c #FF2222",
"X+	c #FF1A1A",
"Y+	c #CA1187",
"Z+	c #4B09D9",
"`+	c #0707EA",
" @	c #0606FE",
".@	c #1010E0",
"+@	c #4C4BC0",
"@@	c #6F6FFF",
"#@	c #7575FF",
"$@	c #7A7AFF",
"%@	c #8080FF",
"&@	c #8686FF",
"*@	c #8C8CFF",
"=@	c #9191FF",
"-@	c #9797FF",
";@	c #9D9DFF",
">@	c #9090E4",
",@	c #D56B6B",
"'@	c #E76D6D",
")@	c #F86D6D",
"!@	c #FF6868",
"~@	c #FF6061",
"{@	c #FF5050",
"]@	c #FF4848",
"^@	c #FF4040",
"/@	c #FF3838",
"(@	c #FF3030",
"_@	c #FF2828",
":@	c #E21E64",
"<@	c #750EC8",
"[@	c #0606EC",
"}@	c #0606F9",
"|@	c #0B0AFF",
"1@	c #1111FF",
"2@	c #1717E0",
"3@	c #5353C0",
"4@	c #7474FF",
"5@	c #7979FF",
"6@	c #7F7FFF",
"7@	c #8585FF",
"8@	c #8A8AFF",
"9@	c #9090FF",
"0@	c #9696FF",
"a@	c #9C9CFF",
"b@	c #A1A1FF",
"c@	c #A7A7FF",
"d@	c #9999E4",
"e@	c #D75D5D",
"f@	c #EC5F5F",
"g@	c #FC5D5E",
"h@	c #EF2C48",
"i@	c #A119B4",
"j@	c #0707E7",
"k@	c #0606F4",
"l@	c #0909FF",
"m@	c #0F0FFF",
"n@	c #1515FF",
"o@	c #1C1CFF",
"p@	c #1F1FE0",
"q@	c #5B5BC0",
"r@	c #7E7EFF",
"s@	c #8383FF",
"t@	c #8989FF",
"u@	c #8F8FFF",
"v@	c #9595FF",
"w@	c #9A9AFF",
"x@	c #A0A0FF",
"y@	c #A6A6FF",
"z@	c #ACACFF",
"A@	c #B1B1FF",
"B@	c #A3A2E4",
"C@	c #DE5151",
"D@	c #EC4F4F",
"E@	c #FA3C3C",
"F@	c #BC279C",
"G@	c #3D0DDA",
"H@	c #0606F0",
"I@	c #0606FF",
"J@	c #0D0DFF",
"K@	c #1313FF",
"L@	c #1A1AFF",
"M@	c #2020FF",
"N@	c #2626FF",
"O@	c #2827E0",
"P@	c #6262C0",
"Q@	c #8E8EFF",
"R@	c #9393FF",
"S@	c #9999FF",
"T@	c #9F9FFF",
"U@	c #A5A5FF",
"V@	c #AAABFF",
"W@	c #B0B0FF",
"X@	c #B6B6FF",
"Y@	c #BCBCFF",
"Z@	c #ACACE4",
"`@	c #D94747",
" #	c #E14343",
".#	c #D23872",
"+#	c #6A18D0",
"@#	c #0606EA",
"##	c #0505FE",
"$#	c #0B0BFF",
"%#	c #1718FF",
"&#	c #1E1EFF",
"*#	c #2424FF",
"=#	c #2A2AFF",
"-#	c #3030E0",
";#	c #6A6AC0",
">#	c #9898FF",
",#	c #9E9EFF",
"'#	c #A3A3FF",
")#	c #A9A9FF",
"!#	c #AFAFFF",
"~#	c #B5B5FF",
"{#	c #BABAFF",
"]#	c #C0C0FF",
"^#	c #C6C6FF",
"/#	c #B5B5E4",
"(#	c #5416CE",
"_#	c #0808EA",
":#	c #2222FF",
"<#	c #2828FF",
"[#	c #2F2FFF",
"}#	c #3535FF",
"|#	c #3B3BFF",
"1#	c #3939E0",
"2#	c #7272C0",
"3#	c #A2A2FF",
"4#	c #A8A8FF",
"5#	c #AEAEFF",
"6#	c #B4B4FF",
"7#	c #B9B9FF",
"8#	c #BFBFFF",
"9#	c #C5C5FF",
"0#	c #CACBFF",
"a#	c #D0D0FF",
"b#	c #BEBEE4",
"c#	c #0D0DE5",
"d#	c #1010EE",
"e#	c #191AFF",
"f#	c #2D2DFF",
"g#	c #3333FF",
"h#	c #3939FF",
"i#	c #4242E0",
"j#	c #7979C0",
"k#	c #ADADFF",
"l#	c #B2B2FF",
"m#	c #B8B8FF",
"n#	c #BEBEFF",
"o#	c #C3C3FF",
"p#	c #C9C9FF",
"q#	c #CFCFFF",
"r#	c #D5D5FF",
"s#	c #DADAFF",
"t#	c #C7C7E4",
"u#	c #1414E5",
"v#	c #1818EE",
"w#	c #2A2BFF",
"x#	c #3E3DFF",
"y#	c #4444FF",
"z#	c #4A4AFF",
"A#	c #5051FF",
"B#	c #4B4BE0",
"C#	c #8181C0",
"D#	c #B7B7FF",
"E#	c #BDBDFF",
"F#	c #C2C2FF",
"G#	c #C8C8FF",
"H#	c #CECEFF",
"I#	c #D4D3FF",
"J#	c #D9D9FF",
"K#	c #DFDFFF",
"L#	c #E5E5FF",
"M#	c #D1D1E4",
"N#	c #1C1CE5",
"O#	c #2121EE",
"P#	c #2829FF",
"Q#	c #4242FF",
"R#	c #4848FF",
"S#	c #4E4EFF",
"T#	c #5B5BFF",
"U#	c #5554E0",
"V#	c #8989C0",
"W#	c #C1C1FF",
"X#	c #C7C7FF",
"Y#	c #CDCDFF",
"Z#	c #D3D2FF",
"`#	c #D8D8FF",
" $	c #DEDEFF",
".$	c #E4E4FF",
"+$	c #E9E9FF",
"@$	c #EFEFFF",
"#$	c #DADAE4",
"$$	c #2525E5",
"%$	c #2B2BEE",
"&$	c #4C4CFF",
"*$	c #5353FF",
"=$	c #5959FF",
"-$	c #5E5EE0",
";$	c #9191C0",
">$	c #CCCCFF",
",$	c #D1D1FF",
"'$	c #D7D7FF",
")$	c #DDDDFF",
"!$	c #E2E2FF",
"~$	c #E8E8FF",
"{$	c #EEEEFF",
"]$	c #F4F4FF",
"^$	c #F9F9FF",
"/$	c #E3E3E4",
"($	c #2E2EE5",
"_$	c #3434EE",
":$	c #6464FF",
"<$	c #6767E0",
"[$	c #9999C0",
"}$	c #D6D6FF",
"|$	c #DBDBFF",
"1$	c #E1E1FF",
"2$	c #E7E7FF",
"3$	c #EDEDFF",
"4$	c #F2F2FF",
"5$	c #F8F8FF",
"6$	c #FAFAFC",
"7$	c #E5E5E5",
"8$	c #3737E5",
"9$	c #3E3EEE",
"0$	c #4E4FFF",
"a$	c #6262FF",
"b$	c #6868FF",
"c$	c #6E6EFF",
"d$	c #7B7BFF",
"e$	c #7070E0",
"f$	c #A0A0C0",
"g$	c #E0E0FF",
"h$	c #E6E6FF",
"i$	c #ECECFF",
"j$	c #F1F1FF",
"k$	c #F7F7FF",
"l$	c #FCFCFF",
"m$	c #EDEDED",
"n$	c #4040E5",
"o$	c #4848EE",
"p$	c #5F60FF",
"q$	c #6C6CFF",
"r$	c #7273FF",
"s$	c #8685FF",
"t$	c #7A79E0",
"u$	c #A8A8C0",
"v$	c #EAEAFF",
"w$	c #F0F0FF",
"x$	c #F6F6FF",
"y$	c #FBFBFF",
"z$	c #F6F6F6",
"A$	c #4A49E5",
"B$	c #5152EE",
"C$	c #7170FF",
"D$	c #8383E0",
"E$	c #B0B0C0",
"F$	c #F5F5FF",
"G$	c #FAFAFF",
"H$	c #F9F9FA",
"I$	c #E0E0E0",
"J$	c #5353E5",
"K$	c #5B5BEE",
"L$	c #9494FF",
"M$	c #9B9BFF",
"N$	c #8C8CE0",
"O$	c #B8B8C0",
"P$	c #FBFAFF",
"Q$	c #FDFDFF",
"R$	c #E6E6E6",
"S$	c #5C5CE5",
"T$	c #6565EE",
"U$	c #8586FF",
"V$	c #9998FF",
"W$	c #9696E0",
"X$	c #B7B7B9",
"Y$	c #F1F1F1",
"Z$	c #6666E5",
"`$	c #6F6FEE",
" %	c #A9AAFF",
".%	c #9F9FE0",
"+%	c #6F6FE5",
"@%	c #7979EE",
"#%	c #A8A8E0",
"$%	c #7979E5",
"%%	c #8383EE",
"&%	c #B1B2E0",
"*%	c #8282E5",
"=%	c #8D8DEE",
"-%	c #AAAAFF",
";%	c #BBBBE0",
">%	c #8C8CE5",
",%	c #9696EE",
"'%	c #A8A7FF",
")%	c #BABBFF",
"!%	c #D4D4FF",
"~%	c #C4C4E0",
"{%	c #9595E5",
"]%	c #A0A0EE",
"^%	c #CBCBFF",
"/%	c #D2D2FF",
"(%	c #DEDFFF",
"_%	c #CDCDE0",
":%	c #9F9FE5",
"<%	c #AAAAEE",
"[%	c #DCDCFF",
"}%	c #E3E3FF",
"|%	c #D7D7E0",
"1%	c #A8A8E5",
"2%	c #B4B4EE",
"3%	c #D7D7D8",
"4%	c #B2B2E5",
"5%	c #BEBEEE",
"6%	c #EBEBFF",
"7%	c #F2F2F4",
"8%	c #D8D8D8",
"9%	c #BBBBE5",
"0%	c #C8C8EE",
"a%	c #DCDDFF",
"b%	c #F0EFFF",
"c%	c #F7F7FA",
"d%	c #DFDFDF",
"e%	c #C5C5E5",
"f%	c #D2D2EE",
"g%	c #E6E6E7",
"h%	c #CECFE5",
"i%	c #DCDCEE",
"j%	c #F2F1FF",
"k%	c #EEEEF0",
"l%	c #D8D8E5",
"m%	c #E6E6EE",
"n%	c #F2F2F6",
"o%	c #D9D9D9",
"p%	c #D2D2D6",
"q%	c #C8C7C9",
"                                                                                                ",
"                                                                                                ",
"                                  . +                                                           ",
"                              @ # $ % & *                                                       ",
"                          = - ; > , ' ) ! ~ {                                                   ",
"                        ] ^ / ( _ : < [ } | 1 2                                                 ",
"                    3 4 5 6 7 8 9 0 a b c d e f g h                                             ",
"                i j k l m n o p q r s t u v w x y z A B                                         ",
"              C D E F G H I J K L M N O P Q R S T U V W X Y                                     ",
"              Z `  ...+.@.#.$.> , ' ) ! %.&.*.=.-.;.>.,.'.).!.                                  ",
"              ~.{.].^./.(./ ( _ : < [ } | 1 _.:.<.[.}.|.1.2.3.4.5.                              ",
"              6.7.8.9.0.a.b.c.d.e.f.g.h.i.j.k.l.m.n.o.p.q.r.s.t.u.v.w.                          ",
"              x.y.z.A.B.C.D.E.F.r s t u v w x y z G.H.I.J.K.L.M.N.O.P.Q.R.                      ",
"              S.T.U.V.W.X.Y.Z.`. +.+O P Q R S T U V W ++@+#+$+%+&+*+=+-+;+>+                    ",
"              ,+'+)+!+~+{+]+^+/+(+_+:+<+[+}+|+1+2+3+4+5+6+7+8+9+0+a+b+c+d+e+f+g+                ",
"              h+i+j+k+l+m+n+o+p+q+r+s+t+u+_.:.<.[.}.|.1.2.3.4.v+w+x+y+z+A+B+C+D+E+              ",
"              F+G+H+I+J+K+L+M+N+O+P+Q+  R+S+T+m.n.o.p.q.r.s.t.u.U+V+W+X+Y+Z+`+ @.@              ",
"              +@I+@@#@$@%@&@*@=@-@;@>@      ,@'@)@!@~@J.{@]@^@/@(@_@:@<@[@}@|@1@2@              ",
"              3@4@5@6@7@8@9@0@a@b@c@d@          e@f@g@@+#+$+%+&+h@i@j@k@l@m@n@o@p@              ",
"              q@r@s@t@u@v@w@x@y@z@A@B@              C@D@7+8+E@F@G@H@I@J@K@L@M@N@O@              ",
"              P@t@Q@R@S@T@U@V@W@X@Y@Z@                `@ #.#+#@###$#1@%#&#*#=#8.-#              ",
"              ;#R@>#,#'#)#!#~#{#]#^#/#                    (#_#l@m@n@o@:#<#[#}#|#1#              ",
"              2#;@3#4#5#6#7#8#9#0#a#b#                    c#d#K@e#M@N@f#g#h#T.U.i#              ",
"              j#4#k#l#m#n#o#p#q#r#s#t#                    u#v#&#*#w#8.9.x#y#z#A#B#              ",
"              C#l#D#E#F#G#H#I#J#K#L#M#                    N#O#P#[#}#z.Q#R#S#i+T#U#              ",
"              V#Y@W#X#Y#Z#`# $.$+$@$#$                    $$%$g#h#T.U.&$*$=$G+l+-$              ",
"              ;$X#>$,$'$)$!$~${$]$^$/$                    ($_$x#y#z#A#X.Y.:$I+J+<$              ",
"              [$,$}$|$1$2$3$4$5$6$7$                      8$9$R#0$i+T#a$b$c$#@d$e$              ",
"              f$|$g$h$i$j$k$l$m$                          n$o$*$=$p$l+q$r$5@6@s$t$              ",
"              u$h$v$w$x$y$z$                              A$B$Y.:$I+C$o+p+s@8@9@D$              ",
"              E$w$F$G$H$I$                                J$K$b$c$#@d$M+r+Q@L$M$N$              ",
"              O$P$Q$R$                                    S$T$r$5@6@U$*@P+V$T@U@W$              ",
"              X$Y$                                        Z$`$p+s@8@9@0@;@'# %W@.%              ",
"                                                          +%@%r+Q@L$M$b@c@5#6#{##%              ",
"                                                          $%%%P+S@T@U@z@l#m#8#9#&%              ",
"                                                          *%=%;@'#-%W@X@E#o#p#a#;%              ",
"                                                          >%,%'%5#6#)%W#X#H#!%s#~%              ",
"                                                          {%]%l#m#8#9#^%/%`#(%L#_%              ",
"                                                          :%<%E#o#p#a#}$[%}%+$@$|%              ",
"                                                          1%2%X#H#!%s#1$2$3$]$G$3%              ",
"                                                          4%5%/%`#K#L#6%4$5$7%8%                ",
"                                                          9%0%a%}%+$b%x$c%d%                    ",
"                                                          e%f%2$3$]$G$g%                        ",
"                                                          h%i%j%5$k%                            ",
"                                                          l%m%n%o%                              ",
"                                                          p%q%                                  ",
"                                                                                                ",
"                                                                                                "};
