/* XPM */
static char * panelZYBetween_xpm[] = {
"48 48 426 2",
"  	c None",
". 	c #0E0EC4",
"+ 	c #D40B0B",
"@ 	c #DD0909",
"# 	c #73109A",
"$ 	c #0909DC",
"% 	c #0C0CD1",
"& 	c #CB0D0D",
"* 	c #D80A0A",
"= 	c #E00808",
"- 	c #FE0000",
"; 	c #8D09B2",
"> 	c #0101FC",
", 	c #0808E0",
"' 	c #0A0ADA",
") 	c #B81010",
"! 	c #DB0A0A",
"~ 	c #DE0909",
"{ 	c #F90202",
"] 	c #FF0000",
"^ 	c #0000FF",
"/ 	c #0303F5",
"( 	c #0909DE",
"_ 	c #0A0AD8",
": 	c #D50B0B",
"< 	c #EF0404",
"[ 	c #0505EC",
"} 	c #0909DD",
"| 	c #0B0BD5",
"1 	c #D30B0B",
"2 	c #E80606",
"3 	c #8D0AB2",
"4 	c #0000FE",
"5 	c #0707E4",
"6 	c #0C0CCE",
"7 	c #C70E0E",
"8 	c #D90A0A",
"9 	c #DF0909",
"0 	c #8D0EB2",
"a 	c #0202FF",
"b 	c #0101FB",
"c 	c #0909DB",
"d 	c #0F0FBE",
"e 	c #F80202",
"f 	c #8E12B2",
"g 	c #0B0BFF",
"h 	c #0101FF",
"i 	c #0404F2",
"j 	c #0B0BD6",
"k 	c #1111AF",
"l 	c #850BB1",
"m 	c #DA092C",
"n 	c #FF0101",
"o 	c #8E18B2",
"p 	c #1415FF",
"q 	c #0606FF",
"r 	c #0606EA",
"s 	c #0E0EC2",
"t 	c #0404F1",
"u 	c #0909DF",
"v 	c #310AD5",
"w 	c #B20991",
"x 	c #F70204",
"y 	c #FF0707",
"z 	c #8F1FB2",
"A 	c #1E1EFF",
"B 	c #1010FF",
"C 	c #0C0CD0",
"D 	c #0303F3",
"E 	c #5209CF",
"F 	c #CB086E",
"G 	c #FF0404",
"H 	c #FF1213",
"I 	c #9027B2",
"J 	c #2828FF",
"K 	c #1919FF",
"L 	c #0808F5",
"M 	c #0606E9",
"N 	c #790ABE",
"O 	c #E10641",
"P 	c #FF0202",
"Q 	c #FF0F0F",
"R 	c #FF1E1E",
"S 	c #922FB3",
"T 	c #3132FF",
"U 	c #2323FF",
"V 	c #1515FF",
"W 	c #1010F5",
"X 	c #0303FF",
"Y 	c #0808E1",
"Z 	c #0A09DB",
"` 	c #9C09AA",
" .	c #F00413",
"..	c #FF0001",
"+.	c #FF0B0B",
"@.	c #FF1A1A",
"#.	c #FF2929",
"$.	c #9337B3",
"%.	c #3B3BFF",
"&.	c #2D2DFF",
"*.	c #1818F5",
"=.	c #0A0AFF",
"-.	c #0202F9",
";.	c #3D0AD3",
">.	c #BA0B88",
",.	c #F91715",
"'.	c #FF2525",
").	c #FF3535",
"!.	c #953FB4",
"~.	c #4545FF",
"{.	c #3636FF",
"].	c #191AFF",
"^.	c #2020F5",
"/.	c #1313FF",
"(.	c #0505FF",
"_.	c #600FCC",
":.	c #D32866",
"<.	c #FF4040",
"[.	c #9748B5",
"}.	c #4F4FFF",
"|.	c #4040FF",
"1.	c #3232FF",
"2.	c #2828F5",
"3.	c #1C1CFF",
"4.	c #0E0EFF",
"5.	c #0606E7",
"6.	c #8225BE",
"7.	c #814CB9",
"8.	c #5858FF",
"9.	c #4A4AFF",
"0.	c #3030F5",
"a.	c #2425FF",
"b.	c #1717FF",
"c.	c #0909FF",
"d.	c #0101FD",
"e.	c #0D0DCB",
"f.	c #4B4BD3",
"g.	c #6262FF",
"h.	c #5454FF",
"i.	c #3737FF",
"j.	c #1A1AFF",
"k.	c #3838F5",
"l.	c #1F1FFF",
"m.	c #1212FF",
"n.	c #0404FF",
"o.	c #5151DB",
"p.	c #6C6CFF",
"q.	c #5D5DFF",
"r.	c #4040F5",
"s.	c #0C0CFF",
"t.	c #5858DB",
"u.	c #7676FF",
"v.	c #6767FF",
"w.	c #3B3CFF",
"x.	c #4949F5",
"y.	c #3E3EFF",
"z.	c #3131FF",
"A.	c #0707FF",
"B.	c #5F5FDB",
"C.	c #7F7FFF",
"D.	c #7171FF",
"E.	c #5151F5",
"F.	c #4747FF",
"G.	c #3939FF",
"H.	c #2C2CFF",
"I.	c #6666DB",
"J.	c #8989FF",
"K.	c #7A7AFF",
"L.	c #5959F5",
"M.	c #5050FF",
"N.	c #4242FF",
"O.	c #3434FF",
"P.	c #2626FF",
"Q.	c #6D6DDB",
"R.	c #9393FF",
"S.	c #8484FF",
"T.	c #5959FF",
"U.	c #3C3CFF",
"V.	c #6262F5",
"W.	c #5958FF",
"X.	c #4B4BFF",
"Y.	c #3D3DFF",
"Z.	c #2F2FFF",
"`.	c #2121FF",
" +	c #1414FF",
".+	c #0506FF",
"++	c #7474DB",
"@+	c #9C9DFF",
"#+	c #8E8EFF",
"$+	c #6A6AF5",
"%+	c #6161FF",
"&+	c #5353FF",
"*+	c #4546FF",
"=+	c #3838FF",
"-+	c #2A2AFF",
";+	c #7B7ADB",
">+	c #A6A6FF",
",+	c #9898FF",
"'+	c #7B7BFF",
")+	c #5E5EFF",
"!+	c #2424FF",
"~+	c #7372F5",
"{+	c #6A6AFF",
"]+	c #5C5CFF",
"^+	c #4E4EFF",
"/+	c #3332FF",
"(+	c #2525FF",
"_+	c #8181DB",
":+	c #B0B0FF",
"<+	c #A1A1FF",
"[+	c #0D0DD0",
"}+	c #7B7BF5",
"|+	c #7373FF",
"1+	c #6565FF",
"2+	c #5757FF",
"3+	c #4949FF",
"4+	c #2020FF",
"5+	c #8888DB",
"6+	c #BABAFF",
"7+	c #ABABFF",
"8+	c #9D9DFF",
"9+	c #8080FF",
"0+	c #6363FF",
"a+	c #1111D0",
"b+	c #8383F5",
"c+	c #6D6DFF",
"d+	c #6060FF",
"e+	c #5252FF",
"f+	c #4444FF",
"g+	c #1A1BFF",
"h+	c #0D0DFF",
"i+	c #8F8FDB",
"j+	c #C3C4FF",
"k+	c #B5B5FF",
"l+	c #4140FF",
"m+	c #1616D0",
"n+	c #8C8CF5",
"o+	c #6868FF",
"p+	c #5A5AFF",
"q+	c #4D4DFF",
"r+	c #3F3FFF",
"s+	c #9696DB",
"t+	c #CDCDFF",
"u+	c #BFBFFF",
"v+	c #A2A2FF",
"w+	c #8585FF",
"x+	c #1C1CD0",
"y+	c #9494F5",
"z+	c #8D8DFF",
"A+	c #5555FF",
"B+	c #3A3AFF",
"C+	c #9D9DDB",
"D+	c #D7D7FF",
"E+	c #C8C8FF",
"F+	c #4646FF",
"G+	c #2323D0",
"H+	c #9C9CF5",
"I+	c #9595FF",
"J+	c #8888FF",
"K+	c #2727FF",
"L+	c #A4A4DB",
"M+	c #E1E1FF",
"N+	c #D2D2FF",
"O+	c #C4C4FF",
"P+	c #A6A7FF",
"Q+	c #4141FF",
"R+	c #2A2AD0",
"S+	c #A5A5F5",
"T+	c #9E9EFF",
"U+	c #9090FF",
"V+	c #8282FF",
"W+	c #7575FF",
"X+	c #ABABDB",
"Y+	c #EBEBFF",
"Z+	c #DCDCFF",
"`+	c #CDCEFF",
" @	c #6768FF",
".@	c #3131D0",
"+@	c #ADADF5",
"@@	c #A7A7FF",
"#@	c #9999FF",
"$@	c #8B8BFF",
"%@	c #7D7DFF",
"&@	c #6F70FF",
"*@	c #0F0FFF",
"=@	c #0B0BDB",
"-@	c #B1B1DB",
";@	c #F4F4FF",
">@	c #E6E6FF",
",@	c #C9C8FF",
"'@	c #3939D0",
")@	c #B6B5F5",
"!@	c #9494FF",
"~@	c #8686FF",
"{@	c #7878FF",
"]@	c #3333FF",
"^@	c #0F0FDB",
"/@	c #9393C6",
"(@	c #F5F5F8",
"_@	c #EFF0FF",
":@	c #898AFF",
"<@	c #4040D0",
"[@	c #BEBEF5",
"}@	c #B8B8FF",
"|@	c #AAAAFF",
"1@	c #8F8FFF",
"2@	c #8181FF",
"3@	c #3C3BFF",
"4@	c #2E2EFF",
"5@	c #1515DB",
"6@	c #1313B7",
"7@	c #D3D3DB",
"8@	c #EAEAFE",
"9@	c #CECDFF",
"0@	c #4848D0",
"a@	c #C6C6F5",
"b@	c #C1C1FF",
"c@	c #B3B3FF",
"d@	c #A5A5FF",
"e@	c #9797FF",
"f@	c #7C7CFF",
"g@	c #6E6EFF",
"h@	c #2929FF",
"i@	c #1B1BDB",
"j@	c #1616B7",
"k@	c #CFCFE8",
"l@	c #C9C9FF",
"m@	c #ACACFF",
"n@	c #5050D0",
"o@	c #CFCFF5",
"p@	c #CACAFF",
"q@	c #BCBCFF",
"r@	c #AEAEFF",
"s@	c #A0A0FF",
"t@	c #9292FF",
"u@	c #7677FF",
"v@	c #6969FF",
"w@	c #5B5BFF",
"x@	c #2121DB",
"y@	c #1A1AB7",
"z@	c #ABABC6",
"A@	c #C7C7F2",
"B@	c #8A8AFF",
"C@	c #5858D0",
"D@	c #D7D7F5",
"E@	c #C5C5FF",
"F@	c #B7B7FF",
"G@	c #A9A9FF",
"H@	c #9B9BFF",
"I@	c #5656FF",
"J@	c #4848FF",
"K@	c #2828DB",
"L@	c #1E1EB7",
"M@	c #A7A7D3",
"N@	c #BBBBFA",
"O@	c #B0B1FF",
"P@	c #5F5FD0",
"Q@	c #DFDFF5",
"R@	c #DBDBFF",
"S@	c #B1B1FF",
"T@	c #A4A4FF",
"U@	c #9696FF",
"V@	c #4343FF",
"W@	c #2F2FDB",
"X@	c #2323B7",
"Y@	c #A1A1E0",
"Z@	c #ABABFE",
"`@	c #6767D0",
" #	c #E8E8F5",
".#	c #E4E4FF",
"+#	c #D6D6FF",
"@#	c #9E9FFF",
"##	c #9191FF",
"$#	c #8383FF",
"%#	c #3636DB",
"&#	c #2928B7",
"*#	c #9898EB",
"=#	c #6F6FD0",
"-#	c #ECECF2",
";#	c #EDEDFF",
">#	c #DFDFFF",
",#	c #D1D1FF",
"'#	c #C3C3FF",
")#	c #7E7EFF",
"!#	c #7070FF",
"~#	c #3D3DDB",
"{#	c #2E2EB7",
"]#	c #7D7CCA",
"^#	c #6262AD",
"/#	c #D5D5DF",
"(#	c #E8E7FF",
"_#	c #D9D9FF",
":#	c #CCCCFF",
"<#	c #BEBEFF",
"[#	c #6B6AFF",
"}#	c #4444DB",
"|#	c #3434B7",
"1#	c #A7A7B5",
"2#	c #D1D1ED",
"3#	c #D4D4FF",
"4#	c #C6C7FF",
"5#	c #B9B9FF",
"6#	c #4C4CDB",
"7#	c #3A3AB7",
"8#	c #ADADCB",
"9#	c #C5C5F4",
"0#	c #5353DB",
"a#	c #3F40B7",
"b#	c #A7A7D6",
"c#	c #BABAFD",
"d#	c #9293FF",
"e#	c #7777FF",
"f#	c #5B5ADB",
"g#	c #4546B7",
"h#	c #A0A0E2",
"i#	c #6262DB",
"j#	c #4C4BB7",
"k#	c #8080BD",
"l#	c #9797ED",
"m#	c #6969DB",
"n#	c #5252B7",
"o#	c #7D7DCE",
"p#	c #8C8CF7",
"q#	c #7171DB",
"r#	c #5858B7",
"s#	c #5C5CAA",
"                                                .                                               ",
"                                            + @ # $ %                                           ",
"                                        & * = - ; > , ' .                                       ",
"                                    ) ! ~ { ] ] ; ^ ^ / ( _                                     ",
"                                  : @ < ] ] ] ] ; ^ ^ ^ ^ [ } |                                 ",
"                              1 @ 2 ] ] ] ] ] ] 3 ^ ^ ^ ^ ^ 4 5 ' 6                             ",
"                          7 8 9 - ] ] ] ] ] ] ] 0 a ^ ^ ^ ^ ^ ^ b ( c d                         ",
"                        8 ~ e ] ] ] ] ] ] ] ] ] f g h ^ ^ ^ ^ ^ ^ ^ i ( j                       ",
"                    k l m ] ] ] ] ] ] ] ] ] ] n o p q ^ ^ ^ ^ ^ ^ ^ ^ ^ r s                     ",
"                    t u v w x ] ] ] ] ] ] ] ] y z A B a ^ ^ ^ ^ ^ ^ ^ ^ ^ C                     ",
"                    / ^ D ( E F - ] ] ] ] ] G H I J K g h ^ ^ ^ ^ ^ ^ ^ ^ C                     ",
"                    L ^ ^ ^ M } N O ] ] ] P Q R S T U V q ^ ^ ^ ^ ^ ^ ^ ^ C                     ",
"                    W X ^ ^ ^ ^ Y Z `  ...+.@.#.$.%.&.A B a ^ ^ ^ ^ ^ ^ ^ C                     ",
"                    *.=.h ^ ^ ^ ^ -.( ;.>.,.'.).!.~.{.J ].g h ^ ^ ^ ^ ^ ^ C                     ",
"                    ^./.(.^ ^ ^ ^ ^ ^ t ( _.:.<.[.}.|.1.U V q ^ ^ ^ ^ ^ ^ C                     ",
"                    2.3.4.a ^ ^ ^ ^ ^ ^ ^ 5.c 6.7.8.9.%.&.A B X ^ ^ ^ ^ ^ C                     ",
"                    0.a.b.c.^ ^ ^ ^ ^ ^ ^ ^ d.e.f.g.h.~.i.J j.g h ^ ^ ^ ^ C                     ",
"                    k.&.l.m.n.^ ^ ^ ^ ^ ^ ^ ^ c o.p.q.}.|.1.U V q ^ ^ ^ ^ C                     ",
"                    r.{.J j.s.h ^ ^ ^ ^ ^ ^ ^ c t.u.v.8.9.w.&.A B X ^ ^ ^ C                     ",
"                    x.y.z.U V A.^ ^ ^ ^ ^ ^ ^ c B.C.D.g.h.~.i.J j.g h ^ ^ C                     ",
"                    E.F.G.H.A B X ^ ^ ^ ^ ^ ^ c I.J.K.p.q.}.|.1.U V q ^ ^ C                     ",
"                    L.M.N.O.P.K g h ^ ^ ^ ^ ^ c Q.R.S.u.v.T.9.U.&.l.B X ^ C                     ",
"                    V.W.X.Y.Z.`. +.+^ ^ ^ ^ ^ c ++@+#+C.D.g.h.~.i.J j.g h C                     ",
"                    $+%+&+*+=+-+3.4.a ^ ^ ^ ^ c ;+>+,+J.'+p.)+}.|.1.!+V q C                     ",
"                    ~+{+]+^+|./+(+b.c.^ ^ ^ ^ c _+:+<+R.S.u.v.T.9.U.&.l.B [+                    ",
"                    }+|+1+2+3+%.&.4+m.n.^ ^ ^ c 5+6+7+8+#+9+D.0+h.~.i.J j.a+                    ",
"                    b+'+c+d+e+f+{.J g+h+h ^ ^ c i+j+k+>+,+J.'+p.)+}.l+1.!+m+                    ",
"                    n+S.u.o+p+q+r+z.U V A.^ ^ c s+t+u+:+v+R.w+u.v.T.9.U.&.x+                    ",
"                    y+z+C.D.0+A+F.B+H.A B X ^ c C+D+E+6+7+8+#+9+D.0+h.F+i.G+                    ",
"                    H+I+J+K.p.)+M.N.O.K+K g h c L+M+N+O+k+P+,+J.'+p.)+}.Q+R+                    ",
"                    S+T+U+V+W+v.T.X.Y.Z.`. +q c X+Y+Z+`+u+:+v+R.w+u. @T.9..@                    ",
"                    +@@@#@$@%@&@g.h.F+=+-+3.*@=@-@;@>@D+,@6+7+8+#+9+D.0+h.'@                    ",
"                    )@:+v+!@~@{@{+]+}.Q+]@(+b.^@/@(@_@M+N+O+k+@@,+:@'+p.)+<@                    ",
"                    [@}@|@8+1@2@|+1+2+3+3@4@4+5@6@  7@8@Z+9@u+:+v+R.w+u.o+0@                    ",
"                    a@b@c@d@e@:@f@g@d+e+f+{.h@i@j@      k@D+l@6+m@8+#+9+D.n@                    ",
"                    o@p@q@r@s@t@S.u@v@w@q+r+z.x@y@        z@A@O+k+@@,+B@'+C@                    ",
"                    D@N+E@F@G@H@z+C.D.0+I@J@B+K@L@            M@N@O@v+R.w+P@                    ",
"                    Q@R@t+u+S@T@U@J+K.p.)+M.V@W@X@                Y@Z@8+1@`@                    ",
"                     #.#+#E+6+m@@###$#W+v.T.X.%#&#                    *#,+=#                    ",
"                    -#;#>#,#'#k+@@#@$@)#!#g.h.~#{#                      ]#^#                    ",
"                      /#(#_#:#<#:+v+!@~@{@[#q.}#|#                                              ",
"                        1#2#3#4#5#7+8+1@2@|+1+6#7#                                              ",
"                            8#9#b@c@>+,+B@f@g@0#a#                                              ",
"                                b#c#r@s@d#w+e#f#g#                                              ",
"                                    h#G@H@z+C.i#j#                                              ",
"                                      k#l#U@J+m#n#                                              ",
"                                          o#p#q#r#                                              ",
"                                              s#                                                "};
