/* XPM */
static char * panelCopyYX_xpm[] = {
"48 48 283 2",
"  	c None",
". 	c #FAF1FD",
"+ 	c #FAF1FE",
"@ 	c #FBF4FD",
"# 	c #FCF7FE",
"$ 	c #F5E3FB",
"% 	c #F6E6FC",
"& 	c #F6E6FB",
"* 	c #F6E9FC",
"= 	c #F6E8FC",
"- 	c #F8ECFC",
"; 	c #F0D5F9",
"> 	c #F1D7FA",
", 	c #F1D8F9",
"' 	c #F1DAFA",
") 	c #F1DBFA",
"! 	c #F3DDFA",
"~ 	c #F2DDFB",
"{ 	c #F3E0FB",
"] 	c #EAC7F8",
"^ 	c #EBC7F8",
"/ 	c #EBCAF8",
"( 	c #ECCCF8",
"_ 	c #ECCCF9",
": 	c #EDD0F9",
"< 	c #EDCFF8",
"[ 	c #EED3F9",
"} 	c #EED2FA",
"| 	c #EFD5FA",
"1 	c #F1D8FA",
"2 	c #F1DBFB",
"3 	c #E5B9F5",
"4 	c #E5B9F6",
"5 	c #E5BCF6",
"6 	c #E6BCF6",
"7 	c #E7BEF7",
"8 	c #E7BFF6",
"9 	c #E8C1F7",
"0 	c #E9C4F7",
"a 	c #EBC9F8",
"b 	c #ECCAF8",
"c 	c #ECCDF8",
"d 	c #EECFF9",
"e 	c #EED2F9",
"f 	c #E0ABF4",
"g 	c #E1AEF4",
"h 	c #E0AEF4",
"i 	c #E2B1F5",
"j 	c #E1B0F4",
"k 	c #E3B3F5",
"l 	c #E3B3F4",
"m 	c #E4B6F5",
"n 	c #E4B6F6",
"o 	c #E7BEF6",
"p 	c #E8C1F6",
"q 	c #E8C2F7",
"r 	c #E9C4F8",
"s 	c #EAC7F7",
"t 	c #DA9DF2",
"u 	c #DA9CF2",
"v 	c #DCA0F2",
"w 	c #DCA2F3",
"x 	c #DDA6F3",
"y 	c #DEA5F3",
"z 	c #DEA8F3",
"A 	c #E0AAF3",
"B 	c #E1ADF5",
"C 	c #E2B0F5",
"D 	c #E1B1F4",
"E 	c #E2B4F5",
"F 	c #E7BFF7",
"G 	c #D58FF0",
"H 	c #D68EF0",
"I 	c #D692F0",
"J 	c #D691F1",
"K 	c #D795F1",
"L 	c #D894F0",
"M 	c #D897F1",
"N 	c #D99AF1",
"O 	c #DB9DF2",
"P 	c #DA9CF1",
"Q 	c #DBA0F3",
"R 	c #DCA0F3",
"S 	c #DCA3F3",
"T 	c #DDA2F3",
"U 	c #DEA6F3",
"V 	c #DEA9F4",
"W 	c #DFA8F4",
"X 	c #DFABF4",
"Y 	c #E1AEF5",
"Z 	c #E1ADF4",
"` 	c #E2B1F4",
" .	c #E3B4F5",
"..	c #D081EE",
"+.	c #D283EF",
"@.	c #D184EE",
"#.	c #D286EF",
"$.	c #D287EE",
"%.	c #D489F0",
"&.	c #D38AF0",
"*.	c #D48CEF",
"=.	c #D58CF0",
"-.	c #D998F1",
";.	c #DC9FF2",
">.	c #DFA9F3",
",.	c #CB73ED",
"'.	c #CA73EC",
").	c #CC76EC",
"!.	c #CD79ED",
"~.	c #CE7CEE",
"{.	c #CE7BED",
"].	c #CF7EEE",
"^.	c #D080EE",
"/.	c #D081EF",
"(.	c #D184EF",
"_.	c #D386EF",
":.	c #D287EF",
"<.	c #D389EF",
"[.	c #D48CF0",
"}.	c #D794F1",
"|.	c #D897F2",
"1.	c #D898F1",
"2.	c #DB9DF1",
"3.	c #DDA3F2",
"4.	c #DDA3F3",
"5.	c #C665EA",
"6.	c #C667EB",
"7.	c #C767EB",
"8.	c #C86AEB",
"9.	c #C86DEB",
"0.	c #C96EEC",
"a.	c #C970EC",
"b.	c #CB73EC",
"c.	c #CB75ED",
"d.	c #CD78ED",
"e.	c #D183EE",
"f.	c #D389F0",
"g.	c #D68FF0",
"h.	c #D691F0",
"i.	c #D894F1",
"j.	c #D997F1",
"k.	c #BF54E8",
"l.	c #C157E9",
"m.	c #C159E9",
"n.	c #C15AE9",
"o.	c #C25DE9",
"p.	c #C25CE9",
"q.	c #C35FEA",
"r.	c #C462EA",
"s.	c #C562EA",
"t.	c #C668EB",
"u.	c #C86BEB",
"v.	c #C96DEB",
"w.	c #C96EEB",
"x.	c #C970EB",
"y.	c #CA72EC",
"z.	c #CB72EC",
"A.	c #CC76ED",
"B.	c #CF7EED",
"C.	c #D183EF",
"D.	c #BC49E7",
"E.	c #BB49E7",
"F.	c #BC4BE7",
"G.	c #BC4CE7",
"H.	c #BE4EE7",
"I.	c #BF52E8",
"J.	c #BE52E8",
"K.	c #C057E8",
"L.	c #C057E9",
"M.	c #C259E8",
"N.	c #C35DEA",
"O.	c #C25DEA",
"P.	c #C460EA",
"Q.	c #C664EB",
"R.	c #C768EB",
"S.	c #B63BE4",
"T.	c #B73DE6",
"U.	c #B840E6",
"V.	c #B841E6",
"W.	c #B944E6",
"X.	c #B943E6",
"Y.	c #BA46E6",
"Z.	c #BC49E6",
"`.	c #BD4CE7",
" +	c #BD4EE7",
".+	c #BF51E8",
"++	c #BE51E8",
"@+	c #C054E8",
"#+	c #C25CEA",
"$+	c #C45FEA",
"%+	c #C565EA",
"&+	c #C76BEB",
"*+	c #C86DEC",
"=+	c #B02AE3",
"-+	c #B12CE3",
";+	c #B22FE3",
">+	c #B12FE3",
",+	c #B333E3",
"'+	c #B333E4",
")+	c #B435E4",
"!+	c #B438E4",
"~+	c #B538E5",
"{+	c #B63BE5",
"]+	c #B73EE6",
"^+	c #BA46E7",
"/+	c #BB49E6",
"(+	c #BD4BE7",
"_+	c #BD4FE7",
":+	c #C25AE9",
"<+	c #AB1CE1",
"[+	c #AC1FE1",
"}+	c #AC22E1",
"|+	c #AC21E1",
"1+	c #AD25E2",
"2+	c #AE25E2",
"3+	c #AE27E2",
"4+	c #B12DE3",
"5+	c #B230E3",
"6+	c #B22FE4",
"7+	c #B232E4",
"8+	c #B335E5",
"9+	c #B73EE5",
"0+	c #B841E5",
"a+	c #BC4CE8",
"b+	c #A711E0",
"c+	c #A610E0",
"d+	c #A814E0",
"e+	c #A713E0",
"f+	c #A817E0",
"g+	c #A816E0",
"h+	c #A919E0",
"i+	c #AA19E0",
"j+	c #AA1CE0",
"k+	c #AB1FE1",
"l+	c #AD21E2",
"m+	c #AC22E2",
"n+	c #AE24E2",
"o+	c #AF27E2",
"p+	c #AF2AE2",
"q+	c #B332E4",
"r+	c #B436E4",
"s+	c #B73DE5",
"t+	c #B840E5",
"u+	c #A000DD",
"v+	c #A102DD",
"w+	c #A103DD",
"x+	c #A205DE",
"y+	c #A308DE",
"z+	c #A40BDE",
"A+	c #A50BDF",
"B+	c #A50EDF",
"C+	c #A611DF",
"D+	c #A711DF",
"E+	c #A714E0",
"F+	c #A814DF",
"G+	c #A91AE0",
"H+	c #AA1CE1",
"I+	c #AC1EE1",
"J+	c #AD24E1",
"K+	c #B02DE3",
"L+	c #B230E4",
"M+	c #A103DE",
"N+	c #A206DE",
"O+	c #A50CDE",
"P+	c #A40BDF",
"Q+	c #A50EDE",
"R+	c #A710DF",
"S+	c #A713DF",
"T+	c #A91AE1",
"U+	c #AA1AE0",
"V+	c #AB1CE0",
"W+	c #AB1EE1",
"X+	c #AD22E1",
"Y+	c #AD22E2",
"Z+	c #AD24E2",
"`+	c #A102DE",
" @	c #A205DD",
".@	c #A408DE",
"+@	c #A309DE",
"@@	c #A50BDE",
"#@	c #A611E0",
"$@	c #A917E0",
"%@	c #A206DD",
"                                                                                                ",
"                                                                                                ",
"                                                                                                ",
"                                                                                                ",
"                                                                                                ",
"                                                                                                ",
"                                                                                                ",
"                                                                                                ",
"                                                                                                ",
"                                                                                                ",
"                                                            . + @ #                             ",
"                                                          $ % & * = -                           ",
"                                                      ; > , ' ) ! ~ { { $                       ",
"                                                  ] ^ / ( _ : < [ } | ; 1 , 2                   ",
"                                              3 4 5 6 7 8 9 0 0 ] ] a b ( c < d e               ",
"                                            f g h i j k l m n 3 4 6 8 o p q r 0 ] s             ",
"                                        t u v v w x y z z A f B h C D E n n 4 3 6 5 7 F         ",
"                                    G H I J K L M M N O P Q R S T U y V W X Y Z ` C k  .m m     ",
"                                  ..+.@.#.$.%.&.*.=.G G I L K -.M N N O t ;.R T y y >.z f f Z   ",
"                              ,.'.).).!.~.{.].].^./.(.(._.:.<.[.[.G G I I }.}.|.1.N t 2.Q Q 3.4.",
"                          5.5.6.7.8.8.9.0.a.b.b.).c.d.d.{.{.].]./.e.@.:.#.f.<.[.[.G g.h.i.K j.  ",
"                      k.l.m.n.o.p.q.q.r.s.5.5.t.u.8.v.w.x.a.y.z.).A.!.{.{.].B.^./.(.C.:.#.      ",
"                    D.E.F.G.H.I.J.k.k.K.L.M.m.N.O.P.s.s.5.Q.6.R.8.u.v.v.a.b.'.A.A.!.d.{.        ",
"                S.S.T.T.U.V.W.X.Y.E.Z.`.G. + +.+++@+@+K.m.n.#+p.q.$+s.s.5.%+6.u.&+*+            ",
"            =+-+;+>+,+'+)+)+!+~+{+{+]+U.U.X.X.^+Y./+/+G.(+_+++++k.k.K.l.:+:+O.o.                ",
"        <+[+[+}+|+1+2+3+=+=+4+4+5+6+,+7+8+~+~+{+{+9+9+0+0+X.W.^+E.D.a+F. +_+                    ",
"      b+c+d+e+f+g+h+i+j+<+k+l+m+n+n+3+o+=+p+4+>+5+q+'+)+r+~+~+{+S.s+U.t+X.                      ",
"  u+v+w+x+y+y+z+A+B+B+C+D+E+F+g+h+G+<+H+I+[+}+m+J+2+o+=+=+K+4+>+L+'+'+                          ",
"u+u+u+u+u+u+u+u+u+M+M+N+x+y+y+O+P+Q+R+C+E+S+f+f+T+U+V+<+W+X+Y+1+Z+                              ",
"  u+u+u+u+u+u+u+u+u+u+u+u+u+u+u+u+`+M+ @.@+@A+@@B+B+#@#@E+E+$@                                  ",
"    u+u+u+u+u+u+u+u+u+u+u+u+u+u+u+u+u+u+u+u+u+u+`+v+%@%@y++@                                    ",
"        u+u+u+u+u+u+u+u+u+u+u+u+u+u+u+u+u+u+u+u+u+u+u+u+                                        ",
"            u+u+u+u+u+u+u+u+u+u+u+u+u+u+u+u+u+u+u+u+                                            ",
"              u+u+u+u+u+u+u+u+u+u+u+u+u+u+u+u+u+u+                                              ",
"                  u+u+u+u+u+u+u+u+u+u+u+u+u+u+                                                  ",
"                      u+u+u+u+u+u+u+u+u+u+                                                      ",
"                          u+u+u+u+u+u+                                                          ",
"                            u+u+u+u+                                                            ",
"                                                                                                ",
"                                                                                                ",
"                                                                                                ",
"                                                                                                ",
"                                                                                                ",
"                                                                                                ",
"                                                                                                ",
"                                                                                                ",
"                                                                                                ",
"                                                                                                "};
