/* XPM */
static char * panelYZFace_xpm[] = {
"48 48 648 2",
"  	c None",
". 	c #BFBFBF",
"+ 	c #D4D4F8",
"@ 	c #FEFFFF",
"# 	c #BDBEFF",
"$ 	c #EFEFEF",
"% 	c #FFFFFF",
"& 	c #FFF9F9",
"* 	c #FBEDED",
"= 	c #B0B1FF",
"- 	c #F4F4F3",
"; 	c #FFF0F0",
"> 	c #FFE8E9",
", 	c #F6D8D8",
"' 	c #A3A4FF",
") 	c #F9F9F9",
"! 	c #FFF7F7",
"~ 	c #FFEFEF",
"{ 	c #FFE6E6",
"] 	c #FFDEDE",
"^ 	c #FFD6D6",
"/ 	c #EEC0BF",
"( 	c #FDFDFD",
"_ 	c #FFEFEE",
": 	c #FFD5D6",
"< 	c #FFCDCE",
"[ 	c #FFC5C5",
"} 	c #9090FF",
"| 	c #FFF7F6",
"1 	c #FFEEEE",
"2 	c #FFD6D5",
"3 	c #FFCDCD",
"4 	c #FFBCBD",
"5 	c #FEB4B4",
"6 	c #8485FF",
"7 	c #FFFDFD",
"8 	c #FFF4F4",
"9 	c #FFEDEC",
"0 	c #FFE4E4",
"a 	c #FFDCDC",
"b 	c #FFD3D3",
"c 	c #FFCBCB",
"d 	c #FFC3C3",
"e 	c #FFBBBA",
"f 	c #FFB2B2",
"g 	c #FFAAAA",
"h 	c #FCA0A0",
"i 	c #FF999A",
"j 	c #FFF5F5",
"k 	c #FFCBCC",
"l 	c #FFA1A2",
"m 	c #FF9A99",
"n 	c #E587AA",
"o 	c #EC83A8",
"p 	c #FFECEC",
"q 	c #FFCCCC",
"r 	c #FFBBBB",
"s 	c #FFB3B2",
"t 	c #FFA2A2",
"u 	c #FF9A9A",
"v 	c #F68EA1",
"w 	c #F58699",
"x 	c #F27A79",
"y 	c #FFFAFB",
"z 	c #FFF3F2",
"A 	c #FFEBEA",
"B 	c #FFE2E2",
"C 	c #FFDAD9",
"D 	c #FFD2D2",
"E 	c #FFC9C9",
"F 	c #FFC1C1",
"G 	c #FFB9B8",
"H 	c #FFB0B0",
"I 	c #FFA8A8",
"J 	c #FFA0A0",
"K 	c #FF9797",
"L 	c #ED8AAB",
"M 	c #FF8787",
"N 	c #FF7E7E",
"O 	c #FF7677",
"P 	c #E66263",
"Q 	c #FFFBFB",
"R 	c #FFF3F3",
"S 	c #FFEAEA",
"T 	c #FFD9DA",
"U 	c #FFD1D1",
"V 	c #FFC9CA",
"W 	c #FFB9B9",
"X 	c #FF9897",
"Y 	c #FF8686",
"Z 	c #FF7F7E",
"` 	c #FF6E6E",
" .	c #FF6666",
"..	c #FF5D5E",
"+.	c #FFDADA",
"@.	c #FFD2D1",
"#.	c #FFC1C0",
"$.	c #FF9FA0",
"%.	c #DF85BC",
"&.	c #FF7676",
"*.	c #FF5D5D",
"=.	c #FD5454",
"-.	c #FF4D4C",
";.	c #FFF8F9",
">.	c #FFE8E8",
",.	c #FFE0E0",
"'.	c #FFD8D8",
").	c #FFCFD0",
"!.	c #FFC7C7",
"~.	c #FFBFBF",
"{.	c #FFB6B7",
"].	c #FFAEAF",
"^.	c #FFA6A6",
"/.	c #FF9E9D",
"(.	c #FF9596",
"_.	c #EC87AA",
":.	c #FF8585",
"<.	c #FF7D7C",
"[.	c #FF7474",
"}.	c #FF6C6C",
"|.	c #FF6364",
"1.	c #FF5B5B",
"2.	c #FF5353",
"3.	c #FF4A4B",
"4.	c #F84140",
"5.	c #FFF9F8",
"6.	c #FFF1F0",
"7.	c #FFDFDF",
"8.	c #FFD8D7",
"9.	c #FFD0CF",
"0.	c #FFAEAE",
"a.	c #FF9D9D",
"b.	c #FF8484",
"c.	c #FF7C7D",
"d.	c #FF6B6B",
"e.	c #FF6363",
"f.	c #FF5C5B",
"g.	c #FF4A4A",
"h.	c #FF4242",
"i.	c #FF3A3A",
"j.	c #F2302F",
"k.	c #FFBDBD",
"l.	c #FFB4B5",
"m.	c #FFACAC",
"n.	c #FFA3A4",
"o.	c #FF9C9B",
"p.	c #FF9393",
"q.	c #EC85A9",
"r.	c #FF8282",
"s.	c #FF7B7A",
"t.	c #FF7272",
"u.	c #FF6A6A",
"v.	c #FF6161",
"w.	c #FF595A",
"x.	c #FF5151",
"y.	c #FF4848",
"z.	c #FF4040",
"A.	c #FF3838",
"B.	c #FF2F2F",
"C.	c #FF2727",
"D.	c #FF1F1F",
"E.	c #FFEEEF",
"F.	c #FFD5D5",
"G.	c #FFCECD",
"H.	c #FFB5B4",
"I.	c #FF9C9C",
"J.	c #FF9394",
"K.	c #FF8383",
"L.	c #FF6262",
"M.	c #FF5959",
"N.	c #FF4949",
"O.	c #FF2F30",
"P.	c #FF2828",
"Q.	c #FF1717",
"R.	c #FF0E0F",
"S.	c #BBBBFF",
"T.	c #EBEBEB",
"U.	c #FFDDDE",
"V.	c #FFA4A4",
"W.	c #EC85A8",
"X.	c #FF7A7B",
"Y.	c #FF302F",
"Z.	c #FF0F0F",
"`.	c #FD0606",
" +	c #FF0000",
".+	c #C0C0FF",
"++	c #B5B5FF",
"@+	c #AFB0FF",
"#+	c #F8E6E7",
"$+	c #FFD3D4",
"%+	c #FFB3B3",
"&+	c #FFA2A1",
"*+	c #F58EA0",
"=+	c #F5869A",
"-+	c #FF8180",
";+	c #FF7879",
">+	c #FF7070",
",+	c #FF6868",
"'+	c #FF5F5F",
")+	c #FF5757",
"!+	c #FF4F4F",
"~+	c #FF4646",
"{+	c #FF3E3F",
"]+	c #FF3636",
"^+	c #FF2E2E",
"/+	c #FF2626",
"(+	c #FF1D1D",
"_+	c #FF1514",
":+	c #FF0D0C",
"<+	c #FF0405",
"[+	c #F20202",
"}+	c #CBCAFF",
"|+	c #C4C5FF",
"1+	c #BFBFFF",
"2+	c #B9BAFF",
"3+	c #B4B4FF",
"4+	c #AEAEFF",
"5+	c #A8A8FF",
"6+	c #A2A2FF",
"7+	c #FEDBDB",
"8+	c #FFBABA",
"9+	c #FF9999",
"0+	c #FF8080",
"a+	c #FF6867",
"b+	c #FF4E4F",
"c+	c #FF4746",
"d+	c #FF3E3E",
"e+	c #FF2526",
"f+	c #FF1515",
"g+	c #FF0D0D",
"h+	c #FF0404",
"i+	c #F30202",
"j+	c #CFCFFF",
"k+	c #C9C9FF",
"l+	c #C3C3FF",
"m+	c #B8B8FF",
"n+	c #B2B2FF",
"o+	c #ADACFF",
"p+	c #A7A7FF",
"q+	c #A1A1FF",
"r+	c #9B9BFF",
"s+	c #9695FF",
"t+	c #FFBABB",
"u+	c #FFA1A1",
"v+	c #FF8081",
"w+	c #FF7878",
"x+	c #FF6768",
"y+	c #FF5758",
"z+	c #FF4E4E",
"A+	c #FF2E2D",
"B+	c #FF2525",
"C+	c #F50101",
"D+	c #D9D9FF",
"E+	c #D2D3FF",
"F+	c #CECDFF",
"G+	c #C7C8FF",
"H+	c #C2C2FF",
"I+	c #BCBCFF",
"J+	c #B6B7FF",
"K+	c #ABABFF",
"L+	c #A5A5FF",
"M+	c #A0A0FF",
"N+	c #9A9AFF",
"O+	c #9495FF",
"P+	c #8E8FFF",
"Q+	c #F6B9BA",
"R+	c #FFB1B1",
"S+	c #FF9798",
"T+	c #EC89AB",
"U+	c #FF7F7F",
"V+	c #FF7776",
"W+	c #FF6D6E",
"X+	c #FF6566",
"Y+	c #FF5555",
"Z+	c #FF4C4D",
"`+	c #FF4444",
" @	c #FF3D3C",
".@	c #FF3334",
"+@	c #FF2C2B",
"@@	c #FF2423",
"#@	c #FF1B1B",
"$@	c #FF1213",
"%@	c #FF0A0A",
"&@	c #FF0302",
"*@	c #F60101",
"=@	c #E2E2FF",
"-@	c #DDDDFF",
";@	c #D7D8FF",
">@	c #D2D1FF",
",@	c #CCCCFF",
"'@	c #C6C6FF",
")@	c #C1C0FF",
"!@	c #BABAFF",
"~@	c #B0AFFF",
"{@	c #A9A9FF",
"]@	c #A4A4FF",
"^@	c #9F9EFF",
"/@	c #9998FF",
"(@	c #9393FF",
"_@	c #8D8DFF",
":@	c #8787FF",
"<@	c #8383FF",
"[@	c #FEB0AF",
"}@	c #FFA09F",
"|@	c #FF4D4D",
"1@	c #FF4445",
"2@	c #FF3C3C",
"3@	c #FF3433",
"4@	c #FF2C2C",
"5@	c #FF2324",
"6@	c #FF1212",
"7@	c #FF0202",
"8@	c #F70101",
"9@	c #ECEDFF",
"0@	c #E7E6FF",
"a@	c #E1E1FF",
"b@	c #DBDBFF",
"c@	c #D5D6FF",
"d@	c #D0D0FF",
"e@	c #AAAAFF",
"f@	c #A4A3FF",
"g@	c #9E9EFF",
"h@	c #9999FF",
"i@	c #9392FF",
"j@	c #8887FF",
"k@	c #8181FF",
"l@	c #7C7CFF",
"m@	c #7776FF",
"n@	c #FF9F9F",
"o@	c #EC88AB",
"p@	c #FF3434",
"q@	c #FF1313",
"r@	c #FF0B0A",
"s@	c #FA0001",
"t@	c #F3F2FF",
"u@	c #EDECFF",
"v@	c #E7E7FF",
"w@	c #E2E1FF",
"x@	c #DCDCFF",
"y@	c #CACAFF",
"z@	c #C5C5FF",
"A@	c #B9B9FF",
"B@	c #B4B3FF",
"C@	c #ADAEFF",
"D@	c #9D9DFF",
"E@	c #9797FF",
"F@	c #9191FF",
"G@	c #8C8CFF",
"H@	c #8686FF",
"I@	c #8180FF",
"J@	c #7B7BFF",
"K@	c #7475FF",
"L@	c #6F6FFF",
"M@	c #E289AB",
"N@	c #FF4B4A",
"O@	c #FF3232",
"P@	c #FF292A",
"Q@	c #FF2121",
"R@	c #FF1919",
"S@	c #FF1011",
"T@	c #FF0908",
"U@	c #FB0101",
"V@	c #FCFCFF",
"W@	c #F6F7FF",
"X@	c #F1F1FF",
"Y@	c #EBEBFF",
"Z@	c #E6E5FF",
"`@	c #DFE0FF",
" #	c #DADAFF",
".#	c #D4D5FF",
"+#	c #C3C4FF",
"@#	c #B8B7FF",
"##	c #ACADFF",
"$#	c #9696FF",
"%#	c #908FFF",
"&#	c #8A8AFF",
"*#	c #8585FF",
"=#	c #7F7FFF",
"-#	c #7979FF",
";#	c #7374FF",
">#	c #6D6EFF",
",#	c #6868FF",
"'#	c #6262FF",
")#	c #FC8483",
"!#	c #FF7C7C",
"~#	c #FF6B6C",
"{#	c #FF6464",
"]#	c #FF4B4B",
"^#	c #FF3231",
"/#	c #FF2A2A",
"(#	c #FF1110",
"_#	c #FF0808",
":#	c #FC0101",
"<#	c #FBFBFF",
"[#	c #F5F5FF",
"}#	c #EFF0FF",
"|#	c #EAE9FF",
"1#	c #E4E4FF",
"2#	c #DEDEFF",
"3#	c #D9D8FF",
"4#	c #D3D3FF",
"5#	c #CECEFF",
"6#	c #9494FF",
"7#	c #8989FF",
"8#	c #7D7DFF",
"9#	c #7877FF",
"0#	c #7272FF",
"a#	c #6C6DFF",
"b#	c #6667FF",
"c#	c #6160FF",
"d#	c #5B5BFF",
"e#	c #5555FF",
"f#	c #FF696A",
"g#	c #FF4041",
"h#	c #FF2728",
"i#	c #FF0606",
"j#	c #FE0100",
"k#	c #F9F9FF",
"l#	c #F4F4FF",
"m#	c #EDEEFF",
"n#	c #E8E8FF",
"o#	c #E3E2FF",
"p#	c #DDDCFF",
"q#	c #D8D7FF",
"r#	c #D2D2FF",
"s#	c #BBBAFF",
"t#	c #AFAFFF",
"u#	c #A9AAFF",
"v#	c #9E9FFF",
"w#	c #9898FF",
"x#	c #9293FF",
"y#	c #8788FF",
"z#	c #8282FF",
"A#	c #7171FF",
"B#	c #6B6BFF",
"C#	c #6565FF",
"D#	c #6161FF",
"E#	c #5B5CFF",
"F#	c #5656FF",
"G#	c #5050FF",
"H#	c #F36565",
"I#	c #FF5150",
"J#	c #FF2827",
"K#	c #FF201F",
"L#	c #FF0E0E",
"M#	c #FDFDFF",
"N#	c #F8F8FF",
"O#	c #F2F2FF",
"P#	c #DBDCFF",
"Q#	c #D5D5FF",
"R#	c #B3B4FF",
"S#	c #A9A8FF",
"T#	c #9292FF",
"U#	c #7B7CFF",
"V#	c #7676FF",
"W#	c #7070FF",
"X#	c #6665FF",
"Y#	c #5F5FFF",
"Z#	c #595AFF",
"`#	c #5454FF",
" $	c #4E4EFF",
".$	c #4849FF",
"+$	c #4343FF",
"@$	c #FC5858",
"#$	c #FF1716",
"$$	c #E5E6FF",
"%$	c #D5D4FF",
"&$	c #BEBFFF",
"*$	c #A3A2FF",
"=$	c #8B8CFF",
"-$	c #8080FF",
";$	c #7A7BFF",
">$	c #7575FF",
",$	c #6F70FF",
"'$	c #6A69FF",
")$	c #6463FF",
"!$	c #5E5EFF",
"~$	c #5858FF",
"{$	c #5252FF",
"]$	c #4C4DFF",
"^$	c #4747FF",
"/$	c #4241FF",
"($	c #3C3CFF",
"_$	c #3636FF",
":$	c #FF4747",
"<$	c #E5E5FF",
"[$	c #DFDFFF",
"}$	c #D4D4FF",
"|$	c #A6A7FF",
"1$	c #9C9CFF",
"2$	c #8B8AFF",
"3$	c #7474FF",
"4$	c #5C5DFF",
"5$	c #5757FF",
"6$	c #5151FF",
"7$	c #4B4BFF",
"8$	c #4646FF",
"9$	c #4040FF",
"0$	c #3B3AFF",
"a$	c #3435FF",
"b$	c #2F2FFF",
"c$	c #F03C3C",
"d$	c #FF1414",
"e$	c #DFDEFF",
"f$	c #D8D8FF",
"g$	c #CDCEFF",
"h$	c #C7C7FF",
"i$	c #C2C1FF",
"j$	c #B6B6FF",
"k$	c #B1B1FF",
"l$	c #A6A5FF",
"m$	c #9FA0FF",
"n$	c #9A99FF",
"o$	c #8E8EFF",
"p$	c #8988FF",
"q$	c #7E7DFF",
"r$	c #7778FF",
"s$	c #6C6CFF",
"t$	c #6766FF",
"u$	c #5655FF",
"v$	c #4F4FFF",
"w$	c #4A4AFF",
"x$	c #4544FF",
"y$	c #3F3FFF",
"z$	c #3939FF",
"A$	c #3433FF",
"B$	c #2E2EFF",
"C$	c #2728FF",
"D$	c #2222FF",
"E$	c #FA2D2D",
"F$	c #D1D1FF",
"G$	c #CCCBFF",
"H$	c #8281FF",
"I$	c #6566FF",
"J$	c #6060FF",
"K$	c #5A5AFF",
"L$	c #4E4FFF",
"M$	c #4848FF",
"N$	c #3D3DFF",
"O$	c #2828FF",
"P$	c #1C1CFF",
"Q$	c #1717FF",
"R$	c #C4C4FF",
"S$	c #B3B3FF",
"T$	c #A2A3FF",
"U$	c #8C8BFF",
"V$	c #7B7AFF",
"W$	c #7170FF",
"X$	c #5A59FF",
"Y$	c #4F4EFF",
"Z$	c #4949FF",
"`$	c #3D3EFF",
" %	c #3738FF",
".%	c #3232FF",
"+%	c #2C2CFF",
"@%	c #2626FF",
"#%	c #2120FF",
"$%	c #1B1BFF",
"%%	c #1615FF",
"&%	c #1010FF",
"*%	c #D81579",
"=%	c #706FFF",
"-%	c #696AFF",
";%	c #6464FF",
">%	c #5859FF",
",%	c #5253FF",
"'%	c #4D4DFF",
")%	c #4141FF",
"!%	c #3030FF",
"~%	c #2B2BFF",
"{%	c #2525FF",
"]%	c #1F1FFF",
"^%	c #1A1AFF",
"/%	c #1414FF",
"(%	c #0E0EFF",
"_%	c #0808FF",
":%	c #0303FF",
"<%	c #F90404",
"[%	c #A7A6FF",
"}%	c #9C9BFF",
"|%	c #7473FF",
"1%	c #6E6EFF",
"2%	c #6362FF",
"3%	c #5D5DFF",
"4%	c #5657FF",
"5%	c #5251FF",
"6%	c #3A3BFF",
"7%	c #3534FF",
"8%	c #2929FF",
"9%	c #2424FF",
"0%	c #1E1EFF",
"a%	c #1819FF",
"b%	c #1312FF",
"c%	c #0D0DFF",
"d%	c #0708FF",
"e%	c #0201FF",
"f%	c #0000FF",
"g%	c #FF0001",
"h%	c #A09FFF",
"i%	c #9594FF",
"j%	c #3333FF",
"k%	c #2D2EFF",
"l%	c #2322FF",
"m%	c #1C1DFF",
"n%	c #1716FF",
"o%	c #1111FF",
"p%	c #0B0BFF",
"q%	c #0606FF",
"r%	c #9899FF",
"s%	c #5F60FF",
"t%	c #3737FF",
"u%	c #2C2DFF",
"v%	c #2727FF",
"w%	c #1212FF",
"x%	c #0C0BFF",
"y%	c #0605FF",
"z%	c #7A7AFF",
"A%	c #6969FF",
"B%	c #5958FF",
"C%	c #5352FF",
"D%	c #3838FF",
"E%	c #3231FF",
"F%	c #2021FF",
"G%	c #1516FF",
"H%	c #0A0AFF",
"I%	c #0404FF",
"J%	c #5353FF",
"K%	c #4C4CFF",
"L%	c #4242FF",
"M%	c #3637FF",
"N%	c #3130FF",
"O%	c #1A19FF",
"P%	c #797AFF",
"Q%	c #6263FF",
"R%	c #4B4CFF",
"S%	c #3B3BFF",
"T%	c #3535FF",
"U%	c #2A29FF",
"V%	c #1918FF",
"W%	c #6D6CFF",
"X%	c #6767FF",
"Y%	c #4F50FF",
"Z%	c #4444FF",
"`%	c #2E2DFF",
" &	c #4948FF",
".&	c #3132FF",
"+&	c #4748FF",
"@&	c #4140FF",
"                                                                                                ",
"                                .                                                               ",
"                                + @ #                                                           ",
"                                $ % & * =                                                       ",
"                                - % & ; > , '                                                   ",
"                                ) % ! ~ { ] ^ /                                                 ",
"                                ( % ! _ { ] : < [ }                                             ",
"                                % % | 1 { ] 2 3 [ 4 5 6                                         ",
"                                % 7 8 9 0 a b c d e f g h i                                     ",
"                                % 7 j 9 0 a b k d e f g l m n o                                 ",
"                                % 7 j p 0 a b q d r s g t u v w x                               ",
"                                % y z A B C D E F G H I J K L M N O P                           ",
"                                % Q R S B T U V F W H I J X L Y Z O `  ...                      ",
"                                % Q R S B +.@.E #.G H I $.K %.M Z &.`  .*.=.-.                  ",
"                                % ;.; >.,.'.).!.~.{.].^./.(._.:.<.[.}.|.1.2.3.4.                ",
"                                % 5.6.>.7.8.9.!.~.{.0.^.a.(._.b.c.[.d.e.f.2.g.h.i.j.            ",
"                                % ! _ { ] 2 3 [ k.l.m.n.o.p.q.r.s.t.u.v.w.x.y.z.A.B.C.D.        ",
"                                % ! E.{ ] F.G.[ k.H.m.n.I.J.q.K.s.t.u.L.M.x.N.z.A.O.P.D.Q.R.    ",
"                              S.T.! 1 { U.^ 3 [ 4 H.m.V.o.p.W.K.X.t.u.v.M.x.y.z.A.Y.P.D.Q.Z.`. +",
"                            .+S.++@+#+0 a $+c d r %+g &+m *+=+-+;+>+,+'+)+!+~+{+]+^+/+(+_+:+<+[+",
"                        }+|+1+2+3+4+5+6+7+b c d 8+f g t 9+*+=+0+;+>+a+'+)+b+c+d+]+^+e+(+f+g+h+i+",
"                      j+k+l+# m+n+o+p+q+r+s+c d t+s g u+u *+=+v+w+>+x+'+y+z+~+d+]+A+B+(+f+:+h+C+",
"                  D+E+F+G+H+I+J+= K+L+M+N+O+P+Q+W R+I $.S+T+M U+V+W+X+*.Y+Z+`+ @.@+@@@#@$@%@&@*@",
"              =@-@;@>@,@'@)@!@++~@{@]@^@/@(@_@:@<@[@I }@X T+M U+O `  .*.Y+|@1@2@3@4@5@#@6@%@7@8@",
"          9@0@a@b@c@d@}+|+1+S.++~@e@f@g@h@i@_@j@k@l@m@n@S+o@M N &.` X+*.Y+|@1@2@p@4@5@#@q@r@7@s@",
"        t@u@v@w@x@c@d@y@z@1+A@B@C@5+6+D@E@F@G@H@I@J@K@L@M@_.b.c.[.}.e.f.2.N@h.i.O@P@Q@R@S@T@ +U@",
"    V@W@X@Y@Z@`@ #.#j+k++## @#n+##p+q+r+$#%#&#*#=#-#;#>#,#'#)#!#[.~#{#1.2.]#h.i.^#/#Q@R@(#_# +:#",
"% % <#[#}#|#1#2#3#4#5#G+H+I+J+= K+L+M+N+6#P+7#<@8#9#0#a#b#c#d#e#t.f#v.M.x.y.g#A.B.h#D.Q.R.i# +j#",
"% % k#l#m#n#o#p#q#r#,@'@.+s#++t#u#]@v#w#x#_@y#z#l@m@A#B#C#D#E#F#G#H#v.w.I#N.z.A.B.J#K#Q.L#i# + +",
"  M#N#O#u@0@w@P#Q#d@}+z@1+2+R#4+S#6+D@/@T#_@y#z#U#V#W#B#X#Y#Z#`# $.$+$@$x.y.z.A.B.J#D.#$L#i# + +",
"      X@Y@$$`@ #%$d@y@z@&$A@R#4+5+*$D@E@F@=$H@-$;$>$,$'$)$!$~${$]$^$/$($_$:$d+]+^+B+(+f+g+h+ + +",
"          <$[$ #}$5#k++## m+n+##|$q+1$$#%#2$6 =#-#3$>#,#'#4$5$6$7$8$9$0$a$b$c$]+A+B+(+d$g+h+ + +",
"            e$f$4#g$h$i$I+j$k$K+l$m$n$6#o$p$<@q$r$0#s$t$D#d#u$v$w$x$y$z$A$B$C$D$E$/+(+f+:+h+ + +",
"                F$G$'@.+S.++@+u#]@g@w#(@_@y#H$l@m@W#B#I$J$K$`#L$M$+$N$z$A$B$O$D$P$Q$#@$@r@7@ + +",
"                    R$1+A@S$4+5+T$1$E@F@U$H@-$V$>$W$B#C#J$X$`#Y$Z$+$`$ %.%+%@%#%$%%%&%*%%@7@ + +",
"                        m+n+##5+T$D@E@F@G@H@-$V$>$=%-%;%!$>%,%'%^$)%($_$!%~%{%]%^%/%(%_%:%<% + +",
"                          n+##[%q+}%s+} &#*#=#-#|%1%,#2%3%4%5%7$8$9$6%7%b$8%9%0%a%b%c%d%e%f%f%g%",
"                              L+h%N+i%P+7#<@8#r$0#s$b#D#d#e#G#w$x$y$z$j%k%O$l%m%n%o%p%q%f%f%f%  ",
"                                  r%(@_@j@H$l@V#W#B#C#s%Z#`#L$Z$+$N$t%.%u%v%#%$%Q$w%x%y%f%f%    ",
"                                      G@H@-$z%>$L@A%)$!$B%C% $Z$+$N$D%E%+%v%F%$%G%&%H%I%        ",
"                                        H@I@V$>$L@A%;%!$B%J%K%^$L%($M%N%~%{%]%O%/%(%            ",
"                                            P%|%1%,#Q%3%5$5%R%8$9$S%T%b$U%9%0%V%                ",
"                                                W%X%D#d#F#Y%w$Z%y$z$A$`%O$D$P$                  ",
"                                                    Y#K$`# $ &+$N$D%.&+%@%                      ",
"                                                      ~$J%'%+&L%($_$N%                          ",
"                                                          '%^$/$($M%                            ",
"                                                              @&                                ",
"                                                                                                "};
