/* XPM */
static char * panelXYFace_xpm[] = {
"48 48 622 2",
"  	c None",
". 	c #DBDBDB",
"+ 	c #FDFDFD",
"@ 	c #FEFDFD",
"# 	c #DED9D9",
"$ 	c #D0D0D0",
"% 	c #F5F5F5",
"& 	c #FFFEFE",
"* 	c #FFFCFC",
"= 	c #FFF7F8",
"- 	c #FFF3F3",
"; 	c #F6E7E7",
"> 	c #D5C3C3",
", 	c #EDEDED",
"' 	c #FFFFFF",
") 	c #FFFDFD",
"! 	c #FFF9F9",
"~ 	c #FFF5F5",
"{ 	c #FFF1F1",
"] 	c #FFECEC",
"^ 	c #FFE8E8",
"/ 	c #FFE4E4",
"( 	c #F0D3D3",
"_ 	c #E2E2E2",
": 	c #FEFEFE",
"< 	c #FFFAFA",
"[ 	c #FFF6F6",
"} 	c #FFF2F2",
"| 	c #FFEEEE",
"1 	c #FFEAEA",
"2 	c #FFE6E6",
"3 	c #FFE1E1",
"4 	c #FFDDDD",
"5 	c #FFD9D9",
"6 	c #FFD5D5",
"7 	c #E6BCBC",
"8 	c #D9D9D9",
"9 	c #FAFAFA",
"0 	c #FFFBFB",
"a 	c #FFF7F7",
"b 	c #FFEFEF",
"c 	c #FFEBEB",
"d 	c #FFE7E7",
"e 	c #FFE3E3",
"f 	c #FFDFDF",
"g 	c #FFDBDB",
"h 	c #FFD6D6",
"i 	c #FFD2D2",
"j 	c #FFCECE",
"k 	c #FFCACA",
"l 	c #FCC3C3",
"m 	c #DDA7A7",
"n 	c #CDCDCD",
"o 	c #F3F3F3",
"p 	c #FFF0F0",
"q 	c #FFE0E0",
"r 	c #FFDCDC",
"s 	c #FFD8D8",
"t 	c #FFD4D4",
"u 	c #FFCFD0",
"v 	c #FFCCCB",
"w 	c #FFC7C7",
"x 	c #FFC3C3",
"y 	c #FFBFBF",
"z 	c #FFBBBB",
"A 	c #F4AFAE",
"B 	c #D29292",
"C 	c #EBEBEB",
"D 	c #FFE5E5",
"E 	c #FFD1D1",
"F 	c #FFCDCD",
"G 	c #FFC9C9",
"H 	c #FFC5C5",
"I 	c #FFC0C0",
"J 	c #FFBCBC",
"K 	c #FFB8B8",
"L 	c #FFB4B4",
"M 	c #FFB0B0",
"N 	c #FFACAC",
"O 	c #EF9D9D",
"P 	c #E0E0E0",
"Q 	c #FFDADA",
"R 	c #FFC6C6",
"S 	c #FFC2C2",
"T 	c #FFBEBE",
"U 	c #FFBAB9",
"V 	c #FFB5B5",
"W 	c #FFB1B1",
"X 	c #FFADAD",
"Y 	c #FFA9A9",
"Z 	c #FFA5A5",
"` 	c #FFA1A1",
" .	c #FF9D9D",
"..	c #E38787",
"+.	c #B3B3B3",
"@.	c #F9F9F9",
"#.	c #FFF4F4",
"$.	c #FFCFCF",
"%.	c #FFCBCB",
"&.	c #FFB7B7",
"*.	c #FFB3B3",
"=.	c #FFAFAE",
"-.	c #FFAAAA",
";.	c #FFA6A6",
">.	c #FFA2A2",
",.	c #FF9E9E",
"'.	c #FF9A9A",
").	c #FF9696",
"!.	c #FF9292",
"~.	c #FB8B8B",
"{.	c #D97474",
"].	c #D8D8D8",
"^.	c #E6E4E5",
"/.	c #F4EFEF",
"(.	c #FFE9E9",
"_.	c #FFC8C8",
":.	c #FFC4C4",
"<.	c #FFA8A8",
"[.	c #FFA4A3",
"}.	c #FF9F9F",
"|.	c #FF9B9B",
"1.	c #FF9797",
"2.	c #FF9393",
"3.	c #FF8F8F",
"4.	c #FF8B8B",
"5.	c #FF8787",
"6.	c #FF8383",
"7.	c #F37878",
"8.	c #CC6060",
"9.	c #D9D8D8",
"0.	c #E4E1E2",
"a.	c #EADFDF",
"b.	c #E6D7D7",
"c.	c #FBE7E7",
"d.	c #FFDEDE",
"e.	c #FFBDBD",
"f.	c #FFB9B9",
"g.	c #FF9898",
"h.	c #FF9494",
"i.	c #FF9090",
"j.	c #FF8C8C",
"k.	c #FF8888",
"l.	c #FF8484",
"m.	c #FF8080",
"n.	c #FF7C7C",
"o.	c #FF7878",
"p.	c #FF7373",
"q.	c #EC6666",
"r.	c #E7E7E7",
"s.	c #FAFAFF",
"t.	c #E4E2EC",
"u.	c #E2D3D7",
"v.	c #E9D0D0",
"w.	c #E9CDCD",
"x.	c #FFD7D8",
"y.	c #FFD3D3",
"z.	c #FFB3B2",
"A.	c #FFAEAE",
"B.	c #FF8D8D",
"C.	c #FF8989",
"D.	c #FF8585",
"E.	c #FF8181",
"F.	c #FF7D7D",
"G.	c #FF7979",
"H.	c #FF7575",
"I.	c #FF7171",
"J.	c #FF6D6D",
"K.	c #FF6869",
"L.	c #FE6464",
"M.	c #E05454",
"N.	c #F1F1FF",
"O.	c #E9E9FE",
"P.	c #D3CBE0",
"Q.	c #E7C7CB",
"R.	c #E6C0BF",
"S.	c #EFC4C4",
"T.	c #FFCCCD",
"U.	c #FFA7A8",
"V.	c #FFA3A3",
"W.	c #FF8282",
"X.	c #FF7E7E",
"Y.	c #FF7A7A",
"Z.	c #FF7676",
"`.	c #FF7272",
" +	c #FF6E6E",
".+	c #FF6A6A",
"++	c #FF6666",
"@+	c #FF6262",
"#+	c #FF5D5D",
"$+	c #FF5959",
"%+	c #FA5353",
"&+	c #D74343",
"*+	c #F9F9FF",
"=+	c #E9E9FF",
"-+	c #E1E1FF",
";+	c #D3D3F8",
">+	c #CFBBD4",
",+	c #EABABC",
"'+	c #E6B2B2",
")+	c #F6BBBB",
"!+	c #FFA0A1",
"~+	c #FF9C9D",
"{+	c #FF7C7B",
"]+	c #FF7777",
"^+	c #FF6F6F",
"/+	c #FF6B6B",
"(+	c #FF6767",
"_+	c #FF6363",
":+	c #FF5F5F",
"<+	c #FF5B5B",
"[+	c #FF5757",
"}+	c #FF5252",
"|+	c #FF4E4E",
"1+	c #FF4A4A",
"2+	c #F14242",
"3+	c #C83434",
"4+	c #E1E0FF",
"5+	c #D8D8FF",
"6+	c #D0D0FF",
"7+	c #BFBDEF",
"8+	c #D3ADC4",
"9+	c #EAABAB",
"0+	c #E6A4A5",
"a+	c #FCB0B0",
"b+	c #FF9192",
"c+	c #FF6D6C",
"d+	c #FF6868",
"e+	c #FF6464",
"f+	c #FF6060",
"g+	c #FF5C5C",
"h+	c #FF5858",
"i+	c #FF5454",
"j+	c #FF5050",
"k+	c #FF4B4C",
"l+	c #FF4747",
"m+	c #FF4343",
"n+	c #FF3F3F",
"o+	c #FF3B3B",
"p+	c #E83232",
"q+	c #E8E8FF",
"r+	c #E0E0FF",
"s+	c #C8C8FF",
"t+	c #C0C0FF",
"u+	c #B3A9E4",
"v+	c #DDA0B1",
"w+	c #EA9D9D",
"x+	c #E99999",
"y+	c #FF8686",
"z+	c #FF6161",
"A+	c #FF5555",
"B+	c #FF5151",
"C+	c #FF4D4D",
"D+	c #FF4949",
"E+	c #FF4545",
"F+	c #FF4140",
"G+	c #FF3C3C",
"H+	c #FF3838",
"I+	c #FF3434",
"J+	c #FF3030",
"K+	c #FC2C2B",
"L+	c #DE2424",
"M+	c #F0F0FF",
"N+	c #BFBFFF",
"O+	c #B7B7FF",
"P+	c #ADAEFD",
"Q+	c #B196D4",
"R+	c #E5939B",
"S+	c #E68D8D",
"T+	c #F29090",
"U+	c #FF7B7B",
"V+	c #FF5656",
"W+	c #FF4646",
"X+	c #FF4242",
"Y+	c #FF3E3E",
"Z+	c #FF3A3A",
"`+	c #FF3636",
" @	c #FF3131",
".@	c #FF2D2D",
"+@	c #FF2929",
"@@	c #FF2525",
"#@	c #FF2121",
"$@	c #F81D1D",
"%@	c #D41818",
"&@	c #F8F8FF",
"*@	c #D8D7FF",
"=@	c #CFCFFF",
"-@	c #C7C7FF",
";@	c #AFAFFF",
">@	c #A7A7FF",
",@	c #9B9AF7",
"'@	c #BE88BF",
")@	c #E98586",
"!@	c #E67F7F",
"~@	c #F98686",
"{@	c #FF7070",
"]@	c #FF6C6C",
"^@	c #FF504F",
"/@	c #FF4B4B",
"(@	c #FF3737",
"_@	c #FF3333",
":@	c #FF2F2F",
"<@	c #FF2B2B",
"[@	c #FF2626",
"}@	c #FF2222",
"|@	c #FF1E1E",
"1@	c #FF1A1A",
"2@	c #FF1616",
"3@	c #FF1212",
"4@	c #EF1010",
"5@	c #E6E7E7",
"6@	c #DFDFFF",
"7@	c #D7D7FF",
"8@	c #AEAFFF",
"9@	c #A6A6FF",
"0@	c #9E9EFF",
"a@	c #9696FF",
"b@	c #8E86EC",
"c@	c #CB79A6",
"d@	c #EA7777",
"e@	c #E67272",
"f@	c #FE7A7A",
"g@	c #FF696A",
"h@	c #FF6565",
"i@	c #FF4444",
"j@	c #FF4040",
"k@	c #FF2C2C",
"l@	c #FF2828",
"m@	c #FF2424",
"n@	c #FF1F20",
"o@	c #FF1B1B",
"p@	c #FF1717",
"q@	c #FF1313",
"r@	c #FF0F0F",
"s@	c #FD0C0C",
"t@	c #E60C0C",
"u@	c #D30D0D",
"v@	c #E6E6E7",
"w@	c #F0EFFF",
"x@	c #E7E7FF",
"y@	c #BFBEFF",
"z@	c #B6B6FF",
"A@	c #AEAEFF",
"B@	c #8E8EFF",
"C@	c #8585FF",
"D@	c #9072DA",
"E@	c #DC6E8D",
"F@	c #E66868",
"G@	c #EB6767",
"H@	c #FF5E5F",
"I@	c #FF5A5A",
"J@	c #FF3939",
"K@	c #FF3535",
"L@	c #FF1D1D",
"M@	c #FF1919",
"N@	c #FF1515",
"O@	c #FF1010",
"P@	c #FF0C0C",
"Q@	c #EB0D0C",
"R@	c #E80909",
"S@	c #E30909",
"T@	c #F7F7FF",
"U@	c #EFEFFF",
"V@	c #CFCEFF",
"W@	c #C6C6FF",
"X@	c #BEBEFF",
"Y@	c #9596FF",
"Z@	c #8D8DFF",
"`@	c #7D7DFF",
" #	c #7373FA",
".#	c #9F62C6",
"+#	c #E6606E",
"@#	c #E65A5A",
"##	c #F25B5B",
"$#	c #FF5453",
"%#	c #FF4F4F",
"&#	c #FF2E2F",
"*#	c #FF2A2A",
"=#	c #FF0E0E",
"-#	c #F00D0C",
";#	c #E60B0B",
">#	c #E80808",
",#	c #D6D6FF",
"'#	c #CECEFF",
")#	c #A5A5FF",
"!#	c #9D9DFF",
"~#	c #9595FF",
"{#	c #7474FF",
"]#	c #6C6CFF",
"^#	c #6761F3",
"/#	c #B554AD",
"(#	c #EA5254",
"_#	c #E64D4D",
":#	c #F94F4F",
"<#	c #FF4848",
"[#	c #FF2324",
"}#	c #FF1F1F",
"|#	c #F70C0C",
"1#	c #EC0707",
"2#	c #D10C0C",
"3#	c #E6E7FF",
"4#	c #DEDEFF",
"5#	c #ADADFF",
"6#	c #8584FF",
"7#	c #7C7CFF",
"8#	c #6464FF",
"9#	c #5C5CFF",
"0#	c #6B4FE6",
"a#	c #CA478C",
"b#	c #EA4444",
"c#	c #E84040",
"d#	c #FF4141",
"e#	c #FF3D3D",
"f#	c #FF1819",
"g#	c #FF1414",
"h#	c #FD0D0D",
"i#	c #E60D0D",
"j#	c #EA0909",
"k#	c #DC0A0A",
"l#	c #F7F6FF",
"m#	c #EEEEFF",
"n#	c #E6E6FF",
"o#	c #C6C5FF",
"p#	c #BDBDFF",
"q#	c #B5B5FF",
"r#	c #8484FF",
"s#	c #5C5BFF",
"t#	c #5353FF",
"u#	c #4B4BFF",
"v#	c #803ED1",
"w#	c #DC3A69",
"x#	c #E63535",
"y#	c #EE3434",
"z#	c #FF3232",
"A#	c #FF2E2E",
"B#	c #FF0D0D",
"C#	c #EC0D0D",
"D#	c #E80A0A",
"E#	c #E50909",
"F#	c #F6F6FF",
"G#	c #CDCEFF",
"H#	c #C5C5FF",
"I#	c #9D9CFF",
"J#	c #9494FF",
"K#	c #8C8CFF",
"L#	c #6B6CFF",
"M#	c #6363FF",
"N#	c #5B5BFF",
"O#	c #4343FF",
"P#	c #393AFA",
"Q#	c #9B30BA",
"R#	c #E72D42",
"S#	c #E62828",
"T#	c #F52726",
"U#	c #FF2323",
"V#	c #F30D0D",
"W#	c #E90808",
"X#	c #E5E5E7",
"Y#	c #DDDDFF",
"Z#	c #D5D5FF",
"`#	c #CDCDFF",
" $	c #A4A4FF",
".$	c #9C9CFF",
"+$	c #7373FF",
"@$	c #6B6BFF",
"#$	c #4242FF",
"$$	c #3A3AFF",
"%$	c #3232FF",
"&$	c #3A29F0",
"*$	c #B7239D",
"=$	c #EB1F1F",
"-$	c #E61C1C",
";$	c #FA1818",
">$	c #FA0D0D",
",$	c #D40C0C",
"'$	c #EDEEFF",
")$	c #E5E5FF",
"!$	c #B4B4FF",
"~$	c #ACACFF",
"{$	c #8384FF",
"]$	c #7B7BFF",
"^$	c #5352FF",
"/$	c #4A4AFF",
"($	c #2A2AFF",
"_$	c #2222FF",
":$	c #561AE1",
"<$	c #CF1676",
"[$	c #EB1313",
"}$	c #E81010",
"|$	c #E70E0E",
"1$	c #E90A0A",
"2$	c #DE0B0A",
"3$	c #F5F5FF",
"4$	c #EDEDFF",
"5$	c #C4C4FF",
"6$	c #BCBCFF",
"7$	c #9393FF",
"8$	c #8B8BFF",
"9$	c #8383FF",
"0$	c #5A5AFF",
"a$	c #5252FF",
"b$	c #2929FF",
"c$	c #2121FF",
"d$	c #1919FF",
"e$	c #1111FE",
"f$	c #7D0ECA",
"g$	c #CB0F50",
"h$	c #D50B44",
"i$	c #E5E5EF",
"j$	c #D4D4FF",
"k$	c #CCCCFF",
"l$	c #9B9BFF",
"m$	c #6A6AFF",
"n$	c #6262FF",
"o$	c #3131FF",
"p$	c #1111FF",
"q$	c #0909FF",
"r$	c #0707E8",
"s$	c #0809DC",
"t$	c #C4C4D4",
"u$	c #DEDEF8",
"v$	c #DCDCFF",
"w$	c #ABABFF",
"x$	c #A3A3FF",
"y$	c #7A7AFF",
"z$	c #7272FF",
"A$	c #4141FF",
"B$	c #3939FF",
"C$	c #1011FF",
"D$	c #0808FF",
"E$	c #0707EB",
"F$	c #0808E1",
"G$	c #BFBFDE",
"H$	c #D1D1FC",
"I$	c #BBBBFF",
"J$	c #B3B3FF",
"K$	c #8B8AFF",
"L$	c #8282FF",
"M$	c #5152FF",
"N$	c #4949FF",
"O$	c #1818FF",
"P$	c #1010FF",
"Q$	c #0606EB",
"R$	c #B9B9E8",
"S$	c #C3C3FF",
"T$	c #9292FF",
"U$	c #8A8AFF",
"V$	c #6161FF",
"W$	c #5959FF",
"X$	c #5151FF",
"Y$	c #2828FF",
"Z$	c #2020FF",
"`$	c #9797C8",
" %	c #B1B0F1",
".%	c #A2A2FF",
"+%	c #9A9AFF",
"@%	c #7171FF",
"#%	c #6969FF",
"$%	c #3838FF",
"%%	c #3030FF",
"&%	c #0707FF",
"*%	c #9595D7",
"=%	c #A7A7FA",
"-%	c #8182FF",
";%	c #7979FF",
">%	c #4848FF",
",%	c #4040FF",
"'%	c #0F0FFF",
")%	c #8D8DE0",
"!%	c #9999FE",
"~%	c #9192FF",
"{%	c #8989FF",
"]%	c #8181FF",
"^%	c #5858FF",
"/%	c #5050FF",
"(%	c #1F1FFF",
"_%	c #1717FF",
":%	c #8686EC",
"<%	c #6868FF",
"[%	c #6060FF",
"}%	c #2F2FFF",
"|%	c #2727FF",
"1%	c #0607FF",
"2%	c #6C6CCC",
"3%	c #7A7AF3",
"4%	c #7878FF",
"5%	c #7070FF",
"6%	c #3F3FFF",
"7%	c #3737FF",
"8%	c #0606FF",
"9%	c #6565D9",
"0%	c #6E6EFB",
"a%	c #4F50FF",
"b%	c #4747FF",
"c%	c #1616FF",
"d%	c #0E0EFF",
"e%	c #5C5CE3",
"f%	c #5F5FFF",
"g%	c #5757FF",
"h%	c #4F4FFF",
"i%	c #2626FF",
"j%	c #1E1EFF",
"k%	c #5151EF",
"l%	c #3636FF",
"m%	c #2E2EFF",
"n%	c #0505FF",
"o%	c #4040D2",
"p%	c #4343F4",
"q%	c #3E3EFF",
"r%	c #0D0DFF",
"s%	c #3636DD",
"t%	c #3535FC",
"u%	c #1D1DFF",
"v%	c #1515FF",
"w%	c #2A29E6",
"x%	c #2525FF",
"y%	c #0505EB",
"z%	c #1C1CF0",
"A%	c #0404FF",
"B%	c #1516D6",
"C%	c #0D0DF6",
"D%	c #0B0BDE",
"E%	c #0606EA",
"                                                                                                ",
"                            . + @ #                                                             ",
"                        $ % & * = - ; >                                                         ",
"                      , ' ) ! ~ { ] ^ / (                                                       ",
"                  _ : & < [ } | 1 2 3 4 5 6 7                                                   ",
"              8 9 & 0 a - b c d e f g h i j k l m                                               ",
"          n o ' ) ! ~ p ] ^ / q r s t u v w x y z A B                                           ",
"        C ' & < [ } | 1 D 3 4 5 6 E F G H I J K L M N O                                         ",
"    P + & 0 a - b c d e f Q h i j k R S T U V W X Y Z `  ...                                    ",
"+.@.' * ! #.p ] ^ / q r s t $.%.w x y z &.*.=.-.;.>.,.'.).!.~.{.                                ",
"].^./.[ } | (.D 3 4 5 6 E F _.:.I J K L M N <.[.}.|.1.2.3.4.5.6.7.8.                            ",
"9.0.a.b.c.d e d.Q h i j k R S e.f.V W X Y Z `  .g.h.i.j.k.l.m.n.o.p.q.                          ",
"r.s.t.u.v.w.g x.y.$.%.w x y z &.z.A.-.;.>.,.'.).!.B.C.D.E.F.G.H.I.J.K.L.M.                      ",
"r.s.N.O.P.Q.R.S.T._.:.I J K L M N U.V.}.|.1.2.3.4.5.W.X.Y.Z.`. +.+++@+#+$+%+&+                  ",
"r.*+N.=+-+;+>+,+'+)+e.f.V W X Y Z !+~+g.h.i.j.k.l.m.{+]+p.^+/+(+_+:+<+[+}+|+1+2+3+              ",
"r.*+N.=+4+5+6+7+8+9+0+a+A.-.;.>.,.'.).b+B.C.D.E.F.G.H.I.c+d+e+f+g+h+i+j+k+l+m+n+o+p+            ",
"r.*+N.q+r+5+6+s+t+u+v+w+x+V.}.|.1.2.3.4.y+W.X.Y.Z.`. +.+++z+#+$+A+B+C+D+E+F+G+H+I+J+K+L+        ",
"r.*+M+q+r+5+6+s+N+O+P+Q+R+S+T+h.i.j.k.l.m.U+]+p.^+/+(+_+:+<+V+}+|+1+W+X+Y+Z+`+ @.@+@@@#@$@%@    ",
"r.&@M+q+r+*@=@-@N+O+;@>@,@'@)@!@~@D.E.F.G.H.{@]@d+e+f+g+h+i+^@/@l+m+n+o+(@_@:@<@[@}@|@1@2@3@4@  ",
"5@&@M+q+6@7@=@-@N+O+8@9@0@a@b@c@d@e@f@Z.`. +g@h@z+#+$+A+B+C+D+i@j@G+H+I+J+k@l@m@n@o@p@q@r@s@t@u@",
"v@&@w@x@6@7@=@-@y@z@A@9@0@a@B@C@D@E@F@G@/+(+_+H@I@V+}+|+1+W+X+Y+J@K@ @.@+@@@#@L@M@N@O@P@Q@R@S@  ",
"v@T@U@x@6@7@V@W@X@z@A@9@0@Y@Z@C@`@ #.#+#@###g+h+$#%#/@l+m+n+o+(@_@&#*#[@}@|@1@2@3@=#-#;#>#      ",
"v@T@U@x@6@,#'#W@X@z@A@)#!#~#Z@C@`@{#]#^#/#(#_#:#C+<#i@j@G+H+I+J+k@l@[#}#o@p@q@r@|#t@1#2#        ",
"v@T@U@3#4#,#'#W@X@z@5#)#!#~#Z@6#7#{#]#8#9#0#a#b#c#d#e#J@K@ @.@+@@@#@L@f#g#O@h#i#j#k#            ",
"v@l#m#n#4#,#'#o#p#q#5#)#!#~#Z@r#7#{#]#8#s#t#u#v#w#x#y#z#A#*#[@}@|@1@2@3@B#C#D#E#                ",
"v@F#m#n#4#,#G#H#p#q#5#)#I#J#K#r#7#{#L#M#N#t#u#O#P#Q#R#S#T#U#}#o@p@q@r@V#t@W#                    ",
"X#F#m#n#Y#Z#`#H#p#q#5# $.$J#K#r#7#+$@$M#N#t#u##$$$%$&$*$=$-$;$g#O@>$i#j#,$                      ",
"X#F#'$)$Y#Z#`#H#p#!$~$ $.$J#K#{$]$+$@$M#N#^$/$#$$$%$($_$:$<$[$}$|$1$2$                          ",
"X#3$4$)$Y#Z#`#5$6$!$~$ $.$7$8$9$]$+$@$M#0$a$/$#$$$%$b$c$d$e$f$g$h$                              ",
"  i$4$)$Y#j$k$5$6$!$~$ $l$7$8$9$]$+$m$n$0$a$/$#$$$o$b$c$d$p$q$r$s$                              ",
"    t$u$v$j$k$5$6$!$w$x$l$7$8$9$y$z$m$n$0$a$/$A$B$o$b$c$d$C$D$E$F$                              ",
"        G$H$k$5$I$J$w$x$l$7$K$L$y$z$m$n$0$M$N$A$B$o$b$c$O$P$D$Q$F$                              ",
"            R$S$I$J$w$x$l$T$U$L$y$z$m$V$W$X$N$A$B$o$Y$Z$O$P$D$Q$F$                              ",
"              `$ %J$w$.%+%T$U$L$y$@%#%V$W$X$N$A$$%%%Y$Z$O$P$&%Q$F$                              ",
"                  *%=%.%+%T$U$-%;%@%#%V$W$X$>%,%$%%%Y$Z$O$'%&%Q$F$                              ",
"                      )%!%~%{%]%;%@%#%V$^%/%>%,%$%%%Y$(%_%'%&%Q$F$                              ",
"                          :%{%]%;%@%<%[%^%/%>%,%$%}%|%(%_%'%1%Q$F$                              ",
"                            2%3%4%5%<%[%^%/%>%6%7%}%|%(%_%'%8%Q$F$                              ",
"                                9%0%<%[%^%a%b%6%7%}%|%(%c%d%8%Q$F$                              ",
"                                    e%f%g%h%b%6%7%}%i%j%c%d%8%Q$F$                              ",
"                                        k%h%b%6%l%m%i%j%c%d%n%Q$F$                              ",
"                                          o%p%q%l%m%i%j%c%r%n%Q$F$                              ",
"                                              s%t%m%i%u%v%r%n%Q$F$                              ",
"                                                  w%x%u%v%r%n%y%F$                              ",
"                                                      z%v%r%A%y%F$                              ",
"                                                        B%C%A%y%F$                              ",
"                                                            D%E%F$                              ",
"                                                                                                "};
