/* XPM */
static char * panelXYFace_xpm[] = {
"48 48 329 2",
"  	c None",
". 	c #0405FF",
"+ 	c #0000FF",
"@ 	c #1818FF",
"# 	c #0E0EFF",
"$ 	c #0505FF",
"% 	c #2222FF",
"& 	c #3434FF",
"* 	c #2B2BFF",
"= 	c #2221FF",
"- 	c #4747FF",
"; 	c #3E3EFF",
"> 	c #3534FF",
", 	c #2A2AFF",
"' 	c #2121FF",
") 	c #0E0FFF",
"! 	c #5453FF",
"~ 	c #4748FF",
"{ 	c #3435FF",
"] 	c #1817FF",
"^ 	c #6667FF",
"/ 	c #5D5DFF",
"( 	c #5151FF",
"_ 	c #4847FF",
": 	c #797AFF",
"< 	c #7071FF",
"[ 	c #3535FF",
"} 	c #2A2BFF",
"| 	c #1718FF",
"1 	c #8D8DFF",
"2 	c #8383FF",
"3 	c #7A79FF",
"4 	c #7070FF",
"5 	c #5B5AFF",
"6 	c #0F0FFF",
"7 	c #9696FF",
"8 	c #8D8CFF",
"9 	c #7A7AFF",
"0 	c #6767FF",
"a 	c #5B5BFF",
"b 	c #3D3EFF",
"c 	c #A9AAFF",
"d 	c #9F9FFF",
"e 	c #8C8DFF",
"f 	c #6564FF",
"g 	c #0F0EFF",
"h 	c #0404FF",
"i 	c #BCBCFF",
"j 	c #B3B3FF",
"k 	c #A0A0FF",
"l 	c #9697FF",
"m 	c #6464FF",
"n 	c #2122FF",
"o 	c #C6C5FF",
"p 	c #B3B2FF",
"q 	c #AAA9FF",
"r 	c #A09FFF",
"s 	c #6E6EFF",
"t 	c #6465FF",
"u 	c #5A5BFF",
"v 	c #D9D9FF",
"w 	c #CFD0FF",
"x 	c #C6C6FF",
"y 	c #A9A9FF",
"z 	c #6D6EFF",
"A 	c #5A5AFF",
"B 	c #ECECFF",
"C 	c #E3E3FF",
"D 	c #CFCFFF",
"E 	c #B2B3FF",
"F 	c #9FA0FF",
"G 	c #8384FF",
"H 	c #7777FF",
"I 	c #6D6DFF",
"J 	c #3E3DFF",
"K 	c #0504FF",
"L 	c #FFFFFF",
"M 	c #F6F5FF",
"N 	c #E3E2FF",
"O 	c #C5C6FF",
"P 	c #BCBDFF",
"Q 	c #7778FF",
"R 	c #E2E3FF",
"S 	c #D8D9FF",
"T 	c #D0D0FF",
"U 	c #8081FF",
"V 	c #4848FF",
"W 	c #1717FF",
"X 	c #D4009F",
"Y 	c #F5F5FF",
"Z 	c #E2E2FF",
"` 	c #BDBDFF",
" .	c #8181FF",
"..	c #FF0707",
"+.	c #F5F6FF",
"@.	c #8A8AFF",
"#.	c #FF191A",
"$.	c #FF1011",
"%.	c #D4009E",
"&.	c #F6F6FF",
"*.	c #EBECFF",
"=.	c #9796FF",
"-.	c #6E6DFF",
";.	c #FF2B2C",
">.	c #FF2524",
",.	c #FF1C1C",
"'.	c #FF1213",
").	c #FF090A",
"!.	c #C5C5FF",
"~.	c #9494FF",
"{.	c #8A8BFF",
"].	c #FF3737",
"^.	c #FF2E2E",
"/.	c #FF2425",
"(.	c #FF1B1B",
"_.	c #FF1212",
":.	c #FF0A09",
"<.	c #9394FF",
"[.	c #7877FF",
"}.	c #FF4A4A",
"|.	c #FF4040",
"1.	c #FF2E2D",
"2.	c #FF2525",
"3.	c #FF1B1C",
"4.	c #FF0909",
"5.	c #D0CFFF",
"6.	c #9D9DFF",
"7.	c #9493FF",
"8.	c #8180FF",
"9.	c #FF5B5C",
"0.	c #FF5353",
"a.	c #FF494A",
"b.	c #8B8AFF",
"c.	c #8080FF",
"d.	c #E76074",
"e.	c #FF5C5C",
"f.	c #FF5252",
"g.	c #FF2424",
"h.	c #FF1C1B",
"i.	c #A6A7FF",
"j.	c #FF6E6F",
"k.	c #FF6565",
"l.	c #BDBCFF",
"m.	c #FD8080",
"n.	c #FF7777",
"o.	c #FF6E6E",
"p.	c #FF5253",
"q.	c #FF4949",
"r.	c #FF1415",
"s.	c #FF0B0B",
"t.	c #FF0203",
"u.	c #B1B0FF",
"v.	c #A7A7FF",
"w.	c #FF9D9C",
"x.	c #FF9393",
"y.	c #FF8A8A",
"z.	c #FF8180",
"A.	c #FF7778",
"B.	c #FF6665",
"C.	c #FF5555",
"D.	c #FF4C4C",
"E.	c #FF4242",
"F.	c #FF3939",
"G.	c #FF3030",
"H.	c #FF2727",
"I.	c #FF1E1E",
"J.	c #FF1515",
"K.	c #FF0C0B",
"L.	c #F40258",
"M.	c #FFAFAF",
"N.	c #FFA6A5",
"O.	c #FF8C8C",
"P.	c #FF8383",
"Q.	c #FF7A79",
"R.	c #FF7071",
"S.	c #FF6768",
"T.	c #FF5E5E",
"U.	c #FF4C4B",
"V.	c #FF4243",
"W.	c #FF3031",
"X.	c #FF1D1E",
"Y.	c #FF0B0C",
"Z.	c #FFBABB",
"`.	c #FFB1B1",
" +	c #FFA8A8",
".+	c #FF9F9F",
"++	c #FF9596",
"@+	c #FF8C8D",
"#+	c #FF8382",
"$+	c #FF7A7A",
"%+	c #FF7170",
"&+	c #FF6867",
"*+	c #FF5F5F",
"=+	c #FF4342",
"-+	c #FF393A",
";+	c #FF2827",
">+	c #F40358",
",+	c #FFCCCC",
"'+	c #FFC3C3",
")+	c #FFBBBA",
"!+	c #FFA7A8",
"~+	c #FF9E9F",
"{+	c #FF9595",
"]+	c #FF6767",
"^+	c #FF4343",
"/+	c #FF3130",
"(+	c #FFDEDF",
"_+	c #FFD6D5",
":+	c #FFC4C3",
"<+	c #FFBABA",
"[+	c #FF9695",
"}+	c #FF797A",
"|+	c #FF1E1D",
"1+	c #FF1514",
"2+	c #F0E3E3",
"3+	c #FFE8E8",
"4+	c #FFDFDF",
"5+	c #FFCCCD",
"6+	c #FFA8A7",
"7+	c #FF0E0D",
"8+	c #FF0504",
"9+	c #FFFBFB",
"0+	c #FFF2F1",
"a+	c #FFD6D6",
"b+	c #FFC4C4",
"c+	c #FF5E5F",
"d+	c #FF4B4C",
"e+	c #FF4545",
"f+	c #FF3B3C",
"g+	c #FF3233",
"h+	c #FF2929",
"i+	c #FF2020",
"j+	c #FF1717",
"k+	c #FF0E0E",
"l+	c #FFFAFB",
"m+	c #FFF1F1",
"n+	c #FFD5D5",
"o+	c #FFC3C4",
"p+	c #FFB0B1",
"q+	c #FFA7A7",
"r+	c #FF9E9E",
"s+	c #FF8D8C",
"t+	c #FF8586",
"u+	c #FF7C7C",
"v+	c #FF7373",
"w+	c #FF6A69",
"x+	c #FF6061",
"y+	c #FF5857",
"z+	c #FF4E4E",
"A+	c #FF3333",
"B+	c #FFF1F2",
"C+	c #FFDFDE",
"D+	c #FFBCBD",
"E+	c #FFB3B3",
"F+	c #FFAAAA",
"G+	c #FFA0A1",
"H+	c #FF9897",
"I+	c #FF8F8E",
"J+	c #FF8685",
"K+	c #FF6160",
"L+	c #FF5757",
"M+	c #FF3C3C",
"N+	c #FF2A2A",
"O+	c #FFFDFC",
"P+	c #FFF3F3",
"Q+	c #FFEAEA",
"R+	c #FFE1E2",
"S+	c #FFD8D8",
"T+	c #FFCECE",
"U+	c #FFC6C6",
"V+	c #FFBDBC",
"W+	c #FFB3B4",
"X+	c #FFA1A1",
"Y+	c #FF9898",
"Z+	c #FF8F8F",
"`+	c #FF6969",
" @	c #FF5758",
".@	c #FF3C3B",
"+@	c #FFFDFD",
"@@	c #FFF4F3",
"#@	c #FFEAEB",
"$@	c #FFE1E1",
"%@	c #FFCECF",
"&@	c #FFC6C5",
"*@	c #FFBCBC",
"=@	c #FF8585",
"-@	c #FF6060",
";@	c #FFF3F4",
">@	c #FFCFCE",
",@	c #FFC5C5",
"'@	c #FFB4B3",
")@	c #FF8E8F",
"!@	c #FF6A6A",
"~@	c #FF5858",
"{@	c #FFFCFC",
"]@	c #FFF4F4",
"^@	c #FFCFCF",
"/@	c #FF696A",
"(@	c #FFEBEA",
"_@	c #FFE2E1",
":@	c #FF9797",
"<@	c #FF8E8E",
"[@	c #FFB6B5",
"}@	c #FFACAC",
"|@	c #FFA3A3",
"1@	c #FF9A9A",
"2@	c #FF9190",
"3@	c #FF8887",
"4@	c #FFF6F5",
"5@	c #FFECEC",
"6@	c #FFE4E3",
"7@	c #FFDADA",
"8@	c #FFD1D1",
"9@	c #FFC8C8",
"0@	c #FFBFBE",
"a@	c #FFB6B6",
"b@	c #FFADAC",
"c@	c #FF9A99",
"d@	c #FFF6F6",
"e@	c #FFEDED",
"f@	c #FFDADB",
"g@	c #FFBEBE",
"h@	c #FFB5B5",
"i@	c #FFE3E4",
"j@	c #FFDBDA",
"k@	c #FFBFBF",
"l@	c #FFEDEC",
"m@	c #FFE3E3",
"n@	c #FFE4E4",
"                                                                        . +                     ",
"                                                                    @ # $ +                     ",
"                                                                  % @ # $ +                     ",
"                                                              & * = @ # . +                     ",
"                                                          - ; > , ' @ ) $ +                     ",
"                                                        ! ~ ; { * ' ] ) $ +                     ",
"                                                    ^ / ( _ ; > * % @ # . +                     ",
"                                                : < ^ / ( ~ ; [ } ' | # $ +                     ",
"                                            1 2 3 4 ^ 5 ( ~ ; & * % @ 6 . +                     ",
"                                          7 8 2 9 4 0 a ( - b & , % @ # $ +                     ",
"                                      c d 7 e 2 9 4 f 5 ( ~ ; { * = ] g h +                     ",
"                                  i j c k l 8 2 3 4 m a ( - ; { * n | # $ +                     ",
"                                o i p q r 7 1 2 9 s t u ( ~ ; { * % @ ) . +                     ",
"                            v w x i j y k 7 e 2 9 z m A ( - ; > * ' | # $ +                     ",
"                        B C v D o i E c F 7 1 G H I m 5 ( - J > * % @ # K +                     ",
"                    L M B N v D O P p y F 7 e G Q s m 5 ( - ; & * ' @ # K +                     ",
"                    L M B R S T x P p y k 7 8 U H s m a ( V ; [ * n W ) K X                     ",
"                    L Y B Z S D o ` p q r 7 1  .Q z m u ( ~ ; { * = @ ) ..X                     ",
"                    L +.B R v T o i j c k 7 @. .H I m 5 ( - ; & * ' #.$...%.                    ",
"                    L &.*.N v D o i j q d =.@. .H -.t u ( V ; { ;.>.,.'.).%.                    ",
"                    L Y B N S T !.i p y k ~.{.U Q -.t A ( V ; ].^./.(._.:.%.                    ",
"                    L +.B Z v D o i j y F <.@.U [.I f a ( }.|.].1.2.3.'.4.X                     ",
"                    L &.B Z v 5.x P E c 6.7.@.8.Q -.m 9.0.a.|.].^.2.,.'.).X                     ",
"                    L Y B R v w o i j y 6.<.b.c.Q z d.e.f.}.|.].^.g.h.'.).X                     ",
"                    L +.B Z v w O P j i.6.~.@.c.Q j.k.e.0.}.|.].^.>.(.'.4.X                     ",
"                    L M B Z v w x l.j i.6.~.@.m.n.o.k.e.p.q.|.].^.2.,.r.s.t.                    ",
"                    L Y B C v D x i u.v.w.x.y.z.A.o.B.e.C.D.E.F.G.H.I.J.K.L.                    ",
"                    L Y B C v T O i M.N.w.x.O.P.Q.R.S.T.C.U.V.F.W.H.X.J.Y.L.                    ",
"                    L &.B Z v w O Z.`. +.+++@+#+$+%+&+*+C.D.=+-+G.;+I.r.s.>+                    ",
"                    L Y B C v ,+'+)+`.!+~+{+O.P.$+%+]+T.C.D.^+F./+H.I.J.K.L.                    ",
"                    L +.B (+_+,+:+<+`.!+~+[+O.P.}+R.]+*+C.U.^+F.G.H.|+1+Y.t.                    ",
"                    L 2+3+4+_+5+'+<+`.6+.+{+O.P.$+R.]+T.C.D.V.-+G.H.I.J.7+8+                    ",
"                    9+0+3+4+a+5+b+<+`. +.+[+@+P.$+%+]+c+C.d+e+f+g+h+i+j+k+                      ",
"                    l+m+3+4+n+,+o+<+p+q+r+{+s+t+u+v+w+x+y+z+e+f+A+h+i+j+                        ",
"                    9+B+3+C+a+,+o+D+E+F+G+H+I+J+u+v+w+K+L+z+e+M+g+N+                            ",
"                    O+P+Q+R+S+T+U+V+W+F+X+Y+Z+J+u+v+`+x+ @z+e+.@                                ",
"                    +@@@#@$@S+%@&@*@E+F+X+H+Z+=@u+v+w+-@L+z+                                    ",
"                    O+;@#@$@S+>@,@D+'@F+X+Y+)@J+u+v+!@x+~@                                      ",
"                    {@]@#@$@S+^@U+D+'@F+X+Y+I+=@u+v+/@                                          ",
"                    +@]@(@_@S+^@,@V+E+F+X+:@<@t+u+                                              ",
"                    +@;@Q+$@S+>@U+V+[@}@|@1@2@3@                                                ",
"                    {@4@5@6@7@8@9@0@a@b@|@c@                                                    ",
"                    L d@e@6@f@8@9@g@h@b@                                                        ",
"                    L d@e@i@j@8@9@k@                                                            ",
"                    L d@l@m@j@8@9@                                                              ",
"                    L d@e@n@f@                                                                  ",
"                    L 4@l@                                                                      ",
"                    L                                                                           "};
