/* XPM */
static char * panelCopyXY_xpm[] = {
"48 48 145 2",
"  	c None",
". 	c #FDFCFE",
"+ 	c #FEFCFF",
"@ 	c #F9EFFD",
"# 	c #F4E2FB",
"$ 	c #F4E2FC",
"% 	c #F5E2FC",
"& 	c #F5E2FB",
"* 	c #EFD5F9",
"= 	c #EFD5FA",
"- 	c #F0D5FA",
"; 	c #F0D5F9",
"> 	c #EED2F9",
", 	c #EED2F8",
"' 	c #EAC8F8",
") 	c #EBC8F8",
"! 	c #EAC5F8",
"~ 	c #EAC4F7",
"{ 	c #E9C5F7",
"] 	c #E9C5F8",
"^ 	c #E9C4F7",
"/ 	c #E6BBF6",
"( 	c #E5BBF6",
"_ 	c #E5B8F6",
": 	c #E4B8F5",
"< 	c #E4B8F6",
"[ 	c #E5B8F5",
"} 	c #E0ABF4",
"| 	c #DFACF3",
"1 	c #DFABF4",
"2 	c #E0ACF4",
"3 	c #DFACF4",
"4 	c #DFABF3",
"5 	c #E0ABF3",
"6 	c #DA9EF2",
"7 	c #DA9FF2",
"8 	c #DB9FF2",
"9 	c #DB9EF2",
"0 	c #DB9EF3",
"a 	c #D691F1",
"b 	c #D791F0",
"c 	c #D692F0",
"d 	c #D691F0",
"e 	c #D792F0",
"f 	c #D792F1",
"g 	c #D184EF",
"h 	c #D184EE",
"i 	c #D284EF",
"j 	c #D285EF",
"k 	c #D185EF",
"l 	c #D285EE",
"m 	c #D284EE",
"n 	c #D082EE",
"o 	c #D081EF",
"p 	c #D081EE",
"q 	c #D181EE",
"r 	c #CD78ED",
"s 	c #CC77ED",
"t 	c #CC78ED",
"u 	c #CD77ED",
"v 	c #CD77EC",
"w 	c #CC74ED",
"x 	c #CB75ED",
"y 	c #CB74ED",
"z 	c #CB74EC",
"A 	c #CC74EC",
"B 	c #CC75ED",
"C 	c #C86BEB",
"D 	c #C86AEB",
"E 	c #C76AEB",
"F 	c #C76BEC",
"G 	c #C76BEB",
"H 	c #C86BEC",
"I 	c #C768EA",
"J 	c #C768EB",
"K 	c #C667EB",
"L 	c #C667EA",
"M 	c #C668EB",
"N 	c #C767EA",
"O 	c #C767EB",
"P 	c #C35DEA",
"Q 	c #C35DE9",
"R 	c #C35EE9",
"S 	c #C35EEA",
"T 	c #C25AE9",
"U 	c #C15BE9",
"V 	c #C15AE9",
"W 	c #C25AEA",
"X 	c #BE51E8",
"Y 	c #BE51E7",
"Z 	c #BD4DE7",
"` 	c #BC4EE8",
" .	c #BD4DE8",
"..	c #BD4EE8",
"+.	c #BC4EE7",
"@.	c #BD4EE7",
"#.	c #BC4DE8",
"$.	c #BC4DE7",
"%.	c #B841E5",
"&.	c #B840E5",
"*.	c #B841E6",
"=.	c #B840E6",
"-.	c #B940E6",
";.	c #B73DE5",
">.	c #B334E4",
",.	c #B434E3",
"'.	c #B434E4",
").	c #B333E3",
"!.	c #B333E4",
"~.	c #B230E3",
"{.	c #B231E4",
"].	c #B230E4",
"^.	c #AE27E2",
"/.	c #AF27E3",
"(.	c #AF27E2",
"_.	c #AE27E3",
":.	c #AE26E2",
"<.	c #AF26E2",
"[.	c #AD23E2",
"}.	c #AD24E1",
"|.	c #AD24E2",
"1.	c #AE23E2",
"2.	c #AD23E1",
"3.	c #AA1AE0",
"4.	c #AA1AE1",
"5.	c #AA19E1",
"6.	c #A91AE1",
"7.	c #A91AE0",
"8.	c #AA19E0",
"9.	c #A917E0",
"0.	c #A817E0",
"a.	c #A916E0",
"b.	c #A816E0",
"c.	c #A50DDF",
"d.	c #A40DDF",
"e.	c #A50DDE",
"f.	c #A30ADF",
"g.	c #A30ADE",
"h.	c #A309DF",
"i.	c #A309DE",
"j.	c #A40ADE",
"k.	c #A409DE",
"l.	c #A40ADF",
"m.	c #A409DF",
"n.	c #A000DD",
"                                                                                                ",
"                                                                                                ",
"                                                                                                ",
"                                                                                                ",
"                                                                                                ",
"                                                                                                ",
"                                                                                                ",
"                                                                                                ",
"                                                                                                ",
"                              . +                                                               ",
"                            @ @ @ @                                                             ",
"                        # $ # # # % & #                                                         ",
"                    * = * - ; - = * * > > ,                                                     ",
"                  ' ) ' ' ' ! ~ { { ] { ^ { ] {                                                 ",
"              / ( _ _ _ _ : < : [ _ : : _ [ : [ _                                               ",
"          } | 1 1 } } 2 3 } 3 1 1 1 } } } } 1 4 } 1 5                                           ",
"      6 7 8 7 6 9 9 9 9 0 8 9 9 9 9 8 9 9 9 9 9 9 8 9 9 9                                       ",
"    a b c a a c d d c d d c d e d d a c d a f c c d c c c c                                     ",
"g h i j h h k k h l h h k j g g j j k g g g m j k k g n o o p q                                 ",
"r r s t t r u r t u u t r r t s r t v t s s w x y y z y z w w A B y                             ",
"    C D C E E F G D G G C D D H D I J K J L L I M N K J J K M O K K O L                         ",
"      P Q R R R R S R Q T U T U T U T T V V T V T W V T U U T V T T U T T                       ",
"          X Y Y Z `  . ... . .Z Z ....+.`  .Z Z +.@.@.Z Z @.Z #.Z Z Z @.Z $.Z                   ",
"              %.&.*.=.=.=.&.%.%.=.&.=.%.=.=.=.*.=.%.=.-.&.=.*.*.=.=.&.*.=.%.=.&.;.              ",
"                >.,.>.>.'.).>.!.>.!.'.>.!.>.>.!.!.>.!.>.>.!.>.!.>.!.>.~.{.~.{.~.].~.~.          ",
"                    ^.^./.(.(.^.^.(.(._.:.^.^.:.(.(./._.<.(.[.[.}.[.|.|.[.1.1.2.|.|.[.[.        ",
"                        3.4.4.5.6.7.3.6.3.6.3.4.8.9.0.a.9.b.b.0.0.0.0.0.0.a.0.0.a.9.a.9.9.9.    ",
"                            c.d.c.e.d.c.f.g.h.i.j.f.k.j.j.h.g.j.g.j.f.l.l.k.g.j.i.l.h.k.k.j.m.g.",
"                              n.n.n.n.n.n.n.n.n.n.n.n.n.n.n.n.n.n.n.n.n.n.n.n.n.n.n.n.n.n.n.n.n.",
"                                  n.n.n.n.n.n.n.n.n.n.n.n.n.n.n.n.n.n.n.n.n.n.n.n.n.n.n.n.n.n.  ",
"                                      n.n.n.n.n.n.n.n.n.n.n.n.n.n.n.n.n.n.n.n.n.n.n.n.n.n.      ",
"                                          n.n.n.n.n.n.n.n.n.n.n.n.n.n.n.n.n.n.n.n.n.n.          ",
"                                            n.n.n.n.n.n.n.n.n.n.n.n.n.n.n.n.n.n.n.              ",
"                                                n.n.n.n.n.n.n.n.n.n.n.n.n.n.n.n.                ",
"                                                    n.n.n.n.n.n.n.n.n.n.n.n.                    ",
"                                                        n.n.n.n.n.n.n.n.                        ",
"                                                          n.n.n.n.n.n.                          ",
"                                                              n.n.                              ",
"                                                                                                ",
"                                                                                                ",
"                                                                                                ",
"                                                                                                ",
"                                                                                                ",
"                                                                                                ",
"                                                                                                ",
"                                                                                                ",
"                                                                                                ",
"                                                                                                "};
