/* XPM */
static char * panelZYFace_xpm[] = {
"48 48 629 2",
"  	c None",
". 	c #D0D0D0",
"+ 	c #A6A6A6",
"@ 	c #C3C3C3",
"# 	c #E2E2E2",
"$ 	c #E1E1E1",
"% 	c #D4D4D4",
"& 	c #E1DEDE",
"* 	c #E1E1E0",
"= 	c #ECECEC",
"- 	c #FFFFFF",
"; 	c #D9CECE",
"> 	c #E2D9D9",
", 	c #E3DBDB",
"' 	c #FFF9F9",
") 	c #FFFBFB",
"! 	c #FFFDFD",
"~ 	c #E2E1E1",
"{ 	c #CFBCBC",
"] 	c #E5D3D3",
"^ 	c #E0D0D0",
"/ 	c #FAEBEB",
"( 	c #FFF1F1",
"_ 	c #FFF3F3",
": 	c #FFF5F5",
"< 	c #FFF7F7",
"[ 	c #E2DDDD",
"} 	c #B8A1A1",
"| 	c #E4CACA",
"1 	c #E1C9C9",
"2 	c #F0D8D8",
"3 	c #FFE8E8",
"4 	c #FFEAEA",
"5 	c #FFEBEB",
"6 	c #FFEDED",
"7 	c #FFEFEF",
"8 	c #E2D7D8",
"9 	c #E1BEBE",
"0 	c #E2C1C1",
"a 	c #E9C8C8",
"b 	c #FFDEDE",
"c 	c #FFE0E0",
"d 	c #FFE2E2",
"e 	c #FFE4E4",
"f 	c #FFE6E6",
"g 	c #FFECEC",
"h 	c #E2D2D2",
"i 	c #D6ACAC",
"j 	c #E5BCBC",
"k 	c #E2BABA",
"l 	c #FDD2D2",
"m 	c #FFD6D6",
"n 	c #FFD8D8",
"o 	c #FFDADA",
"p 	c #FFDCDC",
"q 	c #E2CDCD",
"r 	c #C89999",
"s 	c #E6B4B3",
"t 	c #E0B0B0",
"u 	c #F7C4C4",
"v 	c #FFCDCD",
"w 	c #FFCFCE",
"x 	c #FFD1D1",
"y 	c #FFD2D2",
"z 	c #FFD4D4",
"A 	c #E2C8C8",
"B 	c #B88888",
"C 	c #D9A3A3",
"D 	c #EFB4B4",
"E 	c #FFC3C3",
"F 	c #FFC5C5",
"G 	c #FFC7C7",
"H 	c #FFC9C9",
"I 	c #FFCBCB",
"J 	c #FFCFCF",
"K 	c #FFD3D3",
"L 	c #FFD5D4",
"M 	c #FFD6D7",
"N 	c #E2C3C3",
"O 	c #DD9F9F",
"P 	c #DDA1A1",
"Q 	c #FFBBBB",
"R 	c #FFBDBD",
"S 	c #FFBFBF",
"T 	c #FFC1C1",
"U 	c #FFD5D5",
"V 	c #E2BEBE",
"W 	c #DD9A9A",
"X 	c #DD9C9C",
"Y 	c #FFB5B5",
"Z 	c #FFB7B7",
"` 	c #FFB9B9",
" .	c #E2B9B9",
"..	c #DD9595",
"+.	c #DD9797",
"@.	c #FFB0B0",
"#.	c #FFB2B2",
"$.	c #FFB4B4",
"%.	c #FFB6B6",
"&.	c #FFB8B8",
"*.	c #FFB9BA",
"=.	c #E2B4B4",
"-.	c #DD9090",
";.	c #DD9292",
">.	c #FFAAAA",
",.	c #FFACAC",
"'.	c #FFAEAE",
").	c #FFBABA",
"!.	c #FFBCBC",
"~.	c #FFBEBE",
"{.	c #FFBFC0",
"].	c #FFC2C1",
"^.	c #E2AFAF",
"/.	c #DD8B8B",
"(.	c #DD8D8D",
"_.	c #FFA4A4",
":.	c #FFA6A6",
"<.	c #FFA8A8",
"[.	c #E2AAAA",
"}.	c #DD8686",
"|.	c #DD8888",
"1.	c #FF9E9F",
"2.	c #FFA0A0",
"3.	c #FFA2A2",
"4.	c #E2A4A4",
"5.	c #DD8181",
"6.	c #DD8383",
"7.	c #FF9999",
"8.	c #FF9B9B",
"9.	c #FF9D9D",
"0.	c #FF9F9F",
"a.	c #FFA1A1",
"b.	c #E29F9F",
"c.	c #3434D9",
"d.	c #3232C0",
"e.	c #DD7C7C",
"f.	c #DD7E7E",
"g.	c #FF9393",
"h.	c #FF9595",
"i.	c #FF9797",
"j.	c #FFA3A3",
"k.	c #FFA5A5",
"l.	c #FFA7A7",
"m.	c #FFA8A9",
"n.	c #E29A9A",
"o.	c #2B2BD3",
"p.	c #3636F9",
"q.	c #3D3DFF",
"r.	c #4343FF",
"s.	c #4141E3",
"t.	c #DD7777",
"u.	c #DD7979",
"v.	c #FF8D8D",
"w.	c #FF8F8F",
"x.	c #FF9191",
"y.	c #E29595",
"z.	c #2222C7",
"A.	c #2B2BF1",
"B.	c #3333FF",
"C.	c #3939FF",
"D.	c #3F3FFF",
"E.	c #4445FF",
"F.	c #4A4AFF",
"G.	c #4F4FFC",
"H.	c #4949D7",
"I.	c #DD7272",
"J.	c #DD7474",
"K.	c #FF8787",
"L.	c #FF8989",
"M.	c #FF8B8B",
"N.	c #E29090",
"O.	c #2121E6",
"P.	c #2828FF",
"Q.	c #2E2EFF",
"R.	c #3434FF",
"S.	c #3A3AFF",
"T.	c #4040FF",
"U.	c #4646FF",
"V.	c #4C4CFF",
"W.	c #5252FF",
"X.	c #5757FF",
"Y.	c #595AF5",
"Z.	c #4F4FCB",
"`.	c #DD6D6D",
" +	c #DD6F6F",
".+	c #FF8282",
"++	c #FF8484",
"@+	c #FF8686",
"#+	c #FF8888",
"$+	c #FF8A89",
"%+	c #FF8C8C",
"&+	c #E28B8B",
"*+	c #1919DD",
"=+	c #1E1EFC",
"-+	c #2424FF",
";+	c #2A2AFF",
">+	c #3030FF",
",+	c #3635FF",
"'+	c #3B3BFF",
")+	c #4141FF",
"!+	c #4747FF",
"~+	c #4D4DFF",
"{+	c #5353FF",
"]+	c #5959FF",
"^+	c #5F5FFF",
"/+	c #6564FF",
"(+	c #6262EB",
"_+	c #DD6868",
":+	c #DD6A6A",
"<+	c #FF7C7C",
"[+	c #FF7E7E",
"}+	c #FF8080",
"|+	c #FF8A8A",
"1+	c #FF8E8D",
"2+	c #FF9090",
"3+	c #FF9291",
"4+	c #E28686",
"5+	c #1313D0",
"6+	c #1414F7",
"7+	c #1919FF",
"8+	c #1F1FFF",
"9+	c #2525FF",
"0+	c #2B2BFF",
"a+	c #3131FF",
"b+	c #3737FF",
"c+	c #4848FF",
"d+	c #4E4EFF",
"e+	c #5454FF",
"f+	c #5A5AFF",
"g+	c #6060FF",
"h+	c #6666FF",
"i+	c #6C6CFF",
"j+	c #7272FF",
"k+	c #6969E0",
"l+	c #DD6363",
"m+	c #DD6565",
"n+	c #FF7676",
"o+	c #FF7878",
"p+	c #FF7A7A",
"q+	c #FF8E8E",
"r+	c #E28181",
"s+	c #1111BE",
"t+	c #0C0CEF",
"u+	c #0F0FFF",
"v+	c #1515FF",
"w+	c #1B1BFF",
"x+	c #2120FF",
"y+	c #2627FF",
"z+	c #2C2CFF",
"A+	c #3232FF",
"B+	c #3838FF",
"C+	c #3E3EFF",
"D+	c #4444FF",
"E+	c #5050FF",
"F+	c #5656FF",
"G+	c #5B5BFF",
"H+	c #6161FF",
"I+	c #6767FF",
"J+	c #6D6DFF",
"K+	c #7373FF",
"L+	c #7979FF",
"M+	c #7C7CFA",
"N+	c #6F6FD6",
"O+	c #DD5E5E",
"P+	c #DD6060",
"Q+	c #FF7071",
"R+	c #FF7372",
"S+	c #FF7474",
"T+	c #E27C7C",
"U+	c #0707E4",
"V+	c #0404FF",
"W+	c #0A0AFF",
"X+	c #1010FF",
"Y+	c #1616FF",
"Z+	c #1C1CFF",
"`+	c #2222FF",
" @	c #3433FF",
".@	c #4545FF",
"+@	c #4B4BFF",
"@@	c #5151FF",
"#@	c #5D5DFF",
"$@	c #6363FF",
"%@	c #6869FF",
"&@	c #6E6EFF",
"*@	c #7474FF",
"=@	c #7A7AFF",
"-@	c #8080FF",
";@	c #8686FF",
">@	c #8585F3",
",@	c #7272C9",
"'@	c #DD5959",
")@	c #DD5B5B",
"!@	c #FF6B6B",
"~@	c #FF6D6D",
"{@	c #FF6F6F",
"]@	c #FF7171",
"^@	c #FF7475",
"/@	c #FF7879",
"(@	c #E27677",
"_@	c #0A0AD9",
":@	c #0101FC",
"<@	c #0101FF",
"[@	c #0606FF",
"}@	c #0C0CFF",
"|@	c #1212FF",
"1@	c #1717FF",
"2@	c #1D1DFF",
"3@	c #2323FF",
"4@	c #2929FF",
"5@	c #2F2FFF",
"6@	c #3535FF",
"7@	c #4C4DFF",
"8@	c #5858FF",
"9@	c #5E5EFF",
"0@	c #6464FF",
"a@	c #6A6AFF",
"b@	c #7070FF",
"c@	c #7676FF",
"d@	c #7C7CFF",
"e@	c #8281FF",
"f@	c #8787FF",
"g@	c #8D8DFF",
"h@	c #9393FF",
"i@	c #8B8BE9",
"j@	c #DB5454",
"k@	c #DD5656",
"l@	c #FF6565",
"m@	c #FF6767",
"n@	c #FF6969",
"o@	c #FF7373",
"p@	c #FF7575",
"q@	c #FF7777",
"r@	c #E27172",
"s@	c #0E0EC3",
"t@	c #0505ED",
"u@	c #0000FF",
"v@	c #0707FF",
"w@	c #0D0DFF",
"x@	c #1313FF",
"y@	c #2524FF",
"z@	c #3636FF",
"A@	c #3C3CFF",
"B@	c #4242FF",
"C@	c #5453FF",
"D@	c #5F60FF",
"E@	c #6565FF",
"F@	c #6B6BFF",
"G@	c #7171FF",
"H@	c #7777FF",
"I@	c #7D7DFF",
"J@	c #8383FF",
"K@	c #8989FF",
"L@	c #8F8FFF",
"M@	c #9494FF",
"N@	c #9A9AFF",
"O@	c #A0A0FF",
"P@	c #D45F7B",
"Q@	c #DD5151",
"R@	c #FF5F5F",
"S@	c #FF6161",
"T@	c #FF6363",
"U@	c #FF7979",
"V@	c #E26C6C",
"W@	c #0F0FBF",
"X@	c #0808E2",
"Y@	c #0808E1",
"Z@	c #0505F6",
"`@	c #0808FF",
" #	c #0E0EFF",
".#	c #1414FF",
"+#	c #1A1AFF",
"@#	c #2020FF",
"##	c #2626FF",
"$#	c #3738FF",
"%#	c #4949FF",
"&#	c #4F4FFF",
"*#	c #5555FF",
"=#	c #6D6CFF",
"-#	c #7878FF",
";#	c #7E7EFF",
">#	c #8484FF",
",#	c #8A8AFF",
"'#	c #9090FF",
")#	c #9696FF",
"!#	c #9C9CFF",
"~#	c #A2A2FF",
"{#	c #D56080",
"]#	c #DD4C4C",
"^#	c #FF5A5A",
"/#	c #FF5B5B",
"(#	c #FF5D5D",
"_#	c #E26767",
":#	c #0B0BD3",
"<#	c #0A0AE5",
"[#	c #0F0FE2",
"}#	c #1010FC",
"|#	c #2121FF",
"1#	c #2727FF",
"2#	c #2D2DFF",
"3#	c #4A4BFF",
"4#	c #5C5CFF",
"5#	c #6262FF",
"6#	c #6868FF",
"7#	c #8585FF",
"8#	c #8B8BFF",
"9#	c #9191FF",
"0#	c #9797FF",
"a#	c #9D9DFF",
"b#	c #A3A3FF",
"c#	c #D55E7E",
"d#	c #DD4747",
"e#	c #FF5454",
"f#	c #FF5656",
"g#	c #FF5858",
"h#	c #FF5C5C",
"i#	c #FF5D5E",
"j#	c #FF6060",
"k#	c #E26262",
"l#	c #1010DC",
"m#	c #1313E4",
"n#	c #1717E6",
"o#	c #2829FF",
"p#	c #5D5EFF",
"q#	c #6969FF",
"r#	c #6F6FFF",
"s#	c #7575FF",
"t#	c #7B7BFF",
"u#	c #8181FF",
"v#	c #9898FF",
"w#	c #9E9EFF",
"x#	c #A4A4FF",
"y#	c #D55C7C",
"z#	c #DD4343",
"A#	c #FF4E4E",
"B#	c #FF5050",
"C#	c #FF5252",
"D#	c #FF5E5E",
"E#	c #FF6262",
"F#	c #FF6364",
"G#	c #FF6566",
"H#	c #E25D5D",
"I#	c #1819E4",
"J#	c #1D1DE0",
"K#	c #2323EF",
"L#	c #8282FF",
"M#	c #8888FF",
"N#	c #8E8EFF",
"O#	c #A6A6FF",
"P#	c #D6597B",
"Q#	c #DD3E3E",
"R#	c #FF4848",
"S#	c #FF4A4A",
"T#	c #FF4C4C",
"U#	c #E25858",
"V#	c #1D1DCA",
"W#	c #2323E5",
"X#	c #2727DF",
"Y#	c #3030F7",
"Z#	c #8384FF",
"`#	c #9595FF",
" $	c #9B9BFF",
".$	c #A1A1FF",
"+$	c #A7A7FF",
"@$	c #D65779",
"#$	c #DD3939",
"$$	c #FF4342",
"%$	c #FF4544",
"&$	c #FF4647",
"*$	c #E25353",
"=$	c #2727D6",
"-$	c #2E2EE6",
";$	c #3232E2",
">$	c #3E3EFD",
",$	c #6261FF",
"'$	c #7F7FFF",
")$	c #9697FF",
"!$	c #A8A8FF",
"~$	c #D65677",
"{$	c #DD3434",
"]$	c #FF3D3D",
"^$	c #FF3F3F",
"/$	c #FF4141",
"($	c #FF4343",
"_$	c #FF4545",
":$	c #FF4747",
"<$	c #FF4849",
"[$	c #E24E4E",
"}$	c #3333DE",
"|$	c #3939E3",
"1$	c #3F3FE8",
"2$	c #8C8CFF",
"3$	c #9292FF",
"4$	c #AAAAFF",
"5$	c #D65476",
"6$	c #DD2F2F",
"7$	c #FF3737",
"8$	c #FF3939",
"9$	c #FF3B3B",
"0$	c #FF4949",
"a$	c #FF4B4B",
"b$	c #FF4D4C",
"c$	c #E24949",
"d$	c #4040E5",
"e$	c #4343E0",
"f$	c #4E4EF1",
"g$	c #9999FF",
"h$	c #9F9FFF",
"i$	c #A5A5FF",
"j$	c #ABABFF",
"k$	c #D65375",
"l$	c #DD2B2B",
"m$	c #FF3131",
"n$	c #FF3333",
"o$	c #FF3535",
"p$	c #E24444",
"q$	c #3F3FCD",
"r$	c #4B4BE5",
"s$	c #4F4FDF",
"t$	c #5D5DF9",
"u$	c #6665FF",
"v$	c #ACACFF",
"w$	c #D65274",
"x$	c #DD2626",
"y$	c #FF2C2C",
"z$	c #FF2E2D",
"A$	c #FF2F2F",
"B$	c #E23F3F",
"C$	c #4E4ED9",
"D$	c #5757E4",
"E$	c #5C5CE4",
"F$	c #7879FF",
"G$	c #AEAEFF",
"H$	c #D65173",
"I$	c #DD2121",
"J$	c #FF2626",
"K$	c #FF2828",
"L$	c #FF2A2A",
"M$	c #FF2E2E",
"N$	c #FF3030",
"O$	c #FF3334",
"P$	c #DA3838",
"Q$	c #5B5BE0",
"R$	c #6161E0",
"S$	c #6B6BEB",
"T$	c #A9A9FF",
"U$	c #AFAFFF",
"V$	c #D75072",
"W$	c #DD1D1D",
"X$	c #FF2020",
"Y$	c #FF2222",
"Z$	c #FF2424",
"`$	c #FF3232",
" %	c #FF3434",
".%	c #FF3636",
"+%	c #F53636",
"@%	c #CB3030",
"#%	c #5555C1",
"$%	c #6969E4",
"%%	c #6C6CE0",
"&%	c #7C7CF4",
"*%	c #9F9EFF",
"=%	c #B0B0FF",
"-%	c #D75071",
";%	c #DD1919",
">%	c #FF1A1A",
",%	c #FF1C1C",
"'%	c #FF1E1E",
")%	c #FC2D2D",
"!%	c #D82B2B",
"~%	c #6565CE",
"{%	c #7475E4",
"]%	c #7777DF",
"^%	c #8C8CFC",
"/%	c #B1B1FF",
"(%	c #D74F71",
"_%	c #DD1515",
":%	c #FF1515",
"<%	c #FF1717",
"[%	c #FF1819",
"}%	c #FF1B1A",
"|%	c #E32424",
"1%	c #7676DB",
"2%	c #7F7FE1",
"3%	c #8787E7",
"4%	c #ADADFF",
"5%	c #B3B3FF",
"6%	c #D74F70",
"7%	c #DD1111",
"8%	c #FF0F0F",
"9%	c #FF1111",
"0%	c #FF1313",
"a%	c #FF1919",
"b%	c #FF1B1B",
"c%	c #EE1C1C",
"d%	c #BE1D1D",
"e%	c #8585E2",
"f%	c #8989E0",
"g%	c #9898EF",
"h%	c #B4B4FF",
"i%	c #DD0E0E",
"j%	c #FF0909",
"k%	c #FF0B0B",
"l%	c #FF0D0D",
"m%	c #F61414",
"n%	c #D21717",
"o%	c #7A7AC5",
"p%	c #9292E3",
"q%	c #9595E0",
"r%	c #A9AAF6",
"s%	c #B5B5FF",
"t%	c #DD0A0A",
"u%	c #FF0303",
"v%	c #FF0505",
"w%	c #FF0707",
"x%	c #FE0909",
"y%	c #DB1111",
"z%	c #8D8DD3",
"A%	c #9F9FE5",
"B%	c #A1A1E1",
"C%	c #D74C6B",
"D%	c #DD0909",
"E%	c #FF0000",
"F%	c #FF0100",
"G%	c #E60808",
"H%	c #A1A1DF",
"I%	c #D54864",
"J%	c #F20404",
"K%	c #C40E0E",
"L%	c #AB1212",
"                                                                                                ",
"                                                                                            . + ",
"                                                                                        @ # $ % ",
"                                                                                      & * = - # ",
"                                                                                  ; > , ' ) ! ~ ",
"                                                                              { ] ^ / ( _ : < [ ",
"                                                                          } | 1 2 3 4 5 6 7 ( 8 ",
"                                                                        9 0 a b c d e f 3 4 g h ",
"                                                                    i j k l m n o p b c d e f q ",
"                                                                r s t u v w x y z m n o p b c A ",
"                                                              B C D E F G H I v J x K L M n o N ",
"                                                              O P Q R S T E F G H I v J x K U V ",
"                                                              W X Y Z ` Q R S T E F G H I v J  .",
"                                                              ..+.@.#.$.%.&.*.Q R S T E F G H =.",
"                                                              -.;.>.,.'.@.#.$.%.&.).!.~.{.].E ^.",
"                                                              /.(._.:.<.>.,.'.@.#.$.%.&.).!.~.[.",
"                                                              }.|.1.2.3._.:.<.>.,.'.@.#.$.%.&.4.",
"                                                              5.6.7.8.9.0.a.3._.:.<.>.,.'.@.#.b.",
"                              c.d.                            e.f.g.h.i.7.8.9.0.a.j.k.l.m.>.,.n.",
"                          o.p.q.r.s.                          t.u.v.w.x.g.h.i.7.8.9.0.a.j.k.l.y.",
"                      z.A.B.C.D.E.F.G.H.                      I.J.K.L.M.v.w.x.g.h.i.7.8.9.0.a.N.",
"                    O.P.Q.R.S.T.U.V.W.X.Y.Z.                  `. +.+++@+#+$+%+v.w.x.g.h.i.7.8.&+",
"                *+=+-+;+>+,+'+)+!+~+{+]+^+/+(+                _+:+<+[+}+.+++@+#+|+%+1+2+3+g.h.4+",
"            5+6+7+8+9+0+a+b+q.r.c+d+e+f+g+h+i+j+k+            l+m+n+o+p+<+[+}+.+++@+#+|+%+q+2+r+",
"        s+t+u+v+w+x+y+z+A+B+C+D+F.E+F+G+H+I+J+K+L+M+N+        O+P+Q+R+S+n+o+p+<+[+}+.+++@+#+|+T+",
"      U+V+W+X+Y+Z+`+P.Q. @C.D..@+@@@X.#@$@%@&@*@=@-@;@>@,@    '@)@!@~@{@]@R+^@n+/@p+<+[+}+.+++(@",
"  _@:@<@[@}@|@1@2@3@4@5@6@'+)+U.7@W.8@9@0@a@b@c@d@e@f@g@h@i@  j@k@l@m@n@!@~@{@]@o@p@q@/@p+<+[+r@",
"s@t@u@<@v@w@x@7+8+y@;+>+z@A@B@c+d+C@f+D@E@F@G@H@I@J@K@L@M@N@O@P@Q@R@S@T@l@m@n@!@~@{@]@o@p@q@U@V@",
"W@X@Y@Z@`@ #.#+#@###z+A+$#q.r.%#&#*#G+H+I+=#j+-#;#>#,#'#)#!#~#{#]#^#/#(#R@S@T@l@m@n@!@~@{@]@o@_#",
"    :#<#[#}#v+w+|#1#2#B.C.D..@3#E+F+4#5#6#&@*@=@-@7#8#9#0#a#b#c#d#e#f#g#^#h#i#j#S@T@l@m@n@!@~@k#",
"        l#m#n#2@3@o#Q.R.S.T.U.V.W.8@p#$@q#r#s#t#u#f@g@h@v#w#x#y#z#A#B#C#e#f#g#^#h#D#j#E#F#G#m@H#",
"            I#J#K#;+>+z@'+)+!+~+{+]+^+E@F@G@c@d@L#M#N#M@N@O@O#P#Q#R#S#T#A#B#C#e#f#g#^#h#D#j#E#U#",
"              V#W#X#Y#b+q.r.%#&#e+f+g+h+i+j+-#;#Z#K@L@`# $.$+$@$#$$$%$&$R#S#T#A#B#C#e#f#g#^#h#*$",
"                  =$-$;$>$D+F.E+F+4#,$I+J+K+L+'$7#8#9#)$!#~#!$~${$]$^$/$($_$:$<$S#T#A#B#C#e#f#[$",
"                      }$|$1$+@@@X.#@$@q#r#s#=@-@;@2$3$v#w#x#4$5$6$7$8$9$]$^$/$($_$:$0$a$b$A#B#c$",
"                          d$e$f$8@9@0@a@b@c@d@L#f@g@h@g$h$i$j$k$l$m$n$o$7$8$9$]$^$/$($_$:$0$a$p$",
"                            q$r$s$t$u$F@G@H@I@J@K@L@`# $O@O#v$w$x$y$z$A$m$n$o$7$8$9$]$^$/$($_$B$",
"                                C$D$E$i+K+F$;#>#,#'#)#!#~#!$G$H$I$J$K$L$y$M$N$m$O$o$7$8$9$]$^$P$",
"                                    Q$R$S$=@-@;@2$9#0#a#b#T$U$V$W$X$Y$Z$J$K$L$y$M$N$`$ %.%+%@%  ",
"                                      #%$%%%&%f@g@h@g$*%x#4$=%-%;%>%,%'%X$Y$Z$J$K$L$y$)%!%      ",
"                                          ~%{%]%^%M@N@O@O#v$/%(%_%:%<%[%}%,%'%X$Y$Z$|%          ",
"                                              1%2%3% $.$+$4%5%6%7%8%9%0%:%<%a%b%c%d%            ",
"                                                  e%f%g%!$G$h%6%i%j%k%l%8%9%m%n%                ",
"                                                    o%p%q%r%s%6%t%u%v%w%x%y%                    ",
"                                                        z%A%B%C%D%E%F%G%                        ",
"                                                            H%I%D%J%K%                          ",
"                                                                L%                              ",
"                                                                                                "};
