/* XPM */
static char * panelMoveXm_xpm[] = {
"48 48 377 2",
"  	c None",
". 	c #C50E0E",
"+ 	c #DB0909",
"@ 	c #CC0C0C",
"# 	c #D50B0B",
"$ 	c #FA0000",
"% 	c #F60000",
"& 	c #F20000",
"* 	c #ED0000",
"= 	c #E00303",
"- 	c #D40505",
"; 	c #CB0606",
"> 	c #C20808",
", 	c #BC0808",
"' 	c #AD0B0B",
") 	c #D40A0A",
"! 	c #EE0303",
"~ 	c #F30000",
"{ 	c #EF0000",
"] 	c #EA0000",
"^ 	c #E60000",
"/ 	c #E10000",
"( 	c #DD0000",
"_ 	c #D90000",
": 	c #D40000",
"< 	c #D00000",
"[ 	c #CB0000",
"} 	c #C60000",
"| 	c #BA0303",
"1 	c #AF0505",
"2 	c #A90606",
"3 	c #A10707",
"4 	c #990909",
"5 	c #910A0A",
"6 	c #E10606",
"7 	c #F10000",
"8 	c #EC0000",
"9 	c #E80000",
"0 	c #E30000",
"a 	c #DF0000",
"b 	c #DA0000",
"c 	c #D60000",
"d 	c #D10000",
"e 	c #CD0000",
"f 	c #C80000",
"g 	c #C40000",
"h 	c #C00000",
"i 	c #BB0000",
"j 	c #B70000",
"k 	c #B20000",
"l 	c #AE0000",
"m 	c #A90000",
"n 	c #A50000",
"o 	c #940505",
"p 	c #810B0B",
"q 	c #D30909",
"r 	c #E50000",
"s 	c #DC0000",
"t 	c #D80000",
"u 	c #D30000",
"v 	c #CF0000",
"w 	c #CA0000",
"x 	c #C10000",
"y 	c #BD0000",
"z 	c #B80000",
"A 	c #B40000",
"B 	c #AF0000",
"C 	c #AB0000",
"D 	c #9E0303",
"E 	c #950505",
"F 	c #9C0000",
"G 	c #890707",
"H 	c #CD0A0A",
"I 	c #DD0404",
"J 	c #E70000",
"K 	c #E20000",
"L 	c #DE0000",
"M 	c #D50000",
"N 	c #CC0000",
"O 	c #C30000",
"P 	c #BF0000",
"Q 	c #BA0000",
"R 	c #B60000",
"S 	c #B10000",
"T 	c #A70202",
"U 	c #9B0606",
"V 	c #9F0202",
"W 	c #9D0101",
"X 	c #8B0707",
"Y 	c #D50606",
"Z 	c #E40000",
"` 	c #E00000",
" .	c #DB0000",
"..	c #D70000",
"+.	c #D20000",
"@.	c #CE0000",
"#.	c #C90000",
"$.	c #C50000",
"%.	c #BC0000",
"&.	c #B30000",
"*.	c #9C0606",
"=.	c #9C0404",
"-.	c #940606",
";.	c #C20A0A",
">.	c #DF0101",
",.	c #C70000",
"'.	c #C20000",
").	c #BE0000",
"!.	c #B90000",
"~.	c #B50000",
"{.	c #B00000",
"].	c #AC0000",
"^.	c #A70000",
"/.	c #A00101",
"(.	c #8A0909",
"_.	c #C00A0A",
":.	c #CE0505",
"<.	c #A00000",
"[.	c #910303",
"}.	c #7B0B0B",
"|.	c #C60707",
"1.	c #BD0202",
"2.	c #AD0606",
"3.	c #A60000",
"4.	c #A20000",
"5.	c #9D0000",
"6.	c #990000",
"7.	c #950000",
"8.	c #900000",
"9.	c #820505",
"0.	c #B80A0A",
"a.	c #CE0202",
"b.	c #B50505",
"c.	c #B40404",
"d.	c #A70606",
"e.	c #A90303",
"f.	c #AD0000",
"g.	c #A80000",
"h.	c #A40000",
"i.	c #9F0000",
"j.	c #9B0000",
"k.	c #960000",
"l.	c #920000",
"m.	c #8D0000",
"n.	c #890000",
"o.	c #840000",
"p.	c #720707",
"q.	c #B20B0B",
"r.	c #C10606",
"s.	c #BD0404",
"t.	c #B60505",
"u.	c #B40303",
"v.	c #9C0A0A",
"w.	c #B10101",
"x.	c #A90202",
"y.	c #A10202",
"z.	c #A10000",
"A.	c #980000",
"B.	c #940000",
"C.	c #8F0000",
"D.	c #8B0000",
"E.	c #860000",
"F.	c #820000",
"G.	c #7D0000",
"H.	c #760202",
"I.	c #650909",
"J.	c #B40909",
"K.	c #BB0606",
"L.	c #C20202",
"M.	c #BE0101",
"N.	c #A70808",
"O.	c #9E0606",
"P.	c #9B0404",
"Q.	c #920505",
"R.	c #980101",
"S.	c #910000",
"T.	c #8C0000",
"U.	c #880000",
"V.	c #830000",
"W.	c #7F0000",
"X.	c #7B0000",
"Y.	c #760000",
"Z.	c #720000",
"`.	c #680303",
" +	c #990F0F",
".+	c #B10707",
"++	c #980303",
"@+	c #8D0505",
"#+	c #890505",
"$+	c #8E0000",
"%+	c #8A0000",
"&+	c #850000",
"*+	c #810000",
"=+	c #7C0000",
"-+	c #780000",
";+	c #730000",
">+	c #6F0000",
",+	c #6A0000",
"'+	c #660000",
")+	c #5A0505",
"!+	c #840909",
"~+	c #900202",
"{+	c #8E0101",
"]+	c #800505",
"^+	c #810303",
"/+	c #7E0000",
"(+	c #7A0000",
"_+	c #750000",
":+	c #710000",
"<+	c #6C0000",
"[+	c #680000",
"}+	c #630000",
"|+	c #5F0000",
"1+	c #590101",
"2+	c #4D0707",
"3+	c #7F0707",
"4+	c #880101",
"5+	c #800202",
"6+	c #750606",
"7+	c #780202",
"8+	c #770000",
"9+	c #6E0000",
"0+	c #650000",
"a+	c #610000",
"b+	c #5C0000",
"c+	c #580000",
"d+	c #530000",
"e+	c #4C0202",
"f+	c #400909",
"g+	c #780505",
"h+	c #730404",
"i+	c #6B0505",
"j+	c #6B0000",
"k+	c #670000",
"l+	c #620000",
"m+	c #5E0000",
"n+	c #590000",
"o+	c #550000",
"p+	c #500000",
"q+	c #4C0000",
"r+	c #480000",
"s+	c #3F0404",
"t+	c #670B0B",
"u+	c #710303",
"v+	c #650505",
"w+	c #620404",
"x+	c #640000",
"y+	c #600000",
"z+	c #5B0000",
"A+	c #570000",
"B+	c #520000",
"C+	c #4E0000",
"D+	c #490000",
"E+	c #450000",
"F+	c #400000",
"G+	c #3C0000",
"H+	c #330606",
"I+	c #610808",
"J+	c #680202",
"K+	c #640101",
"L+	c #590606",
"M+	c #590303",
"N+	c #540000",
"O+	c #4B0000",
"P+	c #470000",
"Q+	c #420000",
"R+	c #3E0000",
"S+	c #390000",
"T+	c #350000",
"U+	c #300101",
"V+	c #280808",
"W+	c #590707",
"X+	c #570303",
"Y+	c #4F0606",
"Z+	c #500101",
"`+	c #4D0000",
" @	c #440000",
".@	c #3F0000",
"+@	c #3B0000",
"@@	c #360000",
"#@	c #320000",
"$@	c #2E0000",
"%@	c #290000",
"&@	c #240303",
"*@	c #1E0A0A",
"=@	c #520505",
"-@	c #4A0404",
";@	c #450505",
">@	c #460000",
",@	c #410000",
"'@	c #3D0000",
")@	c #380000",
"!@	c #340000",
"~@	c #2F0000",
"{@	c #2B0000",
"]@	c #260000",
"^@	c #220000",
"/@	c #1D0000",
"(@	c #190505",
"_@	c #450A0A",
":@	c #490303",
"<@	c #3E0606",
"[@	c #3B0404",
"}@	c #3A0000",
"|@	c #310000",
"1@	c #2D0000",
"2@	c #280000",
"3@	c #240000",
"4@	c #1F0000",
"5@	c #1B0000",
"6@	c #160000",
"7@	c #120000",
"8@	c #100606",
"9@	c #3D0808",
"0@	c #3F0101",
"a@	c #3A0202",
"b@	c #330505",
"c@	c #310202",
"d@	c #2A0000",
"e@	c #250000",
"f@	c #210000",
"g@	c #1C0000",
"h@	c #180000",
"i@	c #140000",
"j@	c #0F0000",
"k@	c #0B0000",
"l@	c #070202",
"m@	c #0A0808",
"n@	c #350606",
"o@	c #2E0303",
"p@	c #290505",
"q@	c #270101",
"r@	c #230000",
"s@	c #1E0000",
"t@	c #1A0000",
"u@	c #150000",
"v@	c #110000",
"w@	c #0C0000",
"x@	c #080000",
"y@	c #030000",
"z@	c #000000",
"A@	c #030303",
"B@	c #0B0B0B",
"C@	c #2B0404",
"D@	c #230505",
"E@	c #1F0505",
"F@	c #170000",
"G@	c #130000",
"H@	c #0E0000",
"I@	c #0A0000",
"J@	c #050000",
"K@	c #010000",
"L@	c #010101",
"M@	c #0C0C0C",
"N@	c #230909",
"O@	c #210202",
"P@	c #1D0101",
"Q@	c #150303",
"R@	c #100000",
"S@	c #070000",
"T@	c #020000",
"U@	c #050505",
"V@	c #040404",
"W@	c #1A0707",
"X@	c #160101",
"Y@	c #120202",
"Z@	c #100505",
"`@	c #0A0202",
" #	c #040000",
".#	c #110505",
"+#	c #090404",
"@#	c #070606",
"##	c #060606",
"$#	c #020202",
"%#	c #080808",
"&#	c #060404",
"*#	c #0D0D0D",
"                                                                                                ",
"                                                                                                ",
"                                                                                                ",
"                                                                                                ",
"                                                                                                ",
"                                                                                                ",
"                                                                                                ",
"                                                                                                ",
"                                                                                                ",
". + @                                                                                           ",
"# $ % & * = - ; > , '                                                                           ",
") ! ~ { ] ^ / ( _ : < [ } | 1 2 3 4 5                                                           ",
"  6 7 8 9 0 a b c d e f g h i j k l m n o p                                                     ",
"  q * ] r / s t u v w } x y z A B C D E F G                                                     ",
"  H I J K L _ M < N f O P Q R S T U V W X                                                       ",
"    Y Z `  ...+.@.#.$.h %.j &.B *.=.-.                                                          ",
"    ;.>.( t : v [ ,.'.).!.~.{.].^./.(.                                                          ",
"    _.:.b c d e f g P i R k l m n <.F [.}.                                                      ",
"      |.t u v w } 1.2.z A B C 3.4.5.6.7.8.9.                                                    ",
"      0.a.< N ,.b.c.2 d.e.f.g.h.i.j.k.l.m.n.o.p.                                                ",
"      q.r.@.s.t.P u.v.w.x.*.y.z.F A.B.C.D.E.F.G.H.I.                                            ",
"        J.K.L.M.N.      O.^.P.Q.R.7.S.T.U.V.W.X.Y.Z.`.                                          ",
"         +f .+              ++j.@+#+$+%+&+*+=+-+;+>+,+'+)+                                      ",
"                              !+~+{+]+^+F./+(+_+:+<+[+}+|+1+2+                                  ",
"                                  3+4+5+6+7+8+Z.9+,+0+a+b+c+d+e+f+                              ",
"                                      g+G.h+i+>+j+k+l+m+n+o+p+q+r+s+                            ",
"                                        t+u+:+v+w+x+y+z+A+B+C+D+E+F+G+H+                        ",
"                                            I+J+K+L+M+c+N+p+O+P+Q+R+S+T+U+V+                    ",
"                                                W+m+X+Y+Z+`+r+ @.@+@@@#@$@%@&@*@                ",
"                                                    =@d+-@;@>@,@'@)@!@~@{@]@^@/@(@              ",
"                                                      _@:@P+<@[@}@T+|@1@2@3@4@5@6@7@8@          ",
"                                                          9@0@a@b@c@$@d@e@f@g@h@i@j@k@l@m@      ",
"                                                              n@!@o@p@q@r@s@t@u@v@w@x@y@z@A@B@  ",
"                                                                  C@%@D@E@5@F@G@H@I@J@K@z@z@L@M@",
"                                                                    N@O@P@(@Q@R@w@S@T@z@z@U@V@U@",
"                                                                        W@X@Y@Z@`@ #z@V@U@L@A@B@",
"                                                                            .#k@+#@###$#L@%#    ",
"                                                                                &###z@##        ",
"                                                                                  *#            ",
"                                                                                                ",
"                                                                                                ",
"                                                                                                ",
"                                                                                                ",
"                                                                                                ",
"                                                                                                ",
"                                                                                                ",
"                                                                                                ",
"                                                                                                "};
