/* XPM */
static char * panel2profile_xpm[] = {
"48 48 758 2",
"  	c None",
". 	c #FFFFFF",
"+ 	c #FBFBFF",
"@ 	c #F3F3FF",
"# 	c #EBEBFF",
"$ 	c #E2E2FF",
"% 	c #D9D9FF",
"& 	c #D0D0FF",
"* 	c #C8C8FF",
"= 	c #BFBFFF",
"- 	c #B7B7FF",
"; 	c #AEAEFF",
"> 	c #A5A5FF",
", 	c #9D9DFF",
"' 	c #9494FF",
") 	c #8B8BFF",
"! 	c #8383FF",
"~ 	c #7A7AFF",
"{ 	c #7171FF",
"] 	c #6969FF",
"^ 	c #6060FF",
"/ 	c #5757FF",
"( 	c #4F4FFF",
"_ 	c #4646FF",
": 	c #3D3DFE",
"< 	c #2F2ECC",
"[ 	c #2B2B64",
"} 	c #F5F6FF",
"| 	c #EFEFFF",
"1 	c #E6E6FF",
"2 	c #DDDDFF",
"3 	c #D5D5FF",
"4 	c #CCCCFF",
"5 	c #C3C3FF",
"6 	c #BBBBFF",
"7 	c #B2B2FF",
"8 	c #A9A9FF",
"9 	c #A1A1FF",
"0 	c #9898FF",
"a 	c #8F8FFF",
"b 	c #8787FF",
"c 	c #7E7EFF",
"d 	c #7575FF",
"e 	c #6D6DFF",
"f 	c #6464FF",
"g 	c #5B5BFF",
"h 	c #5353FF",
"i 	c #4A4AFF",
"j 	c #4141FF",
"k 	c #3939FF",
"l 	c #3030FF",
"m 	c #2828FF",
"n 	c #1E1EF7",
"o 	c #2020B6",
"p 	c #E8E8FF",
"q 	c #E1E1FF",
"r 	c #C7C7FF",
"s 	c #B6B6FF",
"t 	c #ADADFF",
"u 	c #9C9CFF",
"v 	c #9393FF",
"w 	c #8282FF",
"x 	c #7979FF",
"y 	c #6868FF",
"z 	c #5F5FFF",
"A 	c #4E4EFF",
"B 	c #4545FF",
"C 	c #3D3DFF",
"D 	c #3434FF",
"E 	c #2B2CFF",
"F 	c #2323FF",
"G 	c #1A1AFF",
"H 	c #1212FF",
"I 	c #0909FF",
"J 	c #0808EB",
"K 	c #22229F",
"L 	c #DBDBFF",
"M 	c #D4D4FF",
"N 	c #CBCBFF",
"O 	c #BABAFF",
"P 	c #B1B1FF",
"Q 	c #A0A0FF",
"R 	c #9797FF",
"S 	c #8686FF",
"T 	c #7D7DFF",
"U 	c #6C6CFF",
"V 	c #6363FF",
"W 	c #5252FF",
"X 	c #4949FF",
"Y 	c #3838FF",
"Z 	c #302FFF",
"` 	c #2727FF",
" .	c #1E1EFF",
"..	c #1616FF",
"+.	c #0D0DFF",
"@.	c #0504FF",
"#.	c #0000FF",
"$.	c #0E0ED8",
"%.	c #272789",
"&.	c #CECEFF",
"*.	c #BEBEFF",
"=.	c #B5B5FF",
"-.	c #A4A4FF",
";.	c #9B9BFF",
">.	c #8A8AFF",
",.	c #8181FF",
"'.	c #7070FF",
").	c #6767FF",
"!.	c #5656FF",
"~.	c #4D4DFF",
"{.	c #3C3CFF",
"].	c #2B2BFF",
"^.	c #2222FF",
"/.	c #1111FF",
"(.	c #0808FF",
"_.	c #0202FF",
":.	c #0101FB",
"<.	c #1616C7",
"[.	c #C0C0FF",
"}.	c #B9B9FF",
"|.	c #A8A8FF",
"1.	c #9F9FFF",
"2.	c #8E8EFF",
"3.	c #8585FF",
"4.	c #7474FF",
"5.	c #6B6BFF",
"6.	c #5A5AFF",
"7.	c #5251FF",
"8.	c #4040FF",
"9.	c #2F2FFF",
"0.	c #2626FF",
"a.	c #1515FF",
"b.	c #0404FF",
"c.	c #0303F3",
"d.	c #1D1DB2",
"e.	c #B3B3FF",
"f.	c #ACACFF",
"g.	c #A3A3FF",
"h.	c #9292FF",
"i.	c #8989FF",
"j.	c #7878FF",
"k.	c #6F6FFF",
"l.	c #5E5EFF",
"m.	c #5556FF",
"n.	c #4444FF",
"o.	c #3333FF",
"p.	c #2A2AFF",
"q.	c #1919FF",
"r.	c #0807FF",
"s.	c #0101FF",
"t.	c #0606E9",
"u.	c #232396",
"v.	c #A6A6FF",
"w.	c #9696FF",
"x.	c #8D8EFF",
"y.	c #7C7CFF",
"z.	c #7473FF",
"A.	c #6262FF",
"B.	c #5151FF",
"C.	c #4848FF",
"D.	c #3737FF",
"E.	c #2E2EFF",
"F.	c #1D1DFF",
"G.	c #1514FF",
"H.	c #0C0CFF",
"I.	c #1111D4",
"J.	c #27277B",
"K.	c #666695",
"L.	c #8483DC",
"M.	c #8080FF",
"N.	c #6666FF",
"O.	c #5555FF",
"P.	c #4C4CFF",
"Q.	c #3B3BFF",
"R.	c #3232FF",
"S.	c #2121FF",
"T.	c #1010FF",
"U.	c #0707FF",
"V.	c #1919BE",
"W.	c #000000",
"X.	c #2D2D2D",
"Y.	c #5D5D9A",
"Z.	c #6E6EEB",
"`.	c #6A6AFF",
" +	c #5959FF",
".+	c #5050FF",
"++	c #3F3FFF",
"@+	c #3636FF",
"#+	c #2525FF",
"$+	c #1C1CFF",
"%+	c #1414FF",
"&+	c #0B0BFF",
"*+	c #0303FF",
"=+	c #0303F2",
"-+	c #1F1FA8",
";+	c #B1B1B1",
">+	c #555555",
",+	c #010101",
"'+	c #3C3C48",
")+	c #5A5AB6",
"!+	c #5252F7",
"~+	c #4343FF",
"{+	c #3A3AFF",
"]+	c #2929FF",
"^+	c #2120FF",
"/+	c #1818FF",
"(+	c #0F0FFF",
"_+	c #0606FF",
":+	c #0C0CE3",
"<+	c #23238E",
"[+	c #EEEEF4",
"}+	c #A3A3AA",
"|+	c #353535",
"1+	c #090909",
"2+	c #454560",
"3+	c #4A4ACD",
"4+	c #3535FD",
"5+	c #2D2DFF",
"6+	c #2524FF",
"7+	c #1313FF",
"8+	c #0B0AFF",
"9+	c #0000FE",
"0+	c #1414CE",
"a+	c #282873",
"b+	c #F1F1FF",
"c+	c #ECECFF",
"d+	c #D4D4E8",
"e+	c #7F7F8B",
"f+	c #282828",
"g+	c #242424",
"h+	c #464682",
"i+	c #3434E1",
"j+	c #1717FF",
"k+	c #0202F9",
"l+	c #1A1ABA",
"m+	c #E7E7FF",
"n+	c #E5E5FF",
"o+	c #E3E3FF",
"p+	c #E0E0FF",
"q+	c #B6B6D3",
"r+	c #5E5E68",
"s+	c #121212",
"t+	c #333333",
"u+	c #4343A2",
"v+	c #1919F0",
"w+	c #0202F8",
"x+	c #0707B1",
"y+	c #04042E",
"z+	c #DEDEFF",
"A+	c #DCDCFF",
"B+	c #D6D6FF",
"C+	c #D1D1FF",
"D+	c #CACAF9",
"E+	c #9B9BBF",
"F+	c #444447",
"G+	c #3D3D47",
"H+	c #4040BD",
"I+	c #0101F9",
"J+	c #0707CA",
"K+	c #06054D",
"L+	c #078D07",
"M+	c #098609",
"N+	c #D2D2FF",
"O+	c #CFCFFF",
"P+	c #CDCDFF",
"Q+	c #CACAFF",
"R+	c #C5C5FF",
"S+	c #C2C2FF",
"T+	c #B4B4EF",
"U+	c #7E7FA4",
"V+	c #343434",
"W+	c #101010",
"X+	c #42426A",
"Y+	c #3333D4",
"Z+	c #0505E1",
"`+	c #060674",
" @	c #076D07",
".@	c #06D806",
"+@	c #00FF00",
"@@	c #07A107",
"#@	c #C6C6FF",
"$@	c #B8B8FF",
"%@	c #9D9DE0",
"&@	c #636383",
"*@	c #212121",
"=@	c #272727",
"-@	c #434389",
";@	c #2626E6",
">@	c #0303F1",
",@	c #07079D",
"'@	c #094407",
")@	c #14C014",
"!@	c #0BFC0B",
"~@	c #C1C1FF",
"{@	c #BCBCFF",
"]@	c #B4B4FF",
"^@	c #AFAFFF",
"/@	c #A7A7FF",
"(@	c #A3A3FE",
"_@	c #8787CE",
":@	c #515167",
"<@	c #4343AA",
"[@	c #1616F3",
"}@	c #0101FA",
"|@	c #0707B9",
"1@	c #07102E",
"2@	c #23A423",
"3@	c #29F429",
"4@	c #1CFF1C",
"5@	c #0DFF0D",
"6@	c #01FF01",
"7@	c #B0B0FF",
"8@	c #AAAAFF",
"9@	c #A2A2FF",
"0@	c #9A9AFF",
"a@	c #9090F6",
"b@	c #7373B8",
"c@	c #3E3E46",
"d@	c #3D3D53",
"e@	c #3E3EC2",
"f@	c #0606D1",
"g@	c #060658",
"h@	c #2A842A",
"i@	c #42E642",
"j@	c #3BFF3B",
"k@	c #2CFF2C",
"l@	c #1DFF1D",
"m@	c #0EFF0E",
"n@	c #ABABFF",
"o@	c #9E9EFF",
"p@	c #9999FF",
"q@	c #9191FF",
"r@	c #7E7EEC",
"s@	c #5F5F9B",
"t@	c #181818",
"u@	c #424275",
"v@	c #3434D8",
"w@	c #0505E6",
"x@	c #070780",
"y@	c #285C27",
"z@	c #56D256",
"A@	c #5BFE5B",
"B@	c #4CFF4C",
"C@	c #3DFF3D",
"D@	c #2EFF2E",
"E@	c #1FFF1F",
"F@	c #10FF10",
"G@	c #02FF02",
"H@	c #8C8CFF",
"I@	c #8484FF",
"J@	c #7F7FFF",
"K@	c #6D6DDE",
"L@	c #50507C",
"M@	c #1E1E1E",
"N@	c #292929",
"O@	c #444491",
"P@	c #2424EB",
"Q@	c #0202F4",
"R@	c #0707A4",
"S@	c #1D361E",
"T@	c #62B962",
"U@	c #79FB79",
"V@	c #6CFF6C",
"W@	c #5CFF5C",
"X@	c #4DFF4D",
"Y@	c #3EFF3E",
"Z@	c #2FFF2F",
"`@	c #20FF20",
" #	c #11FF11",
".#	c #03FF03",
"+#	c #9595FF",
"@#	c #9090FF",
"##	c #8D8DFF",
"$#	c #8888FF",
"%#	c #7B7BFF",
"&#	c #7373FF",
"*#	c #6969FC",
"=#	c #605FC9",
"-#	c #434358",
";#	c #040404",
">#	c #35353D",
",#	c #4242B1",
"'#	c #0909F5",
")#	c #0101FC",
"!#	c #0707BF",
"~#	c #05043D",
"{#	c #669D66",
"]#	c #92F392",
"^#	c #8BFF8B",
"/#	c #7CFF7C",
"(#	c #6DFF6D",
"_#	c #5EFF5E",
":#	c #4FFF4F",
"<#	c #40FF40",
"[#	c #31FF31",
"}#	c #22FF22",
"|#	c #13FF13",
"1#	c #04FF04",
"2#	c #7676FF",
"3#	c #6E6EFF",
"4#	c #6161FF",
"5#	c #5A5AF5",
"6#	c #5555B1",
"7#	c #373738",
"8#	c #43435A",
"9#	c #3A3AC9",
"0#	c #0000FD",
"a#	c #0606D6",
"b#	c #060668",
"c#	c #5D795D",
"d#	c #A5E4A5",
"e#	c #ABFFAB",
"f#	c #9CFF9C",
"g#	c #8DFF8D",
"h#	c #7EFF7E",
"i#	c #6EFF6F",
"j#	c #60FF5F",
"k#	c #50FF50",
"l#	c #41FF41",
"m#	c #32FF32",
"n#	c #23FF23",
"o#	c #14FF14",
"p#	c #05FF05",
"q#	c #7777FF",
"r#	c #7272FF",
"s#	c #6565FF",
"t#	c #5D5DFF",
"u#	c #4D4DEA",
"v#	c #4B4B90",
"w#	c #1F1F1F",
"x#	c #41417B",
"y#	c #2929D0",
"z#	c #070789",
"A#	c #444C44",
"B#	c #AECCAE",
"C#	c #CAFECA",
"D#	c #BCFFBC",
"E#	c #ADFFAD",
"F#	c #9EFF9D",
"G#	c #8EFF8E",
"H#	c #7FFF7F",
"I#	c #70FF70",
"J#	c #61FF61",
"K#	c #52FF52",
"L#	c #43FF43",
"M#	c #34FF34",
"N#	c #25FF25",
"O#	c #16FF16",
"P#	c #06FF06",
"Q#	c #7978FF",
"R#	c #7170FF",
"S#	c #6968FF",
"T#	c #5858FF",
"U#	c #4B4BFF",
"V#	c #4545D9",
"W#	c #46466F",
"X#	c #191919",
"Y#	c #171717",
"Z#	c #B0B5B0",
"`#	c #E5F9E5",
" $	c #DBFFDB",
".$	c #CCFFCC",
"+$	c #BDFFBD",
"@$	c #AEFFAE",
"#$	c #9FFF9F",
"$$	c #90FF90",
"%$	c #81FF81",
"&$	c #72FF71",
"*$	c #62FF63",
"=$	c #53FF53",
"-$	c #44FF44",
";$	c #35FF35",
">$	c #26FF26",
",$	c #17FF17",
"'$	c #08FF08",
")$	c #7271FF",
"!$	c #6A69FF",
"~$	c #5C5CFF",
"{$	c #5454FF",
"]$	c #4747FF",
"^$	c #3030FB",
"/$	c #3434A9",
"($	c #737373",
"_$	c #E4E6E4",
":$	c #E1F3E1",
"<$	c #DDFFDD",
"[$	c #CEFFCE",
"}$	c #BFFFBF",
"|$	c #B0FFAF",
"1$	c #A0FFA0",
"2$	c #91FF91",
"3$	c #82FF82",
"4$	c #73FF73",
"5$	c #64FF64",
"6$	c #55FF55",
"7$	c #46FF46",
"8$	c #37FF37",
"9$	c #28FF28",
"0$	c #19FF19",
"a$	c #09FF09",
"b$	c #5B5AFF",
"c$	c #4242FF",
"d$	c #3535FF",
"e$	c #1F1FCC",
"f$	c #808080",
"g$	c #FEFFFE",
"h$	c #EEF3EE",
"i$	c #CFE6CE",
"j$	c #CCFCCC",
"k$	c #C0FFC0",
"l$	c #B1FFB1",
"m$	c #A2FFA2",
"n$	c #93FF93",
"o$	c #84FF84",
"p$	c #75FF75",
"q$	c #65FF66",
"r$	c #56FF56",
"s$	c #47FF47",
"t$	c #38FF38",
"u$	c #29FF29",
"v$	c #1AFF1A",
"w$	c #0BFF0B",
"x$	c #5453FF",
"y$	c #3E3EFF",
"z$	c #3131FF",
"A$	c #1818CC",
"B$	c #7C807C",
"C$	c #F4FFF4",
"D$	c #EEFFED",
"E$	c #E7FFE7",
"F$	c #CBEACB",
"G$	c #B5EAB5",
"H$	c #B3FFB3",
"I$	c #A3FFA4",
"J$	c #94FF94",
"K$	c #85FF85",
"L$	c #76FF76",
"M$	c #67FF67",
"N$	c #58FF58",
"O$	c #49FF49",
"P$	c #3AFF3A",
"Q$	c #2BFF2B",
"R$	c #1BFF1C",
"S$	c #4445FF",
"T$	c #3D3CFF",
"U$	c #2C2CFF",
"V$	c #2425FF",
"W$	c #1F1FFF",
"X$	c #1111CC",
"Y$	c #748074",
"Z$	c #E5FFE5",
"`$	c #DFFFDF",
" %	c #D9FFD9",
".%	c #D3FFD3",
"+%	c #CAFBCA",
"@%	c #ABE6AC",
"#%	c #9BEF9B",
"$%	c #96FF96",
"%%	c #87FF87",
"&%	c #78FF78",
"*%	c #69FF68",
"=%	c #59FF59",
"-%	c #4AFF4A",
";%	c #3E3DFF",
">%	c #2625FF",
",%	c #2020FF",
"'%	c #1B1BFF",
")%	c #0E0EFF",
"!%	c #0C0BCC",
"~%	c #6D806C",
"{%	c #D6FFD6",
"]%	c #D0FFD0",
"^%	c #CAFFCA",
"/%	c #C4FFC4",
"(%	c #BEFFBE",
"_%	c #B8FFB8",
":%	c #ACF7AC",
"<%	c #8FE68F",
"[%	c #84F784",
"}%	c #79FF79",
"|%	c #6AFF6A",
"1%	c #5BFF5B",
"2%	c #3F3EFF",
"3%	c #2726FF",
"4%	c #2424FF",
"5%	c #1F1EFF",
"6%	c #0707CC",
"7%	c #658065",
"8%	c #C8FFC8",
"9%	c #C2FFC2",
"0%	c #BBFFBB",
"a%	c #B5FFB5",
"b%	c #AFFFAF",
"c%	c #A9FFA9",
"d%	c #A3FFA3",
"e%	c #9DFF9D",
"f%	c #8BEF8C",
"g%	c #73E673",
"h%	c #6AFC6A",
"i%	c #201FFF",
"j%	c #0A0AFF",
"k%	c #0505FF",
"l%	c #0606CC",
"m%	c #5D805D",
"n%	c #B9FFB9",
"o%	c #A7FFA7",
"p%	c #A1FFA1",
"q%	c #9AFF9B",
"r%	c #94FF95",
"s%	c #88FF88",
"t%	c #6DE96D",
"u%	c #58EB58",
"v%	c #2C2CCD",
"w%	c #2B2BFE",
"x%	c #568056",
"y%	c #AAFFAA",
"z%	c #A4FFA4",
"A%	c #9EFF9E",
"B%	c #98FF98",
"C%	c #92FF92",
"D%	c #8CFF8C",
"E%	c #86FF86",
"F%	c #80FF80",
"G%	c #7AFF7A",
"H%	c #74FF73",
"I%	c #65FB65",
"J%	c #50E650",
"K%	c #3EF23E",
"L%	c #242492",
"M%	c #2121E3",
"N%	c #4E804E",
"O%	c #8FFF8F",
"P%	c #89FF89",
"Q%	c #83FF83",
"R%	c #7DFF7D",
"S%	c #77FF77",
"T%	c #71FF71",
"U%	c #6BFF6B",
"V%	c #65FF65",
"W%	c #5FFF5F",
"X%	c #49F449",
"Y%	c #35E635",
"Z%	c #24F924",
"`%	c #2020A9",
" &	c #1313F2",
".&	c #478047",
"+&	c #7BFF7B",
"@&	c #6FFF6F",
"#&	c #62FF62",
"$&	c #2CED2D",
"%&	c #1BE71B",
"&&	c #08FE08",
"*&	c #1919C1",
"=&	c #0303FA",
"-&	c #3F803F",
";&	c #72FF72",
">&	c #66FF66",
",&	c #60FF60",
"'&	c #5AFF5A",
")&	c #54FF54",
"!&	c #4EFF4E",
"~&	c #47FF48",
"{&	c #1DFE1D",
"]&	c #14E814",
"^&	c #0B840B",
"/&	c #1D1D80",
"(&	c #1111D5",
"_&	c #378038",
":&	c #63FF63",
"<&	c #5DFF5D",
"[&	c #57FF57",
"}&	c #51FF51",
"|&	c #4BFF4B",
"1&	c #45FF45",
"2&	c #3FFF3F",
"3&	c #39FF39",
"4&	c #33FF33",
"5&	c #2DFF2D",
"6&	c #27FF27",
"7&	c #21FF21",
"8&	c #1BFF1B",
"9&	c #15FF15",
"0&	c #10EB10",
"a&	c #0B920B",
"b&	c #060606",
"c&	c #1D1D97",
"d&	c #308030",
"e&	c #42FF42",
"f&	c #3CFF3C",
"g&	c #36FF36",
"h&	c #30FF30",
"i&	c #2AFF2A",
"j&	c #24FF24",
"k&	c #1EFF1E",
"l&	c #18FF18",
"m&	c #12FF12",
"n&	c #0DF80D",
"o&	c #0BB10B",
"p&	c #061106",
"q&	c #0C0C0C",
"r&	c #1717B1",
"s&	c #0505F5",
"t&	c #298029",
"u&	c #09FE0A",
"v&	c #0ACA0A",
"w&	c #064806",
"x&	c #23235E",
"y&	c #1010C7",
"z&	c #218022",
"A&	c #32FF31",
"B&	c #07FF07",
"C&	c #07E207",
"D&	c #077507",
"E&	c #070707",
"F&	c #242480",
"G&	c #0A0ADA",
"H&	c #1B801B",
"I&	c #0AFF0B",
"J&	c #04F104",
"K&	c #079707",
"L&	c #1F1F9C",
"M&	c #0505ED",
"N&	c #148014",
"O&	c #02FA02",
"P&	c #07B607",
"Q&	c #063006",
"R&	c #0B0B0B",
"S&	c #1515B8",
"T&	c #0E800E",
"U&	c #0CFF0C",
"V&	c #06FF05",
"W&	c #00FE00",
"X&	c #06CF06",
"Y&	c #065706",
"Z&	c #23236A",
"`&	c #1010CB",
" *	c #09800A",
".*	c #04E504",
"+*	c #068006",
"@*	c #1D1D8B",
"#*	c #1010DF",
"$*	c #078007",
"%*	c #03F303",
"&*	c #07A007",
"**	c #060A06",
"=*	c #0D0D0D",
"-*	c #1A1AA6",
";*	c #0A0AEF",
">*	c #01FB01",
",*	c #07BD07",
"'*	c #063F06",
")*	c #0A0A0A",
"!*	c #1717BE",
"~*	c #0808C3",
"{*	c #075707",
"]*	c #066206",
"^*	c #080808",
"/*	c #1D1D2A",
". + @ # $ % & * = - ; > , ' ) ! ~ { ] ^ / ( _ : < [                                             ",
"} | 1 2 3 4 5 6 7 8 9 0 a b c d e f g h i j k l m n o                                           ",
"p q % & r = s t > u v ) w x { y z / A B C D E F G H I J K                                       ",
"L M N 5 O P 8 Q R a S T d U V g W X j Y Z `  ...+.@.#.#.#.$.%.                                  ",
"&.r *.=.t -.;.v >.,.x '.).z !.~.B {.D ].^.G /.(._.#.#.#.#.#.:.<.[                               ",
"[.}.P |.1.R 2.3.T 4.5.V 6.7.X 8.Y 9.0. .a.+.b.#.#.#.#.#.#.#.#.#.c.d.                            ",
"e.f.g.;.h.i.,.j.k.).l.m.~.n.{.o.p.^.q./.r.s.#.#.#.#.#.#.#.#.#.#.#.#.t.u.                        ",
"v.1.w.x.3.y.z.5.A.6.B.C.8.D.E.0.F.G.H.b.#.#.#.#.#.#.#.#.#.#.#.#.#.#.#.#.I.J.                    ",
"K.L.i.M.j.k.N.l.O.P.n.Q.R.p.S.q.T.U.s.#.#.#.#.#.#.#.#.#.#.#.#.#.#.#.#.#.#.:.V.                  ",
"W.X.Y.Z.`.A. +.+C.++@+E.#+$+%+&+*+#.#.#.#.#.#.#.#.#.#.#.#.#.#.#.#.#.#.#.#.#.#.=+-+              ",
";+>+,+'+)+!+P.~+{+R.]+^+/+(+_+s.#.#.#.#.#.#.#.#.#.#.#.#.#.#.#.#.#.#.#.#.#.#.#.#.#.:+<+          ",
"+ [+}+|+1+2+3+4+5+6+$+7+8+*+#.#.#.#.#.#.#.#.#.#.#.#.#.#.#.#.#.#.#.#.#.#.#.#.#.#.#.#.9+0+a+      ",
"b+| c+d+e+f+g+h+i+j+(+_+s.#.#.#.#.#.#.#.#.#.#.#.#.#.#.#.#.#.#.#.#.#.#.#.#.#.#.#.#.#.#.#.k+l+    ",
"m+n+o+p+2 q+r+s+t+u+v+#.#.#.#.#.#.#.#.#.#.#.#.#.#.#.#.#.#.#.#.#.#.#.#.#.#.#.#.#.#.#.#.#.w+x+y+  ",
"z+A+% B+M C+D+E+F+W.G+H+I+#.#.#.#.#.#.#.#.#.#.#.#.#.#.#.#.#.#.#.#.#.#.#.#.#.#.#.#.#.9+J+K+L+M+  ",
"M N+O+P+Q+r R+S+T+U+V+W+X+Y+#.#.#.#.#.#.#.#.#.#.#.#.#.#.#.#.#.#.#.#.#.#.#.#.#.#.#.Z+`+ @.@+@@@  ",
"N * #@5 [.*.6 $@s e.%@&@*@=@-@;@#.#.#.#.#.#.#.#.#.#.#.#.#.#.#.#.#.#.#.#.#.#.#.>@,@'@)@!@+@+@@@  ",
"~@= {@}.- ]@P ^@f.8 /@(@_@:@1+t+<@[@#.#.#.#.#.#.#.#.#.#.#.#.#.#.#.#.#.#.#.}@|@1@2@3@4@5@6@+@@@  ",
"- =.7 7@t 8@|.> 9@Q , 0@0 a@b@c@,+d@e@}@#.#.#.#.#.#.#.#.#.#.#.#.#.#.#.#.f@g@h@i@j@k@l@m@6@+@@@  ",
"; n@8 v.g.9 o@;.p@w.v q@2.) i.r@s@X.t@u@v@#.#.#.#.#.#.#.#.#.#.#.#.#.w@x@y@z@A@B@C@D@E@F@G@+@@@  ",
"-.9@1.u 0@R ' h.a H@>.b I@w J@y.~ K@L@M@N@O@P@#.#.#.#.#.#.#.#.#.Q@R@S@T@U@V@W@X@Y@Z@`@ #.#+@@@  ",
"0@0 +#v @###) $#3.! M.T %#j.d &#'.e *#=#-#;#>#,#'##.#.#.#.#.)#!#~#{#]#^#/#(#_#:#<#[#}#|#1#+@@@  ",
"q@2.H@i.S I@,.c y.x 2#4.{ 3#U ] N.f 4#l.5#6#7#;#8#9#0##.#.a#b#c#d#e#f#g#h#i#j#k#l#m#n#o#p#+@@@  ",
"b 3.w J@T ~ q#d r#k.e `.).s#A.z t#6./ O.W ( u#v#N@w#x#y#z#A#B#C#D#E#F#G#H#I#J#K#L#M#N#O#P#+@@@  ",
"T %#Q#2#&#R#3#5.S#N.V ^ l.g T#!.h .+A U#C._ ~+8.V#W#X#Y#Z#`# $.$+$@$#$$$%$&$*$=$-$;$>$,$'$+@@@  ",
"4.)$k.U !$).f 4#z ~$ +/ {$B.( P.X ]$n.j ++{.k D.D ^$/$($_$:$<$[$}$|$1$2$3$4$5$6$7$8$9$0$a$+@@@  ",
"`.y s#A.^ t#b$T#O.W .+~.i C.B c$8.C {+Y d$R.l 5+p.m e$f$g$h$i$j$k$l$m$n$o$p$q$r$s$t$u$v$w$+@@@  ",
"^ l.g  +!.x$B.A U#X _ ~+j y$Q.k @+o.z$E.].]+0.F S. .A$B$C$D$E$F$G$H$I$J$K$L$M$N$O$P$Q$R$5@6@@@  ",
"/ {$W ( P.i ]$S$c$++T${+D.D R.9.U$p.` V$^.W$$+G j+%+X$Y$Z$`$ %.%+%@%#%$%%%&%*%=%-%j@k@l@m@6@@@  ",
"~.U#C.B ~+8.;%Q.Y d$o.l 5+].m >%F ,%F.'%/+a.7+T.)%&+!%~%{%]%^%/%(%_%:%<%[%}%|%1%B@C@D@E@F@G@@@  ",
"~+j 2%{.k D.D z$E.U$]+3%4%S.5%$+q...%+/.(+H.I _+b._.6%7%8%9%0%a%b%c%d%e%f%g%h%W@X@Y@Z@`@ #.#@@  ",
"{+Y d$R.9.5+p.m #+^.i%F.G /+a.H T.+.j%U.k%_.s.#.#.#.l%m%n%H$E#o%p%q%r%G#s%3$t%u%:#<#[#}#|#1#@@  ",
"  v%w%]+0.F S. .'%q...7+/.)%&+(._+*+s.#.#.#.#.#.#.#.l%x%y%z%A%B%C%D%E%F%G%H%(#I%J%K%m#n#o#p#@@  ",
"    L%M%$+G j+%+H (+H.I U.b._.s.#.#.#.#.#.#.#.#.#.#.l%N%f#$%O%P%Q%R%S%T%U%V%W%=%=$X%Y%Z%O#P#@@  ",
"        `% &+.&+(.k%*+s.#.#.#.#.#.#.#.#.#.#.#.#.#.#.l%.&g#%%%$+&p$@&*%#&W@r$k#-%-$Y@t$$&%&&&@@  ",
"            *&=&#.#.#.#.#.#.#.#.#.#.#.#.#.#.#.#.#.#.l%-&h#&%;&V@>&,&'&)&!&~&l#j@;$Z@u$n#{&]&^&  ",
"              /&(&#.#.#.#.#.#.#.#.#.#.#.#.#.#.#.#.#.l%_&I#|%:&<&[&}&|&1&2&3&4&5&6&7&8&9&0&a&b&  ",
"                  c&w@#.#.#.#.#.#.#.#.#.#.#.#.#.#.#.l%d&J#1%6$:#O$e&f&g&h&i&j&k&l&m&n&o&p&q&    ",
"                      r&s&#.#.#.#.#.#.#.#.#.#.#.#.#.l%t&K#B@7$<#P$M#D@9$}#4@O#F@u&v&w&1+        ",
"                        x&y&:.#.#.#.#.#.#.#.#.#.#.#.l%z&-$Y@t$A&Q$N#E@0$|#5@B&C&D&E&            ",
"                            F&G&#.#.#.#.#.#.#.#.#.#.l%H&;$Z@u$n#l@,$ #I&p#J&K&b&                ",
"                                L&M&#.#.#.#.#.#.#.#.l%N&>$`@v$o#m@'$.#O&P&Q&R&                  ",
"                                    S&w+#.#.#.#.#.#.l%T&l&m&U&V&G@W&X&Y&1+                      ",
"                                      Z&`&9+#.#.#.#.l% *a$1#6@+@.*+*E&                          ",
"                                          @*#*#.#.#.l%$*+@+@%*&***=*                            ",
"                                              -*;*#.l%$*>*,*'*)*                                ",
"                                                  !*~*{*]*^*                                    ",
"                                                    /*E&                                        "};
