/* XPM */
static char * panelCopyYZ_xpm[] = {
"48 48 397 2",
"  	c None",
". 	c #FFFFFF",
"+ 	c #FBF4FE",
"@ 	c #FDF8FF",
"# 	c #FDF9FF",
"$ 	c #FFFEFF",
"% 	c #F6E7FC",
"& 	c #F7E9FD",
"* 	c #F8EDFD",
"= 	c #F9F1FD",
"- 	c #FBF5FE",
"; 	c #FBF7FE",
"> 	c #F3DDFB",
", 	c #F4E1FB",
"' 	c #F5E4FC",
") 	c #F5E6FC",
"! 	c #F7EAFC",
"~ 	c #F9EDFD",
"{ 	c #EED1F9",
"] 	c #EFD4F9",
"^ 	c #F0D8FA",
"/ 	c #F1D9FA",
"( 	c #F2DDFA",
"_ 	c #F4E3FB",
": 	c #F6E6FB",
"< 	c #E9C4F7",
"[ 	c #EAC8F8",
"} 	c #EBCAF8",
"| 	c #ECCDF8",
"1 	c #F0D4F9",
"2 	c #EFD6F9",
"3 	c #F2DDFB",
"4 	c #F3DFFB",
"5 	c #F4E2FB",
"6 	c #E4B8F6",
"7 	c #E5BBF6",
"8 	c #E6BDF7",
"9 	c #E7C1F6",
"0 	c #E9C4F8",
"a 	c #EAC5F7",
"b 	c #EBC9F8",
"c 	c #EDD1F9",
"d 	c #EED2F9",
"e 	c #F0D6F9",
"f 	c #F1DAFA",
"g 	c #F1DBFA",
"h 	c #E0ADF4",
"i 	c #E2B0F4",
"j 	c #E3B4F5",
"k 	c #E5B7F6",
"l 	c #E5BAF6",
"m 	c #E7BDF6",
"n 	c #E8C0F7",
"o 	c #E8C3F7",
"p 	c #EAC6F8",
"q 	c #ECCDF9",
"r 	c #EDCEF8",
"s 	c #EED3F9",
"t 	c #DCA1F3",
"u 	c #DDA4F3",
"v 	c #DEA7F4",
"w 	c #DFA9F4",
"x 	c #E1ADF4",
"y 	c #E2B0F5",
"z 	c #E4B6F5",
"A 	c #E5B9F5",
"B 	c #E7BFF6",
"C 	c #E8C2F7",
"D 	c #EBCAF7",
"E 	c #EBCCF8",
"F 	c #EDCEF9",
"G 	c #D794F1",
"H 	c #D898F1",
"I 	c #DA9BF1",
"J 	c #DA9DF2",
"K 	c #DCA1F2",
"L 	c #DEA5F3",
"M 	c #E1B1F5",
"N 	c #E3B3F5",
"O 	c #E3B5F5",
"P 	c #E5B9F6",
"Q 	c #EAC6F7",
"R 	c #D38BEF",
"S 	c #D58CEF",
"T 	c #D591F0",
"U 	c #D897F1",
"V 	c #D999F1",
"W 	c #DBA0F2",
"X 	c #DCA3F3",
"Y 	c #DEA6F3",
"Z 	c #E0AAF4",
"` 	c #E1AEF4",
" .	c #E2B3F5",
"..	c #E5B8F5",
"+.	c #E6BBF6",
"@.	c #E7BFF7",
"#.	c #E9C3F7",
"$.	c #CF7FEE",
"%.	c #CF80EE",
"&.	c #D184EF",
"*.	c #D288EF",
"=.	c #D48BF0",
"-.	c #D48DF0",
";.	c #D690F0",
">.	c #D895F1",
",.	c #D99AF2",
"'.	c #DB9FF2",
").	c #DDA6F3",
"!.	c #DFAAF4",
"~.	c #DFABF4",
"{.	c #E1AFF4",
"].	c #E2B2F5",
"^.	c #CA72EC",
"/.	c #CC73EC",
"(.	c #CD78ED",
"_.	c #CE7BED",
":.	c #CF7DED",
"<.	c #D081EF",
"[.	c #D184EE",
"}.	c #D389EF",
"|.	c #D590F0",
"1.	c #D692F0",
"2.	c #D896F1",
"3.	c #DA9AF2",
"4.	c #DC9FF2",
"5.	c #DCA2F3",
"6.	c #DFA8F4",
"7.	c #E0ABF4",
"8.	c #C564EB",
"9.	c #C668EB",
"0.	c #C86BEC",
"a.	c #CA6FEC",
"b.	c #CA71EC",
"c.	c #CC74EC",
"d.	c #CC77EC",
"e.	c #CD79ED",
"f.	c #CF7DEE",
"g.	c #D080EE",
"h.	c #D284EF",
"i.	c #D186EF",
"j.	c #D58FF0",
"k.	c #D692F1",
"l.	c #D999F2",
"m.	c #DA9BF2",
"n.	c #DDA3F3",
"o.	c #DFA8F3",
"p.	c #E0ACF3",
"q.	c #E2AFF4",
"r.	c #C15BE9",
"s.	c #C35FEA",
"t.	c #C361E9",
"u.	c #C86CEB",
"v.	c #CA70EC",
"w.	c #CB74ED",
"x.	c #CC76ED",
"y.	c #D083EE",
"z.	c #D286EF",
"A.	c #D48CEF",
"B.	c #D792F0",
"C.	c #D898F2",
"D.	c #DA9CF2",
"E.	c #DB9EF2",
"F.	c #DEA8F4",
"G.	c #BD4EE8",
"H.	c #BE52E8",
"I.	c #C053E8",
"J.	c #C157E9",
"K.	c #C25BE9",
"L.	c #C25CEA",
"M.	c #C461E9",
"N.	c #C767EB",
"O.	c #C869EB",
"P.	c #C96DEB",
"Q.	c #CC76EC",
"R.	c #CE7DEE",
"S.	c #D182EE",
"T.	c #D185EF",
"U.	c #D287EF",
"V.	c #DB9DF2",
"W.	c #B942E6",
"X.	c #B944E6",
"Y.	c #BA47E7",
"Z.	c #BC4BE7",
"`.	c #BE4EE8",
" +	c #BE50E8",
".+	c #BF54E8",
"++	c #C158E9",
"@+	c #C159E9",
"#+	c #C35DEA",
"$+	c #C460EA",
"%+	c #C564EA",
"&+	c #C666EB",
"*+	c #C86DEC",
"=+	c #CA6FEB",
"-+	c #CF7EED",
";+	c #D082EE",
">+	c #D284EE",
",+	c #D58EF0",
"'+	c #B436E4",
")+	c #B537E4",
"!+	c #B63BE5",
"~+	c #B73EE5",
"{+	c #B840E6",
"]+	c #B944E7",
"^+	c #BA48E6",
"/+	c #BD4DE7",
"(+	c #BE50E7",
"_+	c #C054E8",
":+	c #BF56E8",
"<+	c #C259E9",
"[+	c #C35DE9",
"}+	c #C562EA",
"|+	c #C665EA",
"1+	c #C86BEB",
"2+	c #C96FEC",
"3+	c #CD77EC",
"4+	c #D081EE",
"5+	c #D183EF",
"6+	c #D387EF",
"7+	c #D48DEF",
"8+	c #D794F0",
"9+	c #B02BE3",
"0+	c #B12FE3",
"a+	c #B332E4",
"b+	c #B334E4",
"c+	c #B73CE5",
"d+	c #B840E5",
"e+	c #BA48E7",
"f+	c #BC49E6",
"g+	c #BC4DE7",
"h+	c #BF52E8",
"i+	c #BF56E9",
"j+	c #C45FEA",
"k+	c #C462EA",
"l+	c #C665EB",
"m+	c #C768EB",
"n+	c #CB72EC",
"o+	c #CB74EC",
"p+	c #CF7CEE",
"q+	c #AB1EE1",
"r+	c #AD22E2",
"s+	c #AD23E1",
"t+	c #AE28E2",
"u+	c #B02AE2",
"v+	c #B230E4",
"w+	c #B334E3",
"x+	c #B438E5",
"y+	c #B639E4",
"z+	c #B73DE6",
"A+	c #BA45E6",
"B+	c #BB49E7",
"C+	c #BD4EE7",
"D+	c #C055E8",
"E+	c #C76BEC",
"F+	c #C96FEB",
"G+	c #CC78ED",
"H+	c #CE79ED",
"I+	c #A712E0",
"J+	c #A816E0",
"K+	c #A917E0",
"L+	c #AA1BE0",
"M+	c #AB1FE1",
"N+	c #AC20E1",
"O+	c #AD24E1",
"P+	c #AF27E2",
"Q+	c #B02BE2",
"R+	c #B02DE3",
"S+	c #B539E5",
"T+	c #B73DE5",
"U+	c #B842E6",
"V+	c #BA46E6",
"W+	c #BC4AE7",
"X+	c #BD4FE7",
"Y+	c #BE52E7",
"Z+	c #C056E9",
"`+	c #C057E9",
" @	c #C76BEB",
".@	c #CD7AED",
"+@	c #A205DD",
"@@	c #A309DE",
"#@	c #A40BDE",
"$@	c #A50FDF",
"%@	c #A712DF",
"&@	c #A713DF",
"*@	c #AA1AE1",
"=@	c #AD23E2",
"-@	c #B029E2",
";@	c #B12DE3",
">@	c #B231E3",
",@	c #B435E4",
"'@	c #B63CE5",
")@	c #BA45E7",
"!@	c #BB47E6",
"~@	c #BE4FE8",
"{@	c #C25BEA",
"]@	c #C25DE9",
"^@	c #C769EB",
"/@	c #C970EC",
"(@	c #A000DD",
"_@	c #A102DD",
":@	c #A206DD",
"<@	c #A207DE",
"[@	c #A40BDF",
"}@	c #A60EDF",
"|@	c #A611DF",
"1@	c #A713E0",
"2@	c #A817E0",
"3@	c #AB1DE1",
"4@	c #AC20E2",
"5@	c #AE24E2",
"6@	c #AE25E2",
"7@	c #AF29E3",
"8@	c #B230E3",
"9@	c #B232E3",
"0@	c #B63AE5",
"a@	c #B73EE6",
"b@	c #BB47E7",
"c@	c #BB4BE7",
"d@	c #BD4FE8",
"e@	c #BD51E7",
"f@	c #C15AE9",
"g@	c #C565EB",
"h@	c #C96EEC",
"i@	c #A103DD",
"j@	c #A50CDF",
"k@	c #A610DF",
"l@	c #A813E0",
"m@	c #A919E0",
"n@	c #AA1CE1",
"o@	c #AD22E1",
"p@	c #AD25E2",
"q@	c #B02CE3",
"r@	c #B12EE3",
"s@	c #B83EE5",
"t@	c #C25CE9",
"u@	c #C76AEB",
"v@	c #C96DEC",
"w@	c #A204DE",
"x@	c #A307DE",
"y@	c #A50DDF",
"z@	c #A815E0",
"A@	c #A919E1",
"B@	c #AC1FE1",
"C@	c #AF29E2",
"D@	c #B22EE3",
"E@	c #B331E3",
"F@	c #B73FE5",
"G@	c #B943E6",
"H@	c #BC4DE8",
"I@	c #BE51E7",
"J@	c #C35FE9",
"K@	c #C666EA",
"L@	c #A104DD",
"M@	c #A205DE",
"N@	c #A50CDE",
"O@	c #A610E0",
"P@	c #A612DF",
"Q@	c #AA19E0",
"R@	c #AC22E2",
"S@	c #AE27E2",
"T@	c #B433E4",
"U@	c #B437E4",
"V@	c #BA46E7",
"W@	c #BB49E6",
"X@	c #BD4CE8",
"Y@	c #C056E8",
"Z@	c #A002DD",
"`@	c #A409DE",
" #	c #A711E0",
".#	c #B333E4",
"+#	c #B539E4",
"@#	c #B740E6",
"##	c #B842E5",
"$#	c #B946E6",
"%#	c #BB4AE7",
"&#	c #BD4DE8",
"*#	c #A309DF",
"=#	c #A714DF",
"-#	c #AA1AE0",
";#	c #AE23E2",
">#	c #B029E3",
",#	c #B942E5",
"'#	c #A207DD",
")#	c #A40ADE",
"!#	c #A50EDF",
"~#	c #A714E0",
"{#	c #AA1DE1",
"]#	c #AE26E2",
"^#	c #A203DE",
"/#	c #A308DE",
"(#	c #A40ADF",
"_#	c #A814E0",
":#	c #AA19E1",
"<#	c #A104DE",
"[#	c #A40DDF",
"}#	c #AA1CE0",
"|#	c #A206DE",
"                                                                                      . .       ",
"                                                                                  + @ # $       ",
"                                                                              % & * = - ;       ",
"                                                                            > , ' ) ! ~ =       ",
"                                                                        { ] ^ / ( , _ : !       ",
"                                                                    < [ } | { 1 2 / 3 4 5       ",
"                                                                6 7 8 9 0 a b | c d e f g       ",
"                                                              h i j k l m n o p b q r s e       ",
"                                                          t u v w x y j z A 8 B C p D E F       ",
"                                                      G H I J K u L w h M N O P 7 B o Q [       ",
"                                                    R S T G U V J W X Y Z x `  .z ..+.@.#.      ",
"                                                $.%.&.*.=.-.;.G >.,.J '.X ).!.~.{.].j ..+.      ",
"                                            ^./.(._.:.<.[.*.}.-.|.1.2.3.J 4.5.Y 6.7.{.].j       ",
"                                        8.9.0.a.b.c.d.e.f.g.h.i.}.-.j.k.2.l.m.'.n.u o.p.q.      ",
"                                      r.s.t.8.9.0.u.v.w.x.e.f.%.y.z.}.A.j.B.2.C.D.E.K u F.      ",
"                                  G.H.I.J.K.L.M.8.N.O.P.b.^.Q.e.R.$.S.T.U.=.j.B.G C.I V.K       ",
"                              W.X.Y.Z.`. +.+++@+#+$+%+&+O.*+=+^.x.e._.-+;+>+U.R ,+T G H l.      ",
"                          '+)+!+~+{+]+^+Z./+(+_+:+<+[+$+}+|+O.1+2+^.Q.3+_.$.4+5+6+=.7+;.8+      ",
"                        9+0+a+b+)+!+c+d+X.e+f+g+ +h+i+@+[+j+k+l+m+0.2+n+o+(._.p+g.h.U.}.-.      ",
"                    q+r+s+t+u+0+v+w+x+y+z+{+]+A+B+g+C+h+D+<+K.s.}+%+m+E+F+v.c.G+H+R.%.&.z.      ",
"                I+J+K+L+M+N+O+P+Q+R+v+b+'+S+T+{+U+V+B+W+X+Y+Z+`+r.s.$+%+N. @*+v.w.x..@R.g.      ",
"            +@@@#@$@%@&@K+*@M+N+=@P+-@;@>@b+,@S+'@~+W.)@!@Z.~@h+.+`+{@]@$+%+m+^@u./@n+x..@      ",
"          (@(@_@:@<@[@}@|@1@2@L+3@4@5@6@7@;@8@9@,@S+0@a@U+A+b@c@d@e@.+`+f@[+M.%+g@^@P.h@n+      ",
"      (@(@(@(@(@(@_@i@<@[@j@k@l@2@m@n@4@o@p@-@q@r@a+,@)+!+s@W.X.Y.Z./+ +.+J.<+t@$+k+&+u@v@      ",
"      (@(@(@(@(@(@(@(@(@w@x@@@y@k@&@z@A@3@B@r+6@C@Q+D@E@b+)+0@F@{+G@!@B+H@I@.+Z+@+L.J@}+K@      ",
"      (@(@(@(@(@(@(@(@(@(@(@L@M@@@N@O@P@J+Q@L+q+R@6@S@Q+r@>@T@U@0@'@{+X.V@W@X@ +h+Y@f@          ",
"      (@(@(@(@(@(@(@(@(@(@(@(@(@Z@+@`@N@$@ #z@K+*@M+R@5@P+Q+q@>@.#)++#T+@###$#%#&#C+            ",
"      (@(@(@(@(@(@(@(@(@(@(@(@(@(@(@_@+@*#[@}@%@=#2@-#B@4@;#S@>#q@8@b+,@S+T+s@,#                ",
"      (@(@(@(@(@(@(@(@(@(@(@(@(@(@(@(@(@_@M@'#)#!#k@~#K+-#{#N+;#]#C@;@8@9@'+                    ",
"      (@(@(@(@(@(@(@(@(@(@(@(@(@(@(@(@(@(@(@Z@^#/#(#y@k@_#K+:#3@N+r+6@>#                        ",
"      (@(@(@(@(@(@(@(@(@(@(@(@(@(@(@(@(@(@(@(@(@(@<#/#`@[#k@~#J+:#}#M+                          ",
"      (@(@(@(@(@(@(@(@(@(@(@(@(@(@(@(@(@(@(@(@(@(@(@(@w@|#@@y@O@I+                              ",
"      (@(@(@(@(@(@(@(@(@(@(@(@(@(@(@(@(@(@(@(@(@(@(@(@(@(@_@M@                                  ",
"      (@(@(@(@(@(@(@(@(@(@(@(@(@(@(@(@(@(@(@(@(@(@(@(@(@(@                                      ",
"      (@(@(@(@(@(@(@(@(@(@(@(@(@(@(@(@(@(@(@(@(@(@(@(@(@                                        ",
"      (@(@(@(@(@(@(@(@(@(@(@(@(@(@(@(@(@(@(@(@(@(@(@                                            ",
"      (@(@(@(@(@(@(@(@(@(@(@(@(@(@(@(@(@(@(@(@(@                                                ",
"      (@(@(@(@(@(@(@(@(@(@(@(@(@(@(@(@(@(@(@                                                    ",
"      (@(@(@(@(@(@(@(@(@(@(@(@(@(@(@(@(@(@                                                      ",
"      (@(@(@(@(@(@(@(@(@(@(@(@(@(@(@(@                                                          ",
"      (@(@(@(@(@(@(@(@(@(@(@(@(@(@                                                              ",
"      (@(@(@(@(@(@(@(@(@(@(@(@(@                                                                ",
"      (@(@(@(@(@(@(@(@(@(@(@                                                                    ",
"      (@(@(@(@(@(@(@(@(@                                                                        ",
"      (@(@(@(@(@(@(@                                                                            ",
"      (@(@(@(@(@(@                                                                              ",
"      (@(@(@(@                                                                                  ",
"      (@(@                                                                                      "};
