/* XPM */
static char * panelMove2Face_xpm[] = {
"48 48 606 2",
"  	c None",
". 	c #8383FF",
"+ 	c #7878E2",
"@ 	c #8C8CFF",
"# 	c #9191FF",
"$ 	c #9595FF",
"% 	c #9A9AFF",
"& 	c #9F9FFF",
"* 	c #A3A3FF",
"= 	c #A8A8FF",
"- 	c #ADADFF",
"; 	c #B1B1FF",
"> 	c #B6B6FF",
", 	c #BBBBFF",
"' 	c #C0C0FF",
") 	c #C4C4FF",
"! 	c #C9C9FF",
"~ 	c #CECEFF",
"{ 	c #D2D2FF",
"] 	c #D7D7FF",
"^ 	c #DCDCFF",
"/ 	c #E1E0FF",
"( 	c #E5E5FF",
"_ 	c #EAEAFF",
": 	c #EEEFFF",
"< 	c #F3F3FF",
"[ 	c #F8F8FF",
"} 	c #FCFCFF",
"| 	c #E6E6E7",
"1 	c #7777FF",
"2 	c #6E6EE2",
"3 	c #8080FF",
"4 	c #8585FF",
"5 	c #8A8AFF",
"6 	c #8E8EFF",
"7 	c #9393FF",
"8 	c #9898FF",
"9 	c #9D9DFF",
"0 	c #A1A1FF",
"a 	c #A6A6FF",
"b 	c #ABABFF",
"c 	c #AFAFFF",
"d 	c #B4B4FF",
"e 	c #B9B9FF",
"f 	c #BDBDFF",
"g 	c #C2C2FF",
"h 	c #C7C7FF",
"i 	c #CBCCFF",
"j 	c #D0D0FF",
"k 	c #D5D5FF",
"l 	c #DADAFF",
"m 	c #DEDEFF",
"n 	c #E3E3FF",
"o 	c #E8E8FF",
"p 	c #ECECFF",
"q 	c #F1F1FF",
"r 	c #DEDEE7",
"s 	c #6A6AFF",
"t 	c #6262E2",
"u 	c #7373FF",
"v 	c #7878FF",
"w 	c #7D7DFF",
"x 	c #8182FF",
"y 	c #8686FF",
"z 	c #8B8BFF",
"A 	c #8F90FF",
"B 	c #9494FF",
"C 	c #9999FF",
"D 	c #9E9EFF",
"E 	c #A2A2FF",
"F 	c #A7A7FF",
"G 	c #ACACFF",
"H 	c #B0B0FF",
"I 	c #B5B5FF",
"J 	c #BABAFF",
"K 	c #BFBFFF",
"L 	c #C3C3FF",
"M 	c #C8C8FF",
"N 	c #CDCDFF",
"O 	c #D1D1FF",
"P 	c #D6D6FF",
"Q 	c #DBDBFF",
"R 	c #DFDFFF",
"S 	c #E4E4FF",
"T 	c #D2D2E7",
"U 	c #ECE7E7",
"V 	c #5D5DFF",
"W 	c #5757E2",
"X 	c #6666FF",
"Y 	c #6B6BFF",
"Z 	c #7070FF",
"` 	c #7574FF",
" .	c #7979FF",
"..	c #7E7EFF",
"+.	c #8787FF",
"@.	c #A4A4FF",
"#.	c #B2B2FF",
"$.	c #C5C4FF",
"%.	c #D2D3FF",
"&.	c #C6C6E7",
"*.	c #FFEFEF",
"=.	c #FEEAEA",
"-.	c #E1CACA",
";.	c #5050FF",
">.	c #4C4CE2",
",.	c #5A5AFF",
"'.	c #5E5EFF",
").	c #6363FF",
"!.	c #6868FF",
"~.	c #6C6CFF",
"{.	c #7171FF",
"].	c #7676FF",
"^.	c #7A7AFF",
"/.	c #7F7FFF",
"(.	c #8484FF",
"_.	c #8988FF",
":.	c #8D8DFF",
"<.	c #9292FF",
"[.	c #9797FF",
"}.	c #9B9BFF",
"|.	c #A0A0FF",
"1.	c #A5A5FF",
"2.	c #A9A9FF",
"3.	c #AEAEFF",
"4.	c #B3B3FF",
"5.	c #B7B8FF",
"6.	c #BCBCFF",
"7.	c #C1C1FF",
"8.	c #C6C6FF",
"9.	c #CACAFF",
"0.	c #BBBBE7",
"a.	c #FFE5E5",
"b.	c #FFE1E0",
"c.	c #FFDCDC",
"d.	c #F9D3D3",
"e.	c #D8B2B1",
"f.	c #4343FF",
"g.	c #4040E2",
"h.	c #4D4DFF",
"i.	c #5151FF",
"j.	c #5656FF",
"k.	c #5B5BFF",
"l.	c #5F5FFF",
"m.	c #6464FF",
"n.	c #6969FF",
"o.	c #6D6EFF",
"p.	c #7272FF",
"q.	c #7C7CFF",
"r.	c #9D9CFF",
"s.	c #ABAAFF",
"t.	c #AFAFE7",
"u.	c #FFDADA",
"v.	c #FFD6D6",
"w.	c #FFD2D2",
"x.	c #FFCECE",
"y.	c #FFCACA",
"z.	c #F2BBBB",
"A.	c #CD9999",
"B.	c #3636FF",
"C.	c #3535E2",
"D.	c #4040FF",
"E.	c #4444FF",
"F.	c #4949FF",
"G.	c #4E4EFF",
"H.	c #5252FF",
"I.	c #5757FF",
"J.	c #5C5CFF",
"K.	c #6060FF",
"L.	c #6565FF",
"M.	c #6F6FFF",
"N.	c #8281FF",
"O.	c #908FFF",
"P.	c #A3A3E7",
"Q.	c #FFD0CF",
"R.	c #FFCBCB",
"S.	c #FFC7C7",
"T.	c #FFC3C3",
"U.	c #FFBFBF",
"V.	c #FFBBBB",
"W.	c #FFB7B7",
"X.	c #E9A3A3",
"Y.	c #2929FF",
"Z.	c #2A2AE2",
"`.	c #3333FF",
" +	c #3737FF",
".+	c #3C3CFF",
"++	c #4141FF",
"@+	c #4545FF",
"#+	c #4A4AFF",
"$+	c #4F4FFF",
"%+	c #5354FF",
"&+	c #5858FF",
"*+	c #6262FF",
"=+	c #8283FF",
"-+	c #9897E7",
";+	c #FFC5C5",
">+	c #FFC1C1",
",+	c #FFBDBD",
"'+	c #FFB9B9",
")+	c #FFB4B4",
"!+	c #FFB0B0",
"~+	c #FFACAC",
"{+	c #FFA8A8",
"]+	c #FEA3A3",
"^+	c #DF8A8A",
"/+	c #1C1DFF",
"(+	c #2020E2",
"_+	c #2626FF",
":+	c #2A2BFF",
"<+	c #2F2FFF",
"[+	c #3434FF",
"}+	c #3939FF",
"|+	c #3D3DFF",
"1+	c #4242FF",
"2+	c #4747FF",
"3+	c #4B4BFF",
"4+	c #5555FF",
"5+	c #5A59FF",
"6+	c #8888FF",
"7+	c #9696FF",
"8+	c #8C8CE7",
"9+	c #FFBABA",
"0+	c #FFB6B6",
"a+	c #FFB2B2",
"b+	c #FFAEAE",
"c+	c #FFAAAA",
"d+	c #FFA6A6",
"e+	c #FFA2A2",
"f+	c #FF9D9D",
"g+	c #FF9999",
"h+	c #FF9595",
"i+	c #F88D8D",
"j+	c #D57474",
"k+	c #1010FF",
"l+	c #1616E2",
"m+	c #1919FF",
"n+	c #1E1EFF",
"o+	c #2222FF",
"p+	c #2727FF",
"q+	c #2C2CFF",
"r+	c #3030FF",
"s+	c #3535FF",
"t+	c #3A3AFF",
"u+	c #3E3EFF",
"v+	c #4848FF",
"w+	c #6D6DFF",
"x+	c #7B7BFF",
"y+	c #8080E7",
"z+	c #FFA4A3",
"A+	c #FF9F9F",
"B+	c #FF9B9B",
"C+	c #FF9797",
"D+	c #FF9393",
"E+	c #FF8F8F",
"F+	c #FF8B8B",
"G+	c #FF8686",
"H+	c #FF8282",
"I+	c #F17777",
"J+	c #0303FF",
"K+	c #0D0DE2",
"L+	c #0C0CFF",
"M+	c #1111FF",
"N+	c #1515FF",
"O+	c #1A1AFF",
"P+	c #1F1FFF",
"Q+	c #2323FF",
"R+	c #2828FF",
"S+	c #2D2DFF",
"T+	c #3132FF",
"U+	c #3B3BFF",
"V+	c #6E6FFF",
"W+	c #7474E7",
"X+	c #FFA5A5",
"Y+	c #FFA1A1",
"Z+	c #FF9191",
"`+	c #FF8D8C",
" @	c #FF8888",
".@	c #FF8484",
"+@	c #FF8080",
"@@	c #FF7C7C",
"#@	c #FF7878",
"$@	c #FF7474",
"%@	c #FF7070",
"&@	c #E66060",
"*@	c #0000FF",
"=@	c #0808E2",
"-@	c #0101FF",
";@	c #0404FF",
">@	c #0808FF",
",@	c #0D0DFF",
"'@	c #1212FF",
")@	c #1717FF",
"!@	c #1B1BFF",
"~@	c #2020FF",
"{@	c #2525FF",
"]@	c #2E2EFF",
"^@	c #5453FF",
"/@	c #6969E7",
"(@	c #FF9392",
"_@	c #FF8E8E",
":@	c #FF8A8A",
"<@	c #FF7E7E",
"[@	c #FF7A7A",
"}@	c #FF7676",
"|@	c #FF7171",
"1@	c #FF6D6D",
"2@	c #FF6969",
"3@	c #FF6565",
"4@	c #FF6161",
"5@	c #FD5C5C",
"6@	c #DD4B4B",
"7@	c #0202FF",
"8@	c #0505FF",
"9@	c #090AFF",
"0@	c #0E0EFF",
"a@	c #1313FF",
"b@	c #1818FF",
"c@	c #1C1CFF",
"d@	c #2121FF",
"e@	c #2A2AFF",
"f@	c #3838FF",
"g@	c #5959FF",
"h@	c #5D5DE7",
"i@	c #FF9090",
"j@	c #FF8C8C",
"k@	c #FF7777",
"l@	c #FF7373",
"m@	c #FF6F6F",
"n@	c #FF6B6B",
"o@	c #FF6767",
"p@	c #FF6363",
"q@	c #FF5F5F",
"r@	c #FF5A5A",
"s@	c #FF5656",
"t@	c #FF5252",
"u@	c #FF4E4E",
"v@	c #F74848",
"w@	c #D23838",
"x@	c #0606FF",
"y@	c #0B0BFF",
"z@	c #1414FF",
"A@	c #4C4CFF",
"B@	c #5151E7",
"C@	c #FF7D7D",
"D@	c #FF7979",
"E@	c #FF7575",
"F@	c #FF5C5C",
"G@	c #FF5858",
"H@	c #FF5454",
"I@	c #FF5050",
"J@	c #FF4C4C",
"K@	c #FF4848",
"L@	c #FF4444",
"M@	c #FF3F3F",
"N@	c #FF3B3B",
"O@	c #D52F3D",
"P@	c #0707FF",
"Q@	c #3131FF",
"R@	c #3F40FF",
"S@	c #4343E5",
"T@	c #FF7B7B",
"U@	c #FF6666",
"V@	c #FF6262",
"W@	c #FF5E5E",
"X@	c #FF4A49",
"Y@	c #FF4545",
"Z@	c #FF4141",
"`@	c #FF3D3D",
" #	c #FF3939",
".#	c #FF3535",
"+#	c #FF3131",
"@#	c #E22939",
"##	c #2425FF",
"$#	c #3130EF",
"%#	c #FF6C6C",
"&#	c #FF6868",
"*#	c #FF6464",
"=#	c #FF6060",
"-#	c #FF504F",
";#	c #FF4B4B",
">#	c #FF4747",
",#	c #FF4343",
"'#	c #FF3737",
")#	c #FF3333",
"!#	c #FF2E2F",
"~#	c #FF2A2A",
"{#	c #FF2626",
"]#	c #E22033",
"^#	c #1C1CF5",
"/#	c #2020D3",
"(#	c #FF5655",
"_#	c #FF5151",
":#	c #FF4D4D",
"<#	c #FF4949",
"[#	c #FF3534",
"}#	c #FF3030",
"|#	c #FF2C2C",
"1#	c #FF2828",
"2#	c #FF2424",
"3#	c #FF2020",
"4#	c #FF1C1C",
"5#	c #E2182E",
"6#	c #0606FD",
"7#	c #1111DD",
"8#	c #FF5B5B",
"9#	c #FF5757",
"0#	c #FF5353",
"a#	c #FF4F4F",
"b#	c #FF3F3E",
"c#	c #FF3A3A",
"d#	c #FF3636",
"e#	c #FF3232",
"f#	c #FF2E2E",
"g#	c #FF2222",
"h#	c #FF1E1E",
"i#	c #FF1A19",
"j#	c #FF1515",
"k#	c #FF1111",
"l#	c #E2112A",
"m#	c #0606E7",
"n#	c #FF4445",
"o#	c #FF4040",
"p#	c #FF3C3C",
"q#	c #FF3838",
"r#	c #FF3434",
"s#	c #FF2423",
"t#	c #FF1F1F",
"u#	c #FF1B1B",
"v#	c #FF1717",
"w#	c #FF1313",
"x#	c #FF0F0F",
"y#	c #FF0B0B",
"z#	c #FF0606",
"A#	c #E20A28",
"B#	c #0404F1",
"C#	c #0E0EC6",
"D#	c #FF4646",
"E#	c #FF4242",
"F#	c #FF3E3E",
"G#	c #FF2929",
"H#	c #FF2525",
"I#	c #FF2121",
"J#	c #FF1D1D",
"K#	c #FF1919",
"L#	c #FF0D0D",
"M#	c #FF0808",
"N#	c #FF0404",
"O#	c #FF0101",
"P#	c #FF0000",
"Q#	c #E20727",
"R#	c #0202F8",
"S#	c #0B0BD6",
"T#	c #FF3433",
"U#	c #FF2F2F",
"V#	c #FF2B2B",
"W#	c #FF2727",
"X#	c #FF2323",
"Y#	c #FF0F0E",
"Z#	c #FF0A0A",
"`#	c #FF0302",
" $	c #0808DF",
".$	c #FF2D2D",
"+$	c #FF1415",
"@$	c #FF1010",
"#$	c #FF0C0C",
"$$	c #5605DF",
"%$	c #C00978",
"&$	c #FF1A1A",
"*$	c #FF1616",
"=$	c #FF1212",
"-$	c #FF0E0E",
";$	c #FF0605",
">$	c #FF0202",
",$	c #2404F0",
"'$	c #B50799",
")$	c #F90202",
"!$	c #FD0101",
"~$	c #DE0909",
"{$	c #FF1818",
"]$	c #FF1414",
"^$	c #FF0707",
"/$	c #0101FA",
"($	c #9407B9",
"_$	c #EE0339",
":$	c #F70202",
"<$	c #D40B0B",
"[$	c #FF0909",
"}$	c #FF0505",
"|$	c #0000FE",
"1$	c #7107D0",
"2$	c #DD0659",
"3$	c #F00404",
"4$	c #C50E0E",
"5$	c #FF0303",
"6$	c #4804E7",
"7$	c #C50783",
"8$	c #FE0000",
"9$	c #E60707",
"0$	c #1D03F3",
"a$	c #AC07A5",
"b$	c #F5030F",
"c$	c #DA0A0A",
"d$	c #F10416",
"e$	c #7707CD",
"f$	c #0809DC",
"g$	c #8D07BE",
"h$	c #EA0442",
"i$	c #F50303",
"j$	c #D00C0C",
"k$	c #E50714",
"l$	c #EE0505",
"m$	c #A11062",
"n$	c #E40552",
"o$	c #7F07C8",
"p$	c #0707E6",
"q$	c #F2031C",
"r$	c #9E07B1",
"s$	c #0702F7",
"t$	c #0202F9",
"u$	c #0C0CCD",
"v$	c #CA077A",
"w$	c #FB0100",
"x$	c #B90793",
"y$	c #3804EC",
"z$	c #7607CC",
"A$	c #E10558",
"B$	c #D50669",
"C$	c #5E06DA",
"D$	c #0505EC",
"E$	c #0B0BD4",
"F$	c #0502F7",
"G$	c #9D07B2",
"H$	c #F1031F",
"I$	c #E90442",
"J$	c #8707C3",
"K$	c #0101FC",
"L$	c #0303F3",
"M$	c #0909DE",
"N$	c #0000FD",
"O$	c #3604ED",
"P$	c #B70796",
"Q$	c #F50310",
"R$	c #A707A9",
"S$	c #0703F5",
"T$	c #0101FB",
"U$	c #0A0AD8",
"V$	c #0606EB",
"W$	c #5D06DB",
"X$	c #D20671",
"Y$	c #FC0100",
"Z$	c #3E04E9",
"`$	c #0707E3",
" %	c #0D0DCB",
".%	c #0404F2",
"+%	c #8007C7",
"@%	c #E70544",
"#%	c #D90662",
"$%	c #6B06D4",
"%%	c #0505ED",
"&%	c #0A0AD7",
"*%	c #A307AD",
"=%	c #F50312",
"-%	c #EB0432",
";%	c #8C07BF",
">%	c #0303F5",
",%	c #0C0CD1",
"'%	c #0808E3",
")%	c #3C04EA",
"!%	c #C10789",
"~%	c #F8020E",
"{%	c #B1079E",
"]%	c #2E03F2",
"^%	c #0909DB",
"/%	c #6A06D6",
"(%	c #D80664",
"_%	c #C9077D",
":%	c #4D05E3",
"<%	c #0707E5",
"[%	c #0C0CCF",
"}%	c #0303F4",
"|%	c #8907C1",
"1%	c #E9043F",
"2%	c #E10552",
"3%	c #7607CE",
"4%	c #0505EE",
"5%	c #0A0ADB",
"6%	c #2C03F2",
"7%	c #AF07A1",
"8%	c #F6020F",
"9%	c #F0032A",
"0%	c #9A07B5",
"a%	c #0102FA",
"b%	c #0B0BD5",
"c%	c #0707E4",
"d%	c #4A05E6",
"e%	c #C70780",
"f%	c #F80200",
"g%	c #2F04EE",
"h%	c #0101FD",
"i%	c #6F06D2",
"j%	c #C10882",
"k%	c #5605E0",
"l%	c #0606E9",
"m%	c #0202F7",
"n%	c #0D0DCA",
"o%	c #1111AD",
"                                        . + @ # $ % & * = - ; > , ' ) ! ~ { ] ^ / ( _ : < [ } | ",
"                                        1 2 3 4 5 6 7 8 9 0 a b c d e f g h i j k l m n o p q r ",
"                                        s t u v w x y z A B C D E F G H I J K L M N O P Q R S T ",
"U                                       V W X Y Z `  .... +.@ # $ % & @.= - #.> , ' $.! ~ %.] &.",
"*.=.-.                                  ;.>.,.'.).!.~.{.].^./.(._.:.<.[.}.|.1.2.3.4.5.6.7.8.9.0.",
"a.b.c.d.e.                              f.g.h.i.j.k.l.m.n.o.p.1 q.3 4 5 6 7 8 r.0 a s.c d e f t.",
"u.v.w.x.y.z.A.                          B.C.D.E.F.G.H.I.J.K.L.s M.u v w N.y z O.B C D E F G H P.",
"Q.R.S.T.U.V.W.X.                        Y.Z.`. +.+++@+#+$+%+&+V *+X Y Z `  ...=++.@ # $ % & * -+",
";+>+,+'+)+!+~+{+]+^+                    /+(+_+:+<+[+}+|+1+2+3+;.4+5+'.).!.~.{.].^./.(.6+:.<.7+8+",
"9+0+a+b+c+d+e+f+g+h+i+j+                k+l+m+n+o+p+q+r+s+t+u+f.v+h.i.j.k.l.m.n.w+p.1 x+3 4 5 y+",
"!+~+{+z+A+B+C+D+E+F+G+H+I+              J+K+L+M+N+O+P+Q+R+S+T+B.U+D.E.F.G.H.I.J.K.L.s V+u v w W+",
"X+Y+f+g+h+Z+`+ @.@+@@@#@$@%@&@          *@=@-@;@>@,@'@)@!@~@{@Y.]@`. +.+++@+#+$+^@&+V *+X Y Z /@",
"B+C+(@_@:@G+H+<@[@}@|@1@2@3@4@5@6@      *@=@*@*@*@7@8@9@0@a@b@c@d@_+e@<+[+f@|+1+2+3+;.4+g@'.).h@",
"i@j@ @.@+@@@k@l@m@n@o@p@q@r@s@t@u@v@w@  *@=@*@*@*@*@*@*@7@x@y@k+z@m+n+o+p+q+r+s+t+u+f.v+A@i.j.B@",
"G+H+C@D@E@|@1@2@3@4@F@G@H@I@J@K@L@M@N@O@*@=@*@*@*@*@*@*@*@*@-@J+P@L+M+N+O+P+Q+R+S+Q@B.U+R@E.S@  ",
"T@k@l@m@n@U@V@W@r@s@t@u@X@Y@Z@`@ #.#+#@#*@=@*@*@*@*@*@*@*@*@*@*@*@-@;@>@,@'@)@!@~@##Y.]@$#      ",
"|@%#&#*#=#F@G@H@-#;#>#,#M@N@'#)#!#~#{#]#*@=@*@*@*@*@*@*@*@*@*@*@*@*@*@*@7@8@9@0@a@b@^#/#        ",
"U@V@W@r@(#_#:#<#Y@Z@`@ #[#}#|#1#2#3#4#5#*@=@*@*@*@*@*@*@*@*@*@*@*@*@*@*@*@*@*@7@6#7#            ",
"8#9#0#a#;#>#,#b#c#d#e#f#~#{#g#h#i#j#k#l#*@=@*@*@*@*@*@*@*@*@*@*@*@*@*@*@*@*@*@m#                ",
"_#:#<#n#o#p#q#r#}#|#1#s#t#u#v#w#x#y#z#A#*@=@*@*@*@*@*@*@*@*@*@*@*@*@*@*@*@B#C#                  ",
"D#E#F#c#d#e#f#G#H#I#J#K#j#k#L#M#N#O#P#Q#*@=@*@*@*@*@*@*@*@*@*@*@*@*@*@R#S#                      ",
"p#q#T#U#V#W#X#t#u#v#w#Y#Z#z#`#P#P#P#P#Q#*@=@*@*@*@*@*@*@*@*@*@*@*@*@ $                          ",
"+#.$G#H#I#J#K#+$@$#$M#N#O#P#P#P#P#P#P#Q#*@=@*@*@*@*@*@*@*@*@*@*@$$%$                            ",
"W#X#h#&$*$=$-$Z#;$>$P#P#P#P#P#P#P#P#P#Q#*@=@*@*@*@*@*@*@*@*@,$'$)$P#!$~$                        ",
"4#{$]$@$#$^$N#O#P#P#P#P#P#P#P#P#P#P#P#Q#*@=@*@*@*@*@*@*@/$($_$P#P#P#P#P#:$<$                    ",
"=$-$[$}$>$P#P#P#P#P#P#P#P#P#P#P#P#P#P#Q#*@=@*@*@*@*@|$1$2$P#P#P#P#P#P#P#P#P#3$4$                ",
"^$5$O#P#P#P#P#P#P#P#P#P#P#P#P#P#P#P#P#Q#*@=@*@*@*@6$7$8$P#P#P#P#P#P#P#P#P#P#P#P#9$              ",
"P#P#P#P#P#P#P#P#P#P#P#P#P#P#P#P#P#P#P#Q#*@=@*@0$a$b$P#P#P#P#P#P#P#P#P#P#P#P#P#P#P#!$c$          ",
"P#P#P#P#P#P#P#P#P#P#P#P#P#P#P#P#P#P#P#d$e$f$g$h$P#P#P#P#P#P#P#P#P#P#P#P#P#P#P#P#P#P#P#i$j$      ",
"P#P#P#P#P#P#P#P#P#P#P#P#P#P#P#P#P#P#P#P#8$k$P#P#P#P#P#P#P#P#P#P#P#P#P#P#P#P#P#P#P#P#P#P#P#l$    ",
"P#P#P#P#P#P#P#P#P#P#P#P#P#P#P#P#P#P#P#P#P#P#P#P#P#P#P#P#P#P#P#P#P#P#P#P#P#P#P#P#P#P#P#P#P#P#8$m$",
"P#P#P#P#P#P#P#P#P#P#P#P#P#P#P#P#P#P#P#P#P#P#P#P#P#P#P#P#P#P#P#P#P#P#P#P#P#P#P#P#P#P#P#P#P#n$o$p$",
"P#P#P#P#P#P#P#P#P#P#P#P#P#P#P#P#P#P#P#P#P#P#P#P#P#P#P#P#P#P#P#P#P#P#P#P#P#P#P#P#P#P#P#q$r$s$t$u$",
"v$8$P#P#P#P#P#P#P#P#P#P#P#P#P#P#P#P#P#P#P#P#P#P#P#P#P#P#P#P#P#P#P#P#P#P#P#P#P#P#P#w$x$y$|$ $    ",
"*@z$A$P#P#P#P#P#P#P#P#P#P#P#P#P#P#P#P#P#P#P#P#P#P#P#P#P#P#P#P#P#P#P#P#P#P#P#P#8$B$C$*@D$        ",
"E$t$F$G$H$P#P#P#P#P#P#P#P#P#P#P#P#P#P#P#P#P#P#P#P#P#P#P#P#P#P#P#P#P#P#P#P#P#I$J$K$L$u$          ",
"    M$N$O$P$w$P#P#P#P#P#P#P#P#P#P#P#P#P#P#P#P#P#P#P#P#P#P#P#P#P#P#P#P#P#Q$R$S$T$U$              ",
"        V$*@W$X$8$P#P#P#P#P#P#P#P#P#P#P#P#P#P#P#P#P#P#P#P#P#P#P#P#P#Y$7$Z$|$`$                  ",
"           %.%K$+%@%P#P#P#P#P#P#P#P#P#P#P#P#P#P#P#P#P#P#P#P#P#P#P##%$%*@%%                      ",
"              &%t$F$*%=%P#P#P#P#P#P#P#P#P#P#P#P#P#P#P#P#P#P#P#-%;%T$>%,%                        ",
"                  '%|$)%!%w$P#P#P#P#P#P#P#P#P#P#P#P#P#P#P#~%{%]%K$^%                            ",
"                      D$*@/%(%P#P#P#P#P#P#P#P#P#P#P#P#!$_%:%*@<%                                ",
"                        [%}%T$|%1%P#P#P#P#P#P#P#P#P#2%3%*@4%                                    ",
"                            5%T$6%7%8%P#P#P#P#P#9%0%a%R#b%                                      ",
"                                c%*@d%e%!$P#f%'$g%h%M$                                          ",
"                                    4%*@i%j%k%*@l%                                              ",
"                                      E$m%=@.%n%                                                ",
"                                          o%                                                    "};
