/* XPM */
static char * panelXYBetween_xpm[] = {
"48 48 477 2",
"  	c None",
". 	c #5B5BCE",
"+ 	c #3937DB",
"@ 	c #B1ACE5",
"# 	c #FAF4F4",
"$ 	c #FFF8F8",
"% 	c #E5D9D9",
"& 	c #0808D7",
"* 	c #9689DE",
"= 	c #EDDBE1",
"- 	c #FFEBEB",
"; 	c #FFE8E8",
"> 	c #FFE5E6",
", 	c #FFE3E3",
"' 	c #FBDCDC",
") 	c #DEBDBD",
"! 	c #0B0BD4",
"~ 	c #7161DA",
"{ 	c #DEC1D3",
"] 	c #FFDEDE",
"^ 	c #FFDBDB",
"/ 	c #FFD8D8",
"( 	c #FFD6D6",
"_ 	c #FFD3D3",
": 	c #FFD0D0",
"< 	c #FFCECE",
"[ 	c #FFCBCB",
"} 	c #F5C0C0",
"| 	c #D29F9F",
"1 	c #5140D9",
"2 	c #C8A2CA",
"3 	c #FDCFCF",
"4 	c #FFC9C9",
"5 	c #FFC6C6",
"6 	c #FFC3C3",
"7 	c #FFC0C1",
"8 	c #FFBEBE",
"9 	c #FFBBBB",
"0 	c #FFB9B9",
"a 	c #FFB6B6",
"b 	c #FFB3B3",
"c 	c #EEA3A3",
"d 	c #1C15D6",
"e 	c #AB81CE",
"f 	c #F6BCBD",
"g 	c #FFC1C1",
"h 	c #FFB4B4",
"i 	c #FFB1B1",
"j 	c #FFAEAE",
"k 	c #FFABAB",
"l 	c #FFA9A9",
"m 	c #FFA6A6",
"n 	c #FFA3A3",
"o 	c #FFA1A1",
"p 	c #FF9E9E",
"q 	c #FF9B9B",
"r 	c #E28485",
"s 	c #0B0CCE",
"t 	c #8A5FD0",
"u 	c #ECA7B0",
"v 	c #FFACAC",
"w 	c #FFA4A4",
"x 	c #FF9C9C",
"y 	c #FF9999",
"z 	c #FF9696",
"A 	c #FF9494",
"B 	c #FF9191",
"C 	c #FF8E8E",
"D 	c #FF8C8C",
"E 	c #FF8989",
"F 	c #FF8686",
"G 	c #FA8181",
"H 	c #DB6B6B",
"I 	c #8E5BBB",
"J 	c #EA9999",
"K 	c #FF8F8F",
"L 	c #FF8787",
"M 	c #FF8484",
"N 	c #FF8181",
"O 	c #FF7F7F",
"P 	c #FF7C7C",
"Q 	c #FF7979",
"R 	c #FF7777",
"S 	c #FF7474",
"T 	c #FF7171",
"U 	c #FF6F6F",
"V 	c #F36666",
"W 	c #D05252",
"X 	c #2F1CDB",
"Y 	c #B068BC",
"Z 	c #E28080",
"` 	c #F18787",
" .	c #FF6C6C",
"..	c #FF6A6A",
"+.	c #FF6767",
"@.	c #FF6464",
"#.	c #FF6262",
"$.	c #FF5F5F",
"%.	c #FF5C5C",
"&.	c #FF5A5A",
"*.	c #FF5757",
"=.	c #E94B4B",
"-.	c #0606E7",
";.	c #0000FF",
">.	c #5328E6",
",.	c #C56195",
"'.	c #E76E6E",
").	c #F67373",
"!.	c #FF7272",
"~.	c #FF5454",
"{.	c #FF5252",
"].	c #FF4F4F",
"^.	c #FF4D4C",
"/.	c #FF4A4A",
"(.	c #FF4747",
"_.	c #FF4445",
":.	c #FF4242",
"<.	c #FD3F3F",
"[.	c #E13333",
"}.	c #0000FE",
"|.	c #7B32D2",
"1.	c #D55473",
"2.	c #E85A5A",
"3.	c #FD5E5E",
"4.	c #FF5D5D",
"5.	c #FF5555",
"6.	c #FF4D4D",
"7.	c #FF4545",
"8.	c #FF3F3F",
"9.	c #FF3D3D",
"0.	c #FF3A3A",
"a.	c #FF3737",
"b.	c #FF3535",
"c.	c #FF3232",
"d.	c #FF2F2F",
"e.	c #FF2D2D",
"f.	c #FF2A2A",
"g.	c #F72626",
"h.	c #D81E1E",
"i.	c #0204F9",
"j.	c #A135B9",
"k.	c #DA4250",
"l.	c #EC4646",
"m.	c #FF3F40",
"n.	c #FF3838",
"o.	c #FF3030",
"p.	c #FF2828",
"q.	c #FF2525",
"r.	c #FF2222",
"s.	c #FF2020",
"t.	c #FF1D1D",
"u.	c #FF1B1B",
"v.	c #FF1818",
"w.	c #FF1515",
"x.	c #FF1313",
"y.	c #F11010",
"z.	c #0101FF",
"A.	c #0D0DFF",
"B.	c #1D1DFF",
"C.	c #4C2CEF",
"D.	c #B8369D",
"E.	c #E33030",
"F.	c #F23131",
"G.	c #FF2323",
"H.	c #FF1010",
"I.	c #FF0E0E",
"J.	c #FF0B0B",
"K.	c #FF0808",
"L.	c #FF0505",
"M.	c #FF0404",
"N.	c #FF0202",
"O.	c #FF0101",
"P.	c #FF0000",
"Q.	c #E80606",
"R.	c #0707FF",
"S.	c #1717FF",
"T.	c #2727FF",
"U.	c #3737FF",
"V.	c #4747FF",
"W.	c #7C4CDC",
"X.	c #CC3578",
"Y.	c #E81D1D",
"Z.	c #F81B1B",
"`.	c #FF1616",
" +	c #FF0606",
".+	c #FB0101",
"++	c #DF0909",
"@+	c #0303FF",
"#+	c #1111FF",
"$+	c #2121FF",
"%+	c #3131FF",
"&+	c #4142FF",
"*+	c #5252FF",
"=+	c #6262FF",
"-+	c #7071FC",
";+	c #A266C8",
">+	c #D91C2F",
",+	c #E80B0B",
"'+	c #FD0404",
")+	c #F50228",
"!+	c #A607AD",
"~+	c #080BD6",
"{+	c #0C0CFF",
"]+	c #1C1CFF",
"^+	c #2C2CFF",
"/+	c #3C3CFF",
"(+	c #4C4CFF",
"_+	c #5C5CFF",
":+	c #6C6CFF",
"<+	c #7C7CFF",
"[+	c #8D8DFF",
"}+	c #D31016",
"|+	c #E10808",
"1+	c #EE0505",
"2+	c #FC0101",
"3+	c #BF0692",
"4+	c #4109D7",
"5+	c #0606EA",
"6+	c #0606FF",
"7+	c #1616FF",
"8+	c #2626FF",
"9+	c #3636FF",
"0+	c #4646FF",
"a+	c #5656FF",
"b+	c #6767FF",
"c+	c #7777FF",
"d+	c #8787FF",
"e+	c #9797FF",
"f+	c #D60B0B",
"g+	c #E50707",
"h+	c #F50303",
"i+	c #D90569",
"j+	c #6908CD",
"k+	c #0606E8",
"l+	c #0101FA",
"m+	c #0202FF",
"n+	c #2120FF",
"o+	c #4141FF",
"p+	c #5151FF",
"q+	c #6161FF",
"r+	c #7171FF",
"s+	c #8181FF",
"t+	c #9191FF",
"u+	c #A1A1FF",
"v+	c #D90A0A",
"w+	c #F90202",
"x+	c #EA0442",
"y+	c #8D08BC",
"z+	c #0707E5",
"A+	c #0404F2",
"B+	c #0707E7",
"C+	c #0B0BFF",
"D+	c #1B1BFF",
"E+	c #2B2BFF",
"F+	c #3B3BFF",
"G+	c #4B4BFF",
"H+	c #5B5BFF",
"I+	c #6B6BFF",
"J+	c #8C8CFF",
"K+	c #9C9CFF",
"L+	c #ACACFF",
"M+	c #DE0909",
"N+	c #E90606",
"O+	c #F7021A",
"P+	c #AE06A7",
"Q+	c #1608E0",
"R+	c #0505ED",
"S+	c #0B0BE7",
"T+	c #1515FF",
"U+	c #2525FF",
"V+	c #3535FF",
"W+	c #4545FF",
"X+	c #6666FF",
"Y+	c #7676FF",
"Z+	c #8686FF",
"`+	c #9696FF",
" @	c #A6A6FF",
".@	c #B6B6FF",
"+@	c #D70A0A",
"@@	c #DF0808",
"#@	c #EF0505",
"$@	c #C70686",
"%@	c #4808D8",
"&@	c #0505FF",
"*@	c #1212E7",
"=@	c #2020FF",
"-@	c #3030FF",
";@	c #4040FF",
">@	c #5050FF",
",@	c #6060FF",
"'@	c #7070FF",
")@	c #8080FF",
"!@	c #9091FF",
"~@	c #B1B1FF",
"{@	c #C1C1FF",
"]@	c #DB092D",
"^@	c #750BB8",
"/@	c #0202F7",
"(@	c #1110FF",
"_@	c #1A1AE7",
":@	c #2A2AFF",
"<@	c #3A3AFF",
"[@	c #4A4AFF",
"}@	c #5A5AFF",
"|@	c #7B7BFF",
"1@	c #8B8BFF",
"2@	c #9B9BFF",
"3@	c #ABABFF",
"4@	c #BBBBFF",
"5@	c #CBCBFF",
"6@	c #681287",
"7@	c #0B0AFF",
"8@	c #1C1DFF",
"9@	c #2222E7",
"0@	c #3435FF",
"a@	c #5555FF",
"b@	c #6565FF",
"c@	c #7575FF",
"d@	c #8585FF",
"e@	c #9595FF",
"f@	c #A5A5FF",
"g@	c #C6C6FF",
"h@	c #D6D6FF",
"i@	c #2828FF",
"j@	c #2C2BE7",
"k@	c #3F3FFF",
"l@	c #4F4FFF",
"m@	c #5F5FFF",
"n@	c #6F6FFF",
"o@	c #9090FF",
"p@	c #A0A0FF",
"q@	c #B0B0FF",
"r@	c #C0C0FF",
"s@	c #D0D0FF",
"t@	c #E0E0FF",
"u@	c #2323FF",
"v@	c #3434FF",
"w@	c #3535E7",
"x@	c #4949FF",
"y@	c #6A6AFF",
"z@	c #7A7AFF",
"A@	c #8A8AFF",
"B@	c #9A9AFF",
"C@	c #AAAAFF",
"D@	c #BABAFF",
"E@	c #DBDBFF",
"F@	c #EBEBFF",
"G@	c #2E2EFF",
"H@	c #3E3EE7",
"I@	c #5454FF",
"J@	c #6464FF",
"K@	c #7474FF",
"L@	c #8484FF",
"M@	c #9494FF",
"N@	c #B5B5FF",
"O@	c #C5C5FF",
"P@	c #D5D5FF",
"Q@	c #E5E5FF",
"R@	c #F5F5FF",
"S@	c #2929FF",
"T@	c #4747E7",
"U@	c #5E5EFF",
"V@	c #6F6EFF",
"W@	c #7F7FFF",
"X@	c #8F8FFF",
"Y@	c #9F9FFF",
"Z@	c #AFAFFF",
"`@	c #BFBFFF",
" #	c #CFCFFF",
".#	c #F0F0FF",
"+#	c #FDFDFF",
"@#	c #5858FF",
"##	c #5151E7",
"$#	c #6969FF",
"%#	c #7979FF",
"&#	c #8989FF",
"*#	c #9999FF",
"=#	c #A9A9FF",
"-#	c #CACAFF",
";#	c #DADAFF",
">#	c #EAEAFF",
",#	c #FAFAFF",
"'#	c #E3E3E3",
")#	c #2F2FFF",
"!#	c #4140FF",
"~#	c #5A5AE7",
"{#	c #7373FF",
"]#	c #8383FF",
"^#	c #A4A4FF",
"/#	c #B4B4FF",
"(#	c #C4C4FF",
"_#	c #D4D4FF",
":#	c #E4E4FF",
"<#	c #E4E4EF",
"[#	c #4D4CFF",
"}#	c #6364E7",
"|#	c #7E7EFF",
"1#	c #8E8EFF",
"2#	c #9E9EFF",
"3#	c #AEAEFF",
"4#	c #BEBEFF",
"5#	c #D7D7F7",
"6#	c #C3C3D5",
"7#	c #1212FF",
"8#	c #6D6DE7",
"9#	c #8888FF",
"0#	c #9898FF",
"a#	c #B9B9FF",
"b#	c #C6C6FC",
"c#	c #BBBBDF",
"d#	c #1D1EFF",
"e#	c #5353FF",
"f#	c #7676E7",
"g#	c #9393FF",
"h#	c #A3A3FF",
"i#	c #B3B3FF",
"j#	c #AFAFE8",
"k#	c #1818FF",
"l#	c #4D4DFF",
"m#	c #8282FF",
"n#	c #8080E7",
"o#	c #9D9DFF",
"p#	c #A1A1F0",
"q#	c #2423FF",
"r#	c #5959FF",
"s#	c #7C7DFF",
"t#	c #7D7ED5",
"u#	c #8A8AD8",
"v#	c #1E1EFF",
"w#	c #2F30FF",
"x#	c #B8B8FF",
"y#	c #0809E8",
"z#	c #2424FF",
"A#	c #7D7DFF",
"B#	c #B2B2FF",
"C#	c #1010E8",
"D#	c #4242FF",
"E#	c #1919E8",
"F#	c #4E4DFF",
"G#	c #A7A7FF",
"H#	c #DCDCFF",
"I#	c #2222E8",
"J#	c #4848FF",
"K#	c #5A59FF",
"L#	c #E8E8FF",
"M#	c #2D2DE8",
"N#	c #6665FF",
"O#	c #ADADFF",
"P#	c #D0D1FF",
"Q#	c #E2E2FF",
"R#	c #F4F4FF",
"S#	c #3737E8",
"T#	c #4E4EFF",
"U#	c #7271FF",
"V#	c #EEEEFF",
"W#	c #4242E8",
"X#	c #D7D7FF",
"Y#	c #F5F5FB",
"Z#	c #DDDDDD",
"`#	c #4C4CE8",
" $	c #7878FF",
".$	c #D1D1FF",
"+$	c #E2E3FF",
"@$	c #D7D7E3",
"#$	c #5757E8",
"$$	c #7272FF",
"%$	c #CCCCEE",
"&$	c #6262E8",
"*$	c #A1A2FF",
"=$	c #BEBEF7",
"-$	c #AEAED4",
";$	c #6D6DE8",
">$	c #ABABFC",
",$	c #A3A3DF",
"'$	c #7878E8",
")$	c #9595E7",
"!$	c #7171CC",
"                                  .                                                             ",
"                              + @ # $ %                                                         ",
"                          & * = - ; > , ' )                                                     ",
"                      ! ~ { ] ^ / ( _ : < [ } |                                                 ",
"                    1 2 3 < [ 4 5 6 7 8 9 0 a b c                                               ",
"                d e f g 8 9 0 a h i j k l m n o p q r                                           ",
"            s t u b i j v l m w o p x y z A B C D E F G H                                       ",
"            I J w o p x y z A B K D E L M N O P Q R S T U V W                                   ",
"            X Y Z ` D E L M N O P Q R S T U  ...+.@.#.$.%.&.*.=.                                ",
"            -.;.>.,.'.).S !.U  ...+.@.#.$.%.&.*.~.{.].^./.(._.:.<.[.                            ",
"            -.;.;.}.|.1.2.3.4.&.*.5.{.].6./.(.7.:.8.9.0.a.b.c.d.e.f.g.h.                        ",
"            -.;.;.;.;.i.j.k.l.(.7.:.m.9.0.n.b.c.o.e.f.p.q.r.s.t.u.v.w.x.y.                      ",
"            -.;.;.;.z.A.B.C.D.E.F.o.e.f.p.q.G.s.t.u.v.w.x.H.I.J.K.L.M.N.O.P.Q.                  ",
"            -.;.;.;.R.S.T.U.V.W.X.Y.Z.v.`.x.H.I.J.K. +M.N.O.P.P.P.P.P.P.P.P.P..+++              ",
"            -.;.;.@+#+$+%+&+*+=+-+;+>+,+'+N.O.P.P.P.P.P.P.P.P.P.P.P.P.P.P.P.P.)+!+~+            ",
"            -.;.z.{+]+^+/+(+_+:+<+[+  }+|+1+P.P.P.P.P.P.P.P.P.P.P.P.P.P.P.2+3+4+5+}.            ",
"            -.;.6+7+8+9+0+a+b+c+d+e+      f+g+h+P.P.P.P.P.P.P.P.P.P.P.P.i+j+k+l+;.;.            ",
"            -.m+#+n+%+o+p+q+r+s+t+u+          v+Q.w+P.P.P.P.P.P.P.P.x+y+z+A+;.;.;.;.            ",
"            B+C+D+E+F+G+H+I+<+J+K+L+              M+N+P.P.P.P.P.O+P+Q+R+;.;.;.;.;.;.            ",
"            S+T+U+V+W+a+X+Y+Z+`+ @.@                +@@@#@P.P.$@%@k+}.;.;.;.;.;.;.&@            ",
"            *@=@-@;@>@,@'@)@!@u+~@{@                    +@]@^@k+/@;.;.;.;.;.;.;.m+(@            ",
"            _@:@<@[@}@I+|@1@2@3@4@5@                      6@B+;.;.;.;.;.;.;.;.;.7@8@            ",
"            9@0@W+a@b@c@d@e@f@.@g@h@                        k+;.;.;.;.;.;.;.;.&@S.i@            ",
"            j@k@l@m@n@)@o@p@q@r@s@t@                        k+;.;.;.;.;.;.;.m+#+u@v@            ",
"            w@x@}@y@z@A@B@C@D@5@E@F@                        k+;.;.;.;.;.;.;.C+B.G@;@            ",
"            H@I@J@K@L@M@f@N@O@P@Q@R@                        k+;.;.;.;.;.;.&@S.S@<@(+            ",
"            T@U@V@W@X@Y@Z@`@ #t@.#+#                        k+;.;.;.;.;.m+#+u@V+0+@#            ",
"            ##$#%#&#*#=#D@-#;#>#,#'#                        k+;.;.;.;.;.C+B.)#!#*+J@            ",
"            ~#{#]#M@^#/#(#_#:#<#                            k+;.;.;.;.6+S.S@F+[#U@'@            ",
"            }#|#1#2#3#4# #5#6#                              k+;.;.;.m+7#u@V+V.@#y@<+            ",
"            8#9#0#=#a#b#c#                                  k+;.;.;.{+d#)#o+e#J@Y+9#            ",
"            f#g#h#i#j#                                      k+;.;.6+k#S@F+l#m@'@m#M@            ",
"            n#o#p#                                          k+;.m+7#q#V+V.r#I+s#1#p@            ",
"            t#u#                                            k+;.{+v#w#o+e#b@c+9#B@L+            ",
"                                                            k+6+k#:@F+l#m@r+]#M@ @x#            ",
"                                                            y#7#z#9+V.r#I+A#X@p@B#(#            ",
"                                                            C#v#-@D#e#b@c+&#2@L+4#s@            ",
"                                                            E#:@/+F#m@r+]#e@G#x#-#H#            ",
"                                                            I#9+J#K#I+A#X@u+i#(#h@L#            ",
"                                                            M#D#I@N#c+&#2@O#`@P#Q#R#            ",
"                                                            S#T#,@U#]#e@G#a#5@H#V#+#            ",
"                                                            W#}@:+A#X@u+i#O@X#L#Y#Z#            ",
"                                                            `#X+ $&#2@O#`@.$+$@$                ",
"                                                            #$$$L@e@G#a#5@%$                    ",
"                                                            &$|#o@*$i#=$-$                      ",
"                                                            ;$A@K+>$,$                          ",
"                                                            '$`+)$                              ",
"                                                            !$                                  "};
