/* XPM */
static char * panelXYCover_xpm[] = {
"48 48 642 2",
"  	c None",
". 	c #D8A2A2",
"+ 	c #EAA9A9",
"@ 	c #F0BABA",
"# 	c #FFBFBF",
"$ 	c #FFB7B6",
"% 	c #FFAFAE",
"& 	c #EC9A9A",
"* 	c #E5BEBE",
"= 	c #FFCDCD",
"- 	c #FFC5C5",
"; 	c #FFBDBD",
"> 	c #FFB5B4",
", 	c #FFACAC",
"' 	c #FFA4A4",
") 	c #FB9A9A",
"! 	c #E28383",
"~ 	c #DFC6C6",
"{ 	c #F9D6D6",
"] 	c #FFD3D3",
"^ 	c #FFCBCB",
"/ 	c #FFC3C3",
"( 	c #FFBBBB",
"_ 	c #FFB3B3",
": 	c #FFAAAA",
"< 	c #FFA2A2",
"[ 	c #FF9A9A",
"} 	c #FF9292",
"| 	c #F68585",
"1 	c #D86E6E",
"2 	c #F3DEDE",
"3 	c #FFE2E2",
"4 	c #FFDAD9",
"5 	c #FFD1D1",
"6 	c #FFC9C9",
"7 	c #FFC1C1",
"8 	c #FFB9B9",
"9 	c #FFB1B1",
"0 	c #FFA8A8",
"a 	c #FFA0A0",
"b 	c #FF9898",
"c 	c #FF9090",
"d 	c #FF8888",
"e 	c #FF807F",
"f 	c #EF7070",
"g 	c #EEE7E6",
"h 	c #FFF0F0",
"i 	c #FFE8E8",
"j 	c #FFE0E0",
"k 	c #FFD7D7",
"l 	c #FFCFCF",
"m 	c #FFC7C7",
"n 	c #FFB7B7",
"o 	c #FFA6A6",
"p 	c #FF9E9E",
"q 	c #FF9696",
"r 	c #FF8E8E",
"s 	c #FF8686",
"t 	c #FF7E7E",
"u 	c #FF7575",
"v 	c #FF6D6D",
"w 	c #E65B5B",
"x 	c #BDBDBD",
"y 	c #F7F5F5",
"z 	c #FFF6F6",
"A 	c #FFEEEE",
"B 	c #FFE6E6",
"C 	c #FFDEDE",
"D 	c #FFD5D5",
"E 	c #FFB5B5",
"F 	c #FFADAD",
"G 	c #FFA4A5",
"H 	c #FF9C9C",
"I 	c #FF9494",
"J 	c #FF8C8C",
"K 	c #FF8484",
"L 	c #FF7C7C",
"M 	c #FF7373",
"N 	c #FF6B6B",
"O 	c #FF6363",
"P 	c #FA5959",
"Q 	c #E04949",
"R 	c #6E6EDB",
"S 	c #C3C0D2",
"T 	c #ECE1E2",
"U 	c #FDEAEA",
"V 	c #FFE4E4",
"W 	c #FFDCDC",
"X 	c #FFD4D4",
"Y 	c #FFABAB",
"Z 	c #FF8A8A",
"` 	c #FF8282",
" .	c #FF7979",
"..	c #FF7171",
"+.	c #FF6969",
"@.	c #FF6161",
"#.	c #FF5959",
"$.	c #FF5151",
"%.	c #F64646",
"&.	c #D53737",
"*.	c #0505ED",
"=.	c #0707E7",
"-.	c #827AE7",
";.	c #D5C3D1",
">.	c #EDD2D2",
",.	c #FFDADA",
"'.	c #FFA9A9",
").	c #FF8080",
"!.	c #FF7877",
"~.	c #FF6F6F",
"{.	c #FF6767",
"].	c #FF5F5F",
"^.	c #FF5757",
"/.	c #FF4F4F",
"(.	c #FF4647",
"_.	c #FF3E3E",
":.	c #EF3333",
"<.	c #0707ED",
"[.	c #0D0CE8",
"}.	c #0F0FFF",
"|.	c #1213F7",
"1.	c #A28DDC",
"2.	c #DFBCC1",
"3.	c #F4C6C6",
"4.	c #FFAFAF",
"5.	c #FFA7A7",
"6.	c #FF7676",
"7.	c #FF6565",
"8.	c #FF5D5D",
"9.	c #FF5555",
"0.	c #FF4D4D",
"a.	c #FF4544",
"b.	c #FF3C3C",
"c.	c #FF3434",
"d.	c #FF2C2C",
"e.	c #E52222",
"f.	c #1010ED",
"g.	c #1515E8",
"h.	c #1A1AFF",
"i.	c #2121FF",
"j.	c #2929FF",
"k.	c #4A41F0",
"l.	c #B895CA",
"m.	c #E7B3B3",
"n.	c #F9B8B8",
"o.	c #FFA5A5",
"p.	c #FF9C9D",
"q.	c #FF7374",
"r.	c #FF5B5B",
"s.	c #FF5353",
"t.	c #FF4B4B",
"u.	c #FF4342",
"v.	c #FF3A3A",
"w.	c #FF3232",
"x.	c #FF2A2A",
"y.	c #FF2222",
"z.	c #F91A1A",
"A.	c #DE1414",
"B.	c #1919ED",
"C.	c #1E1EE8",
"D.	c #2626FF",
"E.	c #2D2DFF",
"F.	c #3434FF",
"G.	c #3B3BFF",
"H.	c #4243FF",
"I.	c #7561E8",
"J.	c #C894B1",
"K.	c #EBA5A5",
"L.	c #FEAAAA",
"M.	c #FFA3A3",
"N.	c #FF7A7A",
"O.	c #FF7271",
"P.	c #FF4949",
"Q.	c #FF4040",
"R.	c #FF3838",
"S.	c #FF3030",
"T.	c #FF2828",
"U.	c #FF2020",
"V.	c #FF1818",
"W.	c #FF1010",
"X.	c #F30A0A",
"Y.	c #2323ED",
"Z.	c #2828E8",
"`.	c #3131FF",
" +	c #3938FF",
".+	c #4040FF",
"++	c #4747FF",
"@+	c #4E4EFF",
"#+	c #5555FF",
"$+	c #5C5CFE",
"%+	c #9D78D6",
"&+	c #D99098",
"*+	c #EF9696",
"=+	c #FF7878",
"-+	c #FF706F",
";+	c #FF4747",
">+	c #FF3F3E",
",+	c #FF3636",
"'+	c #FF2E2E",
")+	c #FF2626",
"!+	c #FF1E1E",
"~+	c #FF1616",
"{+	c #FF0E0E",
"]+	c #FF0505",
"^+	c #FF0000",
"/+	c #EC0505",
"(+	c #2D2DED",
"_+	c #3232E8",
":+	c #3D3DFF",
"<+	c #4444FF",
"[+	c #4B4BFF",
"}+	c #5352FF",
"|+	c #5A5AFF",
"1+	c #6161FF",
"2+	c #6868FF",
"3+	c #6F6FFF",
"4+	c #7875F9",
"5+	c #B075BD",
"6+	c #E28585",
"7+	c #F38787",
"8+	c #FF6E6E",
"9+	c #FF4545",
"0+	c #FF3C3D",
"a+	c #FF2424",
"b+	c #FF1C1C",
"c+	c #FF1414",
"d+	c #FF0B0C",
"e+	c #FF0303",
"f+	c #F20404",
"g+	c #E10807",
"h+	c #AA0D75",
"i+	c #3838ED",
"j+	c #3C3CE8",
"k+	c #4849FF",
"l+	c #5050FF",
"m+	c #5757FF",
"n+	c #5E5EFF",
"o+	c #6565FF",
"p+	c #6C6DFF",
"q+	c #7474FF",
"r+	c #7B7BFF",
"s+	c #8282FF",
"t+	c #5353F2",
"u+	c #4827ED",
"v+	c #C069A7",
"w+	c #EC7A7A",
"x+	c #F87978",
"y+	c #FF7474",
"z+	c #FF6C6B",
"A+	c #FF4343",
"B+	c #FF3B3B",
"C+	c #FF1A1A",
"D+	c #FF1212",
"E+	c #F80B0B",
"F+	c #EA0708",
"G+	c #BF0888",
"H+	c #4B09D2",
"I+	c #0A0AD7",
"J+	c #4242ED",
"K+	c #4747E8",
"L+	c #5454FF",
"M+	c #5B5BFF",
"N+	c #6262FF",
"O+	c #6A6AFF",
"P+	c #7171FF",
"Q+	c #7878FF",
"R+	c #7F7FFF",
"S+	c #8686FF",
"T+	c #8E8EFF",
"U+	c #5B5BF2",
"V+	c #0D0DFF",
"W+	c #1414FF",
"X+	c #773EDA",
"Y+	c #CD628C",
"Z+	c #EB6969",
"`+	c #FE6969",
" @	c #FF4141",
".@	c #FF3839",
"+@	c #FD1818",
"@@	c #EB1212",
"#@	c #CE0D6C",
"$@	c #7406D6",
"%@	c #0000FF",
"&@	c #0606E9",
"*@	c #4D4DED",
"=@	c #5151E8",
"-@	c #6060FF",
";@	c #6767FF",
">@	c #6E6EFF",
",@	c #7575FF",
"'@	c #7D7DFF",
")@	c #8484FF",
"!@	c #8B8BFF",
"~@	c #9292FF",
"{@	c #9999FF",
"]@	c #6363F2",
"^@	c #1919FF",
"/@	c #2020FF",
"(@	c #2828FF",
"_@	c #2E2EFA",
":@	c #9C4BC5",
"<@	c #DA596E",
"[@	c #F15A5A",
"}@	c #FF3F3F",
"|@	c #FF3737",
"1@	c #EE1D1D",
"2@	c #DD1744",
"3@	c #9712C0",
"4@	c #0C0CFB",
"5@	c #0809FF",
"6@	c #0606FF",
"7@	c #0809E9",
"8@	c #0B0CD7",
"9@	c #5858ED",
"0@	c #5B5CE8",
"a@	c #6B6BFF",
"b@	c #7273FF",
"c@	c #7A7AFF",
"d@	c #8181FF",
"e@	c #8888FF",
"f@	c #8F8FFF",
"g@	c #9796FF",
"h@	c #9E9EFF",
"i@	c #A5A5FF",
"j@	c #6C6CF2",
"k@	c #2525FF",
"l@	c #5A49F0",
"m@	c #B450AE",
"n@	c #E64D4C",
"o@	c #F64A4A",
"p@	c #FF3D3D",
"q@	c #FF3435",
"r@	c #F22B2B",
"s@	c #E62222",
"t@	c #B31DA7",
"u@	c #321AF3",
"v@	c #1717FF",
"w@	c #1112FF",
"x@	c #0F0FE9",
"y@	c #1010D7",
"z@	c #6262ED",
"A@	c #6666E8",
"B@	c #7777FF",
"C@	c #7E7EFF",
"D@	c #8585FF",
"E@	c #8D8DFF",
"F@	c #9494FF",
"G@	c #9B9BFF",
"H@	c #A2A2FF",
"I@	c #A9A9FF",
"J@	c #B1B1FF",
"K@	c #7575F2",
"L@	c #3232FF",
"M@	c #3939FF",
"N@	c #4848FF",
"O@	c #4F4FFF",
"P@	c #5656FF",
"Q@	c #5D5DFF",
"R@	c #785EE6",
"S@	c #C74A81",
"T@	c #EB3E3E",
"U@	c #F33838",
"V@	c #EC2F2F",
"W@	c #C42883",
"X@	c #5927E7",
"Y@	c #2323FF",
"Z@	c #1D1DFF",
"`@	c #1817FF",
" #	c #1616E9",
".#	c #1515D7",
"+#	c #6D6DED",
"@#	c #7170E8",
"##	c #8283FF",
"$#	c #8A8AFF",
"%#	c #9191FF",
"&#	c #9898FF",
"*#	c #9F9FFF",
"=#	c #A7A7FF",
"-#	c #AEAEFF",
";#	c #B5B5FF",
">#	c #BCBCFF",
",#	c #7E7EF2",
"'#	c #3E3EFF",
")#	c #4545FF",
"!#	c #4D4DFF",
"~#	c #6362FF",
"{#	c #7979FF",
"]#	c #9B67CA",
"^#	c #B7317B",
"/#	c #8133D2",
"(#	c #3435FF",
"_#	c #3231FF",
":#	c #2F2FFF",
"<#	c #2C2CFF",
"[#	c #1D1DE9",
"}#	c #1B1BD7",
"|#	c #7878ED",
"1#	c #7B7BE8",
"2#	c #9595FF",
"3#	c #9D9DFF",
"4#	c #A4A4FF",
"5#	c #ABABFF",
"6#	c #B2B2FF",
"7#	c #B9B9FF",
"8#	c #C0C0FF",
"9#	c #C8C8FF",
"0#	c #8888F2",
"a#	c #4B4AFF",
"b#	c #5252FF",
"c#	c #5959FF",
"d#	c #7676FF",
"e#	c #7F80EE",
"f#	c #3D3DE5",
"g#	c #3838FF",
"h#	c #3535FF",
"i#	c #2525E9",
"j#	c #2121D7",
"k#	c #8383ED",
"l#	c #8586E8",
"m#	c #9A9AFF",
"n#	c #A1A1FF",
"o#	c #A8A8FF",
"p#	c #AFAFFF",
"q#	c #B6B7FF",
"r#	c #BEBEFF",
"s#	c #C5C5FF",
"t#	c #CCCCFF",
"u#	c #D3D3FF",
"v#	c #9292F2",
"w#	c #6D6DFF",
"x#	c #8383FF",
"y#	c #8B8BEE",
"z#	c #4445E5",
"A#	c #4949FF",
"B#	c #4646FF",
"C#	c #4343FF",
"D#	c #4141FF",
"E#	c #2C2CE9",
"F#	c #2828D7",
"G#	c #8D8DED",
"H#	c #9090E8",
"I#	c #ACACFF",
"J#	c #B4B4FF",
"K#	c #BBBBFF",
"L#	c #C2C2FF",
"M#	c #C9C9FF",
"N#	c #D1D1FF",
"O#	c #D8D8FF",
"P#	c #DFDFFF",
"Q#	c #9C9CF2",
"R#	c #6363FF",
"S#	c #7272FF",
"T#	c #8180FF",
"U#	c #9696FF",
"V#	c #9E9DFF",
"W#	c #9696EE",
"X#	c #4C4CE5",
"Y#	c #4C4CFF",
"Z#	c #4746FF",
"`#	c #3434E9",
" $	c #2F2FD7",
".$	c #9898ED",
"+$	c #9B9BE8",
"@$	c #B8B8FF",
"#$	c #BFBFFF",
"$$	c #C7C6FF",
"%$	c #CECEFF",
"&$	c #D5D5FF",
"*$	c #DCDCFF",
"=$	c #E3E3FF",
"-$	c #EBEAFF",
";$	c #A6A6F2",
">$	c #7070FF",
",$	c #8685FF",
"'$	c #A3A3FF",
")$	c #AAAAFF",
"!$	c #A2A2EE",
"~$	c #5454E5",
"{$	c #5858FF",
"]$	c #4A4AFF",
"^$	c #3C3CE9",
"/$	c #3636D7",
"($	c #A3A3ED",
"_$	c #A5A5E8",
":$	c #C4C4FF",
"<$	c #CBCBFF",
"[$	c #D2D2FF",
"}$	c #D9D9FF",
"|$	c #E1E1FF",
"1$	c #E8E8FF",
"2$	c #EFEFFF",
"3$	c #F6F6FF",
"4$	c #B1B1F2",
"5$	c #7C7CFF",
"6$	c #A0A1FF",
"7$	c #B6B6FF",
"8$	c #ADADEE",
"9$	c #5C5CE5",
"0$	c #6464FF",
"a$	c #5556FF",
"b$	c #5353FF",
"c$	c #4444E9",
"d$	c #3D3DD7",
"e$	c #AEAEED",
"f$	c #B0B0E8",
"g$	c #CFCFFF",
"h$	c #D7D6FF",
"i$	c #DEDEFF",
"j$	c #E5E5FF",
"k$	c #ECECFF",
"l$	c #F3F3FF",
"m$	c #FAFAFF",
"n$	c #F7F7F7",
"o$	c #A0A0D9",
"p$	c #8585F8",
"q$	c #9090FF",
"r$	c #9797FF",
"s$	c #A6A6FF",
"t$	c #ADADFF",
"u$	c #C3C3FF",
"v$	c #B9B9EE",
"w$	c #6464E5",
"x$	c #5C5CFF",
"y$	c #4C4CE9",
"z$	c #4444D7",
"A$	c #B9B9ED",
"B$	c #BABAE8",
"C$	c #D4D4FF",
"D$	c #DBDBFF",
"E$	c #E2E2FF",
"F$	c #E9E9FF",
"G$	c #F1F1FF",
"H$	c #F8F8FF",
"I$	c #FDFDFE",
"J$	c #E3E3E3",
"K$	c #8A8AE4",
"L$	c #A3A3FE",
"M$	c #C1C1FF",
"N$	c #C4C4EE",
"O$	c #6C6CE5",
"P$	c #7373FF",
"Q$	c #5F5FFF",
"R$	c #5454E9",
"S$	c #4C4CD7",
"T$	c #C3C3ED",
"U$	c #C5C5E8",
"V$	c #E0DFFF",
"W$	c #E7E7FF",
"X$	c #EEEEFF",
"Y$	c #F5F5FF",
"Z$	c #FCFCFF",
"`$	c #ECECEC",
" %	c #AAAAEE",
".%	c #BFBEFF",
"+%	c #C6C6FF",
"@%	c #CDCDFF",
"#%	c #DBDCFF",
"$%	c #D0CFEE",
"%%	c #7474E5",
"&%	c #7F7EFF",
"*%	c #5C5CE9",
"=%	c #5353D7",
"-%	c #CECEED",
";%	c #CFCFE8",
">%	c #EBEBFF",
",%	c #F2F2FF",
"'%	c #F9F9FF",
")%	c #F0F0F1",
"!%	c #C9C9F4",
"~%	c #DAD9FF",
"{%	c #DBDBEE",
"]%	c #7C7CE5",
"^%	c #8787FF",
"/%	c #6564E9",
"(%	c #5B5BD7",
"_%	c #D9D9ED",
":%	c #DADAE8",
"<%	c #F7F7FF",
"[%	c #F5F5F7",
"}%	c #DEDEDE",
"|%	c #C8C8E0",
"1%	c #E8E8FA",
"2%	c #F5F4FF",
"3%	c #E6E6EE",
"4%	c #8484E5",
"5%	c #6D6DE9",
"6%	c #6262D7",
"7%	c #E4E4ED",
"8%	c #E4E4E7",
"9%	c #E3E3E4",
"0%	c #E4E4E5",
"a%	c #EAEAEE",
"b%	c #8C8CE5",
"c%	c #9394FF",
"d%	c #7575E9",
"e%	c #6969D7",
"f%	c #9494E5",
"g%	c #9D9CFF",
"h%	c #7D7DE9",
"i%	c #7171D7",
"j%	c #9C9CE5",
"k%	c #A2A3FF",
"l%	c #A0A0FF",
"m%	c #8585E9",
"n%	c #7878D7",
"o%	c #A4A4E5",
"p%	c #A8A9FF",
"q%	c #8D8DE9",
"r%	c #8080D7",
"s%	c #ACACE5",
"t%	c #BDBDFF",
"u%	c #BABAFF",
"v%	c #B7B7FF",
"w%	c #B1B2FF",
"x%	c #9595E9",
"y%	c #8787D7",
"z%	c #B4B4E5",
"A%	c #B8B7FF",
"B%	c #9D9DE9",
"C%	c #8F8FD7",
"D%	c #BCBCE5",
"E%	c #A6A6E9",
"F%	c #9696D7",
"G%	c #C4C4E5",
"H%	c #ABABE5",
"I%	c #CCCCE5",
"J%	c #CBCCFE",
"K%	c #B3B3E4",
"L%	c #D4D4E5",
"M%	c #E4E4FF",
"N%	c #C9C9ED",
"O%	c #DCDCE5",
"P%	c #EFF0FF",
"Q%	c #ECEDFF",
"R%	c #EAEAFF",
"S%	c #DDDDF4",
"T%	c #FBFBFF",
"U%	c #F1F1FA",
"V%	c #D1D1DE",
"W%	c #E5E5E5",
"X%	c #FFFFFF",
"Y%	c #CBCBCB",
"                                                                                                ",
"                                                                                                ",
"                                  . +                                                           ",
"                                @ # $ % &                                                       ",
"                            * = - ; > , ' ) !                                                   ",
"                        ~ { ] ^ / ( _ : < [ } | 1                                               ",
"                      2 3 4 5 6 7 8 9 0 a b c d e f                                             ",
"                  g h i j k l m # n % o p q r s t u v w                                         ",
"              x y z A B C D = - ; E F G H I J K L M N O P Q                                     ",
"              R S T U V W X ^ / ( _ Y < [ } Z `  ...+.@.#.$.%.&.                                ",
"              *.=.-.;.>.,.5 6 7 8 9 '.a b c d ).!.~.{.].^./.(._.:.                              ",
"              <.[.}.|.1.2.3.m # n 4.5.p q r s t 6.v 7.8.9.0.a.b.c.d.e.                          ",
"              f.g.h.i.j.k.l.m.n.E F o.p.I J K L q.N O r.s.t.u.v.w.x.y.z.A.                      ",
"              B.C.D.E.F.G.H.I.J.K.L.M.[ } Z ` N.O.+.@.#.$.P.Q.R.S.T.U.V.W.X.                    ",
"              Y.Z.`. +.+++@+#+$+%+&+*+b c d ).=+-+{.].^./.;+>+,+'+)+!+~+{+]+^+/+                ",
"              (+_+:+<+[+}+|+1+2+3+4+5+6+7+s t 6.8+7.8.9.0.9+0+c.d.a+b+c+d+e+f+g+h+              ",
"              i+j+k+l+m+n+o+p+q+r+s+t+u+v+w+x+y+z+O r.s.t.A+B+w.x.y.C+D+E+F+G+H+I+              ",
"              J+K+L+M+N+O+P+Q+R+S+T+U+V+W+X+Y+Z+`+@.#.$.P. @.@S.T.U.+@@@#@$@%@&@I+              ",
"              *@=@-@;@>@,@'@)@!@~@{@]@^@/@(@_@:@<@[@^./.;+}@|@'+)+1@2@3@4@5@6@7@8@              ",
"              9@0@a@b@c@d@e@f@g@h@i@j@k@E.F.G.H.l@m@n@o@9+p@q@r@s@t@u@v@W+w@}.x@y@              ",
"              z@A@B@C@D@E@F@G@H@I@J@K@L@M@.+N@O@P@Q@R@S@T@U@V@W@X@D.Y@/@Z@h.`@ #.#              ",
"              +#@###$#%#&#*#=#-#;#>#,#'#)#!#L+M+~#O+P+{#]#^#/#(#_#:#<#j.D.Y@/@[#}#              ",
"              |#1#T+2#3#4#5#6#7#8#9#0#a#b#c#-@2+3+d#C@D@e#f#.+:+G.g#h#L@:#<#j.i#j#              ",
"              k#l#m#n#o#p#q#r#s#t#u#v#m+n+o+w#q+r+x#$#%#y#z#A#B#C#D#'#G.g#h#L@E#F#              ",
"              G#H#i@I#J#K#L#M#N#O#P#Q#R#a@S#{#T#e@f@U#V#W#X#b#O@Y#A#Z#<+D#'#G.`# $              ",
"              .$+$J@@$#$$$%$&$*$=$-$;$>$B@C@,$E@F@G@'$)$!$~$M+{$#+b#O@!#]$++<+^$/$              ",
"              ($_$>#:$<$[$}$|$1$2$3$4$5$x#!@~@{@6$o#p#7$8$9$0$1+n+M+{$a$b$l+!#c$d$              ",
"              e$f$9#g$h$i$j$k$l$m$n$o$p$q$r$h@s$t$J#>#u$v$w$w#O+;@0$1+n+x$c#P@y$z$              ",
"              A$B$C$D$E$F$G$H$I$J$      K$L$5#6#7#M$9#g$N$O$d#P$>$w#O+;@o+N+Q$R$S$              ",
"              T$U$V$W$X$Y$Z$`$               %.%+%@%C$#%$%%%&%5${#d#P$>$w#a@2+*%=%              ",
"              -%;%>%,%'%)%                      !%~%|$1${%]%^%D@s+R+5${#d#P$P+/%(%              ",
"              _%:%<%[%}%                          |%1%2%3%4%q$T+!@e@D@s+R+5$c@5%6%              ",
"              7%8%9%                                  0%a%b%{@U#c%%#T+!@e@D@s+d%e%              ",
"                                                          f%H@*#g%m#r$F@%#T+!@h%i%              ",
"                                                          j%5#o#i@k%l%3#m#r$F@m%n%              ",
"                                                          o%J#J@-#5#p%s$'$l%3#q%r%              ",
"                                                          s%t%u%v%J#w%p#I#I@s$x%y%              ",
"                                                          z%+%u$8#t%u%A%;#6#p#B%C%              ",
"                                                          D%g$t#M#+%u$8#r#K#@$E%F%              ",
"                                                          G%O#&$[$g$t#M#$$:$M$H%                ",
"                                                          I%|$i$D$O#&$[$g$J%K%                  ",
"                                                          L%F$W$M%|$i$D$N%                      ",
"                                                          O%,%P%Q%R%S%                          ",
"                                                          0%T%H$U%V%                            ",
"                                                          W%X%W%                                ",
"                                                          Y%                                    ",
"                                                                                                ",
"                                                                                                "};
