/* XPM */
static char * panelZXBetween_xpm[] = {
"48 48 550 2",
"  	c None",
". 	c #0D0DCC",
"+ 	c #0C0CD1",
"@ 	c #0A0AD9",
"# 	c #0707E4",
"$ 	c #0E0EC5",
"% 	c #0A0AD8",
"& 	c #0909DE",
"* 	c #0000FE",
"= 	c #0000FF",
"- 	c #0909DF",
"; 	c #0303F5",
"> 	c #0B0BD2",
", 	c #0909DD",
"' 	c #0505EB",
") 	c #0C0CCF",
"! 	c #0909DC",
"~ 	c #0F0FBF",
"{ 	c #0101FB",
"] 	c #0A0AD7",
"^ 	c #0303F4",
"/ 	c #210FBB",
"( 	c #BC0D51",
"_ 	c #9009B4",
": 	c #0002F8",
"< 	c #0D0DCA",
"[ 	c #1010B4",
"} 	c #3E0DC1",
"| 	c #F20404",
"1 	c #DD0909",
"2 	c #CE0A54",
"3 	c #6908CD",
"4 	c #1010B6",
"5 	c #0A0ADA",
"6 	c #0606E8",
"7 	c #FF0000",
"8 	c #E80606",
"9 	c #DC0909",
"0 	c #C0097A",
"a 	c #4506E3",
"b 	c #0B0BD6",
"c 	c #0404EF",
"d 	c #0404F0",
"e 	c #FD0000",
"f 	c #E10808",
"g 	c #DA0A0C",
"h 	c #A9099C",
"i 	c #0B03F3",
"j 	c #0101FF",
"k 	c #0909DB",
"l 	c #0707E6",
"m 	c #F70202",
"n 	c #D70933",
"o 	c #8609BB",
"p 	c #0909FF",
"q 	c #0D0DC8",
"r 	c #0808DF",
"s 	c #0101FC",
"t 	c #0707F0",
"u 	c #EF0404",
"v 	c #DE0909",
"w 	c #CA0962",
"x 	c #6207D4",
"y 	c #0707FE",
"z 	c #1313FF",
"A 	c #0F0FF0",
"B 	c #E50707",
"C 	c #DB0908",
"D 	c #BA0D85",
"E 	c #461BE5",
"F 	c #0505EC",
"G 	c #0707FF",
"H 	c #1616F0",
"I 	c #3E0EC1",
"J 	c #FF0404",
"K 	c #FC0101",
"L 	c #DF0808",
"M 	c #CA0C37",
"N 	c #2810BF",
"O 	c #0808E3",
"P 	c #0202FF",
"Q 	c #1111FF",
"R 	c #1E1EF0",
"S 	c #FF0D0D",
"T 	c #FF0101",
"U 	c #A80B91",
"V 	c #0D0DCB",
"W 	c #0A0AFF",
"X 	c #1A1AFF",
"Y 	c #2626F0",
"Z 	c #3E0FC1",
"` 	c #FF1717",
" .	c #FF0707",
"..	c #A808A1",
"+.	c #0404FF",
"@.	c #2323FF",
"#.	c #2F2FF0",
"$.	c #3E10C1",
"%.	c #FF2121",
"&.	c #FF1211",
"*.	c #FF0303",
"=.	c #0D0DFF",
"-.	c #1C1CFF",
";.	c #2C2CFF",
">.	c #3737F0",
",.	c #3E11C1",
"'.	c #FF2B2B",
").	c #FF1B1B",
"!.	c #FF0C0C",
"~.	c #0606FF",
"{.	c #1616FF",
"].	c #2525FF",
"^.	c #3535FF",
"/.	c #3F3FF0",
"(.	c #3E12C1",
"_.	c #FF3435",
":.	c #FF2525",
"<.	c #FF1616",
"[.	c #FF0606",
"}.	c #1010FF",
"|.	c #1F1FFF",
"1.	c #2E2EFF",
"2.	c #3E3EFF",
"3.	c #4848F0",
"4.	c #3E14C1",
"5.	c #FF3E3E",
"6.	c #FF2F2F",
"7.	c #FF1F1F",
"8.	c #FF1010",
"9.	c #FF0202",
"0.	c #1919FF",
"a.	c #2828FF",
"b.	c #3838FF",
"c.	c #4747FF",
"d.	c #5151F0",
"e.	c #3E15C1",
"f.	c #FF4848",
"g.	c #FF3938",
"h.	c #FF2929",
"i.	c #FF1A1A",
"j.	c #FF0A0A",
"k.	c #0403FF",
"l.	c #2222FF",
"m.	c #3131FF",
"n.	c #4041FF",
"o.	c #5050FF",
"p.	c #5959F0",
"q.	c #3E17C2",
"r.	c #FF5252",
"s.	c #FF4242",
"t.	c #FF3333",
"u.	c #FF2424",
"v.	c #FF1414",
"w.	c #FF0505",
"x.	c #0C0CFF",
"y.	c #1B1BFF",
"z.	c #2B2BFF",
"A.	c #3A3AFF",
"B.	c #4A4AFF",
"C.	c #5959FF",
"D.	c #6262F0",
"E.	c #3E19C2",
"F.	c #FF5C5C",
"G.	c #FF4C4C",
"H.	c #FF3D3D",
"I.	c #FF2D2D",
"J.	c #FF1E1E",
"K.	c #FF0F0F",
"L.	c #1515FF",
"M.	c #3434FF",
"N.	c #4343FF",
"O.	c #5353FF",
"P.	c #6262FF",
"Q.	c #6A6AF0",
"R.	c #3E1BC2",
"S.	c #FF6665",
"T.	c #FF5656",
"U.	c #FF4646",
"V.	c #FF3737",
"W.	c #FF2828",
"X.	c #FF1818",
"Y.	c #FF0909",
"Z.	c #0F0FFF",
"`.	c #1E1EFF",
" +	c #3D3DFF",
".+	c #4C4DFF",
"++	c #5C5CFF",
"@+	c #6B6BFF",
"#+	c #7373F0",
"$+	c #3E1DC2",
"%+	c #FF6F6F",
"&+	c #FF6060",
"*+	c #FF5050",
"=+	c #FF4141",
"-+	c #FF3131",
";+	c #FF2222",
">+	c #FF1313",
",+	c #0808FF",
"'+	c #1818FF",
")+	c #2727FF",
"!+	c #3737FF",
"~+	c #4646FF",
"{+	c #5656FF",
"]+	c #6565FF",
"^+	c #7575FF",
"/+	c #7B7BF0",
"(+	c #3F1FC2",
"_+	c #FF7979",
":+	c #FF6969",
"<+	c #FF5A5A",
"[+	c #FF4B4B",
"}+	c #FF3B3B",
"|+	c #FF2C2C",
"1+	c #FF1C1D",
"2+	c #0303FF",
"3+	c #1212FF",
"4+	c #2121FF",
"5+	c #3031FF",
"6+	c #4040FF",
"7+	c #4F4FFF",
"8+	c #5F5FFF",
"9+	c #6E6EFF",
"0+	c #7E7EFF",
"a+	c #8484F0",
"b+	c #3F23C3",
"c+	c #FF8383",
"d+	c #FF7373",
"e+	c #FF6464",
"f+	c #FF5454",
"g+	c #FF4545",
"h+	c #FF3636",
"i+	c #FF2626",
"j+	c #0B0BFF",
"k+	c #2A2AFF",
"l+	c #393AFF",
"m+	c #4949FF",
"n+	c #5858FF",
"o+	c #6868FF",
"p+	c #7777FF",
"q+	c #8787FF",
"r+	c #8D8DF0",
"s+	c #4128C3",
"t+	c #FF8D8D",
"u+	c #FF7D7D",
"v+	c #FF6E6E",
"w+	c #FF5E5E",
"x+	c #FF4F4F",
"y+	c #FF3F3F",
"z+	c #FF3030",
"A+	c #FF1111",
"B+	c #0505FF",
"C+	c #1415FF",
"D+	c #2424FF",
"E+	c #3333FF",
"F+	c #5252FF",
"G+	c #6261FF",
"H+	c #7171FF",
"I+	c #8180FF",
"J+	c #9090FF",
"K+	c #9595F0",
"L+	c #422DC3",
"M+	c #FF9797",
"N+	c #FF8787",
"O+	c #FF7777",
"P+	c #FF6868",
"Q+	c #FF5959",
"R+	c #FF4949",
"S+	c #FF3A3A",
"T+	c #FF2A2A",
"U+	c #0E0EFF",
"V+	c #1D1DFF",
"W+	c #2D2DFF",
"X+	c #3C3CFF",
"Y+	c #4C4CFF",
"Z+	c #5B5BFF",
"`+	c #7A7AFF",
" @	c #8A8AFF",
".@	c #9999FF",
"+@	c #9E9EF0",
"@@	c #4532C4",
"#@	c #FFA0A0",
"$@	c #FF9191",
"%@	c #FF8181",
"&@	c #FF7272",
"*@	c #FF6262",
"=@	c #FF5353",
"-@	c #FF4444",
";@	c #FF3434",
">@	c #1717FF",
",@	c #2726FF",
"'@	c #3636FF",
")@	c #4545FF",
"!@	c #5555FF",
"~@	c #6464FF",
"{@	c #7474FF",
"]@	c #8383FF",
"^@	c #9393FF",
"/@	c #A2A2FF",
"(@	c #A6A6F0",
"_@	c #4838C4",
":@	c #FFAAAA",
"<@	c #FF9B9B",
"[@	c #FF8B8B",
"}@	c #FF7C7C",
"|@	c #FF6C6C",
"1@	c #FF5D5D",
"2@	c #FF4D4D",
"3@	c #2020FF",
"4@	c #302FFF",
"5@	c #3F3FFF",
"6@	c #4E4EFF",
"7@	c #5E5EFF",
"8@	c #6D6DFF",
"9@	c #7D7DFF",
"0@	c #8C8CFF",
"a@	c #9C9CFF",
"b@	c #ABABFF",
"c@	c #AFAFF0",
"d@	c #4B3EC4",
"e@	c #FFB4B4",
"f@	c #FFA4A4",
"g@	c #FF9595",
"h@	c #FF8585",
"i@	c #FF7676",
"j@	c #FF6767",
"k@	c #FF5757",
"l@	c #FF3838",
"m@	c #A809A1",
"n@	c #2929FF",
"o@	c #3939FF",
"p@	c #4848FF",
"q@	c #6767FF",
"r@	c #8686FF",
"s@	c #9595FF",
"t@	c #A5A5FF",
"u@	c #B5B4FF",
"v@	c #B8B8F0",
"w@	c #4F45C5",
"x@	c #FFBEBE",
"y@	c #FFAEAE",
"z@	c #FF9F9F",
"A@	c #FF8F8F",
"B@	c #FF8080",
"C@	c #FF7070",
"D@	c #FF6161",
"E@	c #FF2323",
"F@	c #A80CA1",
"G@	c #0C0CDF",
"H@	c #1414FF",
"I@	c #3232FF",
"J@	c #4242FF",
"K@	c #5151FF",
"L@	c #6161FF",
"M@	c #7070FF",
"N@	c #8080FF",
"O@	c #8F8FFF",
"P@	c #9F9FFF",
"Q@	c #AEAEFF",
"R@	c #BEBDFF",
"S@	c #C0C0F0",
"T@	c #544CC5",
"U@	c #FFC8C8",
"V@	c #FFB8B8",
"W@	c #FFA9A9",
"X@	c #FF9999",
"Y@	c #FF8A8A",
"Z@	c #FF7A7A",
"`@	c #FF6B6B",
" #	c #FF5B5B",
".#	c #A810A2",
"+#	c #1212DF",
"@#	c #3B3BFF",
"##	c #4B4BFF",
"$#	c #5A5AFF",
"%#	c #6A6AFF",
"&#	c #7979FF",
"*#	c #8989FF",
"=#	c #9898FF",
"-#	c #A8A8FF",
";#	c #B7B7FF",
">#	c #C7C7FF",
",#	c #C9C9F0",
"'#	c #5953C6",
")#	c #FFD2D2",
"!#	c #FFC2C2",
"~#	c #FFB2B2",
"{#	c #FFA3A3",
"]#	c #FF9393",
"^#	c #FF8484",
"/#	c #FF7575",
"(#	c #FF6565",
"_#	c #FF2728",
":#	c #A917A2",
"<#	c #1818DF",
"[#	c #2626FF",
"}#	c #5454FF",
"|#	c #6363FF",
"1#	c #7373FF",
"2#	c #8282FF",
"3#	c #9292FF",
"4#	c #A1A1FF",
"5#	c #B1B1FF",
"6#	c #C0C0FF",
"7#	c #D0D0FF",
"8#	c #D1D1F0",
"9#	c #5E5AC6",
"0#	c #FFDBDB",
"a#	c #FFCCCC",
"b#	c #FFBCBC",
"c#	c #FFADAD",
"d#	c #FF9D9D",
"e#	c #FF8E8E",
"f#	c #FF7E7E",
"g#	c #A91EA3",
"h#	c #1F1FDF",
"i#	c #2F2FFF",
"j#	c #5D5DFF",
"k#	c #7C7CFF",
"l#	c #9B9BFF",
"m#	c #ABAAFF",
"n#	c #BABAFF",
"o#	c #C9C9FF",
"p#	c #D9D9FF",
"q#	c #DADAF0",
"r#	c #6461C7",
"s#	c #FFE5E5",
"t#	c #FFD5D5",
"u#	c #FFC6C6",
"v#	c #FFB7B7",
"w#	c #FFA7A7",
"x#	c #FF9898",
"y#	c #FF8888",
"z#	c #FF4A4B",
"A#	c #A925A3",
"B#	c #2626DF",
"C#	c #5757FF",
"D#	c #6666FF",
"E#	c #7676FF",
"F#	c #8585FF",
"G#	c #A4A4FF",
"H#	c #B4B4FF",
"I#	c #C3C3FF",
"J#	c #D3D3FF",
"K#	c #E2E2FF",
"L#	c #E3E3F0",
"M#	c #6160B1",
"N#	c #FFEFEF",
"O#	c #FFDFDF",
"P#	c #FFD0D0",
"Q#	c #FFC0C0",
"R#	c #FFB1B1",
"S#	c #FFA1A1",
"T#	c #FF9292",
"U#	c #AA2DA4",
"V#	c #2D2DDF",
"W#	c #4141FF",
"X#	c #6060FF",
"Y#	c #6F6FFF",
"Z#	c #7F7FFF",
"`#	c #8E8EFF",
" $	c #9E9EFF",
".$	c #ADADFF",
"+$	c #BDBDFF",
"@$	c #CCCCFF",
"#$	c #DCDCFF",
"$$	c #EBEBFF",
"%$	c #EBEBF0",
"&$	c #C3BABA",
"*$	c #F3DDDD",
"=$	c #FFDADA",
"-$	c #FFCACA",
";$	c #FFBBBB",
">$	c #FFABAB",
",$	c #FF9C9C",
"'$	c #FF8C8C",
")$	c #AA35A6",
"!$	c #3535DF",
"~$	c #6969FF",
"{$	c #7878FF",
"]$	c #8888FF",
"^$	c #9798FF",
"/$	c #A7A7FF",
"($	c #B6B6FF",
"_$	c #C6C6FF",
":$	c #D5D5FF",
"<$	c #E5E5FF",
"[$	c #E0DFEB",
"}$	c #B4B4B6",
"|$	c #D2B8B8",
"1$	c #FBD0D0",
"2$	c #FFC5C4",
"3$	c #FFB5B5",
"4$	c #FFA6A6",
"5$	c #FF9696",
"6$	c #FF5859",
"7$	c #AB3DA7",
"8$	c #3C3CDF",
"9$	c #7272FF",
"0$	c #9191FF",
"a$	c #A1A0FF",
"b$	c #B0B0FF",
"c$	c #C0BFFF",
"d$	c #CFCFFF",
"e$	c #D4D4F4",
"f$	c #B8B8C9",
"g$	c #E1B4B4",
"h$	c #FEBEBE",
"i$	c #FFAFAF",
"j$	c #AC45A9",
"k$	c #4444DF",
"l$	c #6C6CFF",
"m$	c #7B7BFF",
"n$	c #8B8BFF",
"o$	c #9A9AFF",
"p$	c #AAAAFF",
"q$	c #B9B9FF",
"r$	c #C7C7FD",
"s$	c #B2B2D5",
"t$	c #B68A8A",
"u$	c #EBA9A9",
"v$	c #FF9A9A",
"w$	c #FF7B7B",
"x$	c #AD4DAA",
"y$	c #4C4CDF",
"z$	c #8484FF",
"A$	c #9494FF",
"B$	c #A3A3FF",
"C$	c #B3B3FF",
"D$	c #AAAAE2",
"E$	c #C98989",
"F$	c #F59D9D",
"G$	c #AE55AC",
"H$	c #5454DF",
"I$	c #8D8EFF",
"J$	c #9D9DFF",
"K$	c #9F9FEE",
"L$	c #8585BB",
"M$	c #D58181",
"N$	c #FD8E8E",
"O$	c #B05EAF",
"P$	c #5C5CDF",
"Q$	c #9291F8",
"R$	c #8181CB",
"S$	c #E27878",
"T$	c #B166B1",
"U$	c #6464DF",
"V$	c #8080FD",
"W$	c #7777D8",
"X$	c #5F4898",
"Y$	c #5858BA",
"                                              .                                                 ",
"                                          + @ #                                                 ",
"                                      $ % & * =                                                 ",
"                                    @ - ; = = =                                                 ",
"                                > , ' = = = = =                                                 ",
"                            ) ! # = = = = = = =                                                 ",
"                        ~ % & { = = = = = = = =                                                 ",
"                      ] , ^ = = = = = = = = = =                                                 ",
"                    / ( _ : = = = = = = = = = =                         < [                     ",
"                    } | 1 2 3 * = = = = = = = =                     4 5 , 6                     ",
"                    } 7 7 8 9 0 a = = = = = = =                   b , c = d                     ",
"                    } 7 7 7 e f g h i = = = = j               + k l = = = d                     ",
"                    } 7 7 7 7 7 m 1 n o { = j p           q k r s = = = = t                     ",
"                    } 7 7 7 7 7 7 7 u v w x y z         ] - ^ = = = = = j A                     ",
"                    } 7 7 7 7 7 7 7 7 7 B C D E     b , F = = = = = = = G H                     ",
"                    I J 7 7 7 7 7 7 7 7 7 K L M N @ O = = = = = = = = P Q R                     ",
"                    I S T 7 7 7 7 7 7 7 7 7 7 U V s = = = = = = = = = W X Y                     ",
"                    Z `  .7 7 7 7 7 7 7 7 7 7 ..- = = = = = = = = = +.z @.#.                    ",
"                    $.%.&.*.7 7 7 7 7 7 7 7 7 ..- = = = = = = = = j =.-.;.>.                    ",
"                    ,.'.).!.T 7 7 7 7 7 7 7 7 ..- = = = = = = = = ~.{.].^./.                    ",
"                    (._.:.<.[.7 7 7 7 7 7 7 7 ..- = = = = = = = P }.|.1.2.3.                    ",
"                    4.5.6.7.8.9.7 7 7 7 7 7 7 ..- = = = = = = = p 0.a.b.c.d.                    ",
"                    e.f.g.h.i.j.7 7 7 7 7 7 7 ..- = = = = = = k.z l.m.n.o.p.                    ",
"                    q.r.s.t.u.v.w.7 7 7 7 7 7 ..- = = = = = j x.y.z.A.B.C.D.                    ",
"                    E.F.G.H.I.J.K.9.7 7 7 7 7 ..- = = = = = ~.L.].M.N.O.P.Q.                    ",
"                    R.S.T.U.V.W.X.Y.7 7 7 7 7 ..- = = = = P Z.`.1. +.+++@+#+                    ",
"                    $+%+&+*+=+-+;+>+J 7 7 7 7 ..- = = = = ,+'+)+!+~+{+]+^+/+                    ",
"                    (+_+:+<+[+}+|+1+S T 7 7 7 ..- = = = 2+3+4+5+6+7+8+9+0+a+                    ",
"                    b+c+d+e+f+g+h+i+`  .7 7 7 ..- = = = j+y.k+l+m+n+o+p+q+r+                    ",
"                    s+t+u+v+w+x+y+z+%.A+*.7 7 ..- = = B+C+D+E+N.F+G+H+I+J+K+                    ",
"                    L+M+N+O+P+Q+R+S+T+).!.T 7 ..- = j U+V+W+X+Y+Z+@+`+ @.@+@                    ",
"                    @@#@$@%@&@*@=@-@;@:.<.[.7 ..- = G >@,@'@)@!@~@{@]@^@/@(@                    ",
"                    _@:@<@[@}@|@1@2@5.6.7.8.9...- 2+Q 3@4@5@6@7@8@9@0@a@b@c@                    ",
"                    d@e@f@g@h@i@j@k@f.l@h.i.j.m@- W X n@o@p@n+q@p+r@s@t@u@v@                    ",
"                    w@x@y@z@A@B@C@D@r.s.t.E@v.F@G@H@@.I@J@K@L@M@N@O@P@Q@R@S@                    ",
"                    T@U@V@W@X@Y@Z@`@ #G.H.I.J..#+#V+;.@###$#%#&#*#=#-#;#>#,#                    ",
"                    '#)#!#~#{#]#^#/#(#T.U.V._#:#<#[#^.)@}#|#1#2#3#4#5#6#7#8#                    ",
"                    9#0#a#b#c#d#e#f#%+&+*+=+-+g#h#i#2.6@j#8@k#0@l#m#n#o#p#q#                    ",
"                    r#s#t#u#v#w#x#y#_+:+<+z#}+A#B#b.c.C#D#E#F#s@G#H#I#J#K#L#                    ",
"                    M#N#O#P#Q#R#S#T#c+d+e+f+g+U#V#W#o.X#Y#Z#`# $.$+$@$#$$$%$                    ",
"                      &$*$=$-$;$>$,$'$u+v+w+x+)$!$B.$#~${$]$^$/$($_$:$<$[$}$                    ",
"                          |$1$2$3$4$5$N+O+P+6$7$8$O.|#9$2#0$a$b$c$d$e$f$                        ",
"                              g$h$i$#@$@%@&@*@j$k$++l$m$n$o$p$q$r$s$                            ",
"                                t$u$:@v$[@w$|@x$y$]+^+z$A$B$C$D$                                ",
"                                    E$F$g@h@i@G$H$Y#0+I$J$K$L$                                  ",
"                                        M$N$B@O$P${$q+Q$R$                                      ",
"                                            S$T$U$V$W$                                          ",
"                                              X$Y$                                              "};
