/* XPM */
static char * panelSideRight_xpm[] = {
"48 48 274 2",
"  	c None",
". 	c #FFFFFF",
"+ 	c #DDDCDC",
"@ 	c #FFFBFB",
"# 	c #FFFAFA",
"$ 	c #DBD7D7",
"% 	c #FFF4F4",
"& 	c #FFF3F3",
"* 	c #DBD1D1",
"= 	c #FFEDED",
"- 	c #FFECEC",
"; 	c #DBCBCB",
"> 	c #FFE7E7",
", 	c #FFE6E6",
"' 	c #FFE5E5",
") 	c #DBC5C5",
"! 	c #FFE0E0",
"~ 	c #FFDFDF",
"{ 	c #DBC0BF",
"] 	c #FFD9D9",
"^ 	c #FFD8D8",
"/ 	c #DBBABA",
"( 	c #FFD3D3",
"_ 	c #FFD2D2",
": 	c #FFD1D2",
"< 	c #FFD1D1",
"[ 	c #DBB4B4",
"} 	c #FFCCCC",
"| 	c #FFCBCB",
"1 	c #DBAEAE",
"2 	c #FFC5C5",
"3 	c #FFC4C4",
"4 	c #DBA9A9",
"5 	c #FFBEBE",
"6 	c #FFBDBD",
"7 	c #FFBDBE",
"8 	c #DBA3A3",
"9 	c #FFB8B8",
"0 	c #FFB7B7",
"a 	c #DB9D9D",
"b 	c #FFB1B1",
"c 	c #FFB0B0",
"d 	c #DB9797",
"e 	c #FFAAAA",
"f 	c #FFAAA9",
"g 	c #FFA9AA",
"h 	c #DB9292",
"i 	c #FFA4A4",
"j 	c #FFA3A3",
"k 	c #DB8C8C",
"l 	c #FF9D9D",
"m 	c #FF9C9C",
"n 	c #DB8686",
"o 	c #FF9696",
"p 	c #FF9695",
"q 	c #FF9595",
"r 	c #DB8080",
"s 	c #FF908F",
"t 	c #FF8F8F",
"u 	c #DB7B7B",
"v 	c #FF8989",
"w 	c #FF8888",
"x 	c #DB7575",
"y 	c #FF8282",
"z 	c #FF8182",
"A 	c #FF8181",
"B 	c #DB6F6F",
"C 	c #FF7B7B",
"D 	c #DB6969",
"E 	c #FF7575",
"F 	c #FF7474",
"G 	c #DB6464",
"H 	c #FF6E6E",
"I 	c #FF6D6D",
"J 	c #DB5E5E",
"K 	c #FF6767",
"L 	c #DB5858",
"M 	c #FF6161",
"N 	c #FF6060",
"O 	c #DB5353",
"P 	c #FF5A5A",
"Q 	c #FF595A",
"R 	c #FF5959",
"S 	c #DB4D4D",
"T 	c #FF5353",
"U 	c #DB4747",
"V 	c #FF4C4C",
"W 	c #DB4242",
"X 	c #FF4646",
"Y 	c #FF4645",
"Z 	c #FF4546",
"` 	c #FF4545",
" .	c #DB3C3C",
"..	c #FF3F3F",
"+.	c #DB3737",
"@.	c #FF3838",
"#.	c #DB3131",
"$.	c #FF3232",
"%.	c #FF3132",
"&.	c #FF3131",
"*.	c #DB2C2C",
"=.	c #FF2B2B",
"-.	c #DB2626",
";.	c #FF2424",
">.	c #DB2121",
",.	c #D6D6D7",
"'.	c #E7E7ED",
").	c #E1E1ED",
"!.	c #DBDBED",
"~.	c #D5D5ED",
"{.	c #CFCFED",
"].	c #C9C9ED",
"^.	c #C3C3ED",
"/.	c #BDBDED",
"(.	c #B7B7ED",
"_.	c #B1B1ED",
":.	c #ABABED",
"<.	c #A5A5ED",
"[.	c #9F9FED",
"}.	c #9999ED",
"|.	c #9393ED",
"1.	c #8D8DED",
"2.	c #8787ED",
"3.	c #8181ED",
"4.	c #7B7BED",
"5.	c #7575ED",
"6.	c #6F6FED",
"7.	c #6969ED",
"8.	c #6363ED",
"9.	c #5D5DED",
"0.	c #5757ED",
"a.	c #5152ED",
"b.	c #4C4CED",
"c.	c #4646ED",
"d.	c #4040ED",
"e.	c #3A3AED",
"f.	c #3434ED",
"g.	c #2E2EED",
"h.	c #2929ED",
"i.	c #2323ED",
"j.	c #1D1DED",
"k.	c #1818ED",
"l.	c #1312ED",
"m.	c #0E0EED",
"n.	c #0909ED",
"o.	c #000AD7",
"p.	c #FF1E1E",
"q.	c #FF1D1E",
"r.	c #FF1D1D",
"s.	c #DB1C1C",
"t.	c #E6E6E7",
"u.	c #F8F8FF",
"v.	c #F2F2FF",
"w.	c #EBEBFF",
"x.	c #E5E5FF",
"y.	c #DEDEFF",
"z.	c #D8D8FF",
"A.	c #D2D2FF",
"B.	c #CBCBFF",
"C.	c #C5C5FF",
"D.	c #BEBEFF",
"E.	c #B8B8FF",
"F.	c #B2B2FF",
"G.	c #ABABFF",
"H.	c #A5A5FF",
"I.	c #9E9EFF",
"J.	c #9898FF",
"K.	c #9192FF",
"L.	c #8B8BFF",
"M.	c #8584FF",
"N.	c #7E7EFF",
"O.	c #7878FF",
"P.	c #7171FF",
"Q.	c #6B6BFF",
"R.	c #6565FF",
"S.	c #5E5EFF",
"T.	c #5858FF",
"U.	c #5151FF",
"V.	c #4B4BFF",
"W.	c #4445FF",
"X.	c #3E3EFF",
"Y.	c #3838FF",
"Z.	c #3131FF",
"`.	c #2B2BFF",
" +	c #2424FF",
".+	c #1E1EFF",
"++	c #1818FF",
"@+	c #1111FF",
"#+	c #0B0BFF",
"$+	c #0404FF",
"%+	c #0007E7",
"&+	c #FF1717",
"*+	c #DB1717",
"=+	c #DEDFFF",
"-+	c #8585FF",
";+	c #7272FF",
">+	c #4545FF",
",+	c #2525FF",
"'+	c #1112FF",
")+	c #0504FF",
"!+	c #FF1010",
"~+	c #DB1313",
"{+	c #DFDFFF",
"]+	c #BFBFFF",
"^+	c #9E9FFF",
"/+	c #9292FF",
"(+	c #7E7FFF",
"_+	c #5252FF",
":+	c #3231FF",
"<+	c #0505FF",
"[+	c #FF0909",
"}+	c #DB0F0F",
"|+	c #ECECFF",
"1+	c #CBCCFF",
"2+	c #9F9FFF",
"3+	c #7F7FFF",
"4+	c #5F5EFF",
"5+	c #3232FF",
"6+	c #1212FF",
"7+	c #FF0203",
"8+	c #FF0303",
"9+	c #DB0B0B",
"0+	c #F9F9FF",
"a+	c #CCCCFF",
"b+	c #ACACFF",
"c+	c #8C8BFF",
"d+	c #5F5FFF",
"e+	c #3F3FFF",
"f+	c #1F1FFF",
"g+	c #FF0000",
"h+	c #DB0909",
"i+	c #C6C6C7",
"j+	c #D6D6DB",
"k+	c #D0D0DB",
"l+	c #CBCBDB",
"m+	c #C5C5DB",
"n+	c #C0C0DB",
"o+	c #BABADB",
"p+	c #B5B5DB",
"q+	c #AFAFDB",
"r+	c #AAAADB",
"s+	c #A4A4DB",
"t+	c #9F9FDB",
"u+	c #9999DB",
"v+	c #9494DB",
"w+	c #8E8EDB",
"x+	c #8888DB",
"y+	c #8383DB",
"z+	c #7D7DDB",
"A+	c #7878DB",
"B+	c #7272DB",
"C+	c #6D6DDB",
"D+	c #6767DB",
"E+	c #6262DB",
"F+	c #5D5CDB",
"G+	c #5757DB",
"H+	c #5251DB",
"I+	c #4C4CDB",
"J+	c #4747DB",
"K+	c #4141DB",
"L+	c #3C3CDB",
"M+	c #3737DB",
"N+	c #3131DB",
"O+	c #2C2CDB",
"P+	c #2727DB",
"Q+	c #2222DB",
"R+	c #1D1DDB",
"S+	c #1918DB",
"T+	c #1414DB",
"U+	c #1010DB",
"V+	c #0D0DDB",
"W+	c #000EC7",
"X+	c #DC0909",
"Y+	c #BD0F0F",
"                                                                                                ",
"                                                                                                ",
"                                                                                                ",
"                                                                                                ",
"                                                                                                ",
"                                                                                                ",
"                                                                                                ",
"                                                                                  . . . . . . + ",
"                                                                                  @ # # # # # $ ",
"                                                                                  % & & & & & * ",
"                                                                                  = - - - - - ; ",
"                                                                                  > , , , , ' ) ",
"                                                                                  ! ~ ~ ~ ~ ~ { ",
"                                                                                  ] ^ ^ ^ ^ ^ / ",
"                                                                                  ( _ _ : : < [ ",
"                                                                                  } | | | | | 1 ",
"                                                                                  2 3 3 3 3 3 4 ",
"                                                                                  5 5 6 7 7 6 8 ",
"                                                                                  9 0 0 0 0 0 a ",
"                                                                                  b c c c c c d ",
"                                                                                  e f g g e e h ",
"                                                                                  i j j j j j k ",
"                                                                                  l m m m m m n ",
"                                                                                  o o o p o q r ",
"                                                                                  s t t t t t u ",
"                                                                                  v w w w w w x ",
"                                                                                  y y y z A A B ",
"                                                                                  C C C C C C D ",
"                                                                                  E F F F F F G ",
"                                                                                  H I I I I I J ",
"                                                                                  K K K K K K L ",
"                                                                                  M N N N N N O ",
"                                                                                  P Q R P R Q S ",
"                                                                                  T T T T T T U ",
"                                                                                  V V V V V V W ",
"                                                                                  X Y Z X Z `  .",
"                                                                                  ............+.",
"                                                                                  @.@.@.@.@.@.#.",
"                                                                                  $.%.$.$.&.&.*.",
"                                                                                  =.=.=.=.=.=.-.",
"                                                                                  ;.;.;.;.;.;.>.",
",.'.).!.~.{.].^./.(._.:.<.[.}.|.1.2.3.4.5.6.7.8.9.0.a.b.c.d.e.f.g.h.i.j.k.l.m.n.o.p.q.r.r.r.r.s.",
"t.u.v.w.x.y.z.A.B.C.D.E.F.G.H.I.J.K.L.M.N.O.P.Q.R.S.T.U.V.W.X.Y.Z.`. +.+++@+#+$+%+&+&+&+&+&+&+*+",
"t.u.v.w.x.=+z.A.B.C.D.E.F.G.H.I.J.K.L.-+N.O.;+Q.R.S.T.U.V.>+X.Y.Z.`.,+.+++'+#+)+%+!+!+!+!+!+!+~+",
"t.u.v.w.x.{+z.A.B.C.]+E.F.G.H.^+J./+L.-+(+O.;+Q.R.S.T._+V.>+X.Y.:+`.,+.+++@+#+<+%+[+[+[+[+[+[+}+",
"t.u.v.|+x.{+z.A.1+C.]+E.F.G.H.2+J./+L.-+3+O.;+Q.R.4+T._+V.>+X.Y.5+`.,+.+++6+#+<+%+7+8+8+8+8+8+9+",
"t.0+v.|+x.{+z.A.a+C.]+E.F.b+H.2+J./+c+-+3+O.;+Q.R.d+T._+V.>+e+Y.5+`.,+f+++6+#+<+%+g+g+g+g+g+g+h+",
"i+j+k+l+m+n+o+p+q+r+s+t+u+v+w+x+y+z+A+B+C+D+E+F+G+H+I+J+K+L+M+N+O+P+Q+R+S+T+U+V+W+X+h+h+h+h+h+Y+"};
