/* XPM */
static char * panelXZBetween_xpm[] = {
"48 48 698 2",
"  	c None",
". 	c #0C0CCF",
"+ 	c #0A0ADA",
"@ 	c #0606E9",
"# 	c #0202F8",
"$ 	c #0909DB",
"% 	c #0808E2",
"& 	c #0404F0",
"* 	c #0000FF",
"= 	c #0C0CD1",
"- 	c #0909DE",
"; 	c #0101FA",
"> 	c #0A0AD9",
", 	c #0606E7",
"' 	c #0303F6",
") 	c #0101FF",
"! 	c #0202FF",
"~ 	c #0B0BD4",
"{ 	c #0208DB",
"] 	c #0404EF",
"^ 	c #0404FF",
"/ 	c #0808FF",
"( 	c #0B0BFF",
"_ 	c #7F41BF",
": 	c #DD6E76",
"< 	c #A54CBF",
"[ 	c #0000F8",
"} 	c #0304FF",
"| 	c #0707FF",
"1 	c #0A0AFF",
"2 	c #0E0EFF",
"3 	c #1111FF",
"4 	c #1515FF",
"5 	c #9E53C9",
"6 	c #FE8383",
"7 	c #E97070",
"8 	c #D55F7D",
"9 	c #7F34D0",
"0 	c #0A0AFE",
"a 	c #0D0DFF",
"b 	c #1010FF",
"c 	c #1313FF",
"d 	c #1717FF",
"e 	c #1A1AFF",
"f 	c #1E1EFF",
"g 	c #9E57CA",
"h 	c #FF8888",
"i 	c #FF7F7F",
"j 	c #FA7474",
"k 	c #E96464",
"l 	c #C64E8F",
"m 	c #5724E4",
"n 	c #1919FF",
"o 	c #1D1DFF",
"p 	c #2020FF",
"q 	c #2323FF",
"r 	c #2727FF",
"s 	c #9E5ACB",
"t 	c #FF8D8D",
"u 	c #FF8484",
"v 	c #FF7B7B",
"w 	c #FF7272",
"x 	c #F26464",
"y 	c #E55755",
"z 	c #B541A9",
"A 	c #4127F2",
"B 	c #2929FF",
"C 	c #2C2CFF",
"D 	c #3030FF",
"E 	c #9F5ECC",
"F 	c #FF9292",
"G 	c #FF8989",
"H 	c #FF8080",
"I 	c #FF7777",
"J 	c #FF6E6E",
"K 	c #FF6565",
"L 	c #EB5555",
"M 	c #DE495B",
"N 	c #A139BD",
"O 	c #3535FC",
"P 	c #3939FF",
"Q 	c #9F62CD",
"R 	c #FF9797",
"S 	c #FF8E8E",
"T 	c #FF8585",
"U 	c #FF7C7C",
"V 	c #FF7373",
"W 	c #FF6A6A",
"X 	c #FF6161",
"Y 	c #FA5757",
"Z 	c #EA4949",
"` 	c #D33E6D",
" .	c #843CD3",
"..	c #A066CF",
"+.	c #FF9C9C",
"@.	c #FF9393",
"#.	c #FF8A8A",
"$.	c #FF8181",
"%.	c #FF7878",
"&.	c #FF6F6F",
"*.	c #FF6666",
"=.	c #FF5D5D",
"-.	c #FF5454",
";.	c #F44849",
">.	c #E73C3C",
",.	c #D73231",
"'.	c #A16BD0",
").	c #FFA1A1",
"!.	c #FF9898",
"~.	c #FF8F8F",
"{.	c #FF8686",
"].	c #FF7D7D",
"^.	c #FF7474",
"/.	c #FF6B6B",
"(.	c #FF6262",
"_.	c #FF5959",
":.	c #FF5050",
"<.	c #FF4747",
"[.	c #F13B3B",
"}.	c #E13030",
"|.	c #DC2929",
"1.	c #0909DC",
"2.	c #0B0BD3",
"3.	c #A270D1",
"4.	c #FFA6A6",
"5.	c #FF9D9D",
"6.	c #FF9494",
"7.	c #FF8B8B",
"8.	c #FF8282",
"9.	c #FF7979",
"0.	c #FF7070",
"a.	c #FF6767",
"b.	c #FF5E5E",
"c.	c #FF5555",
"d.	c #FF4C4C",
"e.	c #FF4343",
"f.	c #FF3A3A",
"g.	c #E92E2E",
"h.	c #E02525",
"i.	c #0808E1",
"j.	c #0707E9",
"k.	c #0606FF",
"l.	c #A375D3",
"m.	c #FFABAB",
"n.	c #FFA2A2",
"o.	c #FF9999",
"p.	c #FF9090",
"q.	c #FF8787",
"r.	c #FF7E7E",
"s.	c #FF7575",
"t.	c #FF6C6C",
"u.	c #FF6363",
"v.	c #FF5A5A",
"w.	c #FF5151",
"x.	c #FF4848",
"y.	c #FF3F3F",
"z.	c #FF3636",
"A.	c #FA2D2D",
"B.	c #E92222",
"C.	c #DB1B1B",
"D.	c #0606FA",
"E.	c #A57AD4",
"F.	c #FFB0B0",
"G.	c #FFA7A7",
"H.	c #FF9E9E",
"I.	c #FF9595",
"J.	c #FF8C8C",
"K.	c #FF8383",
"L.	c #FF7A7A",
"M.	c #FF7171",
"N.	c #FF6868",
"O.	c #FF5F5F",
"P.	c #FF5656",
"Q.	c #FF4D4D",
"R.	c #FF4444",
"S.	c #FF3B3B",
"T.	c #FF3232",
"U.	c #FF2929",
"V.	c #F62020",
"W.	c #E91717",
"X.	c #D51313",
"Y.	c #0B0BD5",
"Z.	c #0606F6",
"`.	c #0909FF",
" +	c #1414FF",
".+	c #A77FD5",
"++	c #FFB5B5",
"@+	c #FFACAC",
"#+	c #FFA3A3",
"$+	c #FF9A9A",
"%+	c #FF9191",
"&+	c #FF7676",
"*+	c #FF6D6D",
"=+	c #FF6464",
"-+	c #FF5B5B",
";+	c #FF5252",
">+	c #FF4949",
",+	c #FF4040",
"'+	c #FF3737",
")+	c #FF2E2E",
"!+	c #FF2525",
"~+	c #FF1C1C",
"{+	c #F11414",
"]+	c #E20F0F",
"^+	c #D70C0C",
"/+	c #0A0AD7",
"(+	c #0606F1",
"_+	c #1212FF",
":+	c #1818FF",
"<+	c #A985D7",
"[+	c #FFBAB9",
"}+	c #FFB1B1",
"|+	c #FFA8A7",
"1+	c #FF9F9F",
"2+	c #FF9696",
"3+	c #FF6969",
"4+	c #FF6060",
"5+	c #FF5757",
"6+	c #FF4E4E",
"7+	c #FF4545",
"8+	c #FF3C3C",
"9+	c #FF3333",
"0+	c #FF2A2A",
"a+	c #FF2121",
"b+	c #FF1818",
"c+	c #FF0F0F",
"d+	c #EA0B0B",
"e+	c #E00808",
"f+	c #0808E0",
"g+	c #0707EB",
"h+	c #0505FF",
"i+	c #1617FF",
"j+	c #1C1CFF",
"k+	c #2222FF",
"l+	c #2828FF",
"m+	c #2D2DFF",
"n+	c #AB8AD8",
"o+	c #FFBEBE",
"p+	c #FFB6B5",
"q+	c #FFADAD",
"r+	c #FF9B9A",
"s+	c #FF5C5C",
"t+	c #FF5353",
"u+	c #FF4A4A",
"v+	c #FF4141",
"w+	c #FF3838",
"x+	c #FF2F2F",
"y+	c #FF2626",
"z+	c #FF1D1D",
"A+	c #FF1414",
"B+	c #FF0B0B",
"C+	c #F80404",
"D+	c #E1072B",
"E+	c #420CC8",
"F+	c #0606F8",
"G+	c #0F0FFF",
"H+	c #1B1AFF",
"I+	c #2626FF",
"J+	c #3131FF",
"K+	c #3737FF",
"L+	c #AD90DA",
"M+	c #FFC3C3",
"N+	c #FFBABA",
"O+	c #FFA8A8",
"P+	c #FF7B7C",
"Q+	c #FF5858",
"R+	c #FF4F4F",
"S+	c #FF4646",
"T+	c #FF3D3D",
"U+	c #FF3434",
"V+	c #FF2B2B",
"W+	c #FF2222",
"X+	c #FF1919",
"Y+	c #FF1010",
"Z+	c #FF0707",
"`+	c #DE065F",
" @	c #0909E7",
".@	c #1F1FFF",
"+@	c #2424FF",
"@@	c #2A2AFF",
"#@	c #3535FF",
"$@	c #3B3BFF",
"%@	c #4141FF",
"&@	c #B096DB",
"*@	c #FFC8C8",
"=@	c #FFBFBF",
"-@	c #FFB6B6",
";@	c #FFA4A4",
">@	c #FF9B9B",
",@	c #FF898A",
"'@	c #FF4B4B",
")@	c #FF4242",
"!@	c #FF3939",
"~@	c #FF3030",
"{@	c #FF2727",
"]@	c #FF1E1E",
"^@	c #FF1515",
"/@	c #FF0C0C",
"(@	c #DE095F",
"_@	c #0F0FE9",
":@	c #1718FF",
"<@	c #2E2EFF",
"[@	c #3434FF",
"}@	c #3F3FFF",
"|@	c #4545FF",
"1@	c #4A4AFF",
"2@	c #B39CDD",
"3@	c #FFCDCD",
"4@	c #FFC4C4",
"5@	c #FFBBBB",
"6@	c #FFB2B2",
"7@	c #FFA9A9",
"8@	c #FFA0A0",
"9@	c #FF7D7C",
"0@	c #FF5958",
"a@	c #FF504F",
"b@	c #FF3E3E",
"c@	c #FF3535",
"d@	c #FF2C2C",
"e@	c #FF2323",
"f@	c #FF1A1A",
"g@	c #FF1111",
"h@	c #DE0E5F",
"i@	c #1617E9",
"j@	c #2121FF",
"k@	c #2C2DFF",
"l@	c #3232FF",
"m@	c #3838FF",
"n@	c #3D3DFF",
"o@	c #4343FF",
"p@	c #4949FF",
"q@	c #4E4FFF",
"r@	c #5454FF",
"s@	c #B6A2DE",
"t@	c #FFD2D2",
"u@	c #FFC9C9",
"v@	c #FFC0C0",
"w@	c #FFB7B7",
"x@	c #FFAEAE",
"y@	c #FFA5A5",
"z@	c #FF4C4B",
"A@	c #FF4342",
"B@	c #FF393A",
"C@	c #FF3131",
"D@	c #FF2828",
"E@	c #FF1F1F",
"F@	c #FF1616",
"G@	c #DE1260",
"H@	c #1F1EE9",
"I@	c #2525FF",
"J@	c #2B2BFF",
"K@	c #3636FF",
"L@	c #3C3CFF",
"M@	c #4242FF",
"N@	c #4747FF",
"O@	c #4D4DFF",
"P@	c #5352FF",
"Q@	c #5858FF",
"R@	c #5E5EFF",
"S@	c #B9A8E0",
"T@	c #FFD7D7",
"U@	c #FFCECE",
"V@	c #FFC5C5",
"W@	c #FFBCBC",
"X@	c #FFB3B3",
"Y@	c #FFAAAA",
"Z@	c #FF4847",
"`@	c #FF2424",
" #	c #FF1B1B",
".#	c #DE1760",
"+#	c #2727E9",
"@#	c #2F2FFF",
"##	c #3A3AFF",
"$#	c #4040FF",
"%#	c #4646FF",
"&#	c #4B4BFF",
"*#	c #5151FF",
"=#	c #5757FF",
"-#	c #5C5CFF",
";#	c #6262FF",
">#	c #6868FF",
",#	c #BDAFE2",
"'#	c #FFDCDC",
")#	c #FFD3D3",
"!#	c #FFCACA",
"~#	c #FFC1C1",
"{#	c #FFB8B8",
"]#	c #FFAFAF",
"^#	c #FF4443",
"/#	c #FF3A3B",
"(#	c #FF3231",
"_#	c #FF1F20",
":#	c #DE1C61",
"<#	c #2F2FE9",
"[#	c #3E3EFF",
"}#	c #4444FF",
"|#	c #5050FF",
"1#	c #5555FF",
"2#	c #5B5BFF",
"3#	c #6060FF",
"4#	c #6666FF",
"5#	c #6C6CFF",
"6#	c #7171FF",
"7#	c #C0B5E3",
"8#	c #FFE1E1",
"9#	c #FFD8D8",
"0#	c #FFCFCF",
"a#	c #FFC6C6",
"b#	c #FFBDBD",
"c#	c #FFB4B4",
"d#	c #FF2D2D",
"e#	c #DE2162",
"f#	c #3838E9",
"g#	c #4848FF",
"h#	c #4E4EFF",
"i#	c #5453FF",
"j#	c #5959FF",
"k#	c #5F5FFF",
"l#	c #6565FF",
"m#	c #6A6AFF",
"n#	c #7070FF",
"o#	c #7676FF",
"p#	c #7B7BFF",
"q#	c #C4BBE5",
"r#	c #FFE6E6",
"s#	c #FFDDDD",
"t#	c #FFD4D4",
"u#	c #FFCBCB",
"v#	c #FFC2C2",
"w#	c #FFB9B9",
"x#	c #DF2663",
"y#	c #4141E9",
"z#	c #4C4CFF",
"A#	c #5252FF",
"B#	c #5D5DFF",
"C#	c #6363FF",
"D#	c #6969FF",
"E#	c #6E6EFF",
"F#	c #7474FF",
"G#	c #7A7AFF",
"H#	c #7F7FFF",
"I#	c #8585FF",
"J#	c #C8C2E7",
"K#	c #FFEBEB",
"L#	c #FFE2E2",
"M#	c #FFD9D9",
"N#	c #FFD0D0",
"O#	c #FFC7C7",
"P#	c #DF2B64",
"Q#	c #4A49E9",
"R#	c #5656FF",
"S#	c #6161FF",
"T#	c #6767FF",
"U#	c #6D6DFF",
"V#	c #7272FF",
"W#	c #7878FF",
"X#	c #7E7EFF",
"Y#	c #8383FF",
"Z#	c #8989FF",
"`#	c #8F8FFF",
" $	c #CCC8E9",
".$	c #FFF0F0",
"+$	c #FFE7E7",
"@$	c #FFDEDE",
"#$	c #FFD5D5",
"$$	c #FFCCCC",
"%$	c #DF3065",
"&$	c #5252E9",
"*$	c #6B6BFF",
"=$	c #7677FF",
"-$	c #7C7CFF",
";$	c #8282FF",
">$	c #8888FF",
",$	c #8D8DFF",
"'$	c #9393FF",
")$	c #9999FF",
"!$	c #D1CFEA",
"~$	c #FFF5F5",
"{$	c #FFECEC",
"]$	c #FFE3E3",
"^$	c #FFDADA",
"/$	c #FFD1D1",
"($	c #DF3667",
"_$	c #5B5BE9",
":$	c #6F6FFF",
"<$	c #7575FF",
"[$	c #8080FF",
"}$	c #8686FF",
"|$	c #8C8CFF",
"1$	c #9191FF",
"2$	c #9797FF",
"3$	c #9D9DFF",
"4$	c #A2A2FF",
"5$	c #D5D5EC",
"6$	c #FFFAFA",
"7$	c #FFF1F1",
"8$	c #FFE8E8",
"9$	c #FFDFDF",
"0$	c #FFD6D6",
"a$	c #E03B68",
"b$	c #6464E9",
"c$	c #7373FF",
"d$	c #7979FF",
"e$	c #8484FF",
"f$	c #8A8AFF",
"g$	c #9090FF",
"h$	c #9596FF",
"i$	c #9B9BFF",
"j$	c #A1A1FF",
"k$	c #A7A6FF",
"l$	c #ACACFF",
"m$	c #D0D0E0",
"n$	c #FFFEFE",
"o$	c #FFF6F6",
"p$	c #FFEDEC",
"q$	c #FFE4E4",
"r$	c #FFDBDB",
"s$	c #E0416A",
"t$	c #6D6DE9",
"u$	c #7D7DFF",
"v$	c #8E8EFF",
"w$	c #9494FF",
"x$	c #999AFF",
"y$	c #9F9FFF",
"z$	c #A5A5FF",
"A$	c #AAABFF",
"B$	c #B0B0FF",
"C$	c #B6B6FF",
"D$	c #DDDDDD",
"E$	c #FAF5F5",
"F$	c #FFF2F1",
"G$	c #FFE8E9",
"H$	c #FFE0E0",
"I$	c #FFD7D6",
"J$	c #E1466C",
"K$	c #7676E9",
"L$	c #8787FF",
"M$	c #9292FF",
"N$	c #9898FF",
"O$	c #9E9EFF",
"P$	c #A3A3FF",
"Q$	c #A9A9FF",
"R$	c #AFAFFF",
"S$	c #B4B4FF",
"T$	c #BABAFF",
"U$	c #C0C0FF",
"V$	c #E4DBDB",
"W$	c #FFEEEE",
"X$	c #E14B6E",
"Y$	c #7F7FE9",
"Z$	c #9796FF",
"`$	c #9C9CFF",
" %	c #A7A7FF",
".%	c #ADADFF",
"+%	c #B3B3FF",
"@%	c #B8B8FF",
"#%	c #BEBEFF",
"$%	c #C4C4FF",
"%%	c #CACAFF",
"&%	c #EFD9DA",
"*%	c #FFCFCE",
"=%	c #FFC6C5",
"-%	c #FFBCBD",
";%	c #FFB4B3",
">%	c #E25170",
",%	c #8888E9",
"'%	c #9A9BFF",
")%	c #A0A0FF",
"!%	c #A6A6FF",
"~%	c #B1B1FF",
"{%	c #B7B7FF",
"]%	c #BDBCFF",
"^%	c #C2C2FF",
"/%	c #C8C8FF",
"(%	c #CECEFF",
"_%	c #D3D3FF",
":%	c #D5BEBE",
"<%	c #F7D5D5",
"[%	c #FFAFB0",
"}%	c #FF9E9D",
"|%	c #FF8382",
"1%	c #FF7170",
"2%	c #E35672",
"3%	c #9191E9",
"4%	c #A4A4FF",
"5%	c #AAAAFF",
"6%	c #B5B5FF",
"7%	c #BBBBFF",
"8%	c #C1C1FF",
"9%	c #C6C6FF",
"0%	c #CCCCFF",
"a%	c #D2D2FF",
"b%	c #D7D7FF",
"c%	c #DDDDFF",
"d%	c #DEBABA",
"e%	c #FDCECE",
"f%	c #FFB4B5",
"g%	c #FF999A",
"h%	c #E35C74",
"i%	c #999AE9",
"j%	c #AEAEFF",
"k%	c #B9B9FF",
"l%	c #BFBFFF",
"m%	c #C5C5FF",
"n%	c #D0D0FF",
"o%	c #D6D6FF",
"p%	c #DCDBFF",
"q%	c #E1E1FF",
"r%	c #E7E7FF",
"s%	c #E8B7B7",
"t%	c #FFC3C2",
"u%	c #FF9F9E",
"v%	c #FF8483",
"w%	c #FF7A7B",
"x%	c #FF6968",
"y%	c #FF5F60",
"z%	c #E46177",
"A%	c #A2A2E9",
"B%	c #BDBDFF",
"C%	c #C3C3FF",
"D%	c #C9C9FF",
"E%	c #CFCFFF",
"F%	c #D4D4FF",
"G%	c #DADAFF",
"H%	c #E0E0FF",
"I%	c #E5E5FF",
"J%	c #EBEBFF",
"K%	c #F1F1FF",
"L%	c #F1B3B3",
"M%	c #FF6E6D",
"N%	c #FF6564",
"O%	c #E56779",
"P%	c #ABABE9",
"Q%	c #C7C7FF",
"R%	c #CDCDFF",
"S%	c #D8D8FF",
"T%	c #DEDEFF",
"U%	c #E4E4FF",
"V%	c #E9E9FF",
"W%	c #EFEFFF",
"X%	c #F5F5FF",
"Y%	c #FAFAFF",
"Z%	c #DA9D9D",
"`%	c #F7ACAB",
" &	c #E66C7C",
".&	c #B4B4E9",
"+&	c #CBCBFF",
"@&	c #D1D1FF",
"#&	c #DCDCFF",
"$&	c #E2E2FF",
"%&	c #E8E8FF",
"&&	c #EDEEFF",
"*&	c #F3F3FF",
"=&	c #F9F9FF",
"-&	c #F6F6F7",
";&	c #DADADA",
">&	c #E19797",
",&	c #FEA4A4",
"'&	c #E7727F",
")&	c #BDBDE9",
"!&	c #D5D5FF",
"~&	c #DBDBFF",
"{&	c #E6E6FF",
"]&	c #ECECFF",
"^&	c #F2F2FF",
"/&	c #F7F7FF",
"(&	c #FBFCFE",
"_&	c #E1E1E1",
":&	c #EA9292",
"<&	c #E87782",
"[&	c #C6C6E9",
"}&	c #DFDFFF",
"|&	c #EAEAFF",
"1&	c #F0F0FF",
"2&	c #F6F6FF",
"3&	c #FBFBFF",
"4&	c #E9E9EA",
"5&	c #D27E7E",
"6&	c #F28B8B",
"7&	c #E97C84",
"8&	c #CFCFE9",
"9&	c #EEEEFF",
"0&	c #F4F4FF",
"a&	c #F0F0F2",
"b&	c #D1D1D1",
"c&	c #DC7979",
"d&	c #F98383",
"e&	c #EA8287",
"f&	c #D8D8E9",
"g&	c #F8F8FF",
"h&	c #F7F7F9",
"i&	c #DBDBDC",
"j&	c #E47373",
"k&	c #EB878A",
"l&	c #E1E1E9",
"m&	c #FCFCFF",
"n&	c #E4E3E4",
"o&	c #C8C8C9",
"                                  .                                                             ",
"                              + @ #                                                             ",
"                          $ % & * *                                                             ",
"                      = - @ * * * *                                                             ",
"                    + @ ; * * * * *                                                             ",
"                > , ' * * * * * ) !                                                             ",
"            ~ { ] * * * * * ! ^ / (                                                             ",
"            _ : < [ * ) } | 1 2 3 4                                                             ",
"            5 6 7 8 9 0 a b c d e f                                                             ",
"            g h i j k l m n o p q r                                                             ",
"            s t u v w x y z A B C D                                                             ",
"            E F G H I J K L M N O P                                                             ",
"            Q R S T U V W X Y Z `  .                                                            ",
"            ..+.@.#.$.%.&.*.=.-.;.>.,.                                                          ",
"            '.).!.~.{.].^./.(._.:.<.[.}.|.                                      1.2.            ",
"            3.4.5.6.7.8.9.0.a.b.c.d.e.f.g.h.                                  i.j.k.            ",
"            l.m.n.o.p.q.r.s.t.u.v.w.x.y.z.A.B.C.                          $ j.D.1 b             ",
"            E.F.G.H.I.J.K.L.M.N.O.P.Q.R.S.T.U.V.W.X.                  Y.@ Z.`.2  +e             ",
"            .+++@+#+$+%+h i &+*+=+-+;+>+,+'+)+!+~+{+]+^+          /+% (+| a _+:+f q             ",
"            <+[+}+|+1+2+t u v w 3+4+5+6+7+8+9+0+a+b+c+d+e+      f+g+h+( 3 i+j+k+l+m+            ",
"            n+o+p+q+#+r+F G H I J K s+t+u+v+w+x+y+z+A+B+C+D+E+@ F+`.G+4 H+p I+C J+K+            ",
"            L+M+N+}+O+1+R S T P+V W X Q+R+S+T+U+V+W+X+Y+Z+`+ @/ 2 c n .@+@@@D #@$@%@            ",
"            &@*@=@-@q+;@>@F ,@H %.&.*.=.-.'@)@!@~@{@]@^@/@(@_@_+:@o q l+<@[@P }@|@1@            ",
"            2@3@4@5@6@7@8@R S T 9@V W X 0@a@<.b@c@d@e@f@g@h@i@j+j@r k@l@m@n@o@p@q@r@            ",
"            s@t@u@v@w@x@y@+.@.#.$.%.&.*.=.-.z@A@B@C@D@E@F@G@H@I@J@J+K@L@M@N@O@P@Q@R@            ",
"            S@T@U@V@W@X@Y@).!.~.{.].^./.(._.:.Z@b@c@d@`@ #.#+#@##@##$#%#&#*#=#-#;#>#            ",
"            ,#'#)#!#~#{#]#4.5.6.7.8.9.0.a.b.c.d.^#/#(#D@_#:#<#P [#}#1@|#1#2#3#4#5#6#            ",
"            7#8#9#0#a#b#c#m.n.o.p.q.r.s.t.u.v.w.x.y.z.d#`@e#f#M@g#h#i#j#k#l#m#n#o#p#            ",
"            q#r#s#t#u#v#w#F.G.H.I.J.K.L.M.N.O.P.Q.R.S.T.U.x#y#z#A#Q@B#C#D#E#F#G#H#I#            ",
"            J#K#L#M#N#O#o+++@+#+$+%+h i &+*+=+-+;+>+,+'+)+P#Q#R#-#S#T#U#V#W#X#Y#Z#`#            ",
"             $.$+$@$#$$$M+N+}+O+1+2+t u v w 3+4+5+6+7+8+9+%$&$3#4#*$6#=$-$;$>$,$'$)$            ",
"            !$~${$]$^$/$*@=@-@q+;@>@F G H I J K s+t+u+v+w+($_$m#:$<$p#[$}$|$1$2$3$4$            ",
"            5$6$7$8$9$0$3@4@5@6@7@8@R S T U V W X Q+R+S+T+a$b$c$d$H#e$f$g$h$i$j$k$l$            ",
"            m$n$o$p$q$r$t@u@v@w@x@y@+.@.#.$.%.&.*.=.-.'@)@s$t$u$Y#Z#v$w$x$y$z$A$B$C$            ",
"              D$E$F$G$H$I$U@V@W@X@Y@).!.~.{.].^./.(._.:.<.J$K$L$,$M$N$O$P$Q$R$S$T$U$            ",
"                  V$W$q$r$t@!#~#{#]#4.5.6.7.8.9.0.a.b.c.d.X$Y$1$Z$`$4$ %.%+%@%#%$%%%            ",
"                      &%H$T@*%=%-%;%m.n.o.p.q.r.s.t.u.v.w.>%,%'%)%!%l$~%{%]%^%/%(%_%            ",
"                        :%<%)#!#~#{#[%G.}%I.J.|%L.1%N.O.P.2%3%4%5%B$6%7%8%9%0%a%b%c%            ",
"                            d%e%a#b#f%m.n.g%p.q.i &+*+=+-+h%i%j%S$k%l%m%%%n%o%p%q%r%            ",
"                                s%t%w#F.G.u%I.J.v%w%w x%y%z%A%@%B%C%D%E%F%G%H%I%J%K%            ",
"                                    L%++@+#+$+%+h i &+M%N%O%P%^%Q%R%_%S%T%U%V%W%X%Y%            ",
"                                      Z%`%O+1+2+t u v w 3+ &.&+&@&b%#&$&%&&&*&=&-&;&            ",
"                                          >&,&>@F G H I J '&)&!&~&H%{&]&^&/&(&_&                ",
"                                              :&R S T U V <&[&}&I%|&1&2&3&4&                    ",
"                                                5&6&#.$.%.7&8&V%9&0&Y%a&b&                      ",
"                                                    c&d&].e&f&^&g&h&i&                          ",
"                                                        j&k&l&m&n&                              ",
"                                                            o&                                  "};
