/* XPM */
static char * panelXY_xpm[] = {
"48 48 340 2",
"  	c None",
". 	c #BBBBFF",
"+ 	c #B5B5FF",
"@ 	c #BFBFFF",
"# 	c #B9B9FF",
"$ 	c #B4B4FF",
"% 	c #AFAFFF",
"& 	c #C9C8FF",
"* 	c #C3C3FF",
"= 	c #BEBDFF",
"- 	c #B8B8FF",
"; 	c #B2B3FF",
"> 	c #AAA9FF",
", 	c #A4A4FF",
"' 	c #D2D2FF",
") 	c #CCCCFF",
"! 	c #C7C7FF",
"~ 	c #C1C2FF",
"{ 	c #B9B8FF",
"] 	c #B3B3FF",
"^ 	c #ADADFF",
"/ 	c #A7A8FF",
"( 	c #A3A3FF",
"_ 	c #9D9DFF",
": 	c #9797FF",
"< 	c #D6D6FF",
"[ 	c #D0D1FF",
"} 	c #CDCDFF",
"| 	c #C2C2FF",
"1 	c #BCBCFF",
"2 	c #B6B7FF",
"3 	c #B1B2FF",
"4 	c #ACACFF",
"5 	c #A6A7FF",
"6 	c #A0A1FF",
"7 	c #9C9CFF",
"8 	c #9696FF",
"9 	c #9191FF",
"0 	c #8D8CFF",
"a 	c #E0DFFF",
"b 	c #DBDBFF",
"c 	c #D1D0FF",
"d 	c #CBCBFF",
"e 	c #C6C6FF",
"f 	c #C0C1FF",
"g 	c #B5B6FF",
"h 	c #B0B0FF",
"i 	c #ABAAFF",
"j 	c #A5A5FF",
"k 	c #A0A0FF",
"l 	c #9B9CFF",
"m 	c #8C8BFF",
"n 	c #8685FF",
"o 	c #EBEAFF",
"p 	c #E5E6FF",
"q 	c #DFE0FF",
"r 	c #DADAFF",
"s 	c #D5D5FF",
"t 	c #CFCFFF",
"u 	c #CAC9FF",
"v 	c #C5C5FF",
"w 	c #B9BAFF",
"x 	c #AEAFFF",
"y 	c #AAABFF",
"z 	c #A09FFF",
"A 	c #9A9AFF",
"B 	c #9495FF",
"C 	c #8F90FF",
"D 	c #8A8AFF",
"E 	c #8484FF",
"F 	c #7F7FFF",
"G 	c #7A79FF",
"H 	c #F4F4FF",
"I 	c #EFEEFF",
"J 	c #E9E9FF",
"K 	c #E4E3FF",
"L 	c #DEDEFF",
"M 	c #D9D9FF",
"N 	c #D3D3FF",
"O 	c #CECEFF",
"P 	c #C8C8FF",
"Q 	c #AEAEFF",
"R 	c #A9A9FF",
"S 	c #9F9EFF",
"T 	c #9999FF",
"U 	c #9393FF",
"V 	c #8E8EFF",
"W 	c #8988FF",
"X 	c #8383FF",
"Y 	c #7D7DFF",
"Z 	c #7878FF",
"` 	c #7474FF",
" .	c #6E6FFF",
"..	c #F8F8FF",
"+.	c #F3F3FF",
"@.	c #EEEDFF",
"#.	c #E8E8FF",
"$.	c #E2E2FF",
"%.	c #DDDDFF",
"&.	c #D7D8FF",
"*.	c #BEBEFF",
"=.	c #A8A8FF",
"-.	c #A2A3FF",
";.	c #9798FF",
">.	c #9292FF",
",.	c #8787FF",
"'.	c #7273FF",
").	c #6D6DFF",
"!.	c #6768FF",
"~.	c #FFFFFF",
"{.	c #FCFCFF",
"].	c #F6F7FF",
"^.	c #F1F1FF",
"/.	c #ECECFF",
"(.	c #E6E7FF",
"_.	c #E1E1FF",
":.	c #CCCDFF",
"<.	c #BCBDFF",
"[.	c #B2B2FF",
"}.	c #9C9BFF",
"|.	c #8281FF",
"1.	c #7C7CFF",
"2.	c #7777FF",
"3.	c #7172FF",
"4.	c #6C6CFF",
"5.	c #6666FF",
"6.	c #6161FF",
"7.	c #5B5BFF",
"8.	c #FBFBFF",
"9.	c #F6F6FF",
"0.	c #F0F0FF",
"a.	c #EBEBFF",
"b.	c #E5E5FF",
"c.	c #D1D1FF",
"d.	c #C6C5FF",
"e.	c #C1C1FF",
"f.	c #B6B5FF",
"g.	c #A1A1FF",
"h.	c #9090FF",
"i.	c #8B8BFF",
"j.	c #8686FF",
"k.	c #8080FF",
"l.	c #7A7BFF",
"m.	c #7575FF",
"n.	c #7070FF",
"o.	c #6A6AFF",
"p.	c #6565FF",
"q.	c #6061FF",
"r.	c #5656FF",
"s.	c #5151FF",
"t.	c #D5D4FF",
"u.	c #D0CFFF",
"v.	c #CACAFF",
"w.	c #C4C5FF",
"x.	c #9F9FFF",
"y.	c #9594FF",
"z.	c #8F8FFF",
"A.	c #8585FF",
"B.	c #7979FF",
"C.	c #706FFF",
"D.	c #6B6AFF",
"E.	c #6465FF",
"F.	c #6060FF",
"G.	c #5A5AFF",
"H.	c #5455FF",
"I.	c #4F50FF",
"J.	c #4949FF",
"K.	c #4444FF",
"L.	c #EEEEFF",
"M.	c #E4E4FF",
"N.	c #C8C9FF",
"O.	c #BEBFFF",
"P.	c #9E9EFF",
"Q.	c #9998FF",
"R.	c #6F6EFF",
"S.	c #6969FF",
"T.	c #6464FF",
"U.	c #5E5FFF",
"V.	c #5959FF",
"W.	c #5354FF",
"X.	c #4E4EFF",
"Y.	c #4848FF",
"Z.	c #4343FF",
"`.	c #3F3FFF",
" +	c #ADAEFF",
".+	c #A8A7FF",
"++	c #A2A2FF",
"@+	c #9D9CFF",
"#+	c #8D8EFF",
"$+	c #8989FF",
"%+	c #7272FF",
"&+	c #6262FF",
"*+	c #5D5DFF",
"=+	c #5857FF",
"-+	c #4D4DFF",
";+	c #4849FF",
">+	c #3E3DFF",
",+	c #3838FF",
"'+	c #3233FF",
")+	c #B7B7FF",
"!+	c #A1A0FF",
"~+	c #8282FF",
"{+	c #7C7DFF",
"]+	c #7676FF",
"^+	c #7171FF",
"/+	c #5757FF",
"(+	c #5252FF",
"_+	c #4747FF",
":+	c #4141FF",
"<+	c #3C3CFF",
"[+	c #3737FF",
"}+	c #3131FF",
"|+	c #2C2CFF",
"1+	c #2626FF",
"2+	c #C5C6FF",
"3+	c #C1C0FF",
"4+	c #BBBAFF",
"5+	c #A7A6FF",
"6+	c #9190FF",
"7+	c #8B8CFF",
"8+	c #8180FF",
"9+	c #7B7BFF",
"0+	c #6160FF",
"a+	c #4B4BFF",
"b+	c #4646FF",
"c+	c #4040FF",
"d+	c #3B3BFF",
"e+	c #3535FF",
"f+	c #3030FF",
"g+	c #2A2AFF",
"h+	c #2627FF",
"i+	c #2121FF",
"j+	c #1C1BFF",
"k+	c #C4C4FF",
"l+	c #BABAFF",
"m+	c #AFB0FF",
"n+	c #AAAAFF",
"o+	c #8584FF",
"p+	c #6A6BFF",
"q+	c #5F5FFF",
"r+	c #5555FF",
"s+	c #4F4FFF",
"t+	c #4A4AFF",
"u+	c #3939FF",
"v+	c #2F30FF",
"w+	c #2A2BFF",
"x+	c #2525FF",
"y+	c #1F20FF",
"z+	c #1A1AFF",
"A+	c #1415FF",
"B+	c #AFAEFF",
"C+	c #9E9FFF",
"D+	c #9899FF",
"E+	c #9494FF",
"F+	c #7E7FFF",
"G+	c #5E5EFF",
"H+	c #5958FF",
"I+	c #3434FF",
"J+	c #2E2EFF",
"K+	c #2929FF",
"L+	c #2423FF",
"M+	c #1E1EFF",
"N+	c #1819FF",
"O+	c #1313FF",
"P+	c #0E0DFF",
"Q+	c #0908FF",
"R+	c #8888FF",
"S+	c #7E7EFF",
"T+	c #7373FF",
"U+	c #6868FF",
"V+	c #6363FF",
"W+	c #5C5DFF",
"X+	c #5454FF",
"Y+	c #3332FF",
"Z+	c #2D2DFF",
"`+	c #2728FF",
" @	c #2222FF",
".@	c #1C1CFF",
"+@	c #1717FF",
"@@	c #0809FF",
"#@	c #0303FF",
"$@	c #0000FF",
"%@	c #A6A6FF",
"&@	c #9C9DFF",
"*@	c #8C8DFF",
"=@	c #8181FF",
"-@	c #5152FF",
";@	c #4C4CFF",
">@	c #4241FF",
",@	c #1C1DFF",
"'@	c #1212FF",
")@	c #0D0CFF",
"!@	c #0707FF",
"~@	c #0201FF",
"{@	c #6C6BFF",
"]@	c #5C5BFF",
"^@	c #5050FF",
"/@	c #4545FF",
"(@	c #2020FF",
"_@	c #1B1BFF",
":@	c #1616FF",
"<@	c #1010FF",
"[@	c #0B0BFF",
"}@	c #0506FF",
"|@	c #8081FF",
"1@	c #5F60FF",
"2@	c #4A49FF",
"3@	c #4445FF",
"4@	c #201FFF",
"5@	c #1514FF",
"6@	c #0F0FFF",
"7@	c #090AFF",
"8@	c #797AFF",
"9@	c #7473FF",
"0@	c #6E6EFF",
"a@	c #5859FF",
"b@	c #5353FF",
"c@	c #3E3FFF",
"d@	c #3A39FF",
"e@	c #3333FF",
"f@	c #2F2EFF",
"g@	c #2928FF",
"h@	c #2424FF",
"i@	c #7D7EFF",
"j@	c #3D3DFF",
"k@	c #2827FF",
"l@	c #1D1DFF",
"m@	c #6263FF",
"n@	c #5758FF",
"o@	c #4C4DFF",
"p@	c #3636FF",
"q@	c #2727FF",
"r@	c #5051FF",
"s@	c #4645FF",
"t@	c #3736FF",
"u@	c #3231FF",
"v@	c #2B2BFF",
"w@	c #4140FF",
"x@	c #5554FF",
"y@	c #393AFF",
"                                                                                                ",
"                                                                                                ",
"                                                                                                ",
"                                                                                                ",
"                                                                                                ",
"                                                                                                ",
"                                                                                                ",
"                                                                                                ",
"                                                                                                ",
"                              . +                                                               ",
"                            @ # $ %                                                             ",
"                        & * = - ; % > ,                                                         ",
"                    ' ) ! ~ = { ] ^ / ( _ :                                                     ",
"                  < [ } ! | 1 2 3 4 5 6 7 8 9 0                                                 ",
"              a b < c d e f . g h i j k l 8 9 m n                                               ",
"          o p q r s t u v @ w $ x y j z A B C D E F G                                           ",
"      H I J K L M N O P * = w $ Q R , S T U V W X Y Z `  .                                      ",
"    ..+.@.#.$.%.&.' } & * *.- ] ^ =.-._ ;.>.0 ,.X Y Z '.).!.                                    ",
"~.{.].^./.(._.b < ' :.! | <.2 [.4 5 6 }.8 >.0 ,.|.1.2.3.4.5.6.7.                                ",
"~.8.9.0.a.b._.b < c.d d.e.. f.h i j g.}.8 h.i.j.k.l.m.n.o.p.q.7.r.s.                            ",
"    H 0.o b.q r t.u.v.w.@ # $ h y j x.A y.z.D A.F B.` C.D.E.F.G.H.I.J.K.                        ",
"      L.J M.L M N O N.* O.w $ % R , P.Q.U V W X F B.` R.S.T.U.V.W.X.Y.Z.`.                      ",
"          $.%.&.' O P * = - ;  +.+++@+;.>.#+$+X Y Z %+).!.&+*+=+s.-+;+Z.>+,+'+                  ",
"              &.' ) ! e.1 )+3 4 5 !+_ ;.>.0 ,.~+{+]+^+4.5.6.*+/+(+-+_+:+<+[+}+|+1+              ",
"                [ d 2+3+4+g h 4 5+g.l 8 6+7+n 8+9+m.C.D.5.0+7.r.s.a+b+c+d+e+f+g+h+i+j+          ",
"                    k+@ l+g m+n+j x.A y.z.D o+F G m.n.p+p.q+G.r+s+t+K.`.u+e+v+w+x+y+z+A+        ",
"                        l+$ B+R ( C+D+E+V W E F+B.`  .S.T.G+H+W.X.Y.K.`.u+I+J+K+L+M+N+O+P+Q+    ",
"                            ^ =.-._ ;.U V R+X S+Z T+).U+V+W+/+X+-+Y.Z.>+,+Y+Z+`+ @.@+@O+P+@@#@$@",
"                              %@( &@: >.*@,.=@1.2.^+4.5.&+*+/+-@;@_+>@<+[+}+|+1+ @,@+@'@)@!@~@$@",
"                                  }.8 9 i.n k.9+m.%+{@5.q.]@r.^@a+/@c+d+e+}+|+1+(@_@:@<@[@}@$@  ",
"                                      z.$+E |@l.m.n.o.E.1@G.r+s+2@3@c+d+e+v+g+x+4@z+5@6@7@      ",
"                                          A.F+8@9@0@S.T.G+a@b@s+2@K.c@d@e@f@g@h@M+N+O+          ",
"                                            i@Z T+).!.&+G+V.b@X.;+Z.j@[+Y+Z+k@ @l@              ",
"                                                3.).U+m@*+n@-@o@_+>@<+p@}+|+q@ @                ",
"                                                    5.6.7.r.r@a+s@c+d+t@u@v@                    ",
"                                                        G.r+s+t+s@w@d+e+                        ",
"                                                          x@I.t+K.c@y@                          ",
"                                                              Y.Z.                              ",
"                                                                                                ",
"                                                                                                ",
"                                                                                                ",
"                                                                                                ",
"                                                                                                ",
"                                                                                                ",
"                                                                                                ",
"                                                                                                ",
"                                                                                                ",
"                                                                                                "};
