/* XPM */
static char * rpanelPad_xpm[] = {
"48 48 632 2",
"  	c None",
". 	c #DFDFDF",
"+ 	c #FBFBFB",
"@ 	c #E0E0E0",
"# 	c #D3D3D3",
"$ 	c #F6F6F6",
"% 	c #FFFFFF",
"& 	c #FEFFFE",
"* 	c #F2F7F2",
"= 	c #CDD6CD",
"- 	c #EEEEEE",
"; 	c #FDFFFD",
"> 	c #F8FFF8",
", 	c #F3FFF3",
"' 	c #EFFFEF",
") 	c #DAEFDB",
"! 	c #E3E3E3",
"~ 	c #FBFFFB",
"{ 	c #F6FFF6",
"] 	c #F1FFF1",
"^ 	c #EDFFED",
"/ 	c #E8FFE8",
"( 	c #E3FFE3",
"_ 	c #DEFFDE",
": 	c #C2E4C2",
"< 	c #DBDBDB",
"[ 	c #FAFAFA",
"} 	c #F9FFF9",
"| 	c #F4FFF4",
"1 	c #EAFFEA",
"2 	c #E6FFE6",
"3 	c #E1FFE1",
"4 	c #DCFFDC",
"5 	c #D7FFD7",
"6 	c #D2FFD2",
"7 	c #CAFACA",
"8 	c #AFDFAF",
"9 	c #F4F4F4",
"0 	c #F2FFF2",
"a 	c #DEFFDF",
"b 	c #DAFFDA",
"c 	c #D5FFD5",
"d 	c #D0FFD0",
"e 	c #CBFFCB",
"f 	c #C7FFC7",
"g 	c #C2FFC2",
"h 	c #B5F4B5",
"i 	c #98D599",
"j 	c #EAEAEA",
"k 	c #EBFFEB",
"l 	c #D8FFD8",
"m 	c #D3FFD3",
"n 	c #CEFFCE",
"o 	c #C9FFC9",
"p 	c #C4FFC4",
"q 	c #C0FFC0",
"r 	c #BBFFBB",
"s 	c #B6FFB6",
"t 	c #B1FFB1",
"u 	c #A1EFA1",
"v 	c #E1E1E1",
"w 	c #FEFEFE",
"x 	c #FCFFFC",
"y 	c #F7FFF7",
"z 	c #E9FFE9",
"A 	c #E4FFE4",
"B 	c #DFFFDF",
"C 	c #D1FFD1",
"D 	c #CCFFCC",
"E 	c #BDFFBE",
"F 	c #B9FFB9",
"G 	c #B4FFB4",
"H 	c #AFFFAF",
"I 	c #AAFFAA",
"J 	c #A6FFA6",
"K 	c #A0FEA0",
"L 	c #8BE48B",
"M 	c #C2C2C2",
"N 	c #F8F8F8",
"O 	c #F5FFF5",
"P 	c #F0FFF0",
"Q 	c #E1FFE2",
"R 	c #DDFFDD",
"S 	c #CAFFCA",
"T 	c #C5FFC5",
"U 	c #B2FFB2",
"V 	c #ADFFAD",
"W 	c #A8FFA8",
"X 	c #A3FFA3",
"Y 	c #9FFF9F",
"Z 	c #9AFF9A",
"` 	c #95FF95",
" .	c #8DF98D",
"..	c #77DC77",
"+.	c #DADADA",
"@.	c #E9E9E9",
"#.	c #F9F9F9",
"$.	c #EEFFEE",
"%.	c #D6FFD6",
"&.	c #C3FFC2",
"*.	c #BEFFBE",
"=.	c #ABFFAB",
"-.	c #A1FFA1",
";.	c #9CFF9C",
">.	c #97FF98",
",.	c #93FF93",
"'.	c #8EFF8E",
").	c #89FF89",
"!.	c #84FF85",
"~.	c #7AF47A",
"{.	c #FDFEFD",
"].	c #FAFFFA",
"^.	c #E7FFE7",
"/.	c #E2FFE2",
"(.	c #D4FFD3",
"_.	c #CFFFCF",
":.	c #BCFFBC",
"<.	c #B7FFB7",
"[.	c #A8FFA9",
"}.	c #A4FFA4",
"|.	c #91FF91",
"1.	c #8CFF8C",
"2.	c #87FF87",
"3.	c #82FF82",
"4.	c #7EFF7E",
"5.	c #79FF79",
"6.	c #74FF74",
"7.	c #66EB66",
"8.	c #E8EAE8",
"9.	c #E3EAE3",
"0.	c #E5F1E5",
"a.	c #E0FFE0",
"b.	c #DBFFDB",
"c.	c #CCFFCD",
"d.	c #C8FFC8",
"e.	c #C3FFC3",
"f.	c #B5FFB5",
"g.	c #B0FFB0",
"h.	c #A2FFA1",
"i.	c #9DFF9D",
"j.	c #98FF98",
"k.	c #8AFF8A",
"l.	c #85FF85",
"m.	c #80FF80",
"n.	c #7BFF7B",
"o.	c #77FF77",
"p.	c #72FF72",
"q.	c #6DFF6D",
"r.	c #68FF68",
"s.	c #63FD62",
"t.	c #53E153",
"u.	c #D1D7DB",
"v.	c #DBECDD",
"w.	c #D4EAD4",
"x.	c #DAF6DA",
"y.	c #D9FFD9",
"z.	c #D4FFD4",
"A.	c #C5FFC6",
"B.	c #C1FFC1",
"C.	c #AEFFAE",
"D.	c #A9FFA9",
"E.	c #9BFF9A",
"F.	c #96FF96",
"G.	c #83FF83",
"H.	c #70FF70",
"I.	c #6BFF6B",
"J.	c #66FF66",
"K.	c #61FF61",
"L.	c #5CFF5C",
"M.	c #58FF58",
"N.	c #50F850",
"O.	c #41D841",
"P.	c #CCCCDB",
"Q.	c #E4E4F7",
"R.	c #E7E7FF",
"S.	c #DBDBF4",
"T.	c #CDDCDB",
"U.	c #CDEECD",
"V.	c #C5EAC5",
"W.	c #CEFBCE",
"X.	c #CDFFCD",
"Y.	c #BFFFBF",
"Z.	c #BAFFBA",
"`.	c #A7FFA7",
" +	c #A2FFA2",
".+	c #94FF94",
"++	c #8FFF8F",
"@+	c #7CFF7C",
"#+	c #69FF69",
"$+	c #64FF64",
"%+	c #5FFF5F",
"&+	c #5AFF5A",
"*+	c #55FF55",
"=+	c #51FF51",
"-+	c #4CFF4C",
";+	c #47FF47",
">+	c #3FF13F",
",+	c #E0E0F2",
"'+	c #E8E8FF",
")+	c #E5E5FF",
"!+	c #E1E1FF",
"~+	c #DDDDFF",
"{+	c #DADAFF",
"]+	c #C8CDEC",
"^+	c #BFE0CB",
"/+	c #BDEEBD",
"(+	c #B7ECB7",
"_+	c #B8FFB7",
":+	c #B3FFB3",
"<+	c #A0FFA0",
"[+	c #9BFF9B",
"}+	c #8DFF8D",
"|+	c #88FF88",
"1+	c #75FF75",
"2+	c #62FF62",
"3+	c #5DFF5D",
"4+	c #53FF53",
"5+	c #4EFF4E",
"6+	c #4AFF4A",
"7+	c #45FF45",
"8+	c #40FF40",
"9+	c #3BFF3B",
"0+	c #37FF37",
"a+	c #2DE62D",
"b+	c #C2C2D5",
"c+	c #D2D2EA",
"d+	c #E2E1FF",
"e+	c #DEDEFF",
"f+	c #DBDBFF",
"g+	c #D7D7FF",
"h+	c #D3D3FF",
"i+	c #D0D0FF",
"j+	c #CCCCFF",
"k+	c #B7C4E0",
"l+	c #B1E6BA",
"m+	c #AAEAAA",
"n+	c #ABF0AB",
"o+	c #B1FFB0",
"p+	c #ACFFAC",
"q+	c #99FF99",
"r+	c #86FF86",
"s+	c #81FF81",
"t+	c #6EFF6E",
"u+	c #5BFF5B",
"v+	c #56FF56",
"w+	c #43FF43",
"x+	c #3EFF3E",
"y+	c #39FF39",
"z+	c #34FF34",
"A+	c #30FF30",
"B+	c #2BFF2B",
"C+	c #26FC26",
"D+	c #1FDE1F",
"E+	c #CDCDEA",
"F+	c #C8C8E9",
"G+	c #CACAEE",
"H+	c #D4D4FF",
"I+	c #D1D1FF",
"J+	c #CDCDFF",
"K+	c #C9C9FF",
"L+	c #C6C6FF",
"M+	c #C2C2FF",
"N+	c #BBBBFB",
"O+	c #A8C8D1",
"P+	c #A3EBA6",
"Q+	c #9CEA9C",
"R+	c #9FF79F",
"S+	c #92FF92",
"T+	c #7FFF7F",
"U+	c #7AFF7A",
"V+	c #6CFF6B",
"W+	c #67FF67",
"X+	c #54FF54",
"Y+	c #4FFF4F",
"Z+	c #41FF40",
"`+	c #3CFF3C",
" @	c #32FF32",
".@	c #2DFF2D",
"+@	c #29FF29",
"@@	c #24FF24",
"#@	c #1FFF1F",
"$@	c #1AFF1A",
"%@	c #16F616",
"&@	c #13D613",
"*@	c #C3C3ED",
"=@	c #BCBCE9",
"-@	c #C3C3F5",
";@	c #C6C7FF",
">@	c #C3C3FF",
",@	c #BFBFFF",
"'@	c #BCBCFF",
")@	c #B8B8FF",
"!@	c #B4B4FF",
"~@	c #AAAEF3",
"{@	c #98CFBC",
"]@	c #93EE93",
"^@	c #8DEA8D",
"/@	c #92FB92",
"(@	c #8BFF8B",
"_@	c #78FF78",
":@	c #73FF73",
"<@	c #65FF64",
"[@	c #60FF60",
"}@	c #4DFF4D",
"|@	c #48FF48",
"1@	c #35FF35",
"2@	c #26FF26",
"3@	c #22FF22",
"4@	c #1DFF1D",
"5@	c #18FF18",
"6@	c #13FF13",
"7@	c #0FFF0F",
"8@	c #0AFF0A",
"9@	c #09ED09",
"0@	c #ACACDB",
"a@	c #B6B6ED",
"b@	c #B0B0E9",
"c@	c #B9B9FB",
"d@	c #B9B9FF",
"e@	c #B5B5FF",
"f@	c #B2B2FF",
"g@	c #AEAEFF",
"h@	c #AAAAFF",
"i@	c #A7A7FF",
"j@	c #97A5E6",
"k@	c #89DAA3",
"l@	c #83EE83",
"m@	c #7EEB7E",
"n@	c #84FF84",
"o@	c #71FF71",
"p@	c #6CFF6C",
"q@	c #5EFF5E",
"r@	c #59FF59",
"s@	c #46FF46",
"t@	c #41FF41",
"u@	c #33FF32",
"v@	c #2EFF2E",
"w@	c #1BFF1B",
"x@	c #16FF16",
"y@	c #11FF11",
"z@	c #0CFF0C",
"A@	c #07FF07",
"B@	c #03FF03",
"C@	c #06EB06",
"D@	c #0BD40B",
"E@	c #A6A6E2",
"F@	c #A8A8EB",
"G@	c #A4A4EA",
"H@	c #AFAFFF",
"I@	c #ABABFF",
"J@	c #A4A4FF",
"K@	c #A0A0FF",
"L@	c #9C9DFF",
"M@	c #9999FF",
"N@	c #84ABD1",
"O@	c #7AE68A",
"P@	c #72E972",
"Q@	c #72F272",
"R@	c #6AFF6A",
"S@	c #65FF65",
"T@	c #56FF57",
"U@	c #52FF52",
"V@	c #3FFF3F",
"W@	c #3AFF3A",
"X@	c #2CFF2C",
"Y@	c #27FF27",
"Z@	c #14FF14",
"`@	c #05FF05",
" #	c #05F205",
".#	c #06E906",
"+#	c #05EC05",
"@#	c #9F9FEC",
"##	c #9A9AE9",
"$#	c #9C9CF1",
"%#	c #A1A1FF",
"&#	c #9D9DFF",
"*#	c #9A9AFF",
"=#	c #9696FF",
"-#	c #9293FF",
";#	c #8F8FFF",
">#	c #8888F9",
",#	c #74BABC",
"'#	c #6AEC6E",
")#	c #63E963",
"!#	c #65F764",
"~#	c #63FF63",
"{#	c #4BFF4B",
"]#	c #38FF38",
"^#	c #33FF33",
"/#	c #25FF25",
"(#	c #20FF20",
"_#	c #0DFF0D",
":#	c #08FF08",
"<#	c #05F705",
"[#	c #05ED05",
"}#	c #0BD20B",
"|#	c #8686D2",
"1#	c #9393EC",
"2#	c #8D8DE9",
"3#	c #9191F5",
"4#	c #9393FF",
"5#	c #9090FF",
"6#	c #8C8CFF",
"7#	c #8889FF",
"8#	c #8585FF",
"9#	c #8181FF",
"0#	c #7682ED",
"a#	c #64C9A1",
"b#	c #5AEF5A",
"c#	c #54E954",
"d#	c #56FD56",
"e#	c #48FF49",
"f#	c #44FF44",
"g#	c #36FF35",
"h#	c #31FF31",
"i#	c #1EFF1E",
"j#	c #19FF19",
"k#	c #0BFF0A",
"l#	c #06FD06",
"m#	c #07E907",
"n#	c #05EE03",
"o#	c #12C180",
"p#	c #8281DE",
"q#	c #8787EE",
"r#	c #8181EA",
"s#	c #8888FC",
"t#	c #8686FF",
"u#	c #8282FF",
"v#	c #7E7EFF",
"w#	c #7B7BFF",
"x#	c #7777FF",
"y#	c #7374FF",
"z#	c #648BDB",
"A#	c #53DA80",
"B#	c #4AEC4A",
"C#	c #47EF47",
"D#	c #42FF42",
"E#	c #3DFF3D",
"F#	c #2AFF2A",
"G#	c #17FF17",
"H#	c #12FF12",
"I#	c #08EE08",
"J#	c #06EC06",
"K#	c #0FD572",
"L#	c #1E67DE",
"M#	c #2020FF",
"N#	c #1C1CF0",
"O#	c #7979E5",
"P#	c #7979ED",
"Q#	c #7676EC",
"R#	c #7C7CFF",
"S#	c #7878FF",
"T#	c #7474FF",
"U#	c #7171FF",
"V#	c #6D6DFF",
"W#	c #6969FF",
"X#	c #6565FE",
"Y#	c #539EC5",
"Z#	c #42E75C",
"`#	c #3AEA3A",
" $	c #38F438",
".$	c #36FF36",
"+$	c #28FF27",
"@$	c #23FF23",
"#$	c #10FF10",
"$$	c #0BFF0B",
"%$	c #09F209",
"&$	c #07EA07",
"*$	c #09E44A",
"=$	c #1C86CA",
"-$	c #2121FE",
";$	c #1D1DFF",
">$	c #1919FF",
",$	c #1616FF",
"'$	c #1212FF",
")$	c #1111E5",
"!$	c #7171ED",
"~$	c #6B6BE9",
"{$	c #6B6BF0",
"]$	c #6E6EFF",
"^$	c #6A6AFF",
"/$	c #6767FF",
"($	c #6363FF",
"_$	c #5F5FFF",
":$	c #5C5CFF",
"<$	c #555AF5",
"[$	c #42B3AE",
"}$	c #31ED3C",
"|$	c #2CEA2C",
"1$	c #29F929",
"2$	c #21FF21",
"3$	c #1CFF1C",
"4$	c #0AF90A",
"5$	c #09EA09",
"6$	c #06EC22",
"7$	c #18A9AF",
"8$	c #212DF8",
"9$	c #1E1EFF",
"0$	c #1A1AFF",
"a$	c #1717FF",
"b$	c #1313FF",
"c$	c #0F0FFF",
"d$	c #0C0CFF",
"e$	c #0B0BF0",
"f$	c #0E0ED4",
"g$	c #5E5ED5",
"h$	c #6464EE",
"i$	c #5F5FE9",
"j$	c #6161F8",
"k$	c #6060FF",
"l$	c #5D5DFF",
"m$	c #5959FF",
"n$	c #5556FF",
"o$	c #5252FF",
"p$	c #4E4EFF",
"q$	c #4461E9",
"r$	c #2FCA8A",
"s$	c #22EE22",
"t$	c #1EEB1E",
"u$	c #15FF15",
"v$	c #0CFD0B",
"w$	c #0BE90B",
"x$	c #06EE06",
"y$	c #13C48F",
"z$	c #204BED",
"A$	c #1F1FFF",
"B$	c #1B1BFF",
"C$	c #1818FF",
"D$	c #1414FF",
"E$	c #1010FF",
"F$	c #0D0DFF",
"G$	c #0B0BF6",
"H$	c #0A0AE9",
"I$	c #0707ED",
"J$	c #0D0DCE",
"K$	c #5656E0",
"L$	c #5757ED",
"M$	c #5253E9",
"N$	c #5656FE",
"O$	c #5353FF",
"P$	c #4F4FFF",
"Q$	c #4B4BFF",
"R$	c #4848FF",
"S$	c #4444FF",
"T$	c #4041FF",
"U$	c #3478D7",
"V$	c #1DE05F",
"W$	c #14EA14",
"X$	c #10F110",
"Y$	c #0DEE0D",
"Z$	c #08EC08",
"`$	c #0ED86F",
" %	c #1E6CDA",
".%	c #1C1CFF",
"+%	c #1918FF",
"@%	c #1515FF",
"#%	c #1111FF",
"$%	c #0E0EFF",
"%%	c #0B0BFB",
"&%	c #0B0BEA",
"*%	c #0909DE",
"=%	c #4D4DE8",
"-%	c #4949EB",
";%	c #4747ED",
">%	c #4949FF",
",%	c #4545FF",
"'%	c #4141FF",
")%	c #3E3EFF",
"!%	c #3A3AFF",
"~%	c #3637FF",
"{%	c #3232FB",
"]%	c #2497C0",
"^%	c #0FE041",
"/%	c #0CDE44",
"(%	c #1A95C0",
"_%	c #2020FD",
":%	c #0E0FFF",
"<%	c #0B0BFF",
"[%	c #0B0BEC",
"}%	c #0808EC",
"|%	c #0808E4",
"1%	c #4241ED",
"2%	c #3D3DE9",
"3%	c #3C3CF4",
"4%	c #3B3BFF",
"5%	c #3737FF",
"6%	c #3434FF",
"7%	c #3030FF",
"8%	c #2C2CFF",
"9%	c #2929FF",
"0%	c #2331F0",
"a%	c #2120F5",
"b%	c #0B0BF1",
"c%	c #0909E9",
"d%	c #0606EC",
"e%	c #3535D9",
"f%	c #3535EE",
"g%	c #3131E9",
"h%	c #3030FA",
"i%	c #2D2DFF",
"j%	c #2A2AFF",
"k%	c #2626FF",
"l%	c #2222FF",
"m%	c #1718FF",
"n%	c #0B0BF7",
"o%	c #0606EF",
"p%	c #0B0BD5",
"q%	c #2B2BE1",
"r%	c #2828EE",
"s%	c #2525E9",
"t%	c #2323FF",
"u%	c #0E0DFF",
"v%	c #0A0AFE",
"w%	c #0B0BE9",
"x%	c #0707EE",
"y%	c #0909E0",
"z%	c #2020EB",
"A%	c #1C1CE9",
"B%	c #1919EF",
"C%	c #0B0BEE",
"D%	c #0808EB",
"E%	c #0707E9",
"F%	c #1414ED",
"G%	c #1111E9",
"H%	c #0D0DF6",
"I%	c #0B0BF3",
"J%	c #0909EA",
"K%	c #0606ED",
"L%	c #1010DB",
"M%	c #0B0BE4",
"N%	c #0808E7",
"O%	c #0A0ADA",
"                                                                                                ",
"                                                                                                ",
"                                                                                                ",
"                                                                                                ",
"                                                                                                ",
"                                                                                                ",
"                                                                                                ",
"                            . + + @                                                             ",
"                        # $ % % % & * =                                                         ",
"                      - % % % % ; > , ' )                                                       ",
"                  ! % % % % & ~ { ] ^ / ( _ :                                                   ",
"              < [ % % % % ; } | ' 1 2 3 4 5 6 7 8                                               ",
"            9 % % % % & ~ { 0 ^ / ( a b c d e f g h i                                           ",
"        j % % % % % ; } | ' k 2 3 4 l m n o p q r s t u                                         ",
"    v w % % % % % x y 0 ^ z A B b c C D f g E F G H I J K L                                     ",
"M N % % % % % ; } O P k 2 Q R l m n S T q r s U V W X Y Z `  ...                                ",
"+.@.#.% % % x y 0 $.z A B b %.C D f &.*.F G H =.J -.;.>.,.'.).!.~.                              ",
"  v - j {.].O P k ^./.R l (._.S T q :.<.U V [.}.Y Z ` |.1.2.3.4.5.6.7.                          ",
"      8.9.0.$.z A a.b.%.C c.d.e.*.F f.g.=.J h.i.j.,.'.k.l.m.n.o.p.q.r.s.t.                      ",
"        u.v.w.x.R y.z._.S A.B.:.<.U C.D.}.Y E.F.|.1.2.G.4.5.6.H.I.J.K.L.M.N.O.                  ",
"    P.Q.R.S.T.U.V.W.X.d.e.Y.Z.f.g.=.`. +i.j..+++k.l.m.@+o.p.q.#+$+%+&+*+=+-+;+>+                ",
"  ,+'+)+!+~+{+]+^+/+(+B.:._+:+C.D.}.<+[+F.|.}+|+G.4.5.1+H.I.J.2+3+M.4+5+6+7+8+9+0+a+            ",
"b+c+d+e+f+g+h+i+j+k+l+m+n+o+p+`. +i.q+.+++k.r+s+@+o.p.t+#+$+%+u+v+=+-+;+w+x+y+z+A+B+C+D+        ",
"  E+F+G+H+I+J+K+L+M+N+O+P+Q+R+<+[+F.S+}+|+G.T+U+1+H.V+W+2+3+M.X+Y+6+7+Z+`+0+ @.@+@@@#@$@%@&@    ",
"      *@=@-@;@>@,@'@)@!@~@{@]@^@/@++(@r+s+@+_@:@t+#+<@[@u+v+=+}@|@w+x+y+1@A+B+2@3@4@5@6@7@8@9@  ",
"        0@a@b@c@d@e@f@g@h@i@j@k@l@m@n@T+U+1+o@p@W+2+q@r@X+Y+6+s@t@`+0+u@v@+@@@#@w@x@y@z@A@B@C@D@",
"            E@F@G@H@I@i@J@K@L@M@N@O@P@Q@:@t+R@S@[@u+T@U@}@|@w+V@W@1@A+X@Y@3@4@5@Z@7@8@`@ #.#+#  ",
"                @###$#%#&#*#=#-#;#>#,#'#)#!#~#q@r@X+Y+{#s@t@`+]#^#v@+@/#(#w@x@y@_#:#<#.#[#}#    ",
"                  |#1#2#3#4#5#6#7#8#9#0#a#b#c#d#U@}@e#f#V@W@g#h#X@Y@3@i#j#Z@7@k#l#m#n#o#        ",
"                      p#q#r#s#t#u#v#w#x#y#z#A#B#C#s@D#E#]#^#v@F#/#(#w@G#H#_#:#I#J#K#L#M#N#      ",
"                          O#P#Q#R#S#T#U#V#W#X#Y#Z#`# $.$h#X@+$@$i#j#Z@#$$$%$&$*$=$-$;$>$,$'$)$  ",
"                              !$~${$]$^$/$($_$:$<$[$}$|$1$/#2$3$G#H#_#4$5$6$7$8$9$0$a$b$c$d$e$f$",
"                                g$h$i$j$k$l$m$n$o$p$q$r$s$t$j#u$#$v$w$x$y$z$A$B$C$D$E$F$G$H$I$J$",
"                                    K$L$M$N$O$P$Q$R$S$T$U$V$W$X$Y$Z$`$ %M#.%+%@%#%$%%%&%I$*%    ",
"                                        =%-%;%>%,%'%)%!%~%{%]%^%/%(%_%;$>$,$'$:%<%[%}%|%        ",
"                                            1%2%3%4%5%6%7%8%9%0%a%9$0$a$b$c$d$b%c%d%            ",
"                                              e%f%g%h%i%j%k%l%A$B$m%D$E$F$n%H$o%p%              ",
"                                                  q%r%s%t%M#.%C$@%#%u%v%w%x%y%                  ",
"                                                      z%A%B%,$'$$%<%C%D%E%                      ",
"                                                          F%G%H%I%J%K%                          ",
"                                                            L%M%N%O%                            ",
"                                                                                                ",
"                                                                                                ",
"                                                                                                ",
"                                                                                                ",
"                                                                                                ",
"                                                                                                ",
"                                                                                                "};
