/* XPM */
static char * scanObjects_xpm[] = {
"48 48 451 2",
"  	c None",
". 	c #0000FF",
"+ 	c #0606EA",
"@ 	c #100FC2",
"# 	c #1313A6",
"$ 	c #17177C",
"% 	c #155682",
"& 	c #109281",
"* 	c #162782",
"= 	c #171684",
"- 	c #1313A9",
"; 	c #0E0ECB",
"> 	c #0404F1",
", 	c #030FF5",
"' 	c #0E52BE",
") 	c #182564",
"! 	c #1A1A1A",
"~ 	c #1A1A19",
"{ 	c #191919",
"] 	c #12A612",
"^ 	c #01FA01",
"/ 	c #167616",
"( 	c #1A371A",
"_ 	c #09C37B",
": 	c #0780CC",
"< 	c #0202F9",
"[ 	c #0202FA",
"} 	c #1111B6",
"| 	c #176D45",
"1 	c #05F005",
"2 	c #148B15",
"3 	c #181818",
"4 	c #171718",
"5 	c #138A13",
"6 	c #00FE00",
"7 	c #11A311",
"8 	c #185418",
"9 	c #02F802",
"0 	c #0FC210",
"a 	c #1A1A57",
"b 	c #0F0FCB",
"c 	c #0808E6",
"d 	c #181868",
"e 	c #176917",
"f 	c #0CCC0C",
"g 	c #171917",
"h 	c #161616",
"i 	c #146214",
"j 	c #0CC10C",
"k 	c #161717",
"l 	c #171717",
"m 	c #165416",
"n 	c #0EC30E",
"o 	c #1B1B1A",
"p 	c #171787",
"q 	c #0C47CE",
"r 	c #1A3B1F",
"s 	c #172317",
"t 	c #08DC08",
"u 	c #03F403",
"v 	c #144C14",
"w 	c #151515",
"x 	c #141515",
"y 	c #141414",
"z 	c #143C14",
"A 	c #03F203",
"B 	c #08D408",
"C 	c #161615",
"D 	c #154F15",
"E 	c #02F702",
"F 	c #0CC90C",
"G 	c #1A2944",
"H 	c #073FE3",
"I 	c #0F39BF",
"J 	c #08E308",
"K 	c #10B710",
"L 	c #0EB10E",
"M 	c #00FD00",
"N 	c #117711",
"O 	c #131313",
"P 	c #123712",
"Q 	c #03F003",
"R 	c #07D507",
"S 	c #131413",
"T 	c #143A14",
"U 	c #03F103",
"V 	c #09D409",
"W 	c #171817",
"X 	c #158F15",
"Y 	c #05EE2C",
"Z 	c #085BD9",
"` 	c #0E0ECD",
" .	c #186F15",
"..	c #01FC01",
"+.	c #0EB90E",
"@.	c #0CB50C",
"#.	c #107910",
"$.	c #121212",
"%.	c #111111",
"&.	c #103610",
"*.	c #02F002",
"=.	c #06D506",
"-.	c #111211",
";.	c #133713",
">.	c #08D508",
",.	c #12A812",
"'.	c #177E3F",
").	c #0909E3",
"!.	c #0707E9",
"~.	c #1A1A3C",
"{.	c #139B14",
"].	c #119711",
"^.	c #151615",
"/.	c #132913",
"(.	c #05E505",
"_.	c #03EE03",
":.	c #104310",
"<.	c #101010",
"[.	c #0F0F10",
"}.	c #0F360F",
"|.	c #02F102",
"1.	c #05D505",
"2.	c #101110",
"3.	c #113611",
"4.	c #11A811",
"5.	c #177D17",
"6.	c #1A1A62",
"7.	c #0202F8",
"8.	c #0101FC",
"9.	c #18186F",
"0.	c #11AA11",
"a.	c #127D12",
"b.	c #141514",
"c.	c #115E11",
"d.	c #01F901",
"e.	c #07C707",
"f.	c #0F1010",
"g.	c #0F0F0F",
"h.	c #0E0E0E",
"i.	c #0D350E",
"j.	c #0E0F0E",
"k.	c #10A810",
"l.	c #167E16",
"m.	c #1B1B1B",
"n.	c #16169C",
"o.	c #0F0FC8",
"p.	c #0FBA0E",
"q.	c #01FB01",
"r.	c #126913",
"s.	c #0E7D0E",
"t.	c #09AB09",
"u.	c #0D0D0D",
"v.	c #0C0C0C",
"w.	c #0C270C",
"x.	c #02EB02",
"y.	c #03DF03",
"z.	c #0D140D",
"A.	c #0F380F",
"B.	c #121312",
"C.	c #141413",
"D.	c #0FA70F",
"E.	c #157E16",
"F.	c #1C1C1A",
"G.	c #0909E4",
"H.	c #0101FB",
"I.	c #19195B",
"J.	c #0EBC0E",
"K.	c #125E12",
"L.	c #0D850D",
"M.	c #099F09",
"N.	c #0B0B0B",
"O.	c #0B180B",
"P.	c #02E402",
"Q.	c #03E403",
"R.	c #0C600C",
"S.	c #08C508",
"T.	c #109610",
"U.	c #139B13",
"V.	c #17178D",
"W.	c #0D0DD1",
"X.	c #0DBD0D",
"Y.	c #0C880C",
"Z.	c #089E08",
"`.	c #0B0B0C",
" +	c #0A0A0A",
".+	c #090909",
"++	c #091709",
"@+	c #02E602",
"#+	c #0A1A0A",
"$+	c #0B0A0B",
"%+	c #0A820A",
"&+	c #0AA80A",
"*+	c #127712",
"=+	c #10AF10",
"-+	c #1C1C18",
";+	c #0707EC",
">+	c #161692",
",+	c #0BC80B",
"'+	c #01F801",
")+	c #115311",
"!+	c #0A9B0A",
"~+	c #088E08",
"{+	c #080808",
"]+	c #070C07",
"^+	c #03D403",
"/+	c #01F401",
"(+	c #084208",
"_+	c #07A007",
":+	c #0B880B",
"<+	c #131212",
"[+	c #0DAA0D",
"}+	c #119C11",
"|+	c #191819",
"1+	c #1B1C1C",
"2+	c #1313B9",
"3+	c #1B1B32",
"4+	c #09D009",
"5+	c #02F402",
"6+	c #114111",
"7+	c #09A009",
"8+	c #088508",
"9+	c #070707",
"0+	c #060606",
"a+	c #03C203",
"b+	c #00F800",
"c+	c #075307",
"d+	c #06A706",
"e+	c #0B7C0B",
"f+	c #122412",
"g+	c #05E205",
"h+	c #04EF04",
"i+	c #164516",
"j+	c #191975",
"k+	c #0A0AE0",
"l+	c #161816",
"m+	c #07D907",
"n+	c #03EF03",
"o+	c #113511",
"p+	c #08A009",
"q+	c #078607",
"r+	c #050505",
"s+	c #040404",
"t+	c #02B702",
"u+	c #00FC00",
"v+	c #056905",
"w+	c #06A906",
"x+	c #0B7B0A",
"y+	c #112611",
"z+	c #09C809",
"A+	c #0EA90E",
"B+	c #1D1C19",
"C+	c #0F0FC9",
"D+	c #162516",
"E+	c #05E705",
"F+	c #04E504",
"G+	c #111E11",
"H+	c #089F08",
"I+	c #078507",
"J+	c #080708",
"K+	c #030303",
"L+	c #02AE02",
"M+	c #047104",
"N+	c #05B805",
"O+	c #00FB00",
"P+	c #0B690B",
"Q+	c #132413",
"R+	c #141C14",
"S+	c #1C1C1C",
"T+	c #1313AE",
"U+	c #153F15",
"V+	c #03F302",
"W+	c #0E0E0D",
"X+	c #08A008",
"Y+	c #060505",
"Z+	c #020203",
"`+	c #010101",
" @	c #01AF01",
".@	c #047204",
"+@	c #04CA04",
"@@	c #01F701",
"#@	c #0C4D0B",
"$@	c #0F0FCF",
"%@	c #1314AB",
"&@	c #154515",
"*@	c #03F303",
"=@	c #09C409",
"-@	c #0E0D0E",
";@	c #010201",
">@	c #00C900",
",@	c #00F900",
"'@	c #045E04",
")@	c #03CF03",
"!@	c #0C3F0C",
"~@	c #100FCC",
"{@	c #1414AB",
"]@	c #162015",
"^@	c #0F990F",
"/@	c #106D10",
"(@	c #050405",
"_@	c #021F02",
":@	c #00E600",
"<@	c #01E701",
"[@	c #051F05",
"}@	c #1010CC",
"|@	c #1414AD",
"1@	c #09A008",
"2@	c #040505",
"3@	c #045E03",
"4@	c #02C602",
"5@	c #060706",
"6@	c #04C704",
"7@	c #0C570C",
"8@	c #181718",
"9@	c #0F0FCD",
"0@	c #1111BE",
"a@	c #111112",
"b@	c #0F0E0F",
"c@	c #09A309",
"d@	c #088308",
"e@	c #048104",
"f@	c #04A904",
"g@	c #099B09",
"h@	c #171617",
"i@	c #1A1919",
"j@	c #1D1D1D",
"k@	c #0C0CDB",
"l@	c #0D0DD6",
"m@	c #08B508",
"n@	c #0A6E09",
"o@	c #070807",
"p@	c #04AB04",
"q@	c #067F06",
"r@	c #0B500B",
"s@	c #04D905",
"t@	c #0F1C10",
"u@	c #0606F0",
"v@	c #0404F3",
"w@	c #06CB07",
"x@	c #0B510B",
"y@	c #090A0A",
"z@	c #01F900",
"A@	c #085708",
"B@	c #0C100C",
"C@	c #05CD05",
"D@	c #0F660F",
"E@	c #1C1C5C",
"F@	c #191971",
"G@	c #08C308",
"H@	c #04DC04",
"I@	c #0D270D",
"J@	c #0D0C0D",
"K@	c #03E202",
"L@	c #02EA02",
"M@	c #0A280A",
"N@	c #0B960B",
"O@	c #0D980D",
"P@	c #1C1C1D",
"Q@	c #1616A3",
"R@	c #1111C0",
"S@	c #1B1C1B",
"T@	c #103C10",
"U@	c #0F460F",
"V@	c #0C2A0C",
"W@	c #02EC02",
"X@	c #03DD03",
"Y@	c #0D7E0D",
"Z@	c #0CA70C",
"`@	c #0C0CDD",
" #	c #0303F6",
".#	c #1C1C2C",
"+#	c #0E2C0D",
"@#	c #02ED02",
"##	c #04DB04",
"$#	c #0E100E",
"%#	c #0E820E",
"&#	c #0DA50D",
"*#	c #1B1B68",
"=#	c #1414AC",
"-#	c #100F10",
";#	c #0F2C0F",
">#	c #03ED02",
",#	c #05DB05",
"'#	c #0F120F",
")#	c #121112",
"!#	c #106F10",
"~#	c #127512",
"{#	c #1A1B1A",
"]#	c #1010CD",
"^#	c #0303F7",
"/#	c #1B1B4F",
"(#	c #161617",
"_#	c #161515",
":#	c #141415",
"<#	c #121211",
"[#	c #112D10",
"}#	c #03ED03",
"|#	c #05DA05",
"1#	c #111311",
"2#	c #141814",
"3#	c #143914",
"4#	c #151916",
"5#	c #1A1A7E",
"6#	c #0000FE",
"7#	c #0E0ED0",
"8#	c #122D12",
"9#	c #06DB06",
"0#	c #131512",
"a#	c #1D1D36",
"b#	c #0908E8",
"c#	c #1616A2",
"d#	c #142E14",
"e#	c #04EC04",
"f#	c #06DD06",
"g#	c #1D1D1E",
"h#	c #1111C6",
"i#	c #18188A",
"j#	c #161F16",
"k#	c #08D708",
"l#	c #153115",
"m#	c #1516AD",
"n#	c #0201FB",
"o#	c #18188B",
"p#	c #165E15",
"q#	c #147914",
"r#	c #171A17",
"s#	c #181817",
"t#	c #1E1E1D",
"u#	c #1414B4",
"v#	c #1D1D17",
"w#	c #1C1B1B",
"x#	c #1D1D3E",
"y#	c #0B0BDE",
"z#	c #1A1A72",
"A#	c #1E1E1E",
"B#	c #19198D",
"C#	c #1A1B74",
"D#	c #1D1C1D",
"E#	c #1E1E1A",
"F#	c #19198A",
"G#	c #0C0CDF",
"H#	c #0909E8",
"I#	c #1313BB",
"J#	c #191986",
"K#	c #1E1E2A",
"L#	c #1D1D49",
"M#	c #19198F",
"N#	c #1213C1",
"O#	c #0505F2",
"P#	c #0404F6",
"Q#	c #0909E6",
"R#	c #0202FB",
"                                                                                                ",
"                              . . . . . . . . . . .                                             ",
"                        . . . + @ # $ % & * = - ; > . .                                         ",
"                    . . , ' ) ! ~ { { ] ^ / { ! ! ( _ : < .                                     ",
"                  . [ } | 1 2 3 3 3 4 5 6 7 3 3 3 8 9 0 a b . .                                 ",
"                . c d ! e ^ f g h h h i ^ j h k l m 9 n ! o p > .                               ",
"              . q r { 3 s t u v w x y z A B w w C D E F 3 { ! G H .                             ",
"            . I J K 3 l h L M N O O O P Q R S O y T U V W 3 { X Y Z .                           ",
"          . `  ...+.l h w @.M #.$.%.%.&.*.=.-.$.$.;.Q >.h l 3 ,.M '.)..                         ",
"        . !.~.{.6 ].^.y /.(._.:.<.<.[.}.|.1.2.<.%.3.Q >.w h l 4.M 5.6.7.                        ",
"        8.9.{ 0.M a.b.O c.d.e.f.g.h.h.i.*.1.j.g.<.&.*.R S x h k.M l.m.n..                       ",
"      . o.! { p.q.r.O $.s.M t.h.u.u.v.w.x.y.z.u.h.A.|.=.B.C.w D.6 E.! F.G..                     ",
"      H.I.{ 3 J.^ K.$.%.L.6 M.u.v.N.N.O.P.Q.O.v.u.R.^ S.%.O y T.6 U.! m.V..                     ",
"    . W.! { l X.^ c.$.<.Y.6 Z.`.N. +.+++P.@+#+$+v.%+6 &+<.$.O *+M =+{ m.-+;+                    ",
"    . >+! 3 l ,+'+)+%.g.!+6 ~+ +.+{+{+]+^+/+(+.+ +_+6 :+<.%.<+[+6 }+|+! 1+2+.                   ",
"    < 3+{ 3 h 4+5+6+<.g.7+6 8+.+{+9+0+0+a+b+c+{+.+d+M e+g.<.f+g+h+i+3 ! m.j+.                   ",
"  . k+m.{ W l+m+n+o+<.h.p+6 q+{+9+0+r+s+t+u+v+9+{+w+M x+h.<.y+z+A+h 3 { m.B+<                   ",
"  . C+! { l D+E+F+G+g.h.H+6 I+J+0+r+K+K+L+M M+0+{+N+O+P+h.<.%.Q+R+h l { m.S+G.                  ",
"  . T+! { l U+V+R -.g.W+X+6 I+9+Y+s+Z+`+ @M .@0+9++@@@#@h.g.%.O y h l { m.S+$@.                 ",
"  . %@! { l &@*@=@%.g.-@X+6 I+9+0+s+Z+;@>@,@'@0+9+)@/+!@h.g.%.O y h l { m.S+~@.                 ",
"  . {@! { l ]@^@/@%.g.h.H+6 I+9+0+(@K+_@:@<@[@0+J+)@/+!@h.f.%.O y h l { m.S+}@.                 ",
"  . |@m.{ 4 h y O %.f.h.1@6 I+{+9+r+2@3@,@4@5@9+{+6@'+7@h.<.%.O y h 8@{ m.S+9@.                 ",
"  . 0@m.{ 3 h w O a@<.b@c@6 d@.+{+9+0+e@M f@9+{+.+_+6 g@g.<.$.O w h@3 i@m.j@k@                  ",
"  . l@m.! 3 l w y $.%.g.m@u+n@ +.+{+o@p@M q@{+.+ +r@/+s@t@%.$.y w l 3 ! m.j@u@                  ",
"    v@S+! { l h y O %.<.w@@@x@N. +y@.+6@z@A@ + +N.B@C@d.D@$.O y h l { ! S+E@.                   ",
"    . F@m.{ 3 h w y $.-.G@H@I@J@v.N.O.K@L@M@N.v.u.h.N@6 O@$.y w l 3 ~ m.P@Q@.                   ",
"    . R@S@! { l h y O $.T@U@g.h.u.J@V@W@X@B@u.u.h.g.Y@6 Z@O w h l { ! S+j@`@                    ",
"       #.#m.{ 3 l w y O $.%.<.g.g.h.+#@###$#h.g.g.<.%#6 &#y h l 3 ! m.S+*#.                     ",
"      . =#S+! { 3 k w y O $.%.%.<.-#;#>#,#'#<.<.%.)#!#(.~#w l 3 { {#S+j@]#.                     ",
"        ^#/#m.! { 3 (#_#:#y O $.<#%.[#}#|#1#%.$.$.O 2#3#4#l 3 { ! m.j@5#6#                      ",
"        . 7#S+m.! { 3 l h w y y O O 8#}#9#0#O O y y w h l 3 { ! m.S+a#b#                        ",
"          . c#S+m.! { 3 l h h w w y d#e#f#2#y w w h k l 3 { ! m.S+g#h#.                         ",
"            H.i#S+m.! { { 3 l l h h j#k#E+l#h h l l 3 { ! ! m.P@j@m#.                           ",
"              n#o#S+1+m.! { { 3 3 W l p#q#r#s#3 3 { { ! m.S+j@t#m#. . .                         ",
"                . u#v#S+m.m.! ! { { { { { { { { ! ! m.w#S+j@x#]#. . . . .                       ",
"                  . y#z#j@S+S+m.m.m.! ! ! ! m.m.m.S+S+j@A#B#;+. . . . . . . .                   ",
"                    . 6#$@C#j@j@S+S+S+S+S+S+S+D#j@j@E#F#G#. . . . . . . . . . .                 ",
"                        . . H#I#J#K#A#A#t#A#t#L#M#N#O#.       . . . . . . . . . .               ",
"                              . . . P#Q#Q#Q#R#. . .             . . . . . . . . . . .           ",
"                                                                  . . . . . . . . . . .         ",
"                                                                      . . . . . . . . . .       ",
"                                                                        . . . . . . . . . .     ",
"                                                                          . . . . . . . .       ",
"                                                                              . . . . . .       ",
"                                                                                . . . .         ",
"                                                                                  . . .         ",
"                                                                                                ",
"                                                                                                "};
