/* XPM */
static char * scanObjects_xpm[] = {
"48 48 99 2",
"  	c None",
". 	c #000000",
"+ 	c #001600",
"@ 	c #007600",
"# 	c #007900",
"$ 	c #006500",
"% 	c #006900",
"& 	c #007300",
"* 	c #000D00",
"= 	c #005100",
"- 	c #00CD00",
"; 	c #00FB00",
"> 	c #00FF00",
", 	c #00F300",
"' 	c #009F00",
") 	c #00AF00",
"! 	c #00F800",
"~ 	c #00C200",
"{ 	c #003500",
"] 	c #00F200",
"^ 	c #00D600",
"/ 	c #008200",
"( 	c #006D00",
"_ 	c #007500",
": 	c #005D00",
"< 	c #00F100",
"[ 	c #00DC00",
"} 	c #00E600",
"| 	c #00FE00",
"1 	c #00CB00",
"2 	c #00C800",
"3 	c #00F600",
"4 	c #00DD00",
"5 	c #00F000",
"6 	c #00E200",
"7 	c #002200",
"8 	c #00AD00",
"9 	c #00D700",
"0 	c #00BB00",
"a 	c #005300",
"b 	c #009200",
"c 	c #008300",
"d 	c #00E400",
"e 	c #003B00",
"f 	c #00CE00",
"g 	c #001C00",
"h 	c #009900",
"i 	c #00F500",
"j 	c #007C00",
"k 	c #00C900",
"l 	c #00E800",
"m 	c #008B00",
"n 	c #004B00",
"o 	c #009600",
"p 	c #00CC00",
"q 	c #00C600",
"r 	c #002E00",
"s 	c #00EC00",
"t 	c #00F900",
"u 	c #00E700",
"v 	c #00ED00",
"w 	c #008700",
"x 	c #00C000",
"y 	c #007200",
"z 	c #00D400",
"A 	c #006600",
"B 	c #007100",
"C 	c #00DA00",
"D 	c #00FC00",
"E 	c #007000",
"F 	c #003D00",
"G 	c #00AA00",
"H 	c #00BF00",
"I 	c #009B00",
"J 	c #00CA00",
"K 	c #004000",
"L 	c #00A300",
"M 	c #00B700",
"N 	c #009400",
"O 	c #00A700",
"P 	c #00EE00",
"Q 	c #00C500",
"R 	c #00B600",
"S 	c #00FA00",
"T 	c #00DE00",
"U 	c #00EB00",
"V 	c #006300",
"W 	c #00F400",
"X 	c #00C300",
"Y 	c #003200",
"Z 	c #009100",
"` 	c #00A600",
" .	c #009500",
"..	c #00C400",
"+.	c #00AC00",
"@.	c #009D00",
"#.	c #008000",
"$.	c #004700",
"%.	c #006000",
". . . . . . . . . . . . . . . . . . . . . . . . . . . . . . . . . . . . . . . . . . . . . . . . ",
". . . . . . . . . . . . . . . . . . . . . . . . . . . . . . . . . . . . . . . . . . . . . . . . ",
". . . . . . . . . . . . . . . . . . . . . . . . . . . . . . . . . . . . . . . . . . . . . . . . ",
". . . . . . . . . . . . . . . . . . . . . . . . . . . . . . . . . . . . . . . . . . . . . . . . ",
". . . . . . . . . . . . . . . . . . . . . . . . . . . . . . . . . . . . . . . . . . . . . . . . ",
". . . . . . . . . . . . . . . . . . . . . . . . . . . . . . . . . . . . . . . . . . . . . . . . ",
". . . . . . . . . . . . . . . . . . . . . . . . . . . . . . . . . . . . . . . . . . . . . . . . ",
". . . . . . . . . . . . . . . . . . . . . . . . . . . . . . . . . . . . . . . . . . . . . . . . ",
". . . . . . . . . . . . . . . . . . . . . . . . . . . . . . . . . . . . . . . . . . . . . . . . ",
". . . . . . . . . . . . . . . . . . . . . . . . . . . . . . . . . . . . . . . . . . . . . . . . ",
". . . . . . . . . . . . . . . . . . . . . . . . . . . . . . . . . . . . . . . . . . . . . . . . ",
". . . . . . . . . . . . . . . . . . . . . . . . . . . . . . . . . . . . . . . . . . . . . . . . ",
". . . . . . . . . . . . . . . . . . . . . . . . . . . . . . . . . . . . . . . . . . . . . . . . ",
". . . . . . . . . . . . . . . . . . . . . . . . . . . . . . . . . . . . . . . . . . . . . . . . ",
". . . . . . . . . . . . . . . . . . . . . . . . . . . . . . . . . . . . . . . . . . . . . . . . ",
". . . . . . . . . . . . . . . . . . . . . . . . . . . . . . . . . . . . . . . . . . . . . . . . ",
". . . . . . + @ # $ . . . . . . . % # & * . . . . . . . . . . . . . . . . . . . . . . . . . . . ",
". . . . = - ; > > > , ' . . . ) , > > > ! ~ { . . . > > > > > ] ^ / . . . ( > > > > > > > _ . . ",
". . . : < > > < [ } | 1 . . 2 > > 3 4 5 > > 6 7 . . > > > > > > > > 8 . . ( > > > > > > > & . . ",
". . . 9 > > 0 . . . a b . c > > d e . * f > > 8 . . > > 9 . g h i > > j . ( > > k . . . . . . . ",
". . = > > l . . . . . . . 2 > > m . . . n > > 6 . . > > 9 . . . o > > p . ( > > k . . . . . . . ",
". . c > > q . . . . . . . 6 > > r . . . . s > t . . > > 9 . . . * > > u . ( > > > > > > v . . . ",
". . w > > x . . . . . . . u > > . . . . . u > | . . > > 9 . . . . > > } . ( > > > > > > v . . . ",
". . y > > ^ . . . . . . . z > > A . . . . ! > v . . > > 9 . . . B > > C . ( > > 2 . . . . . . . ",
". . . 5 > D E . . . . F . G > > H . . . I > > J . . > > 9 . . K 6 > > L . ( > > k . . . . . . . ",
". . . I > > 3 M N O ^ J . { P > > Q o R S > S $ . . > > 5 J 9 ! > > T . . ( > > U J J J J y . . ",
". . . . L t > > > > > 2 . . V U > > > > > W w . . . > > > > > > ; X Y . . ( > > > > > > > Z . . ",
". . . . . n ` k J ~  .g . . . * o ..J 2 ' e . . . . 8 +.+.G @.#.r . . . . $.+.+.+.+.+.+.+.%.. . ",
". . . . . . . . . . . . . . . . . . . . . . . . . . . . . . . . . . . . . . . . . . . . . . . . ",
". . . . . . . . . . . . . . . . . . . . . . . . . . . . . . . . . . . . . . . . . . . . . . . . ",
". . . . . . . . . . . . . . . . . . . . . . . . . . . . . . . . . . . . . . . . . . . . . . . . ",
". . . . . . . . . . . . . . . . . . . . . . . . . . . . . . . . . . . . . . . . . . . . . . . . ",
". . . . . . . . . . . . . . . . . . . . . . . . . . . . . . . . . . . . . . . . . . . . . . . . ",
". . . . . . . . . . . . . . . . . . . . . . . . . . . . . . . . . . . . . . . . . . . . . . . . ",
". . . . . . . . . . . . . . . . . . . . . . . . . . . . . . . . . . . . . . . . . . . . . . . . ",
". . . . . . . . . . . . . . . . . . . . . . . . . . . . . . . . . . . . . . . . . . . . . . . . ",
". . . . . . . . . . . . . . . . . . . . . . . . . . . . . . . . . . . . . . . . . . . . . . . . ",
". . . . . . . . . . . . . . . . . . . . . . . . . . . . . . . . . . . . . . . . . . . . . . . . ",
". . . . . . . . . . . . . . . . . . . . . . . . . . . . . . . . . . . . . . . . . . . . . . . . ",
". . . . . . . . . . . . . . . . . . . . . . . . . . . . . . . . . . . . . . . . . . . . . . . . ",
". . . . . . . . . . . . . . . . . . . . . . . . . . . . . . . . . . . . . . . . . . . . . . . . ",
". . . . . . . . . . . . . . . . . . . . . . . . . . . . . . . . . . . . . . . . . . . . . . . . ",
". . . . . . . . . . . . . . . . . . . . . . . . . . . . . . . . . . . . . . . . . . . . . . . . ",
". . . . . . . . . . . . . . . . . . . . . . . . . . . . . . . . . . . . . . . . . . . . . . . . ",
". . . . . . . . . . . . . . . . . . . . . . . . . . . . . . . . . . . . . . . . . . . . . . . . ",
". . . . . . . . . . . . . . . . . . . . . . . . . . . . . . . . . . . . . . . . . . . . . . . . ",
". . . . . . . . . . . . . . . . . . . . . . . . . . . . . . . . . . . . . . . . . . . . . . . . ",
". . . . . . . . . . . . . . . . . . . . . . . . . . . . . . . . . . . . . . . . . . . . . . . . "};
