/* XPM */
static char * setTextures_xpm[] = {
"48 48 716 2",
"  	c None",
". 	c #383869",
"+ 	c #3A3A6A",
"@ 	c #3B3B6B",
"# 	c #3D3D6C",
"$ 	c #3E3E6D",
"% 	c #40406E",
"& 	c #42426F",
"* 	c #434370",
"= 	c #444471",
"- 	c #464672",
"; 	c #44446F",
"> 	c #353558",
", 	c #333351",
"' 	c #484873",
") 	c #474772",
"! 	c #39395D",
"~ 	c #2C2D45",
"{ 	c #383B3E",
"] 	c #484C4F",
"^ 	c #4B4E51",
"/ 	c #44446E",
"( 	c #494974",
"_ 	c #484872",
": 	c #3C3C60",
"< 	c #2F2F48",
"[ 	c #33343A",
"} 	c #444649",
"| 	c #525658",
"1 	c #515456",
"2 	c #515457",
"3 	c #4E5256",
"4 	c #404163",
"5 	c #4B4B75",
"6 	c #4A4A75",
"7 	c #3F3F64",
"8 	c #31314B",
"9 	c #2F2F36",
"0 	c #3E3F42",
"a 	c #4B4C4F",
"b 	c #4D4F52",
"c 	c #4C4E50",
"d 	c #4C4E51",
"e 	c #4C5054",
"f 	c #4C4F52",
"g 	c #4A4C4F",
"h 	c #424357",
"i 	c #4C4C76",
"j 	c #424268",
"k 	c #32324F",
"l 	c #2A2933",
"m 	c #39393A",
"n 	c #484748",
"o 	c #49494A",
"p 	c #464748",
"q 	c #46474A",
"r 	c #46494D",
"s 	c #484A4D",
"t 	c #494B4D",
"u 	c #505254",
"v 	c #4E4F52",
"w 	c #41424A",
"x 	c #4E4E77",
"y 	c #4E4E78",
"z 	c #45456A",
"A 	c #353552",
"B 	c #2A2A33",
"C 	c #3A393B",
"D 	c #4A494D",
"E 	c #454547",
"F 	c #444547",
"G 	c #434547",
"H 	c #48484A",
"I 	c #49494B",
"J 	c #48484B",
"K 	c #4B4D50",
"L 	c #4A4B4E",
"M 	c #45474A",
"N 	c #444548",
"O 	c #434447",
"P 	c #46466D",
"Q 	c #4F4F79",
"R 	c #49496F",
"S 	c #383857",
"T 	c #282732",
"U 	c #323032",
"V 	c #454344",
"W 	c #444344",
"X 	c #414042",
"Y 	c #424345",
"Z 	c #414244",
"` 	c #454546",
" .	c #444546",
"..	c #4A494B",
"+.	c #474749",
"@.	c #47474A",
"#.	c #414245",
"$.	c #424447",
"%.	c #454648",
"&.	c #464649",
"*.	c #424245",
"=.	c #42425E",
"-.	c #51517A",
";.	c #4B4B72",
">.	c #393957",
",.	c #2E2F3E",
"'.	c #37373A",
").	c #414143",
"!.	c #454447",
"~.	c #424144",
"{.	c #434245",
"].	c #403F42",
"^.	c #454244",
"/.	c #434041",
"(.	c #444142",
"_.	c #474649",
":.	c #454446",
"<.	c #403F41",
"[.	c #3E3E40",
"}.	c #3C3D40",
"|.	c #3D3E42",
"1.	c #47494B",
"2.	c #3F4143",
"3.	c #404041",
"4.	c #414141",
"5.	c #3D3D4E",
"6.	c #52527B",
"7.	c #4F4F75",
"8.	c #3E3E5D",
"9.	c #2F3040",
"0.	c #3F4043",
"a.	c #47484C",
"b.	c #49494D",
"c.	c #424246",
"d.	c #3E3E42",
"e.	c #3E3E41",
"f.	c #434246",
"g.	c #454345",
"h.	c #484646",
"i.	c #484547",
"j.	c #434244",
"k.	c #3D3B3E",
"l.	c #3D3C3D",
"m.	c #3A3A3C",
"n.	c #3D3C3F",
"o.	c #404042",
"p.	c #3C3C3E",
"q.	c #3D3D40",
"r.	c #3B3C3D",
"s.	c #3D4042",
"t.	c #404245",
"u.	c #434446",
"v.	c #403F3F",
"w.	c #505078",
"x.	c #54547C",
"y.	c #505077",
"z.	c #40405F",
"A.	c #3A3B4C",
"B.	c #4B4D51",
"C.	c #56575C",
"D.	c #5B5D61",
"E.	c #4E4E51",
"F.	c #46484C",
"G.	c #404045",
"H.	c #434346",
"I.	c #444345",
"J.	c #424042",
"K.	c #3F3D3F",
"L.	c #3A383A",
"M.	c #353334",
"N.	c #3A3839",
"O.	c #3B393B",
"P.	c #414346",
"Q.	c #414345",
"R.	c #454548",
"S.	c #404143",
"T.	c #3E3E3E",
"U.	c #474768",
"V.	c #55557D",
"W.	c #53537A",
"X.	c #434363",
"Y.	c #39394D",
"Z.	c #4F5055",
"`.	c #62656A",
" +	c #65676C",
".+	c #5A5C61",
"++	c #53555A",
"@+	c #4D4F53",
"#+	c #4A4A4D",
"$+	c #434143",
"%+	c #403E40",
"&+	c #3D3D3E",
"*+	c #3D3C3E",
"=+	c #3E3C3F",
"-+	c #3B3A3B",
";+	c #393739",
">+	c #373536",
",+	c #363334",
"'+	c #39373A",
")+	c #3D3A3C",
"!+	c #3F3D3E",
"~+	c #434142",
"{+	c #3D3E41",
"]+	c #3B3C3E",
"^+	c #373739",
"/+	c #404058",
"(+	c #57577E",
"_+	c #55557B",
":+	c #3A3B50",
"<+	c #4C4E54",
"[+	c #5F6166",
"}+	c #6A6C70",
"|+	c #6E6F73",
"1+	c #5E5F63",
"2+	c #626468",
"3+	c #595B60",
"4+	c #525256",
"5+	c #525156",
"6+	c #444244",
"7+	c #3B3B3E",
"8+	c #3F3F41",
"9+	c #383637",
"0+	c #373537",
"a+	c #363335",
"b+	c #373435",
"c+	c #3B393A",
"d+	c #3E3A3B",
"e+	c #393534",
"f+	c #413D3E",
"g+	c #3F3C3D",
"h+	c #424041",
"i+	c #3C3B3E",
"j+	c #3D3D3F",
"k+	c #3A3A3D",
"l+	c #37383A",
"m+	c #363638",
"n+	c #383636",
"o+	c #36343E",
"p+	c #58587F",
"q+	c #57577D",
"r+	c #4A4A6B",
"s+	c #393951",
"t+	c #3F4146",
"u+	c #4A4D51",
"v+	c #62666B",
"w+	c #5D6165",
"x+	c #616367",
"y+	c #5E6063",
"z+	c #5E6064",
"A+	c #606266",
"B+	c #5D5D60",
"C+	c #535256",
"D+	c #4A494C",
"E+	c #48474A",
"F+	c #404043",
"G+	c #3E3C3E",
"H+	c #3B3A3C",
"I+	c #383739",
"J+	c #333132",
"K+	c #363435",
"L+	c #39383B",
"M+	c #373334",
"N+	c #3C3838",
"O+	c #3D3838",
"P+	c #3F3B3C",
"Q+	c #3E3B3C",
"R+	c #413F40",
"S+	c #3C393A",
"T+	c #3C3A3A",
"U+	c #3B3A3E",
"V+	c #363639",
"W+	c #363536",
"X+	c #383536",
"Y+	c #3A3838",
"Z+	c #383434",
"`+	c #3B3738",
" @	c #363232",
".@	c #525277",
"+@	c #5A5A80",
"@@	c #272836",
"#@	c #3B3D40",
"$@	c #47484B",
"%@	c #54575A",
"&@	c #525357",
"*@	c #58595D",
"=@	c #545558",
"-@	c #58585B",
";@	c #5C5D61",
">@	c #57575A",
",@	c #535356",
"'@	c #505053",
")@	c #4D4D50",
"!@	c #444447",
"~@	c #393839",
"{@	c #373638",
"]@	c #3F3E41",
"^@	c #3A383B",
"/@	c #343134",
"(@	c #3C383A",
"_@	c #3D393B",
":@	c #393637",
"<@	c #3D3A3B",
"[@	c #3C3A3B",
"}@	c #333031",
"|@	c #323031",
"1@	c #353433",
"2@	c #3A3738",
"3@	c #3D3A3A",
"4@	c #3E3C3B",
"5@	c #3A3737",
"6@	c #383433",
"7@	c #34302F",
"8@	c #484865",
"9@	c #5B5B81",
"0@	c #3D3D54",
"a@	c #3A3B3C",
"b@	c #3A3C3E",
"c@	c #494A4E",
"d@	c #444648",
"e@	c #4D4D4F",
"f@	c #585759",
"g@	c #4B4B4E",
"h@	c #5A5B5F",
"i@	c #555558",
"j@	c #49484C",
"k@	c #3D3B3D",
"l@	c #3B3839",
"m@	c #363333",
"n@	c #3A3739",
"o@	c #373335",
"p@	c #383435",
"q@	c #3B393C",
"r@	c #343232",
"s@	c #333030",
"t@	c #373434",
"u@	c #373433",
"v@	c #373635",
"w@	c #414041",
"x@	c #3D3B3C",
"y@	c #3C3939",
"z@	c #3C3736",
"A@	c #383534",
"B@	c #33302E",
"C@	c #302E2C",
"D@	c #3D3C4F",
"E@	c #5D5D82",
"F@	c #4B4B69",
"G@	c #29292B",
"H@	c #333334",
"I@	c #4F4F53",
"J@	c #505054",
"K@	c #4C4C50",
"L@	c #525055",
"M@	c #3F3F42",
"N@	c #424145",
"O@	c #413C3C",
"P@	c #3A3536",
"Q@	c #373233",
"R@	c #343031",
"S@	c #342E2E",
"T@	c #373436",
"U@	c #393636",
"V@	c #353232",
"W@	c #322F30",
"X@	c #3C3837",
"Y@	c #403E3E",
"Z@	c #3D3B3B",
"`@	c #3B3836",
" #	c #393634",
".#	c #353231",
"+#	c #322F2E",
"@#	c #302D2C",
"##	c #322E2D",
"$#	c #312F2D",
"%#	c #2B2A2C",
"&#	c #5F5F83",
"*#	c #5A5A7D",
"=#	c #272727",
"-#	c #2D2E2F",
";#	c #303033",
">#	c #39393C",
",#	c #39393B",
"'#	c #404044",
")#	c #4C4D50",
"!#	c #444245",
"~#	c #4D4C50",
"{#	c #464446",
"]#	c #3A3637",
"^#	c #353132",
"/#	c #343131",
"(#	c #363231",
"_#	c #393433",
":#	c #3B3635",
"<#	c #403B3C",
"[#	c #3C3839",
"}#	c #3C3938",
"|#	c #3B3837",
"1#	c #343130",
"2#	c #34302E",
"3#	c #2F2D2C",
"4#	c #2C2928",
"5#	c #2F2C2C",
"6#	c #2F2B2B",
"7#	c #312F2F",
"8#	c #2D2A29",
"9#	c #525272",
"0#	c #606084",
"a#	c #2E2E3F",
"b#	c #222122",
"c#	c #313031",
"d#	c #333335",
"e#	c #353538",
"f#	c #38373A",
"g#	c #474548",
"h#	c #454243",
"i#	c #464445",
"j#	c #383538",
"k#	c #3B383C",
"l#	c #3B3737",
"m#	c #353131",
"n#	c #353233",
"o#	c #363233",
"p#	c #3A3636",
"q#	c #383232",
"r#	c #393333",
"s#	c #393331",
"t#	c #3D3736",
"u#	c #3B3534",
"v#	c #3A3736",
"w#	c #353230",
"x#	c #322E2C",
"y#	c #312D2C",
"z#	c #322F2F",
"A#	c #2D2A2A",
"B#	c #2D2927",
"C#	c #2B2625",
"D#	c #312E2C",
"E#	c #292526",
"F#	c #252223",
"G#	c #2A2929",
"H#	c #47475F",
"I#	c #626285",
"J#	c #44445E",
"K#	c #232324",
"L#	c #262627",
"M#	c #2E2F30",
"N#	c #2F2F31",
"O#	c #333233",
"P#	c #424143",
"Q#	c #454445",
"R#	c #3E3C3D",
"S#	c #3B383B",
"T#	c #363132",
"U#	c #373132",
"V#	c #3C3636",
"W#	c #3A3535",
"X#	c #383331",
"Y#	c #35312F",
"Z#	c #312B2A",
"`#	c #322E2E",
" $	c #302E2D",
".$	c #2F2E2D",
"+$	c #282625",
"@$	c #221F20",
"#$	c #232121",
"$$	c #2C2A2B",
"%$	c #2D2C2C",
"&$	c #353544",
"*$	c #636386",
"=$	c #565675",
"-$	c #1B1A1A",
";$	c #21201F",
">$	c #2B2A2A",
",$	c #363537",
"'$	c #3A393A",
")$	c #343435",
"!$	c #393838",
"~$	c #3F393A",
"{$	c #3D3837",
"]$	c #3B3434",
"^$	c #37302F",
"/$	c #393535",
"($	c #342F2E",
"_$	c #312D2D",
":$	c #302C2A",
"<$	c #332F2E",
"[$	c #302C2B",
"}$	c #302D2B",
"|$	c #292726",
"1$	c #282525",
"2$	c #242122",
"3$	c #252324",
"4$	c #282626",
"5$	c #292829",
"6$	c #383748",
"7$	c #4D4D68",
"8$	c #636387",
"9$	c #656587",
"0$	c #1F1E23",
"a$	c #292625",
"b$	c #2C2A29",
"c$	c #2A2829",
"d$	c #2B2B2C",
"e$	c #323334",
"f$	c #2E2D2E",
"g$	c #343234",
"h$	c #373535",
"i$	c #403D3E",
"j$	c #3E3B3B",
"k$	c #342E2D",
"l$	c #3F3937",
"m$	c #393332",
"n$	c #383332",
"o$	c #332E2D",
"p$	c #2F2A2A",
"q$	c #302B29",
"r$	c #2C2726",
"s$	c #2D2A2B",
"t$	c #2E2C2B",
"u$	c #2F2C2D",
"v$	c #2E2C2C",
"w$	c #252120",
"x$	c #262323",
"y$	c #272423",
"z$	c #262322",
"A$	c #292626",
"B$	c #262422",
"C$	c #373746",
"D$	c #4C4C66",
"E$	c #606081",
"F$	c #666688",
"G$	c #3C3C4F",
"H$	c #232222",
"I$	c #222120",
"J$	c #2C2B2C",
"K$	c #2D2C2B",
"L$	c #302E2E",
"M$	c #2F2D2D",
"N$	c #383638",
"O$	c #393536",
"P$	c #373232",
"Q$	c #3C3738",
"R$	c #352F2E",
"S$	c #383130",
"T$	c #393432",
"U$	c #383333",
"V$	c #3B3637",
"W$	c #322D2C",
"X$	c #2F2B2A",
"Y$	c #2D2827",
"Z$	c #2B2626",
"`$	c #2D2929",
" %	c #2B2727",
".%	c #2C2827",
"+%	c #2A2827",
"@%	c #252222",
"#%	c #252221",
"$%	c #282523",
"%%	c #34333F",
"&%	c #4C4C64",
"*%	c #606080",
"=%	c #686889",
"-%	c #50506B",
";%	c #211F1E",
">%	c #252323",
",%	c #2F2E2F",
"'%	c #343132",
")%	c #373333",
"!%	c #35302E",
"~%	c #2C2725",
"{%	c #2E2A28",
"]%	c #2D2928",
"^%	c #2F2C2B",
"/%	c #2B2725",
"(%	c #2A2624",
"_%	c #2A2625",
":%	c #2A2726",
"<%	c #262424",
"[%	c #242121",
"}%	c #221F1F",
"|%	c #2F2D37",
"1%	c #4C4C63",
"2%	c #5F5F7E",
"3%	c #68688A",
"4%	c #69698A",
"5%	c #636382",
"6%	c #1D1B1B",
"7%	c #252422",
"8%	c #2B2826",
"9%	c #363332",
"0%	c #2E2A29",
"a%	c #272221",
"b%	c #282424",
"c%	c #2A2626",
"d%	c #2B2827",
"e%	c #2A2828",
"f%	c #282727",
"g%	c #272626",
"h%	c #222021",
"i%	c #2C2A34",
"j%	c #49495F",
"k%	c #5F5F7D",
"l%	c #6B6B8B",
"m%	c #6B6B8C",
"n%	c #2D2C39",
"o%	c #221F1D",
"p%	c #23201E",
"q%	c #262222",
"r%	c #2E2B2A",
"s%	c #302D2D",
"t%	c #2F2B29",
"u%	c #2C2927",
"v%	c #39383A",
"w%	c #2E2D2D",
"x%	c #262423",
"y%	c #242222",
"z%	c #201E1E",
"A%	c #27252D",
"B%	c #4A495F",
"C%	c #5D5D7A",
"D%	c #6A6A8B",
"E%	c #6C6C8C",
"F%	c #48485E",
"G%	c #1E1C1A",
"H%	c #211E1C",
"I%	c #221E1D",
"J%	c #272422",
"K%	c #282524",
"L%	c #272322",
"M%	c #2C2826",
"N%	c #292524",
"O%	c #2D2B2B",
"P%	c #2B2828",
"Q%	c #2B292A",
"R%	c #272627",
"S%	c #211F1F",
"T%	c #26242A",
"U%	c #46465A",
"V%	c #5C5C78",
"W%	c #6C6C8B",
"X%	c #6E6E8E",
"Y%	c #5D5D78",
"Z%	c #1C1917",
"`%	c #201C1B",
" &	c #211D1C",
".&	c #242120",
"+&	c #22201E",
"@&	c #23201F",
"#&	c #262221",
"$&	c #272525",
"%&	c #211E1D",
"&&	c #1F1C1B",
"*&	c #1D1A1A",
"=&	c #232127",
"-&	c #454558",
";&	c #5C5C76",
">&	c #6F6F8F",
",&	c #6D6D8B",
"'&	c #1A191C",
")&	c #1B1918",
"!&	c #1F1D1C",
"~&	c #212020",
"{&	c #1E1B1A",
"]&	c #1E1A19",
"^&	c #252423",
"/&	c #292728",
"(&	c #201D1D",
"_&	c #1F1D1E",
":&	c #424253",
"<&	c #5A5A74",
"[&	c #717190",
"}&	c #3C3C4D",
"|&	c #161513",
"1&	c #171515",
"2&	c #1A1816",
"3&	c #191817",
"4&	c #1C1A1A",
"5&	c #1E1C1C",
"6&	c #1F1D1D",
"7&	c #1B1A1C",
"8&	c #3E3D4D",
"9&	c #585871",
"0&	c #6E6E8C",
"a&	c #727291",
"b&	c #56566D",
"c&	c #111111",
"d&	c #131312",
"e&	c #151413",
"f&	c #161514",
"g&	c #181716",
"h&	c #1B1919",
"i&	c #191613",
"j&	c #3D3C4A",
"k&	c #58586F",
"l&	c #6E6E8B",
"m&	c #747492",
"n&	c #6A6A85",
"o&	c #0D0C0C",
"p&	c #131212",
"q&	c #161615",
"r&	c #343441",
"s&	c #56566C",
"t&	c #6E6E8A",
"u&	c #757593",
"v&	c #292933",
"w&	c #2F2F3A",
"x&	c #6C6C87",
"y&	c #767693",
"z&	c #777794",
"A&	c #73738F",
"B&	c #797995",
"C&	c #7A7A96",
"D&	c #7C7C97",
"E&	c #7D7D98",
"F&	c #7F7F99",
"G&	c #80809A",
". . . . . . . . . . . . . . . . . . . . . . . . . . . . . . . . . . . . . . . . . . . . . . . . ",
"+ + + + + + + + + + + + + + + + + + + + + + + + + + + + + + + + + + + + + + + + + + + + + + + + ",
"@ @ @ @ @ @ @ @ @ @ @ @ @ @ @ @ @ @ @ @ @ @ @ @ @ @ @ @ @ @ @ @ @ @ @ @ @ @ @ @ @ @ @ @ @ @ @ @ ",
"# # # # # # # # # # # # # # # # # # # # # # # # # # # # # # # # # # # # # # # # # # # # # # # # ",
"$ $ $ $ $ $ $ $ $ $ $ $ $ $ $ $ $ $ $ $ $ $ $ $ $ $ $ $ $ $ $ $ $ $ $ $ $ $ $ $ $ $ $ $ $ $ $ $ ",
"% % % % % % % % % % % % % % % % % % % % % % % % % % % % % % % % % % % % % % % % % % % % % % % % ",
"& & & & & & & & & & & & & & & & & & & & & & & & & & & & & & & & & & & & & & & & & & & & & & & & ",
"* * * * * * * * * * * * * * * * * * * * * * * * * * * * * * * * * * * * * * * * * * * * * * * * ",
"= = = = = = = = = = = = = = = = = = = = = = = = = = = = = = = = = = = = = = = = = = = = = = = = ",
"- - - - - - - - - - - - - - - - - - - - - - - - - - - - - - - - - - - - - ; > , - - - - - - - - ",
"' ' ' ' ' ' ' ' ' ' ' ' ' ' ' ' ' ' ' ' ' ' ' ' ' ' ' ' ' ' ' ' ' ' ) ! ~ { ] ^ / ' ' ' ' ' ' ' ",
"( ( ( ( ( ( ( ( ( ( ( ( ( ( ( ( ( ( ( ( ( ( ( ( ( ( ( ( ( ( ( _ : < [ } | 1 2 3 4 ( ( ( ( ( ( ( ",
"5 5 5 5 5 5 5 5 5 5 5 5 5 5 5 5 5 5 5 5 5 5 5 5 5 5 5 5 6 7 8 9 0 a b c d e f g h 5 5 5 5 5 5 5 ",
"i i i i i i i i i i i i i i i i i i i i i i i i i i j k l m n o p q r s t c u v w i i i i i i i ",
"x x x x x x x x x x x x x x x x x x x x x x y z A B C o D E E F G H I J K L M N O P x x x x x x ",
"Q Q Q Q Q Q Q Q Q Q Q Q Q Q Q Q Q Q Q Q R S T U V W X X Y Z `  ...+.@.#.$.F %.&.*.=.Q Q Q Q Q Q ",
"-.-.-.-.-.-.-.-.-.-.-.-.-.-.-.-.-.;.>.,.'.).!.~.{.].^./.(._.:.<.[.}.|.#.1.O 2.3.4.5.-.-.-.-.-.-.",
"6.6.6.6.6.6.6.6.6.6.6.6.6.6.7.8.9.0.a.b.c.d.e.f.g.h.i.j.k.l.m.n.o.p.q.r.s.t.u.` v.m w.6.6.6.6.6.",
"x.x.x.x.x.x.x.x.x.x.x.y.z.A.B.C.D.E.F.G.H.I.J.I.:.X K.L.L.M.N.L.O.m.P.Q.R.S.).[.o.T.U.x.x.x.x.x.",
"V.V.V.V.V.V.V.V.W.X.Y.Z.`. +.+++@+#+$+j.!.%+&+*+=+-+;+>+,+>+m.'+)+!+~+).t.0.}.{+]+^+/+V.V.V.V.V.",
"(+(+(+(+(+_+U.:+<+[+}+|+1+2+3+4+5+!.6+[.7+8+9+0+M.a+b+c+L.d+e+f+g+h+i+j+{+j+k+l+m+n+o+(+(+(+(+(+",
"p+p+q+r+s+t+u+v+w+x+y+z+A+B+C+D+E+F+G+H+I+J+,+K+L+M+N+O+P+Q+R+S+T+*+U+V+I+W+X+Y+Z+`+ @.@p+p+p+p+",
"+@+@@@#@++$@%@&@*@=@-@;@>@,@'@)@E+!@~@{@]@^@;+/@X+(@_@:@S+<@[@n.O.}@|@1@2@S+3@4@5@6@7@8@+@+@+@+@",
"9@9@0@a@b@#.c@d@e@f@g@h@i@j@g@b.].]@k@O.a+l@m@n@o@p@K+q@n.L.r@s@t@u@v@5@w@x@y@z@A@B@C@D@9@9@9@9@",
"E@E@F@G@H@j+%.#+N I@J@K@L@_.M@N@K.h+O@P@Q@R@S@M+T@2@U@V@W@V@M+X@y@Y@Z@T+`@ #.#+#@###$#%#E@E@E@E@",
"&#&#*#=#-#;#>#,#*.'#b.)#!#X ~#{#J.)+]#P@2@a+2@^#/#^#(#_#:#N+<#[#}#|#X@1#2#3#C@4#5#6#7#8#9#&#&#&#",
"0#0#0#a#b#c#d#e#7+f#3.#+g#h#g.i#S+%+j#k#l#m#n#o#p#q#r#s#:#t#u#v#w#x#y#z#A#B#C#D#s@E#F#G#H#0#0#0#",
"I#I#I#J#K#L#M#N#O#P#Q#P#%+R#<.].S#x@T#2@N+U#V#z@V#W#X#_#e+Y#7@Z#`#+#7#3#A# $.$+$@$#$$$%$&$I#I#I#",
"*$*$*$=$-$;$>$,$'$)$o.M@e.!$O.Q@X+n#[#~${$]$^$X@/$2#($^#_$:$<$##y#[$}$|$1$2$3$4$4$G#5$6$7$8$*$*$",
"9$9$9$9$0$a$b$c$d$e$f$g$W@h$i$j$N+2@T#k$l$m$n$<$o$p$q$r$o$6#s$t$u$v$w$x$y$z$A$B$C$D$E$9$9$9$9$9$",
"F$F$F$F$G$H$I$J$K$L$M$N$O$P$Q$R$S$R$T$U$V$S@W$y#X$Y$Z$`$ %.%+%@%@%4$z$#%$%%%&%*%F$F$F$F$F$F$F$F$",
"=%=%=%=%-%;%>%|$,%'%)%Z+($7@r#!%($1# @ @~%{%]%^%/%(%_%:%s$.$G#<%[%}%|%1%2%3%=%=%=%=%=%=%=%=%=%=%",
"4%4%4%4%5%6%7%a$8%B#Y$~%X$,+r@9%0%@# @X$a%b%b%c%d%e%4$4$f%g%h%i%j%k%4%4%4%4%4%4%4%4%4%4%4%4%4%4%",
"l%l%l%l%m%n%o%p%q%$%b%r%3#6#s%5#t%t%`$:%u%L$v%w%x%y%#$z%A%B%C%D%l%l%l%l%l%l%l%l%l%l%l%l%l%l%l%l%",
"E%E%E%E%E%F%G%H%I%z$J%K%L%M%N%y$O%P%L%8#a$Q%R%S%;%T%U%V%W%E%E%E%E%E%E%E%E%E%E%E%E%E%E%E%E%E%E%E%",
"X%X%X%X%X%Y%Z%`% &.&+&#%@&z$N%#&@&$&%&&&*&*&=&-&;&W%X%X%X%X%X%X%X%X%X%X%X%X%X%X%X%X%X%X%X%X%X%X%",
">&>&>&>&>&,&'&)&!&~&{&]&+&#%#$^&/&S%(&_&:&<&W%>&>&>&>&>&>&>&>&>&>&>&>&>&>&>&>&>&>&>&>&>&>&>&>&>&",
"[&[&[&[&[&[&}&|&1&2&3&4&(&5&z%6&7&8&9&0&[&[&[&[&[&[&[&[&[&[&[&[&[&[&[&[&[&[&[&[&[&[&[&[&[&[&[&[&",
"a&a&a&a&a&a&b&c&d&e&f&g&h&i&j&k&l&a&a&a&a&a&a&a&a&a&a&a&a&a&a&a&a&a&a&a&a&a&a&a&a&a&a&a&a&a&a&a&",
"m&m&m&m&m&m&n&o&p&e&q&r&s&t&m&m&m&m&m&m&m&m&m&m&m&m&m&m&m&m&m&m&m&m&m&m&m&m&m&m&m&m&m&m&m&m&m&m&",
"u&u&u&u&u&u&u&v&w&s&x&y&u&u&u&u&u&u&u&u&u&u&u&u&u&u&u&u&u&u&u&u&u&u&u&u&u&u&u&u&u&u&u&u&u&u&u&u&",
"z&z&z&z&z&z&z&A&z&z&z&z&z&z&z&z&z&z&z&z&z&z&z&z&z&z&z&z&z&z&z&z&z&z&z&z&z&z&z&z&z&z&z&z&z&z&z&z&",
"B&B&B&B&B&B&B&B&B&B&B&B&B&B&B&B&B&B&B&B&B&B&B&B&B&B&B&B&B&B&B&B&B&B&B&B&B&B&B&B&B&B&B&B&B&B&B&B&",
"C&C&C&C&C&C&C&C&C&C&C&C&C&C&C&C&C&C&C&C&C&C&C&C&C&C&C&C&C&C&C&C&C&C&C&C&C&C&C&C&C&C&C&C&C&C&C&C&",
"D&D&D&D&D&D&D&D&D&D&D&D&D&D&D&D&D&D&D&D&D&D&D&D&D&D&D&D&D&D&D&D&D&D&D&D&D&D&D&D&D&D&D&D&D&D&D&D&",
"E&E&E&E&E&E&E&E&E&E&E&E&E&E&E&E&E&E&E&E&E&E&E&E&E&E&E&E&E&E&E&E&E&E&E&E&E&E&E&E&E&E&E&E&E&E&E&E&",
"F&F&F&F&F&F&F&F&F&F&F&F&F&F&F&F&F&F&F&F&F&F&F&F&F&F&F&F&F&F&F&F&F&F&F&F&F&F&F&F&F&F&F&F&F&F&F&F&",
"G&G&G&G&G&G&G&G&G&G&G&G&G&G&G&G&G&G&G&G&G&G&G&G&G&G&G&G&G&G&G&G&G&G&G&G&G&G&G&G&G&G&G&G&G&G&G&G&"};
