/* XPM */
static char * setTextures_xpm[] = {
"48 48 424 2",
"  	c None",
". 	c #16100F",
"+ 	c #241A16",
"@ 	c #211714",
"# 	c #1A120F",
"$ 	c #1E1613",
"% 	c #201815",
"& 	c #1F1714",
"* 	c #1F1713",
"= 	c #291D17",
"- 	c #241A14",
"; 	c #17110E",
"> 	c #261B15",
", 	c #1F1613",
"' 	c #201814",
") 	c #211814",
"! 	c #211915",
"~ 	c #281E18",
"{ 	c #2D211B",
"] 	c #201713",
"^ 	c #160F0C",
"/ 	c #1E1510",
"( 	c #1F1611",
"_ 	c #1F1612",
": 	c #211713",
"< 	c #231914",
"[ 	c #1C1512",
"} 	c #251B16",
"| 	c #221915",
"1 	c #281E19",
"2 	c #32241D",
"3 	c #261B17",
"4 	c #1B1411",
"5 	c #1B140F",
"6 	c #18120F",
"7 	c #201712",
"8 	c #1E1714",
"9 	c #2A1F18",
"0 	c #2E211B",
"a 	c #261C17",
"b 	c #271D18",
"c 	c #33251D",
"d 	c #291D19",
"e 	c #1F1614",
"f 	c #1A1310",
"g 	c #1E140E",
"h 	c #1B130E",
"i 	c #1A130F",
"j 	c #1E1611",
"k 	c #211813",
"l 	c #241A15",
"m 	c #30241D",
"n 	c #2C201B",
"o 	c #241C18",
"p 	c #2E221D",
"q 	c #372921",
"r 	c #30241E",
"s 	c #241C19",
"t 	c #211A17",
"u 	c #130C09",
"v 	c #1A110E",
"w 	c #1F150F",
"x 	c #231812",
"y 	c #211711",
"z 	c #1D1511",
"A 	c #281D17",
"B 	c #1F1916",
"C 	c #271E1A",
"D 	c #29201B",
"E 	c #271F1C",
"F 	c #302520",
"G 	c #382B24",
"H 	c #382C24",
"I 	c #352923",
"J 	c #2D2521",
"K 	c #2B2421",
"L 	c #2A221F",
"M 	c #0D0807",
"N 	c #160E0B",
"O 	c #19100D",
"P 	c #19110E",
"Q 	c #211611",
"R 	c #261A14",
"S 	c #1D1612",
"T 	c #231A15",
"U 	c #2C231E",
"V 	c #28201B",
"W 	c #251E1B",
"X 	c #29221E",
"Y 	c #322924",
"Z 	c #392E27",
"` 	c #3D322B",
" .	c #3D332D",
"..	c #3C3431",
"+.	c #37312F",
"@.	c #3A3433",
"#.	c #3F3939",
"$.	c #3C3635",
"%.	c #150D0A",
"&.	c #180F0B",
"*.	c #170F0C",
"=.	c #150E0B",
"-.	c #17100D",
";.	c #19120E",
">.	c #1C1410",
",.	c #231813",
"'.	c #271B16",
").	c #251B15",
"!.	c #221813",
"~.	c #1C1613",
"{.	c #231A16",
"].	c #261D17",
"^.	c #281F1A",
"/.	c #2A221D",
"(.	c #312722",
"_.	c #322A26",
":.	c #332D2B",
"<.	c #3A3330",
"[.	c #473E3A",
"}.	c #4B433F",
"|.	c #4E4846",
"1.	c #534F4F",
"2.	c #565455",
"3.	c #555558",
"4.	c #565758",
"5.	c #545353",
"6.	c #4D4C4B",
"7.	c #120C09",
"8.	c #19110D",
"9.	c #1C130E",
"0.	c #1B120E",
"a.	c #150F0C",
"b.	c #18110E",
"c.	c #1B1310",
"d.	c #1E1511",
"e.	c #231913",
"f.	c #291D16",
"g.	c #2A1E17",
"h.	c #231A14",
"i.	c #1F1915",
"j.	c #281F19",
"k.	c #2D231D",
"l.	c #302722",
"m.	c #362D29",
"n.	c #3B3430",
"o.	c #403A37",
"p.	c #494544",
"q.	c #595653",
"r.	c #656462",
"s.	c #716F70",
"t.	c #7A787B",
"u.	c #7D7B7E",
"v.	c #7D7C80",
"w.	c #79787B",
"x.	c #747475",
"y.	c #6B6A69",
"z.	c #0C0807",
"A.	c #0E0A09",
"B.	c #170F0B",
"C.	c #1C130F",
"D.	c #211610",
"E.	c #1D130F",
"F.	c #1C140F",
"G.	c #1F1712",
"H.	c #261C16",
"I.	c #291F18",
"J.	c #271E19",
"K.	c #201A17",
"L.	c #342A24",
"M.	c #372F2A",
"N.	c #3F3834",
"O.	c #4D4A45",
"P.	c #5E5C58",
"Q.	c #6A6B68",
"R.	c #7A7879",
"S.	c #8B878B",
"T.	c #959295",
"U.	c #989799",
"V.	c #989698",
"W.	c #939194",
"X.	c #8B888B",
"Y.	c #7F7E7F",
"Z.	c #626364",
"`.	c #0E0908",
" +	c #100B09",
".+	c #1A110D",
"++	c #231711",
"@+	c #221711",
"#+	c #1E1612",
"$+	c #291F19",
"%+	c #2B211A",
"&+	c #30251E",
"*+	c #2D241E",
"=+	c #28221F",
"-+	c #322C28",
";+	c #413C37",
">+	c #52504C",
",+	c #64635F",
"'+	c #7A7876",
")+	c #908C8F",
"!+	c #9A999A",
"~+	c #9D9D9D",
"{+	c #9B9A9B",
"]+	c #929093",
"^+	c #7E7E81",
"/+	c #606264",
"(+	c #444446",
"_+	c #0F0908",
":+	c #19120F",
"<+	c #211712",
"[+	c #221B15",
"}+	c #251C16",
"|+	c #2D221B",
"1+	c #352920",
"2+	c #382D25",
"3+	c #352E2A",
"4+	c #3D3936",
"5+	c #4F4D49",
"6+	c #666663",
"7+	c #7C7A7A",
"8+	c #928F92",
"9+	c #9C9B9C",
"0+	c #9D9C9D",
"a+	c #8C8A8D",
"b+	c #717273",
"c+	c #535455",
"d+	c #403E3E",
"e+	c #130D0B",
"f+	c #130D0A",
"g+	c #18100C",
"h+	c #221A15",
"i+	c #211913",
"j+	c #211914",
"k+	c #251C17",
"l+	c #2D231C",
"m+	c #352A23",
"n+	c #3C322B",
"o+	c #423A34",
"p+	c #4E4844",
"q+	c #5D5C58",
"r+	c #747372",
"s+	c #999799",
"t+	c #969496",
"u+	c #858386",
"v+	c #717272",
"w+	c #565658",
"x+	c #454142",
"y+	c #383231",
"z+	c #25201F",
"A+	c #140E0A",
"B+	c #221913",
"C+	c #241C17",
"D+	c #261E19",
"E+	c #312821",
"F+	c #392F2A",
"G+	c #473F39",
"H+	c #524D47",
"I+	c #5D5D59",
"J+	c #707070",
"K+	c #858385",
"L+	c #918F91",
"M+	c #979597",
"N+	c #999899",
"O+	c #979698",
"P+	c #918F93",
"Q+	c #838285",
"R+	c #757576",
"S+	c #636262",
"T+	c #4F4E4E",
"U+	c #3A3637",
"V+	c #342D2C",
"W+	c #2C2522",
"X+	c #291F1B",
"Y+	c #19120D",
"Z+	c #1D1410",
"`+	c #271B15",
" @	c #221914",
".@	c #211A15",
"+@	c #251E1A",
"@@	c #29221F",
"#@	c #342D29",
"$@	c #3F3733",
"%@	c #575551",
"&@	c #60615F",
"*@	c #6B6C6B",
"=@	c #767676",
"-@	c #7C7C7E",
";@	c #7A7A7D",
">@	c #757678",
",@	c #707173",
"'@	c #646768",
")@	c #575859",
"!@	c #494848",
"~@	c #3E3B3C",
"{@	c #332D2D",
"]@	c #2D2522",
"^@	c #231A17",
"/@	c #181110",
"(@	c #100B0A",
"_@	c #1A120E",
":@	c #201610",
"<@	c #1D1510",
"[@	c #251A14",
"}@	c #1E1713",
"|@	c #28201D",
"1@	c #2A2320",
"2@	c #372E2A",
"3@	c #3F3734",
"4@	c #48413D",
"5@	c #4D4644",
"6@	c #4C4A4B",
"7@	c #4F4E50",
"8@	c #535254",
"9@	c #515051",
"0@	c #4A484A",
"a@	c #454344",
"b@	c #413D3D",
"c@	c #393333",
"d@	c #302A29",
"e@	c #292321",
"f@	c #201A18",
"g@	c #1F1917",
"h@	c #201714",
"i@	c #1E1411",
"j@	c #140F0E",
"k@	c #201612",
"l@	c #261D18",
"m@	c #251C18",
"n@	c #231D19",
"o@	c #28201C",
"p@	c #2C2320",
"q@	c #312925",
"r@	c #392F2B",
"s@	c #3D332E",
"t@	c #3D3430",
"u@	c #332E2E",
"v@	c #352F2F",
"w@	c #322C2B",
"x@	c #2D2726",
"y@	c #2B2524",
"z@	c #29211D",
"A@	c #221A16",
"B@	c #1B1512",
"C@	c #1C1411",
"D@	c #1F1511",
"E@	c #1B1210",
"F@	c #140E0D",
"G@	c #18100E",
"H@	c #1C120F",
"I@	c #19100C",
"J@	c #1F140F",
"K@	c #1C1511",
"L@	c #231B17",
"M@	c #251D19",
"N@	c #221B18",
"O@	c #2C221D",
"P@	c #2E231F",
"Q@	c #2C231F",
"R@	c #251E1C",
"S@	c #231C1A",
"T@	c #221A17",
"U@	c #140D0C",
"V@	c #1B110E",
"W@	c #17100E",
"X@	c #1B110C",
"Y@	c #241811",
"Z@	c #1F1510",
"`@	c #201611",
" #	c #1D1512",
".#	c #1D1613",
"+#	c #2B1F19",
"@#	c #251B17",
"##	c #1B1513",
"$#	c #1C1513",
"%#	c #1D1411",
"&#	c #1B130F",
"*#	c #180F0D",
"=#	c #1D1614",
"-#	c #21150F",
";#	c #1A110C",
">#	c #1E1410",
",#	c #1B1410",
"'#	c #221713",
")#	c #201613",
"!#	c #16100E",
"~#	c #160F0E",
"{#	c #160F0D",
"]#	c #170F0D",
"^#	c #130C0B",
"/#	c #1E1512",
"(#	c #191211",
"_#	c #1A100B",
":#	c #1C120E",
"<#	c #1A120D",
"[#	c #1B120F",
"}#	c #130D0C",
"|#	c #140E0C",
"1#	c #130C0A",
"2#	c #17110D",
"3#	c #1D140E",
"4#	c #17100C",
"5#	c #18100D",
"6#	c #120B08",
"7#	c #140D0B",
"8#	c #130D09",
"9#	c #150E0A",
"0#	c #1A130E",
"a#	c #120B09",
"b#	c #110B09",
"c#	c #100A08",
"d#	c #1D130E",
"e#	c #160E0A",
"f#	c #0F0907",
"g#	c #140C09",
"h#	c #0F0A08",
"i#	c #110A08",
"j#	c #120A09",
"k#	c #0E0807",
"l#	c #110A09",
"m#	c #100A09",
"n#	c #0B0706",
"o#	c #080505",
"p#	c #140C0A",
"q#	c #110B08",
"                                                                                                ",
"                                                                                                ",
"                                                                                                ",
"                                                                                                ",
"                                                                                                ",
"                                                                                                ",
"                                                                                                ",
"                                                                                                ",
"                                                                                                ",
"                                                                                                ",
"                            . + @ #                                                             ",
"                          $ % & * = -                                                           ",
"                      ; - > , ' ) ! ~ { ]                                                       ",
"                  ^ / ( _ : < [ & } | 1 2 3 4                                                   ",
"                5 5 6 7 ) ) * 8 + 9 0 a b c d e f                                               ",
"            g h i j k ] $ } l | | a m n o p q r s t                                             ",
"        u v w x y z 4 * * ) } A b B C D E F G H I J K L                                         ",
"    M N O v P Q x R l * S * T } D U V W X Y Z `  ...+.@.#.$.                                    ",
"  %.&.*.=.^ -.;.>.,.'.).!.S ~.{.].^./.(._.:.<.[.}.|.1.2.3.4.5.6.                                ",
"M 7.*.8.9.0.-.a.b.c.d.e.f.g.h.~.i.j.k.l.m.n.o.p.q.r.s.t.u.v.w.x.y.                              ",
"  z.A.B.*.C.D.E.F.# c.z G.H.9 I.J.K./.L.M.N.O.P.Q.R.S.T.U.U.V.W.X.Y.Z.                          ",
"      `. +.+0.++@+;.( j #+' l $+%+&+*+=+-+;+>+,+'+)+!+~+~+~+~+~+{+]+^+/+(+                      ",
"        z._+:+9./ <+z j e.7 * [+}+|+1+2+3+4+5+6+7+8+9+~+~+~+~+~+0+U.a+b+c+d+                    ",
"            e+f+g+/ >.e.] h+H.i+j+k+l+m+n+o+p+q+r+X.s+0+~+~+~+~+9+t+u+v+w+x+y+z+                ",
"                A+=.P d._ B+!.T ~ h+C+D+E+F+G+H+I+J+K+L+M+U.N+O+P+Q+R+S+T+U+V+W+X+$             ",
"                    Y+8.Z+z !.`+ @ @}+.@+@@@#@$@p+%@&@*@=@-@;@>@,@'@)@!@~@{@]@E ^@} /@(@        ",
"                      _@:@Z+<@j [@).}@h+J.o |@1@2@3@4@5@6@7@8@9@0@a@b@c@d@e@f@g@h@'.i@j@P       ",
"                          k@y 0.( z  @ @! l@m@n@o@p@q@r@s@t@u@v@w@x@y@]@z@s A@B@C@D@E@F@G@H@I@  ",
"                              :@J@0.K@_ k k S {.A@L@M@N@O@P@F Q@R@S@s t T@% * d.:+P -.U@*..+V@W@",
"                                X@Y@Z@_@( `@<+ #[ #+S ! {..#! a +#@###$#$ 4 %#>.&#&#O O *#f =#  ",
"                                    -#Y@;#&#>#,#i >.z G. #_ 7 C@ #< '#)#!#~#{#P P ]#^#_@/#(#    ",
"                                        _#:#8.<#&#P d.i ; b.b.[#C.# >.D@Z@0.}#|#=.1#2#7         ",
"                                            :@3#4#_@_@P C.v -.=.^ P 5#-.8..+I@N ^ 5#            ",
"                                              B.6#5#=.^ ^ 5#8.*.7#f+=.N 8#7.9#0#                ",
"                                                  =.^#a#b#1#=.%.=.1#b#c#8#d#e#                  ",
"                                                      f#g#a#h#i#b#1#a#=.7.                      ",
"                                                          1#_+j#k#l#m#                          ",
"                                                            n#o#p#q#                            ",
"                                                                                                ",
"                                                                                                ",
"                                                                                                ",
"                                                                                                ",
"                                                                                                ",
"                                                                                                ",
"                                                                                                ",
"                                                                                                ",
"                                                                                                ",
"                                                                                                "};
