/* XPM */
static char * setTextures_xpm[] = {
"48 48 517 2",
"  	c None",
". 	c #141312",
"+ 	c #131211",
"@ 	c #191817",
"# 	c #1A1817",
"$ 	c #1F1E1E",
"% 	c #1A1919",
"& 	c #1F1E1F",
"* 	c #242222",
"= 	c #211F1F",
"- 	c #242224",
"; 	c #222121",
"> 	c #211F20",
", 	c #262424",
"' 	c #282626",
") 	c #2B292B",
"! 	c #2A2829",
"~ 	c #2D2C2D",
"{ 	c #2A2A2B",
"] 	c #232223",
"^ 	c #1B191A",
"/ 	c #272424",
"( 	c #2C2A2B",
"_ 	c #312F32",
": 	c #353336",
"< 	c #363436",
"[ 	c #323134",
"} 	c #2F2F31",
"| 	c #2E2E30",
"1 	c #242527",
"2 	c #201F21",
"3 	c #2F2E30",
"4 	c #2C292A",
"5 	c #333133",
"6 	c #322F30",
"7 	c #3A3739",
"8 	c #353335",
"9 	c #3A3B3F",
"0 	c #3E3E41",
"a 	c #35363A",
"b 	c #343539",
"c 	c #313337",
"d 	c #1E1C1D",
"e 	c #292829",
"f 	c #312D2E",
"g 	c #363335",
"h 	c #383537",
"i 	c #3B3A3C",
"j 	c #3E3E42",
"k 	c #46464A",
"l 	c #494B51",
"m 	c #44474D",
"n 	c #41454B",
"o 	c #1E1D1F",
"p 	c #272627",
"q 	c #2A2627",
"r 	c #322F2F",
"s 	c #373435",
"t 	c #3D3A3B",
"u 	c #373539",
"v 	c #3C3C41",
"w 	c #47484D",
"x 	c #45464C",
"y 	c #4E5058",
"z 	c #4F5158",
"A 	c #54585F",
"B 	c #565B63",
"C 	c #2C2B2D",
"D 	c #2D2929",
"E 	c #353233",
"F 	c #3A3637",
"G 	c #393739",
"H 	c #3B3A3F",
"I 	c #3D3B3F",
"J 	c #414247",
"K 	c #494B53",
"L 	c #55575E",
"M 	c #60646C",
"N 	c #62676F",
"O 	c #43211F",
"P 	c #1C1B1D",
"Q 	c #262426",
"R 	c #2C2A2C",
"S 	c #393638",
"T 	c #363437",
"U 	c #363538",
"V 	c #383539",
"W 	c #3D3C40",
"X 	c #42434A",
"Y 	c #4D4F56",
"Z 	c #5D6068",
"` 	c #686E76",
" .	c #4C2726",
"..	c #4F2826",
"+.	c #492523",
"@.	c #1D1B1C",
"#.	c #262224",
"$.	c #2F2C2E",
"%.	c #312E2F",
"&.	c #363233",
"*.	c #363334",
"=.	c #373438",
"-.	c #39383C",
";.	c #3A3A3E",
">.	c #434248",
",.	c #4E4F56",
"'.	c #5A5F67",
").	c #4E535B",
"!.	c #4F2929",
"~.	c #4E2928",
"{.	c #512A29",
"].	c #522B29",
"^.	c #4C2724",
"/.	c #2B282A",
"(.	c #302E2F",
"_.	c #363435",
":.	c #3C393B",
"<.	c #373537",
"[.	c #3A393D",
"}.	c #3A373B",
"|.	c #37353A",
"1.	c #363438",
"2.	c #3F3F44",
"3.	c #45454A",
"4.	c #4E5157",
"5.	c #4D5158",
"6.	c #542D2D",
"7.	c #582F2F",
"8.	c #5A3030",
"9.	c #573030",
"0.	c #532C2C",
"a.	c #542D2B",
"b.	c #502B28",
"c.	c #242325",
"d.	c #2E2C2D",
"e.	c #3E3C3E",
"f.	c #3A383C",
"g.	c #3C393C",
"h.	c #37363A",
"i.	c #3E3E43",
"j.	c #434347",
"k.	c #43454A",
"l.	c #404247",
"m.	c #492628",
"n.	c #532D2F",
"o.	c #573032",
"p.	c #542F30",
"q.	c #5D3535",
"r.	c #5B3334",
"s.	c #593232",
"t.	c #5A3232",
"u.	c #542E2C",
"v.	c #282729",
"w.	c #2E2B2B",
"x.	c #333232",
"y.	c #3C3B3C",
"z.	c #373638",
"A.	c #3A393C",
"B.	c #3F3D40",
"C.	c #3D3A3D",
"D.	c #47474C",
"E.	c #434349",
"F.	c #393A3E",
"G.	c #482728",
"H.	c #542E2F",
"I.	c #583234",
"J.	c #593336",
"K.	c #60383B",
"L.	c #583336",
"M.	c #603738",
"N.	c #5E3738",
"O.	c #5C3537",
"P.	c #5B3232",
"Q.	c #432221",
"R.	c #312F30",
"S.	c #343232",
"T.	c #3B3A3B",
"U.	c #3A393B",
"V.	c #39393D",
"W.	c #403F43",
"X.	c #3D3B3E",
"Y.	c #3B3A3E",
"Z.	c #434247",
"`.	c #414246",
" +	c #3B3B3E",
".+	c #442425",
"++	c #542F31",
"@+	c #593436",
"#+	c #5D373B",
"$+	c #653E42",
"%+	c #674045",
"&+	c #694145",
"*+	c #613C40",
"=+	c #643C3E",
"-+	c #64393C",
";+	c #5A3131",
">+	c #562E2D",
",+	c #40201F",
"'+	c #292728",
")+	c #373536",
"!+	c #3A383B",
"~+	c #393A3D",
"{+	c #3E4045",
"]+	c #3B3C40",
"^+	c #3E3F43",
"/+	c #444449",
"(+	c #46464B",
"_+	c #3F3F42",
":+	c #452526",
"<+	c #4E2B2C",
"[+	c #5C373C",
"}+	c #67444B",
"|+	c #704D55",
"1+	c #72505A",
"2+	c #714F57",
"3+	c #6E4B51",
"4+	c #623D42",
"5+	c #603A3D",
"6+	c #583132",
"7+	c #5C3231",
"8+	c #29292A",
"9+	c #38393D",
"0+	c #3E3F44",
"a+	c #424449",
"b+	c #3F4146",
"c+	c #3F4147",
"d+	c #47484C",
"e+	c #45464B",
"f+	c #424347",
"g+	c #432322",
"h+	c #4B292A",
"i+	c #5B383C",
"j+	c #6B484E",
"k+	c #7A5C66",
"l+	c #8E747F",
"m+	c #967F8D",
"n+	c #8B717F",
"o+	c #7D5F6A",
"p+	c #6B4850",
"q+	c #643F44",
"r+	c #5F383C",
"s+	c #543033",
"t+	c #2C2D32",
"u+	c #42454A",
"v+	c #47494F",
"w+	c #44454A",
"x+	c #3A1D1D",
"y+	c #4A2727",
"z+	c #522D2E",
"A+	c #583436",
"B+	c #674247",
"C+	c #7C5C65",
"D+	c #9F8994",
"E+	c #B9ADB6",
"F+	c #C0B8BF",
"G+	c #B2A4AF",
"H+	c #927B89",
"I+	c #6E505A",
"J+	c #664145",
"K+	c #5F393C",
"L+	c #151413",
"M+	c #2B2C2F",
"N+	c #43464C",
"O+	c #4A4E54",
"P+	c #331817",
"Q+	c #442222",
"R+	c #482526",
"S+	c #512C2E",
"T+	c #5B363A",
"U+	c #6B4A51",
"V+	c #927983",
"W+	c #BDB2BA",
"X+	c #CDCCCD",
"Y+	c #CECECE",
"Z+	c #C7C2C7",
"`+	c #A28F9C",
" @	c #785A66",
".@	c #613F46",
"+@	c #1B1919",
"@@	c #1C1B1B",
"#@	c #323337",
"$@	c #4C4F57",
"%@	c #4F5259",
"&@	c #2C1414",
"*@	c #3D1D1C",
"=@	c #492627",
"-@	c #4F2C2E",
";@	c #57353A",
">@	c #725159",
",@	c #9C8792",
"'@	c #C5BFC4",
")@	c #CFCFCF",
"!@	c #C9C5C9",
"~@	c #A3929F",
"{@	c #775965",
"]@	c #58373D",
"^@	c #252323",
"/@	c #232121",
"(@	c #262425",
"_@	c #232222",
":@	c #32343A",
"<@	c #361818",
"[@	c #3C1D1D",
"}@	c #422122",
"|@	c #482627",
"1@	c #4C2B2D",
"2@	c #57363B",
"3@	c #6C4C56",
"4@	c #96808C",
"5@	c #BCB2BA",
"6@	c #CCC9CC",
"7@	c #CAC7CA",
"8@	c #B9AEB8",
"9@	c #917A88",
"0@	c #624752",
"a@	c #262323",
"b@	c #282627",
"c@	c #2C2B2C",
"d@	c #2E2C2E",
"e@	c #2B2B2D",
"f@	c #252425",
"g@	c #311516",
"h@	c #381A1A",
"i@	c #3B1C1C",
"j@	c #402021",
"k@	c #432324",
"l@	c #4C2A2D",
"m@	c #523237",
"n@	c #604049",
"o@	c #795F6A",
"p@	c #9B8896",
"q@	c #AEA1AD",
"r@	c #AC9DAA",
"s@	c #927D8C",
"t@	c #6A535E",
"u@	c #2C2A2A",
"v@	c #323133",
"w@	c #383638",
"x@	c #313033",
"y@	c #313133",
"z@	c #313134",
"A@	c #27272A",
"B@	c #1B1B1D",
"C@	c #250F0F",
"D@	c #2E1415",
"E@	c #331818",
"F@	c #3A1C1B",
"G@	c #3E1F1F",
"H@	c #442325",
"I@	c #482729",
"J@	c #4E2D31",
"K@	c #54353B",
"L@	c #61434C",
"M@	c #745764",
"N@	c #7F6470",
"O@	c #7A5F6D",
"P@	c #644A55",
"Q@	c #222022",
"R@	c #302F31",
"S@	c #333031",
"T@	c #3A383A",
"U@	c #3F3F43",
"V@	c #37373C",
"W@	c #2A2C2F",
"X@	c #291212",
"Y@	c #301516",
"Z@	c #371A1A",
"`@	c #3D1E1F",
" #	c #412021",
".#	c #482628",
"+#	c #4E2C2E",
"@#	c #4D2E32",
"##	c #57363C",
"$#	c #5E3E46",
"%#	c #614149",
"&#	c #573A42",
"*#	c #282727",
"=#	c #393537",
"-#	c #393639",
";#	c #3B393C",
">#	c #454449",
",#	c #474950",
"'#	c #46494F",
")#	c #464A51",
"!#	c #41454C",
"~#	c #240F0F",
"{#	c #331717",
"]#	c #381B1B",
"^#	c #422222",
"/#	c #472526",
"(#	c #4A292B",
"_#	c #4E2D30",
":#	c #503033",
"<#	c #4A2D32",
"[#	c #1F1E20",
"}#	c #2B2727",
"|#	c #333030",
"1#	c #373333",
"2#	c #3D3A3C",
"3#	c #39383B",
"4#	c #3D3D42",
"5#	c #45474D",
"6#	c #50525A",
"7#	c #51545B",
"8#	c #585C64",
"9#	c #585D65",
"0#	c #24100F",
"a#	c #3F2020",
"b#	c #432122",
"c#	c #472729",
"d#	c #2D2B2D",
"e#	c #2E2A2A",
"f#	c #353133",
"g#	c #3B393E",
"h#	c #3C3A3E",
"i#	c #404146",
"j#	c #54565D",
"k#	c #636770",
"l#	c #636870",
"m#	c #C4C4C4",
"n#	c #220F0E",
"o#	c #341918",
"p#	c #3D1E1D",
"q#	c #3D1F1F",
"r#	c #3E1F21",
"s#	c #1D1C1E",
"t#	c #373538",
"u#	c #373437",
"v#	c #424349",
"w#	c #4E5057",
"x#	c #5E6169",
"y#	c #656B74",
"z#	c #CBCBCB",
"A#	c #C8C8C8",
"B#	c #210F0E",
"C#	c #321617",
"D#	c #391A1B",
"E#	c #262324",
"F#	c #302D2F",
"G#	c #3B3638",
"H#	c #373639",
"I#	c #3A393E",
"J#	c #3B3B40",
"K#	c #4D4F55",
"L#	c #5A5E67",
"M#	c #C9C9C9",
"N#	c #CACACA",
"O#	c #200D0D",
"P#	c #2E1414",
"Q#	c #242324",
"R#	c #3B393B",
"S#	c #37363B",
"T#	c #3F3E43",
"U#	c #46454A",
"V#	c #4D5056",
"W#	c #484B51",
"X#	c #C6C6C6",
"Y#	c #252426",
"Z#	c #2D2B2C",
"`#	c #383637",
" $	c #3E3C40",
".$	c #3C3A3D",
"+$	c #424246",
"@$	c #3D3F45",
"#$	c #C3C3C3",
"$$	c #29282A",
"%$	c #2F2C2D",
"&$	c #343333",
"*$	c #3E3D3E",
"=$	c #363537",
"-$	c #3B3A3D",
";$	c #3E3C3F",
">$	c #38363A",
",$	c #38383C",
"'$	c #343132",
")$	c #3D3B3C",
"!$	c #3F3E41",
"~$	c #444347",
"{$	c #3C3C3F",
"]$	c #C1C1C1",
"^$	c #242223",
"/$	c #414348",
"($	c #3C3D41",
"_$	c #3F4044",
":$	c #404044",
"<$	c #BDBDBD",
"[$	c #242425",
"}$	c #37383D",
"|$	c #404349",
"1$	c #404248",
"2$	c #46484C",
"3$	c #404144",
"4$	c #BABABA",
"5$	c #292A2E",
"6$	c #42444A",
"7$	c #45484E",
"8$	c #484A4F",
"9$	c #474A50",
"0$	c #B4B4B4",
"a$	c #4D5057",
"b$	c #4B4F55",
"c$	c #4A4D53",
"d$	c #ADADAD",
"e$	c #494C54",
"f$	c #AAAAAA",
"g$	c #CCCCCC",
"h$	c #A6A6A6",
"i$	c #A8A8A8",
"j$	c #949494",
"k$	c #969696",
"l$	c #CDCDCD",
"m$	c #B9B9B9",
"n$	c #8F8F8F",
"o$	c #BBBBBB",
"p$	c #8A8A8A",
"q$	c #858585",
"r$	c #C2C2C2",
"                                                                                                ",
"                          . +                                                                   ",
"                        @ # $ %                                                                 ",
"                      & * = - ; >                                                               ",
"                    > , ' ) ! ~ { ]                                                             ",
"                  ^ / ( _ : < [ } | 1                                                           ",
"                2 3 4 5 6 7 8 9 0 a b c                                                         ",
"              d e 4 f g h i j k l m m n n                                                       ",
"            o p q r s t u v w x y z A B                                                         ",
"          o C ! D E F G H I J K L M N           O                                               ",
"        P Q R f E S T U V W X Y Z `            ...+.                                            ",
"      @.#.$.%.&.F *.u =.-.;.>.,.'.).        !.~.{.].^.                                          ",
"      ] /.(._.:.<.[.}.|.1.2.3.4.5.        6.7.8.9.0.a.b.                                        ",
"    c.( d.*.e.S f.I g.h.i.j.k.l.        m.n.o.p.q.r.s.t.u.                                      ",
"  v.! w.x.y.z.A.B.C.h.j D.E.F.        G.H.I.J.K.L.M.N.O.P.6.Q.                                  ",
"  ] R.S.T.U.V.W.X.[.Y.Z.`. +        .+++@+#+$+%+&+*+=+-+r.;+>+,+                                ",
"    '+)+!+~+{+J ]+^+/+(+_+        :+<+I.[+}+|+1+2+3+4+5+K.6+7+                                  ",
"      8+9+0+a+b+c+d+e+f+        g+h+++i+j+k+l+m+n+o+p+q+r+s+                                    ",
"        t+f+u+m v+v+w+        x+y+z+A+B+C+D+E+F+G+H+I+J+K+          L+.                         ",
"          M+N+Y O+l         P+Q+R+S+T+U+V+W+X+Y+Z+`+ @.@          +@# = @@                      ",
"            #@$@%@        &@*@Q+=@-@;@>@,@'@)@)@!@~@{@]@        > ^@/@(@/@_@                    ",
"              :@          <@[@}@|@1@2@3@4@5@6@7@8@9@0@        > a@b@c@! d@e@f@                  ",
"                        g@h@i@j@k@l@m@n@o@p@q@r@s@t@        ^ / u@v@8 w@x@y@z@A@B@              ",
"                      C@D@E@F@G@H@I@J@K@L@M@N@O@P@        Q@R@4 8 S@T@w@]+U@V@a b W@            ",
"                        X@Y@Z@`@ #.#+#@###$#%#&#        & *#4 f =#-#;#^+>#l ,#'#)#!#            ",
"                          ~#{#]#G@^#/#(#_#:#<#        [#b@}#|#1#2#3#4#w 5#6#7#8#9#              ",
"                            0#P+Z@a#b#=@I@c#        & d#/.e#f#F T g#h#i#$@j#k#l#          m#    ",
"                              n#o#p#G@q#r#        s#Q ( f *.=#t#u u#W v#w#x#y#          z#)@A#  ",
"                                B#C#D#Z@        @.E#F#%.&.G#g H#u I#J#E.K#L#          M#)@)@)@N#",
"                                  O#P#        & Q#( %._.R#< [.}.S#1.T#U#V#W#        X#)@)@)@)@)@",
"                                              Y#( Z#*.X.`#Y. $.$h.2.+$k.@$        #$)@)@)@)@)@)@",
"                                            $$! %$&$*$=$-$;$.$>$T#3.E.,$        #$)@)@)@)@)@)@)@",
"                                            & R.'$)$U.9 !$I [.Y.~$+${$        ]$)@)@)@)@)@)@)@)@",
"                                              ^$)+3#F.b+/$($_$3.(+:$        <$)@)@)@)@)@)@)@)@)@",
"                                                [$}$_$k.|$1$w 2$3$        4$)@)@)@)@)@)@)@)@)@)@",
"                                                  5$i#6$7$8$9$e+        0$)@)@)@)@)@)@)@)@)@)@)@",
"                                                    5$u+a$b$c$        d$)@)@)@)@)@)@)@)@)@)@)@)@",
"                                                        e$%@        f$)@)@)@)@)@)@)@)@)@)@)@)@g$",
"                                                                  h$Y+)@)@)@)@)@)@)@)@)@)@)@Y+i$",
"                                                                  g$)@)@)@)@)@)@)@)@)@)@)@)@f$  ",
"                                                                j$)@)@)@)@)@)@)@)@)@)@)@)@f$    ",
"                                                                  k$l$)@)@)@)@)@)@)@)@)@m$      ",
"                                                                    n$g$)@)@)@)@)@)@)@o$        ",
"                                                                      p$M#)@)@)@)@)@o$          ",
"                                                                        q$X#)@)@)@]$            ",
"                                                                            r$)@r$              ",
"                                                                              0$                ",
"                                                                                                "};
