/* XPM */
static char * sheet2export_xpm[] = {
"48 48 139 2",
"  	c None",
". 	c #FFFFFF",
"+ 	c #B1B1FF",
"@ 	c #3838FF",
"# 	c #8282FF",
"$ 	c #ADADFF",
"% 	c #0000FF",
"& 	c #7979FF",
"* 	c #CDCDFF",
"= 	c #8A8AFF",
"- 	c #6060FF",
"; 	c #E0E0FF",
"> 	c #A0A0FF",
", 	c #B9B9FF",
"' 	c #7D7DFF",
") 	c #5656FF",
"! 	c #D5D5FF",
"~ 	c #BFBFFF",
"{ 	c #7373FF",
"] 	c #4F4FFF",
"^ 	c #B0B0FF",
"/ 	c #7777FF",
"( 	c #EDEDFF",
"_ 	c #E8E8FF",
": 	c #9C9CFF",
"< 	c #6D6DFF",
"[ 	c #E9E9FF",
"} 	c #D1D1FF",
"| 	c #A7A7FF",
"1 	c #BCBCFF",
"2 	c #FBFBFB",
"3 	c #E9E9E9",
"4 	c #BDBDBD",
"5 	c #000000",
"6 	c #8D8D8D",
"7 	c #4D4D4D",
"8 	c #DFDFDF",
"9 	c #C8C8C8",
"0 	c #7D7D7D",
"a 	c #D6D6FF",
"b 	c #C9C9FF",
"c 	c #FEFEFE",
"d 	c #626262",
"e 	c #D5D5D5",
"f 	c #8080FF",
"g 	c #FDFDFD",
"h 	c #D6D6D6",
"i 	c #909090",
"j 	c #CDCDCD",
"k 	c #D0D0D0",
"l 	c #6A6A6A",
"m 	c #6D6D6D",
"n 	c #C4C4C4",
"o 	c #F6F6F6",
"p 	c #C7C7FF",
"q 	c #EFEFEF",
"r 	c #B6B6B6",
"s 	c #535353",
"t 	c #757575",
"u 	c #CBCBCB",
"v 	c #2A2A2A",
"w 	c #9E9E9E",
"x 	c #FCFCFC",
"y 	c #D3D3D3",
"z 	c #8B8B8B",
"A 	c #858585",
"B 	c #F9F9F9",
"C 	c #DADADA",
"D 	c #565656",
"E 	c #DDDDDD",
"F 	c #9F9F9F",
"G 	c #323232",
"H 	c #666666",
"I 	c #C0C0C0",
"J 	c #F5F5F5",
"K 	c #ECECEC",
"L 	c #B2B2B2",
"M 	c #5A5A5A",
"N 	c #B9B9B9",
"O 	c #848484",
"P 	c #C2C2C2",
"Q 	c #F8F8F8",
"R 	c #828282",
"S 	c #222222",
"T 	c #999999",
"U 	c #DCDCDC",
"V 	c #E4E4E4",
"W 	c #454545",
"X 	c #EDEDED",
"Y 	c #585858",
"Z 	c #5F5F5F",
"` 	c #969696",
" .	c #8A8A8A",
"..	c #494949",
"+.	c #787878",
"@.	c #C5C5C5",
"#.	c #EBEBEB",
"$.	c #D7D7D7",
"%.	c #1C1C1C",
"&.	c #979797",
"*.	c #A4A4A4",
"=.	c #AAAAAA",
"-.	c #E7E7E7",
";.	c #AFAFAF",
">.	c #696969",
",.	c #F8F8FF",
"'.	c #F4F4FF",
").	c #F0F0F0",
"!.	c #B8B8B8",
"~.	c #555555",
"{.	c #E8E8E8",
"].	c #F1F1F1",
"^.	c #161616",
"/.	c #EEEEEE",
"(.	c #C3C3C3",
"_.	c #727272",
":.	c #2E2E2E",
"<.	c #E0E0E0",
"[.	c #D8D8D8",
"}.	c #939393",
"|.	c #0D0D0D",
"1.	c #737373",
"2.	c #717171",
"3.	c #F7F7F7",
"4.	c #7C7CFF",
"5.	c #F2F2F2",
"6.	c #BBBBBB",
"7.	c #5C5C5C",
"8.	c #383838",
"9.	c #353535",
"0.	c #E3E3E3",
"a.	c #DBDBDB",
"b.	c #FAFAFA",
"c.	c #C7C7C7",
"d.	c #5D5D5D",
"e.	c #F4F4F4",
"f.	c #C9C9C9",
"g.	c #D4D4FF",
"h.	c #C0C0FF",
". . . . . . . . . . . + @ # . . . . . . . . . . . . . . . . . . . . . . . . . . . . . . . . . . ",
". . . . . . . . . . . $ % & . . . . . . . . . . . . . . . . . . . . . . . . . . . . . . . . . . ",
". . . . . . . . . . . $ % & . . . . . . . . . . . . . . . . . . . . . . . . . . . . . . . . . . ",
". . . . . . . . . . . $ % & . . . . . . . . . . . . . . . . . . . . . . . . . . . . . . . . . . ",
". . . . . . . . . . . $ % & . . . . . . . . . . . . . . . . . . . . . . . . . . . . . . . . . . ",
". . . . . . . . . . . $ % & . . . . . . . . . . . . . . . . . . . . . . . . . . . . . . . . . . ",
". . . . . . . . . . . $ % & . . . . . . . . . . . . . . . . . . . . . . . . . . . . . . . . . . ",
"* * * * * * * * * * * = % - * * * * * * * * * * * * * * * * * * * * * * * * * * * * * * * * * ; ",
"% % % % % % % % % % % % % % % % % % % % % % % % % % % % % % % % % % % % % % % % % % % % % % % > ",
", , , , , , , , , , , ' % ) , , , , , , , , , , , , , , , , , , , , , , , , , , , , , , , , , ! ",
". . . . . . . . . . . $ % & . . . . . . . . . . . . . . . . . . . . . . . . . . . . . . . . . . ",
". . . . . . . . . . . $ % & . . . . . . . . . . . . . . . . . . . . . . . . . . . . . . . . . . ",
". . . . . . . . . . . $ % & . . . . . . . . . . . . . . . . . . . . . . . . . . . . . . . . . . ",
". . . . . . . . . . . $ % & . . . . . . . . . . . . . . . . . . . . . . . . . . . . . . . . . . ",
". . . . . . . . . . . $ % & . . . . . . . . . . . . . . . . . . . . . . . . . . . . . . . . . . ",
". . . . . . . . . . . $ % & . . . . . . . . . . . . . . . . . . . . . . . . . . . . . . . . . . ",
"~ $ $ $ $ $ $ $ $ $ $ { % ] $ $ $ $ $ $ $ $ $ $ $ $ $ $ $ $ $ $ $ $ $ $ $ $ $ $ $ $ $ $ $ $ $ ^ ",
"/ % % % % % % % % % % % % % % % % % % % % % % % % % % % % % % % % % % % % % % % % % % % % % % @ ",
"( _ _ _ _ _ _ _ _ _ _ : % < _ _ _ _ _ _ _ _ _ _ _ _ _ _ _ _ _ _ _ _ _ _ _ _ _ _ _ _ _ _ _ _ _ [ ",
". . . . . . . . . . . $ % & . . . . . . . . . . . . . . . . . . . . . . . . . . . . . . . . . . ",
". . . . . . . . . . . } | 1 . . . . . . . . . . . . . . . . . . . . . . . . . . . . . . . . . . ",
". . . . . . . . . . . . . . . . . . . . . . . . . . . . . 2 3 3 . . . . . . . . . . . . . . . . ",
". . . . . . . . . . . . . . . . . . . . . . . . . . . . . 4 5 6 . . . . . . . . . . . . . . . . ",
". . . . . . . . . . . . . . . . . . . . . . . . . . . . 2 7 5 8 . . . . . . . . . . . . . . . . ",
". . . . . . . . . . . . . . . . . . . . . . . . . . . . 9 5 0 . . . . . . . . . . . . . . . . . ",
"a b b b b . . . . . . . . . . . . . . . . . . . . . . c d 5 e . . . . . . . . . . . . . . . . . ",
"f % % % % . . . . . . . . . . g h i j . . . . . . . . k 5 l . . . . 2 m n o . . . . . . . . . . ",
"! p p p p . . . . . . . . q r s 5 5 j . . . . . . . . t 5 u . . . . 2 5 5 v w 8 . . . . . . . . ",
". . . . . . . . . . x y z 5 5 5 A j B . . . . . . . C 5 D x . . . . . E F G 5 5 H I J . . . . . ",
". . . . . . . . K L 7 5 5 M N q . . . . . . . . . . O 5 P . . . . . . . . Q u R 5 5 S T U . . . ",
". . . . . . k A 5 5 G F E . . . . . . . . . . . . V 5 W B . . . . . . . . . . . X r Y 5 5 Z 4 Q ",
". . . . . . 5 5 Z u Q . . . . . . . . . . . . . . ` 5 r . . . . . . . . . . . . . . . U  .5 5 U ",
". . . . . . ..5 5 +.@.o . . . . . . . . . . . . #.5 G J . . . . . . . . . . . . . g $.` %.5 S V ",
". . . . . . g e 6 5 5 S &.$.g . . . . . . . . . *.5 =.. . . . . . . . . . . . -.;.7 5 5 >.P o . ",
",.'.'.'.'.. . . . ).!.~.5 5 7 ;.{.. . . . . . ].%.^./.. . . . . . . . . J (._.5 5 :.F <.. . . . ",
"> % % % % . . . . . . c [.}.|.5 5 1.V . . . . ;.5 w . . . . . . . . g }.^.5 5 2.@.3.. . . . . . ",
", 4.4.4.4.. . . . . . . . . 5.6.7.5 j . . . o 8.5 {.. . . . . . . . 2 5 9.*.0.. . . . . . . . . ",
". . . . . . . . . . . . . . . . . a.V . . . 6.5 6 . . . . . . . . . g 9 Q . . . . . . . . . . . ",
". . . . . . . . . . . . . . . . . . . . . b...5 <.. . . . . . . . . . . . . . . . . . . . . . . ",
". . . . . . . . . . . . . . . . . . . . . c.5 0 . . . . . . . . . . . . . . . . . . . . . . . . ",
". . . . . . . . . . . . . . . . . . . . g d.5 e . . . . . . . . . . . . . . . . . . . . . . . . ",
". . . . . . . . . . . . . . . . . . . . e.9 f.. . . . . . . . . . . . . . . . . . . . . . . . . ",
". . . . . . . . . . . . . . . . . . . . . . . . . . . . . . . . . . . . . . . . . . . . . . . . ",
". . . . . . . . . . . g.$ h.. . . . . . . . . . . . . . . . . . . . . . . . . . . . . . . . . . ",
". . . . . . . . . . . $ % & . . . . . . . . . . . . . . . . . . . . . . . . . . . . . . . . . . ",
". . . . . . . . . . . $ % & . . . . . . . . . . . . . . . . . . . . . . . . . . . . . . . . . . ",
". . . . . . . . . . . $ % & . . . . . . . . . . . . . . . . . . . . . . . . . . . . . . . . . . ",
". . . . . . . . . . . $ % & . . . . . . . . . . . . . . . . . . . . . . . . . . . . . . . . . . "};
