/* XPM */
static char * sheet2export_xpm[] = {
"48 48 69 1",
" 	c None",
".	c #000000",
"+	c #00CC00",
"@	c #00CB00",
"#	c #00B700",
"$	c #005400",
"%	c #00A600",
"&	c #00BE00",
"*	c #001E00",
"=	c #009D00",
"-	c #005000",
";	c #005B00",
">	c #008D00",
",	c #00B800",
"'	c #00FF00",
")	c #00E600",
"!	c #006C00",
"~	c #00D100",
"{	c #00EE00",
"]	c #002800",
"^	c #00C500",
"/	c #00B900",
"(	c #00BF00",
"_	c #00B200",
":	c #00E700",
"<	c #00FE00",
"[	c #00A500",
"}	c #00B100",
"|	c #00DA00",
"1	c #001900",
"2	c #00F400",
"3	c #002000",
"4	c #002F00",
"5	c #00F600",
"6	c #009300",
"7	c #00B600",
"8	c #00F500",
"9	c #00F000",
"0	c #00A700",
"a	c #00C000",
"b	c #00E200",
"c	c #00E800",
"d	c #007500",
"e	c #00AD00",
"f	c #00F300",
"g	c #007D00",
"h	c #00C900",
"i	c #00D200",
"j	c #006D00",
"k	c #00FD00",
"l	c #007900",
"m	c #005900",
"n	c #00FC00",
"o	c #004F00",
"p	c #00D400",
"q	c #00CF00",
"r	c #004800",
"s	c #006F00",
"t	c #00EC00",
"u	c #00EB00",
"v	c #007C00",
"w	c #003000",
"x	c #006400",
"y	c #004400",
"z	c #005600",
"A	c #005E00",
"B	c #003100",
"C	c #003700",
"D	c #007200",
"................................................",
"................................................",
"................................................",
"................................................",
"................................................",
"................................................",
"................................................",
"................................................",
"................................................",
"................................................",
"................................................",
"................................................",
"................................................",
"................................................",
"................................................",
"................................................",
"..+@#...$@@%.&@@@@@@@@@*=@@@-...;@@@>..,@@......",
"..'')...!''~.{''''''''']^'''/...('''_..:'<......",
"..'')...!''~.[}}+''|}}}1^'''23.45'''_..:'<......",
"..'')...!''~....6''7....^''8'=.%'5''_..:'<......",
"..''9000,''~....6''7....^''a'b.c'a''_..:'<......",
"..'''''''''~....6''7....^''d5'e'fg''_..:'<......",
"..''8hhhi''~....6''7....^''j&'k'/l''_..:'<......",
"..'')...!''~....6''7....^''jmk'nol''_..:'<......",
"..'')...!''~....6''7....^''j.p'q.l''_..:'<......",
"..'')...!''~....6''7....^''j.rsr.l''_..:''tttt|.",
"..'')...!''~....6''7....^''j.....l''_..:''''''u.",
"..vvs...wvvx....yvvz....AvvB.....Cvv$..svvvvvvD.",
"................................................",
"................................................",
"................................................",
"................................................",
"................................................",
"................................................",
"................................................",
"................................................",
"................................................",
"................................................",
"................................................",
"................................................",
"................................................",
"................................................",
"................................................",
"................................................",
"................................................",
"................................................",
"................................................",
"................................................"};
