/* XPM */
static char * showModelSize_xpm[] = {
"48 48 389 2",
"  	c None",
". 	c #BBB8B8",
"+ 	c #D2D2D2",
"@ 	c #E5C2C2",
"# 	c #F5DFDF",
"$ 	c #FFF6F6",
"% 	c #E7E6E6",
"& 	c #CACACB",
"* 	c #FF0000",
"= 	c #D98A8A",
"- 	c #FDB4B4",
"; 	c #FFC3C3",
"> 	c #FFD1D1",
", 	c #FFDFDF",
"' 	c #FFEDED",
") 	c #FFFAFA",
"! 	c #EBEBEB",
"~ 	c #BBBBBB",
"{ 	c #CE5B5C",
"] 	c #F67D7E",
"^ 	c #FF8F90",
"/ 	c #FF9B9B",
"( 	c #FFAAAA",
"_ 	c #FFB8B8",
": 	c #FFC6C7",
"< 	c #FFD5D5",
"[ 	c #FFE3E3",
"} 	c #FFF2F2",
"| 	c #FFFCFC",
"1 	c #E3E3E3",
"2 	c #BE2A2A",
"3 	c #EE4444",
"4 	c #FF5858",
"5 	c #FF6666",
"6 	c #FF7575",
"7 	c #FF8383",
"8 	c #FF9292",
"9 	c #FFA0A0",
"0 	c #FFAEAE",
"a 	c #FFBDBD",
"b 	c #FFCBCB",
"c 	c #FFDADA",
"d 	c #FFE8E8",
"e 	c #FCFBFB",
"f 	c #D5D5D5",
"g 	c #E31515",
"h 	c #FF2323",
"i 	c #FF3232",
"j 	c #FF4040",
"k 	c #FF4E4E",
"l 	c #FF5D5D",
"m 	c #FF6B6B",
"n 	c #FF7979",
"o 	c #FF8888",
"p 	c #FF9696",
"q 	c #FFA5A5",
"r 	c #FFB3B3",
"s 	c #FFC1C2",
"t 	c #FFD0D0",
"u 	c #FFDEDE",
"v 	c #FFF9F9",
"w 	c #F5F5F5",
"x 	c #CBCBCB",
"y 	c #D70A0A",
"z 	c #FC0101",
"A 	c #FF0202",
"B 	c #FF0C0C",
"C 	c #FF1A1A",
"D 	c #FF2828",
"E 	c #FF3636",
"F 	c #FF4545",
"G 	c #FF5353",
"H 	c #FF6161",
"I 	c #FF7070",
"J 	c #FF7E7E",
"K 	c #FF8C8D",
"L 	c #FFA9A9",
"M 	c #FFC6C6",
"N 	c #FFF1F1",
"O 	c #E4E3E3",
"P 	c #A3A3A3",
"Q 	c #CE0C0C",
"R 	c #F50303",
"S 	c #FF0404",
"T 	c #FF1010",
"U 	c #FF1E1E",
"V 	c #FF2D2D",
"W 	c #FF3B3B",
"X 	c #FF4949",
"Y 	c #FF5857",
"Z 	c #FF7474",
"` 	c #FF9191",
" .	c #FFBCBC",
"..	c #FFD9D9",
"+.	c #9C9C9C",
"@.	c #B61010",
"#.	c #DE0909",
"$.	c #FF0100",
"%.	c #FF0707",
"&.	c #FF1515",
"*.	c #FF3131",
"=.	c #FF5C5C",
"-.	c #FF6A6B",
";.	c #FF8787",
">.	c #FFA4A4",
",.	c #FFC1C1",
"'.	c #DCC1C1",
").	c #795B5A",
"!.	c #B90E0E",
"~.	c #661313",
"{.	c #D50A0A",
"].	c #FF0201",
"^.	c #FF0B0B",
"/.	c #FF1919",
"(.	c #FF4444",
"_.	c #FF5253",
":.	c #FF6F6F",
"<.	c #FF8C8C",
"[.	c #EE9E9E",
"}.	c #9D6E6E",
"|.	c #B90F0F",
"1.	c #E20808",
"2.	c #DE080A",
"3.	c #751212",
"4.	c #871212",
"5.	c #E80606",
"6.	c #FF0303",
"7.	c #FF2C2C",
"8.	c #FF3A3B",
"9.	c #FF5757",
"0.	c #F97272",
"a.	c #B45E5E",
"b.	c #A01C1C",
"c.	c #EF0404",
"d.	c #E30909",
"e.	c #FE0000",
"f.	c #C80B0B",
"g.	c #581313",
"h.	c #A80F0F",
"i.	c #F40303",
"j.	c #FF0606",
"k.	c #FF1514",
"l.	c #FD3F3F",
"m.	c #CC4040",
"n.	c #8D2121",
"o.	c #E20707",
"p.	c #EB0C0C",
"q.	c #F60303",
"r.	c #B10D0D",
"s.	c #551313",
"t.	c #C10D0D",
"u.	c #FB0101",
"v.	c #FF0101",
"w.	c #E11A19",
"x.	c #8D1919",
"y.	c #CC0A0A",
"z.	c #EB1313",
"A.	c #ED0404",
"B.	c #921010",
"C.	c #6D1313",
"D.	c #D80909",
"E.	c #F00404",
"F.	c #9F0F0F",
"G.	c #B30D0D",
"H.	c #FA0202",
"I.	c #EB1A1A",
"J.	c #DC0808",
"K.	c #701212",
"L.	c #8C1111",
"M.	c #EB0505",
"N.	c #FA0101",
"O.	c #B40D0D",
"P.	c #9E0F0F",
"Q.	c #E32121",
"R.	c #C50B0B",
"S.	c #AC0F0F",
"T.	c #8B1111",
"U.	c #E00707",
"V.	c #E32828",
"W.	c #F60202",
"X.	c #AB0E0E",
"Y.	c #451616",
"Z.	c #C90A0A",
"`.	c #DF2E2F",
" +	c #F20404",
".+	c #711313",
"++	c #F80C0C",
"@+	c #B31B1B",
"#+	c #8D2727",
"$+	c #F90202",
"%+	c #FD0101",
"&+	c #CA0A0A",
"*+	c #931616",
"=+	c #D92B2B",
"-+	c #E33F3F",
";+	c #C60E0E",
">+	c #D10C0C",
",+	c #DF0707",
"'+	c #931010",
")+	c #CE0E0E",
"!+	c #FD1E1E",
"~+	c #FF3839",
"{+	c #E24747",
"]+	c #EE0505",
"^+	c #BD0F0F",
"/+	c #E30808",
"(+	c #B60D0D",
"_+	c #F80202",
":+	c #FF0D0D",
"<+	c #FF2727",
"[+	c #FF4242",
"}+	c #EC5353",
"|+	c #DC0909",
"1+	c #BE0F0F",
"2+	c #F30303",
"3+	c #B70D0D",
"4+	c #A30F0F",
"5+	c #FF1616",
"6+	c #FF3030",
"7+	c #FF4B4B",
"8+	c #EB5B5B",
"9+	c #CC0D0D",
"0+	c #CB0D0D",
"a+	c #CE0A0A",
"b+	c #8D1111",
"c+	c #FF0505",
"d+	c #FF1F1F",
"e+	c #FF3939",
"f+	c #FF5454",
"g+	c #EB6464",
"h+	c #C20E0E",
"i+	c #D50B0B",
"j+	c #E20606",
"k+	c #901010",
"l+	c #E26767",
"m+	c #BC0F0F",
"n+	c #E70707",
"o+	c #A00F0F",
"p+	c #F70202",
"q+	c #E36F6F",
"r+	c #D90A0A",
"s+	c #B51010",
"t+	c #431616",
"u+	c #9A0F0F",
"v+	c #EE0404",
"w+	c #FF3A3A",
"x+	c #EB7D7D",
"y+	c #FF0E0E",
"z+	c #FF4343",
"A+	c #DE6666",
"B+	c #7E4545",
"C+	c #FF1717",
"D+	c #EE4545",
"E+	c #A03D3D",
"F+	c #AD5A5A",
"G+	c #E58B8B",
"H+	c #F91F1F",
"I+	c #B42727",
"J+	c #9F3838",
"K+	c #EF6A6A",
"L+	c #FF8A8A",
"M+	c #E29090",
"N+	c #CF0C0C",
"O+	c #C50E0E",
"P+	c #CD0F0F",
"Q+	c #8E1D1D",
"R+	c #E03E3E",
"S+	c #FF5E5E",
"T+	c #FF9393",
"U+	c #E39999",
"V+	c #D30B0B",
"W+	c #8E1111",
"X+	c #CC1919",
"Y+	c #FD3232",
"Z+	c #FF4C4C",
"`+	c #FF6767",
" @	c #FF8282",
".@	c #FF9D9D",
"+@	c #EBA7A7",
"@@	c #ED0505",
"#@	c #BB0F0F",
"$@	c #E60707",
"%@	c #F80808",
"&@	c #FF2020",
"*@	c #FF5656",
"=@	c #FF8B8B",
"-@	c #FFA6A6",
";@	c #EBB0B0",
">@	c #BF0F0F",
",@	c #9D0F0F",
"'@	c #FF0F0F",
")@	c #FF2929",
"!@	c #FF5F5F",
"~@	c #FF9494",
"{@	c #FFAFAF",
"]@	c #EBB7B7",
"^@	c #CD0C0C",
"/@	c #C70E0E",
"(@	c #FD0000",
"_@	c #D00909",
":@	c #DE0707",
"<@	c #FF1818",
"[@	c #FF4D4D",
"}@	c #FF6868",
"|@	c #E2B8B8",
"1@	c #C90D0D",
"2@	c #4F1515",
"3@	c #941010",
"4@	c #C70B0B",
"5@	c #FF2121",
"6@	c #FF7171",
"7@	c #FF8B8C",
"8@	c #E5C3C3",
"9@	c #E10808",
"0@	c #621515",
"a@	c #FF2A2A",
"b@	c #FF7A7A",
"c@	c #FF9595",
"d@	c #F9C5C5",
"e@	c #AD9797",
"f@	c #FF3333",
"g@	c #FF4D4E",
"h@	c #FE9D9D",
"i@	c #CC9090",
"j@	c #8D7676",
"k@	c #C7BABA",
"l@	c #D10A0A",
"m@	c #FF3C3C",
"n@	c #E07878",
"o@	c #915D5D",
"p@	c #CD9E9E",
"q@	c #FEDCDC",
"r@	c #EBE2E2",
"s@	c #A10E0E",
"t@	c #EB0606",
"u@	c #FF2B2B",
"v@	c #EF5858",
"w@	c #9E4848",
"x@	c #B46C6C",
"y@	c #F8ACAC",
"z@	c #FFE6E6",
"A@	c #E1DDDD",
"B@	c #A90D0D",
"C@	c #E70606",
"D@	c #C80D0D",
"E@	c #FA3232",
"F@	c #B73535",
"G@	c #9E4444",
"H@	c #EE7D7C",
"I@	c #FF9E9E",
"J@	c #FFB9B9",
"K@	c #F9CECE",
"L@	c #D0BEBE",
"M@	c #FF0808",
"N@	c #D01B1B",
"O@	c #8A2525",
"P@	c #DE4E4E",
"Q@	c #FF7272",
"R@	c #FF8D8D",
"S@	c #FDA6A6",
"T@	c #DDA5A5",
"U@	c #DF0808",
"V@	c #E30606",
"W@	c #8D1313",
"X@	c #C92626",
"Y@	c #FE4545",
"Z@	c #FF6060",
"`@	c #FF7B7B",
" #	c #E88686",
".#	c #EC0505",
"+#	c #F20303",
"@#	c #B00F0F",
"##	c #F81A1A",
"$#	c #FF3434",
"%#	c #FF4F4F",
"&#	c #F16262",
"*#	c #C56161",
"=#	c #651414",
"-#	c #BA0C0C",
";#	c #991010",
">#	c #F93B3B",
",#	c #D44545",
"'#	c #4D1515",
")#	c #DB0707",
"!#	c #FF1111",
"~#	c #DD2424",
"{#	c #721212",
"]#	c #EA0707",
"^#	c #591616",
"                                . +                                                             ",
"                              @ # $ % &                       *   * *   * *     *   *     *     ",
"                          = - ; > , ' ) ! ~                   * * * * * * *     * * * * * * *   ",
"                      { ] ^ / ( _ : < [ } | 1                 *     *     *     *     *     *   ",
"                  2 3 4 5 6 7 8 9 0 a b c d $ e f             *     *     *     *     *     *   ",
"                g h i j k l m n o p q r s t u ' v w x         *     *     *     *     *     *   ",
"            y z A B C D E F G H I J K / L _ M < [ N | O P                                       ",
"        Q R * * * * S T U V W X Y 5 Z 7 ` 9 0  .b ..d $ e +.                                    ",
"    @.#.* * * * * * * $.%.&.h *.j k =.-.n ;.p >.r ,.t '.).!.                                    ",
"    ~.{.* * * * * * * * * ].^./.D E (._.H :.J <./ [.}.|.R 1.                                    ",
"    2.3.4.5.* * * * * * * * * 6.T U 7.8.X 9.5 0.a.b.c.* * d.                                    ",
"    * e.f.g.h.i.* * * * * * * * * j.k.h *.l.m.n.o.* * * * p.                                    ",
"    * * * q.r.s.t.u.* * * * * * * * v.^.w.x.y.* * * * * v.z.                                    ",
"    * * * * * A.B.C.D.e.* * * * * * E.F.G.H.* * * * * * S I.                                    ",
"    * * * * * * * J.K.L.M.* * * N.O.P.c.* * * * * * * * ^.Q.                                    ",
"    * * * * * * * * z R.s.S.R t.T.U.* * * * * * * * * v.&.V.                                    ",
"    * * * * * * * * * * W.X.Y.Z.e.* * * * * * * * * * S U `.                                    ",
"    * * * * * * * * * * *  +.+* * * * * * * * * * * * ++@+#+                                    ",
"    $+* * * * * * * * * *  +.+* * * * * * * * * * %+&+*+=+-+                                    ",
"    ;+>+* * * * * * * * *  +.+* * * * * * * * * ,+'+)+!+~+{+                                    ",
"    * ]+^+/+* * * * * * *  +.+* * * * * * * c.F.(+_+:+<+[+}+                                    ",
"    * * * |+1+2+* * * * *  +.+* * * * * _+3+4+c.* v.5+6+7+8+                                    ",
"    * * * * z 9+0+u.* * *  +.+* * * e.a+b+,+* * * c+d+e+f+g+                                    ",
"    * * * * * * W.h+i+e.*  +.+* * j+k+&+e.* * * * :+D [+l l+                                    ",
"    * * * * * * * * M.m+n+ +.+ +o+r.p+* * * * * v.5+*.7+5 q+                                    ",
"    * * * * * * * * * * r+s+t+u+v+* * * * * * * j.d+w+f+:.x+                                    ",
"    * * * * * * * * * * * E..+* * * * * * * * * y+D z+l A+B+                                    ",
"    * * * * * * * * * * *  +.+* * * * * * * * v.C+*.D+E+F+G+                                    ",
"    ^+2+* * * * * * * * *  +.+* * * * * * * * j.H+I+J+K+L+M+                                    ",
"    %+N+O+N.* * * * * * *  +.+* * * * * * * e.P+Q+R+S+n T+U+                                    ",
"    * * _+h+V+* * * * * *  +.+* * * * * * o.W+X+Y+Z+`+ @.@+@                                    ",
"    * * * * @@#@$@* * * *  +.+* * * * c.o+O.%@&@W *@I =@-@;@                                    ",
"    * * * * * * |+>@ +* *  +.+* * $+(+,@v+* '@)@(.!@n ~@{@]@                                    ",
"    * * * * * * * %+^@/@N. +.+(@_@W+:@* * A <@i [@}@ @.@_ |@                                    ",
"    * * * * * * * * * p+h+1@2@3@4@%+* * * %.5@W *@6@7@-@,.8@                                    ",
"    * * * * * * * * * * * 9@0@i.* * * * * T a@(.!@b@c@{@d@e@                                    ",
"    * * * * * * * * * * *  +.+* * * * * A /.f@g@}@7 h@i@j@k@                                    ",
"    l@* * * * * * * * * *  +.+* * * * * %.5@m@9.6@n@o@p@q@r@                                    ",
"    s@#.t@* * * * * * * *  +.+* * * * * T u@F v@w@x@y@b z@A@                                    ",
"    B@C@  D@2+* * * * * *  +.+* * * * A /.E@F@G@H@I@J@K@L@                                      ",
"              V+z * * * *  +.+* * * * M@N@O@P@Q@R@S@T@                                          ",
"                  U@* * *  +.+* * * V@W@X@Y@Z@`@ #                                              ",
"                    s+.#*  +.+* +#o+@###$#%#&#*#                                                ",
"                        D@$@=#-#;#v+M@h >#,#                                                    ",
"                            '#)#* * !#~#                                                        ",
"                            {#* * ]#                                                            ",
"                            {#i./@                                                              ",
"                            ^#                                                                  "};
