/* XPM */
static char * showSelectedSize_xpm[] = {
"48 48 509 2",
"  	c None",
". 	c #BBBBBB",
"+ 	c #D2D2D2",
"@ 	c #E3E3E5",
"# 	c #F0F0F5",
"$ 	c #F6F6FF",
"% 	c #D9D9E7",
"& 	c #B6B6CB",
"* 	c #FF0000",
"= 	c #CCCCD9",
"- 	c #EEEEFE",
"; 	c #EAEAFF",
"> 	c #E3E3FF",
", 	c #DDDDFF",
"' 	c #D7D7FF",
") 	c #D1D1FF",
"! 	c #BABAEB",
"~ 	c #8B8BBB",
"{ 	c #B6B6CE",
"] 	c #DADAF7",
"^ 	c #DCDCFF",
"/ 	c #D7D6FF",
"( 	c #D0D0FF",
"_ 	c #CACAFF",
": 	c #C4C4FF",
"< 	c #BEBEFF",
"[ 	c #B8B8FF",
"} 	c #B2B2FF",
"| 	c #ACACFF",
"1 	c #9191E3",
"2 	c #9D9CBE",
"3 	c #C5C6EE",
"4 	c #CFCFFF",
"5 	c #C9CAFF",
"6 	c #C3C3FF",
"7 	c #BDBDFF",
"8 	c #B7B7FF",
"9 	c #B1B1FF",
"0 	c #ABABFF",
"a 	c #A5A5FF",
"b 	c #9F9FFF",
"c 	c #9999FF",
"d 	c #9393FF",
"e 	c #8D8DFF",
"f 	c #8585FC",
"g 	c #6867D5",
"h 	c #AFB0E3",
"i 	c #C2C2FF",
"j 	c #BCBDFF",
"k 	c #B7B6FF",
"l 	c #B0B0FF",
"m 	c #AAAAFF",
"n 	c #A4A4FF",
"o 	c #9E9EFF",
"p 	c #9898FF",
"q 	c #9292FF",
"r 	c #8C8CFF",
"s 	c #8686FF",
"t 	c #8080FF",
"u 	c #7A7AFF",
"v 	c #7474FF",
"w 	c #6E6EFF",
"x 	c #6767FF",
"y 	c #5D5DF5",
"z 	c #4444CB",
"A 	c #999AD7",
"B 	c #B3B3FC",
"C 	c #AFAFFF",
"D 	c #AAA9FF",
"E 	c #A3A3FF",
"F 	c #9D9DFF",
"G 	c #9797FF",
"H 	c #9191FF",
"I 	c #8B8BFF",
"J 	c #8585FF",
"K 	c #7F7FFF",
"L 	c #7979FF",
"M 	c #7373FF",
"N 	c #6D6DFF",
"O 	c #6161FF",
"P 	c #5B5AFF",
"Q 	c #5454FF",
"R 	c #4F4FFF",
"S 	c #4848FF",
"T 	c #4242FF",
"U 	c #3535E4",
"V 	c #2222A3",
"W 	c #8787CE",
"X 	c #A1A1F5",
"Y 	c #A2A2FF",
"Z 	c #9C9CFF",
"` 	c #9696FF",
" .	c #9090FF",
"..	c #8A8AFF",
"+.	c #8484FF",
"@.	c #7E7EFF",
"#.	c #7878FF",
"$.	c #7272FF",
"%.	c #6C6CFF",
"&.	c #6666FF",
"*.	c #6060FF",
"=.	c #5A5AFF",
"-.	c #4E4EFF",
";.	c #4747FF",
">.	c #3C3BFF",
",.	c #3535FF",
"'.	c #3030FF",
").	c #2929FF",
"!.	c #2323FF",
"~.	c #1E1EFC",
"{.	c #18189C",
"].	c #6C6CB6",
"^.	c #8484DE",
"/.	c #9596FF",
"(.	c #8F8FFF",
"_.	c #8989FF",
":.	c #8383FF",
"<.	c #7D7DFF",
"[.	c #7777FF",
"}.	c #7171FF",
"|.	c #6B6BFF",
"1.	c #6565FF",
"2.	c #5F5FFF",
"3.	c #5959FF",
"4.	c #5353FF",
"5.	c #4D4DFF",
"6.	c #4141FF",
"7.	c #3A3BFF",
"8.	c #2F2FFF",
"9.	c #2928FF",
"0.	c #1D1DFF",
"a.	c #1717FF",
"b.	c #1111FF",
"c.	c #1010DC",
"d.	c #501461",
"e.	c #B90E0E",
"f.	c #3A3A66",
"g.	c #6F6FD5",
"h.	c #7C7CFF",
"i.	c #7676FF",
"j.	c #7070FF",
"k.	c #6A6AFF",
"l.	c #6464FF",
"m.	c #5E5EFF",
"n.	c #5858FF",
"o.	c #5252FF",
"p.	c #4C4CFF",
"q.	c #4646FF",
"r.	c #4040FF",
"s.	c #3A3AFF",
"t.	c #3434FF",
"u.	c #2E2EFF",
"v.	c #2828FF",
"w.	c #2222FF",
"x.	c #1C1CFF",
"y.	c #1616FF",
"z.	c #1010FF",
"A.	c #0A0AFF",
"B.	c #0505FF",
"C.	c #0606EE",
"D.	c #370F96",
"E.	c #B90D10",
"F.	c #F50303",
"G.	c #E20808",
"H.	c #5E5EDE",
"I.	c #2D2E75",
"J.	c #383887",
"K.	c #5656E8",
"L.	c #5757FF",
"M.	c #5151FF",
"N.	c #4B4BFF",
"O.	c #4545FF",
"P.	c #3F3FFF",
"Q.	c #3939FF",
"R.	c #3333FF",
"S.	c #2D2DFF",
"T.	c #2727FF",
"U.	c #2121FF",
"V.	c #1B1BFF",
"W.	c #1515FF",
"X.	c #0F0FFF",
"Y.	c #0809FF",
"Z.	c #0404FF",
"`.	c #0101FF",
" +	c #0000FF",
".+	c #0202F9",
"++	c #170DB3",
"@+	c #9B0F2E",
"#+	c #EF0404",
"$+	c #E30909",
"%+	c #5656FF",
"&+	c #5050FE",
"*+	c #3737C8",
"=+	c #1B1B58",
"-+	c #2E2EA8",
";+	c #3737F4",
">+	c #3232FF",
",+	c #2C2CFF",
"'+	c #2626FF",
")+	c #2020FF",
"!+	c #1A1AFF",
"~+	c #1414FF",
"{+	c #0E0EFF",
"]+	c #0808FF",
"^+	c #0000FD",
"/+	c #0A0ACC",
"(+	c #761154",
"_+	c #E20707",
":+	c #EB0C0C",
"<+	c #3D3DFF",
"[+	c #3737FF",
"}+	c #3131FF",
"|+	c #2A29F6",
"1+	c #1A1AB1",
"2+	c #161655",
"3+	c #1B1BC1",
"4+	c #1414FB",
"5+	c #0D0DFF",
"6+	c #0707FF",
"7+	c #0303FF",
"8+	c #0606E1",
"9+	c #531177",
"0+	c #CC0A0A",
"a+	c #FF0101",
"b+	c #EB1313",
"c+	c #2424FF",
"d+	c #1E1EFF",
"e+	c #1919FF",
"f+	c #1212FF",
"g+	c #0C0CFF",
"h+	c #0909ED",
"i+	c #101092",
"j+	c #13136D",
"k+	c #0909D8",
"l+	c #0000FE",
"m+	c #0404F0",
"n+	c #2A0F9B",
"o+	c #B30D0B",
"p+	c #FA0202",
"q+	c #FF0404",
"r+	c #EB1A1A",
"s+	c #0B0CFF",
"t+	c #0606FF",
"u+	c #0202FF",
"v+	c #0001FF",
"w+	c #0808DC",
"x+	c #121270",
"y+	c #11118C",
"z+	c #0505EB",
"A+	c #0101FA",
"B+	c #090DB5",
"C+	c #990F2E",
"D+	c #FF0B0B",
"E+	c #E32121",
"F+	c #0101FC",
"G+	c #0B0BC5",
"H+	c #131355",
"I+	c #0F0FAC",
"J+	c #0303F5",
"K+	c #0D0DC1",
"L+	c #731157",
"M+	c #E00707",
"N+	c #FF1515",
"O+	c #E32828",
"P+	c #0202F6",
"Q+	c #0E0EAB",
"R+	c #451617",
"S+	c #C90A0A",
"T+	c #FE0000",
"U+	c #FF1E1E",
"V+	c #DF2E2F",
"W+	c #0404F2",
"X+	c #711313",
"Y+	c #F80C0C",
"Z+	c #B31B1B",
"`+	c #8D2727",
" @	c #FD0101",
".@	c #CA0A0A",
"+@	c #931616",
"@@	c #D92B2B",
"#@	c #E33F3F",
"$@	c #0E0EC6",
"%@	c #0C0CD1",
"&@	c #DF0707",
"*@	c #931010",
"=@	c #CE0E0E",
"-@	c #FD1E1E",
";@	c #FF3839",
">@	c #E24747",
",@	c #0505EE",
"'@	c #0F0FBD",
")@	c #0808E3",
"!@	c #9F0F0F",
"~@	c #B60D0D",
"{@	c #F80202",
"]@	c #FF0D0D",
"^@	c #FF2727",
"/@	c #FF4242",
"(@	c #EC5353",
"_@	c #0909DC",
":@	c #0F0FBE",
"<@	c #0303F3",
"[@	c #B70D0D",
"}@	c #A30F0F",
"|@	c #FF1616",
"1@	c #FF3030",
"2@	c #FF4B4B",
"3@	c #EB5B5B",
"4@	c #0D0DCC",
"5@	c #0D0DCB",
"6@	c #0101FB",
"7@	c #CE0A0A",
"8@	c #8D1111",
"9@	c #FF0505",
"0@	c #FF1F1F",
"a@	c #FF3939",
"b@	c #FF5454",
"c@	c #EB6464",
"d@	c #0E0EC2",
"e@	c #0B0BD5",
"f@	c #E20606",
"g@	c #901010",
"h@	c #FF2828",
"i@	c #FF5D5D",
"j@	c #E26767",
"k@	c #0F0FBC",
"l@	c #0707E7",
"m@	c #F20404",
"n@	c #A00F0F",
"o@	c #B10D0D",
"p@	c #F70202",
"q@	c #FF3131",
"r@	c #FF6666",
"s@	c #E36F6F",
"t@	c #0A0AD9",
"u@	c #1010B5",
"v@	c #431616",
"w@	c #9A0F0F",
"x@	c #EE0404",
"y@	c #FF0606",
"z@	c #FF3A3A",
"A@	c #FF6F6F",
"B@	c #EB7D7D",
"C@	c #FF0E0E",
"D@	c #FF4343",
"E@	c #DE6666",
"F@	c #7E4545",
"G@	c #FF1717",
"H@	c #EE4545",
"I@	c #A03D3D",
"J@	c #AD5A5A",
"K@	c #E58B8B",
"L@	c #F91F1F",
"M@	c #B42727",
"N@	c #9F3838",
"O@	c #EF6A6A",
"P@	c #FF8A8A",
"Q@	c #E29090",
"R@	c #0101FD",
"S@	c #0C0CCF",
"T@	c #0E0EC5",
"U@	c #CD0F0F",
"V@	c #8E1D1D",
"W@	c #E03E3E",
"X@	c #FF5E5E",
"Y@	c #FF7979",
"Z@	c #FF9393",
"`@	c #E39999",
" #	c #0202F8",
".#	c #0B0BD3",
"+#	c #8E1111",
"@#	c #CC1919",
"##	c #FD3232",
"$#	c #FF4C4C",
"%#	c #FF6767",
"&#	c #FF8282",
"*#	c #FF9D9D",
"=#	c #EBA7A7",
"-#	c #0505ED",
";#	c #0F0FBB",
">#	c #0707E6",
",#	c #B40D0D",
"'#	c #F80808",
")#	c #FF2020",
"!#	c #FF3B3B",
"~#	c #FF5656",
"{#	c #FF7070",
"]#	c #FF8B8B",
"^#	c #FFA6A6",
"/#	c #EBB0B0",
"(#	c #0F0FBF",
"_#	c #F90202",
":#	c #9D0F0F",
"<#	c #FF0F0F",
"[#	c #FF2929",
"}#	c #FF4444",
"|#	c #FF5F5F",
"1#	c #FF9494",
"2#	c #FFAFAF",
"3#	c #EBB7B7",
"4#	c #0C0CCD",
"5#	c #0E0EC7",
"6#	c #FD0000",
"7#	c #D00909",
"8#	c #DE0707",
"9#	c #FF0202",
"0#	c #FF1818",
"a#	c #FF3232",
"b#	c #FF4D4D",
"c#	c #FF6868",
"d#	c #FFB8B8",
"e#	c #E2B8B8",
"f#	c #0202F7",
"g#	c #0D0DC9",
"h#	c #4F1515",
"i#	c #941010",
"j#	c #C70B0B",
"k#	c #FF0707",
"l#	c #FF2121",
"m#	c #FF7171",
"n#	c #FF8B8C",
"o#	c #FFC1C1",
"p#	c #E5C3C3",
"q#	c #0808E1",
"r#	c #621515",
"s#	c #F40303",
"t#	c #FF1010",
"u#	c #FF2A2A",
"v#	c #FF7A7A",
"w#	c #FF9595",
"x#	c #F9C5C5",
"y#	c #AD9797",
"z#	c #FF1919",
"A#	c #FF3333",
"B#	c #FF4D4E",
"C#	c #FF8383",
"D#	c #FE9D9D",
"E#	c #CC9090",
"F#	c #8D7676",
"G#	c #C7BABA",
"H#	c #0A0AD1",
"I#	c #FF3C3C",
"J#	c #FF5757",
"K#	c #E07878",
"L#	c #915D5D",
"M#	c #CD9E9E",
"N#	c #FEDCDC",
"O#	c #EBE2E2",
"P#	c #0E0EA1",
"Q#	c #0909DE",
"R#	c #0606EB",
"S#	c #FF2B2B",
"T#	c #FF4545",
"U#	c #EF5858",
"V#	c #9E4848",
"W#	c #B46C6C",
"X#	c #F8ACAC",
"Y#	c #FFCBCB",
"Z#	c #FFE6E6",
"`#	c #E1DDDD",
" $	c #0D0DA9",
".$	c #0606E7",
"+$	c #0D0DC8",
"@$	c #FA3232",
"#$	c #B73535",
"$$	c #9E4444",
"%$	c #EE7D7C",
"&$	c #FF9E9E",
"*$	c #FFB9B9",
"=$	c #F9CECE",
"-$	c #D0BEBE",
";$	c #FF0808",
">$	c #D01B1B",
",$	c #8A2525",
"'$	c #DE4E4E",
")$	c #FF7272",
"!$	c #FF8D8D",
"~$	c #FDA6A6",
"{$	c #DDA5A5",
"]$	c #0808DF",
"^$	c #E30606",
"/$	c #8D1313",
"($	c #C92626",
"_$	c #FE4545",
":$	c #FF6060",
"<$	c #FF7B7B",
"[$	c #E88686",
"}$	c #0505EC",
"|$	c #F20303",
"1$	c #B00F0F",
"2$	c #F81A1A",
"3$	c #FF3434",
"4$	c #FF4F4F",
"5$	c #F16262",
"6$	c #C56161",
"7$	c #651414",
"8$	c #BA0C0C",
"9$	c #991010",
"0$	c #FF2323",
"a$	c #F93B3B",
"b$	c #D44545",
"c$	c #4D1515",
"d$	c #DB0707",
"e$	c #FF1111",
"f$	c #DD2424",
"g$	c #721212",
"h$	c #EA0707",
"i$	c #C70E0E",
"j$	c #591616",
"                                . +                                                             ",
"                              @ # $ % &                       *   * *   * *     *   *     *     ",
"                          = - ; > , ' ) ! ~                   * * * * * * *     * * * * * * *   ",
"                      { ] ^ / ( _ : < [ } | 1                 *     *     *     *     *     *   ",
"                  2 3 4 5 6 7 8 9 0 a b c d e f g             *     *     *     *     *     *   ",
"                h i j k l m n o p q r s t u v w x y z         *     *     *     *     *     *   ",
"            A B C D E F G H I J K L M N x O P Q R S T U V                                       ",
"        W X Y Z `  ...+.@.#.$.%.&.*.=.Q -.;.T >.,.'.).!.~.{.                                    ",
"    ].^./.(._.:.<.[.}.|.1.2.3.4.5.;.6.7.,.8.9.!.0.a.b.c.d.e.                                    ",
"    f.g.h.i.j.k.l.m.n.o.p.q.r.s.t.u.v.w.x.y.z.A.B.C.D.E.F.G.                                    ",
"    H.I.J.K.L.M.N.O.P.Q.R.S.T.U.V.W.X.Y.Z.`. +.+++@+#+* * $+                                    ",
"    %+&+*+=+-+;+>+,+'+)+!+~+{+]+Z.`. + + +^+/+(+_+* * * * :+                                    ",
"    <+[+}+|+1+2+3+4+5+6+7+`. + + + + + +8+9+0+* * * * * a+b+                                    ",
"    c+d+e+f+g+h+i+j+k+l+ + + + + + +m+n+o+p+* * * * * * q+r+                                    ",
"    s+t+u+v+ + + +w+x+y+z+ + + +A+B+C+#+* * * * * * * * D+E+                                    ",
"     + + + + + + + +F+G+H+I+J+K+L+M+* * * * * * * * * a+N+O+                                    ",
"     + + + + + + + + + +P+Q+R+S+T+* * * * * * * * * * q+U+V+                                    ",
"     + + + + + + + + + + +W+X+* * * * * * * * * * * * Y+Z+`+                                    ",
"    .+ + + + + + + + + + +W+X+* * * * * * * * * *  @.@+@@@#@                                    ",
"    $@%@ + + + + + + + + +W+X+* * * * * * * * * &@*@=@-@;@>@                                    ",
"     +,@'@)@ + + + + + + +W+X+* * * * * * * #+!@~@{@]@^@/@(@                                    ",
"     + + +_@:@<@ + + + + +W+X+* * * * * {@[@}@#+* a+|@1@2@3@                                    ",
"     + + + +F+4@5@6@ + + +W+X+* * * T+7@8@&@* * * 9@0@a@b@c@                                    ",
"     + + + + + +P+d@e@l+ +W+X+* * f@g@.@T+* * * * ]@h@/@i@j@                                    ",
"     + + + + + + + +z+k@l@W+X+m@n@o@p@* * * * * a+|@q@2@r@s@                                    ",
"     + + + + + + + + + +t@u@v@w@x@* * * * * * * y@0@z@b@A@B@                                    ",
"     + + + + + + + + + + +m+X+* * * * * * * * * C@h@D@i@E@F@                                    ",
"     + + + + + + + + + + +W+X+* * * * * * * * a+G@q@H@I@J@K@                                    ",
"    '@<@ + + + + + + + + +W+X+* * * * * * * * y@L@M@N@O@P@Q@                                    ",
"    R@S@T@A+ + + + + + + +W+X+* * * * * * * T+U@V@W@X@Y@Z@`@                                    ",
"     + + #d@.# + + + + + +W+X+* * * * * * _++#@###$#%#&#*#=#                                    ",
"     + + + +-#;#># + + + +W+X+* * * * #+n@,#'#)#!#~#{#]#^#/#                                    ",
"     + + + + + +_@(#W+ + +W+X+* * _#~@:#x@* <#[#}#|#Y@1#2#3#                                    ",
"     + + + + + + +R@4#5#A+W+X+6#7#+#8#* * 9#0#a#b#c#&#*#d#e#                                    ",
"     + + + + + + + + +f#d@g#h#i#j# @* * * k#l#!#~#m#n#^#o#p#                                    ",
"     + + + + + + + + + + +q#r#s#* * * * * t#u#}#|#v#w#2#x#y#                                    ",
"     + + + + + + + + + + +W+X+* * * * * 9#z#A#B#c#C#D#E#F#G#                                    ",
"    H# + + + + + + + + + +W+X+* * * * * k#l#I#J#m#K#L#M#N#O#                                    ",
"    P#Q#R# + + + + + + + +W+X+* * * * * t#S#T#U#V#W#X#Y#Z#`#                                    ",
"     $.$  +$<@ + + + + + +W+X+* * * * 9#z#@$#$$$%$&$*$=$-$                                      ",
"              .#F+ + + + +W+X+* * * * ;$>$,$'$)$!$~${$                                          ",
"                  ]$ + + +W+X+* * * ^$/$($_$:$<$[$                                              ",
"                    u@}$ +W+X+* |$n@1$2$3$4$5$6$                                                ",
"                        +$>#7$8$9$x@;$0$a$b$                                                    ",
"                            c$d$* * e$f$                                                        ",
"                            g$* * h$                                                            ",
"                            g$s#i$                                                              ",
"                            j$                                                                  "};
