/* XPM */
static char * Woodworking_xpm[] = {
"48 48 517 2",
"  	c None",
". 	c #EEEEEF",
"+ 	c #F7F7F8",
"@ 	c #E3E4E5",
"# 	c #D4BFAE",
"$ 	c #C1A182",
"% 	c #C2BCB8",
"& 	c #DBDBDC",
"* 	c #FDFDFD",
"= 	c #FBFBFB",
"- 	c #DAD6D2",
"; 	c #BDA894",
"> 	c #CF9745",
", 	c #FCB44D",
"' 	c #FCB750",
") 	c #FCB955",
"! 	c #E6A84D",
"~ 	c #C7975A",
"{ 	c #CAB5A2",
"] 	c #CBCAC9",
"^ 	c #F0F0F0",
"/ 	c #FFFFFF",
"( 	c #EEEFEF",
"_ 	c #D7C6B8",
": 	c #DAA566",
"< 	c #F8B451",
"[ 	c #FDB957",
"} 	c #FBB64E",
"| 	c #FEB751",
"1 	c #FCB44B",
"2 	c #FCB853",
"3 	c #FCBA57",
"4 	c #FEB955",
"5 	c #F9B44F",
"6 	c #D5983D",
"7 	c #C6A37E",
"8 	c #C9BDB3",
"9 	c #DDDDDD",
"0 	c #DEDAD8",
"a 	c #D8BA9E",
"b 	c #E8A94D",
"c 	c #FCB54C",
"d 	c #FCB64E",
"e 	c #FCB956",
"f 	c #FCB854",
"g 	c #FAB54E",
"h 	c #FFB74F",
"i 	c #FCB349",
"j 	c #FCB855",
"k 	c #FFBB57",
"l 	c #FDB751",
"m 	c #FCB651",
"n 	c #FBB34A",
"o 	c #EDAD4E",
"p 	c #C48E40",
"q 	c #CCB198",
"r 	c #CDC9C6",
"s 	c #EAEAEA",
"t 	c #F1F2F2",
"u 	c #D7C9BD",
"v 	c #D8A970",
"w 	c #F6B453",
"x 	c #FBB855",
"y 	c #FCB954",
"z 	c #FCB44C",
"A 	c #FDB54C",
"B 	c #FCBA58",
"C 	c #FAB753",
"D 	c #FFB851",
"E 	c #FCB64F",
"F 	c #FCB753",
"G 	c #FFBC59",
"H 	c #FCB751",
"I 	c #FBB752",
"J 	c #F9B34C",
"K 	c #FFB953",
"L 	c #F6B24C",
"M 	c #E0A041",
"N 	c #C89E6F",
"O 	c #C3B5A8",
"P 	c #D6D5D5",
"Q 	c #F8F8F8",
"R 	c #E0DEDC",
"S 	c #D9BDA4",
"T 	c #E7A74D",
"U 	c #FCBA56",
"V 	c #FCB752",
"W 	c #FBB652",
"X 	c #FCB54F",
"Y 	c #FAB650",
"Z 	c #FFB852",
"` 	c #FCB54D",
" .	c #FFBB58",
"..	c #F8B24A",
"+.	c #FEB750",
"@.	c #FAB34B",
"#.	c #F4B353",
"$.	c #D29B4E",
"%.	c #C7A889",
"&.	c #C9C2BC",
"*.	c #E2E2E2",
"=.	c #F4F4F4",
"-.	c #C2C1C0",
";.	c #D3A674",
">.	c #F8B95B",
",.	c #FCBB58",
"'.	c #FDB853",
").	c #FCB650",
"!.	c #FAB652",
"~.	c #FFBA57",
"{.	c #FCB44A",
"].	c #FFBE5D",
"^.	c #F8B44E",
"/.	c #FFBC5A",
"(.	c #E3A951",
"_.	c #C8975B",
":.	c #C8B3A0",
"<.	c #D1CFCD",
"[.	c #F1F1F1",
"}.	c #E4E4E4",
"|.	c #D6BEA8",
"1.	c #E4A856",
"2.	c #E7A74A",
"3.	c #F5B04B",
"4.	c #FDB54D",
"5.	c #FBB753",
"6.	c #FCB247",
"7.	c #FFBD5D",
"8.	c #FCB54E",
"9.	c #F9B44D",
"0.	c #F9B249",
"a.	c #FCBB59",
"b.	c #F8B350",
"c.	c #D69A41",
"d.	c #C6A079",
"e.	c #CAC0B7",
"f.	c #9E9E9E",
"g.	c #3C280F",
"h.	c #996F32",
"i.	c #C59245",
"j.	c #EDAD50",
"k.	c #FBB650",
"l.	c #FDB64D",
"m.	c #FCB852",
"n.	c #FCB54B",
"o.	c #FAB54D",
"p.	c #FFB850",
"q.	c #FBBA57",
"r.	c #FDB954",
"s.	c #FBB651",
"t.	c #FEB64D",
"u.	c #261A0E",
"v.	c #271A0B",
"w.	c #010101",
"x.	c #000003",
"y.	c #6E5128",
"z.	c #AD7B36",
"A.	c #D89C42",
"B.	c #F7B655",
"C.	c #FCB348",
"D.	c #FFBA55",
"E.	c #FFB64D",
"F.	c #F9B44C",
"G.	c #FBB853",
"H.	c #FDB752",
"I.	c #FEBA55",
"J.	c #5C4118",
"K.	c #F8B049",
"L.	c #D59C48",
"M.	c #AB7C37",
"N.	c #64461E",
"O.	c #060505",
"P.	c #090909",
"Q.	c #8C652C",
"R.	c #BF8939",
"S.	c #E4A64B",
"T.	c #FDB44A",
"U.	c #FCBB5A",
"V.	c #FCB34A",
"W.	c #F9B550",
"X.	c #FEBB57",
"Y.	c #FAB249",
"Z.	c #FEBA56",
"`.	c #FCB347",
" +	c #88652F",
".+	c #FDB64F",
"++	c #EAAA4D",
"@+	c #C69042",
"#+	c #936C32",
"$+	c #3E2D16",
"%+	c #020202",
"&+	c #553E1C",
"*+	c #A0712E",
"=+	c #D19640",
"-+	c #F3B253",
";+	c #F9B650",
">+	c #FDB54E",
",+	c #FEB954",
"'+	c #FAB44D",
")+	c #FEB74F",
"!+	c #FBB854",
"~+	c #F2AD48",
"{+	c #C28C3E",
"]+	c #DBA049",
"^+	c #B3833D",
"/+	c #765525",
"(+	c #060708",
"_+	c #000000",
":+	c #140E08",
"<+	c #7C5825",
"[+	c #B58339",
"}+	c #DD9E44",
"|+	c #FBB54F",
"1+	c #FBB856",
"2+	c #FAB248",
"3+	c #FEB64F",
"4+	c #FBB751",
"5+	c #E0A54E",
"6+	c #9E7235",
"7+	c #181109",
"8+	c #030303",
"9+	c #FCB246",
"0+	c #FDB854",
"a+	c #F2B04E",
"b+	c #CE9441",
"c+	c #9D7133",
"d+	c #543C1B",
"e+	c #000002",
"f+	c #412B10",
"g+	c #956A2C",
"h+	c #C79244",
"i+	c #ECAB4E",
"j+	c #FFBB56",
"k+	c #FDB955",
"l+	c #FBB54E",
"m+	c #FDB449",
"n+	c #FAB145",
"o+	c #C69043",
"p+	c #715021",
"q+	c #000103",
"r+	c #2C1D0A",
"s+	c #976B2C",
"t+	c #DE9F45",
"u+	c #87622A",
"v+	c #FFB64F",
"w+	c #E5A64A",
"x+	c #BB8638",
"y+	c #89622A",
"z+	c #110800",
"A+	c #000004",
"B+	c #684C24",
"C+	c #B1803A",
"D+	c #D69A44",
"E+	c #F7B451",
"F+	c #FEB853",
"G+	c #FBB44D",
"H+	c #FFB549",
"I+	c #F9B753",
"J+	c #FBB349",
"K+	c #FBB64F",
"L+	c #E4A64A",
"M+	c #A27535",
"N+	c #2A1F0F",
"O+	c #030302",
"P+	c #66481E",
"Q+	c #BE883B",
"R+	c #F2B151",
"S+	c #875F23",
"T+	c #FDB64E",
"U+	c #FFB955",
"V+	c #FDB750",
"W+	c #CDCAC8",
"X+	c #D7D7D7",
"Y+	c #AEAEAE",
"Z+	c #656565",
"`+	c #1F180E",
" @	c #89632C",
".@	c #BC8B43",
"+@	c #E7A749",
"@@	c #F9B754",
"#@	c #C99142",
"$@	c #BB863B",
"%@	c #795624",
"&@	c #21160A",
"*@	c #8F662C",
"=@	c #D99E47",
"-@	c #FBBA58",
";@	c #896023",
">@	c #FFBA56",
",@	c #FEBA58",
"'@	c #FCB550",
")@	c #D4D2CF",
"!@	c #EEEEEE",
"~@	c #C8C8C8",
"{@	c #949494",
"]@	c #3D3D3D",
"^@	c #593F1C",
"/@	c #9D7333",
"(@	c #CE943E",
"_@	c #A87832",
":@	c #3B2912",
"<@	c #030202",
"[@	c #5F4520",
"}@	c #B88438",
"|@	c #EFAD4D",
"1@	c #FDB44B",
"2@	c #8D6225",
"3@	c #FDB651",
"4@	c #FEB74E",
"5@	c #D4D2D0",
"6@	c #DEDEDE",
"7@	c #B5B5B5",
"8@	c #7A7A7A",
"9@	c #151515",
"0@	c #0B0B0B",
"a@	c #140D06",
"b@	c #87612A",
"c@	c #D89E49",
"d@	c #FBB956",
"e@	c #FCB957",
"f@	c #FFB751",
"g@	c #FEB54B",
"h@	c #A7A7A7",
"i@	c #2A1E12",
"j@	c #EEA945",
"k@	c #FDB650",
"l@	c #FDBA57",
"m@	c #8D6328",
"n@	c #FFB74E",
"o@	c #AAAAAA",
"p@	c #2E2010",
"q@	c #8D6224",
"r@	c #FFB954",
"s@	c #2E200F",
"t@	c #8D6123",
"u@	c #FCB652",
"v@	c #2E200E",
"w@	c #FFBD5B",
"x@	c #FFBD5C",
"y@	c #FEB448",
"z@	c #2E2110",
"A@	c #FDB753",
"B@	c #FEB953",
"C@	c #8D6223",
"D@	c #FDB54B",
"E@	c #896127",
"F@	c #FFBC58",
"G@	c #FDB348",
"H@	c #EBAC4E",
"I@	c #B6AFA9",
"J@	c #E8E8E8",
"K@	c #2D1F0F",
"L@	c #FDB54A",
"M@	c #FBB44C",
"N@	c #D89E4A",
"O@	c #D79A42",
"P@	c #EAA949",
"Q@	c #DEA550",
"R@	c #C89C67",
"S@	c #CAB8A9",
"T@	c #D1D0D0",
"U@	c #F6F6F6",
"V@	c #2A1E0F",
"W@	c #FBB54D",
"X@	c #FEB852",
"Y@	c #FBB957",
"Z@	c #EDAD4F",
"`@	c #D59D4A",
" #	c #D99C43",
".#	c #F9B652",
"+#	c #F6B14E",
"@#	c #D0943B",
"##	c #C6A686",
"$#	c #C9C1BA",
"%#	c #FBB54C",
"&#	c #FFB750",
"*#	c #FDB956",
"=#	c #FEB64E",
"-#	c #D99E49",
";#	c #D69C45",
">#	c #E7A94D",
",#	c #C99757",
"'#	c #C7AF9A",
")#	c #838180",
"!#	c #FBB347",
"~#	c #FFB64E",
"{#	c #F0AE4E",
"]#	c #D59943",
"^#	c #D89D47",
"/#	c #F8B450",
"(#	c #FEBA57",
"_#	c #A67C3B",
":#	c #FFB54C",
"<#	c #865F24",
"[#	c #FDB74F",
"}#	c #DC9F48",
"|#	c #D69B45",
"1#	c #FAB956",
"2#	c #FFB64C",
"3#	c #A47B3A",
"4#	c #2E1F0F",
"5#	c #FEB54C",
"6#	c #F6B252",
"7#	c #D49A44",
"8#	c #F7B24E",
"9#	c #FAB651",
"0#	c #A57B3A",
"a#	c #8E6325",
"b#	c #E0A249",
"c#	c #D69C49",
"d#	c #E5A850",
"e#	c #FDBA58",
"f#	c #FBB955",
"g#	c #A77C3C",
"h#	c #67461A",
"i#	c #FDB851",
"j#	c #0D0D0E",
"k#	c #92682C",
"l#	c #CA9241",
"m#	c #F3B252",
"n#	c #A57834",
"o#	c #7D561F",
"p#	c #362613",
"q#	c #000005",
"r#	c #79592A",
"s#	c #B27F35",
"t#	c #DDA14A",
"u#	c #F8B44D",
"v#	c #A57733",
"w#	c #8E6429",
"x#	c #F3B04E",
"y#	c #CD933E",
"z#	c #A47735",
"A#	c #553B18",
"B#	c #010102",
"C#	c #362510",
"D#	c #8F672E",
"E#	c #C38E40",
"F#	c #EBAC4F",
"G#	c #A57937",
"H#	c #7D5823",
"I#	c #E5A446",
"J#	c #C08A3D",
"K#	c #86622E",
"L#	c #2E1F0E",
"M#	c #614720",
"N#	c #A87833",
"O#	c #D6983E",
"P#	c #F5B250",
"Q#	c #FFB853",
"R#	c #A67734",
"S#	c #FCB856",
"T#	c #8D6326",
"U#	c #FAB550",
"V#	c #D79C47",
"W#	c #A97A37",
"X#	c #6F4F23",
"Y#	c #010405",
"Z#	c #010100",
"`#	c #21170B",
" $	c #86602A",
".$	c #B9863A",
"+$	c #E3A74E",
"@$	c #A67834",
"#$	c #7D5721",
"$$	c #FCB754",
"%$	c #FFBC5B",
"&$	c #ECAB4C",
"*$	c #C88F3C",
"=$	c #996F33",
"-$	c #372610",
";$	c #523918",
">$	c #9D7233",
",$	c #CC9645",
"'$	c #F2B04F",
")$	c #FFBE5C",
"!$	c #A57631",
"~$	c #FAB44F",
"{$	c #DEA147",
"]$	c #B58135",
"^$	c #7B5926",
"/$	c #000001",
"($	c #140D07",
"_$	c #6F5228",
":$	c #B48137",
"<$	c #DFA24A",
"[$	c #F9B24A",
"}$	c #8C6123",
"|$	c #FCB74F",
"1$	c #C9C5C3",
"2$	c #D2D2D2",
"3$	c #A3A3A3",
"4$	c #575757",
"5$	c #3B2A14",
"6$	c #93682B",
"7$	c #C38D3F",
"8$	c #E9A849",
"9$	c #7B551F",
"0$	c #88642C",
"a$	c #FDB953",
"b$	c #BEBEBE",
"c$	c #8C8C8C",
"d$	c #272727",
"e$	c #674921",
"f$	c #7A5B2B",
"g$	c #A97E43",
"h$	c #D4D1CF",
"i$	c #D8D8D8",
"j$	c #B2B2B2",
"k$	c #646464",
"l$	c #0F0F0F",
"m$	c #7C5D2E",
"n$	c #FBB750",
"o$	c #FAB146",
"p$	c #87622B",
"q$	c #795929",
"r$	c #74531F",
". . . . . . . . . . . . . . . . . . . . . . . . . . . . . . . . . . . . . . . . . . . . . . . . ",
"+ + + + + + + + + + + + + + + + + + + @ # $ % & + + + + + + + + + + + + + + + + + + + + + + + + ",
"* * * * * * * * * * * * * * * * = - ; > , ' ) ! ~ { ] ^ * * * * * * * * * * * * * * * * * * * * ",
"/ / / / / / / / / / / / / / ( _ : < [ } | 1 2 3 ) 4 5 6 7 8 9 = / / / / / / / / / / / / / / / / ",
"/ / / / / / / / / / / / 0 a b c d e f g h i 2 3 j k l m f n o p q r s / / / / / / / / / / / / / ",
"/ / / / / / / / / t u v w x y z A B z C D i E 3 F G H f f I y J K L M N O P Q / / / / / / / / / ",
"/ / / / / / / R S T U f j j V ' 1 W X Y Z ` F 3 H  .H F V e ) ..+.@.E ` V #.$.%.&.*./ / / / / / ",
"/ / / / =.-.;.>.` f ,.H F F V c d '.).!.~.{.V ,.).].d H m f V ^.h @.).).f V /.d '.(._.:.<.[./ / ",
"/ / }.|.1.2.3./.X 2 ,.E H V V H 4.f V 5.4 6.).3 V 7.8.` H F e 9.K 0.H F V E  .H V a.).).b.c.d.e.",
"/ / f.g.h.i.j. .).' e H V k.V z l.2 E m.E 2 H B F  .8.F n.F V o.p.0.d ' q.r.4 V ).e H H l s.1 t.",
"/ / f.u.v.w.x.y.z.A.B.H ).s.H E C.H V m.i m.H 3 j D.d V {.f V J E.F.).8.G.H.I.E ' 3 V E l s.` {.",
"/ / f.J.K.L.M.N.O.w.P.Q.R.S.F i T.e 8.) z 2 V U.e ~.c E n.e !.V.E.W.X.Y.x H.Z.m.f f V ` '.5.`.1 ",
"/ / f. +8.) .+K ++@+#+$+%+x.&+*+=+-+` f V d ).U.j Z.l F H e ;+4 >+C ,+'+x )+l 2 f 2 j V 3 !+~+{+",
"/ / f. +C.f D ).).H H W ]+^+/+(+_+:+<+[+}+' ).B H I.l |+F 1+W.Z.1 ) G.2+r.3+E m.m H 2 4+5+6+7+8+",
"/ / f. +9+0+E.V H V ) V X 2 V a+b+c+d+e+%+f+g+h+i+j+k+l+V k.5.| m+) G.n+4 T.H m.V #.o+p+q+r+s+t+",
"/ / f.u+i ).v+8.E V V V m H j k.V.f x w+x+y+z+w.A+B+C+D+E+F+!.G+H+a.I+J+K+E.z L+M+N+O+P+Q+R+k.1 ",
"/ / f.S+T+F U+m d ).F 2 1 I a.).1 ) d H T+V+W+X+Y+Z+_+w.`+ @.@+@E.@@` l.#@$@%@q+&@*@=@c 4+-@8.8.",
"/ / f.;@E j >@V K+H V 2 j E j 4.d ,@` E '@V+)@/ / / !@~@{@]@%+x.^@/@(@_@:@<@[@}@|@V y j ).j 1@E ",
"/ / f.2@H f >@V z 2 E V H E 2 3@c e l I 4.4@5@/ / / / / / / 6@7@8@9@0@a@b@c@s.d f ).m.H E 2 E ` ",
"/ / f.2@1@8.d@G ` ) E ).F m ) >+d 2 e@'+f@g@5@/ / / / / / / / / / h@i@j@k@l@Z.E ) ).H H V !+4.d ",
"/ / f.m@` ` 5./.` f 3 f 5.H 2 c ` ,.).!.n@g@5@/ / / / / / / / / / o@p@l.d 2 k E j 3 j W V I c ` ",
"/ / f.q@V E m./.` E 3 e 3 x e ` T.e z Y r@g@5@/ / / / / / / / / / o@s@V+).2  .E E 3 e e@k+x ` {.",
"/ / f.t@).2 2 ].` H 3 2 f j ).E X u@).Y r@3+5@/ / / / / / / / / / o@v@T+2 e w@d m 3 f f k+|+` X ",
"/ / f.m@V H d x@` 2 ,.E ).F V 8.T+2 ).C >@y@5@/ / / / / / / / / / o@z@l V )./.E V a.k@).A@W c E ",
"/ / f.t@j !+E G ).F 3 ).2 I V E 4.2 V 2 2 l.5@/ / / / / / / / / / o@v@B@x l >@V V 3 H F H.s.d 4.",
"/ / f.C@d U f  .E d 3 ).).k.).8.D@m., H z r.5@/ / / / / / / / / / o@s@)+d@0+I.V 8.3 H ).V+|+z 4.",
"/ / f.E@{.y m F@8.m.e V d 4+V ` G@F H.2 V.H@I@J@/ / / / / / / / / o@K@L@!+l Z.).m.d@m.` l W 1 i ",
"/ / f. +8.f ).>@V 2 H f ).x e C.1 e M@N@O@P@H Q@R@S@T@U@/ / / / / o@V@W@!+V+,+f 2 V f ).k+1+`.z ",
"/ / f. +1 2 X@).V F 2 H V Y@V 1 Z@`@ #.#m d ).a.f >@+#@###$#*.* / o@V@%#5.&#E f F 2 V H e@F V.f ",
"/ / f. +9+*#=#).).m 2 2 4+f -#;#+@H c V z H E 3 m 4 r.K+f !+>#,#'#)#V@!#~.1 E m.H 2 f ).j F V 2 ",
"/ / f. +9+V ~#V ).F f {#]#^#/#l+1 r.V H ` ).` e ).(#'.W@s.H s.` y@_#V@!#V :#).H F f V 8.V F l+` ",
"/ / f.<#1 H f@E [#}#|#w+d I B F {.y 2 ).1 d 8.3 8.4 0+l+m H 1#|+2#3#4#5#s.h 8.' u@H f 8.4+e@V z ",
"/ / f.S+T+f 6#7#|#8#F 2 s.E Y@8.` e ` ' 3@).H U.H F+*#K+H ).9#k.~#0#s@4@!+r@H H H F y m ).d@1 E ",
"/ / f.a#b#c#d#V W@V H 2 2 ).2 1@` e#` V 8.' ) f#H 4 r.K+2 ).K+M@h g#h#i#d@r@H d F V f F ).f T.` ",
"/ / f.j#k#l#m#Z.` f ).H F E !+0+` 2 *#K++.c 2 3 j 4 l G+f d 2 C h n#o#d V 4 r.E j ).V V ).!+H.E ",
"/ / f.p#q#_+A+r#s#t#!.V V ).2 c d ) j '+&#V.f 3 j ~.V+).f V.2 u#K v#o#i E e (#E j 2 V m H 5.n.` ",
"/ / f.w#x#y#z#A#8+B#C#D#E#F#f 1 4.B z C p.V.E 3 2 G H f f s.f J K G#H#E ` V ~.E V 3 ) !+j 5.1 A ",
"/ / f.t@E V m.7.I#J#K#L#w.A+M#N#O#P#X Y Q#` F B H  .V F F 3 e ..+.R#o#` V ) /.E E 3 ) S#*#5.E 1 ",
"/ / f.T#H m.H ].` f ,.U#V#W#X#Y#Z#`# $.$+$1@V ,.).].E V H f V ^.h @$#$).2 2 /.d F ,.H.$$0+s.z E ",
"/ / f.2@f s.` %$X V ,.E ' V H.&$*$=$-$e+8+;$>$,$'$)$8.` H F ) 9.K !$o#F H E  .H m a.m ).H.W d ` ",
"/ / f.t@H B 2 k ).H e H V k.V c t.2 ~${$]$^$/$w.($_$:$<$[$F V g p.!$o#H 3 0+,+V ).e H V l s.1 T+",
"/ / f.}$d y V  .8.|$3 m ).s.H E i H m m.i ,+1$2$3$4$_+%+5$6$7$8$~#!$9$E G.V I.).E 3 H ).l k.8.{.",
"/ / f.0$i ) V G m 2 G.H ` I 2 i T.) >+) 1 a$5@/ / / s b$c$d$w.A+e$[@f$2+x g$Z.V f !+V c '.5.C.1@",
"/ / f. +8.) E F+V y 2 f V d@) 1 E e@` f u@[#h$/ / / / / / = i$j$k$l$m$'+x 3+l f f 2 j V e@x {.' ",
"/ / f. +C.f Z ).).m H V V e I l+2 y ` m.` V+5@/ / / / / / / / / / 3$m$2+0++.).m.).H 2 H e F W@y ",
"/ / f. +9+k+2#V H V ) V 8.2 V n$E V 8.H , i#5@/ / / / / / / / / / o@m$o$4 m+m m.V ) 2 ` 2 F k.H ",
"/ / f.p$i ).v+8.).V V H m ).f k.V.2 j s.z .+)@/ / / / / / / / / / o@q$J+|+E.z H V V F k@).f k.1 ",
"/ / f.S+4.F r@m E ).F m.1 5.a.).c ) E H 4.V+5@/ / / / / / / / / / o@r$4.5.Z ).' m F y 1 I B E 8."};
